<svg id="bb49e5be-64e8-4a1a-b799-29d3d5b7f391" data-name="Layer 1" xmlns="http://www.w3.org/2000/svg" viewBox="0 0 360 584">
  <style>svg {cursor : none;}</style>
  <title>douro-BTC-gray</title>
  <path d="M27.77386,481.49763H322.9098c14.20328,0,25.71731-13.0153,25.71731-29.0705V29.0705C348.62711,13.0153,337.11308,0,322.9098,0H27.77386C13.57058,0,2.05655,13.0153,2.05655,29.0705V452.42713C2.05655,468.48233,13.57058,481.49763,27.77386,481.49763Z" fill="#f2f2f2"/>
  <g>
    <g>
      <g>
        <path d="M348.61754,403.07351v54.10207a27.24141,27.24141,0,0,1-27.23078,27.23079H28.229A27.24141,27.24141,0,0,1,.9982,457.17558V403.07351H2.03171A25.736,25.736,0,0,0,27.75716,428.799H322.89209A25.736,25.736,0,0,0,348.61754,403.07351Z" fill="#e6e6e6"/>
        <path d="M54.31391,367.5971a4.87592,4.87592,0,0,0,4.87548,4.89795H177.7736a4.895,4.895,0,0,0,4.89794-4.89795V319.11193a4.90944,4.90944,0,0,0-4.89794-4.89794H59.18939a4.89025,4.89025,0,0,0-4.87548,4.89794V367.5971ZM303.525,190.19261h.719V44.13048h-.719v-.0674H47.23661v.0674H46.4053V190.19261H303.525Zm45.09256,212.76856v.11234A25.736,25.736,0,0,1,322.89209,428.799H27.75716A25.736,25.736,0,0,1,2.03171,403.07351V28.56041A25.72159,25.72159,0,0,1,27.75716,2.835H322.89209a25.72159,25.72159,0,0,1,25.72545,25.72545V402.96117ZM306.648,355.64432V252.40551a4.895,4.895,0,0,0-4.89794-4.89795H220.70926a4.88074,4.88074,0,0,0-4.898,4.89795V355.64432a4.895,4.895,0,0,0,4.898,4.89794H301.75A4.90944,4.90944,0,0,0,306.648,355.64432ZM179.61594,21.50557a4.47633,4.47633,0,0,0-8.87471,0,4.47982,4.47982,0,0,0,8.87471,0Z" fill="#fff"/>
        <rect x="47.23661" y="44.06308" width="256.28838" height="0.0674" fill="#f2f2f2"/>
        <path d="M306.648,252.40551V355.64432a4.90944,4.90944,0,0,1-4.89794,4.89794H220.70926a4.895,4.895,0,0,1-4.898-4.89794V252.40551a4.88074,4.88074,0,0,1,4.898-4.89795H301.75A4.895,4.895,0,0,1,306.648,252.40551ZM263.3079,306.30538a2.07829,2.07829,0,1,0-2.08949,2.08949A2.06657,2.06657,0,0,0,263.3079,306.30538Z" fill="#ddd"/>
        <rect x="47.23661" y="44.13048" width="256.28838" height="146.06213" fill="#f2f2f2"/>
        <path d="M177.7736,314.214a4.90944,4.90944,0,0,1,4.89794,4.89794v46.7327a5.32171,5.32171,0,0,1-5.32483,5.32483H59.63874a5.32171,5.32171,0,0,1-5.32483-5.32483v-46.7327a4.89025,4.89025,0,0,1,4.87548-4.89794ZM76.01765,339.80463v15.52514a4.01766,4.01766,0,0,0,4.02171,4.02171h76.88427a4.01766,4.01766,0,0,0,4.0217-4.02171V330.97485a4.01766,4.01766,0,0,0-4.0217-4.02171H80.03936a4.01766,4.01766,0,0,0-4.02171,4.02171v8.82978Z" fill="#e6e6e6"/>
        <path d="M80.03936,359.35148a4.01766,4.01766,0,0,1-4.02171-4.02171v-2.51638h84.92768v2.51638a4.01766,4.01766,0,0,1-4.0217,4.02171Z" fill="#ccc"/>
        <path d="M360.99721,240.11571v27.72507a1.78124,1.78124,0,0,1-1.41547,1.75247l-10.9642,2.26924V236.094l10.9642,2.26923A1.78125,1.78125,0,0,1,360.99721,240.11571Z" fill="#fff"/>
        <path d="M80.03936,326.95314h76.88427a4.01766,4.01766,0,0,1,4.0217,4.02171v2.51637H76.01765v-2.51637A4.01766,4.01766,0,0,1,80.03936,326.95314Z" fill="#ccc"/>
        <path d="M177.34671,371.16946a5.32171,5.32171,0,0,0,5.32483-5.32483v1.75247a4.895,4.895,0,0,1-4.89794,4.89795H59.18939a4.87592,4.87592,0,0,1-4.87548-4.89795v-1.75247a5.32171,5.32171,0,0,0,5.32483,5.32483Z" fill="#4d4d4d"/>
        <path d="M175.16735,17.61867a4.19527,4.19527,0,0,1,4.44859,3.8869,4.47982,4.47982,0,0,1-8.87471,0A4.18823,4.18823,0,0,1,175.16735,17.61867Z" fill="#4d4d4d"/>
        <path d="M261.21841,304.23836a2.07829,2.07829,0,1,1-2.067,2.067A2.06657,2.06657,0,0,1,261.21841,304.23836Z" fill="#4d4d4d"/>
        <rect x="303.52498" y="44.13048" width="0.71896" height="146.06213" fill="#f2f2f2"/>
        <rect x="76.01765" y="347.30882" width="84.92768" height="5.50457" fill="#b3b3b3"/>
        <rect x="46.4053" y="44.13048" width="0.8313" height="146.06213" fill="#f2f2f2"/>
        <rect x="76.01765" y="333.49122" width="84.92768" height="6.31341" fill="#b3b3b3"/>
        <rect x="76.01765" y="339.80463" width="84.92768" height="7.50419" fill="#4d4d4d"/>
      </g>
      <path d="M348.61754,402.96117V28.56041A25.72159,25.72159,0,0,0,322.89209,2.835H27.75716A25.72159,25.72159,0,0,0,2.03171,28.56041v374.5131A25.736,25.736,0,0,0,27.75716,428.799H322.89209a25.736,25.736,0,0,0,25.72545-25.72544" fill="none" stroke="#ccc" stroke-miterlimit="10" stroke-width="4.13"/>
    </g>
    <line x1="74.85608" y1="91.81951" x2="166.25273" y2="91.81951" fill="#1a1a1a" stroke="#1a1a1a" stroke-linecap="round" stroke-linejoin="round" stroke-width="5.43576"/>
    <line x1="74.85608" y1="105.56821" x2="138.75948" y2="105.56821" fill="#1a1a1a" stroke="#1a1a1a" stroke-linecap="round" stroke-linejoin="round" stroke-width="5.43576"/>
    <line x1="74.85608" y1="127.14556" x2="138.75948" y2="127.14556" fill="none" stroke="#0e4160" stroke-linecap="round" stroke-linejoin="round" stroke-width="2.71788"/>
    <line x1="74.85608" y1="137.48212" x2="124.28848" y2="137.48212" fill="none" stroke="#0e4160" stroke-linecap="round" stroke-linejoin="round" stroke-width="2.71788"/>
    <g>
      <rect x="195.88175" y="95.52702" width="70.72771" height="94.66784" fill="#f2f2f2"/>
      <g>
        <path d="M266.63052,95.1969,266.169,95.12h-69.9915l-.46148.07691a7.15638,7.15638,0,0,1,7.22989-7.153h56.53159A7.13942,7.13942,0,0,1,266.63052,95.1969Z" fill="#1a1a1a"/>
        <g>
          <path d="M195.86989,190.18536l-.15383-94.98846a7.15638,7.15638,0,0,1,7.22989-7.153h56.53159a7.13942,7.13942,0,0,1,7.153,7.153v94.98846" fill="none" stroke="#231f20" stroke-miterlimit="10" stroke-width="1.11009"/>
          <line x1="196.17754" y1="95.11999" x2="266.16904" y2="95.11999" fill="none" stroke="#231f20" stroke-miterlimit="10" stroke-width="1.11009"/>
        </g>
      </g>
      <g>
        <rect x="208.87874" y="111.76883" width="46.82956" height="46.82956" fill="#fff"/>
        <g>
          <rect x="208.87874" y="111.76883" width="15.60985" height="15.60985" fill="#231f20"/>
          <rect x="224.48859" y="111.76883" width="7.80493" height="7.80493" fill="#231f20"/>
          <rect x="232.29352" y="119.57376" width="7.80493" height="7.80493" fill="#231f20"/>
          <rect x="240.09844" y="111.76883" width="7.80493" height="7.80493" fill="#231f20"/>
          <rect x="247.90337" y="119.57376" width="7.80493" height="15.60985" fill="#231f20"/>
          <rect x="232.29352" y="135.1836" width="7.80493" height="7.80493" fill="#231f20"/>
          <polygon points="240.098 142.988 240.098 150.793 247.903 150.793 247.903 158.598 255.708 158.598 255.708 142.988 240.098 142.988" fill="#231f20"/>
          <rect x="224.48859" y="142.98854" width="7.80493" height="7.80493" fill="#231f20"/>
          <rect x="216.68366" y="127.37868" width="7.80493" height="7.80493" fill="#231f20"/>
          <rect x="208.87874" y="142.98854" width="7.80493" height="7.80493" fill="#231f20"/>
          <rect x="216.68366" y="150.79346" width="7.80493" height="7.80493" fill="#231f20"/>
          <rect x="208.87874" y="150.79346" width="7.80493" height="7.80493" fill="#231f20"/>
        </g>
      </g>
    </g>
    <g>
      <g>
        <g>
          <g>
            <path d="M296.7877,264.394v133.48a8.14887,8.14887,0,0,1-.542,3.097H226.02162a8.14887,8.14887,0,0,1-.542-3.097V264.394a9.35928,9.35928,0,0,1,.46455-2.94213h70.379A9.35928,9.35928,0,0,1,296.7877,264.394Z" fill="#1a1a1a"/>
            <path d="M296.32315,261.45184H225.9442a9.98712,9.98712,0,0,1,9.60065-7.20049h51.17766A9.98711,9.98711,0,0,1,296.32315,261.45184Z" fill="#1a1a1a"/>
            <path d="M226.02162,400.971h70.22411a10.01877,10.01877,0,0,1-9.52322,6.96821H235.54485A10.01877,10.01877,0,0,1,226.02162,400.971Z" fill="#1a1a1a"/>
          </g>
          <g>
            <path d="M296.24573,400.971a10.01877,10.01877,0,0,1-9.52322,6.96821H235.54485a10.01877,10.01877,0,0,1-9.52323-6.96821,8.14887,8.14887,0,0,1-.542-3.097V264.394a9.35928,9.35928,0,0,1,.46455-2.94213,9.98712,9.98712,0,0,1,9.60065-7.20049h51.17766a9.98711,9.98711,0,0,1,9.60064,7.20049,9.35928,9.35928,0,0,1,.46455,2.94213v133.48A8.14887,8.14887,0,0,1,296.24573,400.971Z" fill="none" stroke="#231f20" stroke-miterlimit="10" stroke-width="0.44874"/>
            <polyline points="225.944 261.452 296.323 261.452 296.401 261.452" fill="none" stroke="#231f20" stroke-miterlimit="10" stroke-width="0.44874"/>
            <polyline points="226.022 400.971 296.246 400.971 296.323 400.971" fill="none" stroke="#231f20" stroke-miterlimit="10" stroke-width="0.44874"/>
          </g>
        </g>
        <circle cx="243.02223" cy="273.85247" r="4.89087" fill="#b3b3b3"/>
      </g>
      <path d="M306.25416,335.54972s-1.6404-8.14948-9.72174-6.103l4.171-1.44243a9.05223,9.05223,0,0,0,5.55075-11.1815s-1.72886-8.73015-10.52273-5.89832L233.98891,330.871l-4.35434-14.95835a8.723,8.723,0,0,0-11.01505-6.17427l-.76444.25122a9.47582,9.47582,0,0,0-5.81056,11.70476l8.52733,29.29363V584h58.29437V384.47144l15.77589-5.04562a8.74666,8.74666,0,0,0,5.71062-10.63239,8.64774,8.64774,0,0,0-2.44171-4.29619l1.05152-.33627a8.74662,8.74662,0,0,0,5.71061-10.6324s-1.12976-5.76951-6.71821-5.91991l2.74847-.87732A9.05241,9.05241,0,0,0,306.25416,335.54972Z" fill="#b3b3b3"/>
    </g>
  </g>
</svg>
