<svg id="emrGYTzlMPA1" xmlns="http://www.w3.org/2000/svg" xmlns:xlink="http://www.w3.org/1999/xlink" viewBox="0 0 480 626.6" shape-rendering="geometricPrecision" text-rendering="geometricPrecision"><style><![CDATA[#emrGYTzlMPA72_to {animation: emrGYTzlMPA72_to__to 3500ms linear infinite normal forwards}@keyframes emrGYTzlMPA72_to__to { 0% {transform: translate(314.98201px,813.056509px)} 42.857143% {transform: translate(314.98201px,813.056509px);animation-timing-function: cubic-bezier(0,0,0.58,1)} 57.142857% {transform: translate(314.98201px,452.048751px);animation-timing-function: cubic-bezier(0,0,0.58,1)} 60% {transform: translate(314.98201px,467.09999px)} 80% {transform: translate(314.98201px,467.09999px)} 91.428571% {transform: translate(196.793295px,841.005276px)} 100% {transform: translate(196.793295px,841.005276px)}} #emrGYTzlMPA85_to {animation: emrGYTzlMPA85_to__to 3500ms linear infinite normal forwards}@keyframes emrGYTzlMPA85_to__to { 0% {transform: translate(287.850006px,846.452646px);animation-timing-function: cubic-bezier(0.42,0,0.58,1)} 11.428571% {transform: translate(264.400023px,477.1px);animation-timing-function: cubic-bezier(0.42,0,0.58,1)} 14.285714% {transform: translate(264.400023px,491.1px)} 29.428571% {transform: translate(264.400023px,491.1px)} 40% {transform: translate(197.672073px,846.352646px)} 100% {transform: translate(197.672073px,846.352646px)}}]]></style><path id="emrGYTzlMPA2" d="M415.3,626.6L419.7,626.6L419.7,2.2C419.7,1,409.2,0,396.3,0.1L375.2,0.1C374.6,0.1,374,0.3,373.5,0.6L106.5,0.5C105.9,0.2,105.4,0,104.7,0L83.6,0C70.8,0,60.3,1,60.4,2.2L60.4,626.5L64.8,626.5L64.8,626.6L415.3,626.6M64.8,425.7L65.5,425.7L65.5,425.8L64.8,425.7L64.8,425.7Z" fill="rgb(42,53,63)" stroke="none" stroke-width="1"/><g id="emrGYTzlMPA3"><g id="emrGYTzlMPA4"><g id="emrGYTzlMPA5"><g id="emrGYTzlMPA6"><path id="emrGYTzlMPA7" d="M106.5,0.5L85.2,0.5L82.8,0.5L80.5,0.5L78.2,0.6L76,0.7L74,0.8L72.2,0.9L70.5,1L69,1.2L67.8,1.4L66.8,1.6L66.1,1.8L65.6,2L65.5,2.1L65.5,425.7L64.8,425.7L64.8,610L64.8,626.5L60.4,626.5L60.4,2.2C60.3,1,70.8,0,83.6,0L104.7,0C105.4,0,105.9,0.2,106.5,0.5Z" fill="rgb(230,231,232)" stroke="none" stroke-width="1"/><path id="emrGYTzlMPA8" d="M419.7,2.2L419.7,626.6L415.3,626.6L415.3,625.9L415.3,425.8L414.5,425.8L414.5,2.2L414.3,2L414.1,1.9L414.1,1.9L414,1.9L413.8,1.8L413.1,1.6L412.1,1.4L410.9,1.2L409.5,1.1L407.8,0.9L406,0.8L404,0.7L401.8,0.6L399.5,0.6L397.2,0.6L394.8,0.6L373.5,0.6C374,0.3,374.6,0.1,375.2,0.1L396.3,0.1C409.2,0,419.7,1,419.7,2.2Z" fill="rgb(230,231,232)" stroke="none" stroke-width="1"/><polygon id="emrGYTzlMPA9" points="414.4,2 414.3,1.9 414.3,1.9 414.2,1.9 414,1.8 413.2,1.7 412.2,1.5 411,1.3 409.6,1.1 407.9,0.9 406.1,0.8 404.1,0.7 401.9,0.6 399.6,0.6 397.3,0.6 394.9,0.6 85.2,0.6 82.8,0.6 80.5,0.6 78.2,0.6 76,0.7 74,0.8 72.2,0.9 70.5,1.1 69,1.3 67.9,1.5 66.8,1.7 66.1,1.8 65.7,2 65.5,2.2 65.5,424 414.5,424 414.5,2.2" fill="rgb(42,53,63)" stroke="rgb(0,0,0)" stroke-width="0.1399" stroke-linecap="round" stroke-linejoin="round"/><circle id="emrGYTzlMPA10" r="4.4" transform="matrix(1 0 0 1 240 43.9)" fill="rgb(42,53,63)" stroke="rgb(0,0,0)" stroke-width="0.1399" stroke-linecap="round" stroke-linejoin="round"/><path id="emrGYTzlMPA11" d="M238.2,392C238,395.9,234.7,398.8,231,398.6L111,398.6C107.1,398.8,103.9,395.8,103.8,392L103.8,306.5C104,302.6,107.3,299.7,111,299.9L231,299.9C234.9,299.7,238.1,302.7,238.2,306.5L238.2,392L238.2,392Z" fill="rgb(42,53,63)" stroke="rgb(0,0,0)" stroke-width="0.1399" stroke-linecap="round" stroke-linejoin="round"/><path id="emrGYTzlMPA12" d="M356,387.1C355.8,391,352.5,393.9,348.8,393.7L290.7,393.7C286.8,393.9,283.6,390.9,283.5,387.1L283.5,311.3C283.7,307.4,287,304.5,290.7,304.7L348.8,304.7C352.7,304.5,355.9,307.5,356,311.3L356,387.1Z" fill="rgb(42,53,63)" stroke="rgb(0,0,0)" stroke-width="0.1399" stroke-linecap="round" stroke-linejoin="round"/><path id="emrGYTzlMPA13" d="M382.7,237.6C382.7,240.4,380.4,242.8,377.5,242.8L102.6,242.8C99.8,242.8,97.4,240.5,97.4,237.6L97.4,72.3C97.4,69.5,99.7,67.1,102.6,67.1L377.6,67.1C380.4,67.1,382.8,69.4,382.8,72.3L382.7,237.6L382.7,237.6Z" fill="rgb(42,53,63)" stroke="rgb(0,0,0)" stroke-width="0.1399" stroke-linecap="round" stroke-linejoin="round"/><path id="emrGYTzlMPA14" d="M377.5,67.1L102.6,67.1C99.8,67.1,97.4,69.4,97.4,72.3L97.4,237.6C97.4,240.4,99.7,242.8,102.6,242.8L377.6,242.8C380.4,242.8,382.8,240.5,382.8,237.6L382.8,72.3C382.7,69.4,380.4,67.1,377.5,67.1Z" fill="rgb(0,0,0)" stroke="rgb(0,0,0)" stroke-width="0.1399" stroke-linecap="round" stroke-linejoin="round"/><rect id="emrGYTzlMPA15" width="251" height="141.5" rx="0" ry="0" transform="matrix(1 0 0 1 114.5 84.2)" fill="rgb(0,0,0)" stroke="rgb(0,0,0)" stroke-width="0.1399" stroke-linecap="round" stroke-linejoin="round"/><rect id="emrGYTzlMPA16" width="251" height="141.5" rx="0" ry="0" transform="matrix(1 0 0 1 114.5 84.2)" fill="rgb(242,242,242)" stroke="rgb(0,0,0)" stroke-width="0.1399" stroke-linecap="round" stroke-linejoin="round"/><rect id="emrGYTzlMPA17" width="350.5" height="189.4" rx="0" ry="0" transform="matrix(1 0 0 1 64.8 437.2)" fill="rgb(42,53,63)" stroke="none" stroke-width="1"/><path id="emrGYTzlMPA18" d="M380.1,480.6C379.9,484.9,376.3,488.2,372.1,488.1L105.5,488.1C101.2,488.2,97.6,484.9,97.5,480.6L97.5,453.6C97.7,449.3,101.3,446,105.5,446.1L372,446.1C376.3,446,379.9,449.3,380,453.6L380,480.6L380.1,480.6Z" fill="rgb(42,53,63)" stroke="none" stroke-width="1"/><path id="emrGYTzlMPA19" d="M372.1,446.1L105.5,446.1C101.2,446,97.6,449.3,97.5,453.6L97.5,480.6C97.6,484.9,101.3,488.2,105.5,488.1L372,488.1C376.3,488.2,379.9,484.9,380,480.6L380,453.6C379.9,449.3,376.3,446,372.1,446.1Z" fill="rgb(37,47,56)" stroke="rgb(0,0,0)" stroke-width="0.1399" stroke-miterlimit="10"/><path id="emrGYTzlMPA20" d="M109.8,477.8C109.7,478.9,108.9,479.8,107.7,479.9C106.5,480,105.5,479,105.4,477.8L105.4,457.3C105.5,456.2,106.3,455.3,107.5,455.2C108.7,455.1,109.7,456.1,109.8,457.3L109.8,477.8Z" fill="rgb(37,47,56)" stroke="rgb(0,0,0)" stroke-width="0.1399" stroke-miterlimit="10"/><path id="emrGYTzlMPA21" d="M213.8,477.8C213.7,479.7,212.1,481.3,210.1,481.2L210.1,481.4L210,481.6L209.8,481.8L209.5,481.9L209.1,482L208.6,482.1L208.1,482.2L207.5,482.2L206.9,482.2L184.4,482.2C182.2,482.3,180,481.9,177.9,481.2L177.1,480.8L176.1,480.5L174.9,480.2L173.5,480L172,479.9L170.4,479.8L169,479.8L167.4,479.9L165.9,480L164.5,480.2L163.3,480.5L162.3,480.8L161.5,481.2C159.4,482,157.2,482.4,155,482.2L133,482.2L132.5,482.2L131.9,482.2L131.5,482L131,481.9L130.6,481.8L130.3,481.7L130.1,481.5L130,481.3L130,481.1C128.1,481.2,126.4,479.6,126.3,477.7L126.3,457.2C126.4,455.3,128,453.7,130,453.8L210,453.8C211.9,453.7,213.6,455.3,213.7,457.2L213.8,477.8L213.8,477.8Z" fill="rgb(37,47,56)" stroke="rgb(0,0,0)" stroke-width="0.1399" stroke-miterlimit="10"/><path id="emrGYTzlMPA22" d="M351,477.8C350.9,479.7,349.3,481.3,347.3,481.2L293.5,481.2C291.6,481.3,289.9,479.7,289.8,477.8L289.8,457.3C289.9,455.4,291.5,453.8,293.5,453.9L347.3,453.9C349.2,453.8,350.9,455.4,351,457.3L351,477.8Z" fill="rgb(37,47,56)" stroke="rgb(0,0,0)" stroke-width="0.1399" stroke-miterlimit="10"/><path id="emrGYTzlMPA23" d="M372.1,477.8C372,478.9,371.2,479.8,370,479.9C368.8,480,367.8,479,367.7,477.8L367.7,457.3C367.8,456.2,368.6,455.3,369.8,455.2C371,455.1,372,456.1,372.1,457.3L372.1,477.8Z" fill="rgb(37,47,56)" stroke="rgb(0,0,0)" stroke-width="0.1399" stroke-miterlimit="10"/><path id="emrGYTzlMPA24" d="M351,473.8L351,477.7C350.9,479.6,349.3,481.2,347.3,481.1L293.5,481.1C291.6,481.2,289.9,479.6,289.8,477.7L289.8,473.8L351,473.8Z" fill="rgb(153,153,153)" stroke="none" stroke-width="1"/><path id="emrGYTzlMPA25" d="M351,457.3L351,463.4L289.9,463.4L289.9,457.3C290,455.4,291.6,453.8,293.6,453.9L347.3,453.9C349.2,453.8,350.9,455.3,351,457.3Z" fill="rgb(153,153,153)" stroke="none" stroke-width="1"/><rect id="emrGYTzlMPA26" width="61.1" height="10.5" rx="0" ry="0" transform="matrix(1 0 0 1 289.8 463.3)" fill="rgb(128,128,128)" stroke="none" stroke-width="1"/><rect id="emrGYTzlMPA27" width="61.1" height="5.2" rx="0" ry="0" transform="matrix(1 0 0 1 289.8 463.3)" fill="rgb(0,0,0)" stroke="none" stroke-width="1"/><path id="emrGYTzlMPA28" d="M372.1,457.3L372.1,477.8C372,478.9,371.2,479.8,370,479.9C368.8,480,367.8,479,367.7,477.8L367.7,457.3C367.8,456.2,368.6,455.3,369.8,455.2C371,455.1,372,456.1,372.1,457.3Z" fill="rgb(204,204,204)" stroke="none" stroke-width="1"/><path id="emrGYTzlMPA29" d="M109.8,457.3L109.8,477.8C109.7,478.9,108.9,479.8,107.7,479.9C106.5,480,105.5,479,105.4,477.8L105.4,457.3C105.5,456.2,106.3,455.3,107.5,455.2C108.8,455.1,109.8,456.1,109.8,457.3Z" fill="rgb(204,204,204)" stroke="none" stroke-width="1"/><rect id="emrGYTzlMPA30" width="80" height="5.9" rx="0" ry="0" transform="matrix(1 0 0 1 130.2 453.9)" fill="rgb(51,51,51)" stroke="none" stroke-width="1"/><path id="emrGYTzlMPA31" d="M210.2,466.5L210.2,478.6L210.1,478.8L209.9,479L209.6,479.1L209.2,479.2L208.7,479.3L208.2,479.4L207.6,479.4L207,479.4L184.5,479.4C182.3,479.5,180.1,479.1,178,478.4L177.5,478L176.5,477.7L175.3,477.4L174,477.1L172.5,477L170.9,476.9L169.3,476.9L167.7,477L166.2,477.1L164.8,477.3L163.6,477.6L162.6,477.9L161.8,478.3C159.7,479.1,157.5,479.5,155.3,479.3L133,479.3L132.5,479.3L131.9,479.3L131.4,479.2L130.9,479.1L130.5,479L130.2,478.9L130,478.7L129.9,478.5L129.9,466.4L210.2,466.5L210.2,466.5Z" fill="rgb(153,153,153)" stroke="none" stroke-width="1"/><path id="emrGYTzlMPA32" d="M210.2,478.6L210.2,481.4L210.1,481.6L209.9,481.8L209.6,481.9L209.2,482L208.7,482.1L208.2,482.2L207.6,482.2L207,482.2L184.5,482.2C182.3,482.3,180.1,481.9,178,481.2L177.2,480.8L176.2,480.5L175,480.2L173.6,480L172.5,480L170.9,479.9L169.4,479.9L167.8,480L166.3,480.1L164.9,480.3L163.7,480.6L162.7,480.9L161.9,481.3C159.8,482.1,157.6,482.5,155.4,482.3L133,482.3L132.5,482.3L131.9,482.3L131.4,482.2L130.9,482.1L130.5,482L130.2,481.9L130,481.7L129.9,481.5L129.9,478.7L130,478.9L130.2,479.1L130.5,479.2L130.9,479.3L131.4,479.4L131.9,479.5L132.5,479.5L133.1,479.5L155.5,479.5C157.7,479.6,159.9,479.2,162,478.5L162.8,478.1L163.8,477.8L165,477.5L166.4,477.3L167.9,477.2L169.5,477.1L171.1,477.1L172.7,477.2L174.2,477.3L175.6,477.5L176.8,477.8L177.8,478.1L178.6,478.5C180.7,479.3,182.9,479.7,185.1,479.5L207.6,479.5L208.2,479.5L208.8,479.5L209.3,479.4L209.8,479.3L210.2,479.2L210.5,479.1L210.7,478.9L210.2,478.6Z" fill="rgb(128,128,128)" stroke="none" stroke-width="1"/><path id="emrGYTzlMPA33" d="M213.8,457.3L213.8,477.8C213.7,479.7,212.1,481.3,210.1,481.2L210.1,453.9C212.2,453.8,213.8,455.3,213.8,457.3Z" fill="rgb(102,102,102)" stroke="none" stroke-width="1"/><path id="emrGYTzlMPA34" d="M130.2,453.9L130.2,481.2C128.3,481.3,126.6,479.7,126.5,477.8L126.5,457.3C126.6,455.3,128.3,453.8,130.2,453.9Z" fill="rgb(102,102,102)" stroke="none" stroke-width="1"/><circle id="emrGYTzlMPA35" r="4.4" transform="matrix(1 0 0 1 240 43.9)" fill="rgb(0,0,0)" stroke="rgb(0,0,0)" stroke-width="0.1399" stroke-linecap="round" stroke-linejoin="round"/><path id="emrGYTzlMPA36" d="M348.8,304.8L290.6,304.8C286.7,304.6,283.5,307.6,283.4,311.4L283.4,387.2C283.6,391.1,286.9,394,290.6,393.8L348.8,393.8C352.7,394,355.9,391,356,387.2L356,311.4C355.8,307.5,352.5,304.6,348.8,304.8Z" fill="rgb(230,231,232)" stroke="rgb(0,0,0)" stroke-width="0.1399" stroke-linecap="round" stroke-linejoin="round"/><path id="emrGYTzlMPA37" d="M319.6,351.4C318.4,351.4,317.4,350.4,317.4,349.2C317.4,348,318.4,347,319.6,347C320.8,347,321.8,348,321.8,349.2C321.9,350.4,320.9,351.4,319.6,351.4Z" fill="rgb(230,231,232)" stroke="rgb(0,0,0)" stroke-width="0.1399" stroke-linecap="round" stroke-linejoin="round"/><path id="emrGYTzlMPA38" d="M231,299.9L111,299.9C107.1,299.7,103.9,302.7,103.8,306.5L103.8,392C104,395.9,107.3,398.8,111,398.6L231,398.6C234.9,398.8,238.1,395.8,238.2,392L238.2,306.5C238,302.7,234.8,299.7,231,299.9Z" fill="rgb(42,53,63)" stroke="rgb(0,0,0)" stroke-width="0.6995" stroke-linecap="round" stroke-linejoin="round"/><path id="emrGYTzlMPA39" d="M203,361.6C203,362.2,202.4,362.8,201.8,362.8L140.2,362.8C139.6,362.8,139,362.2,139,361.6L139,359.9C139,359.3,139.6,358.7,140.2,358.7L201.8,358.7C202.4,358.7,203,359.3,203,359.9L203,361.6L203,361.6Z" fill="rgb(42,53,63)" stroke="rgb(0,0,0)" stroke-width="0.6995" stroke-linecap="round" stroke-linejoin="round"/><rect id="emrGYTzlMPA40" width="64" height="1.2" rx="0" ry="0" transform="matrix(1 0 0 1 139 360.2)" fill="none" stroke="rgb(0,0,0)" stroke-width="0.1399" stroke-linecap="round" stroke-linejoin="round"/><rect id="emrGYTzlMPA41" width="349.1" height="4.9" rx="0" ry="0" transform="matrix(1 0 0 1 65.5 424.1)" fill="rgb(22,27,30)" stroke="none" stroke-width="1"/><rect id="emrGYTzlMPA42" width="80" height="6.9" rx="0" ry="0" transform="matrix(1 0 0 1 130.2 459.6)" fill="rgb(0,0,0)" stroke="none" stroke-width="1"/><path id="emrGYTzlMPA43" d="M203,361.3L203,361.6C203,362.2,202.4,362.8,201.8,362.8L140.2,362.8C139.6,362.8,139,362.2,139,361.6L139,361.3L203,361.3Z" fill="rgb(22,27,30)" stroke="rgb(0,0,0)" stroke-width="0.1399" stroke-linecap="round" stroke-linejoin="round"/><path id="emrGYTzlMPA44" d="M203,359.9L203,360.2L139,360.2L139,359.9C139,359.3,139.6,358.7,140.2,358.7L201.8,358.7C202.5,358.7,203,359.1,203,359.9Z" fill="rgb(22,27,30)" stroke="rgb(0,0,0)" stroke-width="0.1399" stroke-linecap="round" stroke-linejoin="round"/><rect id="emrGYTzlMPA45" width="64" height="1.2" rx="0" ry="0" transform="matrix(1 0 0 1 139 360.2)" fill="none" stroke="rgb(0,0,0)" stroke-width="0.1399" stroke-linecap="round" stroke-linejoin="round"/><rect id="emrGYTzlMPA46" width="64" height="1.2" rx="0" ry="0" transform="matrix(1 0 0 1 139 360.2)" fill="rgb(0,0,0)" stroke="rgb(0,0,0)" stroke-width="0.1399" stroke-linecap="round" stroke-linejoin="round"/><path id="emrGYTzlMPA47" d="M321.9,349.2C321.9,350.4,320.9,351.4,319.7,351.4C318.5,351.4,317.5,350.4,317.5,349.2C317.5,348,318.5,347,319.7,347C320.9,347,321.9,348,321.9,349.2Z" fill="rgb(0,0,0)" stroke="rgb(0,0,0)" stroke-width="0.1399" stroke-linecap="round" stroke-linejoin="round"/><polygon id="emrGYTzlMPA48" points="415.3,425.8 415.3,431.7 64.8,431.7 64.8,425.8 65.5,425.8 65.5,428.8 414.6,428.8 414.6,425.8" fill="rgb(0,0,0)" stroke="none" stroke-width="1"/><rect id="emrGYTzlMPA49" width="350.5" height="5.5" rx="0" ry="0" transform="matrix(1 0 0 1 64.8 431.7)" fill="rgb(22,27,30)" stroke="none" stroke-width="1"/></g></g></g><g id="emrGYTzlMPA50"><g id="emrGYTzlMPA51"><path id="emrGYTzlMPA52" d="M230.6,118L139.6,118C138.1,118,136.9,116.7,136.9,115.3C136.9,113.8,138.2,112.6,139.6,112.6L230.6,112.6C232.1,112.6,233.3,113.9,233.3,115.3C233.4,116.7,232.3,118,230.6,118L230.6,118Z" transform="matrix(1 0 0 1 0 -0.1)" fill="rgb(14,65,96)" stroke="none" stroke-width="1"/><path id="emrGYTzlMPA53" d="M203.1,131.8L139.3,131.8C137.8,131.8,136.6,130.5,136.6,129.1C136.6,127.6,137.9,126.4,139.3,126.4L203.1,126.4C204.6,126.4,205.8,127.7,205.8,129.1C205.9,130.5,204.7,131.8,203.1,131.8Z" fill="rgb(14,65,96)" stroke="none" stroke-width="1"/><path id="emrGYTzlMPA54" d="M201.7,151.9L137.9,151.9C137.2,151.9,136.4,151.3,136.4,150.4C136.4,149.7,137,148.9,137.9,148.9L201.7,148.9C202.4,148.9,203.2,149.5,203.2,150.4C203.3,151.1,202.5,151.9,201.7,151.9Z" fill="rgb(14,65,96)" stroke="none" stroke-width="1"/><path id="emrGYTzlMPA55" d="M187.4,162.3L138.1,162.3C137.4,162.3,136.6,161.7,136.6,160.8C136.6,160.1,137.2,159.3,138.1,159.3L187.4,159.3C188.1,159.3,188.9,159.9,188.9,160.8C188.9,161.5,188.1,162.3,187.4,162.3Z" fill="rgb(14,65,96)" stroke="none" stroke-width="1"/></g><g id="emrGYTzlMPA56"><g id="emrGYTzlMPA57"><polygon id="emrGYTzlMPA58" points="343.1,225.6 265,225.6 265,121.6 343.3,121.6" fill="rgb(242,242,242)" stroke="none" stroke-width="1"/><g id="emrGYTzlMPA59"><rect id="emrGYTzlMPA60" width="51.4" height="51.4" rx="0" ry="0" transform="matrix(1 0 0 1 279.2 139.5)" fill="rgb(255,255,255)" stroke="none" stroke-width="1"/><g id="emrGYTzlMPA61"><rect id="emrGYTzlMPA62" width="8.4" height="8.4" rx="0" ry="0" transform="matrix(1 0 0 1 305 148)" fill="rgb(35,31,32)" stroke="none" stroke-width="1"/><rect id="emrGYTzlMPA63" width="8.4" height="8.4" rx="0" ry="0" transform="matrix(1 0 0 1 313.7 139.5)" fill="rgb(35,31,32)" stroke="none" stroke-width="1"/><rect id="emrGYTzlMPA64" width="8.4" height="17.1" rx="0" ry="0" transform="matrix(1 0 0 1 322.3 148)" fill="rgb(35,31,32)" stroke="none" stroke-width="1"/><polygon id="emrGYTzlMPA65" points="313.7,173.7 313.7,164.9 305,164.9 305,173.7 313.7,173.7 313.7,182.3 322.3,182.3 322.3,190.6 330.8,190.6 330.8,173.7" fill="rgb(35,31,32)" stroke="none" stroke-width="1"/><rect id="emrGYTzlMPA66" width="8.4" height="8.4" rx="0" ry="0" transform="matrix(1 0 0 1 296.4 173.7)" fill="rgb(35,31,32)" stroke="none" stroke-width="1"/><polygon id="emrGYTzlMPA67" points="287.8,164.9 296.4,164.9 296.4,148 305,148 305,139.5 279.2,139.5 279.2,156.5 287.8,156.5" fill="rgb(35,31,32)" stroke="none" stroke-width="1"/><polygon id="emrGYTzlMPA68" points="287.8,173.7 279.2,173.7 279.2,190.6 296.4,190.6 296.4,182.3 287.8,182.3" fill="rgb(35,31,32)" stroke="none" stroke-width="1"/></g></g></g><path id="emrGYTzlMPA69" d="M334.9,112.5L272.8,112.5C268,112.5,264.4,116.4,264.4,120.9L264.5,225.5L265.8,225.5L265.7,121.6L342.3,121.6L342.3,225.5L343.6,225.5L343.6,121C343.3,116.4,339.4,112.9,334.9,112.5Z" fill="rgb(35,31,32)" stroke="none" stroke-width="1"/></g></g></g><g id="emrGYTzlMPA70"><rect id="emrGYTzlMPA71" width="347.9" height="1.8" rx="0" ry="0" transform="matrix(1 0 0 1 66 427.6)" fill="rgb(26,26,26)" stroke="none" stroke-width="1"/></g><g id="emrGYTzlMPA72_to" transform="translate(314.98201,813.056509)"><g id="emrGYTzlMPA72" transform="translate(-314.98201,-452.148727)"><g id="emrGYTzlMPA73"><g id="emrGYTzlMPA74"><g id="emrGYTzlMPA75"><path id="emrGYTzlMPA76" d="M352.7,287.7L352.7,421.2C352.7,422.3,352.5,423.4,352.2,424.4L282,424.4C281.6,423.4,281.4,422.3,281.5,421.2L281.5,287.7C281.5,286.7,281.7,285.7,282,284.8L352.4,284.8C352.5,285.7,352.7,286.7,352.7,287.7Z" fill="rgb(26,26,26)" stroke="none" stroke-width="1"/><path id="emrGYTzlMPA77" d="M352.2,284.8L281.8,284.8C283.1,280.6,287,277.7,291.4,277.7L342.6,277.7C347,277.6,350.9,280.5,352.2,284.8Z" fill="rgb(26,26,26)" stroke="none" stroke-width="1"/><path id="emrGYTzlMPA78" d="M281.9,424.3L352.1,424.3C350.8,428.4,346.9,431.2,342.6,431.2L291.4,431.2C287.1,431.3,283.2,428.5,281.9,424.3Z" fill="rgb(26,26,26)" stroke="none" stroke-width="1"/></g><g id="emrGYTzlMPA79"><path id="emrGYTzlMPA80" d="M352.1,424.3C350.8,428.4,346.9,431.2,342.6,431.2L291.4,431.2C287.1,431.2,283.2,428.4,281.9,424.3C281.5,423.3,281.3,422.2,281.4,421.1L281.4,287.7C281.4,286.7,281.6,285.7,281.9,284.8C283.2,280.6,287.1,277.7,291.5,277.7L342.7,277.7C347.1,277.7,351,280.6,352.3,284.8C352.6,285.7,352.8,286.7,352.8,287.7L352.8,421.2C352.7,422.3,352.5,423.3,352.1,424.3Z" fill="none" stroke="rgb(35,31,32)" stroke-width="0.4487" stroke-miterlimit="10"/><polyline id="emrGYTzlMPA81" points="281.7,284.8 281.8,284.8 352.2,284.8" fill="none" stroke="rgb(35,31,32)" stroke-width="0.4487" stroke-miterlimit="10"/><polyline id="emrGYTzlMPA82" points="281.8,424.3 281.9,424.3 352.1,424.3" fill="none" stroke="rgb(35,31,32)" stroke-width="0.4487" stroke-miterlimit="10"/></g></g><ellipse id="emrGYTzlMPA83" rx="4.9" ry="4.9" transform="matrix(0.1602 -0.9871 0.9871 0.1602 298.817305 297.211018)" fill="rgb(179,179,179)" stroke="none" stroke-width="1"/></g><path id="emrGYTzlMPA84" d="M362.1,358.9C362.1,358.9,360.5,350.8,352.4,352.8L356.6,351.4C361.1,349.7,363.6,344.8,362.2,340.2C362.2,340.2,360.5,331.5,351.7,334.3L289.8,354.2L285.4,339.2C284.2,334.5,279.5,331.7,274.8,332.9C274.7,332.9,274.5,333,274.4,333L273.6,333.3C268.9,335,266.3,340.2,267.8,345L276.3,374.3L276.3,626.6L334.6,626.6L334.6,407.8L350.4,402.8C354.8,401.3,357.3,396.7,356.1,392.2C355.7,390.6,354.9,389.1,353.7,387.9L354.8,387.6C359.2,386.1,361.7,381.5,360.5,377C360.5,377,359.4,371.2,353.8,371.1L356.5,370.2C361.1,368.4,363.5,363.5,362.1,358.9Z" fill="rgb(179,179,179)" stroke="none" stroke-width="1"/></g></g><g id="emrGYTzlMPA85_to" transform="translate(287.850006,846.452646)"><g id="emrGYTzlMPA85" transform="translate(-287.850006,-488.147354)"><g id="emrGYTzlMPA86"><g id="emrGYTzlMPA87"><ellipse id="emrGYTzlMPA88" rx="15.4" ry="15.4" transform="matrix(0.033278 -0.9994 0.9994 0.033278 104.436466 388.011494)" fill="rgb(179,179,179)" stroke="none" stroke-width="1"/></g></g><g id="emrGYTzlMPA89"><g id="emrGYTzlMPA90"><path id="emrGYTzlMPA91" d="M492.6,639.8L423.3,708L245,542.2C221.9,547.5,159.5,532.6,152.9,512.4L173.7,483L173.8,482.9C200.6,452.8,248.8,425.6,248.8,425.6L252.5,415.7L275.6,415.7C276.8,416.8,277.9,418.5,278.2,420.3L283.8,456.3C284.8,463.1,288.3,469.2,293.7,473.3L492.6,639.8Z" fill="rgb(179,179,179)" stroke="none" stroke-width="1"/><path id="emrGYTzlMPA92" d="M248.8,425.5C248.8,425.5,200.8,452.7,173.8,482.8L218.9,418.9C235.3,418.6,248.8,425.5,248.8,425.5Z" fill="rgb(128,128,128)" stroke="none" stroke-width="1"/></g></g><g id="emrGYTzlMPA93"><g id="emrGYTzlMPA94"><g id="emrGYTzlMPA95"><path id="emrGYTzlMPA96" d="M225.6,280.4L225.6,514C225.6,514.2,225.6,514.3,225.6,514.7L225.5,514.7L224.8,514.6L106.9,514.6L106.1,514.6L106,514.6C106,514.4,106,514.3,106,513.9L106,280.4L106.8,280.3L225.1,280.3L225.6,280.4Z" fill="rgb(230,230,230)" stroke="none" stroke-width="1"/><path id="emrGYTzlMPA97" d="M225.6,280.4L224.9,280.3L106.7,280.3L105.9,280.4C105.9,273.6,111.3,268.3,118,268.3L213.5,268.3C220.3,268.1,225.6,273.6,225.6,280.4Z" fill="rgb(26,26,26)" stroke="none" stroke-width="1"/><path id="emrGYTzlMPA98" d="M224.8,514.4L225.5,514.5C225.3,520.8,220.1,525.9,213.5,525.9L118,525.9C111.7,525.9,106.3,520.8,106,514.5L106.8,514.4L224.8,514.4L224.8,514.4Z" fill="rgb(26,26,26)" stroke="none" stroke-width="1"/></g><g id="emrGYTzlMPA99"><path id="emrGYTzlMPA100" d="M225.5,514.6C225.3,520.9,220.1,526,213.5,526L118,526C111.7,526,106.3,520.9,106,514.6L105.9,514.6C105.9,514.4,105.9,514.3,105.9,513.9L105.9,280.4C105.9,273.6,111.3,268.3,118,268.3L213.5,268.3C220.3,268.3,225.6,273.6,225.6,280.4L225.6,514C225.6,514.2,225.6,514.3,225.6,514.7L225.5,514.6L225.5,514.6Z" fill="none" stroke="rgb(35,31,32)" stroke-width="1.1471" stroke-miterlimit="10"/><line id="emrGYTzlMPA101" x1="106.7" y1="280.3" x2="224.9" y2="280.3" fill="none" stroke="rgb(35,31,32)" stroke-width="1.1471" stroke-miterlimit="10"/><line id="emrGYTzlMPA102" x1="106.9" y1="514.4" x2="224.8" y2="514.4" fill="none" stroke="rgb(35,31,32)" stroke-width="1.1471" stroke-miterlimit="10"/></g></g><g id="emrGYTzlMPA103"><rect id="emrGYTzlMPA104" width="79.1" height="79.1" rx="0" ry="0" transform="matrix(1 0 0 1 128.2 357.5)" fill="rgb(255,255,255)" stroke="none" stroke-width="1"/><g id="emrGYTzlMPA105"><polygon id="emrGYTzlMPA106" points="128.2,357.5 128.2,383.8 141.4,383.8 141.4,397 154.5,397 154.5,370.6 167.7,370.6 167.7,357.5" fill="rgb(35,31,32)" stroke="none" stroke-width="1"/><rect id="emrGYTzlMPA107" width="13.1" height="13.1" rx="0" ry="0" transform="matrix(1 0 0 1 167.7 370.6)" fill="rgb(35,31,32)" stroke="none" stroke-width="1"/><rect id="emrGYTzlMPA108" width="13.1" height="13.1" rx="0" ry="0" transform="matrix(1 0 0 1 180.9 357.5)" fill="rgb(35,31,32)" stroke="none" stroke-width="1"/><rect id="emrGYTzlMPA109" width="13.1" height="26.4" rx="0" ry="0" transform="matrix(1 0 0 1 194.1 370.6)" fill="rgb(35,31,32)" stroke="none" stroke-width="1"/><polygon id="emrGYTzlMPA110" points="180.9,397 167.7,397 167.7,410.2 180.9,410.2 180.9,423.4 194.1,423.4 194.1,436.7 207.3,436.7 207.3,410.2 180.9,410.2" fill="rgb(35,31,32)" stroke="none" stroke-width="1"/><rect id="emrGYTzlMPA111" width="13.1" height="13.1" rx="0" ry="0" transform="matrix(1 0 0 1 154.5 410.2)" fill="rgb(35,31,32)" stroke="none" stroke-width="1"/><polygon id="emrGYTzlMPA112" points="141.4,410.2 128.2,410.2 128.2,436.7 154.5,436.7 154.5,423.4 141.4,423.4" fill="rgb(35,31,32)" stroke="none" stroke-width="1"/></g></g></g><g id="emrGYTzlMPA113"><g id="emrGYTzlMPA114"><path id="emrGYTzlMPA115" d="M105,450.3C113.3,450.3,119.8,457,119.8,465.3C119.8,469.4,118.1,473.1,115.5,475.8C112.8,478.5,109,480.2,105,480.2L98,480.2C89.7,480.2,83.2,473.5,83.2,465.2C83.2,461.1,84.9,457.4,87.5,454.7C90.2,452,94,450.3,98,450.3L105,450.3Z" fill="rgb(179,179,179)" stroke="none" stroke-width="1"/><path id="emrGYTzlMPA116" d="M105,483C113.3,483,119.8,489.7,119.8,498C119.8,502.1,118.1,505.8,115.5,508.5C112.8,511.2,109,512.8,105,512.8L98,512.8C89.7,512.8,83.2,506.1,83.2,498C83.2,493.9,84.9,490.2,87.5,487.5C90.2,484.8,94,483.2,98,483.2L105,483.2L105,483Z" fill="rgb(179,179,179)" stroke="none" stroke-width="1"/><path id="emrGYTzlMPA117" d="M98.8,415.8C107.5,415.8,114.5,422.8,114.5,431.5C114.5,440.2,107.5,447.2,98.8,447.2C90.1,447.2,83.1,440.2,83.1,431.5C83.1,422.8,90,415.8,98.8,415.8Z" fill="rgb(179,179,179)" stroke="none" stroke-width="1"/></g></g><g id="emrGYTzlMPA118"><g id="emrGYTzlMPA119"><path id="emrGYTzlMPA120" d="M233,359.7L275.8,415.5L249,425.4L215.8,376.9C211.9,372.9,209,363.8,212.9,359.9L216.1,356.7C219.8,352.9,229,355.8,233,359.7Z" fill="rgb(179,179,179)" stroke="none" stroke-width="1"/></g></g></g></g></svg>