<svg id="eqbxUBSdujt1" xmlns="http://www.w3.org/2000/svg" xmlns:xlink="http://www.w3.org/1999/xlink" viewBox="0 0 385 626.6" shape-rendering="geometricPrecision" text-rendering="geometricPrecision"><style><![CDATA[#eqbxUBSdujt60_to {animation: eqbxUBSdujt60_to__to 2200ms linear infinite normal forwards}@keyframes eqbxUBSdujt60_to__to { 0% {transform: translate(339.3px,808.00827px);animation-timing-function: cubic-bezier(0,0,0.58,1)} 25% {transform: translate(302.25336px,464.193206px);animation-timing-function: cubic-bezier(0,0,0.58,1)} 27.272727% {transform: translate(302.25336px,472.907596px)} 57.272727% {transform: translate(302.25336px,472.907596px);animation-timing-function: cubic-bezier(0.42,0,1,1)} 77.272727% {transform: translate(120.75336px,830.14677px)} 100% {transform: translate(120.75336px,830.14677px)}}]]></style><defs><path id="eqbxUBSdujt2" d="M279.4,302L243.6,320.6C242.3,321.3,240.7,320.8,240,319.5L226.1,292.7C225.4,291.4,225.9,289.8,227.2,289.1L263,270.5C264.3,269.8,265.9,270.3,266.6,271.6L280.5,298.4C281.2,299.7,280.7,301.3,279.4,302Z"/></defs><path id="eqbxUBSdujt3" d="M371.8,626.6L376.2,626.6L376.2,2.2C376.2,1,365.7,0,352.8,0.1L331.7,0.1C331.1,0.1,330.5,0.3,330,0.6L63,0.5C62.4,0.2,61.9,0,61.2,0L40.1,0C27.3,0,16.8,1,16.9,2.2L16.9,626.5L21.3,626.5L21.3,626.6L371.8,626.6M21.3,425.7L22,425.7L22,425.8L21.3,425.7L21.3,425.7Z" fill="rgb(42,53,63)" stroke="none" stroke-width="1"/><g id="eqbxUBSdujt4"><g id="eqbxUBSdujt5"><g id="eqbxUBSdujt6"><g id="eqbxUBSdujt7"><path id="eqbxUBSdujt8" d="M63,0.5L41.7,0.5L39.3,0.5L37,0.5L34.7,0.6L32.5,0.7L30.5,0.8L28.7,0.9L27,1L25.5,1.2L24.3,1.4L23.3,1.6L22.6,1.8L22.1,2L22,2.1L22,425.7L21.3,425.7L21.3,610L21.3,626.5L16.9,626.5L16.9,2.2C16.8,1,27.3,0,40.1,0L61.2,0C61.9,0,62.4,0.2,63,0.5Z" fill="rgb(230,231,232)" stroke="none" stroke-width="1"/><path id="eqbxUBSdujt9" d="M376.2,2.2L376.2,626.6L371.8,626.6L371.8,625.9L371.8,425.8L371,425.8L371,2.2L370.8,2L370.6,1.9L370.6,1.9L370.5,1.9L370.3,1.8L369.6,1.6L368.6,1.4L367.4,1.2L366,1.1L364.3,0.9L362.5,0.8L360.5,0.7L358.3,0.6L356,0.6L353.7,0.6L351.3,0.6L330,0.6C330.5,0.3,331.1,0.1,331.7,0.1L352.8,0.1C365.7,0,376.2,1,376.2,2.2Z" fill="rgb(230,231,232)" stroke="none" stroke-width="1"/><polygon id="eqbxUBSdujt10" points="370.9,2 370.8,1.9 370.8,1.9 370.7,1.9 370.5,1.8 369.7,1.7 368.7,1.5 367.5,1.3 366.1,1.1 364.4,0.9 362.6,0.8 360.6,0.7 358.4,0.6 356.1,0.6 353.8,0.6 351.4,0.6 41.7,0.6 39.3,0.6 37,0.6 34.7,0.6 32.5,0.7 30.5,0.8 28.7,0.9 27,1.1 25.5,1.3 24.4,1.5 23.3,1.7 22.6,1.8 22.2,2 22,2.2 22,424 371,424 371,2.2" fill="rgb(42,53,63)" stroke="rgb(0,0,0)" stroke-width="0.1399" stroke-linecap="round" stroke-linejoin="round"/><circle id="eqbxUBSdujt11" r="4.4" transform="matrix(1 0 0 1 196.5 43.9)" fill="rgb(42,53,63)" stroke="rgb(0,0,0)" stroke-width="0.1399" stroke-linecap="round" stroke-linejoin="round"/><path id="eqbxUBSdujt12" d="M194.7,392C194.5,395.9,191.2,398.8,187.5,398.6L67.5,398.6C63.6,398.8,60.4,395.8,60.3,392L60.3,306.5C60.5,302.6,63.8,299.7,67.5,299.9L187.5,299.9C191.4,299.7,194.6,302.7,194.7,306.5L194.7,392L194.7,392Z" fill="rgb(42,53,63)" stroke="rgb(0,0,0)" stroke-width="0.1399" stroke-linecap="round" stroke-linejoin="round"/><path id="eqbxUBSdujt13" d="M312.5,387.1C312.3,391,309,393.9,305.3,393.7L247.2,393.7C243.3,393.9,240.1,390.9,240,387.1L240,311.3C240.2,307.4,243.5,304.5,247.2,304.7L305.3,304.7C309.2,304.5,312.4,307.5,312.5,311.3L312.5,387.1Z" fill="rgb(42,53,63)" stroke="rgb(0,0,0)" stroke-width="0.1399" stroke-linecap="round" stroke-linejoin="round"/><path id="eqbxUBSdujt14" d="M339.2,237.6C339.2,240.4,336.9,242.8,334,242.8L59.1,242.8C56.3,242.8,53.9,240.5,53.9,237.6L53.9,72.3C53.9,69.5,56.2,67.1,59.1,67.1L334.1,67.1C336.9,67.1,339.3,69.4,339.3,72.3L339.2,237.6L339.2,237.6Z" fill="rgb(42,53,63)" stroke="rgb(0,0,0)" stroke-width="0.1399" stroke-linecap="round" stroke-linejoin="round"/><path id="eqbxUBSdujt15" d="M334,67.1L59.1,67.1C56.3,67.1,53.9,69.4,53.9,72.3L53.9,237.6C53.9,240.4,56.2,242.8,59.1,242.8L334.1,242.8C336.9,242.8,339.3,240.5,339.3,237.6L339.3,72.3C339.2,69.4,336.9,67.1,334,67.1Z" fill="rgb(0,0,0)" stroke="rgb(0,0,0)" stroke-width="0.1399" stroke-linecap="round" stroke-linejoin="round"/><rect id="eqbxUBSdujt16" width="251" height="141.5" rx="0" ry="0" transform="matrix(1 0 0 1 71 84.2)" fill="rgb(0,0,0)" stroke="rgb(0,0,0)" stroke-width="0.1399" stroke-linecap="round" stroke-linejoin="round"/><rect id="eqbxUBSdujt17" width="350.5" height="189.4" rx="0" ry="0" transform="matrix(1 0 0 1 21.3 437.2)" fill="rgb(42,53,63)" stroke="none" stroke-width="1"/><path id="eqbxUBSdujt18" d="M336.6,480.6C336.4,484.9,332.8,488.2,328.6,488.1L62,488.1C57.7,488.2,54.1,484.9,54,480.6L54,453.6C54.2,449.3,57.8,446,62,446.1L328.5,446.1C332.8,446,336.4,449.3,336.5,453.6L336.5,480.6L336.6,480.6Z" fill="rgb(42,53,63)" stroke="none" stroke-width="1"/><path id="eqbxUBSdujt19" d="M328.6,446.1L62,446.1C57.7,446,54.1,449.3,54,453.6L54,480.6C54.1,484.9,57.8,488.2,62,488.1L328.5,488.1C332.8,488.2,336.4,484.9,336.5,480.6L336.5,453.6C336.4,449.3,332.8,446,328.6,446.1Z" fill="rgb(37,47,56)" stroke="rgb(0,0,0)" stroke-width="0.1399" stroke-miterlimit="10"/><path id="eqbxUBSdujt20" d="M66.3,477.8C66.2,478.9,65.4,479.8,64.2,479.9C63,480,62,479,61.9,477.8L61.9,457.3C62,456.2,62.8,455.3,64,455.2C65.2,455.1,66.2,456.1,66.3,457.3C66.3,457.3,66.3,477.8,66.3,477.8Z" fill="rgb(37,47,56)" stroke="rgb(0,0,0)" stroke-width="0.1399" stroke-miterlimit="10"/><path id="eqbxUBSdujt21" d="M170.3,477.8C170.2,479.7,168.6,481.3,166.6,481.2L166.6,481.4L166.5,481.6L166.3,481.8L166,481.9L165.6,482L165.1,482.1L164.6,482.2L164,482.2L163.4,482.2L140.9,482.2C138.7,482.3,136.5,481.9,134.4,481.2L133.6,480.8L132.6,480.5L131.4,480.2L130,480L128.5,479.9L126.9,479.8L125.5,479.8L123.9,479.9L122.4,480L121,480.2L119.8,480.5L118.8,480.8L118,481.2C115.9,482,113.7,482.4,111.5,482.2L89.5,482.2L89,482.2L88.4,482.2L88,482L87.5,481.9L87.1,481.8L86.8,481.7L86.6,481.5L86.5,481.3L86.5,481.1C84.6,481.2,82.9,479.6,82.8,477.7L82.8,457.2C82.9,455.3,84.5,453.7,86.5,453.8L166.5,453.8C168.4,453.7,170.1,455.3,170.2,457.2L170.3,477.8L170.3,477.8Z" fill="rgb(37,47,56)" stroke="rgb(0,0,0)" stroke-width="0.1399" stroke-miterlimit="10"/><path id="eqbxUBSdujt22" d="M307.5,477.8C307.4,479.7,305.8,481.3,303.8,481.2L250,481.2C248.1,481.3,246.4,479.7,246.3,477.8L246.3,457.3C246.4,455.4,248,453.8,250,453.9L303.8,453.9C305.7,453.8,307.4,455.4,307.5,457.3L307.5,477.8Z" fill="rgb(37,47,56)" stroke="rgb(0,0,0)" stroke-width="0.1399" stroke-miterlimit="10"/><path id="eqbxUBSdujt23" d="M328.6,477.8C328.5,478.9,327.7,479.8,326.5,479.9C325.3,480,324.3,479,324.2,477.8L324.2,457.3C324.3,456.2,325.1,455.3,326.3,455.2C327.5,455.1,328.5,456.1,328.6,457.3L328.6,477.8Z" fill="rgb(37,47,56)" stroke="rgb(0,0,0)" stroke-width="0.1399" stroke-miterlimit="10"/><path id="eqbxUBSdujt24" d="M307.5,473.8L307.5,477.7C307.4,479.6,305.8,481.2,303.8,481.1L250,481.1C248.1,481.2,246.4,479.6,246.3,477.7L246.3,473.8L307.5,473.8Z" fill="rgb(153,153,153)" stroke="none" stroke-width="1"/><path id="eqbxUBSdujt25" d="M307.5,457.3L307.5,463.4L246.4,463.4L246.4,457.3C246.5,455.4,248.1,453.8,250.1,453.9L303.8,453.9C305.7,453.8,307.4,455.3,307.5,457.3Z" fill="rgb(153,153,153)" stroke="none" stroke-width="1"/><rect id="eqbxUBSdujt26" width="61.1" height="10.5" rx="0" ry="0" transform="matrix(1 0 0 1 246.3 463.3)" fill="rgb(128,128,128)" stroke="none" stroke-width="1"/><rect id="eqbxUBSdujt27" width="61.1" height="5.2" rx="0" ry="0" transform="matrix(1 0 0 1 246.3 463.3)" fill="rgb(0,0,0)" stroke="none" stroke-width="1"/><path id="eqbxUBSdujt28" d="M328.6,457.3L328.6,477.8C328.5,478.9,327.7,479.8,326.5,479.9C325.3,480,324.3,479,324.2,477.8L324.2,457.3C324.3,456.2,325.1,455.3,326.3,455.2C327.5,455.1,328.5,456.1,328.6,457.3Z" fill="rgb(204,204,204)" stroke="none" stroke-width="1"/><path id="eqbxUBSdujt29" d="M66.3,457.3L66.3,477.8C66.2,478.9,65.4,479.8,64.2,479.9C63,480,62,479,61.9,477.8L61.9,457.3C62,456.2,62.8,455.3,64,455.2C65.3,455.1,66.3,456.1,66.3,457.3Z" fill="rgb(204,204,204)" stroke="none" stroke-width="1"/><rect id="eqbxUBSdujt30" width="80" height="5.9" rx="0" ry="0" transform="matrix(1 0 0 1 86.7 453.9)" fill="rgb(51,51,51)" stroke="none" stroke-width="1"/><path id="eqbxUBSdujt31" d="M166.7,466.5L166.7,478.6L166.6,478.8L166.4,479L166.1,479.1L165.7,479.2L165.2,479.3L164.7,479.4L164.1,479.4L163.5,479.4L141,479.4C138.8,479.5,136.6,479.1,134.5,478.4L134,478L133,477.7L131.8,477.4L130.5,477.1L129,477L127.4,476.9L125.8,476.9L124.2,477L122.7,477.1L121.3,477.3L120.1,477.6L119.1,477.9L118.3,478.3C116.2,479.1,114,479.5,111.8,479.3L89.5,479.3L89,479.3L88.4,479.3L87.9,479.2L87.4,479.1L87,479L86.7,478.9L86.5,478.7L86.4,478.5L86.4,466.4L166.7,466.5L166.7,466.5Z" fill="rgb(153,153,153)" stroke="none" stroke-width="1"/><path id="eqbxUBSdujt32" d="M166.7,478.6L166.7,481.4L166.6,481.6L166.4,481.8L166.1,481.9L165.7,482L165.2,482.1L164.7,482.2L164.1,482.2L163.5,482.2L141,482.2C138.8,482.3,136.6,481.9,134.5,481.2L133.7,480.8L132.7,480.5L131.5,480.2L130.1,480L129,480L127.4,479.9L125.9,479.9L124.3,480L122.8,480.1L121.4,480.3L120.2,480.6L119.2,480.9L118.4,481.3C116.3,482.1,114.1,482.5,111.9,482.3L89.5,482.3L89,482.3L88.4,482.3L87.9,482.2L87.4,482.1L87,482L86.7,481.9L86.5,481.7L86.4,481.5L86.4,478.7L86.5,478.9L86.7,479.1L87,479.2L87.4,479.3L87.9,479.4L88.4,479.5L89,479.5L89.6,479.5L112,479.5C114.2,479.6,116.4,479.2,118.5,478.5L119.3,478.1L120.3,477.8L121.5,477.5L122.9,477.3L124.4,477.2L126,477.1L127.6,477.1L129.2,477.2L130.7,477.3L132.1,477.5L133.3,477.8L134.3,478.1L135.1,478.5C137.2,479.3,139.4,479.7,141.6,479.5L164.1,479.5L164.7,479.5L165.3,479.5L165.8,479.4L166.3,479.3L166.7,479.2L167,479.1L167.2,478.9L166.7,478.6Z" fill="rgb(128,128,128)" stroke="none" stroke-width="1"/><path id="eqbxUBSdujt33" d="M170.3,457.3L170.3,477.8C170.2,479.7,168.6,481.3,166.6,481.2L166.6,453.9C168.7,453.8,170.3,455.3,170.3,457.3Z" fill="rgb(102,102,102)" stroke="none" stroke-width="1"/><path id="eqbxUBSdujt34" d="M86.7,453.9L86.7,481.2C84.8,481.3,83.1,479.7,83,477.8L83,457.3C83.1,455.3,84.8,453.8,86.7,453.9Z" fill="rgb(102,102,102)" stroke="none" stroke-width="1"/><circle id="eqbxUBSdujt35" r="4.4" transform="matrix(1 0 0 1 196.5 43.9)" fill="rgb(0,0,0)" stroke="rgb(0,0,0)" stroke-width="0.1399" stroke-linecap="round" stroke-linejoin="round"/><path id="eqbxUBSdujt36" d="M305.3,304.8L247.1,304.8C243.2,304.6,240,307.6,239.9,311.4L239.9,387.2C240.1,391.1,243.4,394,247.1,393.8L305.3,393.8C309.2,394,312.4,391,312.5,387.2L312.5,311.4C312.3,307.5,309,304.6,305.3,304.8Z" fill="rgb(230,231,232)" stroke="rgb(0,0,0)" stroke-width="0.1399" stroke-linecap="round" stroke-linejoin="round"/><path id="eqbxUBSdujt37" d="M276.1,351.4C274.9,351.4,273.9,350.4,273.9,349.2C273.9,348,274.9,347,276.1,347C277.3,347,278.3,348,278.3,349.2C278.4,350.4,277.4,351.4,276.1,351.4Z" fill="rgb(230,231,232)" stroke="rgb(0,0,0)" stroke-width="0.1399" stroke-linecap="round" stroke-linejoin="round"/><path id="eqbxUBSdujt38" d="M187.5,299.9L67.5,299.9C63.6,299.7,60.4,302.7,60.3,306.5L60.3,392C60.5,395.9,63.8,398.8,67.5,398.6L187.5,398.6C191.4,398.8,194.6,395.8,194.7,392L194.7,306.5C194.5,302.7,191.3,299.7,187.5,299.9Z" fill="rgb(42,53,63)" stroke="rgb(0,0,0)" stroke-width="0.6995" stroke-linecap="round" stroke-linejoin="round"/><path id="eqbxUBSdujt39" d="M159.5,361.6C159.5,362.2,158.9,362.8,158.3,362.8L96.7,362.8C96.1,362.8,95.5,362.2,95.5,361.6L95.5,359.9C95.5,359.3,96.1,358.7,96.7,358.7L158.3,358.7C158.9,358.7,159.5,359.3,159.5,359.9L159.5,361.6L159.5,361.6Z" fill="rgb(42,53,63)" stroke="rgb(0,0,0)" stroke-width="0.6995" stroke-linecap="round" stroke-linejoin="round"/><rect id="eqbxUBSdujt40" width="64" height="1.2" rx="0" ry="0" transform="matrix(1 0 0 1 95.5 360.2)" fill="none" stroke="rgb(0,0,0)" stroke-width="0.1399" stroke-linecap="round" stroke-linejoin="round"/><rect id="eqbxUBSdujt41" width="349.1" height="4.9" rx="0" ry="0" transform="matrix(1 0 0 1 22 424.1)" fill="rgb(22,27,30)" stroke="none" stroke-width="1"/><rect id="eqbxUBSdujt42" width="80" height="6.9" rx="0" ry="0" transform="matrix(1 0 0 1 86.7 459.6)" fill="rgb(0,0,0)" stroke="none" stroke-width="1"/><path id="eqbxUBSdujt43" d="M159.5,361.3L159.5,361.6C159.5,362.2,158.9,362.8,158.3,362.8L96.7,362.8C96.1,362.8,95.5,362.2,95.5,361.6L95.5,361.3L159.5,361.3Z" fill="rgb(22,27,30)" stroke="rgb(0,0,0)" stroke-width="0.1399" stroke-linecap="round" stroke-linejoin="round"/><path id="eqbxUBSdujt44" d="M159.5,359.9L159.5,360.2L95.5,360.2L95.5,359.9C95.5,359.3,96.1,358.7,96.7,358.7L158.3,358.7C159,358.7,159.5,359.1,159.5,359.9Z" fill="rgb(22,27,30)" stroke="rgb(0,0,0)" stroke-width="0.1399" stroke-linecap="round" stroke-linejoin="round"/><rect id="eqbxUBSdujt45" width="64" height="1.2" rx="0" ry="0" transform="matrix(1 0 0 1 95.5 360.2)" fill="none" stroke="rgb(0,0,0)" stroke-width="0.1399" stroke-linecap="round" stroke-linejoin="round"/><rect id="eqbxUBSdujt46" width="64" height="1.2" rx="0" ry="0" transform="matrix(1 0 0 1 95.5 360.2)" fill="rgb(0,0,0)" stroke="rgb(0,0,0)" stroke-width="0.1399" stroke-linecap="round" stroke-linejoin="round"/><path id="eqbxUBSdujt47" d="M278.4,349.2C278.4,350.4,277.4,351.4,276.2,351.4C275,351.4,274,350.4,274,349.2C274,348,275,347,276.2,347C277.4,347,278.4,348,278.4,349.2Z" fill="rgb(0,0,0)" stroke="rgb(0,0,0)" stroke-width="0.1399" stroke-linecap="round" stroke-linejoin="round"/><polygon id="eqbxUBSdujt48" points="371.8,425.8 371.8,431.7 21.3,431.7 21.3,425.8 22,425.8 22,428.8 371.1,428.8 371.1,425.8" fill="rgb(0,0,0)" stroke="none" stroke-width="1"/><rect id="eqbxUBSdujt49" width="350.5" height="5.5" rx="0" ry="0" transform="matrix(1 0 0 1 21.3 431.7)" fill="rgb(22,27,30)" stroke="none" stroke-width="1"/><g id="eqbxUBSdujt50"><rect id="eqbxUBSdujt51" width="251" height="141.5" rx="0" ry="0" transform="matrix(1 0 0 1 71 84.2)" fill="rgb(55,232,215)" stroke="rgb(0,0,0)" stroke-width="0.1399" stroke-linecap="round" stroke-linejoin="round"/><g id="eqbxUBSdujt52"><path id="eqbxUBSdujt53" d="M185.1,127.2L92.9,127.2C91.4,127.2,90.2,126,90.2,124.5C90.2,123,91.4,121.8,92.9,121.8L185.1,121.8C186.6,121.8,187.8,123,187.8,124.5C187.9,126,186.8,127.2,185.1,127.2Z" fill="rgb(255,255,255)" stroke="none" stroke-width="1"/><path id="eqbxUBSdujt54" d="M157.4,141.1L92.9,141.1C91.4,141.1,90.2,139.9,90.2,138.4C90.2,136.9,91.4,135.7,92.9,135.7L157.4,135.7C158.9,135.7,160.1,136.9,160.1,138.4C160.1,139.9,158.9,141.1,157.4,141.1Z" fill="rgb(255,255,255)" stroke="none" stroke-width="1"/><path id="eqbxUBSdujt55" d="M157.4,161.4L92.9,161.4C92.2,161.4,91.5,160.8,91.5,160C91.5,159.2,92.1,158.6,92.9,158.6L157.4,158.6C158.1,158.6,158.8,159.2,158.8,160C158.8,160.8,158.2,161.4,157.4,161.4Z" fill="rgb(14,65,96)" stroke="none" stroke-width="1"/><path id="eqbxUBSdujt56" d="M142.9,171.9L92.9,171.9C92.2,171.9,91.5,171.3,91.5,170.5C91.5,169.7,92.1,169.1,92.9,169.1L142.8,169.1C143.5,169.1,144.2,169.7,144.2,170.5C144.2,171.3,143.6,171.9,142.9,171.9Z" fill="rgb(14,65,96)" stroke="none" stroke-width="1"/><path id="eqbxUBSdujt57" d="M142.9,190.5L92.9,190.5C92.2,190.5,91.5,189.9,91.5,189.1C91.5,188.4,92.1,187.7,92.9,187.7L142.8,187.7C143.5,187.7,144.2,188.3,144.2,189.1C144.2,189.8,143.6,190.5,142.9,190.5Z" fill="rgb(255,255,255)" stroke="none" stroke-width="1"/><path id="eqbxUBSdujt58" d="M230.2,121.5L291.6,121.5C295.6,121.5,298.8,124.7,298.8,128.7L298.8,163.3C298.8,167.3,295.6,170.5,291.6,170.5L230.2,170.5C226.2,170.5,223,167.3,223,163.3L223,128.7C222.9,124.7,226.2,121.5,230.2,121.5Z" fill="rgb(255,255,255)" stroke="none" stroke-width="1"/><rect id="eqbxUBSdujt59" width="75.7" height="10.2" rx="0" ry="0" transform="matrix(1 0 0 1 222.9 131)" fill="rgb(65,64,66)" stroke="none" stroke-width="1"/></g></g></g></g></g></g><g id="eqbxUBSdujt60_to" transform="translate(339.3,808.00827)"><g id="eqbxUBSdujt60" transform="translate(-292.55336,-445.091766)"><polygon id="eqbxUBSdujt61" display="none" points="241.7,376.7 269.5,393.3 287.4,366.2 260.3,351.4" fill="rgb(179,179,179)" stroke="none" stroke-width="1"/><path id="eqbxUBSdujt62" d="M235.1,350.5C235.2,350.5,235.2,350.5,235.1,350.5L235.1,350.5L272.4,358.8L268.9,367.1L234.1,366.9L234.1,366.9C234.1,366.9,234.1,366.9,234,366.9C229.1,366.9,225.4,363.2,225.7,358.6C226,354,229.6,349.1,235.1,350.5Z" fill="rgb(179,179,179)" stroke="none" stroke-width="1"/><path id="eqbxUBSdujt63" d="M237.9,362.9L237.9,362.9L237.9,362.9L270.9,361L273,376.1L240,377.9L240,377.9C240,377.9,240,377.9,239.9,377.9C235.3,378.2,231,375,230.5,370.8C230,366.6,233.3,363.1,237.9,362.9Z" fill="rgb(179,179,179)" stroke="none" stroke-width="1"/><path id="eqbxUBSdujt64" d="M240.4,375.7L240.4,375.7L240.4,375.7L270.4,377L270.3,390.6L240.4,389.3L240.4,389.3C240.4,389.3,240.4,389.3,240.3,389.3C236.1,389.1,232.7,385.9,232.7,382.1C232.7,378.3,236.1,375.5,240.4,375.7Z" fill="rgb(179,179,179)" stroke="none" stroke-width="1"/><path id="eqbxUBSdujt65" d="M271.2,339.6C273,339.5,274.8,340.1,276.1,341.3L290.8,353.7C292.9,355.6,294.1,358.2,294.1,361L294.6,415.3C294.6,418.5,291.7,420.9,288.1,420.7L275.1,420.1C271.5,419.9,268.6,417.2,268.6,414.1L271.2,368.7L259.8,359.1L235.3,358.8C224.8,359,218.9,354.3,220.6,348.2C221.6,344.6,223.7,342,231.7,342.1L271.2,339.6Z" fill="rgb(179,179,179)" stroke="none" stroke-width="1"/><g id="eqbxUBSdujt66"><path id="eqbxUBSdujt67" d="M269.5,266.2L305.8,336C306.9,338.1,306.1,340.7,304,341.8L261.2,364C259.1,365.1,256.5,364.3,255.4,362.2L219.1,292.4C218,290.3,218.8,287.7,220.9,286.6L263.7,264.4C265.8,263.3,268.4,264.1,269.5,266.2Z" fill="rgb(203,101,96)" stroke="none" stroke-width="1"/><path id="eqbxUBSdujt68" d="M269.5,266.2L305.8,336C306.9,338.1,306.1,340.7,304,341.8L261.2,364C259.1,365.1,256.5,364.3,255.4,362.2L219.1,292.4C218,290.3,218.8,287.7,220.9,286.6L263.7,264.4C265.8,263.3,268.4,264.1,269.5,266.2Z" fill="rgb(44,185,172)" stroke="none" stroke-width="1"/><path id="eqbxUBSdujt69" d="M269.1,265.4L305.8,335.9C306.7,337.6,306,339.6,304.4,340.5L260.9,363.1C259.2,364,257.2,363.3,256.3,361.7L219.6,291.2C218.7,289.5,219.4,287.5,221,286.6L264.5,264C266.2,263.1,268.2,263.7,269.1,265.4Z" fill="rgb(254,127,120)" stroke="none" stroke-width="1"/><path id="eqbxUBSdujt70" d="M269.1,265.4L305.8,335.9C306.7,337.6,306,339.6,304.4,340.5L260.9,363.1C259.2,364,257.2,363.3,256.3,361.7L219.6,291.2C218.7,289.5,219.4,287.5,221,286.6L264.5,264C266.2,263.1,268.2,263.7,269.1,265.4Z" fill="rgb(55,232,215)" stroke="none" stroke-width="1"/><g id="eqbxUBSdujt71"><path id="eqbxUBSdujt72" d="M279.4,302L243.6,320.6C242.3,321.3,240.7,320.8,240,319.5L226.1,292.7C225.4,291.4,225.9,289.8,227.2,289.1L263,270.5C264.3,269.8,265.9,270.3,266.6,271.6L280.5,298.4C281.2,299.7,280.7,301.3,279.4,302Z" fill="rgb(203,101,96)" stroke="none" stroke-width="1"/><path id="eqbxUBSdujt73" d="M279.4,302L243.6,320.6C242.3,321.3,240.7,320.8,240,319.5L226.1,292.7C225.4,291.4,225.9,289.8,227.2,289.1L263,270.5C264.3,269.8,265.9,270.3,266.6,271.6L280.5,298.4C281.2,299.7,280.7,301.3,279.4,302Z" fill="rgb(44,185,172)" stroke="none" stroke-width="1"/><polygon id="eqbxUBSdujt74" points="238.6,316.9 234.2,308.6 251.8,295.5 258.8,291.5 262.6,293.7 263.1,297.2 242,310.9" fill="rgb(217,241,254)" stroke="none" stroke-width="1"/><g id="eqbxUBSdujt75"><g id="eqbxUBSdujt76"><g id="eqbxUBSdujt77"><g id="eqbxUBSdujt78" clip-path="url(#eqbxUBSdujt190)"><g id="eqbxUBSdujt79"><g id="eqbxUBSdujt80"><g id="eqbxUBSdujt81"><path id="eqbxUBSdujt82" d="M233.9,308C234.3,307.8,234.7,307.5,235.1,307.3C235.4,307.1,235.7,306.9,236,306.7C236.3,306.5,236.6,306.3,237,306.1C237.3,305.9,237.6,305.7,237.9,305.5C238.2,305.3,238.6,305.1,238.9,304.9C239.1,304.8,239.3,304.7,239.5,304.5C239.8,304.3,240.2,304.1,240.5,303.9C240.8,303.7,241.1,303.5,241.4,303.3C241.9,303,242.3,302.7,242.8,302.4C243.1,302.2,243.4,302,243.7,301.8C244.2,301.5,244.7,301.2,245.1,300.9C245.4,300.7,245.7,300.5,246,300.3C246.4,300.1,246.7,299.8,247.1,299.6C247.4,299.4,247.7,299.2,248,299C248.3,298.8,248.6,298.6,249,298.4C249.3,298.2,249.6,298,249.9,297.8C250.4,297.5,250.9,297.2,251.3,296.9C251.6,296.7,251.9,296.5,252.2,296.3C252.5,296.1,252.9,295.8,253.2,295.6C253.5,295.4,253.8,295.2,254.1,295C254.4,294.8,254.8,294.6,255.1,294.3C255.3,294.2,255.5,294.1,255.6,294C255.9,293.8,256.3,293.5,256.6,293.3C256.7,293.2,256.9,293.1,257,293C257.1,292.9,257.2,293,257.3,293C257.3,293.1,257.3,293.1,257.2,293.1C257.1,293.1,257,293.2,256.9,293.2C256.8,293.2,256.7,293.3,256.6,293.3C256.4,293.5,256.2,293.6,256,293.7C255.8,293.8,255.6,294,255.4,294.1C255.3,294.3,255.2,294.4,255,294.5C254.9,294.5,254.8,294.6,254.8,294.8C254.8,295,254.7,295.1,254.5,295.2C254.3,295.3,254.2,295.4,254,295.5C253.8,295.6,253.7,295.7,253.6,295.8C253.5,295.9,253.3,295.9,253.2,296.1L253.1,296.1C253,296.2,252.8,296.2,252.7,296.3C252.4,296.6,252,296.8,251.6,297C251.4,297.1,251.1,297.3,250.9,297.4C250.5,297.7,250,297.9,249.6,298.2C249.2,298.5,248.8,298.8,248.4,299C248.2,299.1,248.1,299.2,248,299.3L247.7,299.4C247.5,299.5,247.4,299.6,247.2,299.7C246.8,299.9,246.4,300.2,246,300.4C245.9,300.4,245.8,300.6,245.7,300.6C245.4,300.8,245.1,301,244.8,301.2C244.3,301.5,243.9,301.8,243.5,302.1C243,302.4,242.6,302.7,242.1,303C241.9,303.1,241.8,303.2,241.7,303.3L241.5,303.4C241.2,303.6,240.9,303.8,240.5,304C240.4,304.1,240.3,304.1,240.2,304.2C239.7,304.5,239.2,304.9,238.7,305.2C238.1,305.6,237.4,306,236.8,306.4C236.3,306.7,235.8,307,235.3,307.3C235.1,307.4,234.9,307.5,234.7,307.6C234.4,307.8,234.1,308,233.7,308.2L233.9,308Z" fill="rgb(212,226,233)" stroke="none" stroke-width="1"/><path id="eqbxUBSdujt83" d="M268.6,295.4C268.7,295.5,268.7,295.5,268.6,295.4C268.5,295.4,268.4,295.5,268.2,295.5C268.1,295.5,268.1,295.5,268.2,295.6C268.3,295.8,268.4,295.9,268.6,295.9C268.6,296.9,268.6,297.8,268.6,298.8C268.2,298.7,267.9,298.6,267.5,298.5C267.1,298.4,266.8,298.3,266.4,298.2C266.2,298.2,266.2,298.1,266.2,297.9C266.3,297.1,266.3,296.3,266.4,295.5L266.4,295.4L266.5,295.4C266.7,295.4,266.9,295.5,267.1,295.5C267.1,295.5,267.1,295.5,267.2,295.5C267.2,295.6,267.3,295.7,267.4,295.6C267.5,295.5,267.6,295.5,267.5,295.3C267.5,295.2,267.5,295.2,267.5,295.1C267.6,295,267.7,294.9,267.5,294.7C267.6,294.7,267.6,294.8,267.7,294.8L267.8,294.8C267.8,294.7,267.8,294.7,267.8,294.7C267.7,294.7,267.7,294.6,267.8,294.6C267.8,294.6,267.9,294.5,267.8,294.5C267.6,294.4,267.7,294.3,267.7,294.2C267.7,294.2,267.8,294.2,267.8,294.1L267.8,294.1C268.1,294.1,268.1,294.1,268.2,294.3C268.2,294.4,268.3,294.6,268.4,294.7C268.4,294.8,268.5,294.9,268.3,295C268.3,295,268.2,295,268.2,295.1L268.3,295.2C268.5,295.2,268.6,295.3,268.6,295.4Z" fill="rgb(14,62,90)" stroke="none" stroke-width="1"/><path id="eqbxUBSdujt84" d="M265,303.8C264.9,303.7,264.9,303.8,264.8,303.9C264.7,304.1,264.6,304.3,264.4,304.4C264.3,304.4,264.3,304.4,264.3,304.3C264.3,304.1,264.1,304,264,303.9L264.6,303.5C264.3,303.5,264,303.6,263.7,303.6C263.7,303.5,263.8,303.4,263.6,303.5C263.6,303.5,263.6,303.5,263.5,303.5C263.3,303.4,263.3,303.2,263.5,303.1C263.5,303.1,263.6,303.1,263.6,303C263.6,302.9,263.5,303,263.5,303C263.5,303.1,263.4,303.1,263.3,303.1C263.1,303,263.1,303.1,263,303.2C262.8,303.3,262.8,303.3,262.7,303C262.8,303.1,262.9,303.1,263,303C262.9,302.9,262.7,302.6,262.5,302.8C262.4,302.7,262.2,302.6,262,302.7C261.9,302.8,261.8,302.7,261.8,302.7C261.8,302.6,261.9,302.5,261.9,302.3L262,302.3C262.1,302.3,262.1,302.4,262.1,302.4C262.3,302.6,262.3,302.6,262.5,302.4C262.6,302.4,262.6,302.5,262.7,302.4C262.8,302.3,262.8,302.4,262.9,302.5C262.9,302.6,262.9,302.6,262.9,302.7C262.9,302.8,263,302.8,263.1,302.8C263.1,302.9,263.2,302.9,263.3,302.8C263.4,302.8,263.4,303,263.5,302.8L263.6,302.8C263.8,302.9,263.9,302.9,264,303.1C264.1,303.2,264.2,303.2,264.3,303.1L264.3,303.1C264.4,303,264.5,302.9,264.6,303.1L264.7,303.1C264.8,303,264.7,302.8,264.7,302.7C264.7,302.6,264.6,302.7,264.5,302.7C264.4,302.6,264.6,302.5,264.5,302.5C264.3,302.4,264.4,302.2,264.3,302.1C264.3,302,264.3,302,264.3,302C264.2,301.9,264.1,302,264,302.1C264,302,264,301.9,264.1,301.9C264.2,301.8,264.1,301.8,264.1,301.7L264.1,301.7C264,301.6,264,301.5,263.9,301.3L264.2,301.4L264.2,301.4C264.3,301.4,264.3,301.4,264.4,301.4L264.5,301.4L264.5,301.4C264.6,301.5,264.8,301.5,264.9,301.5C265.5,301.6,266.1,301.8,266.7,301.9C266.8,301.9,266.9,302,267,302C266.9,302.1,266.8,302.1,266.7,302.2L266.6,302.3C266.5,302.3,266.4,302.4,266.4,302.5C266.4,302.5,266.4,302.6,266.5,302.6L266.6,302.7C266.6,302.9,266.7,302.8,266.8,302.8C266.9,302.8,267,302.8,267.1,302.7C267.2,302.6,267.1,302.6,267.1,302.5C267.1,302.4,267,302.5,267,302.5C266.9,302.6,266.9,302.5,266.8,302.5L266.7,302.5L266.7,302.5C266.7,302.5,266.7,302.5,266.8,302.5C267,302.5,267.2,302.4,267.4,302.2C267.4,302.2,267.5,302.1,267.6,302.1L269.2,302.4L269.5,302.5L269.1,302.6C269,302.6,268.9,302.6,268.9,302.6C268.2,302.8,267.6,302.9,266.9,303.1C266.7,303.1,266.6,303.2,266.6,303.4L266.5,303.4C266.5,303.4,266.5,303.3,266.4,303.3C266.3,303.3,266.4,303.2,266.4,303.2C266.5,303.2,266.6,303.2,266.7,303.1C266.7,303.1,266.8,303.1,266.8,303C266.8,302.9,266.7,302.9,266.7,302.9C266.6,302.9,266.5,303,266.4,303.1C266.3,303.1,266.3,303.2,266.4,303.3L266.4,303.3L266.5,303.4C266.4,303.5,266.4,303.5,266.3,303.6C266.3,303.5,266.3,303.4,266.2,303.3C266.1,303.2,265.9,303.2,265.8,303.1C265.7,303.1,265.6,303.3,265.5,303.4C265.4,303.5,265.3,303.6,265.4,303.7C265.1,303.7,265,303.8,265,303.8ZM267.4,302.6C267.4,302.6,267.4,302.5,267.5,302.5C267.6,302.5,267.6,302.4,267.6,302.3C267.5,302.2,267.5,302.3,267.4,302.4L267.3,302.5C267.2,302.5,267.2,302.6,267.4,302.6C267.3,302.6,267.3,302.6,267.4,302.6C267.3,302.6,267.3,302.6,267.4,302.6L267.4,302.6Z" fill="rgb(53,151,152)" stroke="none" stroke-width="1"/><path id="eqbxUBSdujt85" d="M264.3,301.2L264.2,301.2C264.2,301.1,264.1,301.1,264,301.2L264,301.2C264,301.1,263.9,301.1,263.8,301.1C263.4,301,263,300.9,262.6,300.7C262.5,300.7,262.5,300.7,262.4,300.7L262.1,300.5C262,300.7,262,301,261.8,301.2C261.7,301.2,261.6,301.2,261.6,301.1L261.6,301.1C261.6,301,261.6,300.9,261.5,300.8C261.4,300.7,261.3,300.6,261.4,300.5C261.4,300.5,261.4,300.4,261.3,300.4C261.3,300.2,261.4,300.1,261.6,300C261.7,300,261.7,299.9,261.7,299.8C261.7,299.6,261.8,299.5,262,299.4C262.1,299.4,262,299.4,262,299.3C261.9,299.1,262,299.1,262.2,299.1L262.3,299.2C262.2,299.2,262.2,299.3,262.2,299.3L262.2,299.3C262.2,299.4,262.3,299.3,262.4,299.3C262.6,299.3,262.5,299.2,262.5,299.1C262.6,299.1,262.6,299,262.6,298.9C262.6,298.9,262.6,298.8,262.7,298.8C262.7,298.8,262.8,298.8,262.8,298.9L262.8,298.9C262.8,299,262.8,299,262.9,299.1C263,299.3,263.2,299.5,263.2,299.8C263.2,299.9,263.2,299.9,263.3,300C263.4,300.4,263.8,300.5,264.1,300.7C264.2,300.8,264.3,300.8,264.4,300.9C264.3,301,264.3,301.1,264.3,301.2L264.3,301.2ZM262.1,299.5C262,299.5,262.1,299.6,262.1,299.6L262.1,299.6C262.1,299.6,262.1,299.6,262.1,299.5Z" fill="rgb(221,231,236)" stroke="none" stroke-width="1"/><path id="eqbxUBSdujt86" d="M267.5,302C267.4,302,267.4,302.1,267.3,302.1C267.2,302.3,267,302.4,266.7,302.4L266.6,302.4C266.6,302.4,266.6,302.5,266.7,302.5L266.7,302.5C266.8,302.5,266.8,302.6,266.9,302.5C266.9,302.5,267,302.4,267,302.5C267,302.6,267.1,302.6,267,302.7C266.9,302.8,266.8,302.8,266.7,302.8C266.6,302.8,266.5,302.8,266.5,302.7L266.4,302.6C266.3,302.5,266.3,302.4,266.4,302.3L266.5,302.2C266.5,302.2,266.6,302.2,266.6,302.1C266.6,302,266.8,301.9,266.9,301.9C267.1,301.9,267.3,301.9,267.5,302Z" fill="rgb(48,135,136)" stroke="none" stroke-width="1"/><path id="eqbxUBSdujt87" d="M264.8,299.6C264.7,299.7,264.6,299.5,264.5,299.6C264.5,299.6,264.5,299.6,264.5,299.5C264.5,299.4,264.5,299.2,264.4,299.1C264.4,299.1,264.3,299,264.4,299L264.5,299C264.6,299,264.7,299,264.7,299.2L264.7,299.2C264.8,299.3,264.7,299.5,264.8,299.6L264.8,299.6Z" fill="rgb(226,235,240)" stroke="none" stroke-width="1"/><path id="eqbxUBSdujt88" d="M264.3,298.8L264.3,298.8C264.2,298.8,264.1,298.9,264.1,298.9C264.1,298.8,264.1,298.7,264.2,298.6L264.3,298.6C264.3,298.6,264.3,298.4,264.4,298.5C264.5,298.5,264.5,298.6,264.5,298.7C264.6,298.7,264.5,298.7,264.3,298.8C264.4,298.7,264.4,298.8,264.3,298.8Z" fill="rgb(226,235,240)" stroke="none" stroke-width="1"/><path id="eqbxUBSdujt89" d="M269.1,294.5C269.1,294.4,269,294.4,268.9,294.5C268.8,294.6,268.7,294.5,268.8,294.4C268.8,294.3,268.8,294.3,268.8,294.2C268.8,294.2,268.9,294.1,268.9,294.2C269,294.3,269.1,294.3,269.1,294.5L269.1,294.5L269.1,294.5L269.1,294.5Z" fill="rgb(12,49,71)" stroke="none" stroke-width="1"/><path id="eqbxUBSdujt90" d="M262.4,299.3C262.4,299.4,262.5,299.5,262.3,299.5C262.2,299.5,262.2,299.5,262.1,299.5C262.1,299.4,262.1,299.4,262.2,299.3L262.2,299.3L262.4,299.3Z" fill="rgb(226,235,240)" stroke="none" stroke-width="1"/><path id="eqbxUBSdujt91" d="M264.7,301.3C264.6,301.3,264.4,301.3,264.3,301.2C264.4,301.1,264.6,301.1,264.7,301.3L264.7,301.3Z" fill="rgb(226,244,253)" stroke="none" stroke-width="1"/><path id="eqbxUBSdujt92" d="M264.8,299.6L264.8,299.6L264.8,299.6L264.8,299.6C264.8,299.7,264.8,299.6,264.8,299.6L264.8,299.6Z" fill="rgb(226,235,240)" stroke="none" stroke-width="1"/><path id="eqbxUBSdujt93" d="M264.8,299.6C264.8,299.5,264.8,299.5,264.8,299.6C264.9,299.5,264.9,299.5,264.8,299.6C264.9,299.5,264.9,299.5,264.8,299.6L264.8,299.6Z" fill="rgb(226,235,240)" stroke="none" stroke-width="1"/><path id="eqbxUBSdujt94" d="M269.2,294.4L269.2,294.4L269.2,294.4Z" fill="rgb(14,58,84)" stroke="none" stroke-width="1"/><path id="eqbxUBSdujt95" d="M263.9,305.2C263.9,305.3,263.7,305.5,263.6,305.5C263,305.7,262.4,305.9,261.7,306.1C261.6,306.1,261.5,306.1,261.5,306C261.4,305.9,261.4,305.7,261.4,305.6C261.5,305.5,261.6,305.4,261.5,305.2C261.5,305,261.5,304.8,261.6,304.7C261.6,304.6,261.7,304.6,261.7,304.6C261.8,304.6,261.8,304.7,261.7,304.7C261.7,304.8,261.7,304.9,261.6,304.9L261.6,305L261.7,305C261.8,304.9,261.8,304.7,261.9,304.6C261.9,304.5,261.8,304.5,261.7,304.4C261.6,304.3,261.5,304.2,261.5,304.1C261.6,304,261.6,303.9,261.7,303.8C261.8,303.8,261.7,304,261.8,303.9C261.9,303.9,261.8,303.8,261.8,303.7C261.8,303.6,261.9,303.5,262,303.5C262.1,303.5,262.1,303.5,262.2,303.6C262.3,303.6,262.4,303.7,262.4,303.5C262.4,303.4,262.5,303.4,262.6,303.5C262.6,303.5,262.7,303.5,262.8,303.6C262.8,303.7,262.9,303.7,262.9,303.7L262.9,303.7C262.8,303.8,262.8,303.8,263,303.9L263,304C263.1,304.2,263.1,304.2,263.2,304.1C263.2,304.1,263.2,304.1,263.3,304.1C263.3,304.2,263.5,304.2,263.4,304.3C263.3,304.3,263.3,304.4,263.3,304.5C263.3,304.5,263.3,304.6,263.4,304.6C263.6,304.7,263.5,304.8,263.6,305C263.7,305.2,263.8,305.3,263.9,305.2ZM263.4,305.5C263.4,305.5,263.5,305.5,263.5,305.4C263.5,305.1,263.5,304.9,263.3,304.6C263.2,304.5,263,304.5,262.9,304.6C262.8,304.7,262.8,304.8,262.8,304.9C262.8,305,262.9,305.1,262.8,305.3C262.8,305.5,262.8,305.6,263,305.6C263.1,305.6,263.3,305.6,263.4,305.5L263.4,305.5Z" fill="rgb(80,190,191)" stroke="none" stroke-width="1"/><path id="eqbxUBSdujt96" d="M263,303.8C263,303.7,262.9,303.7,262.8,303.7C262.7,303.6,262.7,303.6,262.6,303.7C262.6,303.8,262.5,303.8,262.4,303.8C262.3,303.8,262.3,303.7,262.2,303.7C262.1,303.7,262,303.7,262,303.9C262,304,262.1,304,262,304.1C261.9,304.1,261.9,304,261.9,304C261.8,304.1,261.8,304.2,261.7,304.3C261.6,304.4,261.8,304.5,261.9,304.6C262,304.6,262.1,304.7,262.1,304.8C262.1,305,262,305.1,261.9,305.2L261.8,305.2C261.8,305.2,261.7,305.1,261.8,305.1C261.8,305,261.8,304.9,261.9,304.9L261.9,304.8C261.8,304.8,261.8,304.8,261.8,304.9C261.7,305.1,261.7,305.2,261.7,305.4C261.7,305.5,261.7,305.7,261.6,305.8C261.4,305.5,261.4,305.2,261.2,304.9C261.2,304.8,261.2,304.8,261.2,304.7C261.2,304.6,261.2,304.6,261.2,304.5C261.3,304.3,261.2,304.2,261.4,304C261.4,304,261.6,303.9,261.5,303.8C261.5,303.7,261.4,303.6,261.4,303.5C261.4,303.5,261.3,303.5,261.2,303.5C261.2,303.4,261.2,303.4,261.2,303.3L261.2,303.3C261.3,303.4,261.5,303.4,261.6,303.5C261.7,303.6,261.7,303.6,261.8,303.5C261.9,303.4,261.9,303.4,261.9,303.3C261.9,303.3,261.9,303.2,261.8,303.2C261.7,303.2,261.7,303.3,261.6,303.2C261.7,303.1,261.7,302.9,261.7,302.7L261.8,302.7C261.9,302.8,261.9,302.8,262,302.7C262.2,302.6,262.3,302.7,262.5,302.8C262.5,302.9,262.4,303.1,262.6,303.2C262.6,303.2,262.6,303.2,262.6,303.3C262.6,303.5,262.7,303.6,262.8,303.7C262.9,303.7,263,303.7,263,303.8Z" fill="rgb(67,176,177)" stroke="none" stroke-width="1"/><path id="eqbxUBSdujt97" d="M263.9,305.2C263.7,305.3,263.7,305.2,263.6,305C263.5,304.9,263.6,304.7,263.4,304.6C263.3,304.6,263.3,304.5,263.4,304.4C263.4,304.4,263.4,304.4,263.5,304.3C263.6,304.2,263.5,304.2,263.4,304.1C263.6,304,263.7,303.8,263.9,303.7C264,303.8,264.2,303.9,264.2,304.1C264.2,304.2,264.3,304.2,264.3,304.2C264.3,304.7,264.1,305,263.9,305.2Z" fill="rgb(67,176,177)" stroke="none" stroke-width="1"/><path id="eqbxUBSdujt98" d="M265,303.8C265.1,303.8,265.1,303.7,265.1,303.6C265.1,303.5,265.2,303.4,265.2,303.3C265.3,303.2,265.4,303,265.5,303C265.6,303.1,265.8,303.1,265.9,303.2C266,303.3,266,303.4,266,303.5C265.8,303.7,265.6,303.9,265.3,304.1C265.2,304.2,265.2,304.2,265.1,304.1C265.1,304,265,303.9,265,303.8Z" fill="rgb(62,166,167)" stroke="none" stroke-width="1"/><path id="eqbxUBSdujt99" d="M266.4,303.4C266.4,303.2,266.6,303.1,266.7,303.1C267.4,303,268,302.8,268.7,302.6C268.8,302.6,268.9,302.6,268.9,302.6C268.8,302.8,268.6,302.9,268.5,303.1C268.4,303.2,268.1,303.3,267.9,303.2C267.6,303.1,267.2,303.1,266.8,303.3C266.7,303.3,266.6,303.4,266.4,303.4Z" fill="rgb(62,166,167)" stroke="none" stroke-width="1"/><path id="eqbxUBSdujt100" d="M261.1,303.4C261.2,303.5,261.3,303.4,261.3,303.4C261.3,303.5,261.4,303.6,261.4,303.7C261.4,303.8,261.3,303.9,261.3,303.9C261.1,304,261.2,304.2,261.1,304.4C261.1,304.5,261.1,304.5,261.1,304.6C261,304.6,261,304.5,261,304.5L261,304.5C261,304.1,261,303.7,261.1,303.4Z" fill="rgb(80,190,191)" stroke="none" stroke-width="1"/><path id="eqbxUBSdujt101" d="M266.2,303.4L266.1,303.3C266,303.3,266,303.2,266,303.1L266,303.1C266.1,303,266.2,302.9,266.3,302.9C266.4,302.9,266.4,302.9,266.4,303C266.4,303.1,266.3,303.1,266.3,303.1C266.2,303.2,266.2,303.3,266,303.2C266,303.2,265.9,303.2,266,303.3C266.3,303.3,266.2,303.3,266.2,303.4L266.2,303.4Z" fill="rgb(48,135,136)" stroke="none" stroke-width="1"/><path id="eqbxUBSdujt102" d="M270.4,292.7C270.3,292.5,270.5,292.5,270.6,292.5C270.5,292.6,270.5,292.6,270.4,292.7Z" fill="rgb(12,49,71)" stroke="none" stroke-width="1"/><path id="eqbxUBSdujt103" d="M270.6,292.5C270.6,292.4,270.6,292.4,270.6,292.5L270.6,292.5Z" fill="rgb(12,49,71)" stroke="none" stroke-width="1"/><path id="eqbxUBSdujt104" d="M267.7,294.4C267.6,294.4,267.6,294.3,267.7,294.4C267.5,294.3,267.6,294.2,267.6,294.2C267.7,294.1,267.7,294.2,267.7,294.3C267.7,294.2,267.7,294.3,267.7,294.4C267.7,294.3,267.7,294.4,267.7,294.4Z" fill="rgb(14,58,84)" stroke="none" stroke-width="1"/><path id="eqbxUBSdujt105" d="M263.7,301.1C263.7,301.2,263.8,301.4,263.9,301.5C264,301.5,264,301.6,263.9,301.7L263.9,301.7C263.9,301.8,263.8,301.9,263.8,301.9C263.9,301.8,264,301.8,264.1,301.8C264.1,301.8,264.2,301.9,264.1,301.9C264,301.9,263.9,302,263.9,302.1C263.9,302.2,263.9,302.2,264,302.2C264.1,302.2,264,302.3,264,302.3C263.9,302.3,263.9,302.3,263.8,302.3C263.8,302.2,263.6,302.1,263.5,302C263.3,302,263.3,302,263.3,302.2C263.3,302.3,263.2,302.4,263.1,302.3L263,302.2L262.9,302.2L262.9,302.3L262.9,302.3C263,302.4,263,302.5,263,302.6L262.9,302.7C262.8,302.7,262.8,302.8,262.7,302.6C262.7,302.5,262.7,302.5,262.7,302.4C262.7,302.3,262.6,302.3,262.5,302.3C262.4,302.4,262.4,302.3,262.3,302.3C262.2,302.2,262.1,302.1,262,302.1C262,302,262,301.9,262.1,301.9C262.2,301.9,262.3,301.9,262.3,302C262.3,302.1,262.3,302.1,262.4,302.1C262.5,302.1,262.5,302,262.5,302C262.5,301.9,262.4,301.8,262.5,301.8C262.6,301.8,262.6,301.9,262.7,301.9L262.7,301.9C262.7,301.9,262.8,302,262.8,301.9C262.8,301.8,262.8,301.8,262.8,301.8C262.8,301.8,262.7,301.8,262.7,301.7L262.7,301.6L262.8,301.6C262.9,301.6,263,301.7,263,301.8C263,301.8,263,301.9,263.1,301.8L263.1,301.7C263.1,301.7,263,301.6,263.1,301.6C263.3,301.6,263.2,301.5,263.2,301.4C263.3,301.3,263.2,301.3,263.2,301.2C263.2,301.1,263.1,301.2,263,301.2C263,301.2,262.9,301.3,262.9,301.2C263,301,262.9,301,262.7,300.9C262.6,300.9,262.6,300.8,262.6,300.8L263.7,301.1Z" fill="rgb(45,123,124)" stroke="none" stroke-width="1"/><path id="eqbxUBSdujt106" d="M263.8,302.3C263.8,302.3,263.9,302.4,264,302.3C264,302.3,264.1,302.3,264,302.2C263.9,302.2,263.9,302.1,263.9,302.1C263.9,302,264,301.9,264.1,301.9C264.2,302,264.1,302.2,264.3,302.3C264.4,302.3,264.2,302.4,264.3,302.5C264.4,302.6,264.5,302.4,264.5,302.5C264.6,302.6,264.6,302.7,264.5,302.9C264.5,302.9,264.4,303,264.4,302.9C264.3,302.8,264.2,302.9,264.1,302.9C264,303,263.9,303,263.8,302.9L263.8,302.9C263.7,302.8,263.5,302.7,263.4,302.6L263.3,302.6C263.2,302.8,263.2,302.6,263.1,302.6L263.1,302.6C263.1,302.6,263.2,302.6,263.2,302.5L263.3,302.4C263.5,302.5,263.4,302.3,263.4,302.3L263.4,302.3C263.4,302.4,263.5,302.4,263.4,302.5C263.4,302.6,263.4,302.6,263.5,302.6C263.6,302.6,263.6,302.6,263.6,302.5C263.8,302.5,263.7,302.4,263.8,302.3L263.8,302.3Z" fill="rgb(48,135,136)" stroke="none" stroke-width="1"/><path id="eqbxUBSdujt107" d="M263,303.8C263,303.7,262.9,303.7,262.9,303.6C262.8,303.5,262.7,303.4,262.7,303.2L262.7,303.1C262.5,303,262.6,302.8,262.6,302.7C262.8,302.5,263,302.7,263.1,302.9C263,303,262.8,303,262.8,302.9C262.9,303.2,263,303.2,263.1,303.1C263.2,303,263.3,302.9,263.4,303C263.4,303,263.5,303,263.6,302.9C263.6,302.9,263.7,302.8,263.7,302.9C263.7,303,263.7,303,263.6,303C263.4,303.1,263.4,303.3,263.6,303.4L263.7,303.4C263.9,303.3,263.8,303.5,263.8,303.5C263.6,303.5,263.4,303.6,263.3,303.6C263.1,303.6,263.1,303.7,263.2,303.8C263,303.9,263,303.9,263,303.8Z" fill="rgb(62,166,167)" stroke="none" stroke-width="1"/><path id="eqbxUBSdujt108" d="M263.1,303.9C263,303.8,263.1,303.7,263.2,303.7C263.4,303.7,263.6,303.6,263.7,303.6C264,303.6,264.3,303.5,264.6,303.5L264,303.9C263.8,304,263.6,304.1,263.5,304.3C263.5,304.3,263.5,304.3,263.4,304.3C263.2,304.4,263.2,304.4,263.2,304.2L263.2,304.1L263.1,303.9L263.1,303.9Z" fill="rgb(226,244,253)" stroke="none" stroke-width="1"/><path id="eqbxUBSdujt109" d="M263.7,301.1L263,300.9C262.9,300.9,262.9,300.9,262.8,300.9C262.7,300.9,262.6,300.8,262.5,300.8L262.5,300.8L262.5,300.8L262.5,300.7C262.6,300.7,262.6,300.7,262.7,300.7C263.1,300.8,263.5,301,263.9,301.1C264,301.1,264.1,301.2,264.1,301.2L263.7,301.1Z" fill="rgb(226,244,253)" stroke="none" stroke-width="1"/><path id="eqbxUBSdujt110" d="M261.8,302.6L261.8,302.6C261.5,302.6,261.4,302.7,261.4,302.9C261.4,303,261.4,303,261.3,303.1C261.2,303.1,261.2,303,261.2,303L261.2,303C261.2,303,261.2,303,261.2,302.9L261.2,302.9C261.2,302.9,261.2,302.9,261.2,302.8L261.2,302.8C261.2,302.8,261.2,302.8,261.2,302.7C261.2,302.6,261.2,302.6,261.3,302.5C261.4,302.4,261.6,302.4,261.6,302.3C261.6,302.2,261.7,302.1,261.8,302.1L261.8,302.1C261.9,302.4,261.8,302.5,261.8,302.6Z" fill="rgb(48,135,136)" stroke="none" stroke-width="1"/><path id="eqbxUBSdujt111" d="M262.1,302.1C262.2,302.1,262.3,302.2,262.4,302.3C262.3,302.5,262.2,302.5,262,302.3C262,302.3,262,302.2,261.9,302.2L261.9,302.1L261.9,302.1C262,302.1,262.1,302.2,262.1,302.1Z" fill="rgb(48,135,136)" stroke="none" stroke-width="1"/><path id="eqbxUBSdujt112" d="M267.4,302.6C267.3,302.6,267.3,302.6,267.4,302.6C267.3,302.6,267.3,302.5,267.3,302.5L267.3,302.5L267.4,302.4C267.4,302.4,267.5,302.3,267.6,302.3C267.7,302.4,267.6,302.4,267.5,302.5C267.4,302.5,267.4,302.5,267.4,302.6Z" fill="rgb(48,135,136)" stroke="none" stroke-width="1"/><path id="eqbxUBSdujt113" d="M262,302.1C262,302.1,261.9,302.2,262,302.2L262,302.2L261.9,302.2L261.9,302.2C261.9,302.1,261.7,302.2,261.8,302C261.8,302,261.9,302,262,302.1Z" fill="rgb(45,123,124)" stroke="none" stroke-width="1"/><path id="eqbxUBSdujt114" d="M263,302.6L263.1,302.5C263.2,302.5,263.2,302.6,263.2,302.6L263.2,302.6C263.1,302.8,263,302.8,263,302.6Z" fill="rgb(48,135,136)" stroke="none" stroke-width="1"/><path id="eqbxUBSdujt115" d="M264,301.1C264.1,301,264.2,301,264.2,301.1C264.1,301.2,264,301.2,264,301.1Z" fill="rgb(226,244,253)" stroke="none" stroke-width="1"/><path id="eqbxUBSdujt116" d="M268.4,294.5C268.4,294.6,268.4,294.6,268.4,294.5C268.4,294.6,268.4,294.5,268.4,294.5Z" fill="rgb(12,49,71)" stroke="none" stroke-width="1"/><path id="eqbxUBSdujt117" d="M262,302.1C261.9,302,261.9,302,261.8,302.1C261.7,302.2,261.9,302.2,261.9,302.3C261.8,302.3,261.7,302.4,261.7,302.5C261.7,302.6,261.5,302.6,261.4,302.7C261.5,302.3,261.7,301.8,261.8,301.4C261.8,301.3,261.9,301.3,261.8,301.2C261.9,301,262,300.8,262.1,300.5L262.4,300.7C262.4,300.7,262.5,300.8,262.4,300.8C262.3,300.8,262.3,300.7,262.2,300.8C262.2,300.9,262.2,300.9,262.3,300.9C262.4,301,262.6,301,262.8,300.9L262.8,300.9C262.9,300.9,262.9,300.9,263,300.9C263,300.9,263,301,263.1,301C263.3,301,263.3,301.1,263.3,301.3C263.3,301.4,263.4,301.4,263.4,301.3C263.5,301.3,263.5,301.2,263.6,301.3C263.6,301.4,263.7,301.4,263.6,301.5C263.5,301.5,263.6,301.7,263.5,301.7C263.4,301.7,263.5,301.8,263.5,301.8L263.5,301.9L263.4,301.9C263.4,301.8,263.3,301.8,263.2,301.7C263.2,301.7,263.1,301.6,263.1,301.7L263.1,301.8L263.2,301.9C263.3,301.9,263.3,302,263.2,302C263.2,302.1,263.1,302,263.1,302L263.1,302C263,301.9,263,301.8,262.9,301.9C262.8,301.9,262.9,302,262.9,302.1C262.9,302.2,262.8,302.2,262.8,302.2C262.7,302.2,262.7,302.1,262.7,302.1C262.7,302,262.6,302,262.5,302C262.4,302,262.4,302.1,262.4,302.2C262.1,302.2,262,302.1,262,302.1Z" fill="rgb(43,112,114)" stroke="none" stroke-width="1"/><path id="eqbxUBSdujt118" d="M262.1,299.5L262.1,299.6L262.1,299.6C262,299.6,262,299.6,262.1,299.5Z" fill="rgb(226,244,253)" stroke="none" stroke-width="1"/><path id="eqbxUBSdujt119" d="M261.2,303C261.2,303,261.2,303.1,261.3,303.1C261.4,303.1,261.4,303,261.4,302.9C261.4,302.6,261.4,302.6,261.7,302.6C261.7,302.8,261.7,302.9,261.6,303.1C261.7,303.2,261.7,303.1,261.8,303.1C261.8,303.1,261.9,303.1,261.9,303.2C261.8,303.3,261.8,303.4,261.8,303.4C261.7,303.5,261.7,303.5,261.6,303.4C261.5,303.3,261.4,303.2,261.2,303.2C261.2,303.1,261.2,303.1,261.2,303Z" fill="rgb(53,151,152)" stroke="none" stroke-width="1"/><path id="eqbxUBSdujt120" d="M261.3,302.8C261.3,302.9,261.3,302.9,261.3,302.8L261.3,302.8Z" fill="rgb(53,151,152)" stroke="none" stroke-width="1"/><path id="eqbxUBSdujt121" d="M261.3,302.9L261.3,302.9C261.2,302.9,261.3,302.9,261.3,302.9Z" fill="rgb(53,151,152)" stroke="none" stroke-width="1"/><path id="eqbxUBSdujt122" d="M261.3,303L261.3,303C261.2,303,261.2,303,261.3,303Z" fill="rgb(53,151,152)" stroke="none" stroke-width="1"/><path id="eqbxUBSdujt123" d="M263.4,305.5C263.3,305.6,263.2,305.6,263.1,305.5C262.9,305.5,262.9,305.4,262.9,305.2C262.9,305.1,262.9,305,262.9,304.8C262.9,304.7,262.8,304.6,263,304.5C263.1,304.4,263.3,304.4,263.4,304.5C263.6,304.7,263.6,305,263.6,305.3C263.5,305.5,263.4,305.5,263.4,305.5Z" fill="rgb(193,232,253)" stroke="none" stroke-width="1"/><path id="eqbxUBSdujt124" d="M263.1,303.9L263.2,304.1C263,304.1,263,304,263.1,303.9Z" fill="rgb(67,176,177)" stroke="none" stroke-width="1"/><path id="eqbxUBSdujt125" d="M263.2,302.7C263.2,302.6,263.1,302.6,263.2,302.7C263,302.5,263.1,302.4,263,302.3L263,302.2L263,302.2L263.1,302.2L263.2,302.3C263.3,302.3,263.4,302.3,263.4,302.2C263.4,302,263.4,302,263.6,302C263.7,302,263.8,302.1,263.9,302.3L263.8,302.3L263.7,302.4L263.7,302.4L263.6,302.3C263.5,302.4,263.4,302.4,263.5,302.6C263.3,302.6,263.2,302.6,263.2,302.7Z" fill="rgb(43,112,114)" stroke="none" stroke-width="1"/><path id="eqbxUBSdujt126" d="M263.3,302.6C263.2,302.4,263.4,302.4,263.4,302.3L263.5,302.4C263.5,302.5,263.5,302.6,263.4,302.5C263.4,302.5,263.4,302.6,263.3,302.6Z" fill="rgb(45,123,124)" stroke="none" stroke-width="1"/><path id="eqbxUBSdujt127" d="M263.6,302.4L263.7,302.3C263.7,302.4,263.7,302.4,263.8,302.5C263.8,302.6,263.8,302.6,263.7,302.6C263.7,302.6,263.6,302.6,263.6,302.5C263.7,302.5,263.6,302.4,263.6,302.4Z" fill="rgb(45,123,124)" stroke="none" stroke-width="1"/><path id="eqbxUBSdujt128" d="M262.7,300.8C262.6,300.9,262.4,300.9,262.2,300.8L262.2,300.8L262.1,300.7C262.1,300.6,262.2,300.7,262.3,300.7L262.3,300.7C262.3,300.7,262.3,300.8,262.3,300.7C262.5,300.8,262.6,300.8,262.7,300.8Z" fill="rgb(48,135,136)" stroke="none" stroke-width="1"/><path id="eqbxUBSdujt129" d="M262.4,300.8L262.4,300.8L262.4,300.8Z" fill="rgb(43,112,114)" stroke="none" stroke-width="1"/><path id="eqbxUBSdujt130" d="M260.4,297.1C260.4,297.2,260.4,297.2,260.3,297.3L260.3,297.3C260.2,297.3,260.2,297.3,260.1,297.2C260,297,259.8,297,259.6,297.1L259.5,297.2C259.4,297.3,259.3,297.4,259.2,297.4C259.1,297.4,259.1,297.4,259,297.4L259,297.4C259,297.4,259.2,297.4,259.2,297.5C259.2,297.6,259.1,297.6,259,297.6L259,297.6C259,297.7,259.2,297.6,259.1,297.7C259.1,297.8,259,297.8,258.9,297.8C258.8,297.8,258.7,297.7,258.6,297.7C258.6,297.7,258.6,297.8,258.5,297.8C258.5,297.9,258.7,297.8,258.6,298C258.6,298.1,258.5,298.2,258.4,298.2C258.3,298.2,258.2,298.2,258.2,298.1L258.2,298.1C258.3,298,258.2,297.9,258.3,297.8C258.3,297.7,258.3,297.7,258.3,297.6L258.2,297.6L258.2,297.6C258.3,297.5,258.4,297.4,258.2,297.3C258.1,297.3,258.1,297.2,258.1,297.2L258.1,297.2C258.2,297.1,258.2,296.9,258.4,297C258.5,297,258.6,296.9,258.6,296.9C258.7,296.9,258.8,296.9,258.8,297L258.8,297.1C258.8,297.1,258.9,297.1,258.9,297C258.9,297,259,296.9,258.9,296.8L258.8,296.7C258.8,296.7,258.7,296.6,258.8,296.6C258.9,296.5,259,296.5,258.8,296.4C258.8,296.4,258.8,296.3,258.9,296.3C259,296.3,259.1,296.3,259.1,296.2C259.2,296.2,259.3,296.2,259.3,296C259.3,296,259.3,295.9,259.4,295.9C259.6,295.8,259.6,295.7,259.7,295.6C259.9,295.4,260.1,295.4,260.2,295.2C260.2,295.2,260.3,295.2,260.4,295.2C260.6,295.3,260.7,295.3,260.8,295L260.8,295C261,294.9,261,294.8,261,294.6C261,294.5,261,294.4,260.9,294.3C260.8,294.2,260.8,294.1,261,294L260.9,293.9C260.8,293.9,260.8,293.9,260.7,294C260.5,294.1,260.5,294.1,260.5,293.9C260.5,293.7,260.4,293.6,260.2,293.7L260.3,293.8C260.3,293.8,260.4,293.8,260.4,293.9C260.3,294,260.2,294.1,260.1,293.9L260,293.9L260,293.9L260,294C260.1,294.1,260,294.2,260.1,294.3L260.1,294.3C260,294.4,259.9,294.4,259.8,294.6C259.8,294.7,259.7,294.6,259.7,294.5C259.7,294.4,259.6,294.4,259.5,294.5C259.4,294.6,259.3,294.6,259.2,294.5C259.1,294.5,259,294.5,258.9,294.6L258.8,294.7C258.7,294.7,258.7,294.8,258.6,294.7C258.6,294.6,258.6,294.6,258.7,294.6C258.8,294.4,258.8,294.2,258.7,294L258.6,294.1C258.7,294.4,258.7,294.4,258.4,294.6C258.1,294.8,257.7,295,257.3,295.1C257.2,295.1,257.1,295.2,257,295.1C256.9,295.2,256.7,295.2,256.7,295.4C256.7,295.5,256.5,295.4,256.4,295.4L256.4,295.4C256.5,295.5,256.6,295.5,256.7,295.4C256.8,295.2,256.9,295.2,257,295.1C257.1,294.9,257.4,294.8,257.5,294.7L257.6,294.6C257.6,294.4,257.5,294.3,257.6,294.1C257.6,294.1,257.6,294.1,257.6,294C257.6,293.9,257.5,293.9,257.6,293.8C257.7,293.8,257.8,293.6,257.9,293.7C258,293.7,258,293.8,258.1,293.7C258.1,293.6,258,293.6,258,293.5C258,293.5,258,293.5,257.9,293.5L257.9,293.4C257.6,293.4,257.4,293.4,257.1,293.5C257,293.6,256.9,293.6,256.8,293.5C256.7,293.5,256.6,293.6,256.5,293.6C256.3,293.8,256.1,293.9,255.9,294C255.7,294.1,255.5,294.3,255.3,294.4C255.2,294.6,255.1,294.7,254.9,294.8C254.8,294.8,254.7,294.9,254.7,295.1C254.7,295.3,254.6,295.4,254.4,295.5C254.2,295.6,254.1,295.7,253.9,295.8C253.7,295.9,253.6,296,253.5,296.1C253.6,296.3,253.6,296.3,253.4,296.3C253.3,296.3,253.3,296.3,253.3,296.4C253.3,296.5,253.2,296.5,253.1,296.4L253,296.4L253,296.4C252.9,296.5,252.7,296.5,252.6,296.6C252.3,296.9,251.9,297.1,251.5,297.3C251.3,297.4,251,297.6,250.8,297.7C250.4,298,249.9,298.2,249.5,298.5C249.1,298.8,248.7,299.1,248.3,299.3C248.1,299.4,248,299.5,247.9,299.6C248.1,299.9,248,300.1,247.6,300.2C247.7,300.1,247.7,299.9,247.6,299.8C247.4,299.9,247.3,300,247.1,300.1C246.7,300.3,246.3,300.6,245.9,300.8C245.9,300.9,246,300.9,246.1,300.9C246.3,300.8,246.3,300.8,246.3,301C246.3,301,246.3,301.1,246.4,301.1C246.6,301.2,246.5,301.2,246.4,301.3C246.5,301.4,246.5,301.6,246.4,301.7C246.3,301.7,246.3,301.9,246.2,301.8C246.1,301.7,245.9,301.7,245.9,301.6L245.8,301.4C245.6,301.5,245.6,301.6,245.8,301.8C245.9,301.9,245.9,302,245.9,302.1C245.9,302.3,245.8,302.2,245.7,302.2L245.7,302.2C245.8,302.3,245.9,302.3,245.9,302.1C245.9,302,245.9,301.9,245.8,301.8C245.6,301.6,245.7,301.6,245.8,301.4C245.7,301.3,245.9,301.2,245.8,301.1C245.8,301,245.6,301.1,245.6,301C245.3,301.2,245,301.4,244.7,301.6C244.2,301.9,243.8,302.2,243.4,302.5C242.9,302.8,242.5,303.1,242,303.4C241.8,303.5,241.7,303.6,241.6,303.7C241.6,303.8,241.7,303.8,241.7,303.7C241.8,303.7,241.9,303.6,241.9,303.6C242,303.5,242.1,303.5,242.2,303.6C242.1,303.5,242.1,303.5,241.9,303.6C241.8,303.6,241.8,303.7,241.7,303.7C241.6,303.7,241.6,303.7,241.6,303.7L241.4,303.8C241.6,304,241.6,304.1,241.4,304.2C241.2,304.3,241.1,304.4,240.9,304.5C240.8,304.5,240.8,304.6,240.8,304.6L240.8,304.7L240.8,304.6C240.8,304.5,240.9,304.5,240.9,304.5C241.1,304.4,241.2,304.2,241.4,304.2C241.6,304.1,241.6,304,241.4,303.8C241.1,304,240.8,304.2,240.4,304.4L240.4,304.4C240.3,304.5,240.2,304.5,240.1,304.6C239.6,304.9,239.1,305.3,238.6,305.6C238,306,237.3,306.4,236.7,306.8C236.2,307.1,235.7,307.4,235.2,307.7C235,307.8,234.8,307.9,234.6,308C234.3,308.2,234,308.4,233.6,308.6L234,309.4C234.1,309.4,234.1,309.4,234.1,309.4C234.1,309.5,234.1,309.5,234,309.5L234,309.6C234.1,309.6,234.2,309.7,234.2,309.7C234.3,309.7,234.4,309.7,234.3,309.6C234.3,309.5,234.3,309.5,234.3,309.4C234.3,309.4,234.3,309.3,234.4,309.3C234.5,309.3,234.5,309.3,234.5,309.4C234.5,309.5,234.5,309.6,234.6,309.5C234.7,309.4,234.8,309.3,234.9,309.2C235.1,309.1,235.2,309,235.4,309.2L235.5,309.2C235.6,309.1,235.5,309.1,235.5,309L235.5,308.9C235.4,308.9,235.4,308.8,235.4,308.8C235.4,308.9,235.4,308.9,235.5,308.9L235.5,308.9C235.6,308.7,235.6,308.7,235.8,308.8C236,308.7,236.1,308.6,236.3,308.5L236.3,308.5C236.5,308.4,236.6,308.2,236.8,308.2C236.7,308.1,236.8,308,237,307.9C237.2,307.8,237.3,307.7,237.4,307.5L237.5,307.4C237.7,307.4,237.9,307.2,238,307.1C238,307.1,238,307,238.1,307C238.3,307,238.4,306.9,238.6,306.8C238.7,306.8,238.7,306.8,238.8,306.8C238.8,306.9,238.8,306.9,238.7,306.9C238.4,307.1,238.1,307.3,237.8,307.5C237.7,307.6,237.6,307.6,237.6,307.7C237.6,307.8,237.6,307.9,237.7,307.9C237.8,307.9,237.8,308,237.7,308L237.6,308.1L237.6,308.1C237.7,308.1,237.8,308.1,237.8,308C237.9,307.9,238,307.9,238.1,307.8C238.2,307.8,238.2,307.8,238.2,307.9L238.2,307.9C238.2,307.8,238.3,307.8,238.3,307.8C238.2,307.8,238.2,307.9,238.2,307.9L238.2,307.9C238.1,308,238.1,308.2,237.9,308.1L237.9,308.1C237.9,308.4,237.6,308.4,237.4,308.4C237.3,308.4,237.3,308.6,237.3,308.7C237.3,308.8,237.3,308.8,237.2,308.8C237.1,308.7,237,308.6,237.1,308.5C237.1,308.5,237.1,308.4,237.2,308.4C237.3,308.3,237.2,308.2,237.2,308.1C236.9,308.3,236.5,308.5,236.2,308.7C236.1,308.8,235.9,308.8,235.7,308.8C235.7,308.8,235.6,308.8,235.6,308.9C235.6,309.1,235.6,309.1,235.4,309L235.2,309.1C235.1,309.1,235,309.3,234.8,309.3C234.7,309.4,234.6,309.5,234.4,309.6C234.3,309.7,234.1,309.8,234,310L234.4,310.7C234.6,310.5,234.8,310.3,235.1,310.1C235.3,310,235.4,310,235.5,310.2C235.5,310.3,235.5,310.4,235.5,310.4L235.5,310.4C235.4,310.5,235.2,310.6,235,310.7C234.9,310.8,234.8,310.9,234.6,310.9L234.8,311.2L237.6,316.5C237.7,316.5,237.7,316.4,237.7,316.3C237.7,316.2,237.8,316.2,237.8,316.2C238,316.2,238.1,316.1,238.2,316C238.2,316,238.2,315.9,238.3,315.9C238.5,315.9,238.6,315.8,238.7,315.7C238.8,315.6,238.9,315.6,238.8,315.4L238.8,315.3L238.8,315.3C239,315.5,239,315.5,239.2,315.3C239.2,315.3,239.3,315.3,239.3,315.2C239.4,315.2,239.4,315,239.4,314.9C239.4,314.9,239.4,314.8,239.3,314.8C239.2,314.8,239.2,314.7,239.1,314.7C239.2,314.6,239.3,314.6,239.4,314.7L239.4,314.7C239.5,314.8,239.6,314.8,239.7,314.7C239.8,314.7,239.8,314.6,239.8,314.6C239.9,314.5,239.9,314.5,240,314.4C240.3,314.2,240.5,314,240.8,313.8C241,313.7,241.2,313.5,241.4,313.4C241.7,313.1,242.1,312.9,242.4,312.6C242.6,312.5,242.7,312.4,242.8,312.3L242.9,312.2C243,312.1,243.1,312.1,243.2,312C243.3,312,243.3,311.9,243.4,311.9C243.5,311.9,243.6,311.7,243.7,311.7C244.1,311.4,244.6,311.1,245,310.8C245.3,310.6,245.5,310.5,245.7,310.2C245.8,310.2,245.9,310.1,245.9,310C246,309.9,246.1,309.9,246.2,309.8C246.5,309.5,246.9,309.3,247.2,309C247.5,308.8,247.7,308.6,248,308.4C248.2,308.2,248.5,308,248.7,307.9L248.8,307.8C248.9,307.7,249,307.6,249.2,307.5C249.4,307.4,249.6,307.3,249.8,307.1C249.9,307.1,249.9,307,250,307C250.3,306.8,250.6,306.5,251,306.3C251.2,306.2,251.4,306,251.6,305.9C252.1,305.5,252.7,305.1,253.2,304.7C253.8,304.3,254.4,303.9,254.9,303.4C255.3,303.1,255.8,302.8,256.2,302.4C256.4,302.2,256.7,302.1,256.9,301.9C257.1,301.7,257.3,301.5,257.6,301.4C258,301.7,258.4,301.9,258.9,302.2C259.2,302.3,259.5,302.5,259.8,302.7L259.8,302.7C259.8,302.6,259.8,302.6,259.9,302.5L259.9,302.5C259.9,302.5,259.9,302.5,259.9,302.4L259.9,302.4C259.9,302.4,259.9,302.4,259.9,302.3L259.9,302.3L259.9,302.2C259.9,302.1,259.9,302.1,260,302C260.1,301.6,260.3,301.1,260.4,300.7C260.4,300.6,260.5,300.6,260.4,300.5C260.3,300.5,260.2,300.5,260.2,300.4L260.2,300.4C260.2,300.3,260.2,300.2,260.1,300.1C260,300,259.9,299.9,260,299.8C260,299.8,260,299.7,259.9,299.7C259.9,299.5,260,299.4,260.2,299.3C260.3,299.3,260.3,299.2,260.3,299.1C260.3,298.9,260.4,298.8,260.6,298.7C260.7,298.7,260.6,298.7,260.6,298.6C260.5,298.4,260.6,298.4,260.8,298.4C260.9,298.3,260.8,298.2,260.9,298.1L260.9,298C260.8,297.9,260.9,297.8,261,297.8C261.1,297.7,261.2,297.5,261.2,297.3C261.2,297.1,261.3,296.9,261.3,296.6C261.2,296,261,295.5,260.8,294.9C260.7,294.9,260.7,295,260.6,295L260.5,295" fill="rgb(217,241,254)" stroke="none" stroke-width="1"/><path id="eqbxUBSdujt131" d="M271.6,290.8C271.4,290.8,271.2,290.8,271.1,290.9C270.7,291.1,270.3,291.4,269.8,291.6C269.6,291.7,269.3,291.9,269.1,292L269.1,292C269.1,292,269,292.1,268.6,292.3C268.2,292.5,268,292.7,267.8,292.8C267.6,292.9,266.6,294.1,266.6,294.1C266.6,294.1,266.4,294.2,266.4,294.7C266.4,295.1,266.2,297.8,266.2,297.8C266.2,297.8,266.1,298.1,266.3,298.2L268,298.6L268.6,298.8L268.6,295.9L268.6,295.1L268.8,294.8L270.9,291.9C271.2,291.6,271.4,291.2,271.7,290.9C271.8,290.8,271.7,290.8,271.6,290.8Z" fill="rgb(14,58,84)" stroke="none" stroke-width="1"/></g><path id="eqbxUBSdujt132" d="M233.9,308C232.3,305,230.8,302,229.2,299C229.4,298.7,229.6,298.4,229.8,298.1C229.9,298.1,229.8,298,229.8,297.9C229.7,297.7,229.6,297.7,229.4,297.9C229.2,298.1,229.1,298.3,229,298.5C228.8,298.1,228.5,297.6,228.3,297.2C228.2,297.1,228.2,297,228.3,296.9L228.4,296.8C228.4,296.7,228.4,296.7,228.5,296.7C228.6,296.7,228.6,296.7,228.6,296.6C228.6,296.4,228.8,296.1,229,296C229.1,295.9,229.2,295.7,229.4,295.6L229.4,295.5C229.4,295.4,229.4,295.3,229.5,295.3C229.5,295.3,229.5,295.3,229.6,295.3C229.8,295.3,229.8,295.2,229.9,295.1C230,295,230.1,294.9,230.3,294.8C230.5,294.8,230.6,294.6,230.6,294.4L230.6,294.3C230.8,294.3,230.8,294.1,230.9,294C231,294,231,293.9,231,293.9C231,293.8,231.1,293.7,231.2,293.7C231.4,293.7,231.4,293.5,231.6,293.4C231.7,293.4,231.6,293.3,231.6,293.3C231.5,293.2,231.5,293.1,231.7,293C231.8,293,231.9,292.9,231.9,292.9C231.9,292.8,232,292.7,232.1,292.7L232.2,292.7C232.3,292.4,232.7,292.4,232.8,292.2L232.9,292.2C233.1,292.2,233.1,292.2,233,292C232.9,291.9,233,291.9,233.1,291.8C233.4,291.7,233.6,291.5,233.9,291.4C234,291.3,234.1,291.3,234,291.2C233.9,291.1,234,291.1,234,291.1C234.1,291,234.3,290.9,234.4,290.8C234.5,290.7,234.5,290.7,234.6,290.8C234.8,290.9,234.9,290.7,235.1,290.7C235.1,290.7,235.1,290.7,235.1,290.6C235.1,290.4,235.3,290.3,235.4,290.3C235.6,290.2,235.7,290.2,235.9,290.2C236,290.2,236,290.2,236.1,290.1C236.1,289.8,236.4,289.8,236.6,289.7C236.7,289.7,236.8,289.6,236.9,289.6C237,289.5,237.1,289.4,237.3,289.5C237.4,289.5,237.6,289.5,237.6,289.3L237.6,289.3C237.6,289.2,237.7,289.2,237.8,289.2C237.9,289.2,238.1,289.2,238.2,289.2C238.2,289.2,238.3,289.1,238.2,289.1C238.2,289,238.2,288.9,238.3,289C238.4,289,238.4,289,238.4,288.9C238.4,288.8,238.5,288.7,238.6,288.8C238.8,288.8,239,288.7,239.1,288.6C239.2,288.5,239.4,288.5,239.5,288.4C239.5,288.5,239.5,288.4,239.6,288.4C239.7,288.3,239.8,288.2,239.9,288.3C240,288.3,240.1,288.3,240.1,288.2C240.2,288.2,240.2,288.2,240.3,288.2C240.3,287.9,240.3,287.9,240.7,287.9C240.9,287.9,241.1,288,241.1,287.7C241.1,287.7,241.1,287.6,241.2,287.6C241.3,287.7,241.4,287.9,241.4,287.6C241.4,287.5,241.6,287.5,241.7,287.5L241.8,287.5C241.9,287.2,242.1,287.4,242.2,287.3C242.4,287.3,242.5,287.2,242.6,287.1C242.7,286.9,242.9,287,243.1,286.9C243.2,286.8,243.4,286.8,243.5,286.7L243.6,286.7C243.8,286.8,243.8,286.7,243.9,286.5C243.9,286.7,244,286.7,244.1,286.7C244.2,286.6,244.3,286.5,244.5,286.5C244.8,286.4,245.1,286.1,245.4,286.1C245.7,286.1,245.9,286.1,246.2,286.2C246.3,286.3,246.3,286.2,246.3,286.2C246.4,286.2,246.5,286,246.7,286.1C246.8,286.2,246.8,286,246.9,286.1C247.1,286.1,247.4,286.2,247.6,286.2C247.8,286.3,248.1,286.4,248.3,286.1C248.4,286,248.6,286,248.7,286L248.8,286C248.9,285.7,249.2,286,249.4,285.9C249.5,286.1,249.6,285.9,249.7,285.9C249.9,285.9,250,285.8,250.2,285.9C250.4,285.9,250.6,285.9,250.7,285.9L250.8,285.9C251.1,286,251.5,286.1,251.8,286C251.9,286,251.9,286,252,286C252.1,285.9,252.2,285.9,252.3,286C252.4,286.1,252.7,286.1,252.7,286.1C252.8,286,253,286,253.1,286C253.2,286,253.4,286,253.5,286L253.6,286C254,285.8,254.4,286,254.8,285.9C255.1,285.8,255.5,285.9,255.7,286.1C255.8,286.2,256,286.1,256,286.3L256,286.3C256.2,286.2,256.3,286.3,256.5,286.3C256.7,286.3,256.9,286.4,257.2,286.5L257.3,286.5C257.5,286.5,257.8,286.6,258,286.8C258.1,286.9,258.1,286.9,258.2,286.9C258.5,286.8,258.6,286.9,258.7,287.2C258.7,287.3,258.8,287.3,258.8,287.2C258.8,287.1,258.9,287.1,259,287.1C259.1,287.2,259,287.2,259,287.3C259.2,287.1,259.3,287.2,259.5,287.3C259.8,287.5,260,287.6,260.3,287.7C260.4,287.7,260.5,287.7,260.4,287.9C260.4,288,260.5,288,260.5,287.9C260.7,287.9,260.8,287.9,260.8,288.1C260.8,288.2,260.9,288.3,261,288.3L261,288.3C261.2,288.3,261.3,288.3,261.3,288.5C261.3,288.6,261.3,288.7,261.5,288.6L261.6,288.6L261.6,288.6L261.6,288.7C261.6,288.8,261.6,288.8,261.5,288.9C261.4,289,261.5,289.1,261.5,289.1L261.5,289.1C261.6,289.2,261.6,289,261.7,289C261.8,289,261.9,288.9,262,289C262.2,289.2,262.4,289.4,262.6,289.6C262.7,289.7,262.8,289.8,262.6,289.9C262.7,290,262.7,289.9,262.8,289.9C262.9,289.8,263,289.8,263.1,290C263.2,290.2,263.4,290.3,263.6,290.4C263.7,290.4,263.7,290.4,263.8,290.5C263.8,290.6,263.9,290.6,264,290.6C264.1,290.6,264.3,290.6,264.2,290.8L264.2,290.9L264.2,290.9L264.3,290.8C264.3,290.6,264.3,290.4,264.3,290.2C264.3,289.8,264.3,289.5,264.2,289C264.5,289.3,264.7,289.6,264.9,289.8C265.4,290.4,266,291.1,266.5,291.7C266.6,291.8,266.7,291.8,266.8,291.7C267.1,291.5,267.4,291.3,267.7,291.1C267.8,291,267.8,291,267.9,291.1C268.2,291.4,268.5,291.7,268.7,292.1C268.8,292.2,268.8,292.2,268.9,292.3C268.8,292.4,268.6,292.5,268.4,292.6C268.2,292.7,268,292.8,267.8,293L267.6,293.2C267.5,293,267.4,292.9,267.3,292.7C267.2,292.6,267.2,292.5,267.1,292.6C267,292.6,266.9,292.7,267,292.8L267,292.8C267.1,293,267.2,293.3,267.5,293.4L267.5,293.5L267.5,293.5C267.4,293.5,267.4,293.6,267.3,293.7C267,294,266.7,294.4,266.4,294.7L266.3,294.8C266.3,295.1,266.3,295.3,266.3,295.6C266.3,295.7,266.3,295.8,266.3,295.8C266.3,295.9,266.2,296.1,266.3,296.2C266.2,296.9,266.2,297.6,266.1,298.3C266.1,298.5,266.2,298.6,266.4,298.7C266.4,298.8,266.4,299,266.5,299C266.7,299.1,266.9,299.1,266.9,299.3C266.9,299.3,266.9,299.3,267,299.3C267.3,299.2,267.6,299.4,267.9,299.4C268,299.4,268.2,299.4,268.1,299.6C268.1,299.7,268.1,299.8,268.1,299.8C268.2,299.8,268.3,299.8,268.4,299.8C268.5,299.8,268.4,299.7,268.4,299.6C268.4,299.5,268.4,299.4,268.5,299.3C268.6,299.3,268.7,299.3,268.7,299.4C268.8,299.7,268.8,299.7,269.1,299.6C269.3,299.5,269.5,299.6,269.7,299.7C269.8,299.8,269.9,299.8,270,299.8C270.2,299.8,270.3,299.9,270.4,300C270.5,300.2,270.6,300.1,270.7,300.1C270.8,300.1,270.8,300,270.9,300C271,300.1,270.9,300.2,270.9,300.2C270.9,300.2,270.9,300.3,270.8,300.3C270.7,300.4,270.8,300.5,270.9,300.5C271,300.5,271,300.5,271.1,300.5C271.2,300.5,271.4,300.5,271.3,300.7C271.4,300.6,271.5,300.5,271.6,300.6C271.5,300.8,271.3,301,271,301.1C270.5,301.5,269.9,301.8,269.4,302.2C269.3,302.3,269.1,302.3,269.1,302.5L267.5,302.2C267.3,302.1,267.1,302.1,266.9,302.1C266.7,302,266.4,302,266.1,301.9L264.5,301.5C264.5,301.4,264.3,301.4,264.3,301.4C264.2,301.2,264,301.1,263.8,301.1C263.4,301,263,300.6,262.9,300.2C262.9,300,262.7,299.8,262.6,299.6L262.6,299.5C262.5,299.5,262.7,299.4,262.6,299.3C262.5,299.3,262.5,299.4,262.5,299.5L262.5,299.5C262.4,299.5,262.2,299.5,262.3,299.3C262.2,299.2,262.5,299.2,262.4,299.1C262.2,298.9,262.4,298.8,262.5,298.7C262.6,298.6,262.7,298.4,262.7,298.2L262.7,298.1C262.8,298,262.7,297.8,262.7,297.6C262.6,297.3,262.5,297,262.4,296.7C262.3,296.4,262.2,296.1,262.1,295.9L262.1,295.8C262.1,295.6,262,295.4,261.9,295.2C261.8,295.1,261.7,294.9,261.6,294.7C261.5,294.5,261.4,294.3,261.3,294.2L261.3,294.2C261.2,294,261.1,293.8,260.9,293.7C260.6,293.5,260.2,293.3,259.9,293.1C259.8,293.1,259.7,293,259.7,293C259.5,293.1,259.3,293.1,259.2,293C259.1,293,259,293,258.9,293L258.8,293C258.5,293.1,258.2,292.9,258,293.2C257.9,293.3,257.7,293.2,257.6,293.2C257.5,293.2,257.4,293.1,257.3,293.2C257.2,293.3,257,293.4,256.9,293.4C256.4,293.7,255.9,294,255.4,294.4C255.1,294.6,254.8,294.8,254.5,295C254,295.3,253.6,295.6,253.1,295.9C252.8,296.1,252.5,296.3,252.1,296.5C251.6,296.8,251.1,297.1,250.7,297.4C250.4,297.6,250.1,297.8,249.8,298C249.4,298.3,248.9,298.6,248.5,298.9C248.1,299.2,247.6,299.5,247.2,299.8C246.7,300.1,246.2,300.4,245.7,300.8C245.4,301,245.1,301.2,244.8,301.4C244.4,301.7,243.9,302,243.5,302.3C243.2,302.5,242.9,302.7,242.5,302.9C242,303.2,241.5,303.5,241,303.8C240.7,304,240.4,304.2,240.1,304.4C239.7,304.7,239.2,305,238.8,305.3C238.5,305.5,238.2,305.7,237.9,305.9C237.4,306.2,236.9,306.5,236.4,306.8C236.1,307,235.8,307.2,235.5,307.4C234.9,307.3,234.4,307.7,233.9,308Z" fill="rgb(243,251,254)" stroke="none" stroke-width="1"/><path id="eqbxUBSdujt133" d="M271.6,300.5C271.5,300.4,271.4,300.5,271.3,300.6C271.3,300.4,271.2,300.4,271.1,300.4C271,300.4,271,300.4,270.9,300.4C270.8,300.4,270.7,300.3,270.8,300.2L270.9,300.1C270.9,300,271,299.9,270.9,299.9C270.8,299.8,270.8,300,270.7,300C270.6,300,270.5,300.1,270.4,299.9C270.3,299.8,270.2,299.7,270,299.7C269.9,299.7,269.8,299.7,269.7,299.6C269.5,299.5,269.3,299.5,269.1,299.5C268.8,299.6,268.8,299.6,268.7,299.3C268.7,299.2,268.6,299.1,268.5,299.2C268.4,299.2,268.4,299.4,268.4,299.5C268.4,299.6,268.5,299.6,268.4,299.7C268.3,299.7,268.2,299.7,268.1,299.7C268,299.6,268,299.6,268.1,299.5C268.2,299.3,268,299.3,267.9,299.3C267.6,299.3,267.3,299.1,267,299.2L266.9,299.2C266.9,298.9,266.6,298.9,266.5,298.9C266.4,298.8,266.4,298.7,266.4,298.6L266.8,298.7C266.8,298.8,266.7,298.8,266.8,298.9C266.9,298.9,266.9,299,267,298.9C267.1,298.9,267,298.8,267,298.8C267.4,298.9,267.8,299,268.2,299.1C268.4,299.1,268.4,299.1,268.4,299C268.4,298.2,268.4,297.4,268.4,296.6C268.4,296.5,268.4,296.3,268.4,296.2L268.4,295.9C268.4,295.9,268.4,295.8,268.4,295.7C268.4,295.5,268.5,295.3,268.6,295.2C268.7,295.1,268.8,294.9,268.9,294.8L269,294.7C269.3,294.3,269.6,293.9,269.9,293.5L269.9,293.5C270.1,293.7,270.3,294,270.5,294.2C270.6,294.3,270.6,294.2,270.6,294.1C270.7,293.8,270.7,293.5,270.8,293.2C270.8,292.9,270.9,292.7,271,292.4C271.1,292.8,271.2,293.3,271.3,293.7C271.5,294.5,271.6,295.3,271.8,296.1C271.9,296.4,271.9,296.6,271.9,296.9C271.9,297,271.9,297.1,272.1,297.1C272.5,297,273,296.9,273.5,296.8L271.5,299.1C271.8,299.2,272.1,299.2,272.4,299.2C272.5,299.2,272.6,299.3,272.5,299.4C272.3,299.5,271.9,300,271.6,300.5ZM270.6,297.4C270.6,297.5,270.8,297.5,270.9,297.5C271,297.5,271,297.4,271,297.4C271,297.1,270.9,296.7,270.7,296.5C270.7,296.4,270.6,296.4,270.5,296.5C270.4,296.5,270.4,296.6,270.4,296.7C270.5,296.8,270.5,297.1,270.6,297.4L270.6,297.4ZM270.8,299.1C271.1,298.9,271.2,298.6,271,298.3C271,298.2,270.9,298.2,270.9,298.2C270.8,298.2,270.8,298.3,270.8,298.3C270.8,298.5,270.7,298.6,270.5,298.8C270.4,298.9,270.3,299,270.4,299.1C270.6,299.1,270.7,299.2,270.8,299.1L270.8,299.1ZM270.6,295.3C270.6,295.4,270.7,295.4,270.7,295.5C270.7,295.5,270.8,295.6,270.9,295.6C271,295.6,270.9,295.5,270.9,295.4C270.9,295.3,270.9,295.1,270.9,295C270.9,294.9,270.9,294.7,270.8,294.6C270.7,294.5,270.6,294.5,270.5,294.5C270.4,294.5,270.4,294.6,270.4,294.7L270.4,294.7C270.5,294.9,270.5,295.1,270.6,295.3L270.6,295.3ZM269.2,298.3C269.2,298.4,269.3,298.4,269.3,298.4C269.3,298.4,269.4,298.4,269.4,298.3C269.4,298.1,269.5,298,269.5,297.8C269.5,297.7,269.5,297.6,269.4,297.6C269.3,297.6,269.2,297.7,269.2,297.8L269.2,297.8C269.1,298,269.2,298.2,269.2,298.3Z" fill="rgb(246,252,254)" stroke="none" stroke-width="1"/><path id="eqbxUBSdujt134" d="M270.6,297.4C270.5,297.1,270.4,296.9,270.3,296.6C270.3,296.5,270.3,296.5,270.4,296.4C270.5,296.4,270.6,296.4,270.6,296.4C270.8,296.6,270.9,297,270.9,297.3C270.9,297.4,270.9,297.4,270.8,297.4C270.8,297.4,270.7,297.5,270.6,297.4Z" fill="rgb(228,236,240)" stroke="none" stroke-width="1"/><path id="eqbxUBSdujt135" d="M270.6,295.3C270.5,295.1,270.5,294.9,270.4,294.8C270.4,294.7,270.4,294.6,270.5,294.6L270.5,294.6C270.6,294.6,270.7,294.6,270.8,294.7C270.9,294.8,270.9,295,270.9,295.1C270.9,295.2,270.9,295.4,270.9,295.5C270.9,295.6,270.9,295.6,270.9,295.7C270.8,295.7,270.8,295.7,270.7,295.6C270.7,295.4,270.7,295.4,270.6,295.3Z" fill="rgb(228,236,240)" stroke="none" stroke-width="1"/><path id="eqbxUBSdujt136" d="M269.2,298.3C269.2,298.2,269.2,298,269.2,297.9C269.2,297.8,269.3,297.7,269.4,297.7L269.4,297.7C269.5,297.7,269.5,297.8,269.5,297.9C269.5,298.1,269.4,298.2,269.4,298.4C269.4,298.5,269.3,298.5,269.3,298.5C269.2,298.4,269.2,298.4,269.2,298.3Z" fill="rgb(228,236,240)" stroke="none" stroke-width="1"/><g id="eqbxUBSdujt137" opacity="0.3"><path id="eqbxUBSdujt138" d="M253,287.5C253.1,287.6,253.3,287.6,253.4,287.5C253.5,287.5,253.5,287.4,253.5,287.4C253.5,287.2,253.5,287.1,253.2,287.1L252.4,287C252.3,286.9,252.2,287,252.1,287C252,287,252,287,251.9,287.1C251.9,287.2,251.9,287.2,252,287.3C252.3,287.5,252.7,287.6,253,287.5L253,287.5Z" fill="rgb(14,65,96)" stroke="none" stroke-width="1"/><path id="eqbxUBSdujt139" d="M236.9,293.3C236.8,293.4,236.6,293.5,236.5,293.6C236.4,293.6,236.3,293.8,236.2,293.9C236.1,294,236.1,294,236.2,294.1C236.3,294.2,236.3,294.1,236.4,294.1C236.6,294,236.8,293.9,237.1,293.8C237.2,293.8,237.3,293.6,237.2,293.5L237.2,293.5C237.1,293.3,237,293.3,236.9,293.3Z" fill="rgb(14,65,96)" stroke="none" stroke-width="1"/><path id="eqbxUBSdujt140" d="M260.3,289.9C260.1,289.7,259.9,289.6,259.6,289.5C259.5,289.5,259.4,289.5,259.4,289.5C259.3,289.6,259.4,289.6,259.5,289.7C259.5,289.8,259.6,289.8,259.7,289.9C260,290.1,260.3,290.3,260.6,290.5C260.7,290.6,260.9,290.6,260.9,290.5C261,290.4,261,290.3,260.8,290.2L260.8,290.2C260.7,290,260.5,289.9,260.3,289.9L260.3,289.9Z" fill="rgb(14,65,96)" stroke="none" stroke-width="1"/><path id="eqbxUBSdujt141" d="M256,287.9C255.9,287.9,255.8,287.9,255.8,288C255.8,288.1,255.8,288.2,255.9,288.2C256.2,288.3,256.6,288.3,256.9,288.4C257,288.4,257.1,288.4,257.1,288.3C257.1,288.2,257.1,288.2,257.1,288.1C257,288,256.9,288,256.8,288C256.6,287.9,256.3,287.9,256,287.9Z" fill="rgb(14,65,96)" stroke="none" stroke-width="1"/><path id="eqbxUBSdujt142" d="M258.5,287.4C258.3,287.3,258.1,287.2,257.9,287.2C257.9,287.2,257.8,287.1,257.7,287.1C257.6,287.1,257.5,287,257.4,287.2C257.4,287.3,257.4,287.4,257.5,287.5C257.7,287.6,257.9,287.8,258.1,287.8C258.3,287.8,258.4,287.9,258.5,287.8C258.7,287.7,258.6,287.6,258.5,287.4L258.5,287.4Z" fill="rgb(14,65,96)" stroke="none" stroke-width="1"/><path id="eqbxUBSdujt143" d="M246.8,287.3C246.7,287.3,246.6,287.3,246.6,287.3C246.5,287.3,246.5,287.4,246.5,287.4C246.5,287.5,246.5,287.5,246.6,287.5C247,287.7,247.4,287.7,247.9,287.7C248,287.7,248.1,287.7,248.1,287.6C248.1,287.5,248.2,287.3,248,287.3C247.5,287.3,247.1,287.3,246.8,287.3Z" fill="rgb(14,65,96)" stroke="none" stroke-width="1"/><path id="eqbxUBSdujt144" d="M247.5,296.2C247.3,296.3,247.2,296.6,247,296.7C246.9,296.7,246.9,296.8,246.9,296.9L246.9,296.9C247,297,247,296.9,247.1,296.9C247.6,296.5,248.1,296.1,248.6,295.7C248.7,295.7,248.7,295.6,248.7,295.5C248.7,295.4,248.7,295.3,248.5,295.3C248.4,295.3,248.2,295.3,248.2,295.5C248,295.7,247.8,295.9,247.5,296.2Z" fill="rgb(14,65,96)" stroke="none" stroke-width="1"/><path id="eqbxUBSdujt145" d="M236.7,301.1C236.5,301.3,236.2,301.6,235.9,301.7C235.8,301.8,235.7,301.9,235.5,302C235.4,302,235.4,302.1,235.5,302.2L235.5,302.2C235.5,302.2,235.6,302.3,235.7,302.3C235.9,302.2,236.1,302.2,236.2,302.1C236.5,301.9,236.8,301.6,237.1,301.3C237.2,301.2,237.1,301.1,237.1,301C237.1,300.9,237,300.9,236.9,300.9C236.8,300.9,236.7,301,236.7,301.1Z" fill="rgb(14,65,96)" stroke="none" stroke-width="1"/><path id="eqbxUBSdujt146" d="M254.2,286.3C254.1,286.3,254,286.2,253.9,286.4C253.9,286.5,253.9,286.7,254,286.7C254.3,286.9,254.6,287,254.9,287.1C255,287.1,255.1,287.1,255.2,287C255.1,286.9,255.3,286.7,255,286.7C254.8,286.5,254.5,286.4,254.2,286.3Z" fill="rgb(14,65,96)" stroke="none" stroke-width="1"/><path id="eqbxUBSdujt147" d="M234,300.2C234,300.2,234.1,300.2,234.1,300.1C234.2,300,234.2,299.9,234.2,299.8L234.2,299.8C234.1,299.7,234,299.7,234,299.8C233.9,299.8,233.8,299.8,233.8,299.9C233.5,300.1,233.2,300.4,233,300.8C232.9,300.9,232.8,301,233,301.1C233.1,301.2,233.2,301.1,233.3,301C233.4,300.7,233.6,300.3,234,300.2Z" fill="rgb(14,65,96)" stroke="none" stroke-width="1"/><path id="eqbxUBSdujt148" d="M238.9,294.8C239,294.8,239,294.7,239.1,294.7C239.4,294.6,239.6,294.5,239.9,294.3C240,294.2,240,294.1,239.9,293.9C239.8,293.8,239.7,293.8,239.6,293.9C239.2,294.1,238.8,294.3,238.5,294.5L238.4,294.5C238.3,294.6,238.2,294.6,238.3,294.7C238.3,294.8,238.5,294.8,238.5,294.8L238.5,294.8C238.7,294.9,238.8,294.8,238.9,294.8Z" fill="rgb(14,65,96)" stroke="none" stroke-width="1"/><path id="eqbxUBSdujt149" d="M255.2,290.5C255.3,290.5,255.3,290.4,255.3,290.3C255.3,290.2,255.3,290.1,255.2,290.1C254.8,290,254.4,290,254,290C253.9,290,253.9,290.1,253.9,290.1C253.9,290.2,253.9,290.2,254,290.3C254.1,290.4,254.2,290.4,254.3,290.4C254.5,290.5,254.9,290.5,255.2,290.5Z" fill="rgb(14,65,96)" stroke="none" stroke-width="1"/><path id="eqbxUBSdujt150" d="M252.5,293.3L252.5,293.3C252.3,293.4,252.1,293.5,251.9,293.6C251.8,293.6,251.8,293.7,251.8,293.7C251.8,293.8,251.9,293.8,251.9,293.8L251.9,293.8C252,293.8,252.1,293.8,252.2,293.8C252.6,293.7,252.9,293.5,253.3,293.3C253.4,293.2,253.5,293.2,253.4,293C253.4,292.9,253.2,292.8,253.1,292.9L253.1,292.9C252.9,293.1,252.7,293.2,252.5,293.3Z" fill="rgb(14,65,96)" stroke="none" stroke-width="1"/><path id="eqbxUBSdujt151" d="M234.4,293.7L234.5,293.6C234.7,293.4,234.9,293.2,235.1,293.1C235.2,293,235.3,292.9,235.2,292.8L235.2,292.8C235.1,292.7,235,292.7,234.9,292.8C234.6,293,234.4,293.3,234.2,293.6C234.1,293.7,234.1,293.8,234.2,293.8L234.2,293.8C234.2,293.8,234.3,293.7,234.4,293.7Z" fill="rgb(14,65,96)" stroke="none" stroke-width="1"/><path id="eqbxUBSdujt152" d="M244.8,294.6C244.9,294.5,245.1,294.5,245.2,294.4C245.3,294.4,245.3,294.2,245.3,294.1L245.3,294.1C245.2,294,245.1,294,245,294.1C244.6,294.3,244.2,294.5,243.8,294.7C243.7,294.7,243.7,294.8,243.7,294.8C243.7,294.9,243.8,294.9,243.8,294.9C244.1,294.9,244.5,294.8,244.8,294.6Z" fill="rgb(14,65,96)" stroke="none" stroke-width="1"/><path id="eqbxUBSdujt153" d="M266.7,300.2C266.7,300.3,266.8,300.3,267,300.3C267.1,300.3,267.1,300.2,267.1,300.1C267.1,299.9,267.1,299.8,267,299.6C266.9,299.4,266.7,299.2,266.6,298.9C266.6,298.8,266.5,298.8,266.4,298.8C266.3,298.8,266.3,298.9,266.3,299C266.5,299.5,266.6,299.8,266.7,300.2Z" fill="rgb(14,65,96)" stroke="none" stroke-width="1"/><path id="eqbxUBSdujt154" d="M243.8,289.2C243.9,289.2,244,289.1,243.9,289C243.9,288.9,243.8,288.8,243.7,288.8C243.4,288.9,243.1,288.9,242.7,288.9C242.6,288.9,242.6,288.9,242.5,289C242.5,289.1,242.5,289.2,242.6,289.2C243,289.3,243.4,289.3,243.8,289.2Z" fill="rgb(14,65,96)" stroke="none" stroke-width="1"/><path id="eqbxUBSdujt155" d="M270.4,301.1C270.5,301,270.6,301,270.7,300.9L270.8,300.8C270.8,300.7,270.7,300.7,270.7,300.8C270.4,300.8,270,300.9,269.7,300.9C269.5,300.9,269.5,301.1,269.5,301.2C269.5,301.3,269.6,301.3,269.7,301.3C269.9,301.2,270.2,301.2,270.4,301.1Z" fill="rgb(14,65,96)" stroke="none" stroke-width="1"/><path id="eqbxUBSdujt156" d="M243.4,287.7C243.3,287.8,243.1,287.8,243.2,288C243.2,288.1,243.4,288.1,243.5,288.1C243.8,288.1,244.1,288,244.3,288C244.4,288,244.5,288,244.4,287.9C244.4,287.8,244.4,287.7,244.3,287.7C244,287.5,243.7,287.5,243.4,287.7Z" fill="rgb(14,65,96)" stroke="none" stroke-width="1"/><path id="eqbxUBSdujt157" d="M234.1,296.2C233.9,296.2,233.7,296.5,233.6,296.7C233.6,296.8,233.5,296.8,233.6,296.9C233.7,297,233.7,297,233.8,296.9L233.8,296.9C234,296.7,234.3,296.5,234.6,296.3C234.7,296.2,234.7,296.1,234.7,296C234.7,295.9,234.6,295.9,234.5,296C234.3,296.1,234.2,296.2,234.1,296.2Z" fill="rgb(14,65,96)" stroke="none" stroke-width="1"/><path id="eqbxUBSdujt158" d="M244.5,292.2C244.3,292.3,244.2,292.4,244,292.5C243.9,292.5,243.9,292.6,243.9,292.7C243.9,292.8,244,292.7,244.1,292.7C244.5,292.6,244.8,292.5,245.1,292.3C245.2,292.3,245.3,292.2,245.2,292.1C245.2,292,245.1,291.9,245,292L245,292C244.8,292,244.7,292.1,244.5,292.2Z" fill="rgb(14,65,96)" stroke="none" stroke-width="1"/><path id="eqbxUBSdujt159" d="M240.5,292.4C240.7,292.3,240.8,292.2,241,292.2C241.1,292.1,241.1,292,241.1,291.9L241.1,291.9C241,291.8,240.9,291.8,240.8,291.9C240.5,292,240.2,292.3,239.9,292.5C239.9,292.5,239.8,292.5,239.8,292.6C239.8,292.7,239.9,292.7,239.9,292.6C240.1,292.5,240.3,292.4,240.5,292.4Z" fill="rgb(14,65,96)" stroke="none" stroke-width="1"/><path id="eqbxUBSdujt160" d="M244.4,290.7C244.2,290.8,244,290.9,243.9,291C243.8,291,243.8,291.1,243.8,291.1C243.8,291.1,243.8,291.2,243.9,291.2C244.3,291.2,244.6,291.1,244.9,290.9C245,290.8,245,290.7,244.9,290.6C244.8,290.5,244.7,290.5,244.6,290.6C244.5,290.6,244.5,290.7,244.4,290.7Z" fill="rgb(14,65,96)" stroke="none" stroke-width="1"/><path id="eqbxUBSdujt161" d="M231.5,297.3C231.6,297.3,231.6,297.2,231.6,297.2C231.7,297,231.8,296.9,232,296.7C232.1,296.6,232.2,296.4,232,296.3C231.9,296.2,231.7,296.3,231.6,296.4C231.4,296.6,231.3,296.9,231.2,297.1C231.2,297.2,231.1,297.2,231.2,297.3C231.4,297.4,231.5,297.3,231.5,297.3Z" fill="rgb(14,65,96)" stroke="none" stroke-width="1"/><path id="eqbxUBSdujt162" d="M269.9,300.5C270,300.4,270.2,300.4,270.3,300.3C270.4,300.2,270.4,300.1,270.3,300.1C270.2,300,270.2,300,270.1,300.1C270,300.2,269.9,300.2,269.8,300.2C269.7,300.2,269.5,300.3,269.4,300.4C269.3,300.4,269.2,300.5,269.2,300.7C269.2,300.8,269.4,300.8,269.5,300.8C269.7,300.6,269.8,300.6,269.9,300.5Z" fill="rgb(14,65,96)" stroke="none" stroke-width="1"/><path id="eqbxUBSdujt163" d="M232.5,293.7C232.3,293.8,232.1,294,231.9,294.2C231.9,294.3,231.8,294.3,231.9,294.4C231.9,294.4,232,294.5,232.1,294.4C232.2,294.4,232.2,294.3,232.3,294.3C232.5,294.2,232.7,294,232.9,293.9C233,293.9,233.1,293.8,233,293.7C233,293.6,232.8,293.5,232.7,293.6C232.6,293.6,232.6,293.7,232.5,293.7Z" fill="rgb(14,65,96)" stroke="none" stroke-width="1"/><path id="eqbxUBSdujt164" d="M239.9,289.5C239.8,289.6,239.6,289.6,239.7,289.7C239.7,289.8,239.9,289.8,240,289.8C240.3,289.8,240.5,289.7,240.8,289.6C240.9,289.6,241,289.5,241,289.4L241,289.4C241,289.3,240.8,289.3,240.7,289.3C240.4,289.3,240.2,289.4,239.9,289.5Z" fill="rgb(14,65,96)" stroke="none" stroke-width="1"/><path id="eqbxUBSdujt165" d="M268.5,301.6L268.5,301.6C268.7,301.2,268.8,300.8,268.7,300.4C268.7,300.3,268.6,300.3,268.6,300.3C268.5,300.3,268.5,300.3,268.5,300.4C268.5,300.7,268.4,300.9,268.3,301.2C268.3,301.3,268.3,301.3,268.3,301.4C268.2,301.6,268.3,301.6,268.5,301.6L268.5,301.6Z" fill="rgb(14,65,96)" stroke="none" stroke-width="1"/><path id="eqbxUBSdujt166" d="M249.4,288.4C249.4,288.4,249.4,288.5,249.4,288.4C249.7,288.6,250,288.5,250.3,288.4C250.4,288.3,250.4,288.2,250.4,288.1C250.4,288,250.3,288,250.1,288C249.9,288.1,249.7,288.1,249.5,288.2C249.3,288.2,249.3,288.3,249.4,288.4Z" fill="rgb(14,65,96)" stroke="none" stroke-width="1"/><path id="eqbxUBSdujt167" d="M238.2,290.8C238,290.9,237.8,291.1,237.7,291.1C237.6,291.1,237.6,291.2,237.6,291.3C237.6,291.4,237.7,291.4,237.7,291.4C238,291.4,238.3,291.3,238.6,291.1C238.7,291,238.6,291,238.6,290.9C238.6,290.8,238.5,290.8,238.4,290.8L238.4,290.8C238.4,290.7,238.3,290.7,238.2,290.8Z" fill="rgb(14,65,96)" stroke="none" stroke-width="1"/><path id="eqbxUBSdujt168" d="M260.2,288.6C260.2,288.6,260.2,288.7,260.2,288.6C260.6,288.9,260.8,289.3,261.1,289.6C261.2,289.7,261.3,289.8,261.5,289.7L261.5,289.7C261.6,289.7,261.5,289.5,261.5,289.4C261.3,288.9,260.9,288.7,260.5,288.4C260.4,288.4,260.3,288.4,260.3,288.4C260.1,288.5,260.1,288.5,260.2,288.6Z" fill="rgb(14,65,96)" stroke="none" stroke-width="1"/><path id="eqbxUBSdujt169" d="M248.6,289.5C248.7,289.5,248.8,289.4,248.7,289.3C248.7,289.2,248.6,289.2,248.5,289.2L248.5,289.2C248.3,289.2,248.1,289.2,248,289.2C247.9,289.2,247.8,289.2,247.7,289.3C247.6,289.3,247.6,289.4,247.6,289.4C247.6,289.5,247.7,289.5,247.8,289.5C248,289.6,248.3,289.5,248.5,289.6C248.5,289.6,248.5,289.5,248.6,289.5Z" fill="rgb(14,65,96)" stroke="none" stroke-width="1"/><path id="eqbxUBSdujt170" d="M236.1,296C236.2,296,236.3,295.8,236.4,295.7C236.5,295.6,236.5,295.5,236.5,295.4C236.4,295.3,236.3,295.3,236.2,295.3L236.2,295.3C236,295.4,235.9,295.5,235.8,295.7C235.8,295.8,235.7,295.8,235.7,295.9C235.8,296,235.9,296,236.1,296C236,296,236,296,236.1,296Z" fill="rgb(14,65,96)" stroke="none" stroke-width="1"/><path id="eqbxUBSdujt171" d="M264.8,292.2C264.9,292.2,264.9,292.3,264.8,292.2C265,292.4,265.1,292.5,265.3,292.4C265.4,292.3,265.4,292.1,265.3,292C265.2,291.7,265,291.5,264.8,291.2C264.7,291.1,264.6,291.1,264.5,291.1C264.4,291.1,264.4,291.2,264.4,291.3C264.6,291.7,264.7,291.9,264.8,292.2Z" fill="rgb(14,65,96)" stroke="none" stroke-width="1"/><path id="eqbxUBSdujt172" d="M231.8,299.1C231.9,299.1,231.9,299,232,298.9C232.1,298.8,232.1,298.7,232.2,298.6C232.3,298.5,232.3,298.4,232.2,298.3C232.1,298.2,232,298.2,231.9,298.3C231.7,298.4,231.6,298.6,231.5,298.9C231.5,299,231.4,299,231.5,299.1C231.7,299.1,231.7,299.1,231.8,299.1Z" fill="rgb(14,65,96)" stroke="none" stroke-width="1"/><path id="eqbxUBSdujt173" d="M262.8,292.7C263,292.9,263.2,293.2,263.6,293.2C263.7,293.2,263.8,293.2,263.9,293.1C263.9,293,264,292.8,263.8,292.7C263.5,292.6,263.3,292.5,263,292.3C262.9,292.3,262.9,292.3,262.8,292.3C262.7,292.5,262.7,292.6,262.8,292.7Z" fill="rgb(14,65,96)" stroke="none" stroke-width="1"/><path id="eqbxUBSdujt174" d="M234.1,294.6C234,294.7,233.9,294.8,233.8,294.9C233.8,295,233.7,295,233.8,295.1C233.9,295.2,234,295.2,234.1,295.1L234.1,295.1C234.2,295,234.2,294.9,234.3,294.9C234.4,294.8,234.4,294.7,234.3,294.6C234.3,294.5,234.2,294.5,234.1,294.6Z" fill="rgb(14,65,96)" stroke="none" stroke-width="1"/><path id="eqbxUBSdujt175" d="M235.6,291.3C235.4,291.4,235.3,291.5,235.2,291.7C235.2,291.8,235.1,291.8,235.2,291.9C235.3,292,235.3,291.9,235.4,291.9C235.5,291.8,235.7,291.7,235.8,291.6C235.9,291.5,235.9,291.4,235.9,291.3C235.7,291.3,235.6,291.3,235.6,291.3Z" fill="rgb(14,65,96)" stroke="none" stroke-width="1"/><path id="eqbxUBSdujt176" d="M265.8,293.4C266,293.5,266.1,293.6,266.3,293.7C266.3,293.7,266.4,293.8,266.4,293.7C266.4,293.7,266.5,293.6,266.4,293.6C266.3,293.4,266.2,293.3,266,293.1C265.9,293,265.8,293.1,265.8,293.1C265.8,293.2,265.8,293.3,265.8,293.4Z" fill="rgb(14,65,96)" stroke="none" stroke-width="1"/><path id="eqbxUBSdujt177" d="M264.8,299.5C264.7,299.5,264.7,299.6,264.7,299.6C264.6,299.6,264.7,299.5,264.7,299.5C264.7,299.4,264.7,299.3,264.7,299.3C264.6,299.3,264.6,299.3,264.6,299.2C264.6,299,264.5,299.1,264.4,299.1L264.3,299.1C264.3,299.2,264.3,299.2,264.4,299.3L264.5,299.4C264.5,299.5,264.6,299.6,264.8,299.7C264.8,299.7,264.8,299.6,264.8,299.5Z" fill="rgb(14,65,96)" stroke="none" stroke-width="1"/><path id="eqbxUBSdujt178" d="M243.3,296.9C243.4,296.8,243.5,296.8,243.5,296.7C243.5,296.6,243.4,296.6,243.3,296.6C243.2,296.6,243.2,296.6,243.1,296.7C243,296.8,242.7,296.8,242.8,297C243,297.1,243.2,296.9,243.3,296.9Z" fill="rgb(14,65,96)" stroke="none" stroke-width="1"/><path id="eqbxUBSdujt179" d="M264.3,298.8C264.3,298.7,264.4,298.7,264.3,298.8C264.4,298.7,264.5,298.7,264.5,298.6C264.5,298.5,264.4,298.4,264.3,298.4C264.2,298.4,264.3,298.5,264.3,298.5C264.3,298.5,264.3,298.5,264.2,298.5C264.1,298.5,264.1,298.6,264.1,298.7L264.1,298.8C264.2,298.9,264.2,298.8,264.3,298.8L264.3,298.8Z" fill="rgb(14,65,96)" stroke="none" stroke-width="1"/><path id="eqbxUBSdujt180" d="M263.1,299.5C263,299.5,263,299.4,262.9,299.4C262.9,299.5,262.9,299.6,262.9,299.6C263,299.7,263,299.6,263,299.5C263.1,299.5,263.1,299.3,263.2,299.3C263.2,299.3,263.3,299.2,263.2,299.2L263.2,299.2C263.2,299.2,263.1,299.2,263.1,299.3C263.1,299.4,263.1,299.4,263.1,299.5Z" fill="rgb(14,65,96)" stroke="none" stroke-width="1"/><path id="eqbxUBSdujt181" d="M263.6,299C263.3,299,263.4,299.2,263.4,299.3C263.4,299.4,263.5,299.4,263.5,299.5C263.5,299.4,263.6,299.3,263.6,299.2C263.7,299.1,263.4,299.1,263.6,299Z" fill="rgb(14,65,96)" stroke="none" stroke-width="1"/><path id="eqbxUBSdujt182" d="M265.2,300.2C265.2,300.1,265,300.1,265,300C265,299.9,264.9,299.8,264.8,299.8C264.8,299.8,264.7,299.7,264.7,299.8C264.7,299.9,264.7,299.9,264.8,299.9C265,299.9,265,300,264.9,300.1C264.9,300.1,264.9,300.3,265,300.2C265.1,300.2,265.2,300.2,265.2,300.2Z" fill="rgb(14,65,96)" stroke="none" stroke-width="1"/><path id="eqbxUBSdujt183" d="M263.7,298.7C263.7,298.6,263.9,298.6,263.8,298.5C263.8,298.4,263.7,298.4,263.7,298.4L263.7,298.4C263.6,298.5,263.7,298.6,263.6,298.6C263.5,298.8,263.6,298.7,263.7,298.7Z" fill="rgb(14,65,96)" stroke="none" stroke-width="1"/><path id="eqbxUBSdujt184" d="M265.7,300.2C265.6,300.1,265.4,300,265.5,299.9L265.5,299.8C265.4,299.8,265.4,299.9,265.4,299.9C265.3,300.1,265.5,300.2,265.7,300.2Z" fill="rgb(14,65,96)" stroke="none" stroke-width="1"/><path id="eqbxUBSdujt185" d="M264.3,300.9C264.4,300.8,264.4,300.7,264.4,300.6C264.4,300.5,264.3,300.5,264.2,300.5C264.3,300.6,264.2,300.8,264.3,300.9Z" fill="rgb(14,65,96)" stroke="none" stroke-width="1"/><path id="eqbxUBSdujt186" d="M264.7,300.1C264.7,300,264.6,300,264.6,300C264.5,300,264.6,300.1,264.6,300.1C264.6,300.2,264.7,300.2,264.8,300.2C264.8,300.2,264.7,300.2,264.7,300.1Z" fill="rgb(14,65,96)" stroke="none" stroke-width="1"/><path id="eqbxUBSdujt187" d="M266,298.5C266,298.6,266.1,298.6,266.1,298.6C266.1,298.6,266.2,298.5,266.1,298.5L266.1,298.5L266,298.4C266,298.4,266,298.4,266,298.5Z" fill="rgb(14,65,96)" stroke="none" stroke-width="1"/><path id="eqbxUBSdujt188" d="M263.6,298.4C263.6,298.4,263.7,298.3,263.6,298.3C263.6,298.3,263.5,298.2,263.4,298.3C263.4,298.3,263.3,298.3,263.3,298.4C263.5,298.4,263.6,298.4,263.6,298.4Z" fill="rgb(14,65,96)" stroke="none" stroke-width="1"/><path id="eqbxUBSdujt189" d="M265.4,298.4C265.4,298.4,265.5,298.5,265.5,298.4L265.5,298.3C265.5,298.2,265.4,298.2,265.4,298.2C265.4,298.3,265.4,298.3,265.4,298.4C265.4,298.3,265.4,298.4,265.4,298.4Z" fill="rgb(14,65,96)" stroke="none" stroke-width="1"/></g></g></g><clipPath id="eqbxUBSdujt190"><use id="eqbxUBSdujt191" width="55.033966" height="50.733978" xlink:href="#eqbxUBSdujt2" fill="rgb(0,0,0)" stroke="none" stroke-width="1"/></clipPath></g></g></g></g></g><line id="eqbxUBSdujt192" x1="268.4" y1="315.6" x2="282.9" y2="343.4" fill="none" stroke="rgb(0,0,0)" stroke-width="0.5073" stroke-miterlimit="10"/><line id="eqbxUBSdujt193" x1="265.7" y1="317" x2="280.1" y2="344.8" fill="none" stroke="rgb(0,0,0)" stroke-width="0.5073" stroke-miterlimit="10"/><line id="eqbxUBSdujt194" x1="263" y1="318.4" x2="277.4" y2="346.2" fill="none" stroke="rgb(0,0,0)" stroke-width="0.5073" stroke-miterlimit="10"/><line id="eqbxUBSdujt195" x1="260.3" y1="319.8" x2="274.7" y2="347.6" fill="none" stroke="rgb(0,0,0)" stroke-width="0.5073" stroke-miterlimit="10"/><line id="eqbxUBSdujt196" x1="257.6" y1="321.2" x2="272" y2="349" fill="none" stroke="rgb(0,0,0)" stroke-width="0.5073" stroke-miterlimit="10"/><g id="eqbxUBSdujt197"><path id="eqbxUBSdujt198" d="M247.5,327.1C248,327.1,248.6,327,249.3,327C249.9,326.3,250.5,325.6,250.8,325.2C250.8,325.1,250.7,325.1,250.7,325C250.9,324.8,251.1,324.6,251.3,324.5C251.5,324.5,251.7,324.6,251.5,324.8C251.3,325.1,250.5,326.2,250,326.9C251.5,326.8,253,326.7,253.1,327C253.2,327.1,253.2,327.4,253.1,327.5C252.1,327.2,247.2,327.9,246.5,327.9C246.4,327.8,246.4,327.3,246.5,327.2C246.8,327.1,247,327,247.3,326.9C247.5,326.9,247.4,327.1,247.5,327.1Z" fill="rgb(255,255,255)" stroke="none" stroke-width="1"/><path id="eqbxUBSdujt199" d="M252.2,328C252.3,328.2,252.3,328.6,251.7,328.9C250.9,329.3,250,329.5,249.8,329C249.7,328.8,249.8,328.6,249.9,328.5C249.6,328.6,249.3,328.7,249,328.8C248.7,329,248.5,329.2,248.7,329.5C249,330,249.9,330,250.4,329.7C250.4,329.7,250.5,329.7,250.5,329.8C250.6,329.9,250.5,330,250.3,330.1C249.8,330.4,248.6,330.5,248.3,329.8C248,329.3,248.3,328.6,249,328.2C250,327.8,251.9,327.5,252.2,328ZM250,328.7C250.1,328.9,250.9,328.7,251.5,328.4C251.8,328.3,251.8,328.2,251.8,328.2C251.8,328.2,251.7,328.2,251.6,328.2C251.1,328.2,250.6,328.3,250.1,328.5C250.1,328.5,250,328.6,250,328.7L250,328.7Z" fill="rgb(255,255,255)" stroke="none" stroke-width="1"/><path id="eqbxUBSdujt200" d="M252,328.9C252.2,329.1,252.4,329.3,252.5,329.5C252.8,329.4,253.1,329.4,253.5,329.4C253.6,329.5,253.6,329.9,253.5,329.9L253,330C253.1,330.1,253.1,330.2,253.2,330.3C253.3,330.4,253.4,330.5,253.3,330.6C253.2,330.7,253.3,330.7,253.3,330.8C253.3,330.9,253.2,331,253.2,331L253.1,331L253.1,331C252.9,330.7,252.7,330.4,252.5,330.1C251.6,330.3,250.8,330.5,250,330.9C249.8,331,249.8,331.1,249.8,331.2C250.1,331.6,250.6,331.8,251.1,331.7C251.1,331.7,251.3,331.9,250.9,332.1C250.4,332.3,249.8,332,249.5,331.6C249.3,331.2,249.5,330.6,250.2,330.2C250.8,329.9,251.5,329.7,252.2,329.5L252,329.2C251.7,329.2,251.9,328.8,252,328.9Z" fill="rgb(255,255,255)" stroke="none" stroke-width="1"/><path id="eqbxUBSdujt201" d="M253.3,331.2C253.4,331.2,253.4,331.2,253.4,331.3C253.4,331.3,253.6,331.8,253.4,331.9C252.5,332.1,251.6,332.3,250.7,332.7C250.5,332.8,250.4,333,250.5,333.1C250.7,333.5,251.4,333.2,251.7,333.1C251.8,333.2,251.8,333.3,251.7,333.4C251.7,333.4,251.7,333.4,251.6,333.5C251.1,333.8,250.3,333.7,250,333.2C249.8,332.8,250,332.5,250.5,332.3C251.5,331.7,252.4,331.4,253.3,331.2ZM254.3,330.8C254.5,330.7,255,330.5,255.2,330.8C255.3,331,255.3,331.1,255.1,331.1C255.1,331.2,255,331.4,254.9,331.4C254.6,331.6,254.2,331.5,254.1,331.2L254.1,331.2C254,331.2,254.1,331,254.3,330.8L254.3,330.8Z" fill="rgb(255,255,255)" stroke="none" stroke-width="1"/></g><g id="eqbxUBSdujt202"><path id="eqbxUBSdujt203" d="M283.3,312.4C282.1,313.1,280.7,312.6,280,311.5L279.9,311.4L279,309.7L283.4,307.4L284.3,309.1C285,310.3,284.6,311.7,283.4,312.4C283.4,312.4,283.4,312.4,283.3,312.4ZM282.8,311.5C283.5,311.2,283.8,310.4,283.5,309.7C283.5,309.7,283.5,309.6,283.4,309.6L283,308.9L280.4,310.3L280.8,311C281.1,311.7,282,312,282.7,311.7C282.8,311.5,282.8,311.5,282.8,311.5L282.8,311.5Z" fill="rgb(255,255,255)" stroke="none" stroke-width="1"/><path id="eqbxUBSdujt204" d="M286,314.5L285.1,315L284.9,314.6C284.6,314.1,284.3,314,283.7,314.3L281.9,315.2L281.4,314.3L284.8,312.5L285.1,313.1L284.8,313.5C285.2,313.6,285.6,313.9,285.7,314.3L286,314.5Z" fill="rgb(255,255,255)" stroke="none" stroke-width="1"/><path id="eqbxUBSdujt205" d="M286.2,315.1L286.7,316L283.3,317.8L282.8,316.9L286.2,315.1ZM287.5,314.4L288,315.3L287.1,315.7L286.6,314.8L287.5,314.4Z" fill="rgb(255,255,255)" stroke="none" stroke-width="1"/><path id="eqbxUBSdujt206" d="M288.8,320L284.7,320.4L284.3,319.6L287,316.4L287.5,317.4L285.7,319.4L288.4,319L288.8,320Z" fill="rgb(255,255,255)" stroke="none" stroke-width="1"/><path id="eqbxUBSdujt207" d="M288.7,324.7L287.4,322.1C287,322.4,286.9,322.9,287.1,323.3C287.2,323.6,287.5,323.8,287.9,323.8L288.4,324.8C287.3,325,286.2,324.3,285.9,323.2C285.6,322.1,286.4,321,287.5,320.7C288.6,320.4,289.7,321.2,290,322.3C290.2,323.2,289.8,324.1,289,324.5C288.9,324.6,288.8,324.7,288.7,324.7ZM288,321.8L288.9,323.4C289.2,323.1,289.3,322.6,289.1,322.2C288.9,321.9,288.5,321.7,288,321.8L288,321.8Z" fill="rgb(255,255,255)" stroke="none" stroke-width="1"/><path id="eqbxUBSdujt208" d="M292.1,326.4L291.2,326.9L291,326.5C290.7,326,290.4,325.9,289.8,326.2L288,327.1L287.5,326.2L290.9,324.4L291.2,325L290.9,325.4C291.3,325.5,291.7,325.8,291.8,326.2L292.1,326.4Z" fill="rgb(255,255,255)" stroke="none" stroke-width="1"/><path id="eqbxUBSdujt209" d="M275.1,315.2L274.2,315.7L272.8,313.1L277.2,310.8L277.7,311.8L274.2,313.6L275.1,315.2Z" fill="rgb(255,255,255)" stroke="none" stroke-width="1"/><path id="eqbxUBSdujt210" d="M277.9,314.4L278.4,315.3L275,317.1L274.5,316.2L277.9,314.4ZM279.2,313.7L279.7,314.6L278.8,315L278.3,314.1L279.2,313.7Z" fill="rgb(255,255,255)" stroke="none" stroke-width="1"/><path id="eqbxUBSdujt211" d="M277,316.9C278,316.4,279.2,316.7,279.7,317.7L279.7,317.8C280.2,318.6,280,319.7,279.2,320.3L278.7,319.4C279,319,279,318.3,278.6,318C278.3,317.7,277.8,317.7,277.5,317.9C277,318.1,276.8,318.7,277,319.2L277,319.2C277.2,319.6,277.6,319.8,278,319.7L278.5,320.6C277.6,320.9,276.6,320.5,276.2,319.6C275.6,318.7,276,317.4,277,316.9L277,316.9Z" fill="rgb(255,255,255)" stroke="none" stroke-width="1"/><path id="eqbxUBSdujt212" d="M280.6,324.5L279.3,321.9C278.9,322.2,278.8,322.7,279,323.1C279.1,323.4,279.4,323.6,279.8,323.6L280.3,324.6C279.2,324.8,278.1,324.1,277.8,323C277.6,321.9,278.3,320.8,279.5,320.5C280.6,320.3,281.7,321,282,322.1C282.2,323,281.8,323.9,281,324.3C280.8,324.4,280.7,324.4,280.6,324.5ZM279.9,321.6L280.8,323.2C281.1,322.9,281.2,322.4,281,322C280.8,321.7,280.3,321.5,279.9,321.6L279.9,321.6Z" fill="rgb(255,255,255)" stroke="none" stroke-width="1"/><path id="eqbxUBSdujt213" d="M283.2,328L281.1,329.1L280.6,328.2L282.5,327.2C283,326.9,283.2,326.6,283,326.2C282.8,325.8,282.3,325.6,281.8,325.8C281.8,325.8,281.7,325.8,281.7,325.9L279.9,326.8L279.4,325.9L282.8,324.1L283.1,324.7L282.8,325.1C283.3,325.2,283.7,325.5,283.9,326C284.3,326.7,284,327.5,283.2,328C283.4,328,283.3,328,283.2,328Z" fill="rgb(255,255,255)" stroke="none" stroke-width="1"/><path id="eqbxUBSdujt214" d="M282.6,329.1L283.1,330C282.8,330.2,282.8,330.5,282.9,330.8C283,331.1,283.3,331.2,283.5,331.1C283.7,331,283.6,330.6,283.5,330.3C283.3,329.7,283.1,328.9,283.9,328.5C284.5,328.2,285.3,328.5,285.7,329.3C286.1,329.9,286,330.7,285.4,331.2L285.3,331.3L284.8,330.4C285.1,330.3,285.1,330,284.9,329.7C284.8,329.4,284.5,329.3,284.3,329.4C284.1,329.5,284.2,329.8,284.3,330.2C284.5,330.8,284.7,331.6,283.9,332C283.2,332.4,282.5,332,282,331.2C281.5,330.6,281.7,329.7,282.4,329.2C282.5,329.2,282.6,329.1,282.6,329.1Z" fill="rgb(255,255,255)" stroke="none" stroke-width="1"/><path id="eqbxUBSdujt215" d="M286.5,335.8L285.2,333.2C284.8,333.5,284.7,334,284.9,334.4C285,334.7,285.3,334.9,285.7,334.9L286.2,335.9C285.1,336.1,284,335.4,283.7,334.3C283.5,333.2,284.2,332.1,285.3,331.8C286.4,331.6,287.5,332.3,287.8,333.4C288,334.3,287.6,335.2,286.8,335.6C286.7,335.7,286.6,335.7,286.5,335.8ZM285.8,332.9L286.7,334.5C287,334.2,287.1,333.7,286.9,333.3C286.7,333,286.2,332.8,285.8,332.9L285.8,332.9Z" fill="rgb(255,255,255)" stroke="none" stroke-width="1"/></g></g><path id="eqbxUBSdujt216" d="M277,399.6L270.5,342C269.3,337.3,264,334.1,258.7,335C253.4,335.8,251.3,337.8,251.3,345L251.4,360.2L252.2,369.8C252,373.4,252.4,377.1,253.6,380.6C255.5,386.3,253.7,376.6,251.7,382.2L251.1,384C247.1,398,250.3,413.4,254.5,419.8C256.6,423,257.6,425.8,261,427.9C266.2,431.2,268.8,447.1,271.8,457.1C276,471.2,278.9,496.3,278.9,496.3L295.5,626.6L366.5,626.6L294.6,401.1" fill="rgb(179,179,179)" stroke="none" stroke-width="1"/></g></g></svg>