<svg id="eG1CIJ56lzj1" xmlns="http://www.w3.org/2000/svg" xmlns:xlink="http://www.w3.org/1999/xlink" viewBox="0 0 385 626.6" shape-rendering="geometricPrecision" text-rendering="geometricPrecision"><style><![CDATA[#eG1CIJ56lzj70_to {animation: eG1CIJ56lzj70_to__to 2200ms linear infinite normal forwards}@keyframes eG1CIJ56lzj70_to__to { 0% {transform: translate(345.744788px,819.699985px);animation-timing-function: cubic-bezier(0,0,0.58,1)} 25% {transform: translate(293.405243px,435.599991px);animation-timing-function: cubic-bezier(0,0,0.58,1)} 27.272727% {transform: translate(293.405243px,447.599991px);animation-timing-function: cubic-bezier(0,0,0.58,1)} 57.272727% {transform: translate(293.405243px,447.599991px);animation-timing-function: cubic-bezier(0.42,0,1,1)} 77.272727% {transform: translate(191.100016px,819.699985px)} 100% {transform: translate(191.100016px,819.699985px)}}]]></style><g id="eG1CIJ56lzj2"><g id="eG1CIJ56lzj3"><g id="eG1CIJ56lzj4"><g id="eG1CIJ56lzj5"><path id="eG1CIJ56lzj6" d="M58.8,2.6L37.5,2.6L35.1,2.6L32.8,2.6L30.5,2.7L28.3,2.8L26.3,2.9L24.5,3L22.8,3.1L21.3,3.3L20.1,3.5L19.1,3.7L18.4,3.9L17.9,4.1L17.8,4.2L17.8,427.8L17.1,427.8L17.1,612.1L17.1,628.6L12.7,628.6L12.7,4.3C12.6,3.1,23.1,2.1,35.9,2.1L57,2.1C57.7,2.1,58.2,2.3,58.8,2.6Z" fill="rgb(230,231,232)" stroke="none" stroke-width="1"/><path id="eG1CIJ56lzj7" d="M372,4.3L372,628.7L367.6,628.7L367.6,628L367.6,427.9L366.8,427.9L366.8,4.3L366.6,4.1L366.4,4L366.4,4L366.3,4L366.1,3.9L365.4,3.7L364.4,3.5L363.2,3.3L361.8,3.2L360.1,3L358.3,2.9L356.3,2.8L354.1,2.7L351.8,2.7L349.5,2.7L347.1,2.7L325.8,2.7C326.3,2.4,326.9,2.2,327.5,2.2L348.6,2.2C361.5,2.1,372,3.1,372,4.3Z" fill="rgb(230,231,232)" stroke="none" stroke-width="1"/><polygon id="eG1CIJ56lzj8" points="366.7,4.1 366.6,4 366.6,4 366.5,4 366.3,3.9 365.5,3.8 364.5,3.6 363.3,3.4 361.9,3.2 360.2,3 358.4,2.9 356.4,2.8 354.2,2.7 351.9,2.7 349.6,2.7 347.2,2.7 37.5,2.7 35.1,2.7 32.8,2.7 30.5,2.7 28.3,2.8 26.3,2.9 24.5,3 22.8,3.2 21.3,3.4 20.2,3.6 19.1,3.8 18.4,3.9 18,4.1 17.8,4.3 17.8,426.1 366.8,426.1 366.8,4.3" fill="rgb(42,53,63)" stroke="rgb(0,0,0)" stroke-width="0.1399" stroke-linecap="round" stroke-linejoin="round"/><circle id="eG1CIJ56lzj9" r="4.4" transform="matrix(1 0 0 1 192.3 46)" fill="rgb(42,53,63)" stroke="rgb(0,0,0)" stroke-width="0.1399" stroke-linecap="round" stroke-linejoin="round"/><path id="eG1CIJ56lzj10" d="M190.5,394.1C190.3,398,187,400.9,183.3,400.7L63.3,400.7C59.4,400.9,56.2,397.9,56.1,394.1L56.1,308.6C56.3,304.7,59.6,301.8,63.3,302L183.3,302C187.2,301.8,190.4,304.8,190.5,308.6L190.5,394.1L190.5,394.1Z" fill="rgb(42,53,63)" stroke="rgb(0,0,0)" stroke-width="0.1399" stroke-linecap="round" stroke-linejoin="round"/><path id="eG1CIJ56lzj11" d="M308.3,389.2C308.1,393.1,304.8,396,301.1,395.8L243,395.8C239.1,396,235.9,393,235.8,389.2L235.8,313.4C236,309.5,239.3,306.6,243,306.8L301.1,306.8C305,306.6,308.2,309.6,308.3,313.4L308.3,389.2Z" fill="rgb(42,53,63)" stroke="rgb(0,0,0)" stroke-width="0.1399" stroke-linecap="round" stroke-linejoin="round"/><path id="eG1CIJ56lzj12" d="M335,239.7C335,242.5,332.7,244.9,329.8,244.9L54.9,244.9C52.1,244.9,49.7,242.6,49.7,239.7L49.7,74.4C49.7,71.6,52,69.2,54.9,69.2L329.9,69.2C332.7,69.2,335.1,71.5,335.1,74.4L335,239.7L335,239.7Z" fill="rgb(42,53,63)" stroke="rgb(0,0,0)" stroke-width="0.1399" stroke-linecap="round" stroke-linejoin="round"/><path id="eG1CIJ56lzj13" d="M329.8,69.2L54.9,69.2C52.1,69.2,49.7,71.5,49.7,74.4L49.7,239.7C49.7,242.5,52,244.9,54.9,244.9L329.9,244.9C332.7,244.9,335.1,242.6,335.1,239.7L335.1,74.4C335,71.5,332.7,69.2,329.8,69.2Z" fill="rgb(0,0,0)" stroke="rgb(0,0,0)" stroke-width="0.1399" stroke-linecap="round" stroke-linejoin="round"/><rect id="eG1CIJ56lzj14" width="251" height="141.5" rx="0" ry="0" transform="matrix(1 0 0 1 66.8 86.3)" fill="rgb(0,0,0)" stroke="rgb(0,0,0)" stroke-width="0.1399" stroke-linecap="round" stroke-linejoin="round"/><rect id="eG1CIJ56lzj15" width="350.5" height="189.4" rx="0" ry="0" transform="matrix(1 0 0 1 17.1 439.3)" fill="rgb(42,53,63)" stroke="none" stroke-width="1"/><path id="eG1CIJ56lzj16" d="M332.4,482.7C332.2,487,328.6,490.3,324.4,490.2L57.8,490.2C53.5,490.3,49.9,487,49.8,482.7L49.8,455.7C50,451.4,53.6,448.1,57.8,448.2L324.3,448.2C328.6,448.1,332.2,451.4,332.3,455.7L332.3,482.7L332.4,482.7Z" fill="rgb(42,53,63)" stroke="none" stroke-width="1"/><path id="eG1CIJ56lzj17" d="M324.4,448.2L57.8,448.2C53.5,448.1,49.9,451.4,49.8,455.7L49.8,482.7C49.9,487,53.6,490.3,57.8,490.2L324.3,490.2C328.6,490.3,332.2,487,332.3,482.7L332.3,455.7C332.2,451.4,328.6,448.1,324.4,448.2Z" fill="rgb(37,47,56)" stroke="rgb(0,0,0)" stroke-width="0.1399" stroke-miterlimit="10"/><path id="eG1CIJ56lzj18" d="M62.1,479.9C62,481,61.2,481.9,60,482C58.8,482.1,57.8,481.1,57.7,479.9L57.7,459.4C57.8,458.3,58.6,457.4,59.8,457.3C61,457.2,62,458.2,62.1,459.4C62.1,459.4,62.1,479.9,62.1,479.9Z" fill="rgb(37,47,56)" stroke="rgb(0,0,0)" stroke-width="0.1399" stroke-miterlimit="10"/><path id="eG1CIJ56lzj19" d="M166.1,479.9C166,481.8,164.4,483.4,162.4,483.3L162.4,483.5L162.3,483.7L162.1,483.9L161.8,484L161.4,484.1L160.9,484.2L160.4,484.3L159.8,484.3L159.2,484.3L136.7,484.3C134.5,484.4,132.3,484,130.2,483.3L129.4,482.9L128.4,482.6L127.2,482.3L125.8,482.1L124.3,482L122.7,481.9L121.3,481.9L119.7,482L118.2,482.1L116.8,482.3L115.6,482.6L114.6,482.9L113.8,483.3C111.7,484.1,109.5,484.5,107.3,484.3L85.3,484.3L84.8,484.3L84.2,484.3L83.8,484.1L83.3,484L82.9,483.9L82.6,483.8L82.4,483.6L82.3,483.4L82.3,483.2C80.4,483.3,78.7,481.7,78.6,479.8L78.6,459.3C78.7,457.4,80.3,455.8,82.3,455.9L162.3,455.9C164.2,455.8,165.9,457.4,166,459.3L166.1,479.9L166.1,479.9Z" fill="rgb(37,47,56)" stroke="rgb(0,0,0)" stroke-width="0.1399" stroke-miterlimit="10"/><path id="eG1CIJ56lzj20" d="M303.3,479.9C303.2,481.8,301.6,483.4,299.6,483.3L245.8,483.3C243.9,483.4,242.2,481.8,242.1,479.9L242.1,459.4C242.2,457.5,243.8,455.9,245.8,456L299.6,456C301.5,455.9,303.2,457.5,303.3,459.4L303.3,479.9Z" fill="rgb(37,47,56)" stroke="rgb(0,0,0)" stroke-width="0.1399" stroke-miterlimit="10"/><path id="eG1CIJ56lzj21" d="M324.4,479.9C324.3,481,323.5,481.9,322.3,482C321.1,482.1,320.1,481.1,320,479.9L320,459.4C320.1,458.3,320.9,457.4,322.1,457.3C323.3,457.2,324.3,458.2,324.4,459.4L324.4,479.9Z" fill="rgb(37,47,56)" stroke="rgb(0,0,0)" stroke-width="0.1399" stroke-miterlimit="10"/><path id="eG1CIJ56lzj22" d="M303.3,475.9L303.3,479.8C303.2,481.7,301.6,483.3,299.6,483.2L245.8,483.2C243.9,483.3,242.2,481.7,242.1,479.8L242.1,475.9L303.3,475.9Z" fill="rgb(153,153,153)" stroke="none" stroke-width="1"/><path id="eG1CIJ56lzj23" d="M303.3,459.4L303.3,465.5L242.2,465.5L242.2,459.4C242.3,457.5,243.9,455.9,245.9,456L299.6,456C301.5,455.9,303.2,457.4,303.3,459.4Z" fill="rgb(153,153,153)" stroke="none" stroke-width="1"/><rect id="eG1CIJ56lzj24" width="61.1" height="10.5" rx="0" ry="0" transform="matrix(1 0 0 1 242.1 465.4)" fill="rgb(128,128,128)" stroke="none" stroke-width="1"/><rect id="eG1CIJ56lzj25" width="61.1" height="5.2" rx="0" ry="0" transform="matrix(1 0 0 1 242.1 465.4)" fill="rgb(0,0,0)" stroke="none" stroke-width="1"/><path id="eG1CIJ56lzj26" d="M324.4,459.4L324.4,479.9C324.3,481,323.5,481.9,322.3,482C321.1,482.1,320.1,481.1,320,479.9L320,459.4C320.1,458.3,320.9,457.4,322.1,457.3C323.3,457.2,324.3,458.2,324.4,459.4Z" fill="rgb(204,204,204)" stroke="none" stroke-width="1"/><path id="eG1CIJ56lzj27" d="M62.1,459.4L62.1,479.9C62,481,61.2,481.9,60,482C58.8,482.1,57.8,481.1,57.7,479.9L57.7,459.4C57.8,458.3,58.6,457.4,59.8,457.3C61.1,457.2,62.1,458.2,62.1,459.4Z" fill="rgb(204,204,204)" stroke="none" stroke-width="1"/><rect id="eG1CIJ56lzj28" width="80" height="5.9" rx="0" ry="0" transform="matrix(1 0 0 1 82.5 456)" fill="rgb(51,51,51)" stroke="none" stroke-width="1"/><path id="eG1CIJ56lzj29" d="M162.5,468.6L162.5,480.7L162.4,480.9L162.2,481.1L161.9,481.2L161.5,481.3L161,481.4L160.5,481.5L159.9,481.5L159.3,481.5L136.8,481.5C134.6,481.6,132.4,481.2,130.3,480.5L129.8,480.1L128.8,479.8L127.6,479.5L126.3,479.2L124.8,479.1L123.2,479L121.6,479L120,479.1L118.5,479.2L117.1,479.4L115.9,479.7L114.9,480L114.1,480.4C112,481.2,109.8,481.6,107.6,481.4L85.3,481.4L84.8,481.4L84.2,481.4L83.7,481.3L83.2,481.2L82.8,481.1L82.5,481L82.3,480.8L82.2,480.6L82.2,468.5L162.5,468.6L162.5,468.6Z" fill="rgb(153,153,153)" stroke="none" stroke-width="1"/><path id="eG1CIJ56lzj30" d="M162.5,480.7L162.5,483.5L162.4,483.7L162.2,483.9L161.9,484L161.5,484.1L161,484.2L160.5,484.3L159.9,484.3L159.3,484.3L136.8,484.3C134.6,484.4,132.4,484,130.3,483.3L129.5,482.9L128.5,482.6L127.3,482.3L125.9,482.1L124.8,482.1L123.2,482L121.7,482L120.1,482.1L118.6,482.2L117.2,482.4L116,482.7L115,483L114.2,483.4C112.1,484.2,109.9,484.6,107.7,484.4L85.3,484.4L84.8,484.4L84.2,484.4L83.7,484.3L83.2,484.2L82.8,484.1L82.5,484L82.3,483.8L82.2,483.6L82.2,480.8L82.3,481L82.5,481.2L82.8,481.3L83.2,481.4L83.7,481.5L84.2,481.6L84.8,481.6L85.4,481.6L107.8,481.6C110,481.7,112.2,481.3,114.3,480.6L115.1,480.2L116.1,479.9L117.3,479.6L118.7,479.4L120.2,479.3L121.8,479.2L123.4,479.2L125,479.3L126.5,479.4L127.9,479.6L129.1,479.9L130.1,480.2L130.9,480.6C133,481.4,135.2,481.8,137.4,481.6L159.9,481.6L160.5,481.6L161.1,481.6L161.6,481.5L162.1,481.4L162.5,481.3L162.8,481.2L163,481L162.5,480.7Z" fill="rgb(128,128,128)" stroke="none" stroke-width="1"/><path id="eG1CIJ56lzj31" d="M166.1,459.4L166.1,479.9C166,481.8,164.4,483.4,162.4,483.3L162.4,456C164.5,455.9,166.1,457.4,166.1,459.4Z" fill="rgb(102,102,102)" stroke="none" stroke-width="1"/><path id="eG1CIJ56lzj32" d="M82.5,456L82.5,483.3C80.6,483.4,78.9,481.8,78.8,479.9L78.8,459.4C78.9,457.4,80.6,455.9,82.5,456Z" fill="rgb(102,102,102)" stroke="none" stroke-width="1"/><circle id="eG1CIJ56lzj33" r="4.4" transform="matrix(1 0 0 1 192.3 46)" fill="rgb(0,0,0)" stroke="rgb(0,0,0)" stroke-width="0.1399" stroke-linecap="round" stroke-linejoin="round"/><path id="eG1CIJ56lzj34" d="M301.1,306.9L242.9,306.9C239,306.7,235.8,309.7,235.7,313.5L235.7,389.3C235.9,393.2,239.2,396.1,242.9,395.9L301.1,395.9C305,396.1,308.2,393.1,308.3,389.3L308.3,313.5C308.1,309.6,304.8,306.7,301.1,306.9Z" fill="rgb(230,231,232)" stroke="rgb(0,0,0)" stroke-width="0.1399" stroke-linecap="round" stroke-linejoin="round"/><path id="eG1CIJ56lzj35" d="M271.9,353.5C270.7,353.5,269.7,352.5,269.7,351.3C269.7,350.1,270.7,349.1,271.9,349.1C273.1,349.1,274.1,350.1,274.1,351.3C274.2,352.5,273.2,353.5,271.9,353.5Z" fill="rgb(230,231,232)" stroke="rgb(0,0,0)" stroke-width="0.1399" stroke-linecap="round" stroke-linejoin="round"/><path id="eG1CIJ56lzj36" d="M183.3,302L63.3,302C59.4,301.8,56.2,304.8,56.1,308.6L56.1,394.1C56.3,398,59.6,400.9,63.3,400.7L183.3,400.7C187.2,400.9,190.4,397.9,190.5,394.1L190.5,308.6C190.3,304.8,187.1,301.8,183.3,302Z" fill="rgb(42,53,63)" stroke="rgb(0,0,0)" stroke-width="0.6995" stroke-linecap="round" stroke-linejoin="round"/><path id="eG1CIJ56lzj37" d="M155.3,363.7C155.3,364.3,154.7,364.9,154.1,364.9L92.5,364.9C91.9,364.9,91.3,364.3,91.3,363.7L91.3,362C91.3,361.4,91.9,360.8,92.5,360.8L154.1,360.8C154.7,360.8,155.3,361.4,155.3,362L155.3,363.7L155.3,363.7Z" fill="rgb(42,53,63)" stroke="rgb(0,0,0)" stroke-width="0.6995" stroke-linecap="round" stroke-linejoin="round"/><rect id="eG1CIJ56lzj38" width="64" height="1.2" rx="0" ry="0" transform="matrix(1 0 0 1 91.3 362.3)" fill="none" stroke="rgb(0,0,0)" stroke-width="0.1399" stroke-linecap="round" stroke-linejoin="round"/><rect id="eG1CIJ56lzj39" width="349.1" height="4.9" rx="0" ry="0" transform="matrix(1 0 0 1 17.8 426.2)" fill="rgb(22,27,30)" stroke="none" stroke-width="1"/><rect id="eG1CIJ56lzj40" width="80" height="6.9" rx="0" ry="0" transform="matrix(1 0 0 1 82.5 461.7)" fill="rgb(0,0,0)" stroke="none" stroke-width="1"/><path id="eG1CIJ56lzj41" d="M155.3,363.4L155.3,363.7C155.3,364.3,154.7,364.9,154.1,364.9L92.5,364.9C91.9,364.9,91.3,364.3,91.3,363.7L91.3,363.4L155.3,363.4Z" fill="rgb(22,27,30)" stroke="rgb(0,0,0)" stroke-width="0.1399" stroke-linecap="round" stroke-linejoin="round"/><path id="eG1CIJ56lzj42" d="M155.3,362L155.3,362.3L91.3,362.3L91.3,362C91.3,361.4,91.9,360.8,92.5,360.8L154.1,360.8C154.8,360.8,155.3,361.2,155.3,362Z" fill="rgb(22,27,30)" stroke="rgb(0,0,0)" stroke-width="0.1399" stroke-linecap="round" stroke-linejoin="round"/><rect id="eG1CIJ56lzj43" width="64" height="1.2" rx="0" ry="0" transform="matrix(1 0 0 1 91.3 362.3)" fill="none" stroke="rgb(0,0,0)" stroke-width="0.1399" stroke-linecap="round" stroke-linejoin="round"/><rect id="eG1CIJ56lzj44" width="64" height="1.2" rx="0" ry="0" transform="matrix(1 0 0 1 91.3 362.3)" fill="rgb(0,0,0)" stroke="rgb(0,0,0)" stroke-width="0.1399" stroke-linecap="round" stroke-linejoin="round"/><path id="eG1CIJ56lzj45" d="M274.2,351.3C274.2,352.5,273.2,353.5,272,353.5C270.8,353.5,269.8,352.5,269.8,351.3C269.8,350.1,270.8,349.1,272,349.1C273.2,349.1,274.2,350.1,274.2,351.3Z" fill="rgb(0,0,0)" stroke="rgb(0,0,0)" stroke-width="0.1399" stroke-linecap="round" stroke-linejoin="round"/><polygon id="eG1CIJ56lzj46" points="367.6,427.9 367.6,433.8 17.1,433.8 17.1,427.9 17.8,427.9 17.8,430.9 366.9,430.9 366.9,427.9" fill="rgb(0,0,0)" stroke="none" stroke-width="1"/><rect id="eG1CIJ56lzj47" width="350.5" height="5.5" rx="0" ry="0" transform="matrix(1 0 0 1 17.1 433.8)" fill="rgb(22,27,30)" stroke="none" stroke-width="1"/><g id="eG1CIJ56lzj48"><rect id="eG1CIJ56lzj49" width="251" height="141.5" rx="0" ry="0" transform="matrix(1 0 0 1 66.8 86.3)" fill="rgb(55,232,215)" stroke="rgb(0,0,0)" stroke-width="0.1399" stroke-linecap="round" stroke-linejoin="round"/><g id="eG1CIJ56lzj50"><g id="eG1CIJ56lzj51"><polygon id="eG1CIJ56lzj52" points="293,202.5 288.9,198.3 284.7,202.5 280.6,198.3 276.5,202.5 272.3,198.3 268.2,202.5 264.1,198.3 259.8,202.5 255.7,198.3 251.7,202.5 247.4,198.3 243.3,202.5 243.3,107.3 247.4,111.5 251.7,107.3 255.7,111.5 259.8,107.3 264.1,111.5 268.2,107.3 272.3,111.5 276.5,107.3 280.6,111.5 284.7,107.3 288.9,111.5 293,107.3" fill="rgb(242,242,242)" stroke="none" stroke-width="1"/></g><g id="eG1CIJ56lzj53"><rect id="eG1CIJ56lzj54" width="34.2" height="34.8" rx="0" ry="0" transform="matrix(1 0 0 1 251.1 123.6)" fill="rgb(255,255,255)" stroke="none" stroke-width="1"/><g id="eG1CIJ56lzj55"><polygon id="eG1CIJ56lzj56" points="279.6,129.5 279.6,123.6 273.9,123.6 273.9,129.5 268.2,129.5 268.2,123.6 251.1,123.6 251.1,135.2 256.7,135.2 256.7,141.1 262.6,141.1 262.6,129.5 268.2,129.5 268.2,135.4 273.9,135.4 273.9,129.5 279.6,129.5 279.6,141.1 285.4,141.1 285.4,129.5" fill="rgb(14,65,96)" stroke="none" stroke-width="1"/><polygon id="eG1CIJ56lzj57" points="273.9,141.1 268.2,141.1 268.2,146.8 262.4,146.8 262.4,152.7 268.2,152.7 268.2,147 273.9,147 273.9,152.7 279.6,152.7 279.6,158.4 285.4,158.4 285.4,146.8 273.9,146.8" fill="rgb(14,65,96)" stroke="none" stroke-width="1"/><polygon id="eG1CIJ56lzj58" points="256.8,146.8 251.1,146.8 251.1,158.6 262.4,158.6 262.4,152.7 256.8,152.7" fill="rgb(14,65,96)" stroke="none" stroke-width="1"/></g></g><g id="eG1CIJ56lzj59"><path id="eG1CIJ56lzj60" d="M191.3,129.1L90.5,129.1C88.9,129.1,87.5,127.7,87.5,126.1C87.5,124.5,88.9,123.1,90.5,123.1L191.3,123.1C192.9,123.1,194.3,124.5,194.3,126.1C194.3,127.7,193.1,129.1,191.3,129.1Z" fill="rgb(255,255,255)" stroke="none" stroke-width="1"/><path id="eG1CIJ56lzj61" d="M161.1,144.2L90.5,144.2C88.9,144.2,87.5,142.8,87.5,141.2C87.5,139.6,88.9,138.2,90.5,138.2L161,138.2C162.6,138.2,164,139.6,164,141.2C164,142.8,162.7,144.2,161.1,144.2Z" fill="rgb(255,255,255)" stroke="none" stroke-width="1"/><path id="eG1CIJ56lzj62" d="M161.1,166.5L90.5,166.5C89.7,166.5,89,165.8,89,165C89,164.2,89.7,163.5,90.5,163.5L161,163.5C161.8,163.5,162.5,164.2,162.5,165C162.6,165.8,161.9,166.5,161.1,166.5Z" fill="rgb(14,65,96)" stroke="none" stroke-width="1"/><path id="eG1CIJ56lzj63" d="M145.1,177.9L90.5,177.9C89.7,177.9,89,177.2,89,176.4C89,175.6,89.7,174.9,90.5,174.9L145.1,174.9C145.9,174.9,146.6,175.6,146.6,176.4C146.6,177.3,145.9,177.9,145.1,177.9Z" fill="rgb(14,65,96)" stroke="none" stroke-width="1"/><path id="eG1CIJ56lzj64" d="M145.1,198.3L90.5,198.3C89.7,198.3,89,197.6,89,196.8C89,196,89.7,195.3,90.5,195.3L145.1,195.3C145.9,195.3,146.6,196,146.6,196.8C146.6,197.6,145.9,198.3,145.1,198.3Z" fill="rgb(255,255,255)" stroke="none" stroke-width="1"/></g><path id="eG1CIJ56lzj65" d="M282.2,165.8L251.2,165.8C250.9,165.8,250.8,165.7,250.8,165.4C250.8,165.1,250.9,165,251.2,165L282.2,165C282.5,165,282.6,165.1,282.6,165.4C282.6,165.5,282.5,165.8,282.2,165.8Z" fill="rgb(14,65,96)" stroke="none" stroke-width="1"/><path id="eG1CIJ56lzj66" d="M282.2,168.1L251.2,168.1C250.9,168.1,250.8,168,250.8,167.7C250.8,167.4,250.9,167.3,251.2,167.3L282.2,167.3C282.5,167.3,282.6,167.4,282.6,167.7C282.6,168,282.5,168.1,282.2,168.1Z" fill="rgb(14,65,96)" stroke="none" stroke-width="1"/><path id="eG1CIJ56lzj67" d="M282.2,170.9L251.2,170.9C250.9,170.9,250.8,170.8,250.8,170.5C250.8,170.2,250.9,170.1,251.2,170.1L282.2,170.1C282.5,170.1,282.6,170.2,282.6,170.5C282.6,170.7,282.5,170.9,282.2,170.9Z" fill="rgb(14,65,96)" stroke="none" stroke-width="1"/><path id="eG1CIJ56lzj68" d="M265.2,177L251.3,177C251,177,250.9,176.9,250.9,176.6C250.9,176.3,251,176.2,251.3,176.2L265.2,176.2C265.5,176.2,265.6,176.3,265.6,176.6C265.6,176.9,265.3,177,265.2,177Z" fill="rgb(14,65,96)" stroke="none" stroke-width="1"/><path id="eG1CIJ56lzj69" d="M282.5,177L268.6,177C268.3,177,268.2,176.9,268.2,176.6C268.2,176.3,268.3,176.2,268.6,176.2L282.5,176.2C282.8,176.2,282.9,176.3,282.9,176.6C282.9,176.9,282.8,177,282.5,177Z" fill="rgb(14,65,96)" stroke="none" stroke-width="1"/></g></g></g></g></g></g><g id="eG1CIJ56lzj70_to" transform="translate(345.744788,819.699985)"><g id="eG1CIJ56lzj70" transform="translate(-293.405243,-435.599991)"><polygon id="eG1CIJ56lzj71" display="none" points="241.7,376.7 269.5,393.3 287.4,366.2 260.3,351.4" fill="rgb(179,179,179)" stroke="none" stroke-width="1"/><path id="eG1CIJ56lzj72" d="M235.1,350.5C235.2,350.5,235.2,350.5,235.1,350.5L235.1,350.5L272.4,358.8L268.9,367.1L234.1,366.9L234.1,366.9C234.1,366.9,234.1,366.9,234,366.9C229.1,366.9,225.4,363.2,225.7,358.6C226,354,229.6,349.1,235.1,350.5Z" fill="rgb(179,179,179)" stroke="none" stroke-width="1"/><path id="eG1CIJ56lzj73" d="M237.9,362.9L237.9,362.9L237.9,362.9L270.9,361L273,376.1L240,377.9L240,377.9C240,377.9,240,377.9,239.9,377.9C235.3,378.2,231,375,230.5,370.8C230,366.6,233.3,363.1,237.9,362.9Z" fill="rgb(179,179,179)" stroke="none" stroke-width="1"/><path id="eG1CIJ56lzj74" d="M240.4,375.7L240.4,375.7L240.4,375.7L270.4,377L270.3,390.6L240.4,389.3L240.4,389.3C240.4,389.3,240.4,389.3,240.3,389.3C236.1,389.1,232.7,385.9,232.7,382.1C232.7,378.3,236.1,375.5,240.4,375.7Z" fill="rgb(179,179,179)" stroke="none" stroke-width="1"/><path id="eG1CIJ56lzj75" d="M271.2,339.6C273,339.5,274.8,340.1,276.1,341.3L290.8,353.7C292.9,355.6,294.1,358.2,294.1,361L294.6,415.3C294.6,418.5,291.7,420.9,288.1,420.7L275.1,420.1C271.5,419.9,268.6,417.2,268.6,414.1L271.2,368.7L259.8,359.1L235.3,358.8C224.8,359,218.9,354.3,220.6,348.2C221.6,344.6,223.7,342,231.7,342.1L271.2,339.6Z" fill="rgb(179,179,179)" stroke="none" stroke-width="1"/><g id="eG1CIJ56lzj76"><g id="eG1CIJ56lzj77"><path id="eG1CIJ56lzj78" d="M230.9,251.8L232.7,287C234.1,314.1,238.1,341,244.6,367.4L244.6,367.4L249,361.8L254.6,366.2L259,360.6L264.6,365L269,359.4L274.6,363.8L279,358.2L284.6,362.6L289,357L294.6,361.4L299,355.8L304.6,360.2L304.6,360.2C298.1,333.9,294.1,307,292.7,279.8L290.9,244.6L286.5,250.2L280.9,245.8L276.5,251.4L270.9,247L266.5,252.6L260.9,248.2L256.5,253.8L250.9,249.4L246.5,255L240.9,250.6L236.5,256.2L230.9,251.8Z" fill="rgb(255,255,255)" stroke="none" stroke-width="1"/></g></g><path id="eG1CIJ56lzj79" d="M277,399.6L270.5,342C269.3,337.3,264,334.1,258.7,335C253.4,335.8,251.3,337.8,251.3,345L251.4,360.2L252.2,369.8C252,373.4,252.4,377.1,253.6,380.6C255.5,386.3,253.7,376.6,251.7,382.2L251.1,384C247.1,398,250.3,413.4,254.5,419.8C256.6,423,257.6,425.8,261,427.9C266.2,431.2,268.8,447.1,271.8,457.1C276,471.2,278.9,496.3,278.9,496.3L295.5,626.6L366.5,626.6L294.6,401.1" fill="rgb(179,179,179)" stroke="none" stroke-width="1"/></g></g></svg>