<svg id="e78KU36NMzp1" xmlns="http://www.w3.org/2000/svg" xmlns:xlink="http://www.w3.org/1999/xlink" viewBox="0 0 385 626.6" shape-rendering="geometricPrecision" text-rendering="geometricPrecision"><style><![CDATA[#e78KU36NMzp67_to {animation: e78KU36NMzp67_to__to 2200ms linear infinite normal forwards}@keyframes e78KU36NMzp67_to__to { 0% {transform: translate(330.54664px,807.948496px);animation-timing-function: cubic-bezier(0,0,0.58,1)} 25% {transform: translate(292.55336px,450.251572px);animation-timing-function: cubic-bezier(0,0,0.58,1)} 27.272727% {transform: translate(292.55336px,459.251572px)} 57.272727% {transform: translate(292.55336px,459.251572px);animation-timing-function: cubic-bezier(0.42,0,1,1)} 77.272727% {transform: translate(191.3px,832.672311px)} 100% {transform: translate(191.3px,832.672311px)}}]]></style><path id="e78KU36NMzp2" d="M367.8,626.7L372.2,626.7L372.2,2.3C372.2,1.1,361.7,0.1,348.8,0.2L327.7,0.2C327.1,0.2,326.5,0.4,326,0.7L59,0.6C58.4,0.3,57.9,0.1,57.2,0.1L36.1,0.1C23.3,0.1,12.8,1.1,12.9,2.3L12.9,626.6L17.3,626.6L17.3,626.7L367.8,626.7" fill="rgb(42,53,63)" stroke="none" stroke-width="1"/><g id="e78KU36NMzp3"><g id="e78KU36NMzp4"><g id="e78KU36NMzp5"><g id="e78KU36NMzp6"><path id="e78KU36NMzp7" d="M59,0.6L37.7,0.6L35.3,0.6L33,0.6L30.7,0.7L28.5,0.8L26.5,0.9L24.7,1L23,1.1L21.5,1.3L20.3,1.5L19.3,1.7L18.6,1.9L18.1,2.1L18,2.2L18,425.8L17.3,425.8L17.3,610.1L17.3,626.6L12.9,626.6L12.9,2.3C12.8,1.1,23.3,0.1,36.1,0.1L57.2,0.1C57.9,0.1,58.4,0.3,59,0.6Z" fill="rgb(230,231,232)" stroke="none" stroke-width="1"/><path id="e78KU36NMzp8" d="M372.2,2.3L372.2,626.7L367.8,626.7L367.8,626L367.8,425.9L367,425.9L367,2.3L366.8,2.1L366.6,2L366.6,2L366.5,2L366.3,1.9L365.6,1.7L364.6,1.5L363.4,1.3L362,1.2L360.3,1L358.5,0.9L356.5,0.8L354.3,0.7L352,0.7L349.7,0.7L347.3,0.7L326,0.7C326.5,0.4,327.1,0.2,327.7,0.2L348.8,0.2C361.7,0.1,372.2,1.1,372.2,2.3Z" fill="rgb(230,231,232)" stroke="none" stroke-width="1"/><polygon id="e78KU36NMzp9" points="366.9,2.1 366.8,2 366.8,2 366.7,2 366.5,1.9 365.7,1.8 364.7,1.6 363.5,1.4 362.1,1.2 360.4,1 358.6,0.9 356.6,0.8 354.4,0.7 352.1,0.7 349.8,0.7 347.4,0.7 37.7,0.7 35.3,0.7 33,0.7 30.7,0.7 28.5,0.8 26.5,0.9 24.7,1 23,1.2 21.5,1.4 20.4,1.6 19.3,1.8 18.6,1.9 18.2,2.1 18,2.3 18,424.1 367,424.1 367,2.3" fill="rgb(42,53,63)" stroke="rgb(0,0,0)" stroke-width="0.1399" stroke-linecap="round" stroke-linejoin="round"/><circle id="e78KU36NMzp10" r="4.4" transform="matrix(1 0 0 1 192.5 44)" fill="rgb(42,53,63)" stroke="rgb(0,0,0)" stroke-width="0.1399" stroke-linecap="round" stroke-linejoin="round"/><path id="e78KU36NMzp11" d="M190.7,392.1C190.5,396,187.2,398.9,183.5,398.7L63.5,398.7C59.6,398.9,56.4,395.9,56.3,392.1L56.3,306.6C56.5,302.7,59.8,299.8,63.5,300L183.5,300C187.4,299.8,190.6,302.8,190.7,306.6L190.7,392.1L190.7,392.1Z" fill="rgb(42,53,63)" stroke="rgb(0,0,0)" stroke-width="0.1399" stroke-linecap="round" stroke-linejoin="round"/><path id="e78KU36NMzp12" d="M308.5,387.2C308.3,391.1,305,394,301.3,393.8L243.2,393.8C239.3,394,236.1,391,236,387.2L236,311.4C236.2,307.5,239.5,304.6,243.2,304.8L301.3,304.8C305.2,304.6,308.4,307.6,308.5,311.4L308.5,387.2Z" fill="rgb(42,53,63)" stroke="rgb(0,0,0)" stroke-width="0.1399" stroke-linecap="round" stroke-linejoin="round"/><path id="e78KU36NMzp13" d="M335.2,237.7C335.2,240.5,332.9,242.9,330,242.9L55.1,242.9C52.3,242.9,49.9,240.6,49.9,237.7L49.9,72.4C49.9,69.6,52.2,67.2,55.1,67.2L330.1,67.2C332.9,67.2,335.3,69.5,335.3,72.4L335.2,237.7L335.2,237.7Z" fill="rgb(42,53,63)" stroke="rgb(0,0,0)" stroke-width="0.1399" stroke-linecap="round" stroke-linejoin="round"/><path id="e78KU36NMzp14" d="M330,67.2L55.1,67.2C52.3,67.2,49.9,69.5,49.9,72.4L49.9,237.7C49.9,240.5,52.2,242.9,55.1,242.9L330.1,242.9C332.9,242.9,335.3,240.6,335.3,237.7L335.3,72.4C335.2,69.5,332.9,67.2,330,67.2Z" fill="rgb(0,0,0)" stroke="rgb(0,0,0)" stroke-width="0.1399" stroke-linecap="round" stroke-linejoin="round"/><rect id="e78KU36NMzp15" width="251" height="141.5" rx="0" ry="0" transform="matrix(1 0 0 1 67 84.3)" fill="rgb(0,0,0)" stroke="rgb(0,0,0)" stroke-width="0.1399" stroke-linecap="round" stroke-linejoin="round"/><rect id="e78KU36NMzp16" width="350.5" height="189.4" rx="0" ry="0" transform="matrix(1 0 0 1 17.3 437.3)" fill="rgb(42,53,63)" stroke="none" stroke-width="1"/><path id="e78KU36NMzp17" d="M332.6,480.7C332.4,485,328.8,488.3,324.6,488.2L58,488.2C53.7,488.3,50.1,485,50,480.7L50,453.7C50.2,449.4,53.8,446.1,58,446.2L324.5,446.2C328.8,446.1,332.4,449.4,332.5,453.7L332.5,480.7L332.6,480.7Z" fill="rgb(42,53,63)" stroke="none" stroke-width="1"/><path id="e78KU36NMzp18" d="M324.6,446.2L58,446.2C53.7,446.1,50.1,449.4,50,453.7L50,480.7C50.1,485,53.8,488.3,58,488.2L324.5,488.2C328.8,488.3,332.4,485,332.5,480.7L332.5,453.7C332.4,449.4,328.8,446.1,324.6,446.2Z" fill="rgb(37,47,56)" stroke="rgb(0,0,0)" stroke-width="0.1399" stroke-miterlimit="10"/><path id="e78KU36NMzp19" d="M62.3,477.9C62.2,479,61.4,479.9,60.2,480C59,480.1,58,479.1,57.9,477.9L57.9,457.4C58,456.3,58.8,455.4,60,455.3C61.2,455.2,62.2,456.2,62.3,457.4C62.3,457.4,62.3,477.9,62.3,477.9Z" fill="rgb(37,47,56)" stroke="rgb(0,0,0)" stroke-width="0.1399" stroke-miterlimit="10"/><path id="e78KU36NMzp20" d="M166.3,477.9C166.2,479.8,164.6,481.4,162.6,481.3L162.6,481.5L162.5,481.7L162.3,481.9L162,482L161.6,482.1L161.1,482.2L160.6,482.3L160,482.3L159.4,482.3L136.9,482.3C134.7,482.4,132.5,482,130.4,481.3L129.6,480.9L128.6,480.6L127.4,480.3L126,480.1L124.5,480L122.9,479.9L121.5,479.9L119.9,480L118.4,480.1L117,480.3L115.8,480.6L114.8,480.9L114,481.3C111.9,482.1,109.7,482.5,107.5,482.3L85.5,482.3L85,482.3L84.4,482.3L84,482.1L83.5,482L83.1,481.9L82.8,481.8L82.6,481.6L82.5,481.4L82.5,481.2C80.6,481.3,78.9,479.7,78.8,477.8L78.8,457.3C78.9,455.4,80.5,453.8,82.5,453.9L162.5,453.9C164.4,453.8,166.1,455.4,166.2,457.3L166.3,477.9L166.3,477.9Z" fill="rgb(37,47,56)" stroke="rgb(0,0,0)" stroke-width="0.1399" stroke-miterlimit="10"/><path id="e78KU36NMzp21" d="M303.5,477.9C303.4,479.8,301.8,481.4,299.8,481.3L246,481.3C244.1,481.4,242.4,479.8,242.3,477.9L242.3,457.4C242.4,455.5,244,453.9,246,454L299.8,454C301.7,453.9,303.4,455.5,303.5,457.4L303.5,477.9Z" fill="rgb(37,47,56)" stroke="rgb(0,0,0)" stroke-width="0.1399" stroke-miterlimit="10"/><path id="e78KU36NMzp22" d="M324.6,477.9C324.5,479,323.7,479.9,322.5,480C321.3,480.1,320.3,479.1,320.2,477.9L320.2,457.4C320.3,456.3,321.1,455.4,322.3,455.3C323.5,455.2,324.5,456.2,324.6,457.4L324.6,477.9Z" fill="rgb(37,47,56)" stroke="rgb(0,0,0)" stroke-width="0.1399" stroke-miterlimit="10"/><path id="e78KU36NMzp23" d="M303.5,473.9L303.5,477.8C303.4,479.7,301.8,481.3,299.8,481.2L246,481.2C244.1,481.3,242.4,479.7,242.3,477.8L242.3,473.9L303.5,473.9Z" fill="rgb(153,153,153)" stroke="none" stroke-width="1"/><path id="e78KU36NMzp24" d="M303.5,457.4L303.5,463.5L242.4,463.5L242.4,457.4C242.5,455.5,244.1,453.9,246.1,454L299.8,454C301.7,453.9,303.4,455.4,303.5,457.4Z" fill="rgb(153,153,153)" stroke="none" stroke-width="1"/><rect id="e78KU36NMzp25" width="61.1" height="10.5" rx="0" ry="0" transform="matrix(1 0 0 1 242.3 463.4)" fill="rgb(128,128,128)" stroke="none" stroke-width="1"/><rect id="e78KU36NMzp26" width="61.1" height="5.2" rx="0" ry="0" transform="matrix(1 0 0 1 242.3 463.4)" fill="rgb(0,0,0)" stroke="none" stroke-width="1"/><path id="e78KU36NMzp27" d="M324.6,457.4L324.6,477.9C324.5,479,323.7,479.9,322.5,480C321.3,480.1,320.3,479.1,320.2,477.9L320.2,457.4C320.3,456.3,321.1,455.4,322.3,455.3C323.5,455.2,324.5,456.2,324.6,457.4Z" fill="rgb(204,204,204)" stroke="none" stroke-width="1"/><path id="e78KU36NMzp28" d="M62.3,457.4L62.3,477.9C62.2,479,61.4,479.9,60.2,480C59,480.1,58,479.1,57.9,477.9L57.9,457.4C58,456.3,58.8,455.4,60,455.3C61.3,455.2,62.3,456.2,62.3,457.4Z" fill="rgb(204,204,204)" stroke="none" stroke-width="1"/><rect id="e78KU36NMzp29" width="80" height="5.9" rx="0" ry="0" transform="matrix(1 0 0 1 82.7 454)" fill="rgb(51,51,51)" stroke="none" stroke-width="1"/><path id="e78KU36NMzp30" d="M162.7,466.6L162.7,478.7L162.6,478.9L162.4,479.1L162.1,479.2L161.7,479.3L161.2,479.4L160.7,479.5L160.1,479.5L159.5,479.5L137,479.5C134.8,479.6,132.6,479.2,130.5,478.5L130,478.1L129,477.8L127.8,477.5L126.5,477.2L125,477.1L123.4,477L121.8,477L120.2,477.1L118.7,477.2L117.3,477.4L116.1,477.7L115.1,478L114.3,478.4C112.2,479.2,110,479.6,107.8,479.4L85.5,479.4L85,479.4L84.4,479.4L83.9,479.3L83.4,479.2L83,479.1L82.7,479L82.5,478.8L82.4,478.6L82.4,466.5L162.7,466.6L162.7,466.6Z" fill="rgb(153,153,153)" stroke="none" stroke-width="1"/><path id="e78KU36NMzp31" d="M162.7,478.7L162.7,481.5L162.6,481.7L162.4,481.9L162.1,482L161.7,482.1L161.2,482.2L160.7,482.3L160.1,482.3L159.5,482.3L137,482.3C134.8,482.4,132.6,482,130.5,481.3L129.7,480.9L128.7,480.6L127.5,480.3L126.1,480.1L125,480.1L123.4,480L121.9,480L120.3,480.1L118.8,480.2L117.4,480.4L116.2,480.7L115.2,481L114.4,481.4C112.3,482.2,110.1,482.6,107.9,482.4L85.5,482.4L85,482.4L84.4,482.4L83.9,482.3L83.4,482.2L83,482.1L82.7,482L82.5,481.8L82.4,481.6L82.4,478.8L82.5,479L82.7,479.2L83,479.3L83.4,479.4L83.9,479.5L84.4,479.6L85,479.6L85.6,479.6L108,479.6C110.2,479.7,112.4,479.3,114.5,478.6L115.3,478.2L116.3,477.9L117.5,477.6L118.9,477.4L120.4,477.3L122,477.2L123.6,477.2L125.2,477.3L126.7,477.4L128.1,477.6L129.3,477.9L130.3,478.2L131.1,478.6C133.2,479.4,135.4,479.8,137.6,479.6L160.1,479.6L160.7,479.6L161.3,479.6L161.8,479.5L162.3,479.4L162.7,479.3L163,479.2L163.2,479L162.7,478.7Z" fill="rgb(128,128,128)" stroke="none" stroke-width="1"/><path id="e78KU36NMzp32" d="M166.3,457.4L166.3,477.9C166.2,479.8,164.6,481.4,162.6,481.3L162.6,454C164.7,453.9,166.3,455.4,166.3,457.4Z" fill="rgb(102,102,102)" stroke="none" stroke-width="1"/><path id="e78KU36NMzp33" d="M82.7,454L82.7,481.3C80.8,481.4,79.1,479.8,79,477.9L79,457.4C79.1,455.4,80.8,453.9,82.7,454Z" fill="rgb(102,102,102)" stroke="none" stroke-width="1"/><circle id="e78KU36NMzp34" r="4.4" transform="matrix(1 0 0 1 192.5 44)" fill="rgb(0,0,0)" stroke="rgb(0,0,0)" stroke-width="0.1399" stroke-linecap="round" stroke-linejoin="round"/><path id="e78KU36NMzp35" d="M301.3,304.9L243.1,304.9C239.2,304.7,236,307.7,235.9,311.5L235.9,387.3C236.1,391.2,239.4,394.1,243.1,393.9L301.3,393.9C305.2,394.1,308.4,391.1,308.5,387.3L308.5,311.5C308.3,307.6,305,304.7,301.3,304.9Z" fill="rgb(230,231,232)" stroke="rgb(0,0,0)" stroke-width="0.1399" stroke-linecap="round" stroke-linejoin="round"/><path id="e78KU36NMzp36" d="M272.1,351.5C270.9,351.5,269.9,350.5,269.9,349.3C269.9,348.1,270.9,347.1,272.1,347.1C273.3,347.1,274.3,348.1,274.3,349.3C274.4,350.5,273.4,351.5,272.1,351.5Z" fill="rgb(230,231,232)" stroke="rgb(0,0,0)" stroke-width="0.1399" stroke-linecap="round" stroke-linejoin="round"/><path id="e78KU36NMzp37" d="M183.5,300L63.5,300C59.6,299.8,56.4,302.8,56.3,306.6L56.3,392.1C56.5,396,59.8,398.9,63.5,398.7L183.5,398.7C187.4,398.9,190.6,395.9,190.7,392.1L190.7,306.6C190.5,302.8,187.3,299.8,183.5,300Z" fill="rgb(42,53,63)" stroke="rgb(0,0,0)" stroke-width="0.6995" stroke-linecap="round" stroke-linejoin="round"/><path id="e78KU36NMzp38" d="M155.5,361.7C155.5,362.3,154.9,362.9,154.3,362.9L92.7,362.9C92.1,362.9,91.5,362.3,91.5,361.7L91.5,360C91.5,359.4,92.1,358.8,92.7,358.8L154.3,358.8C154.9,358.8,155.5,359.4,155.5,360L155.5,361.7L155.5,361.7Z" fill="rgb(42,53,63)" stroke="rgb(0,0,0)" stroke-width="0.6995" stroke-linecap="round" stroke-linejoin="round"/><rect id="e78KU36NMzp39" width="64" height="1.2" rx="0" ry="0" transform="matrix(1 0 0 1 91.5 360.3)" fill="none" stroke="rgb(0,0,0)" stroke-width="0.1399" stroke-linecap="round" stroke-linejoin="round"/><rect id="e78KU36NMzp40" width="349.1" height="4.9" rx="0" ry="0" transform="matrix(1 0 0 1 18 424.2)" fill="rgb(22,27,30)" stroke="none" stroke-width="1"/><rect id="e78KU36NMzp41" width="80" height="6.9" rx="0" ry="0" transform="matrix(1 0 0 1 82.7 459.7)" fill="rgb(0,0,0)" stroke="none" stroke-width="1"/><path id="e78KU36NMzp42" d="M155.5,361.4L155.5,361.7C155.5,362.3,154.9,362.9,154.3,362.9L92.7,362.9C92.1,362.9,91.5,362.3,91.5,361.7L91.5,361.4L155.5,361.4Z" fill="rgb(22,27,30)" stroke="rgb(0,0,0)" stroke-width="0.1399" stroke-linecap="round" stroke-linejoin="round"/><path id="e78KU36NMzp43" d="M155.5,360L155.5,360.3L91.5,360.3L91.5,360C91.5,359.4,92.1,358.8,92.7,358.8L154.3,358.8C155,358.8,155.5,359.2,155.5,360Z" fill="rgb(22,27,30)" stroke="rgb(0,0,0)" stroke-width="0.1399" stroke-linecap="round" stroke-linejoin="round"/><rect id="e78KU36NMzp44" width="64" height="1.2" rx="0" ry="0" transform="matrix(1 0 0 1 91.5 360.3)" fill="none" stroke="rgb(0,0,0)" stroke-width="0.1399" stroke-linecap="round" stroke-linejoin="round"/><rect id="e78KU36NMzp45" width="64" height="1.2" rx="0" ry="0" transform="matrix(1 0 0 1 91.5 360.3)" fill="rgb(0,0,0)" stroke="rgb(0,0,0)" stroke-width="0.1399" stroke-linecap="round" stroke-linejoin="round"/><path id="e78KU36NMzp46" d="M274.4,349.3C274.4,350.5,273.4,351.5,272.2,351.5C271,351.5,270,350.5,270,349.3C270,348.1,271,347.1,272.2,347.1C273.4,347.1,274.4,348.1,274.4,349.3Z" fill="rgb(0,0,0)" stroke="rgb(0,0,0)" stroke-width="0.1399" stroke-linecap="round" stroke-linejoin="round"/><polygon id="e78KU36NMzp47" points="367.8,425.9 367.8,431.8 17.3,431.8 17.3,425.9 18,425.9 18,428.9 367.1,428.9 367.1,425.9" fill="rgb(0,0,0)" stroke="none" stroke-width="1"/><rect id="e78KU36NMzp48" width="350.5" height="5.5" rx="0" ry="0" transform="matrix(1 0 0 1 17.3 431.8)" fill="rgb(22,27,30)" stroke="none" stroke-width="1"/><g id="e78KU36NMzp49"><rect id="e78KU36NMzp50" width="251" height="141.5" rx="0" ry="0" transform="matrix(1 0 0 1 67 84.3)" fill="rgb(55,232,215)" stroke="rgb(0,0,0)" stroke-width="0.1399" stroke-linecap="round" stroke-linejoin="round"/><g id="e78KU36NMzp51"><path id="e78KU36NMzp52" d="M181.1,127.3L88.9,127.3C87.4,127.3,86.2,126.1,86.2,124.6C86.2,123.1,87.4,121.9,88.9,121.9L181.1,121.9C182.6,121.9,183.8,123.1,183.8,124.6C183.9,126.1,182.8,127.3,181.1,127.3Z" fill="rgb(255,255,255)" stroke="none" stroke-width="1"/><g id="e78KU36NMzp53"><path id="e78KU36NMzp54" d="M181.4,128L89.7,128C88.2,128,87,126.8,87,125.3C87,123.8,88.2,122.6,89.7,122.6L181.3,122.6C182.8,122.6,184,123.8,184,125.3C184.1,126.8,183,128,181.4,128Z" fill="rgb(255,255,255)" stroke="none" stroke-width="1"/><path id="e78KU36NMzp55" d="M153.8,141.8L89.7,141.8C88.2,141.8,87,140.6,87,139.1C87,137.6,88.2,136.4,89.7,136.4L153.8,136.4C155.3,136.4,156.5,137.6,156.5,139.1C156.5,140.6,155.3,141.8,153.8,141.8Z" fill="rgb(255,255,255)" stroke="none" stroke-width="1"/><path id="e78KU36NMzp56" d="M153.8,162L89.7,162C89,162,88.3,161.4,88.3,160.6C88.3,159.8,88.9,159.2,89.7,159.2L153.8,159.2C154.5,159.2,155.2,159.8,155.2,160.6C155.2,161.4,154.6,162,153.8,162Z" fill="rgb(64,60,81)" stroke="none" stroke-width="1"/><path id="e78KU36NMzp57" d="M139.3,172.4L89.7,172.4C89,172.4,88.3,171.8,88.3,171C88.3,170.3,88.9,169.6,89.7,169.6L139.3,169.6C140,169.6,140.7,170.2,140.7,171C140.7,171.8,140.1,172.4,139.3,172.4Z" fill="rgb(64,60,81)" stroke="none" stroke-width="1"/><path id="e78KU36NMzp58" d="M139.3,190.9L89.7,190.9C89,190.9,88.3,190.3,88.3,189.5C88.3,188.7,88.9,188.1,89.7,188.1L139.3,188.1C140,188.1,140.7,188.7,140.7,189.5C140.7,190.3,140.1,190.9,139.3,190.9Z" fill="rgb(255,255,255)" stroke="none" stroke-width="1"/><path id="e78KU36NMzp59" d="M226.1,122.3L287.1,122.3C291.1,122.3,294.3,125.5,294.3,129.5L294.3,163.8C294.3,167.8,291.1,171,287.1,171L226.1,171C222.1,171,218.9,167.8,218.9,163.8L218.9,129.5C218.9,125.5,222.1,122.3,226.1,122.3Z" fill="rgb(255,255,255)" stroke="none" stroke-width="1"/><rect id="e78KU36NMzp60" width="22.3" height="34.8" rx="0" ry="0" transform="matrix(1 0 0 1 225.7 128)" fill="rgb(242,242,242)" stroke="none" stroke-width="1"/><rect id="e78KU36NMzp61" width="19.1" height="2.7" rx="0" ry="0" transform="matrix(1 0 0 1 256.6 128.9)" fill="rgb(65,64,66)" stroke="none" stroke-width="1"/><rect id="e78KU36NMzp62" width="21.7" height="2.7" rx="0" ry="0" transform="matrix(1 0 0 1 256.6 134.3)" fill="rgb(65,64,66)" stroke="none" stroke-width="1"/><rect id="e78KU36NMzp63" width="21.7" height="1.1" rx="0" ry="0" transform="matrix(1 0 0 1 256.6 144.5)" fill="rgb(65,64,66)" stroke="none" stroke-width="1"/><rect id="e78KU36NMzp64" width="21.7" height="1.1" rx="0" ry="0" transform="matrix(1 0 0 1 256.6 147.2)" fill="rgb(65,64,66)" stroke="none" stroke-width="1"/><rect id="e78KU36NMzp65" width="21.7" height="1.1" rx="0" ry="0" transform="matrix(1 0 0 1 256.6 150.4)" fill="rgb(65,64,66)" stroke="none" stroke-width="1"/><rect id="e78KU36NMzp66" width="21.7" height="1.1" rx="0" ry="0" transform="matrix(1 0 0 1 256.6 153.2)" fill="rgb(65,64,66)" stroke="none" stroke-width="1"/></g></g></g></g></g></g></g><g id="e78KU36NMzp67_to" transform="translate(330.54664,807.948496)"><g id="e78KU36NMzp67" transform="translate(-292.55336,-445.251572)"><polygon id="e78KU36NMzp68" display="none" points="241.7,376.7 269.5,393.3 287.4,366.2 260.3,351.4" fill="rgb(179,179,179)" stroke="none" stroke-width="1"/><path id="e78KU36NMzp69" d="M235.1,350.5C235.2,350.5,235.2,350.5,235.1,350.5L235.1,350.5L272.4,358.8L268.9,367.1L234.1,366.9L234.1,366.9C234.1,366.9,234.1,366.9,234,366.9C229.1,366.9,225.4,363.2,225.7,358.6C226,354,229.6,349.1,235.1,350.5Z" fill="rgb(179,179,179)" stroke="none" stroke-width="1"/><path id="e78KU36NMzp70" d="M237.9,362.9L237.9,362.9L237.9,362.9L270.9,361L273,376.1L240,377.9L240,377.9C240,377.9,240,377.9,239.9,377.9C235.3,378.2,231,375,230.5,370.8C230,366.6,233.3,363.1,237.9,362.9Z" fill="rgb(179,179,179)" stroke="none" stroke-width="1"/><path id="e78KU36NMzp71" d="M240.4,375.7L240.4,375.7L240.4,375.7L270.4,377L270.3,390.6L240.4,389.3L240.4,389.3C240.4,389.3,240.4,389.3,240.3,389.3C236.1,389.1,232.7,385.9,232.7,382.1C232.7,378.3,236.1,375.5,240.4,375.7Z" fill="rgb(179,179,179)" stroke="none" stroke-width="1"/><path id="e78KU36NMzp72" d="M271.2,339.6C273,339.5,274.8,340.1,276.1,341.3L290.8,353.7C292.9,355.6,294.1,358.2,294.1,361L294.6,415.3C294.6,418.5,291.7,420.9,288.1,420.7L275.1,420.1C271.5,419.9,268.6,417.2,268.6,414.1L271.2,368.7L259.8,359.1L235.3,358.8C224.8,359,218.9,354.3,220.6,348.2C221.6,344.6,223.7,342,231.7,342.1L271.2,339.6Z" fill="rgb(179,179,179)" stroke="none" stroke-width="1"/><path id="e78KU36NMzp73" d="M269.5,266.5L305.8,336.3C306.9,338.4,306.1,341,304,342.1L261.2,364.3C259.1,365.4,256.5,364.6,255.4,362.5L219.1,292.7C218,290.6,218.8,288,220.9,286.9L263.7,264.7C265.8,263.6,268.4,264.4,269.5,266.5Z" fill="rgb(203,101,96)" stroke="none" stroke-width="1"/><path id="e78KU36NMzp74" d="M269.5,266.5L305.8,336.3C306.9,338.4,306.1,341,304,342.1L261.2,364.3C259.1,365.4,256.5,364.6,255.4,362.5L219.1,292.7C218,290.6,218.8,288,220.9,286.9L263.7,264.7C265.8,263.6,268.4,264.4,269.5,266.5Z" fill="rgb(44,185,172)" stroke="none" stroke-width="1"/><g id="e78KU36NMzp75"><path id="e78KU36NMzp76" d="M269,265.7L305.7,336.2C306.6,337.9,305.9,339.9,304.3,340.8L260.8,363.4C259.1,364.3,257.1,363.6,256.2,362L219.5,291.5C218.6,289.8,219.3,287.8,220.9,286.9L264.4,264.3C266.1,263.4,268.2,264.1,269,265.7Z" fill="rgb(254,127,120)" stroke="none" stroke-width="1"/><path id="e78KU36NMzp77" d="M269,265.7L305.7,336.2C306.6,337.9,305.9,339.9,304.3,340.8L260.8,363.4C259.1,364.3,257.1,363.6,256.2,362L219.5,291.5C218.6,289.8,219.3,287.8,220.9,286.9L264.4,264.3C266.1,263.4,268.2,264.1,269,265.7Z" fill="rgb(55,232,215)" stroke="none" stroke-width="1"/><rect id="e78KU36NMzp78" width="12.7" height="86.2" rx="0" ry="0" transform="matrix(0.8872 -0.4614 0.4614 0.8872 248.316895 272.696793)" fill="rgb(74,74,74)" stroke="none" stroke-width="1"/><line id="e78KU36NMzp79" x1="248.4" y1="281.2" x2="281.5" y2="344.9" fill="none" stroke="rgb(74,74,74)" stroke-width="0.8792" stroke-miterlimit="10"/><line id="e78KU36NMzp80" x1="245.7" y1="282.6" x2="271.7" y2="332.6" fill="none" stroke="rgb(74,74,74)" stroke-width="0.8792" stroke-miterlimit="10"/><line id="e78KU36NMzp81" x1="240.1" y1="285.5" x2="249.9" y2="304.3" fill="none" stroke="rgb(74,74,74)" stroke-width="0.8792" stroke-miterlimit="10"/><line id="e78KU36NMzp82" x1="237.4" y1="287" x2="254.9" y2="320.7" fill="none" stroke="rgb(74,74,74)" stroke-width="0.8792" stroke-miterlimit="10"/><g id="e78KU36NMzp83"><polygon id="e78KU36NMzp84" points="234.4,288.7 226.9,292.7 234.4,288.7 234.2,288.4 226.4,292.4 226.6,292.8 226.6,292.8 226.8,293.2 234.6,289.1" fill="rgb(74,74,74)" stroke="none" stroke-width="1"/><rect id="e78KU36NMzp85" width="8.8" height="0.4" rx="0" ry="0" transform="matrix(0.8872 -0.4614 0.4614 0.8872 226.993653 293.538577)" fill="rgb(74,74,74)" stroke="none" stroke-width="1"/><rect id="e78KU36NMzp86" width="8.8" height="0.4" rx="0" ry="0" transform="matrix(0.8872 -0.4614 0.4614 0.8872 227.394653 294.343777)" fill="rgb(74,74,74)" stroke="none" stroke-width="1"/><rect id="e78KU36NMzp87" width="8.8" height="0.4" rx="0" ry="0" transform="matrix(0.8872 -0.4614 0.4614 0.8872 227.795653 295.147977)" fill="rgb(74,74,74)" stroke="none" stroke-width="1"/><rect id="e78KU36NMzp88" width="8.8" height="0.4" rx="0" ry="0" transform="matrix(0.8872 -0.4614 0.4614 0.8872 228.196653 295.953177)" fill="rgb(74,74,74)" stroke="none" stroke-width="1"/><rect id="e78KU36NMzp89" width="8.8" height="0.4" rx="0" ry="0" transform="matrix(0.8867 -0.4623 0.4623 0.8867 228.61072 296.755615)" fill="rgb(74,74,74)" stroke="none" stroke-width="1"/><rect id="e78KU36NMzp90" width="8.8" height="0.4" rx="0" ry="0" transform="matrix(0.8872 -0.4614 0.4614 0.8872 228.798653 297.159977)" fill="rgb(74,74,74)" stroke="none" stroke-width="1"/><rect id="e78KU36NMzp91" width="8.8" height="0.4" rx="0" ry="0" transform="matrix(0.8872 -0.4614 0.4614 0.8872 229.188513 297.844457)" fill="rgb(74,74,74)" stroke="none" stroke-width="1"/><rect id="e78KU36NMzp92" width="8.8" height="0.4" rx="0" ry="0" transform="matrix(0.8872 -0.4614 0.4614 0.8872 229.598513 298.650658)" fill="rgb(74,74,74)" stroke="none" stroke-width="1"/><rect id="e78KU36NMzp93" width="8.8" height="0.4" rx="0" ry="0" transform="matrix(0.8872 -0.4614 0.4614 0.8872 229.990513 299.453858)" fill="rgb(74,74,74)" stroke="none" stroke-width="1"/><polygon id="e78KU36NMzp94" points="238.2,296.2 230.4,300.2 230.6,300.6 230.6,300.6 230.8,301 238.6,296.9" fill="rgb(74,74,74)" stroke="none" stroke-width="1"/><rect id="e78KU36NMzp95" width="8.8" height="0.4" rx="0" ry="0" transform="matrix(0.8867 -0.4623 0.4623 0.8867 230.99538 301.342915)" fill="rgb(74,74,74)" stroke="none" stroke-width="1"/><rect id="e78KU36NMzp96" width="8.8" height="0.4" rx="0" ry="0" transform="matrix(0.8871 -0.4615 0.4615 0.8871 231.185116 301.73662)" fill="rgb(74,74,74)" stroke="none" stroke-width="1"/><polygon id="e78KU36NMzp97" points="239.7,298.9 239.7,298.9 239.5,298.5 231.6,302.6 231.8,303 235.7,301 231.8,303 232,303.4 239.9,299.3" fill="rgb(74,74,74)" stroke="none" stroke-width="1"/><rect id="e78KU36NMzp98" width="8.8" height="0.4" rx="0" ry="0" transform="matrix(0.8872 -0.4614 0.4614 0.8872 232.194374 303.760738)" fill="rgb(74,74,74)" stroke="none" stroke-width="1"/><rect id="e78KU36NMzp99" width="8.8" height="0.4" rx="0" ry="0" transform="matrix(0.8871 -0.4615 0.4615 0.8871 232.588255 304.552399)" fill="rgb(74,74,74)" stroke="none" stroke-width="1"/><rect id="e78KU36NMzp100" width="8.8" height="0.4" rx="0" ry="0" transform="matrix(0.8872 -0.4614 0.4614 0.8872 233.105954 305.239278)" fill="rgb(74,74,74)" stroke="none" stroke-width="1"/><rect id="e78KU36NMzp101" width="8.8" height="0.4" rx="0" ry="0" transform="matrix(0.8872 -0.4614 0.4614 0.8872 233.506954 306.043478)" fill="rgb(74,74,74)" stroke="none" stroke-width="1"/><polygon id="e78KU36NMzp102" points="241.9,303.2 238.1,305.2 241.9,303.2 241.7,302.8 233.9,306.9 234.1,307.3 234.1,307.3 234.3,307.6 242.1,303.6" fill="rgb(74,74,74)" stroke="none" stroke-width="1"/><rect id="e78KU36NMzp103" width="8.8" height="0.4" rx="0" ry="0" transform="matrix(0.8871 -0.4615 0.4615 0.8871 234.501994 308.042399)" fill="rgb(74,74,74)" stroke="none" stroke-width="1"/><rect id="e78KU36NMzp104" width="8.8" height="0.4" rx="0" ry="0" transform="matrix(0.8867 -0.4623 0.4623 0.8867 234.911529 308.742524)" fill="rgb(74,74,74)" stroke="none" stroke-width="1"/><rect id="e78KU36NMzp105" width="8.8" height="0.4" rx="0" ry="0" transform="matrix(0.8872 -0.4614 0.4614 0.8872 235.098814 309.145558)" fill="rgb(74,74,74)" stroke="none" stroke-width="1"/><rect id="e78KU36NMzp106" width="8.8" height="0.4" rx="0" ry="0" transform="matrix(0.8872 -0.4614 0.4614 0.8872 235.508814 309.952758)" fill="rgb(74,74,74)" stroke="none" stroke-width="1"/><rect id="e78KU36NMzp107" width="8.8" height="0.4" rx="0" ry="0" transform="matrix(0.8872 -0.4614 0.4614 0.8872 235.900814 310.754958)" fill="rgb(74,74,74)" stroke="none" stroke-width="1"/><rect id="e78KU36NMzp108" width="8.8" height="0.4" rx="0" ry="0" transform="matrix(0.8872 -0.4614 0.4614 0.8872 236.291674 311.439438)" fill="rgb(74,74,74)" stroke="none" stroke-width="1"/><rect id="e78KU36NMzp109" width="8.8" height="0.4" rx="0" ry="0" transform="matrix(0.8872 -0.4614 0.4614 0.8872 236.701674 312.246638)" fill="rgb(74,74,74)" stroke="none" stroke-width="1"/><polygon id="e78KU36NMzp110" points="245.1,309.4 241.3,311.4 245.1,309.4 244.9,309 237.1,313.1 237.3,313.5 237.3,313.5 237.5,313.8 245.3,309.8" fill="rgb(74,74,74)" stroke="none" stroke-width="1"/><polygon id="e78KU36NMzp111" points="259.7,337.4 259.7,337.4 259.5,337 259.5,337 259.4,336.8 251.5,340.8 251.7,341.2 251.7,341.2 251.8,341.4 251.8,341.4 252,341.8 259.9,337.8" fill="rgb(74,74,74)" stroke="none" stroke-width="1"/><rect id="e78KU36NMzp112" width="8.8" height="0.4" rx="0" ry="0" transform="matrix(0.8872 -0.4614 0.4614 0.8872 252.304997 342.254801)" fill="rgb(74,74,74)" stroke="none" stroke-width="1"/><rect id="e78KU36NMzp113" width="8.8" height="0.4" rx="0" ry="0" transform="matrix(0.8871 -0.4615 0.4615 0.8871 252.697553 342.926882)" fill="rgb(74,74,74)" stroke="none" stroke-width="1"/><rect id="e78KU36NMzp114" width="8.8" height="0.4" rx="0" ry="0" transform="matrix(0.8872 -0.4614 0.4614 0.8872 253.115857 343.747481)" fill="rgb(74,74,74)" stroke="none" stroke-width="1"/><rect id="e78KU36NMzp115" width="8.8" height="0.4" rx="0" ry="0" transform="matrix(0.8872 -0.4614 0.4614 0.8872 253.496857 344.547681)" fill="rgb(74,74,74)" stroke="none" stroke-width="1"/><polygon id="e78KU36NMzp116" points="261.9,341.7 261.9,341.7 261.7,341.3 253.9,345.3 254.1,345.7 254.1,345.7 254.3,346.1 262.1,342" fill="rgb(74,74,74)" stroke="none" stroke-width="1"/><rect id="e78KU36NMzp117" width="8.8" height="0.4" rx="0" ry="0" transform="matrix(0.8872 -0.4614 0.4614 0.8872 254.488717 346.439961)" fill="rgb(74,74,74)" stroke="none" stroke-width="1"/><rect id="e78KU36NMzp118" width="8.8" height="0.4" rx="0" ry="0" transform="matrix(0.8872 -0.4614 0.4614 0.8872 254.909718 347.248161)" fill="rgb(74,74,74)" stroke="none" stroke-width="1"/><rect id="e78KU36NMzp119" width="8.8" height="0.4" rx="0" ry="0" transform="matrix(0.8871 -0.4615 0.4615 0.8871 255.293662 348.036191)" fill="rgb(74,74,74)" stroke="none" stroke-width="1"/><polygon id="e78KU36NMzp120" points="263.7,345.2 263.7,345.2 263.5,344.8 255.7,348.8 255.9,349.2 255.9,349.2 256.1,349.6 263.9,345.6" fill="rgb(74,74,74)" stroke="none" stroke-width="1"/><polygon id="e78KU36NMzp121" points="264.1,345.9 256.3,350 256.5,350.4 256.5,350.4 256.7,350.8 264.5,346.7" fill="rgb(74,74,74)" stroke="none" stroke-width="1"/><polygon id="e78KU36NMzp122" points="264.7,347.1 256.9,351.2 257.1,351.6 257.1,351.6 257.3,352 265.2,347.9" fill="rgb(74,74,74)" stroke="none" stroke-width="1"/><rect id="e78KU36NMzp123" width="8.8" height="0.4" rx="0" ry="0" transform="matrix(0.8871 -0.4615 0.4615 0.8871 257.48773 352.34142)" fill="rgb(74,74,74)" stroke="none" stroke-width="1"/><rect id="e78KU36NMzp124" width="8.8" height="0.4" rx="0" ry="0" transform="matrix(0.8872 -0.4614 0.4614 0.8872 257.886578 353.158441)" fill="rgb(74,74,74)" stroke="none" stroke-width="1"/><rect id="e78KU36NMzp125" width="8.8" height="0.4" rx="0" ry="0" transform="matrix(0.8872 -0.4614 0.4614 0.8872 258.307578 353.967641)" fill="rgb(74,74,74)" stroke="none" stroke-width="1"/><rect id="e78KU36NMzp126" width="8.8" height="0.4" rx="0" ry="0" transform="matrix(0.8871 -0.4615 0.4615 0.8871 258.680699 354.634949)" fill="rgb(74,74,74)" stroke="none" stroke-width="1"/><rect id="e78KU36NMzp127" width="8.8" height="0.4" rx="0" ry="0" transform="matrix(0.8872 -0.4614 0.4614 0.8872 259.125578 355.541041)" fill="rgb(74,74,74)" stroke="none" stroke-width="1"/><rect id="e78KU36NMzp128" width="8.8" height="0.4" rx="0" ry="0" transform="matrix(0.8872 -0.4614 0.4614 0.8872 237.712675 314.259639)" fill="rgb(74,74,74)" stroke="none" stroke-width="1"/><rect id="e78KU36NMzp129" width="8.8" height="0.4" rx="0" ry="0" transform="matrix(0.8872 -0.4614 0.4614 0.8872 238.113675 315.063839)" fill="rgb(74,74,74)" stroke="none" stroke-width="1"/><rect id="e78KU36NMzp130" width="8.8" height="0.4" rx="0" ry="0" transform="matrix(0.8872 -0.4614 0.4614 0.8872 238.485535 315.745319)" fill="rgb(74,74,74)" stroke="none" stroke-width="1"/><polygon id="e78KU36NMzp131" points="246.9,312.9 246.9,312.9 246.7,312.5 238.9,316.6 239.1,317 239.1,317 239.3,317.4 247.1,313.3" fill="rgb(74,74,74)" stroke="none" stroke-width="1"/><polygon id="e78KU36NMzp132" points="247.6,314.1 247.6,314.1 247.4,313.7 239.5,317.7 239.7,318.1 239.7,318.1 239.9,318.5 247.8,314.4" fill="rgb(74,74,74)" stroke="none" stroke-width="1"/><polygon id="e78KU36NMzp133" points="248.2,315.2 248.2,315.2 248,314.8 240.1,318.9 240.3,319.3 240.3,319.3 240.5,319.7 248.4,315.6" fill="rgb(74,74,74)" stroke="none" stroke-width="1"/><rect id="e78KU36NMzp134" width="8.8" height="0.4" rx="0" ry="0" transform="matrix(0.8872 -0.4614 0.4614 0.8872 240.727535 320.138919)" fill="rgb(74,74,74)" stroke="none" stroke-width="1"/><rect id="e78KU36NMzp135" width="8.8" height="0.4" rx="0" ry="0" transform="matrix(0.8872 -0.4614 0.4614 0.8872 241.090395 320.856399)" fill="rgb(74,74,74)" stroke="none" stroke-width="1"/><rect id="e78KU36NMzp136" width="8.8" height="0.4" rx="0" ry="0" transform="matrix(0.8872 -0.4614 0.4614 0.8872 241.529535 321.748319)" fill="rgb(74,74,74)" stroke="none" stroke-width="1"/><rect id="e78KU36NMzp137" width="8.8" height="0.4" rx="0" ry="0" transform="matrix(0.8871 -0.4615 0.4615 0.8871 242.005839 322.442386)" fill="rgb(74,74,74)" stroke="none" stroke-width="1"/><polygon id="e78KU36NMzp138" points="250.4,319.5 250.4,319.5 250.2,319.1 242.4,323.2 242.8,324 250.6,319.9" fill="rgb(74,74,74)" stroke="none" stroke-width="1"/><rect id="e78KU36NMzp139" width="8.8" height="0.4" rx="0" ry="0" transform="matrix(0.8872 -0.4614 0.4614 0.8872 243.013975 324.348939)" fill="rgb(74,74,74)" stroke="none" stroke-width="1"/><polygon id="e78KU36NMzp140" points="251.5,321.6 251.5,321.6 251.3,321.2 243.4,325.2 243.6,325.6 243.6,325.6 243.8,326 251.7,322" fill="rgb(74,74,74)" stroke="none" stroke-width="1"/><rect id="e78KU36NMzp141" width="8.8" height="0.4" rx="0" ry="0" transform="matrix(0.8872 -0.4614 0.4614 0.8872 243.988116 326.462659)" fill="rgb(74,74,74)" stroke="none" stroke-width="1"/><rect id="e78KU36NMzp142" width="8.8" height="0.4" rx="0" ry="0" transform="matrix(0.8871 -0.4615 0.4615 0.8871 244.380928 327.135155)" fill="rgb(74,74,74)" stroke="none" stroke-width="1"/><rect id="e78KU36NMzp143" width="8.8" height="0.4" rx="0" ry="0" transform="matrix(0.8872 -0.4614 0.4614 0.8872 244.826116 328.04006)" fill="rgb(74,74,74)" stroke="none" stroke-width="1"/><rect id="e78KU36NMzp144" width="8.8" height="0.4" rx="0" ry="0" transform="matrix(0.8872 -0.4614 0.4614 0.8872 245.319696 328.7494)" fill="rgb(74,74,74)" stroke="none" stroke-width="1"/><polygon id="e78KU36NMzp145" points="253.5,325.5 245.7,329.5 245.9,329.9 245.9,329.9 246.1,330.3 253.9,326.2" fill="rgb(74,74,74)" stroke="none" stroke-width="1"/><rect id="e78KU36NMzp146" width="8.8" height="0.4" rx="0" ry="0" transform="matrix(0.8872 -0.4614 0.4614 0.8872 246.292556 330.63768)" fill="rgb(74,74,74)" stroke="none" stroke-width="1"/><rect id="e78KU36NMzp147" width="8.8" height="0.4" rx="0" ry="0" transform="matrix(0.8872 -0.4614 0.4614 0.8872 246.693556 331.44188)" fill="rgb(74,74,74)" stroke="none" stroke-width="1"/><rect id="e78KU36NMzp148" width="8.8" height="0.4" rx="0" ry="0" transform="matrix(0.8872 -0.4614 0.4614 0.8872 247.103556 332.24808)" fill="rgb(74,74,74)" stroke="none" stroke-width="1"/><polygon id="e78KU36NMzp149" points="255.3,329 247.5,333 247.7,333.4 247.7,333.4 247.9,333.8 255.7,329.8" fill="rgb(74,74,74)" stroke="none" stroke-width="1"/><polygon id="e78KU36NMzp150" points="255.9,330.1 248.1,334.2 248.3,334.6 248.3,334.6 248.5,335 256.3,330.9" fill="rgb(74,74,74)" stroke="none" stroke-width="1"/><polygon id="e78KU36NMzp151" points="256.5,331.3 248.7,335.4 248.9,335.8 248.9,335.8 249.1,336.2 256.9,332.1" fill="rgb(74,74,74)" stroke="none" stroke-width="1"/><rect id="e78KU36NMzp152" width="8.8" height="0.4" rx="0" ry="0" transform="matrix(0.8871 -0.4615 0.4615 0.8871 249.291815 336.539543)" fill="rgb(74,74,74)" stroke="none" stroke-width="1"/><rect id="e78KU36NMzp153" width="8.8" height="0.4" rx="0" ry="0" transform="matrix(0.8872 -0.4614 0.4614 0.8872 249.690417 337.35616)" fill="rgb(74,74,74)" stroke="none" stroke-width="1"/><rect id="e78KU36NMzp154" width="8.8" height="0.4" rx="0" ry="0" transform="matrix(0.8872 -0.4614 0.4614 0.8872 250.110417 338.16536)" fill="rgb(74,74,74)" stroke="none" stroke-width="1"/><rect id="e78KU36NMzp155" width="8.8" height="0.4" rx="0" ry="0" transform="matrix(0.8871 -0.4615 0.4615 0.8871 250.483784 338.833072)" fill="rgb(74,74,74)" stroke="none" stroke-width="1"/><polygon id="e78KU36NMzp156" points="259,336 259,336 258.8,335.6 250.9,339.7 251.1,340.1 251.1,340.1 251.3,340.5 259.2,336.4" fill="rgb(74,74,74)" stroke="none" stroke-width="1"/></g></g><path id="e78KU36NMzp157" d="M277,399.6L270.5,342C269.3,337.3,264,334.1,258.7,335C253.4,335.8,251.3,337.8,251.3,345L251.4,360.2L252.2,369.8C252,373.4,252.4,377.1,253.6,380.6C255.5,386.3,253.7,376.6,251.7,382.2L251.1,384C247.1,398,250.3,413.4,254.5,419.8C256.6,423,257.6,425.8,261,427.9C266.2,431.2,268.8,447.1,271.8,457.1C276,471.2,278.9,496.3,278.9,496.3L295.5,626.6L366.5,626.6L294.6,401.1" transform="matrix(1 0 0 1 0 -1.198126)" fill="rgb(179,179,179)" stroke="none" stroke-width="1"/></g></g></svg>