<svg version="1.1" id="el_nbFgKUQlP" xmlns="http://www.w3.org/2000/svg" xmlns:xlink="http://www.w3.org/1999/xlink" x="0px" y="0px" viewBox="0 0 360 584" style="enable-background:new 0 0 360 584;" xml:space="preserve"> <style>svg {cursor : none;}</style><style>@-webkit-keyframes kf_el_LKThYzaUdV2_an_LnZy4Q2iK{0%{opacity: 1;}77.58%{opacity: 1;}78.18%{opacity: 0;}100%{opacity: 0;}}@keyframes kf_el_LKThYzaUdV2_an_LnZy4Q2iK{0%{opacity: 1;}77.58%{opacity: 1;}78.18%{opacity: 0;}100%{opacity: 0;}}@-webkit-keyframes kf_el_ItcxcrSkbAm_an_l-V_HyWP8{77.58%{-webkit-transform: translate(178.10000610351562px, 112.89999771118164px) scale(0.3, 0.3) translate(-178.10000610351562px, -112.89999771118164px);transform: translate(178.10000610351562px, 112.89999771118164px) scale(0.3, 0.3) translate(-178.10000610351562px, -112.89999771118164px);}82.42%{-webkit-transform: translate(178.10000610351562px, 112.89999771118164px) scale(1.05, 1.05) translate(-178.10000610351562px, -112.89999771118164px);transform: translate(178.10000610351562px, 112.89999771118164px) scale(1.05, 1.05) translate(-178.10000610351562px, -112.89999771118164px);}83.64%{-webkit-transform: translate(178.10000610351562px, 112.89999771118164px) scale(1, 1) translate(-178.10000610351562px, -112.89999771118164px);transform: translate(178.10000610351562px, 112.89999771118164px) scale(1, 1) translate(-178.10000610351562px, -112.89999771118164px);}0%{-webkit-transform: translate(178.10000610351562px, 112.89999771118164px) scale(0.3, 0.3) translate(-178.10000610351562px, -112.89999771118164px);transform: translate(178.10000610351562px, 112.89999771118164px) scale(0.3, 0.3) translate(-178.10000610351562px, -112.89999771118164px);}100%{-webkit-transform: translate(178.10000610351562px, 112.89999771118164px) scale(1, 1) translate(-178.10000610351562px, -112.89999771118164px);transform: translate(178.10000610351562px, 112.89999771118164px) scale(1, 1) translate(-178.10000610351562px, -112.89999771118164px);}}@keyframes kf_el_ItcxcrSkbAm_an_l-V_HyWP8{77.58%{-webkit-transform: translate(178.10000610351562px, 112.89999771118164px) scale(0.3, 0.3) translate(-178.10000610351562px, -112.89999771118164px);transform: translate(178.10000610351562px, 112.89999771118164px) scale(0.3, 0.3) translate(-178.10000610351562px, -112.89999771118164px);}82.42%{-webkit-transform: translate(178.10000610351562px, 112.89999771118164px) scale(1.05, 1.05) translate(-178.10000610351562px, -112.89999771118164px);transform: translate(178.10000610351562px, 112.89999771118164px) scale(1.05, 1.05) translate(-178.10000610351562px, -112.89999771118164px);}83.64%{-webkit-transform: translate(178.10000610351562px, 112.89999771118164px) scale(1, 1) translate(-178.10000610351562px, -112.89999771118164px);transform: translate(178.10000610351562px, 112.89999771118164px) scale(1, 1) translate(-178.10000610351562px, -112.89999771118164px);}0%{-webkit-transform: translate(178.10000610351562px, 112.89999771118164px) scale(0.3, 0.3) translate(-178.10000610351562px, -112.89999771118164px);transform: translate(178.10000610351562px, 112.89999771118164px) scale(0.3, 0.3) translate(-178.10000610351562px, -112.89999771118164px);}100%{-webkit-transform: translate(178.10000610351562px, 112.89999771118164px) scale(1, 1) translate(-178.10000610351562px, -112.89999771118164px);transform: translate(178.10000610351562px, 112.89999771118164px) scale(1, 1) translate(-178.10000610351562px, -112.89999771118164px);}}@-webkit-keyframes kf_el_ItcxcrSkbAm_an_IG8tJhQPs{77.58%{opacity: 0;}82.42%{opacity: 1;}0%{opacity: 0;}100%{opacity: 1;}}@keyframes kf_el_ItcxcrSkbAm_an_IG8tJhQPs{77.58%{opacity: 0;}82.42%{opacity: 1;}0%{opacity: 0;}100%{opacity: 1;}}@-webkit-keyframes kf_el_ntZ2qN_SjdG_an_9zE0iQMf4{10.91%{-webkit-transform: translate(200.89999389648438px, 96.9000015258789px) scale(1, 1.01) translate(-200.89999389648438px, -96.9000015258789px);transform: translate(200.89999389648438px, 96.9000015258789px) scale(1, 1.01) translate(-200.89999389648438px, -96.9000015258789px);}0%{-webkit-transform: translate(200.89999389648438px, 96.9000015258789px) scale(1, 1.01) translate(-200.89999389648438px, -96.9000015258789px);transform: translate(200.89999389648438px, 96.9000015258789px) scale(1, 1.01) translate(-200.89999389648438px, -96.9000015258789px);}100%{-webkit-transform: translate(200.89999389648438px, 96.9000015258789px) scale(1, 1.01) translate(-200.89999389648438px, -96.9000015258789px);transform: translate(200.89999389648438px, 96.9000015258789px) scale(1, 1.01) translate(-200.89999389648438px, -96.9000015258789px);}}@keyframes kf_el_ntZ2qN_SjdG_an_9zE0iQMf4{10.91%{-webkit-transform: translate(200.89999389648438px, 96.9000015258789px) scale(1, 1.01) translate(-200.89999389648438px, -96.9000015258789px);transform: translate(200.89999389648438px, 96.9000015258789px) scale(1, 1.01) translate(-200.89999389648438px, -96.9000015258789px);}0%{-webkit-transform: translate(200.89999389648438px, 96.9000015258789px) scale(1, 1.01) translate(-200.89999389648438px, -96.9000015258789px);transform: translate(200.89999389648438px, 96.9000015258789px) scale(1, 1.01) translate(-200.89999389648438px, -96.9000015258789px);}100%{-webkit-transform: translate(200.89999389648438px, 96.9000015258789px) scale(1, 1.01) translate(-200.89999389648438px, -96.9000015258789px);transform: translate(200.89999389648438px, 96.9000015258789px) scale(1, 1.01) translate(-200.89999389648438px, -96.9000015258789px);}}@-webkit-keyframes kf_el_t3KZdbcsAAM_an_saa81RL_U{54.55%{-webkit-transform: translate(211.3752899169922px, 257.8974914550781px) translate(-211.3752899169922px, -257.8974914550781px) translate(0px, 330px);transform: translate(211.3752899169922px, 257.8974914550781px) translate(-211.3752899169922px, -257.8974914550781px) translate(0px, 330px);}66.67%{-webkit-transform: translate(211.3752899169922px, 257.8974914550781px) translate(-211.3752899169922px, -257.8974914550781px) translate(0px, 0px);transform: translate(211.3752899169922px, 257.8974914550781px) translate(-211.3752899169922px, -257.8974914550781px) translate(0px, 0px);}68.48%{-webkit-transform: translate(211.3752899169922px, 257.8974914550781px) translate(-211.3752899169922px, -257.8974914550781px) translate(0px, 10px);transform: translate(211.3752899169922px, 257.8974914550781px) translate(-211.3752899169922px, -257.8974914550781px) translate(0px, 10px);}80%{-webkit-transform: translate(211.3752899169922px, 257.8974914550781px) translate(-211.3752899169922px, -257.8974914550781px) translate(0px, 10px);transform: translate(211.3752899169922px, 257.8974914550781px) translate(-211.3752899169922px, -257.8974914550781px) translate(0px, 10px);}92.12%{-webkit-transform: translate(211.3752899169922px, 257.8974914550781px) translate(-211.3752899169922px, -257.8974914550781px) translate(0px, 330px);transform: translate(211.3752899169922px, 257.8974914550781px) translate(-211.3752899169922px, -257.8974914550781px) translate(0px, 330px);}0%{-webkit-transform: translate(211.3752899169922px, 257.8974914550781px) translate(-211.3752899169922px, -257.8974914550781px) translate(0px, 330px);transform: translate(211.3752899169922px, 257.8974914550781px) translate(-211.3752899169922px, -257.8974914550781px) translate(0px, 330px);}100%{-webkit-transform: translate(211.3752899169922px, 257.8974914550781px) translate(-211.3752899169922px, -257.8974914550781px) translate(0px, 330px);transform: translate(211.3752899169922px, 257.8974914550781px) translate(-211.3752899169922px, -257.8974914550781px) translate(0px, 330px);}}@keyframes kf_el_t3KZdbcsAAM_an_saa81RL_U{54.55%{-webkit-transform: translate(211.3752899169922px, 257.8974914550781px) translate(-211.3752899169922px, -257.8974914550781px) translate(0px, 330px);transform: translate(211.3752899169922px, 257.8974914550781px) translate(-211.3752899169922px, -257.8974914550781px) translate(0px, 330px);}66.67%{-webkit-transform: translate(211.3752899169922px, 257.8974914550781px) translate(-211.3752899169922px, -257.8974914550781px) translate(0px, 0px);transform: translate(211.3752899169922px, 257.8974914550781px) translate(-211.3752899169922px, -257.8974914550781px) translate(0px, 0px);}68.48%{-webkit-transform: translate(211.3752899169922px, 257.8974914550781px) translate(-211.3752899169922px, -257.8974914550781px) translate(0px, 10px);transform: translate(211.3752899169922px, 257.8974914550781px) translate(-211.3752899169922px, -257.8974914550781px) translate(0px, 10px);}80%{-webkit-transform: translate(211.3752899169922px, 257.8974914550781px) translate(-211.3752899169922px, -257.8974914550781px) translate(0px, 10px);transform: translate(211.3752899169922px, 257.8974914550781px) translate(-211.3752899169922px, -257.8974914550781px) translate(0px, 10px);}92.12%{-webkit-transform: translate(211.3752899169922px, 257.8974914550781px) translate(-211.3752899169922px, -257.8974914550781px) translate(0px, 330px);transform: translate(211.3752899169922px, 257.8974914550781px) translate(-211.3752899169922px, -257.8974914550781px) translate(0px, 330px);}0%{-webkit-transform: translate(211.3752899169922px, 257.8974914550781px) translate(-211.3752899169922px, -257.8974914550781px) translate(0px, 330px);transform: translate(211.3752899169922px, 257.8974914550781px) translate(-211.3752899169922px, -257.8974914550781px) translate(0px, 330px);}100%{-webkit-transform: translate(211.3752899169922px, 257.8974914550781px) translate(-211.3752899169922px, -257.8974914550781px) translate(0px, 330px);transform: translate(211.3752899169922px, 257.8974914550781px) translate(-211.3752899169922px, -257.8974914550781px) translate(0px, 330px);}}@-webkit-keyframes kf_el_-4rWRTDQ9jI_an_fOzR7iLYj{0%{-webkit-transform: translate(2px, 257.4000244140625px) translate(-2px, -257.4000244140625px) translate(100px, 330px);transform: translate(2px, 257.4000244140625px) translate(-2px, -257.4000244140625px) translate(100px, 330px);}18.18%{-webkit-transform: translate(2px, 257.4000244140625px) translate(-2px, -257.4000244140625px) translate(100px, 330px);transform: translate(2px, 257.4000244140625px) translate(-2px, -257.4000244140625px) translate(100px, 330px);}29.09%{-webkit-transform: translate(2px, 257.4000244140625px) translate(-2px, -257.4000244140625px) translate(50px, 0px);transform: translate(2px, 257.4000244140625px) translate(-2px, -257.4000244140625px) translate(50px, 0px);}33.33%{-webkit-transform: translate(2px, 257.4000244140625px) translate(-2px, -257.4000244140625px) translate(50px, 10px);transform: translate(2px, 257.4000244140625px) translate(-2px, -257.4000244140625px) translate(50px, 10px);}44.24%{-webkit-transform: translate(2px, 257.4000244140625px) translate(-2px, -257.4000244140625px) translate(50px, 10px);transform: translate(2px, 257.4000244140625px) translate(-2px, -257.4000244140625px) translate(50px, 10px);}51.52%{-webkit-transform: translate(2px, 257.4000244140625px) translate(-2px, -257.4000244140625px) translate(50px, 330px);transform: translate(2px, 257.4000244140625px) translate(-2px, -257.4000244140625px) translate(50px, 330px);}100%{-webkit-transform: translate(2px, 257.4000244140625px) translate(-2px, -257.4000244140625px) translate(50px, 330px);transform: translate(2px, 257.4000244140625px) translate(-2px, -257.4000244140625px) translate(50px, 330px);}}@keyframes kf_el_-4rWRTDQ9jI_an_fOzR7iLYj{0%{-webkit-transform: translate(2px, 257.4000244140625px) translate(-2px, -257.4000244140625px) translate(100px, 330px);transform: translate(2px, 257.4000244140625px) translate(-2px, -257.4000244140625px) translate(100px, 330px);}18.18%{-webkit-transform: translate(2px, 257.4000244140625px) translate(-2px, -257.4000244140625px) translate(100px, 330px);transform: translate(2px, 257.4000244140625px) translate(-2px, -257.4000244140625px) translate(100px, 330px);}29.09%{-webkit-transform: translate(2px, 257.4000244140625px) translate(-2px, -257.4000244140625px) translate(50px, 0px);transform: translate(2px, 257.4000244140625px) translate(-2px, -257.4000244140625px) translate(50px, 0px);}33.33%{-webkit-transform: translate(2px, 257.4000244140625px) translate(-2px, -257.4000244140625px) translate(50px, 10px);transform: translate(2px, 257.4000244140625px) translate(-2px, -257.4000244140625px) translate(50px, 10px);}44.24%{-webkit-transform: translate(2px, 257.4000244140625px) translate(-2px, -257.4000244140625px) translate(50px, 10px);transform: translate(2px, 257.4000244140625px) translate(-2px, -257.4000244140625px) translate(50px, 10px);}51.52%{-webkit-transform: translate(2px, 257.4000244140625px) translate(-2px, -257.4000244140625px) translate(50px, 330px);transform: translate(2px, 257.4000244140625px) translate(-2px, -257.4000244140625px) translate(50px, 330px);}100%{-webkit-transform: translate(2px, 257.4000244140625px) translate(-2px, -257.4000244140625px) translate(50px, 330px);transform: translate(2px, 257.4000244140625px) translate(-2px, -257.4000244140625px) translate(50px, 330px);}}#el_nbFgKUQlP *{-webkit-animation-duration: 5.5s;animation-duration: 5.5s;-webkit-animation-iteration-count: infinite;animation-iteration-count: infinite;-webkit-animation-timing-function: cubic-bezier(0, 0, 1, 1);animation-timing-function: cubic-bezier(0, 0, 1, 1);}#el_8R2YRrRNVz{fill: #F2F2F2;}#el_Ri6chRFbio{fill: #FFFFFF;}#el_PCwLOE7cUj{fill: #E6E6E6;}#el_OcdrvE1kn-{fill: #F2F2F2;}#el_9_mNdE05-o{fill: #DDDDDD;}#el_0fGqiv7m4t{fill: #F2F2F2;}#el_wjh7hxcqJd{fill: #F2F2F2;}#el_yCGHibu58J{fill: #4D4D4D;}#el_tRZ7yksyu-{fill: #4D4D4D;}#el_fxhDWmY4qZ{fill: #E6E6E6;}#el_HxCDEN95hg{fill: #4D4D4D;}#el_ZrMB1_03W6{fill: #CCCCCC;}#el_wT2OoutMo_{fill: #B3B3B3;}#el_QuCsb-KU0P{fill: #4D4D4D;}#el_Kf0LLw-GQ-p{fill: #B3B3B3;}#el_NJHhhnbQKIy{fill: #CCCCCC;}#el_gq0AH-7l7sR{fill: #F2F2F2;}#el_Gml-LtlJd4b{fill: none;stroke: #CCCCCC;stroke-width: 4.13;stroke-miterlimit: 10;}#el_3wp3S3Ip1bJ{fill: #FE7F78;visibility: hidden;}#el_vRONuxperpL{fill: #37E8D7;}#el_RXvzYTZi-J9{fill: #403C51;}#el_Hl7B2pjmh_J{fill: #403C51;}#el_Mhmnd8os07x{fill: #FFFFFF;}#el_QQleE06tVTJ{fill: #FFFFFF;}#el_ntZ2qN_SjdG{fill: #F2F2F2;}#el_3ZlHYMnLQcv{fill: #FFFFFF;}#el_QDwobtqhYBf{fill: #231F20;}#el_oG0gcwPQKI9{fill: #231F20;}#el_KrdvSmrBPGR{fill: #231F20;}#el_fTT7UvdijBE{fill: #231F20;}#el_sdoJ1i7sqTM{fill: #231F20;}#el_LXNgVAjycZl{fill: #231F20;}#el_49URisljwDu{fill: #231F20;}#el_WlCuydMVUZ6{fill: #231F20;}#el_y2CZwhltijV{fill: #FFFFFF;}#el_OrBx5X4zhwy{fill: #FFFFFF;}#el_RYyEYMdZsYZ{fill: #403C51;}#el_nkjR392asXR{fill: #403C51;}#el_YF2MSvMX3CA{display: none;}#el_x5S1S7on3Z3{display: inline;}#el_REBmZuOglZC{fill: #F2F2F2;}#el_nR9UOHZ6wvO{fill: #FFFFFF;}#el_zNRK-HiQhC5{fill: #231F20;}#el_YL7M-Bb9vmj{fill: #231F20;}#el_7CeDhk-asVV{fill: #231F20;}#el_hxtagXeU3-s{fill: #231F20;}#el_a6hL4QETRmA{fill: #231F20;}#el_tzW8rNj7zsy{fill: #231F20;}#el_dH1KvH27e3N{fill: #231F20;}#el_SvFGyTli-CP{fill: #231F20;}#el_WVJkVRKvekn{display: inline;}#el_oq2N8iTkTLG{fill: #FFFFFF;}#el_UFbloFCnaUD{fill: #FFFFFF;}#el_ESROjrpEe4k{fill: #0E4160;}#el_iN_jUrpcQdh{fill: #0E4160;}#el_vqjLNvv-vON{fill: #1A1A1A;}#el_egGCOv0ME59{fill: #1A1A1A;}#el_KhccMrmrNDU{fill: #1A1A1A;}#el_RQvfjuT3AV4{fill: none;stroke: #231F20;stroke-width: 0.4487;stroke-miterlimit: 10;}#el_fRhVj9eA3dE{fill: none;stroke: #231F20;stroke-width: 0.4487;stroke-miterlimit: 10;}#el_AB0YWWqrERQ{fill: none;stroke: #231F20;stroke-width: 0.4487;stroke-miterlimit: 10;}#el_8qVrQF8v_ez{fill: #B3B3B3;}#el_8bfL0GXLn6K{fill: #B3B3B3;}#el_tbTPU8UB2mw{fill: #B3B3B3;}#el_zgIlsOXR7Fs{fill: #B3B3B3;}#el_a44lP8aM5b2{fill: #808080;}#el_h4-yph2XPg6{fill: #E6E6E6;}#el_OOeTEOS77U8{fill: #1A1A1A;}#el_ZPfrkpX5qXT{fill: #1A1A1A;}#el_MbtwApTCAxj{fill: none;stroke: #231F20;stroke-width: 1.1471;stroke-miterlimit: 10;}#el_Sw9QrZOSPUU{fill: none;stroke: #231F20;stroke-width: 1.1471;stroke-miterlimit: 10;}#el_f6aJvbVoS5M{fill: none;stroke: #231F20;stroke-width: 1.1471;stroke-miterlimit: 10;}#el_3QE299HYjTV{fill: #FFFFFF;}#el_BlRlEad8g2d{fill: #231F20;}#el_AIOFEqQ5vaJ{fill: #231F20;}#el_okqqZHwNBWs{fill: #231F20;}#el_DVITQM4xQA_{fill: #231F20;}#el_FN0OATURSqQ{fill: #231F20;}#el_QzGbZMgsxet{fill: #231F20;}#el_r2WLiGJjPQx{fill: #231F20;}#el_tZRIMhKToiG{fill: #B3B3B3;}#el_7X8bR8Z1U5I{fill: #B3B3B3;}#el_BNS4r33ILVC{fill: #B3B3B3;}#el_xtZb8kEWdie{fill: #B3B3B3;}#el_-4rWRTDQ9jI_an_fOzR7iLYj{-webkit-animation-fill-mode: backwards;animation-fill-mode: backwards;-webkit-transform: translate(2px, 257.4000244140625px) translate(-2px, -257.4000244140625px) translate(100px, 330px);transform: translate(2px, 257.4000244140625px) translate(-2px, -257.4000244140625px) translate(100px, 330px);-webkit-animation-name: kf_el_-4rWRTDQ9jI_an_fOzR7iLYj;animation-name: kf_el_-4rWRTDQ9jI_an_fOzR7iLYj;-webkit-animation-timing-function: cubic-bezier(0.42, 0, 0.58, 1);animation-timing-function: cubic-bezier(0.42, 0, 0.58, 1);}#el_t3KZdbcsAAM_an_saa81RL_U{-webkit-animation-fill-mode: backwards;animation-fill-mode: backwards;-webkit-transform: translate(211.3752899169922px, 257.8974914550781px) translate(-211.3752899169922px, -257.8974914550781px) translate(0px, 330px);transform: translate(211.3752899169922px, 257.8974914550781px) translate(-211.3752899169922px, -257.8974914550781px) translate(0px, 330px);-webkit-animation-name: kf_el_t3KZdbcsAAM_an_saa81RL_U;animation-name: kf_el_t3KZdbcsAAM_an_saa81RL_U;-webkit-animation-timing-function: cubic-bezier(0.42, 0, 0.58, 1);animation-timing-function: cubic-bezier(0.42, 0, 0.58, 1);}#el_ntZ2qN_SjdG_an_K08qTZgAi{-webkit-transform: translate(200.89999389648438px, 96.9000015258789px) translate(-200.89999389648438px, -96.9000015258789px) translate(0px, 4px);transform: translate(200.89999389648438px, 96.9000015258789px) translate(-200.89999389648438px, -96.9000015258789px) translate(0px, 4px);}#el_ntZ2qN_SjdG_an_9zE0iQMf4{-webkit-animation-fill-mode: backwards;animation-fill-mode: backwards;-webkit-transform: translate(200.89999389648438px, 96.9000015258789px) scale(1, 1.01) translate(-200.89999389648438px, -96.9000015258789px);transform: translate(200.89999389648438px, 96.9000015258789px) scale(1, 1.01) translate(-200.89999389648438px, -96.9000015258789px);-webkit-animation-name: kf_el_ntZ2qN_SjdG_an_9zE0iQMf4;animation-name: kf_el_ntZ2qN_SjdG_an_9zE0iQMf4;-webkit-animation-timing-function: cubic-bezier(0, 0, 1, 1);animation-timing-function: cubic-bezier(0, 0, 1, 1);}#el_M_OdDy7EpgJ{visibility: hidden;}#el_ItcxcrSkbAm{-webkit-animation-fill-mode: backwards;animation-fill-mode: backwards;opacity: 0;-webkit-animation-name: kf_el_ItcxcrSkbAm_an_IG8tJhQPs;animation-name: kf_el_ItcxcrSkbAm_an_IG8tJhQPs;-webkit-animation-timing-function: cubic-bezier(0.42, 0, 0.58, 1);animation-timing-function: cubic-bezier(0.42, 0, 0.58, 1);}#el_ItcxcrSkbAm_an_l-V_HyWP8{-webkit-animation-fill-mode: backwards;animation-fill-mode: backwards;-webkit-transform: translate(178.10000610351562px, 112.89999771118164px) scale(0.3, 0.3) translate(-178.10000610351562px, -112.89999771118164px);transform: translate(178.10000610351562px, 112.89999771118164px) scale(0.3, 0.3) translate(-178.10000610351562px, -112.89999771118164px);-webkit-animation-name: kf_el_ItcxcrSkbAm_an_l-V_HyWP8;animation-name: kf_el_ItcxcrSkbAm_an_l-V_HyWP8;-webkit-animation-timing-function: cubic-bezier(0, 0, 1, 1);animation-timing-function: cubic-bezier(0, 0, 1, 1);}#el_LKThYzaUdV2{-webkit-animation-fill-mode: backwards;animation-fill-mode: backwards;opacity: 1;-webkit-animation-name: kf_el_LKThYzaUdV2_an_LnZy4Q2iK;animation-name: kf_el_LKThYzaUdV2_an_LnZy4Q2iK;-webkit-animation-timing-function: cubic-bezier(0, 0, 1, 1);animation-timing-function: cubic-bezier(0, 0, 1, 1);}</style>

<title>douro-BTC-amazonite</title>
<path d="M27.8,481.5h295.1c14.2,0,25.7-13,25.7-29.1V29.1C348.6,13,337.1,0,322.9,0H27.8C13.6,0,2.1,13,2.1,29.1v423.4&#10;&#9;C2.1,468.5,13.6,481.5,27.8,481.5z" id="el_8R2YRrRNVz"/>
<g id="el_gxum9jjGcU">
	<path d="M361,240.1v27.7c0,0.8-0.6,1.6-1.4,1.8l-11,2.3v-35.8l11,2.3C360.4,238.5,361,239.3,361,240.1z" id="el_Ri6chRFbio"/>
	<path d="M348.6,403.1v54.1c0,15-12.2,27.2-27.2,27.2H28.2c-15,0-27.2-12.2-27.2-27.2v-54.1h1&#10;&#9;&#9;c0,14.2,11.5,25.7,25.7,25.7h295.1C337.1,428.8,348.6,417.3,348.6,403.1z" id="el_PCwLOE7cUj"/>
	<path d="M303.5,190.2h0.7V44.1h-0.7V44H47.2v0.1h-0.8v146.1L303.5,190.2L303.5,190.2z M348.6,403v0.1&#10;&#9;&#9;c0,14.2-11.5,25.7-25.7,25.7H27.8C13.6,428.8,2,417.3,2,403.1V28.6C2,14.4,13.5,2.8,27.7,2.8l0,0h295.1c14.2,0,25.7,11.5,25.7,25.7&#10;&#9;&#9;l0,0L348.6,403L348.6,403z M306.6,355.6V252.4c0-2.7-2.2-4.9-4.9-4.9l0,0h-81c-2.7,0-4.9,2.2-4.9,4.9l0,0v103.2&#10;&#9;&#9;c0,2.7,2.2,4.9,4.9,4.9l0,0h81C304.5,360.5,306.6,358.3,306.6,355.6z M182.7,367.6v-48.5c0-2.7-2.2-4.9-4.9-4.9H59.2&#10;&#9;&#9;c-2.7,0-4.9,2.2-4.9,4.9v48.5c0,2.7,2.2,4.9,4.9,4.9l0,0h118.6C180.5,372.5,182.7,370.3,182.7,367.6L182.7,367.6z M179.6,21.5&#10;&#9;&#9;c-0.3-2.5-2.6-4.2-5-3.8c-2,0.3-3.6,1.8-3.8,3.8c0.3,2.5,2.6,4.2,5.1,3.8C177.8,25.1,179.3,23.5,179.6,21.5z" id="el_OcdrvE1kn-"/>
	<path d="M306.6,252.4v103.2c0,2.7-2.2,4.9-4.9,4.9h-81c-2.7,0-4.9-2.2-4.9-4.9l0,0V252.4c0-2.7,2.2-4.9,4.9-4.9l0,0h81&#10;&#9;&#9;C304.5,247.5,306.6,249.7,306.6,252.4L306.6,252.4z M263.3,306.3c0-1.1-0.9-2.1-2.1-2.1s-2.1,0.9-2.1,2.1c0,1.1,0.9,2.1,2.1,2.1&#10;&#9;&#9;S263.3,307.5,263.3,306.3L263.3,306.3z" id="el_9_mNdE05-o"/>
	<rect x="303.5" y="44.1" width="0.7" height="146.1" id="el_0fGqiv7m4t"/>
	<rect x="47.2" y="44.1" width="256.3" height="0.1" id="el_wjh7hxcqJd"/>
	<path d="M261.2,304.2c1.1,0,2.1,0.9,2.1,2.1s-0.9,2.1-2.1,2.1s-2.1-0.9-2.1-2.1l0,0&#10;&#9;&#9;C259.2,305.2,260.1,304.2,261.2,304.2L261.2,304.2z" id="el_yCGHibu58J"/>
	<path d="M182.7,365.8v1.8c0,2.7-2.2,4.9-4.9,4.9l0,0H59.2c-2.7,0-4.9-2.2-4.9-4.9l0,0v-1.8c0,2.9,2.4,5.3,5.3,5.3l0,0&#10;&#9;&#9;h117.7C180.3,371.2,182.7,368.8,182.7,365.8L182.7,365.8z" id="el_tRZ7yksyu-"/>
	<path d="M182.7,319.1v46.7c0,2.9-2.4,5.3-5.3,5.3l0,0H59.6c-2.9,0-5.3-2.4-5.3-5.3l0,0v-46.7c0-2.7,2.2-4.9,4.9-4.9&#10;&#9;&#9;h118.6C180.5,314.2,182.7,316.4,182.7,319.1z M160.9,355.3V331c0-2.2-1.8-4-4-4l0,0H80c-2.2,0-4,1.8-4,4l0,0v24.4c0,2.2,1.8,4,4,4&#10;&#9;&#9;l0,0h76.9C159.1,359.4,160.9,357.6,160.9,355.3L160.9,355.3z" id="el_fxhDWmY4qZ"/>
	<path d="M175.2,17.6c2.3-0.1,4.3,1.6,4.4,3.9c-0.3,2.5-2.6,4.2-5.1,3.8c-2-0.3-3.5-1.8-3.8-3.8&#10;&#9;&#9;C170.9,19.2,172.9,17.5,175.2,17.6z" id="el_HxCDEN95hg"/>
	<path d="M160.9,352.8v2.5c0,2.2-1.8,4-4,4l0,0H80c-2.2,0-4-1.8-4-4l0,0v-2.5H160.9z" id="el_ZrMB1_03W6"/>
	<rect x="76" y="347.3" width="84.9" height="5.5" id="el_wT2OoutMo_"/>
	<rect x="76" y="339.8" width="84.9" height="7.5" id="el_QuCsb-KU0P"/>
	<rect x="76" y="333.5" width="84.9" height="6.3" id="el_Kf0LLw-GQ-p"/>
	<path d="M160.9,331v2.5H76V331c0-2.2,1.8-4,4-4l0,0h76.9C159.1,327,160.9,328.7,160.9,331L160.9,331z" id="el_NJHhhnbQKIy"/>
	<rect x="46.4" y="44.1" width="0.8" height="146.1" id="el_gq0AH-7l7sR"/>
	<path d="M348.6,403V28.6c0-14.2-11.5-25.7-25.7-25.7l0,0H27.8C13.6,2.8,2,14.3,2,28.6l0,0v374.5&#10;&#9;&#9;c0,14.2,11.5,25.7,25.7,25.7h295.1c14.2,0,25.7-11.5,25.7-25.7" id="el_Gml-LtlJd4b"/>
</g>

<rect id="el_vRONuxperpL" x="47.2" y="44.1" width="256.3" height="146.1"/>

<g id="el_ItcxcrSkbAm_an_l-V_HyWP8" data-animator-group="true" data-animator-type="2"><g id="el_ItcxcrSkbAm">
	<path d="M178.1,71.9c-22.6,0-41,18.4-41,41s18.4,41,41,41s41-18.4,41-41S200.6,71.9,178.1,71.9z M178.1,146.2&#10;&#9;&#9;c-18.4,0-33.3-15-33.3-33.3s15-33.3,33.3-33.3s33.3,15,33.3,33.3S196.5,146.2,178.1,146.2z" id="el_Mhmnd8os07x"/>
	<path d="M194.9,98.4c-1.6-1.3-4-1.1-5.4,0.6l-16,19.9l-4.9-4.8c-1.5-1.5-3.9-1.5-5.4,0.1c-1.5,1.5-1.5,3.9,0.1,5.4&#10;&#9;&#9;l7.9,7.7c0.7,0.7,1.7,1.1,2.7,1.1c0.1,0,0.1,0,0.2,0c1.1-0.1,2.1-0.6,2.7-1.5l18.7-23.2C196.7,102.1,196.5,99.7,194.9,98.4z" id="el_QQleE06tVTJ"/>
</g></g>
<g id="el_LKThYzaUdV2">
	<g id="el_zLrWpiQp9_0">
		<g id="el_GT-XD4LCvd3">
			<g id="el_ntZ2qN_SjdG_an_9zE0iQMf4" data-animator-group="true" data-animator-type="2"><polygon points="270.6,189.6 200.9,190.2 200.9,96.9 270.6,96.9 &#9;&#9;&#9;" id="el_ntZ2qN_SjdG"/></g>
			<g id="el_4W9eyBZsyBq">
				<rect id="el_3ZlHYMnLQcv" x="213.7" y="112.9" width="46.2" height="46.2"/>
				<g id="el_V_lUJoDCqPG">
					<rect x="236.7" y="120.6" width="7.7" height="7.7" id="el_QDwobtqhYBf"/>
					<rect x="244.5" y="112.9" width="7.7" height="7.7" id="el_oG0gcwPQKI9"/>
					<rect x="252.2" y="120.6" width="7.7" height="15.4" id="el_KrdvSmrBPGR"/>
					<polygon points="244.5,143.6 244.5,135.9 236.7,135.9 236.7,143.6 244.5,143.6 244.5,151.4 252.2,151.4 &#10;&#9;&#9;&#9;&#9;&#9;&#9;252.2,159.1 259.9,159.1 259.9,143.6 &#9;&#9;&#9;&#9;&#9;" id="el_fTT7UvdijBE"/>
					<rect x="229" y="143.6" width="7.7" height="7.7" id="el_sdoJ1i7sqTM"/>
					<polygon points="221.3,135.9 229,135.9 229,120.6 236.7,120.6 236.7,112.9 213.7,112.9 213.7,128.3 221.3,128.3 &#10;&#9;&#9;&#9;&#9;&#9;&#9;&#9;&#9;&#9;&#9;&#9;" id="el_LXNgVAjycZl"/>
					<polygon points="221.3,143.6 213.7,143.6 213.7,159.1 229,159.1 229,151.4 221.3,151.4 &#9;&#9;&#9;&#9;&#9;" id="el_49URisljwDu"/>
				</g>
			</g>
		</g>
		<path id="el_WlCuydMVUZ6" d="M263.5,88.9h-55.7c-4.1,0-7.6,3.4-7.6,7.6l0.1,93.7h1.1l-0.1-93.1h68.8v92.5h1.1v-93&#10;&#9;&#9;&#9;C271.1,92.3,267.7,88.9,263.5,88.9z"/>
	</g>
	<g id="el_OJVIRxrGSZQ">
		<path id="el_y2CZwhltijV" d="M171.6,96H81.5c-1.5,0-2.7-1.2-2.7-2.7s1.2-2.7,2.7-2.7h90.1c1.5,0,2.7,1.2,2.7,2.7&#10;&#9;&#9;&#9;C174.3,94.7,173.2,96,171.6,96z"/>
		<path id="el_OrBx5X4zhwy" d="M144.5,109.5h-63c-1.5,0-2.7-1.2-2.7-2.7s1.2-2.7,2.7-2.7h63c1.5,0,2.7,1.2,2.7,2.7&#10;&#9;&#9;&#9;S146,109.5,144.5,109.5z"/>
		<path id="el_RYyEYMdZsYZ" d="M143.2,129.4h-63c-0.7,0-1.3-0.6-1.3-1.3s0.6-1.3,1.3-1.3h63c0.7,0,1.3,0.6,1.3,1.3&#10;&#9;&#9;&#9;C144.5,128.8,143.9,129.4,143.2,129.4z"/>
		<path id="el_nkjR392asXR" d="M128.9,139.6H80.2c-0.7,0-1.3-0.6-1.3-1.3s0.6-1.3,1.3-1.3H129c0.7,0,1.3,0.6,1.3,1.3&#10;&#9;&#9;&#9;S129.7,139.6,128.9,139.6z"/>
	</g>
</g>
<g id="el_YF2MSvMX3CA">
	<g id="el_x5S1S7on3Z3">
		<g id="el_2n-6r3-wJAm">
			<polygon points="270.6,190.2 200.9,190.8 200.9,97.5 270.6,97.5 &#9;&#9;&#9;" id="el_REBmZuOglZC"/>
			<g id="el_H6hFQ3Wok2G">
				<rect id="el_nR9UOHZ6wvO" x="213.7" y="113.5" width="46.2" height="46.2"/>
				<g id="el_CTAosR8GZMt">
					<rect x="236.7" y="121.2" width="7.7" height="7.7" id="el_zNRK-HiQhC5"/>
					<rect x="244.5" y="113.5" width="7.7" height="7.7" id="el_YL7M-Bb9vmj"/>
					<rect x="252.2" y="121.2" width="7.7" height="15.4" id="el_7CeDhk-asVV"/>
					<polygon points="244.5,144.2 244.5,136.5 236.7,136.5 236.7,144.2 244.5,144.2 244.5,152 252.2,152 252.2,159.7 &#10;&#9;&#9;&#9;&#9;&#9;&#9;259.9,159.7 259.9,144.2 &#9;&#9;&#9;&#9;&#9;" id="el_hxtagXeU3-s"/>
					<rect x="229" y="144.2" width="7.7" height="7.7" id="el_a6hL4QETRmA"/>
					<polygon points="221.3,136.5 229,136.5 229,121.2 236.7,121.2 236.7,113.5 213.7,113.5 213.7,128.9 221.3,128.9 &#10;&#9;&#9;&#9;&#9;&#9;&#9;&#9;&#9;&#9;&#9;&#9;" id="el_tzW8rNj7zsy"/>
					<polygon points="221.3,144.2 213.7,144.2 213.7,159.7 229,159.7 229,152 221.3,152 &#9;&#9;&#9;&#9;&#9;" id="el_dH1KvH27e3N"/>
				</g>
			</g>
		</g>
		<path id="el_SvFGyTli-CP" d="M263.5,89.5h-55.7c-4.1,0-7.6,3.4-7.6,7.6l0.1,93.7h1.1l-0.1-93.1h68.8v92.5h1.1v-93&#10;&#9;&#9;&#9;C271.1,92.9,267.7,89.5,263.5,89.5z"/>
	</g>
	<g id="el_WVJkVRKvekn">
		<path id="el_oq2N8iTkTLG" d="M171.6,96H81.5c-1.5,0-2.7-1.2-2.7-2.7s1.2-2.7,2.7-2.7h90.1c1.5,0,2.7,1.2,2.7,2.7&#10;&#9;&#9;&#9;C174.3,94.7,173.2,96,171.6,96z"/>
		<path id="el_UFbloFCnaUD" d="M144.5,109.5h-63c-1.5,0-2.7-1.2-2.7-2.7s1.2-2.7,2.7-2.7h63c1.5,0,2.7,1.2,2.7,2.7&#10;&#9;&#9;&#9;S146,109.5,144.5,109.5z"/>
		<path id="el_ESROjrpEe4k" d="M143.2,129.4h-63c-0.7,0-1.3-0.6-1.3-1.3s0.6-1.3,1.3-1.3h63c0.7,0,1.3,0.6,1.3,1.3&#10;&#9;&#9;&#9;C144.5,128.8,143.9,129.4,143.2,129.4z"/>
		<path id="el_iN_jUrpcQdh" d="M128.9,139.6H80.2c-0.7,0-1.3-0.6-1.3-1.3s0.6-1.3,1.3-1.3H129c0.7,0,1.3,0.6,1.3,1.3&#10;&#9;&#9;&#9;S129.7,139.6,128.9,139.6z"/>
	</g>
</g>
<g id="el_t3KZdbcsAAM_an_saa81RL_U" data-animator-group="true" data-animator-type="0"><g id="el_t3KZdbcsAAM">
	<g id="el_aQEx_ccwr_C">
		<g id="el_WcnHUJCy8LV">
			<g id="el_ybEW47y57be">
				<path d="M296.7,267.9v133.5c0,1.1-0.2,2.2-0.5,3.2H226c-0.4-1-0.6-2.1-0.5-3.2V267.9c0-1,0.2-2,0.5-2.9h70.4&#10;&#9;&#9;&#9;&#9;&#9;C296.5,265.9,296.7,266.9,296.7,267.9z" id="el_vqjLNvv-vON"/>
				<path d="M296.2,265h-70.4c1.3-4.2,5.2-7.1,9.6-7.1h51.2C291,257.8,294.9,260.7,296.2,265z" id="el_egGCOv0ME59"/>
				<path d="M225.9,404.5h70.2c-1.3,4.1-5.2,6.9-9.5,6.9h-51.2C231.1,411.5,227.2,408.7,225.9,404.5z" id="el_KhccMrmrNDU"/>
			</g>
			<g id="el_6efO_ekkVKH">
				<path d="M296.1,404.5c-1.3,4.1-5.2,6.9-9.5,6.9h-51.2c-4.3,0-8.2-2.8-9.5-6.9c-0.4-1-0.6-2.1-0.5-3.2V267.9&#10;&#9;&#9;&#9;&#9;&#9;c0-1,0.2-2,0.5-2.9c1.3-4.2,5.2-7.1,9.6-7.1h51.2c4.4,0,8.3,2.9,9.6,7.1c0.3,0.9,0.5,1.9,0.5,2.9v133.5&#10;&#9;&#9;&#9;&#9;&#9;C296.7,402.5,296.5,403.5,296.1,404.5z" id="el_RQvfjuT3AV4"/>
				<polyline points="225.7,265 225.8,265 296.2,265 &#9;&#9;&#9;&#9;" id="el_fRhVj9eA3dE"/>
				<polyline points="225.8,404.5 225.9,404.5 296.1,404.5 &#9;&#9;&#9;&#9;" id="el_AB0YWWqrERQ"/>
			</g>
		</g>
		<circle id="el_8qVrQF8v_ez" cx="242.8" cy="277.4" r="4.9"/>
	</g>
	<path id="el_8bfL0GXLn6K" d="M306.1,339.1c0,0-1.6-8.1-9.7-6.1l4.2-1.4c4.5-1.7,7-6.6,5.6-11.2c0,0-1.7-8.7-10.5-5.9l-61.9,19.9&#10;&#9;&#9;l-4.4-15c-1.2-4.7-5.9-7.5-10.6-6.3c-0.1,0-0.3,0.1-0.4,0.1l-0.8,0.3c-4.7,1.7-7.3,6.9-5.8,11.7l8.5,29.3L220.1,584h58.3l0.2-196&#10;&#9;&#9;l15.8-5c4.4-1.5,6.9-6.1,5.7-10.6c-0.4-1.6-1.2-3.1-2.4-4.3l1.1-0.3c4.4-1.5,6.9-6.1,5.7-10.6c0,0-1.1-5.8-6.7-5.9l2.7-0.9&#10;&#9;&#9;C305.1,348.6,307.5,343.7,306.1,339.1z"/>
</g></g>
<g id="el_-4rWRTDQ9jI_an_fOzR7iLYj" data-animator-group="true" data-animator-type="0"><g id="el_-4rWRTDQ9jI">
	<g id="el_TJy98OlfFEs">
		<g id="el_qcGd83oc5X9">
			<circle cx="22" cy="369.1" r="14.4" id="el_tbTPU8UB2mw"/>
		</g>
	</g>
	<g id="el_bSqM93YGrba">
		<g id="el_rH7IyVC9cri">
			<path d="M360,583.8L229.6,584L153,512.8c-21.5,5-79.7-9-85.8-27.8l19.4-27.4l0.1-0.1c25-28.1,69.9-53.4,69.9-53.4&#10;&#9;&#9;&#9;&#9;l3.5-9.2h21.5c1.2,1.1,2.1,2.6,2.4,4.3l5.2,33.6c1,6.3,4.2,12,9.2,15.8L360,583.8z" id="el_zgIlsOXR7Fs"/>
			<path d="M156.6,404.1c0,0-44.8,25.3-69.9,53.4l42-59.5C143.9,397.6,156.6,404.1,156.6,404.1z" id="el_a44lP8aM5b2"/>
		</g>
	</g>
	<g id="el_AZXmbeg4A0O">
		<g id="el_Az3MrU8d5Gj">
			<g id="el_i-1UxmVeijx">
				<path d="M135,268.7v217.8c0,0.2,0,0.3,0,0.6h-0.1l-0.6-0.1h-110h-0.7h-0.1c0-0.2,0-0.3,0-0.6V268.7l0.7-0.1h110.2&#10;&#9;&#9;&#9;&#9;&#9;L135,268.7z" id="el_h4-yph2XPg6"/>
				<path d="M135,268.7l-0.6-0.1H24.1l-0.7,0.1c0-6.3,5.1-11.3,11.3-11.3h89C130,257.4,135,262.4,135,268.7z" id="el_OOeTEOS77U8"/>
				<path d="M134.2,486.9l0.6,0.1c-0.2,5.9-5.1,10.7-11.2,10.7h-89c-5.9,0-10.9-4.8-11.2-10.7l0.7-0.1H134.2&#10;&#9;&#9;&#9;&#9;&#9;L134.2,486.9z" id="el_ZPfrkpX5qXT"/>
			</g>
			<g id="el_GRItnPRr3iN">
				<path d="M134.9,487c-0.2,5.9-5.1,10.7-11.2,10.7h-89c-5.9,0-10.9-4.8-11.2-10.7h-0.1c0-0.2,0-0.3,0-0.6V268.7&#10;&#9;&#9;&#9;&#9;&#9;c0-6.3,5.1-11.3,11.3-11.3h89c6.3,0,11.3,5,11.3,11.3v217.8c0,0.2,0,0.3,0,0.6h-0.1V487z" id="el_MbtwApTCAxj"/>
				<line x1="24.1" y1="268.6" x2="134.3" y2="268.6" id="el_Sw9QrZOSPUU"/>
				<line x1="24.3" y1="486.9" x2="134.2" y2="486.9" id="el_f6aJvbVoS5M"/>
			</g>
		</g>
		<g id="el__eZLW_HaIAl">
			<rect id="el_3QE299HYjTV" x="44.2" y="340.7" width="73.7" height="73.7"/>
			<g id="el_HjZow_-imAd">
				<polygon points="44.2,340.7 44.2,365.2 56.4,365.2 56.4,377.6 68.7,377.6 68.7,353 81,353 81,340.7 &#9;&#9;&#9;&#9;" id="el_BlRlEad8g2d"/>
				<rect x="81" y="353" width="12.2" height="12.2" id="el_AIOFEqQ5vaJ"/>
				<rect x="93.3" y="340.7" width="12.2" height="12.2" id="el_okqqZHwNBWs"/>
				<rect x="105.6" y="353" width="12.2" height="24.6" id="el_DVITQM4xQA_"/>
				<polygon points="93.3,377.6 81,377.6 81,389.8 93.3,389.8 93.3,402.2 105.6,402.2 105.6,414.4 117.9,414.4 &#10;&#9;&#9;&#9;&#9;&#9;117.9,389.8 93.3,389.8 &#9;&#9;&#9;&#9;" id="el_FN0OATURSqQ"/>
				<rect x="68.7" y="389.8" width="12.2" height="12.2" id="el_QzGbZMgsxet"/>
				<polygon points="56.4,389.8 44.2,389.8 44.2,414.4 68.7,414.4 68.7,402.2 56.4,402.2 &#9;&#9;&#9;&#9;" id="el_r2WLiGJjPQx"/>
			</g>
		</g>
	</g>
	<g id="el_ZeRQv3nagB4">
		<g id="el_7_L6cD5uZwW">
			<path d="M22.5,427.1c7.7,0,13.8,6.2,13.8,13.9c0,3.8-1.6,7.3-4,9.8c-2.5,2.5-6,4.1-9.8,4.1H16&#10;&#9;&#9;&#9;&#9;c-7.7,0-13.8-6.2-13.8-13.9c0-3.8,1.6-7.3,4-9.8c2.5-2.5,6-4.1,9.8-4.1H22.5z" id="el_tZRIMhKToiG"/>
			<path d="M22.5,457.6c7.7,0,13.8,6.2,13.8,13.9c0,3.8-1.6,7.3-4,9.8c-2.5,2.5-6,4-9.8,4H16c-7.7,0-13.8-6.2-13.8-13.8&#10;&#9;&#9;&#9;&#9;c0-3.8,1.6-7.3,4-9.8c2.5-2.5,6-4,9.8-4h6.5V457.6z" id="el_7X8bR8Z1U5I"/>
			<path d="M16.7,395.1c8.1,0,14.7,6.5,14.7,14.7c0,8.1-6.5,14.7-14.7,14.7S2,418,2,409.8&#10;&#9;&#9;&#9;&#9;C2.1,401.6,8.6,395.1,16.7,395.1z" id="el_BNS4r33ILVC"/>
		</g>
	</g>
	<g id="el_8G_yEZf2ZJB">
		<g id="el_l_I7zUYl5fK">
			<path d="M141.8,342.7l39.9,52l-25,9.2l-30.9-45.2c-3.6-3.7-6.3-12.2-2.7-15.8l3-3&#10;&#9;&#9;&#9;&#9;C129.6,336.4,138.1,339.1,141.8,342.7z" id="el_xtZb8kEWdie"/>
		</g>
	</g>
</g></g>
</svg>