<svg version="1.1" id="el_W5k9hdQge" xmlns="http://www.w3.org/2000/svg" xmlns:xlink="http://www.w3.org/1999/xlink" x="0px" y="0px" viewBox="0 0 360 584" style="enable-background:new 0 0 360 584;" xml:space="preserve"><style>@-webkit-keyframes kf_el_pUB7bZxOXkW_an_iTxgwCLkV{0%{-webkit-transform: translate(221.30674743652344px, 253.98348999023438px) translate(-221.30674743652344px, -253.98348999023438px) translate(50px, 340px);transform: translate(221.30674743652344px, 253.98348999023438px) translate(-221.30674743652344px, -253.98348999023438px) translate(50px, 340px);}16.67%{-webkit-transform: translate(221.30674743652344px, 253.98348999023438px) translate(-221.30674743652344px, -253.98348999023438px) translate(50px, 340px);transform: translate(221.30674743652344px, 253.98348999023438px) translate(-221.30674743652344px, -253.98348999023438px) translate(50px, 340px);}42.22%{-webkit-transform: translate(221.30674743652344px, 253.98348999023438px) translate(-221.30674743652344px, -253.98348999023438px) translate(0px, 0px);transform: translate(221.30674743652344px, 253.98348999023438px) translate(-221.30674743652344px, -253.98348999023438px) translate(0px, 0px);}44.44%{-webkit-transform: translate(221.30674743652344px, 253.98348999023438px) translate(-221.30674743652344px, -253.98348999023438px) translate(0px, 5px);transform: translate(221.30674743652344px, 253.98348999023438px) translate(-221.30674743652344px, -253.98348999023438px) translate(0px, 5px);}64.44%{-webkit-transform: translate(221.30674743652344px, 253.98348999023438px) translate(-221.30674743652344px, -253.98348999023438px) translate(0px, 5px);transform: translate(221.30674743652344px, 253.98348999023438px) translate(-221.30674743652344px, -253.98348999023438px) translate(0px, 5px);}81.11%{-webkit-transform: translate(221.30674743652344px, 253.98348999023438px) translate(-221.30674743652344px, -253.98348999023438px) translate(-100px, 340px);transform: translate(221.30674743652344px, 253.98348999023438px) translate(-221.30674743652344px, -253.98348999023438px) translate(-100px, 340px);}100%{-webkit-transform: translate(221.30674743652344px, 253.98348999023438px) translate(-221.30674743652344px, -253.98348999023438px) translate(-100px, 340px);transform: translate(221.30674743652344px, 253.98348999023438px) translate(-221.30674743652344px, -253.98348999023438px) translate(-100px, 340px);}}@keyframes kf_el_pUB7bZxOXkW_an_iTxgwCLkV{0%{-webkit-transform: translate(221.30674743652344px, 253.98348999023438px) translate(-221.30674743652344px, -253.98348999023438px) translate(50px, 340px);transform: translate(221.30674743652344px, 253.98348999023438px) translate(-221.30674743652344px, -253.98348999023438px) translate(50px, 340px);}16.67%{-webkit-transform: translate(221.30674743652344px, 253.98348999023438px) translate(-221.30674743652344px, -253.98348999023438px) translate(50px, 340px);transform: translate(221.30674743652344px, 253.98348999023438px) translate(-221.30674743652344px, -253.98348999023438px) translate(50px, 340px);}42.22%{-webkit-transform: translate(221.30674743652344px, 253.98348999023438px) translate(-221.30674743652344px, -253.98348999023438px) translate(0px, 0px);transform: translate(221.30674743652344px, 253.98348999023438px) translate(-221.30674743652344px, -253.98348999023438px) translate(0px, 0px);}44.44%{-webkit-transform: translate(221.30674743652344px, 253.98348999023438px) translate(-221.30674743652344px, -253.98348999023438px) translate(0px, 5px);transform: translate(221.30674743652344px, 253.98348999023438px) translate(-221.30674743652344px, -253.98348999023438px) translate(0px, 5px);}64.44%{-webkit-transform: translate(221.30674743652344px, 253.98348999023438px) translate(-221.30674743652344px, -253.98348999023438px) translate(0px, 5px);transform: translate(221.30674743652344px, 253.98348999023438px) translate(-221.30674743652344px, -253.98348999023438px) translate(0px, 5px);}81.11%{-webkit-transform: translate(221.30674743652344px, 253.98348999023438px) translate(-221.30674743652344px, -253.98348999023438px) translate(-100px, 340px);transform: translate(221.30674743652344px, 253.98348999023438px) translate(-221.30674743652344px, -253.98348999023438px) translate(-100px, 340px);}100%{-webkit-transform: translate(221.30674743652344px, 253.98348999023438px) translate(-221.30674743652344px, -253.98348999023438px) translate(-100px, 340px);transform: translate(221.30674743652344px, 253.98348999023438px) translate(-221.30674743652344px, -253.98348999023438px) translate(-100px, 340px);}}#el_W5k9hdQge *{-webkit-animation-duration: 3s;animation-duration: 3s;-webkit-animation-iteration-count: infinite;animation-iteration-count: infinite;-webkit-animation-timing-function: cubic-bezier(0, 0, 1, 1);animation-timing-function: cubic-bezier(0, 0, 1, 1);}#el_ZoVhMAf07I{fill: #F2F2F2;}#el_lTo6aj-TDV{fill: #FFFFFF;}#el_2JHLOS7-if{fill: #E6E6E6;}#el_iZdEvIuucm{fill: #F2F2F2;}#el_HLi0MjGzLr{fill: #DDDDDD;}#el_8yT2frDTBN{fill: #F2F2F2;}#el_byjGbCJy9y{fill: #F2F2F2;}#el_rkIenXtey_{fill: #4D4D4D;}#el_hiHgoU_2PI{fill: #4D4D4D;}#el_iSg8BNNSez{fill: #E6E6E6;}#el_3ZQmQHcEc5{fill: #4D4D4D;}#el_bP7Zi1inmZ{fill: #CCCCCC;}#el_DPDQDD2Jav{fill: #B3B3B3;}#el_9pB6ta-tSl{fill: #4D4D4D;}#el_A7PEeo2KEJ3{fill: #B3B3B3;}#el_kEiZ4tzevQV{fill: #CCCCCC;}#el_nakys4vFUw_{fill: #F2F2F2;}#el_LpfQf-6Xn9E{fill: none;stroke: #CCCCCC;stroke-width: 4.13;stroke-miterlimit: 10;}#el_mqJxhfHg4am{fill: #FE7F78;}#el_jV7-d1Obwf6{fill: #37E8D7;visibility: hidden;}#el_14Z4BK96uwu{fill: #FFFFFF;}#el_NbolSqt6oWT{fill: #FFFFFF;}#el_ymkq0wpGoKp{fill: #403C51;}#el_3jkFUR_PrlH{fill: #403C51;}#el_RxeR42Q9_rw{fill: #FFFFFF;}#el_4DAnol5lcdH{fill: #FFFFFF;}#el_G1_FBewD7E3{fill: #414042;}#el_iTLibhLCbLJ{fill: #FFFFFF;}#el_m4nNaMK-Nhx{fill: #FFFFFF;}#el_TDtTpj0ajPr{fill: #0E4160;}#el_bocySTRg-Q3{fill: #0E4160;}#el_b_5wY-5EYcd{fill: #FFFFFF;}#el_lTVzw-wk1KF{fill: #FFFFFF;}#el_DkgeoPMjtzh{fill: #414042;}#el_IiFUzixC9wd{display: none;fill: #B3B3B3;}#el_N83qxw4ho68{fill: #B3B3B3;}#el_jmcURlyRsxH{fill: #B3B3B3;}#el_A4OYVTyBWx3{fill: #B3B3B3;}#el_urbH_Xcz4Y9{fill: #B3B3B3;}#el_SOR5RXUG22c{fill: #CB6560;}#el_fBmqj3gR7me{fill: #2CB9AC;visibility: hidden;}#el_SZgoH4EX1bQ{fill: #FE7F78;}#el_KcKprW5u7Po{fill: #37E8D7;visibility: hidden;}#el_Xv4kjBN0OEn{fill: #CB6560;}#el_v5HbY5ivWIu{fill: #2CB9AC;visibility: hidden;}#el_HBBLdkVxql4{fill: #D9F1FE;}#el__FDQFiPM3am{-webkit-clip-path: url(#SVGID_2_);clip-path: url(#SVGID_2_);}#el_DZXdhAb3FX3{fill: #D4E2E9;}#el_6xo0_O0Co3q{fill: #0E3E5A;}#el_LtTK1pEMymw{fill: #359798;}#el_eaDfxCUSr8v{fill: #DDE7EC;}#el_9kQlgHkaoX7{fill: #308788;}#el_pOhVo2KJtu4{fill: #E2EBF0;}#el_BWOYarPnVXp{fill: #E2EBF0;}#el_6jb1_DxSXXC{fill: #0C3147;}#el_Xm2O2do7pgH{fill: #E2EBF0;}#el_IVhO9AyjNsu{fill: #E2F4FD;}#el_riIOR90DT10{fill: #E2EBF0;}#el_bgso06YUcIC{fill: #E2EBF0;}#el_uujHp1j4F4K{fill: #0E3A54;}#el_Zc3g2SZawSh{fill: #50BEBF;}#el_Q9o3BPLdkn0{fill: #43B0B1;}#el_1BXeX_SkSNN{fill: #43B0B1;}#el_6OJQumkRp00{fill: #3EA6A7;}#el_PAiKK31jSti{fill: #3EA6A7;}#el_d6rOxTWqYyN{fill: #50BEBF;}#el_WIWc6a7Nzq2{fill: #308788;}#el_2Y5-C-6HDJg{fill: #0C3147;}#el_zPsfNbiOaU0{fill: #0C3147;}#el_biBdkcdnFNf{fill: #0E3A54;}#el_J0igc60U54h{fill: #2D7B7C;}#el_KDdGX2JgcBV{fill: #308788;}#el_E3cEkOr1Rd_{fill: #3EA6A7;}#el_vlXCVq7Pnp5{fill: #E2F4FD;}#el_ZuR0fi4gtBY{fill: #E2F4FD;}#el_DwbCeniNbJW{fill: #308788;}#el_fUqdqL9WOtd{fill: #308788;}#el_nJIrvrk6Zq4{fill: #308788;}#el_WJ9D35mpoZx{fill: #2D7B7C;}#el_rb2BNCheZ7g{fill: #308788;}#el_84u9Hj1eEXP{fill: #E2F4FD;}#el_NHXdBEDLZKA{fill: #0C3147;}#el_t2FhPi0ih_D{fill: #2B7072;}#el_f8zKuvZgwus{fill: #E2F4FD;}#el_pd8U7iOPSpm{fill: #359798;}#el_i-uY9zcYTsY{fill: #359798;}#el_gkPjjjEvQzu{fill: #359798;}#el_VvOMkq9SaD0{fill: #359798;}#el_M9eaMjlPnAb{fill: #C1E8FD;}#el_uDpY57VrmGm{fill: #43B0B1;}#el_9Oiquk5Mwn_{fill: #2B7072;}#el_Toy0AJHiSBR{fill: #2D7B7C;}#el_1SeHvCdSi-l{fill: #2D7B7C;}#el_mEpOHXN_KSr{fill: #308788;}#el_P29nSCHOvlk{fill: #2B7072;}#el_3RPya0Rsgtm{fill: #D9F1FE;}#el_DzPz-dHaBEG{fill: #0E3A54;}#el_U3PnCIuM5QE{fill: #F3FBFE;}#el_HLPnByvPON6{fill: #F6FCFE;}#el_WZTbv8d-t1g{fill: #E4ECF0;}#el_-C2cY5DmPSL{fill: #E4ECF0;}#el_TtBzTiSpvAt{fill: #E4ECF0;}#el_J-t63ycJSIw{opacity: 0.3;}#el_noZ-jJ-10LS{fill: #0E4160;}#el_VIhaQaQFpo5{fill: #0E4160;}#el_uFPQKCeR2Rm{fill: #0E4160;}#el_TnZscbxSx0E{fill: #0E4160;}#el_zXwKBFG6CFJ{fill: #0E4160;}#el_hNjRMelTw9h{fill: #0E4160;}#el_hMNj60rQ_Ck{fill: #0E4160;}#el_sVz8GA1EMcE{fill: #0E4160;}#el_fEd9fo-d9vO{fill: #0E4160;}#el_0DgtMj2PSIR{fill: #0E4160;}#el_kg-WPYSlrV4{fill: #0E4160;}#el_VtK7ucBH126{fill: #0E4160;}#el_N-FFGJBDvAW{fill: #0E4160;}#el_LhdKPJmwB9n{fill: #0E4160;}#el_X4r7YdQDQfD{fill: #0E4160;}#el_Zf7V7huUb3a{fill: #0E4160;}#el_lT1aUsWuwlb{fill: #0E4160;}#el_YTiAJAtG-ZA{fill: #0E4160;}#el_aX_ZRUJxwqL{fill: #0E4160;}#el_bZkFU_HlsYo{fill: #0E4160;}#el_QmebnwW3but{fill: #0E4160;}#el_c3NmVKBexZa{fill: #0E4160;}#el_qJj-OGLzWoj{fill: #0E4160;}#el_b_XLdeDFdty{fill: #0E4160;}#el_8xvi3zbvH_R{fill: #0E4160;}#el_qqY8mYGMWVC{fill: #0E4160;}#el_jD71RPd2uhq{fill: #0E4160;}#el_1LnVXfX040G{fill: #0E4160;}#el_kUpJBOyNVyl{fill: #0E4160;}#el_s7NAJJDHZu-{fill: #0E4160;}#el_pEHB_YB1IM5{fill: #0E4160;}#el_Ai2epneKUFZ{fill: #0E4160;}#el_ti7_InAjCpX{fill: #0E4160;}#el_X6xAlCanWSS{fill: #0E4160;}#el_NoTIKFXv2xz{fill: #0E4160;}#el_Aq0q2CgGnGQ{fill: #0E4160;}#el_fua3D2MtKO7{fill: #0E4160;}#el_Ekfx9s50H6x{fill: #0E4160;}#el_Nm7h508EPN2{fill: #0E4160;}#el_4TFvCRITYmF{fill: #0E4160;}#el_ppSBZZkTeq0{fill: #0E4160;}#el_xCUWIeNDA0g{fill: #0E4160;}#el_D1r-MYIc3wM{fill: #0E4160;}#el_Di_FmWdeYL1{fill: #0E4160;}#el_OzWVfS1POEl{fill: #0E4160;}#el_MVvqVWYAZIO{fill: #0E4160;}#el_1bbo8rc1Kpy{fill: #0E4160;}#el_fMhCdoZsTTr{fill: #0E4160;}#el_U4a1L2quGwf{fill: #0E4160;}#el_56wRk83vk8l{fill: #0E4160;}#el_mXkWrUAHA7T{fill: #0E4160;}#el_HgtDRkawYW6{fill: #0E4160;}#el_emS5_TEK9kZ{fill: none;stroke: #000000;stroke-width: 0.5073;stroke-miterlimit: 10;}#el_u5tD2tjvriU{fill: none;stroke: #000000;stroke-width: 0.5073;stroke-miterlimit: 10;}#el_SqKXbtokc0Z{fill: none;stroke: #000000;stroke-width: 0.5073;stroke-miterlimit: 10;}#el_yjQ8kZDoH-H{fill: none;stroke: #000000;stroke-width: 0.5073;stroke-miterlimit: 10;}#el_1cTsPczvVeX{fill: none;stroke: #000000;stroke-width: 0.5073;stroke-miterlimit: 10;}#el_oUofagu_Mk7{fill: #FFFFFF;}#el_cK3iNF9iuHr{fill: #FFFFFF;}#el_FA7aD9H2Qng{fill: #FFFFFF;}#el_VOOask2GWqe{fill: #FFFFFF;}#el_uy1Grqn48Wz{fill: #FFFFFF;}#el_CZE9m_sObSv{fill: #FFFFFF;}#el_bBpHsMJZ0JJ{fill: #FFFFFF;}#el_82iZaVXSxoh{fill: #FFFFFF;}#el_LaGM90HBlIm{fill: #FFFFFF;}#el_JG4JUn589EV{fill: #FFFFFF;}#el_tgtmlmfAB_T{fill: #FFFFFF;}#el_5L9R7oebj40{fill: #FFFFFF;}#el_io6i8MDnz1r{fill: #FFFFFF;}#el_uRYUlc-jjMQ{fill: #FFFFFF;}#el_MyygwgnIGNQ{fill: #FFFFFF;}#el_j02W0BICRoR{fill: #FFFFFF;}#el_MzAurjUfSXb{fill: #FFFFFF;}#el_N3LQ9ccURxC{fill: #B3B3B3;}#el_ZVdXmiXkjeJ{visibility: hidden;}#el_pUB7bZxOXkW_an_iTxgwCLkV{-webkit-animation-fill-mode: backwards;animation-fill-mode: backwards;-webkit-transform: translate(221.30674743652344px, 253.98348999023438px) translate(-221.30674743652344px, -253.98348999023438px) translate(50px, 340px);transform: translate(221.30674743652344px, 253.98348999023438px) translate(-221.30674743652344px, -253.98348999023438px) translate(50px, 340px);-webkit-animation-name: kf_el_pUB7bZxOXkW_an_iTxgwCLkV;animation-name: kf_el_pUB7bZxOXkW_an_iTxgwCLkV;-webkit-animation-timing-function: cubic-bezier(0.42, 0, 0.58, 1);animation-timing-function: cubic-bezier(0.42, 0, 0.58, 1);}</style>
	<style>svg {cursor : none;}</style>
<title>douro-BTC-amazonite</title>
<path d="M27.8,481.5h295.1c14.2,0,25.7-13,25.7-29.1V29.1C348.6,13,337.1,0,322.9,0H27.8C13.6,0,2.1,13,2.1,29.1v423.4&#10;&#9;C2.1,468.5,13.6,481.5,27.8,481.5z" id="el_ZoVhMAf07I"/>
<g id="el_qpaooKg_dK">
	<path d="M361,240.1v27.7c0,0.8-0.6,1.6-1.4,1.8l-11,2.3v-35.8l11,2.3C360.4,238.5,361,239.3,361,240.1z" id="el_lTo6aj-TDV"/>
	<path d="M348.6,403.1v54.1c0,15-12.2,27.2-27.2,27.2H28.2c-15,0-27.2-12.2-27.2-27.2v-54.1h1&#10;&#9;&#9;c0,14.2,11.5,25.7,25.7,25.7h295.1C337.1,428.8,348.6,417.3,348.6,403.1z" id="el_2JHLOS7-if"/>
	<path d="M303.5,190.2h0.7V44.1h-0.7V44H47.2v0.1h-0.8v146.1L303.5,190.2L303.5,190.2z M348.6,403v0.1&#10;&#9;&#9;c0,14.2-11.5,25.7-25.7,25.7H27.8C13.6,428.8,2,417.3,2,403.1V28.6C2,14.4,13.5,2.8,27.7,2.8l0,0h295.1c14.2,0,25.7,11.5,25.7,25.7&#10;&#9;&#9;l0,0L348.6,403L348.6,403z M306.6,355.6V252.4c0-2.7-2.2-4.9-4.9-4.9l0,0h-81c-2.7,0-4.9,2.2-4.9,4.9l0,0v103.2&#10;&#9;&#9;c0,2.7,2.2,4.9,4.9,4.9l0,0h81C304.5,360.5,306.6,358.3,306.6,355.6z M182.7,367.6v-48.5c0-2.7-2.2-4.9-4.9-4.9H59.2&#10;&#9;&#9;c-2.7,0-4.9,2.2-4.9,4.9v48.5c0,2.7,2.2,4.9,4.9,4.9l0,0h118.6C180.5,372.5,182.7,370.3,182.7,367.6L182.7,367.6z M179.6,21.5&#10;&#9;&#9;c-0.3-2.5-2.6-4.2-5-3.8c-2,0.3-3.6,1.8-3.8,3.8c0.3,2.5,2.6,4.2,5.1,3.8C177.8,25.1,179.3,23.5,179.6,21.5z" id="el_iZdEvIuucm"/>
	<path d="M306.6,252.4v103.2c0,2.7-2.2,4.9-4.9,4.9h-81c-2.7,0-4.9-2.2-4.9-4.9l0,0V252.4c0-2.7,2.2-4.9,4.9-4.9l0,0h81&#10;&#9;&#9;C304.5,247.5,306.6,249.7,306.6,252.4L306.6,252.4z M263.3,306.3c0-1.1-0.9-2.1-2.1-2.1s-2.1,0.9-2.1,2.1c0,1.1,0.9,2.1,2.1,2.1&#10;&#9;&#9;S263.3,307.5,263.3,306.3L263.3,306.3z" id="el_HLi0MjGzLr"/>
	<rect x="303.5" y="44.1" width="0.7" height="146.1" id="el_8yT2frDTBN"/>
	<rect x="47.2" y="44.1" width="256.3" height="0.1" id="el_byjGbCJy9y"/>
	<path d="M261.2,304.2c1.1,0,2.1,0.9,2.1,2.1s-0.9,2.1-2.1,2.1s-2.1-0.9-2.1-2.1l0,0&#10;&#9;&#9;C259.2,305.2,260.1,304.2,261.2,304.2L261.2,304.2z" id="el_rkIenXtey_"/>
	<path d="M182.7,365.8v1.8c0,2.7-2.2,4.9-4.9,4.9l0,0H59.2c-2.7,0-4.9-2.2-4.9-4.9l0,0v-1.8c0,2.9,2.4,5.3,5.3,5.3l0,0&#10;&#9;&#9;h117.7C180.3,371.2,182.7,368.8,182.7,365.8L182.7,365.8z" id="el_hiHgoU_2PI"/>
	<path d="M182.7,319.1v46.7c0,2.9-2.4,5.3-5.3,5.3l0,0H59.6c-2.9,0-5.3-2.4-5.3-5.3l0,0v-46.7c0-2.7,2.2-4.9,4.9-4.9&#10;&#9;&#9;h118.6C180.5,314.2,182.7,316.4,182.7,319.1z M160.9,355.3V331c0-2.2-1.8-4-4-4l0,0H80c-2.2,0-4,1.8-4,4l0,0v24.4c0,2.2,1.8,4,4,4&#10;&#9;&#9;l0,0h76.9C159.1,359.4,160.9,357.6,160.9,355.3L160.9,355.3z" id="el_iSg8BNNSez"/>
	<path d="M175.2,17.6c2.3-0.1,4.3,1.6,4.4,3.9c-0.3,2.5-2.6,4.2-5.1,3.8c-2-0.3-3.5-1.8-3.8-3.8&#10;&#9;&#9;C170.9,19.2,172.9,17.5,175.2,17.6z" id="el_3ZQmQHcEc5"/>
	<path d="M160.9,352.8v2.5c0,2.2-1.8,4-4,4l0,0H80c-2.2,0-4-1.8-4-4l0,0v-2.5H160.9z" id="el_bP7Zi1inmZ"/>
	<rect x="76" y="347.3" width="84.9" height="5.5" id="el_DPDQDD2Jav"/>
	<rect x="76" y="339.8" width="84.9" height="7.5" id="el_9pB6ta-tSl"/>
	<rect x="76" y="333.5" width="84.9" height="6.3" id="el_A7PEeo2KEJ3"/>
	<path d="M160.9,331v2.5H76V331c0-2.2,1.8-4,4-4l0,0h76.9C159.1,327,160.9,328.7,160.9,331L160.9,331z" id="el_kEiZ4tzevQV"/>
	<rect x="46.4" y="44.1" width="0.8" height="146.1" id="el_nakys4vFUw_"/>
	<path d="M348.6,403V28.6c0-14.2-11.5-25.7-25.7-25.7l0,0H27.8C13.6,2.8,2,14.3,2,28.6l0,0v374.5&#10;&#9;&#9;c0,14.2,11.5,25.7,25.7,25.7h295.1c14.2,0,25.7-11.5,25.7-25.7" id="el_LpfQf-6Xn9E"/>
</g>
<rect id="el_mqJxhfHg4am" x="47.2" y="44.1" width="256.3" height="146.1"/>

<g id="el_mhUmlxiSXV8">
	<path d="M166.2,84h-90c-1.5,0-2.7-1.2-2.7-2.7s1.2-2.7,2.7-2.7h90c1.5,0,2.7,1.2,2.7,2.7S167.8,84,166.2,84z" id="el_14Z4BK96uwu"/>
	<path d="M139.2,97.5H76.3c-1.5,0-2.7-1.2-2.7-2.7s1.2-2.7,2.7-2.7h62.9c1.5,0,2.7,1.2,2.7,2.7&#10;&#9;&#9;C141.9,96.3,140.7,97.5,139.2,97.5z" id="el_NbolSqt6oWT"/>
	<path d="M139.2,117.4H76.3c-0.7,0-1.3-0.6-1.3-1.3c0-0.7,0.6-1.3,1.3-1.3h62.9c0.7,0,1.3,0.6,1.3,1.3&#10;&#9;&#9;C140.5,116.8,139.9,117.4,139.2,117.4z" id="el_ymkq0wpGoKp"/>
	<path d="M125,127.6H76.3c-0.7,0-1.3-0.6-1.3-1.3s0.6-1.3,1.3-1.3H125c0.7,0,1.3,0.6,1.3,1.3S125.7,127.6,125,127.6z" id="el_3jkFUR_PrlH"/>
	<path d="M125,145.7H76.3c-0.7,0-1.3-0.6-1.3-1.3s0.6-1.3,1.3-1.3H125c0.7,0,1.3,0.6,1.3,1.3&#10;&#9;&#9;C126.3,145.1,125.7,145.7,125,145.7z" id="el_RxeR42Q9_rw"/>
	<path d="M210.2,78.4H270c3.9,0,7.1,3.2,7.1,7.1v33.7c0,3.9-3.2,7.1-7.1,7.1h-59.9c-3.9,0-7.1-3.2-7.1-7.1V85.5&#10;&#9;&#9;C203.1,81.6,206.3,78.4,210.2,78.4z" id="el_4DAnol5lcdH"/>
	<rect x="203.1" y="87.7" width="73.9" height="10" id="el_G1_FBewD7E3"/>
</g>

<g id="el_pUB7bZxOXkW_an_iTxgwCLkV" data-animator-group="true" data-animator-type="0"><g id="el_pUB7bZxOXkW">
	<polygon points="244.4,367.1 272.2,383.7 290.1,356.6 263,341.8 &#9;" id="el_IiFUzixC9wd"/>
	<path id="el_N83qxw4ho68" d="M237.8,340.9C237.9,340.9,237.9,340.9,237.8,340.9L237.8,340.9l37.3,8.3l-3.5,8.3l-34.8-0.2&#10;&#9;&#9;l0,0c0,0,0,0-0.1,0c-4.9,0-8.6-3.7-8.3-8.3S232.3,339.5,237.8,340.9z"/>
	<path id="el_jmcURlyRsxH" d="M240.6,353.3L240.6,353.3L240.6,353.3l33-1.9l2.1,15.1l-33,1.8l0,0c0,0,0,0-0.1,0&#10;&#9;&#9;c-4.6,0.3-8.9-2.9-9.4-7.1S236,353.5,240.6,353.3z"/>
	<path id="el_A4OYVTyBWx3" d="M243.1,366.1L243.1,366.1L243.1,366.1l30,1.3L273,381l-29.9-1.3l0,0c0,0,0,0-0.1,0&#10;&#9;&#9;c-4.2-0.2-7.6-3.4-7.6-7.2S238.8,365.9,243.1,366.1z"/>
	<path id="el_urbH_Xcz4Y9" d="M273.9,330c1.8-0.1,3.6,0.5,4.9,1.7l14.7,12.4c2.1,1.9,3.3,4.5,3.3,7.3l0.5,54.3&#10;&#9;&#9;c0,3.2-2.9,5.6-6.5,5.4l-13-0.6c-3.6-0.2-6.5-2.9-6.5-6l2.6-45.4l-11.4-9.6l-24.5-0.3c-10.5,0.2-16.4-4.5-14.7-10.6&#10;&#9;&#9;c1-3.6,3.1-6.2,11.1-6.1L273.9,330z"/>
	<g id="el_kcfPAvbrmqm">
		<path id="el_SOR5RXUG22c" d="M272.2,256.6l36.3,69.8c1.1,2.1,0.3,4.7-1.8,5.8l-42.8,22.2c-2.1,1.1-4.7,0.3-5.8-1.8&#10;&#9;&#9;&#9;l-36.3-69.8c-1.1-2.1-0.3-4.7,1.8-5.8l42.8-22.2C268.5,253.7,271.1,254.5,272.2,256.6z"/>
		
		<path id="el_SZgoH4EX1bQ" d="M271.8,255.8l36.7,70.5c0.9,1.7,0.2,3.7-1.4,4.6l-43.5,22.6c-1.7,0.9-3.7,0.2-4.6-1.4&#10;&#9;&#9;&#9;l-36.7-70.5c-0.9-1.7-0.2-3.7,1.4-4.6l43.5-22.6C268.9,253.5,270.9,254.1,271.8,255.8z"/>
		
		<g id="el_nd4jy2knUTM">
			<path id="el_Xv4kjBN0OEn" d="M282.1,292.4L246.3,311c-1.3,0.7-2.9,0.2-3.6-1.1l-13.9-26.8c-0.7-1.3-0.2-2.9,1.1-3.6&#10;&#9;&#9;&#9;&#9;l35.8-18.6c1.3-0.7,2.9-0.2,3.6,1.1l13.9,26.8C283.9,290.1,283.4,291.7,282.1,292.4z"/>
			
			<polygon points="241.3,307.3 236.9,299 254.5,285.9 261.5,281.9 265.3,284.1 265.8,287.6 244.7,301.3 &#9;&#9;&#9;" id="el_HBBLdkVxql4"/>
			<g id="el_UZJjOEuyHHK">
				<g id="el_HmUNfj5nX5C">
					<g id="el_4afPA_iCM26">
						<defs>
							<path id="SVGID_1_" d="M282.1,292.4L246.3,311c-1.3,0.7-2.9,0.2-3.6-1.1l-13.9-26.8c-0.7-1.3-0.2-2.9,1.1-3.6l35.8-18.6&#10;&#9;&#9;&#9;&#9;&#9;&#9;&#9;&#9;c1.3-0.7,2.9-0.2,3.6,1.1l13.9,26.8C283.9,290.1,283.4,291.7,282.1,292.4z"/>
						</defs>
						<clipPath id="SVGID_2_">
							<use xlink:href="#SVGID_1_" style="overflow:visible;"/>
						</clipPath>
						<g id="el__FDQFiPM3am">
							<g id="el_wSZjWKrmJnt">
								<g id="el_X6AtfXVB4pm">
									<path d="M236.6,298.4c0.4-0.2,0.8-0.5,1.2-0.7c0.3-0.2,0.6-0.4,0.9-0.6c0.3-0.2,0.6-0.4,1-0.6&#10;&#9;&#9;&#9;&#9;&#9;&#9;&#9;&#9;&#9;&#9;c0.3-0.2,0.6-0.4,0.9-0.6c0.3-0.2,0.7-0.4,1-0.6c0.2-0.1,0.4-0.2,0.6-0.4c0.3-0.2,0.7-0.4,1-0.6s0.6-0.4,0.9-0.6&#10;&#9;&#9;&#9;&#9;&#9;&#9;&#9;&#9;&#9;&#9;c0.5-0.3,0.9-0.6,1.4-0.9c0.3-0.2,0.6-0.4,0.9-0.6c0.5-0.3,1-0.6,1.4-0.9c0.3-0.2,0.6-0.4,0.9-0.6c0.4-0.2,0.7-0.5,1.1-0.7&#10;&#9;&#9;&#9;&#9;&#9;&#9;&#9;&#9;&#9;&#9;c0.3-0.2,0.6-0.4,0.9-0.6c0.3-0.2,0.6-0.4,1-0.6c0.3-0.2,0.6-0.4,0.9-0.6c0.5-0.3,1-0.6,1.4-0.9c0.3-0.2,0.6-0.4,0.9-0.6&#10;&#9;&#9;&#9;&#9;&#9;&#9;&#9;&#9;&#9;&#9;c0.3-0.2,0.7-0.5,1-0.7s0.6-0.4,0.9-0.6c0.3-0.2,0.7-0.4,1-0.7c0.2-0.1,0.4-0.2,0.5-0.3c0.3-0.2,0.7-0.5,1-0.7&#10;&#9;&#9;&#9;&#9;&#9;&#9;&#9;&#9;&#9;&#9;c0.1-0.1,0.3-0.2,0.4-0.3c0.1-0.1,0.2,0,0.3,0c0,0.1,0,0.1-0.1,0.1s-0.2,0.1-0.3,0.1c-0.1,0-0.2,0.1-0.3,0.1&#10;&#9;&#9;&#9;&#9;&#9;&#9;&#9;&#9;&#9;&#9;c-0.2,0.2-0.4,0.3-0.6,0.4s-0.4,0.3-0.6,0.4c-0.1,0.2-0.2,0.3-0.4,0.4c-0.1,0-0.2,0.1-0.2,0.3c0,0.2-0.1,0.3-0.3,0.4&#10;&#9;&#9;&#9;&#9;&#9;&#9;&#9;&#9;&#9;&#9;c-0.2,0.1-0.3,0.2-0.5,0.3c-0.2,0.1-0.3,0.2-0.4,0.3c-0.1,0.1-0.3,0.1-0.4,0.3h-0.1c-0.1,0.1-0.3,0.1-0.4,0.2&#10;&#9;&#9;&#9;&#9;&#9;&#9;&#9;&#9;&#9;&#9;c-0.3,0.3-0.7,0.5-1.1,0.7c-0.2,0.1-0.5,0.3-0.7,0.4c-0.4,0.3-0.9,0.5-1.3,0.8c-0.4,0.3-0.8,0.6-1.2,0.8&#10;&#9;&#9;&#9;&#9;&#9;&#9;&#9;&#9;&#9;&#9;c-0.2,0.1-0.3,0.2-0.4,0.3l-0.3,0.1c-0.2,0.1-0.3,0.2-0.5,0.3c-0.4,0.2-0.8,0.5-1.2,0.7c-0.1,0-0.2,0.2-0.3,0.2&#10;&#9;&#9;&#9;&#9;&#9;&#9;&#9;&#9;&#9;&#9;c-0.3,0.2-0.6,0.4-0.9,0.6c-0.5,0.3-0.9,0.6-1.3,0.9c-0.5,0.3-0.9,0.6-1.4,0.9c-0.2,0.1-0.3,0.2-0.4,0.3l-0.2,0.1&#10;&#9;&#9;&#9;&#9;&#9;&#9;&#9;&#9;&#9;&#9;c-0.3,0.2-0.6,0.4-1,0.6c-0.1,0.1-0.2,0.1-0.3,0.2c-0.5,0.3-1,0.7-1.5,1c-0.6,0.4-1.3,0.8-1.9,1.2c-0.5,0.3-1,0.6-1.5,0.9&#10;&#9;&#9;&#9;&#9;&#9;&#9;&#9;&#9;&#9;&#9;c-0.2,0.1-0.4,0.2-0.6,0.3c-0.3,0.2-0.6,0.4-1,0.6L236.6,298.4z" id="el_DZXdhAb3FX3"/>
									<path d="M271.3,285.8C271.4,285.9,271.4,285.9,271.3,285.8c-0.1,0-0.2,0.1-0.4,0.1c-0.1,0-0.1,0,0,0.1&#10;&#9;&#9;&#9;&#9;&#9;&#9;&#9;&#9;&#9;&#9;c0.1,0.2,0.2,0.3,0.4,0.3c0,1,0,1.9,0,2.9c-0.4-0.1-0.7-0.2-1.1-0.3c-0.4-0.1-0.7-0.2-1.1-0.3c-0.2,0-0.2-0.1-0.2-0.3&#10;&#9;&#9;&#9;&#9;&#9;&#9;&#9;&#9;&#9;&#9;c0.1-0.8,0.1-1.6,0.2-2.4v-0.1h0.1c0.2,0,0.4,0.1,0.6,0.1c0,0,0,0,0.1,0c0,0.1,0.1,0.2,0.2,0.1s0.2-0.1,0.1-0.3&#10;&#9;&#9;&#9;&#9;&#9;&#9;&#9;&#9;&#9;&#9;c0-0.1,0-0.1,0-0.2c0.1-0.1,0.2-0.2,0-0.4c0.1,0,0.1,0.1,0.2,0.1h0.1c0-0.1,0-0.1,0-0.1c-0.1,0-0.1-0.1,0-0.1&#10;&#9;&#9;&#9;&#9;&#9;&#9;&#9;&#9;&#9;&#9;c0,0,0.1-0.1,0-0.1c-0.2-0.1-0.1-0.2-0.1-0.3c0,0,0.1,0,0.1-0.1l0,0c0.3,0,0.3,0,0.4,0.2c0,0.1,0.1,0.3,0.2,0.4&#10;&#9;&#9;&#9;&#9;&#9;&#9;&#9;&#9;&#9;&#9;c0,0.1,0.1,0.2-0.1,0.3c0,0-0.1,0-0.1,0.1l0.1,0.1C271.2,285.6,271.3,285.7,271.3,285.8z" id="el_6xo0_O0Co3q"/>
									<path d="M267.7,294.2c-0.1-0.1-0.1,0-0.2,0.1c-0.1,0.2-0.2,0.4-0.4,0.5c-0.1,0-0.1,0-0.1-0.1&#10;&#9;&#9;&#9;&#9;&#9;&#9;&#9;&#9;&#9;&#9;c0-0.2-0.2-0.3-0.3-0.4l0.6-0.4c-0.3,0-0.6,0.1-0.9,0.1c0-0.1,0.1-0.2-0.1-0.1c0,0,0,0-0.1,0c-0.2-0.1-0.2-0.3,0-0.4&#10;&#9;&#9;&#9;&#9;&#9;&#9;&#9;&#9;&#9;&#9;c0,0,0.1,0,0.1-0.1s-0.1,0-0.1,0c0,0.1-0.1,0.1-0.2,0.1c-0.2-0.1-0.2,0-0.3,0.1c-0.2,0.1-0.2,0.1-0.3-0.2&#10;&#9;&#9;&#9;&#9;&#9;&#9;&#9;&#9;&#9;&#9;c0.1,0.1,0.2,0.1,0.3,0c-0.1-0.1-0.3-0.4-0.5-0.2c-0.1-0.1-0.3-0.2-0.5-0.1c-0.1,0.1-0.2,0-0.2,0c0-0.1,0.1-0.2,0.1-0.4&#10;&#9;&#9;&#9;&#9;&#9;&#9;&#9;&#9;&#9;&#9;h0.1c0.1,0,0.1,0.1,0.1,0.1c0.2,0.2,0.2,0.2,0.4,0c0.1,0,0.1,0.1,0.2,0s0.1,0,0.2,0.1c0,0.1,0,0.1,0,0.2s0.1,0.1,0.2,0.1&#10;&#9;&#9;&#9;&#9;&#9;&#9;&#9;&#9;&#9;&#9;c0,0.1,0.1,0.1,0.2,0c0.1,0,0.1,0.2,0.2,0h0.1c0.2,0.1,0.3,0.1,0.4,0.3c0.1,0.1,0.2,0.1,0.3,0l0,0c0.1-0.1,0.2-0.2,0.3,0&#10;&#9;&#9;&#9;&#9;&#9;&#9;&#9;&#9;&#9;&#9;h0.1c0.1-0.1,0-0.3,0-0.4s-0.1,0-0.2,0c-0.1-0.1,0.1-0.2,0-0.2c-0.2-0.1-0.1-0.3-0.2-0.4c0-0.1,0-0.1,0-0.1&#10;&#9;&#9;&#9;&#9;&#9;&#9;&#9;&#9;&#9;&#9;c-0.1-0.1-0.2,0-0.3,0.1c0-0.1,0-0.2,0.1-0.2c0.1-0.1,0-0.1,0-0.2l0,0c-0.1-0.1-0.1-0.2-0.2-0.4l0.3,0.1l0,0&#10;&#9;&#9;&#9;&#9;&#9;&#9;&#9;&#9;&#9;&#9;c0.1,0,0.1,0,0.2,0h0.1l0,0c0.1,0.1,0.3,0.1,0.4,0.1c0.6,0.1,1.2,0.3,1.8,0.4c0.1,0,0.2,0.1,0.3,0.1&#10;&#9;&#9;&#9;&#9;&#9;&#9;&#9;&#9;&#9;&#9;c-0.1,0.1-0.2,0.1-0.3,0.2l-0.1,0.1c-0.1,0-0.2,0.1-0.2,0.2c0,0,0,0.1,0.1,0.1l0.1,0.1c0,0.2,0.1,0.1,0.2,0.1&#10;&#9;&#9;&#9;&#9;&#9;&#9;&#9;&#9;&#9;&#9;s0.2,0,0.3-0.1c0.1-0.1,0-0.1,0-0.2s-0.1,0-0.1,0c-0.1,0.1-0.1,0-0.2,0h-0.1l0,0c0,0,0,0,0.1,0c0.2,0,0.4-0.1,0.6-0.3&#10;&#9;&#9;&#9;&#9;&#9;&#9;&#9;&#9;&#9;&#9;c0,0,0.1-0.1,0.2-0.1l1.6,0.3l0.3,0.1l-0.4,0.1c-0.1,0-0.2,0-0.2,0c-0.7,0.2-1.3,0.3-2,0.5c-0.2,0-0.3,0.1-0.3,0.3h-0.1&#10;&#9;&#9;&#9;&#9;&#9;&#9;&#9;&#9;&#9;&#9;c0,0,0-0.1-0.1-0.1s0-0.1,0-0.1c0.1,0,0.2,0,0.3-0.1c0,0,0.1,0,0.1-0.1s-0.1-0.1-0.1-0.1c-0.1,0-0.2,0.1-0.3,0.2&#10;&#9;&#9;&#9;&#9;&#9;&#9;&#9;&#9;&#9;&#9;c-0.1,0-0.1,0.1,0,0.2l0,0l0.1,0.1c-0.1,0.1-0.1,0.1-0.2,0.2c0-0.1,0-0.2-0.1-0.3c-0.1-0.1-0.3-0.1-0.4-0.2&#10;&#9;&#9;&#9;&#9;&#9;&#9;&#9;&#9;&#9;&#9;c-0.1,0-0.2,0.2-0.3,0.3c-0.1,0.1-0.2,0.2-0.1,0.3C267.8,294.1,267.7,294.2,267.7,294.2z M270.1,293c0,0,0-0.1,0.1-0.1&#10;&#9;&#9;&#9;&#9;&#9;&#9;&#9;&#9;&#9;&#9;s0.1-0.1,0.1-0.2c-0.1-0.1-0.1,0-0.2,0.1l-0.1,0.1C269.9,292.9,269.9,293,270.1,293C270,293,270,293,270.1,293&#10;&#9;&#9;&#9;&#9;&#9;&#9;&#9;&#9;&#9;&#9;C270,293,270,293,270.1,293L270.1,293z" id="el_LtTK1pEMymw"/>
									<path d="M267,291.6h-0.1c0-0.1-0.1-0.1-0.2,0l0,0c0-0.1-0.1-0.1-0.2-0.1c-0.4-0.1-0.8-0.2-1.2-0.4&#10;&#9;&#9;&#9;&#9;&#9;&#9;&#9;&#9;&#9;&#9;c-0.1,0-0.1,0-0.2,0l-0.3-0.2c-0.1,0.2-0.1,0.5-0.3,0.7c-0.1,0-0.2,0-0.2-0.1l0,0c0-0.1,0-0.2-0.1-0.3&#10;&#9;&#9;&#9;&#9;&#9;&#9;&#9;&#9;&#9;&#9;c-0.1-0.1-0.2-0.2-0.1-0.3c0,0,0-0.1-0.1-0.1c0-0.2,0.1-0.3,0.3-0.4c0.1,0,0.1-0.1,0.1-0.2c0-0.2,0.1-0.3,0.3-0.4&#10;&#9;&#9;&#9;&#9;&#9;&#9;&#9;&#9;&#9;&#9;c0.1,0,0,0,0-0.1c-0.1-0.2,0-0.2,0.2-0.2l0.1,0.1c-0.1,0-0.1,0.1-0.1,0.1l0,0c0,0.1,0.1,0,0.2,0c0.2,0,0.1-0.1,0.1-0.2&#10;&#9;&#9;&#9;&#9;&#9;&#9;&#9;&#9;&#9;&#9;c0.1,0,0.1-0.1,0.1-0.2c0,0,0-0.1,0.1-0.1c0,0,0.1,0,0.1,0.1l0,0c0,0.1,0,0.1,0.1,0.2c0.1,0.2,0.3,0.4,0.3,0.7&#10;&#9;&#9;&#9;&#9;&#9;&#9;&#9;&#9;&#9;&#9;c0,0.1,0,0.1,0.1,0.2c0.1,0.4,0.5,0.5,0.8,0.7c0.1,0.1,0.2,0.1,0.3,0.2C267,291.4,267,291.5,267,291.6L267,291.6z&#10;&#9;&#9;&#9;&#9;&#9;&#9;&#9;&#9;&#9;&#9; M264.8,289.9c-0.1,0,0,0.1,0,0.1l0,0C264.8,290,264.8,290,264.8,289.9z" id="el_eaDfxCUSr8v"/>
									<path d="M270.2,292.4c-0.1,0-0.1,0.1-0.2,0.1c-0.1,0.2-0.3,0.3-0.6,0.3h-0.1c0,0,0,0.1,0.1,0.1l0,0&#10;&#9;&#9;&#9;&#9;&#9;&#9;&#9;&#9;&#9;&#9;c0.1,0,0.1,0.1,0.2,0c0,0,0.1-0.1,0.1,0s0.1,0.1,0,0.2s-0.2,0.1-0.3,0.1c-0.1,0-0.2,0-0.2-0.1l-0.1-0.1&#10;&#9;&#9;&#9;&#9;&#9;&#9;&#9;&#9;&#9;&#9;c-0.1-0.1-0.1-0.2,0-0.3l0.1-0.1c0,0,0.1,0,0.1-0.1s0.2-0.2,0.3-0.2C269.8,292.3,270,292.3,270.2,292.4z" id="el_9kQlgHkaoX7"/>
									<path d="M267.5,290c-0.1,0.1-0.2-0.1-0.3,0c0,0,0,0,0-0.1s0-0.3-0.1-0.4c0,0-0.1-0.1,0-0.1h0.1&#10;&#9;&#9;&#9;&#9;&#9;&#9;&#9;&#9;&#9;&#9;c0.1,0,0.2,0,0.2,0.2l0,0C267.5,289.7,267.4,289.9,267.5,290L267.5,290z" id="el_pOhVo2KJtu4"/>
									<path d="M267,289.2L267,289.2c-0.1,0-0.2,0.1-0.2,0.1c0-0.1,0-0.2,0.1-0.3h0.1c0,0,0-0.2,0.1-0.1&#10;&#9;&#9;&#9;&#9;&#9;&#9;&#9;&#9;&#9;&#9;c0.1,0,0.1,0.1,0.1,0.2C267.3,289.1,267.2,289.1,267,289.2C267.1,289.1,267.1,289.2,267,289.2z" id="el_BWOYarPnVXp"/>
									<path d="M271.8,284.9c0-0.1-0.1-0.1-0.2,0s-0.2,0-0.1-0.1c0-0.1,0-0.1,0-0.2c0,0,0.1-0.1,0.1,0&#10;&#9;&#9;&#9;&#9;&#9;&#9;&#9;&#9;&#9;&#9;C271.7,284.7,271.8,284.7,271.8,284.9L271.8,284.9L271.8,284.9L271.8,284.9z" id="el_6jb1_DxSXXC"/>
									<path d="M265.1,289.7c0,0.1,0.1,0.2-0.1,0.2c-0.1,0-0.1,0-0.2,0c0-0.1,0-0.1,0.1-0.2l0,0H265.1z" id="el_Xm2O2do7pgH"/>
									<path d="M267.4,291.7c-0.1,0-0.3,0-0.4-0.1C267.1,291.5,267.3,291.5,267.4,291.7L267.4,291.7z" id="el_IVhO9AyjNsu"/>
									<path d="M267.5,290L267.5,290L267.5,290L267.5,290C267.5,290.1,267.5,290,267.5,290L267.5,290z" id="el_riIOR90DT10"/>
									<path d="M267.5,290C267.5,289.9,267.5,289.9,267.5,290C267.6,289.9,267.6,289.9,267.5,290&#10;&#9;&#9;&#9;&#9;&#9;&#9;&#9;&#9;&#9;&#9;C267.6,289.9,267.6,289.9,267.5,290L267.5,290z" id="el_bgso06YUcIC"/>
									<path d="M271.9,284.8L271.9,284.8L271.9,284.8z" id="el_uujHp1j4F4K"/>
									<path d="M266.6,295.6c0,0.1-0.2,0.3-0.3,0.3c-0.6,0.2-1.2,0.4-1.9,0.6c-0.1,0-0.2,0-0.2-0.1&#10;&#9;&#9;&#9;&#9;&#9;&#9;&#9;&#9;&#9;&#9;c-0.1-0.1-0.1-0.3-0.1-0.4c0.1-0.1,0.2-0.2,0.1-0.4c0-0.2,0-0.4,0.1-0.5c0-0.1,0.1-0.1,0.1-0.1c0.1,0,0.1,0.1,0,0.1&#10;&#9;&#9;&#9;&#9;&#9;&#9;&#9;&#9;&#9;&#9;c0,0.1,0,0.2-0.1,0.2v0.1h0.1c0.1-0.1,0.1-0.3,0.2-0.4c0-0.1-0.1-0.1-0.2-0.2s-0.2-0.2-0.2-0.3c0.1-0.1,0.1-0.2,0.2-0.3&#10;&#9;&#9;&#9;&#9;&#9;&#9;&#9;&#9;&#9;&#9;c0.1,0,0,0.2,0.1,0.1c0.1,0,0-0.1,0-0.2s0.1-0.2,0.2-0.2s0.1,0,0.2,0.1c0.1,0,0.2,0.1,0.2-0.1c0-0.1,0.1-0.1,0.2,0&#10;&#9;&#9;&#9;&#9;&#9;&#9;&#9;&#9;&#9;&#9;c0,0,0.1,0,0.2,0.1c0,0.1,0.1,0.1,0.1,0.1l0,0c-0.1,0.1-0.1,0.1,0.1,0.2v0.1c0.1,0.2,0.1,0.2,0.2,0.1c0,0,0,0,0.1,0&#10;&#9;&#9;&#9;&#9;&#9;&#9;&#9;&#9;&#9;&#9;c0,0.1,0.2,0.1,0.1,0.2c-0.1,0-0.1,0.1-0.1,0.2c0,0,0,0.1,0.1,0.1c0.2,0.1,0.1,0.2,0.2,0.4&#10;&#9;&#9;&#9;&#9;&#9;&#9;&#9;&#9;&#9;&#9;C266.4,295.6,266.5,295.7,266.6,295.6z M266.1,295.9c0,0,0.1,0,0.1-0.1c0-0.3,0-0.5-0.2-0.8c-0.1-0.1-0.3-0.1-0.4,0&#10;&#9;&#9;&#9;&#9;&#9;&#9;&#9;&#9;&#9;&#9;s-0.1,0.2-0.1,0.3c0,0.1,0.1,0.2,0,0.4c0,0.2,0,0.3,0.2,0.3C265.8,296,266,296,266.1,295.9L266.1,295.9z" id="el_Zc3g2SZawSh"/>
									<path d="M265.7,294.2c0-0.1-0.1-0.1-0.2-0.1c-0.1-0.1-0.1-0.1-0.2,0c0,0.1-0.1,0.1-0.2,0.1s-0.1-0.1-0.2-0.1&#10;&#9;&#9;&#9;&#9;&#9;&#9;&#9;&#9;&#9;&#9;s-0.2,0-0.2,0.2c0,0.1,0.1,0.1,0,0.2c-0.1,0-0.1-0.1-0.1-0.1c-0.1,0.1-0.1,0.2-0.2,0.3c-0.1,0.1,0.1,0.2,0.2,0.3&#10;&#9;&#9;&#9;&#9;&#9;&#9;&#9;&#9;&#9;&#9;c0.1,0,0.2,0.1,0.2,0.2c0,0.2-0.1,0.3-0.2,0.4h-0.1c0,0-0.1-0.1,0-0.1c0-0.1,0-0.2,0.1-0.2v-0.1c-0.1,0-0.1,0-0.1,0.1&#10;&#9;&#9;&#9;&#9;&#9;&#9;&#9;&#9;&#9;&#9;c-0.1,0.2-0.1,0.3-0.1,0.5c0,0.1,0,0.3-0.1,0.4c-0.2-0.3-0.2-0.6-0.4-0.9c0-0.1,0-0.1,0-0.2s0-0.1,0-0.2&#10;&#9;&#9;&#9;&#9;&#9;&#9;&#9;&#9;&#9;&#9;c0.1-0.2,0-0.3,0.2-0.5c0,0,0.2-0.1,0.1-0.2c0-0.1-0.1-0.2-0.1-0.3c0,0-0.1,0-0.2,0c0-0.1,0-0.1,0-0.2l0,0&#10;&#9;&#9;&#9;&#9;&#9;&#9;&#9;&#9;&#9;&#9;c0.1,0.1,0.3,0.1,0.4,0.2s0.1,0.1,0.2,0s0.1-0.1,0.1-0.2c0,0,0-0.1-0.1-0.1s-0.1,0.1-0.2,0c0.1-0.1,0.1-0.3,0.1-0.5h0.1&#10;&#9;&#9;&#9;&#9;&#9;&#9;&#9;&#9;&#9;&#9;c0.1,0.1,0.1,0.1,0.2,0c0.2-0.1,0.3,0,0.5,0.1c0,0.1-0.1,0.3,0.1,0.4c0,0,0,0,0,0.1c0,0.2,0.1,0.3,0.2,0.4&#10;&#9;&#9;&#9;&#9;&#9;&#9;&#9;&#9;&#9;&#9;C265.6,294.1,265.7,294.1,265.7,294.2z" id="el_Q9o3BPLdkn0"/>
									<path d="M266.6,295.6c-0.2,0.1-0.2,0-0.3-0.2c-0.1-0.1,0-0.3-0.2-0.4c-0.1,0-0.1-0.1,0-0.2c0,0,0,0,0.1-0.1&#10;&#9;&#9;&#9;&#9;&#9;&#9;&#9;&#9;&#9;&#9;s0-0.1-0.1-0.2c0.2-0.1,0.3-0.3,0.5-0.4c0.1,0.1,0.3,0.2,0.3,0.4c0,0.1,0.1,0.1,0.1,0.1C267,295.1,266.8,295.4,266.6,295.6&#10;&#9;&#9;&#9;&#9;&#9;&#9;&#9;&#9;&#9;&#9;z" id="el_1BXeX_SkSNN"/>
									<path d="M267.7,294.2c0.1,0,0.1-0.1,0.1-0.2s0.1-0.2,0.1-0.3c0.1-0.1,0.2-0.3,0.3-0.3&#10;&#9;&#9;&#9;&#9;&#9;&#9;&#9;&#9;&#9;&#9;c0.1,0.1,0.3,0.1,0.4,0.2s0.1,0.2,0.1,0.3c-0.2,0.2-0.4,0.4-0.7,0.6c-0.1,0.1-0.1,0.1-0.2,0&#10;&#9;&#9;&#9;&#9;&#9;&#9;&#9;&#9;&#9;&#9;C267.8,294.4,267.7,294.3,267.7,294.2z" id="el_6OJQumkRp00"/>
									<path d="M269.1,293.8c0-0.2,0.2-0.3,0.3-0.3c0.7-0.1,1.3-0.3,2-0.5c0.1,0,0.2,0,0.2,0&#10;&#9;&#9;&#9;&#9;&#9;&#9;&#9;&#9;&#9;&#9;c-0.1,0.2-0.3,0.3-0.4,0.5c-0.1,0.1-0.4,0.2-0.6,0.1c-0.3-0.1-0.7-0.1-1.1,0.1C269.4,293.7,269.3,293.8,269.1,293.8z" id="el_PAiKK31jSti"/>
									<path d="M263.8,293.8c0.1,0.1,0.2,0,0.2,0c0,0.1,0.1,0.2,0.1,0.3c0,0.1-0.1,0.2-0.1,0.2&#10;&#9;&#9;&#9;&#9;&#9;&#9;&#9;&#9;&#9;&#9;c-0.2,0.1-0.1,0.3-0.2,0.5c0,0.1,0,0.1,0,0.2c-0.1,0-0.1-0.1-0.1-0.1l0,0C263.7,294.5,263.7,294.1,263.8,293.8z" id="el_d6rOxTWqYyN"/>
									<path d="M268.9,293.8l-0.1-0.1c-0.1,0-0.1-0.1-0.1-0.2l0,0c0.1-0.1,0.2-0.2,0.3-0.2c0.1,0,0.1,0,0.1,0.1&#10;&#9;&#9;&#9;&#9;&#9;&#9;&#9;&#9;&#9;&#9;s-0.1,0.1-0.1,0.1c-0.1,0.1-0.1,0.2-0.3,0.1c0,0-0.1,0,0,0.1C269,293.7,268.9,293.7,268.9,293.8L268.9,293.8z" id="el_WIWc6a7Nzq2"/>
									<path d="M273.1,283.1c-0.1-0.2,0.1-0.2,0.2-0.2C273.2,283,273.2,283,273.1,283.1z" id="el_2Y5-C-6HDJg"/>
									<path d="M273.3,282.9C273.3,282.8,273.3,282.8,273.3,282.9L273.3,282.9z" id="el_zPsfNbiOaU0"/>
									<path d="M270.4,284.8C270.3,284.8,270.3,284.7,270.4,284.8c-0.2-0.1-0.1-0.2-0.1-0.2c0.1-0.1,0.1,0,0.1,0.1&#10;&#9;&#9;&#9;&#9;&#9;&#9;&#9;&#9;&#9;&#9;C270.4,284.6,270.4,284.7,270.4,284.8C270.4,284.7,270.4,284.8,270.4,284.8z" id="el_biBdkcdnFNf"/>
									<path d="M266.4,291.5c0,0.1,0.1,0.3,0.2,0.4c0.1,0,0.1,0.1,0,0.2l0,0c0,0.1-0.1,0.2-0.1,0.2&#10;&#9;&#9;&#9;&#9;&#9;&#9;&#9;&#9;&#9;&#9;c0.1-0.1,0.2-0.1,0.3-0.1c0,0,0.1,0.1,0,0.1s-0.2,0.1-0.2,0.2s0,0.1,0.1,0.1s0,0.1,0,0.1c-0.1,0-0.1,0-0.2,0&#10;&#9;&#9;&#9;&#9;&#9;&#9;&#9;&#9;&#9;&#9;c0-0.1-0.2-0.2-0.3-0.3c-0.2,0-0.2,0-0.2,0.2c0,0.1-0.1,0.2-0.2,0.1l-0.1-0.1h-0.1v0.1l0,0c0.1,0.1,0.1,0.2,0.1,0.3&#10;&#9;&#9;&#9;&#9;&#9;&#9;&#9;&#9;&#9;&#9;l-0.1,0.1c-0.1,0-0.1,0.1-0.2-0.1c0-0.1,0-0.1,0-0.2s-0.1-0.1-0.2-0.1c-0.1,0.1-0.1,0-0.2,0c-0.1-0.1-0.2-0.2-0.3-0.2&#10;&#9;&#9;&#9;&#9;&#9;&#9;&#9;&#9;&#9;&#9;c0-0.1,0-0.2,0.1-0.2s0.2,0,0.2,0.1s0,0.1,0.1,0.1s0.1-0.1,0.1-0.1c0-0.1-0.1-0.2,0-0.2s0.1,0.1,0.2,0.1l0,0&#10;&#9;&#9;&#9;&#9;&#9;&#9;&#9;&#9;&#9;&#9;c0,0,0.1,0.1,0.1,0s0-0.1,0-0.1s-0.1,0-0.1-0.1V292h0.1c0.1,0,0.2,0.1,0.2,0.2c0,0,0,0.1,0.1,0v-0.1c0,0-0.1-0.1,0-0.1&#10;&#9;&#9;&#9;&#9;&#9;&#9;&#9;&#9;&#9;&#9;c0.2,0,0.1-0.1,0.1-0.2c0.1-0.1,0-0.1,0-0.2s-0.1,0-0.2,0c0,0-0.1,0.1-0.1,0c0.1-0.2,0-0.2-0.2-0.3c-0.1,0-0.1-0.1-0.1-0.1&#10;&#9;&#9;&#9;&#9;&#9;&#9;&#9;&#9;&#9;&#9;L266.4,291.5z" id="el_J0igc60U54h"/>
									<path d="M266.5,292.7c0,0,0.1,0.1,0.2,0c0,0,0.1,0,0-0.1c-0.1,0-0.1-0.1-0.1-0.1c0-0.1,0.1-0.2,0.2-0.2&#10;&#9;&#9;&#9;&#9;&#9;&#9;&#9;&#9;&#9;&#9;c0.1,0.1,0,0.3,0.2,0.4c0.1,0-0.1,0.1,0,0.2s0.2-0.1,0.2,0c0.1,0.1,0.1,0.2,0,0.4c0,0-0.1,0.1-0.1,0c-0.1-0.1-0.2,0-0.3,0&#10;&#9;&#9;&#9;&#9;&#9;&#9;&#9;&#9;&#9;&#9;c-0.1,0.1-0.2,0.1-0.3,0l0,0c-0.1-0.1-0.3-0.2-0.4-0.3H266c-0.1,0.2-0.1,0-0.2,0l0,0c0,0,0.1,0,0.1-0.1l0.1-0.1&#10;&#9;&#9;&#9;&#9;&#9;&#9;&#9;&#9;&#9;&#9;c0.2,0.1,0.1-0.1,0.1-0.1l0,0c0,0.1,0.1,0.1,0,0.2c0,0.1,0,0.1,0.1,0.1s0.1,0,0.1-0.1C266.5,292.9,266.4,292.8,266.5,292.7&#10;&#9;&#9;&#9;&#9;&#9;&#9;&#9;&#9;&#9;&#9;L266.5,292.7z" id="el_KDdGX2JgcBV"/>
									<path d="M265.7,294.2c0-0.1-0.1-0.1-0.1-0.2c-0.1-0.1-0.2-0.2-0.2-0.4v-0.1c-0.2-0.1-0.1-0.3-0.1-0.4&#10;&#9;&#9;&#9;&#9;&#9;&#9;&#9;&#9;&#9;&#9;c0.2-0.2,0.4,0,0.5,0.2c-0.1,0.1-0.3,0.1-0.3,0c0.1,0.3,0.2,0.3,0.3,0.2c0.1-0.1,0.2-0.2,0.3-0.1c0,0,0.1,0,0.2-0.1&#10;&#9;&#9;&#9;&#9;&#9;&#9;&#9;&#9;&#9;&#9;c0,0,0.1-0.1,0.1,0s0,0.1-0.1,0.1c-0.2,0.1-0.2,0.3,0,0.4h0.1c0.2-0.1,0.1,0.1,0.1,0.1c-0.2,0-0.4,0.1-0.5,0.1&#10;&#9;&#9;&#9;&#9;&#9;&#9;&#9;&#9;&#9;&#9;c-0.2,0-0.2,0.1-0.1,0.2C265.7,294.3,265.7,294.3,265.7,294.2z" id="el_E3cEkOr1Rd_"/>
									<path d="M265.8,294.3c-0.1-0.1,0-0.2,0.1-0.2c0.2,0,0.4-0.1,0.5-0.1c0.3,0,0.6-0.1,0.9-0.1l-0.6,0.4&#10;&#9;&#9;&#9;&#9;&#9;&#9;&#9;&#9;&#9;&#9;c-0.2,0.1-0.4,0.2-0.5,0.4c0,0,0,0-0.1,0c-0.2,0.1-0.2,0.1-0.2-0.1v-0.1L265.8,294.3L265.8,294.3z" id="el_vlXCVq7Pnp5"/>
									<path d="M266.4,291.5l-0.7-0.2c-0.1,0-0.1,0-0.2,0s-0.2-0.1-0.3-0.1l0,0l0,0v-0.1c0.1,0,0.1,0,0.2,0&#10;&#9;&#9;&#9;&#9;&#9;&#9;&#9;&#9;&#9;&#9;c0.4,0.1,0.8,0.3,1.2,0.4c0.1,0,0.2,0.1,0.2,0.1L266.4,291.5z" id="el_ZuR0fi4gtBY"/>
									<path d="M264.5,293L264.5,293c-0.3,0-0.4,0.1-0.4,0.3c0,0.1,0,0.1-0.1,0.2c-0.1,0-0.1-0.1-0.1-0.1l0,0&#10;&#9;&#9;&#9;&#9;&#9;&#9;&#9;&#9;&#9;&#9;c0,0,0,0,0-0.1l0,0c0,0,0,0,0-0.1l0,0c0,0,0,0,0-0.1s0-0.1,0.1-0.2s0.3-0.1,0.3-0.2s0.1-0.2,0.2-0.2l0,0&#10;&#9;&#9;&#9;&#9;&#9;&#9;&#9;&#9;&#9;&#9;C264.6,292.8,264.5,292.9,264.5,293z" id="el_DwbCeniNbJW"/>
									<path d="M264.8,292.5c0.1,0,0.2,0.1,0.3,0.2c-0.1,0.2-0.2,0.2-0.4,0c0,0,0-0.1-0.1-0.1v-0.1l0,0&#10;&#9;&#9;&#9;&#9;&#9;&#9;&#9;&#9;&#9;&#9;C264.7,292.5,264.8,292.6,264.8,292.5z" id="el_fUqdqL9WOtd"/>
									<path d="M270.1,293C270,293,270,293,270.1,293c-0.1,0-0.1-0.1-0.1-0.1l0,0l0.1-0.1c0,0,0.1-0.1,0.2-0.1&#10;&#9;&#9;&#9;&#9;&#9;&#9;&#9;&#9;&#9;&#9;c0.1,0.1,0,0.1-0.1,0.2C270.1,292.9,270.1,292.9,270.1,293z" id="el_nJIrvrk6Zq4"/>
									<path d="M264.7,292.5c0,0-0.1,0.1,0,0.1l0,0h-0.1l0,0c0-0.1-0.2,0-0.1-0.2&#10;&#9;&#9;&#9;&#9;&#9;&#9;&#9;&#9;&#9;&#9;C264.5,292.4,264.6,292.4,264.7,292.5z" id="el_WJ9D35mpoZx"/>
									<path d="M265.7,293l0.1-0.1c0.1,0,0.1,0.1,0.1,0.1l0,0C265.8,293.2,265.7,293.2,265.7,293z" id="el_rb2BNCheZ7g"/>
									<path d="M266.7,291.5c0.1-0.1,0.2-0.1,0.2,0C266.8,291.6,266.7,291.6,266.7,291.5z" id="el_84u9Hj1eEXP"/>
									<path d="M271.1,284.9C271.1,285,271.1,285,271.1,284.9C271.1,285,271.1,284.9,271.1,284.9z" id="el_NHXdBEDLZKA"/>
									<path d="M264.7,292.5c-0.1-0.1-0.1-0.1-0.2,0s0.1,0.1,0.1,0.2c-0.1,0-0.2,0.1-0.2,0.2s-0.2,0.1-0.3,0.2&#10;&#9;&#9;&#9;&#9;&#9;&#9;&#9;&#9;&#9;&#9;c0.1-0.4,0.3-0.9,0.4-1.3c0-0.1,0.1-0.1,0-0.2c0.1-0.2,0.2-0.4,0.3-0.7l0.3,0.2c0,0,0.1,0.1,0,0.1s-0.1-0.1-0.2,0&#10;&#9;&#9;&#9;&#9;&#9;&#9;&#9;&#9;&#9;&#9;c0,0.1,0,0.1,0.1,0.1c0.1,0.1,0.3,0.1,0.5,0l0,0c0.1,0,0.1,0,0.2,0c0,0,0,0.1,0.1,0.1c0.2,0,0.2,0.1,0.2,0.3&#10;&#9;&#9;&#9;&#9;&#9;&#9;&#9;&#9;&#9;&#9;c0,0.1,0.1,0.1,0.1,0c0.1,0,0.1-0.1,0.2,0c0,0.1,0.1,0.1,0,0.2c-0.1,0,0,0.2-0.1,0.2s0,0.1,0,0.1v0.1h-0.1&#10;&#9;&#9;&#9;&#9;&#9;&#9;&#9;&#9;&#9;&#9;c0-0.1-0.1-0.1-0.2-0.2c0,0-0.1-0.1-0.1,0v0.1l0.1,0.1c0.1,0,0.1,0.1,0,0.1c0,0.1-0.1,0-0.1,0l0,0&#10;&#9;&#9;&#9;&#9;&#9;&#9;&#9;&#9;&#9;&#9;c-0.1-0.1-0.1-0.2-0.2-0.1c-0.1,0,0,0.1,0,0.2s-0.1,0.1-0.1,0.1c-0.1,0-0.1-0.1-0.1-0.1c0-0.1-0.1-0.1-0.2-0.1&#10;&#9;&#9;&#9;&#9;&#9;&#9;&#9;&#9;&#9;&#9;s-0.1,0.1-0.1,0.2C264.8,292.6,264.7,292.5,264.7,292.5z" id="el_t2FhPi0ih_D"/>
									<path d="M264.8,289.9v0.1l0,0C264.7,290,264.7,290,264.8,289.9z" id="el_f8zKuvZgwus"/>
									<path d="M263.9,293.4c0,0,0,0.1,0.1,0.1s0.1-0.1,0.1-0.2c0-0.3,0-0.3,0.3-0.3c0,0.2,0,0.3-0.1,0.5&#10;&#9;&#9;&#9;&#9;&#9;&#9;&#9;&#9;&#9;&#9;c0.1,0.1,0.1,0,0.2,0c0,0,0.1,0,0.1,0.1c-0.1,0.1-0.1,0.2-0.1,0.2c-0.1,0.1-0.1,0.1-0.2,0s-0.2-0.2-0.4-0.2&#10;&#9;&#9;&#9;&#9;&#9;&#9;&#9;&#9;&#9;&#9;C263.9,293.5,263.9,293.5,263.9,293.4z" id="el_pd8U7iOPSpm"/>
									<path d="M264,293.2C264,293.3,264,293.3,264,293.2L264,293.2z" id="el_i-uY9zcYTsY"/>
									<path d="M264,293.3L264,293.3C263.9,293.3,264,293.3,264,293.3z" id="el_gkPjjjEvQzu"/>
									<path d="M264,293.4L264,293.4C263.9,293.4,263.9,293.4,264,293.4z" id="el_VvOMkq9SaD0"/>
									<path d="M266.1,295.9c-0.1,0.1-0.2,0.1-0.3,0c-0.2,0-0.2-0.1-0.2-0.3c0-0.1,0-0.2,0-0.4&#10;&#9;&#9;&#9;&#9;&#9;&#9;&#9;&#9;&#9;&#9;c0-0.1-0.1-0.2,0.1-0.3c0.1-0.1,0.3-0.1,0.4,0c0.2,0.2,0.2,0.5,0.2,0.8C266.2,295.9,266.1,295.9,266.1,295.9z" id="el_M9eaMjlPnAb"/>
									<path d="M265.8,294.3l0.1,0.2C265.7,294.5,265.7,294.4,265.8,294.3z" id="el_uDpY57VrmGm"/>
									<path d="M265.9,293.1C265.9,293,265.8,293,265.9,293.1c-0.2-0.2-0.1-0.3-0.2-0.4v-0.1l0,0h0.1l0.1,0.1&#10;&#9;&#9;&#9;&#9;&#9;&#9;&#9;&#9;&#9;&#9;c0.1,0,0.2,0,0.2-0.1c0-0.2,0-0.2,0.2-0.2c0.1,0,0.2,0.1,0.3,0.3h-0.1l-0.1,0.1l0,0l-0.1-0.1c-0.1,0.1-0.2,0.1-0.1,0.3&#10;&#9;&#9;&#9;&#9;&#9;&#9;&#9;&#9;&#9;&#9;C266,293,265.9,293,265.9,293.1z" id="el_9Oiquk5Mwn_"/>
									<path d="M266,293c-0.1-0.2,0.1-0.2,0.1-0.3l0.1,0.1c0,0.1,0,0.2-0.1,0.1C266.1,292.9,266.1,293,266,293z" id="el_Toy0AJHiSBR"/>
									<path d="M266.3,292.8l0.1-0.1c0,0.1,0,0.1,0.1,0.2c0,0.1,0,0.1-0.1,0.1c0,0-0.1,0-0.1-0.1&#10;&#9;&#9;&#9;&#9;&#9;&#9;&#9;&#9;&#9;&#9;C266.4,292.9,266.3,292.8,266.3,292.8z" id="el_1SeHvCdSi-l"/>
									<path d="M265.4,291.2c-0.1,0.1-0.3,0.1-0.5,0l0,0l-0.1-0.1c0-0.1,0.1,0,0.2,0l0,0c0,0,0,0.1,0,0&#10;&#9;&#9;&#9;&#9;&#9;&#9;&#9;&#9;&#9;&#9;C265.2,291.2,265.3,291.2,265.4,291.2z" id="el_mEpOHXN_KSr"/>
									<path d="M265.1,291.2L265.1,291.2L265.1,291.2z" id="el_P29nSCHOvlk"/>
									<path d="M263.1,287.5c0,0.1,0,0.1-0.1,0.2l0,0c-0.1,0-0.1,0-0.2-0.1c-0.1-0.2-0.3-0.2-0.5-0.1l-0.1,0.1&#10;&#9;&#9;&#9;&#9;&#9;&#9;&#9;&#9;&#9;&#9;c-0.1,0.1-0.2,0.2-0.3,0.2c-0.1,0-0.1,0-0.2,0l0,0c0,0,0.2,0,0.2,0.1s-0.1,0.1-0.2,0.1l0,0c0,0.1,0.2,0,0.1,0.1&#10;&#9;&#9;&#9;&#9;&#9;&#9;&#9;&#9;&#9;&#9;c0,0.1-0.1,0.1-0.2,0.1s-0.2-0.1-0.3-0.1c0,0,0,0.1-0.1,0.1c0,0.1,0.2,0,0.1,0.2c0,0.1-0.1,0.2-0.2,0.2s-0.2,0-0.2-0.1l0,0&#10;&#9;&#9;&#9;&#9;&#9;&#9;&#9;&#9;&#9;&#9;c0.1-0.1,0-0.2,0.1-0.3c0-0.1,0-0.1,0-0.2h-0.1l0,0c0.1-0.1,0.2-0.2,0-0.3c-0.1,0-0.1-0.1-0.1-0.1l0,0&#10;&#9;&#9;&#9;&#9;&#9;&#9;&#9;&#9;&#9;&#9;c0.1-0.1,0.1-0.3,0.3-0.2c0.1,0,0.2-0.1,0.2-0.1c0.1,0,0.2,0,0.2,0.1v0.1c0,0,0.1,0,0.1-0.1c0,0,0.1-0.1,0-0.2l-0.1-0.1&#10;&#9;&#9;&#9;&#9;&#9;&#9;&#9;&#9;&#9;&#9;c0,0-0.1-0.1,0-0.1c0.1-0.1,0.2-0.1,0-0.2c0,0,0-0.1,0.1-0.1s0.2,0,0.2-0.1c0.1,0,0.2,0,0.2-0.2c0,0,0-0.1,0.1-0.1&#10;&#9;&#9;&#9;&#9;&#9;&#9;&#9;&#9;&#9;&#9;c0.2-0.1,0.2-0.2,0.3-0.3c0.2-0.2,0.4-0.2,0.5-0.4c0,0,0.1,0,0.2,0c0.2,0.1,0.3,0.1,0.4-0.2l0,0c0.2-0.1,0.2-0.2,0.2-0.4&#10;&#9;&#9;&#9;&#9;&#9;&#9;&#9;&#9;&#9;&#9;c0-0.1,0-0.2-0.1-0.3c-0.1-0.1-0.1-0.2,0.1-0.3l-0.1-0.1c-0.1,0-0.1,0-0.2,0.1c-0.2,0.1-0.2,0.1-0.2-0.1s-0.1-0.3-0.3-0.2&#10;&#9;&#9;&#9;&#9;&#9;&#9;&#9;&#9;&#9;&#9;l0.1,0.1c0,0,0.1,0,0.1,0.1c-0.1,0.1-0.2,0.2-0.3,0h-0.1l0,0v0.1c0.1,0.1,0,0.2,0.1,0.3l0,0c-0.1,0.1-0.2,0.1-0.3,0.3&#10;&#9;&#9;&#9;&#9;&#9;&#9;&#9;&#9;&#9;&#9;c0,0.1-0.1,0-0.1-0.1s-0.1-0.1-0.2,0s-0.2,0.1-0.3,0c-0.1,0-0.2,0-0.3,0.1l-0.1,0.1c-0.1,0-0.1,0.1-0.2,0&#10;&#9;&#9;&#9;&#9;&#9;&#9;&#9;&#9;&#9;&#9;c0-0.1,0-0.1,0.1-0.1c0.1-0.2,0.1-0.4,0-0.6l-0.1,0.1c0.1,0.3,0.1,0.3-0.2,0.5c-0.3,0.2-0.7,0.4-1.1,0.5&#10;&#9;&#9;&#9;&#9;&#9;&#9;&#9;&#9;&#9;&#9;c-0.1,0-0.2,0.1-0.3,0c-0.1,0.1-0.3,0.1-0.3,0.3c0,0.1-0.2,0-0.3,0l0,0c0.1,0.1,0.2,0.1,0.3,0c0.1-0.2,0.2-0.2,0.3-0.3&#10;&#9;&#9;&#9;&#9;&#9;&#9;&#9;&#9;&#9;&#9;c0.1-0.2,0.4-0.3,0.5-0.4l0.1-0.1c0-0.2-0.1-0.3,0-0.5c0,0,0,0,0-0.1s-0.1-0.1,0-0.2c0.1,0,0.2-0.2,0.3-0.1&#10;&#9;&#9;&#9;&#9;&#9;&#9;&#9;&#9;&#9;&#9;c0.1,0,0.1,0.1,0.2,0c0-0.1-0.1-0.1-0.1-0.2c0,0,0,0-0.1,0v-0.1c-0.3,0-0.5,0-0.8,0.1c-0.1,0.1-0.2,0.1-0.3,0&#10;&#9;&#9;&#9;&#9;&#9;&#9;&#9;&#9;&#9;&#9;c-0.1,0-0.2,0.1-0.3,0.1c-0.2,0.2-0.4,0.3-0.6,0.4s-0.4,0.3-0.6,0.4c-0.1,0.2-0.2,0.3-0.4,0.4c-0.1,0-0.2,0.1-0.2,0.3&#10;&#9;&#9;&#9;&#9;&#9;&#9;&#9;&#9;&#9;&#9;c0,0.2-0.1,0.3-0.3,0.4c-0.2,0.1-0.3,0.2-0.5,0.3c-0.2,0.1-0.3,0.2-0.4,0.3c0.1,0.2,0.1,0.2-0.1,0.2c-0.1,0-0.1,0-0.1,0.1&#10;&#9;&#9;&#9;&#9;&#9;&#9;&#9;&#9;&#9;&#9;s-0.1,0.1-0.2,0h-0.1l0,0c-0.1,0.1-0.3,0.1-0.4,0.2c-0.3,0.3-0.7,0.5-1.1,0.7c-0.2,0.1-0.5,0.3-0.7,0.4&#10;&#9;&#9;&#9;&#9;&#9;&#9;&#9;&#9;&#9;&#9;c-0.4,0.3-0.9,0.5-1.3,0.8c-0.4,0.3-0.8,0.6-1.2,0.8c-0.2,0.1-0.3,0.2-0.4,0.3c0.2,0.3,0.1,0.5-0.3,0.6&#10;&#9;&#9;&#9;&#9;&#9;&#9;&#9;&#9;&#9;&#9;c0.1-0.1,0.1-0.3,0-0.4c-0.2,0.1-0.3,0.2-0.5,0.3c-0.4,0.2-0.8,0.5-1.2,0.7c0,0.1,0.1,0.1,0.2,0.1c0.2-0.1,0.2-0.1,0.2,0.1&#10;&#9;&#9;&#9;&#9;&#9;&#9;&#9;&#9;&#9;&#9;c0,0,0,0.1,0.1,0.1c0.2,0.1,0.1,0.1,0,0.2c0.1,0.1,0.1,0.3,0,0.4c-0.1,0-0.1,0.2-0.2,0.1c-0.1-0.1-0.3-0.1-0.3-0.2&#10;&#9;&#9;&#9;&#9;&#9;&#9;&#9;&#9;&#9;&#9;l-0.1-0.2c-0.2,0.1-0.2,0.2,0,0.4c0.1,0.1,0.1,0.2,0.1,0.3c0,0.2-0.1,0.1-0.2,0.1l0,0c0.1,0.1,0.2,0.1,0.2-0.1&#10;&#9;&#9;&#9;&#9;&#9;&#9;&#9;&#9;&#9;&#9;c0-0.1,0-0.2-0.1-0.3c-0.2-0.2-0.1-0.2,0-0.4c-0.1-0.1,0.1-0.2,0-0.3c0-0.1-0.2,0-0.2-0.1c-0.3,0.2-0.6,0.4-0.9,0.6&#10;&#9;&#9;&#9;&#9;&#9;&#9;&#9;&#9;&#9;&#9;c-0.5,0.3-0.9,0.6-1.3,0.9c-0.5,0.3-0.9,0.6-1.4,0.9c-0.2,0.1-0.3,0.2-0.4,0.3c0,0.1,0.1,0.1,0.1,0c0.1,0,0.2-0.1,0.2-0.1&#10;&#9;&#9;&#9;&#9;&#9;&#9;&#9;&#9;&#9;&#9;c0.1-0.1,0.2-0.1,0.3,0c-0.1-0.1-0.1-0.1-0.3,0c-0.1,0-0.1,0.1-0.2,0.1c-0.1,0-0.1,0-0.1,0l-0.2,0.1c0.2,0.2,0.2,0.3,0,0.4&#10;&#9;&#9;&#9;&#9;&#9;&#9;&#9;&#9;&#9;&#9;s-0.3,0.2-0.5,0.3c-0.1,0-0.1,0.1-0.1,0.1v0.1V295c0-0.1,0.1-0.1,0.1-0.1c0.2-0.1,0.3-0.3,0.5-0.3c0.2-0.1,0.2-0.2,0-0.4&#10;&#9;&#9;&#9;&#9;&#9;&#9;&#9;&#9;&#9;&#9;c-0.3,0.2-0.6,0.4-1,0.6l0,0c-0.1,0.1-0.2,0.1-0.3,0.2c-0.5,0.3-1,0.7-1.5,1c-0.6,0.4-1.3,0.8-1.9,1.2&#10;&#9;&#9;&#9;&#9;&#9;&#9;&#9;&#9;&#9;&#9;c-0.5,0.3-1,0.6-1.5,0.9c-0.2,0.1-0.4,0.2-0.6,0.3c-0.3,0.2-0.6,0.4-1,0.6l0.4,0.8c0.1,0,0.1,0,0.1,0c0,0.1,0,0.1-0.1,0.1&#10;&#9;&#9;&#9;&#9;&#9;&#9;&#9;&#9;&#9;&#9;v0.1c0.1,0,0.2,0.1,0.2,0.1c0.1,0,0.2,0,0.1-0.1c0-0.1,0-0.1,0-0.2c0,0,0-0.1,0.1-0.1s0.1,0,0.1,0.1s0,0.2,0.1,0.1&#10;&#9;&#9;&#9;&#9;&#9;&#9;&#9;&#9;&#9;&#9;s0.2-0.2,0.3-0.3c0.2-0.1,0.3-0.2,0.5,0h0.1c0.1-0.1,0-0.1,0-0.2v-0.1c-0.1,0-0.1-0.1-0.1-0.1c0,0.1,0,0.1,0.1,0.1l0,0&#10;&#9;&#9;&#9;&#9;&#9;&#9;&#9;&#9;&#9;&#9;c0.1-0.2,0.1-0.2,0.3-0.1c0.2-0.1,0.3-0.2,0.5-0.3l0,0c0.2-0.1,0.3-0.3,0.5-0.3c-0.1-0.1,0-0.2,0.2-0.3&#10;&#9;&#9;&#9;&#9;&#9;&#9;&#9;&#9;&#9;&#9;c0.2-0.1,0.3-0.2,0.4-0.4l0.1-0.1c0.2,0,0.4-0.2,0.5-0.3c0,0,0-0.1,0.1-0.1c0.2,0,0.3-0.1,0.5-0.2c0.1,0,0.1,0,0.2,0&#10;&#9;&#9;&#9;&#9;&#9;&#9;&#9;&#9;&#9;&#9;c0,0.1,0,0.1-0.1,0.1c-0.3,0.2-0.6,0.4-0.9,0.6c-0.1,0.1-0.2,0.1-0.2,0.2s0,0.2,0.1,0.2s0.1,0.1,0,0.1l-0.1,0.1l0,0&#10;&#9;&#9;&#9;&#9;&#9;&#9;&#9;&#9;&#9;&#9;c0.1,0,0.2,0,0.2-0.1c0.1-0.1,0.2-0.1,0.3-0.2c0.1,0,0.1,0,0.1,0.1l0,0c0-0.1,0.1-0.1,0.1-0.1c-0.1,0-0.1,0.1-0.1,0.1l0,0&#10;&#9;&#9;&#9;&#9;&#9;&#9;&#9;&#9;&#9;&#9;c-0.1,0.1-0.1,0.3-0.3,0.2l0,0c0,0.3-0.3,0.3-0.5,0.3c-0.1,0-0.1,0.2-0.1,0.3c0,0.1,0,0.1-0.1,0.1&#10;&#9;&#9;&#9;&#9;&#9;&#9;&#9;&#9;&#9;&#9;c-0.1-0.1-0.2-0.2-0.1-0.3c0,0,0-0.1,0.1-0.1c0.1-0.1,0-0.2,0-0.3c-0.3,0.2-0.7,0.4-1,0.6c-0.1,0.1-0.3,0.1-0.5,0.1&#10;&#9;&#9;&#9;&#9;&#9;&#9;&#9;&#9;&#9;&#9;c0,0-0.1,0-0.1,0.1c0,0.2,0,0.2-0.2,0.1l-0.2,0.1c-0.1,0-0.2,0.2-0.4,0.2c-0.1,0.1-0.2,0.2-0.4,0.3&#10;&#9;&#9;&#9;&#9;&#9;&#9;&#9;&#9;&#9;&#9;c-0.1,0.1-0.3,0.2-0.4,0.4l0.4,0.7c0.2-0.2,0.4-0.4,0.7-0.6c0.2-0.1,0.3-0.1,0.4,0.1c0,0.1,0,0.2,0,0.2l0,0&#10;&#9;&#9;&#9;&#9;&#9;&#9;&#9;&#9;&#9;&#9;c-0.1,0.1-0.3,0.2-0.5,0.3c-0.1,0.1-0.2,0.2-0.4,0.2l0.2,0.3l2.8,5.3c0.1,0,0.1-0.1,0.1-0.2s0.1-0.1,0.1-0.1&#10;&#9;&#9;&#9;&#9;&#9;&#9;&#9;&#9;&#9;&#9;c0.2,0,0.3-0.1,0.4-0.2c0,0,0-0.1,0.1-0.1c0.2,0,0.3-0.1,0.4-0.2c0.1-0.1,0.2-0.1,0.1-0.3v-0.1l0,0c0.2,0.2,0.2,0.2,0.4,0&#10;&#9;&#9;&#9;&#9;&#9;&#9;&#9;&#9;&#9;&#9;c0,0,0.1,0,0.1-0.1c0.1,0,0.1-0.2,0.1-0.3c0,0,0-0.1-0.1-0.1s-0.1-0.1-0.2-0.1c0.1-0.1,0.2-0.1,0.3,0l0,0&#10;&#9;&#9;&#9;&#9;&#9;&#9;&#9;&#9;&#9;&#9;c0.1,0.1,0.2,0.1,0.3,0c0.1,0,0.1-0.1,0.1-0.1c0.1-0.1,0.1-0.1,0.2-0.2c0.3-0.2,0.5-0.4,0.8-0.6c0.2-0.1,0.4-0.3,0.6-0.4&#10;&#9;&#9;&#9;&#9;&#9;&#9;&#9;&#9;&#9;&#9;c0.3-0.3,0.7-0.5,1-0.8c0.2-0.1,0.3-0.2,0.4-0.3l0.1-0.1c0.1-0.1,0.2-0.1,0.3-0.2c0.1,0,0.1-0.1,0.2-0.1&#10;&#9;&#9;&#9;&#9;&#9;&#9;&#9;&#9;&#9;&#9;c0.1,0,0.2-0.2,0.3-0.2c0.4-0.3,0.9-0.6,1.3-0.9c0.3-0.2,0.5-0.3,0.7-0.6c0.1,0,0.2-0.1,0.2-0.2c0.1-0.1,0.2-0.1,0.3-0.2&#10;&#9;&#9;&#9;&#9;&#9;&#9;&#9;&#9;&#9;&#9;c0.3-0.3,0.7-0.5,1-0.8c0.3-0.2,0.5-0.4,0.8-0.6c0.2-0.2,0.5-0.4,0.7-0.5l0.1-0.1c0.1-0.1,0.2-0.2,0.4-0.3&#10;&#9;&#9;&#9;&#9;&#9;&#9;&#9;&#9;&#9;&#9;c0.2-0.1,0.4-0.2,0.6-0.4c0.1,0,0.1-0.1,0.2-0.1c0.3-0.2,0.6-0.5,1-0.7c0.2-0.1,0.4-0.3,0.6-0.4c0.5-0.4,1.1-0.8,1.6-1.2&#10;&#9;&#9;&#9;&#9;&#9;&#9;&#9;&#9;&#9;&#9;c0.6-0.4,1.2-0.8,1.7-1.3c0.4-0.3,0.9-0.6,1.3-1c0.2-0.2,0.5-0.3,0.7-0.5s0.4-0.4,0.7-0.5c0.4,0.3,0.8,0.5,1.3,0.8&#10;&#9;&#9;&#9;&#9;&#9;&#9;&#9;&#9;&#9;&#9;c0.3,0.1,0.6,0.3,0.9,0.5l0,0c0-0.1,0-0.1,0.1-0.2l0,0c0,0,0,0,0-0.1l0,0c0,0,0,0,0-0.1l0,0v-0.1c0-0.1,0-0.1,0.1-0.2&#10;&#9;&#9;&#9;&#9;&#9;&#9;&#9;&#9;&#9;&#9;c0.1-0.4,0.3-0.9,0.4-1.3c0-0.1,0.1-0.1,0-0.2c-0.1,0-0.2,0-0.2-0.1l0,0c0-0.1,0-0.2-0.1-0.3c-0.1-0.1-0.2-0.2-0.1-0.3&#10;&#9;&#9;&#9;&#9;&#9;&#9;&#9;&#9;&#9;&#9;c0,0,0-0.1-0.1-0.1c0-0.2,0.1-0.3,0.3-0.4c0.1,0,0.1-0.1,0.1-0.2c0-0.2,0.1-0.3,0.3-0.4c0.1,0,0,0,0-0.1&#10;&#9;&#9;&#9;&#9;&#9;&#9;&#9;&#9;&#9;&#9;c-0.1-0.2,0-0.2,0.2-0.2c0.1-0.1,0-0.2,0.1-0.3v-0.1c-0.1-0.1,0-0.2,0.1-0.2c0.1-0.1,0.2-0.3,0.2-0.5s0.1-0.4,0.1-0.7&#10;&#9;&#9;&#9;&#9;&#9;&#9;&#9;&#9;&#9;&#9;c-0.1-0.6-0.3-1.1-0.5-1.7c-0.1,0-0.1,0.1-0.2,0.1h-0.1" id="el_3RPya0Rsgtm"/>
									<path d="M274.3,281.2c-0.2,0-0.4,0-0.5,0.1c-0.4,0.2-0.8,0.5-1.3,0.7c-0.2,0.1-0.5,0.3-0.7,0.4l0,0&#10;&#9;&#9;&#9;&#9;&#9;&#9;&#9;&#9;&#9;&#9;c0,0-0.1,0.1-0.5,0.3c-0.4,0.2-0.6,0.4-0.8,0.5s-1.2,1.3-1.2,1.3s-0.2,0.1-0.2,0.6c0,0.4-0.2,3.1-0.2,3.1s-0.1,0.3,0.1,0.4&#10;&#9;&#9;&#9;&#9;&#9;&#9;&#9;&#9;&#9;&#9;l1.7,0.4l0.6,0.2v-2.9v-0.8l0.2-0.3l2.1-2.9c0.3-0.3,0.5-0.7,0.8-1C274.5,281.2,274.4,281.2,274.3,281.2z" id="el_DzPz-dHaBEG"/>
								</g>
								<path d="M236.6,298.4c-1.6-3-3.1-6-4.7-9c0.2-0.3,0.4-0.6,0.6-0.9c0.1,0,0-0.1,0-0.2c-0.1-0.2-0.2-0.2-0.4,0&#10;&#9;&#9;&#9;&#9;&#9;&#9;&#9;&#9;&#9;s-0.3,0.4-0.4,0.6c-0.2-0.4-0.5-0.9-0.7-1.3c-0.1-0.1-0.1-0.2,0-0.3l0.1-0.1c0-0.1,0-0.1,0.1-0.1s0.1,0,0.1-0.1&#10;&#9;&#9;&#9;&#9;&#9;&#9;&#9;&#9;&#9;c0-0.2,0.2-0.5,0.4-0.6c0.1-0.1,0.2-0.3,0.4-0.4v-0.1c0-0.1,0-0.2,0.1-0.2c0,0,0,0,0.1,0c0.2,0,0.2-0.1,0.3-0.2&#10;&#9;&#9;&#9;&#9;&#9;&#9;&#9;&#9;&#9;s0.2-0.2,0.4-0.3c0.2,0,0.3-0.2,0.3-0.4v-0.1c0.2,0,0.2-0.2,0.3-0.3c0.1,0,0.1-0.1,0.1-0.1c0-0.1,0.1-0.2,0.2-0.2&#10;&#9;&#9;&#9;&#9;&#9;&#9;&#9;&#9;&#9;c0.2,0,0.2-0.2,0.4-0.3c0.1,0,0-0.1,0-0.1c-0.1-0.1-0.1-0.2,0.1-0.3c0.1,0,0.2-0.1,0.2-0.1c0-0.1,0.1-0.2,0.2-0.2h0.1&#10;&#9;&#9;&#9;&#9;&#9;&#9;&#9;&#9;&#9;c0.1-0.3,0.5-0.3,0.6-0.5h0.1c0.2,0,0.2,0,0.1-0.2c-0.1-0.1,0-0.1,0.1-0.2c0.3-0.1,0.5-0.3,0.8-0.4c0.1-0.1,0.2-0.1,0.1-0.2&#10;&#9;&#9;&#9;&#9;&#9;&#9;&#9;&#9;&#9;c-0.1-0.1,0-0.1,0-0.1c0.1-0.1,0.3-0.2,0.4-0.3c0.1-0.1,0.1-0.1,0.2,0c0.2,0.1,0.3-0.1,0.5-0.1c0,0,0,0,0-0.1&#10;&#9;&#9;&#9;&#9;&#9;&#9;&#9;&#9;&#9;c0-0.2,0.2-0.3,0.3-0.3c0.2-0.1,0.3-0.1,0.5-0.1c0.1,0,0.1,0,0.2-0.1c0-0.3,0.3-0.3,0.5-0.4c0.1,0,0.2-0.1,0.3-0.1&#10;&#9;&#9;&#9;&#9;&#9;&#9;&#9;&#9;&#9;c0.1-0.1,0.2-0.2,0.4-0.1c0.1,0,0.3,0,0.3-0.2l0,0c0-0.1,0.1-0.1,0.2-0.1c0.1,0,0.3,0,0.4,0c0,0,0.1-0.1,0-0.1&#10;&#9;&#9;&#9;&#9;&#9;&#9;&#9;&#9;&#9;c0-0.1,0-0.2,0.1-0.1c0.1,0,0.1,0,0.1-0.1s0.1-0.2,0.2-0.1c0.2,0,0.4-0.1,0.5-0.2s0.3-0.1,0.4-0.2c0,0.1,0,0,0.1,0&#10;&#9;&#9;&#9;&#9;&#9;&#9;&#9;&#9;&#9;c0.1-0.1,0.2-0.2,0.3-0.1c0.1,0,0.2,0,0.2-0.1c0.1,0,0.1,0,0.2,0c0-0.3,0-0.3,0.4-0.3c0.2,0,0.4,0.1,0.4-0.2&#10;&#9;&#9;&#9;&#9;&#9;&#9;&#9;&#9;&#9;c0,0,0-0.1,0.1-0.1c0.1,0.1,0.2,0.3,0.2,0c0-0.1,0.2-0.1,0.3-0.1h0.1c0.1-0.3,0.3-0.1,0.4-0.2c0.2,0,0.3-0.1,0.4-0.2&#10;&#9;&#9;&#9;&#9;&#9;&#9;&#9;&#9;&#9;c0.1-0.2,0.3-0.1,0.5-0.2c0.1-0.1,0.3-0.1,0.4-0.2h0.1c0.2,0.1,0.2,0,0.3-0.2c0,0.2,0.1,0.2,0.2,0.2&#10;&#9;&#9;&#9;&#9;&#9;&#9;&#9;&#9;&#9;c0.1-0.1,0.2-0.2,0.4-0.2c0.3-0.1,0.6-0.4,0.9-0.4c0.3,0,0.5,0,0.8,0.1c0.1,0.1,0.1,0,0.1,0c0.1,0,0.2-0.2,0.4-0.1&#10;&#9;&#9;&#9;&#9;&#9;&#9;&#9;&#9;&#9;c0.1,0.1,0.1-0.1,0.2,0c0.2,0,0.5,0.1,0.7,0.1c0.2,0.1,0.5,0.2,0.7-0.1c0.1-0.1,0.3-0.1,0.4-0.1h0.1c0.1-0.3,0.4,0,0.6-0.1&#10;&#9;&#9;&#9;&#9;&#9;&#9;&#9;&#9;&#9;c0.1,0.2,0.2,0,0.3,0c0.2,0,0.3-0.1,0.5,0c0.2,0,0.4,0,0.5,0h0.1c0.3,0.1,0.7,0.2,1,0.1c0.1,0,0.1,0,0.2,0&#10;&#9;&#9;&#9;&#9;&#9;&#9;&#9;&#9;&#9;c0.1-0.1,0.2-0.1,0.3,0s0.4,0.1,0.4,0.1c0.1-0.1,0.3-0.1,0.4-0.1c0.1,0,0.3,0,0.4,0h0.1c0.4-0.2,0.8,0,1.2-0.1&#10;&#9;&#9;&#9;&#9;&#9;&#9;&#9;&#9;&#9;c0.3-0.1,0.7,0,0.9,0.2c0.1,0.1,0.3,0,0.3,0.2l0,0c0.2-0.1,0.3,0,0.5,0s0.4,0.1,0.7,0.2h0.1c0.2,0,0.5,0.1,0.7,0.3&#10;&#9;&#9;&#9;&#9;&#9;&#9;&#9;&#9;&#9;c0.1,0.1,0.1,0.1,0.2,0.1c0.3-0.1,0.4,0,0.5,0.3c0,0.1,0.1,0.1,0.1,0s0.1-0.1,0.2-0.1c0.1,0.1,0,0.1,0,0.2&#10;&#9;&#9;&#9;&#9;&#9;&#9;&#9;&#9;&#9;c0.2-0.2,0.3-0.1,0.5,0c0.3,0.2,0.5,0.3,0.8,0.4c0.1,0,0.2,0,0.1,0.2c0,0.1,0.1,0.1,0.1,0c0.2,0,0.3,0,0.3,0.2&#10;&#9;&#9;&#9;&#9;&#9;&#9;&#9;&#9;&#9;c0,0.1,0.1,0.2,0.2,0.2l0,0c0.2,0,0.3,0,0.3,0.2c0,0.1,0,0.2,0.2,0.1h0.1l0,0v0.1c0,0.1,0,0.1-0.1,0.2s0,0.2,0,0.2l0,0&#10;&#9;&#9;&#9;&#9;&#9;&#9;&#9;&#9;&#9;c0.1,0.1,0.1-0.1,0.2-0.1s0.2-0.1,0.3,0c0.2,0.2,0.4,0.4,0.6,0.6c0.1,0.1,0.2,0.2,0,0.3c0.1,0.1,0.1,0,0.2,0&#10;&#9;&#9;&#9;&#9;&#9;&#9;&#9;&#9;&#9;c0.1-0.1,0.2-0.1,0.3,0.1c0.1,0.2,0.3,0.3,0.5,0.4c0.1,0,0.1,0,0.2,0.1c0,0.1,0.1,0.1,0.2,0.1s0.3,0,0.2,0.2v0.1l0,0&#10;&#9;&#9;&#9;&#9;&#9;&#9;&#9;&#9;&#9;l0.1-0.1c0-0.2,0-0.4,0-0.6c0-0.4,0-0.7-0.1-1.2c0.3,0.3,0.5,0.6,0.7,0.8c0.5,0.6,1.1,1.3,1.6,1.9c0.1,0.1,0.2,0.1,0.3,0&#10;&#9;&#9;&#9;&#9;&#9;&#9;&#9;&#9;&#9;c0.3-0.2,0.6-0.4,0.9-0.6c0.1-0.1,0.1-0.1,0.2,0c0.3,0.3,0.6,0.6,0.8,1c0.1,0.1,0.1,0.1,0.2,0.2c-0.1,0.1-0.3,0.2-0.5,0.3&#10;&#9;&#9;&#9;&#9;&#9;&#9;&#9;&#9;&#9;c-0.2,0.1-0.4,0.2-0.6,0.4l-0.2,0.2c-0.1-0.2-0.2-0.3-0.3-0.5c-0.1-0.1-0.1-0.2-0.2-0.1c-0.1,0-0.2,0.1-0.1,0.2l0,0&#10;&#9;&#9;&#9;&#9;&#9;&#9;&#9;&#9;&#9;c0.1,0.2,0.2,0.5,0.5,0.6v0.1l0,0c-0.1,0-0.1,0.1-0.2,0.2c-0.3,0.3-0.6,0.7-0.9,1l-0.1,0.1c0,0.3,0,0.5,0,0.8&#10;&#9;&#9;&#9;&#9;&#9;&#9;&#9;&#9;&#9;c0,0.1,0,0.2,0,0.2c0,0.1-0.1,0.3,0,0.4c-0.1,0.7-0.1,1.4-0.2,2.1c0,0.2,0.1,0.3,0.3,0.4c0,0.1,0,0.3,0.1,0.3&#10;&#9;&#9;&#9;&#9;&#9;&#9;&#9;&#9;&#9;c0.2,0.1,0.4,0.1,0.4,0.3c0,0,0,0,0.1,0c0.3-0.1,0.6,0.1,0.9,0.1c0.1,0,0.3,0,0.2,0.2c0,0.1,0,0.2,0,0.2c0.1,0,0.2,0,0.3,0&#10;&#9;&#9;&#9;&#9;&#9;&#9;&#9;&#9;&#9;c0.1,0,0-0.1,0-0.2s0-0.2,0.1-0.3c0.1,0,0.2,0,0.2,0.1c0.1,0.3,0.1,0.3,0.4,0.2c0.2-0.1,0.4,0,0.6,0.1&#10;&#9;&#9;&#9;&#9;&#9;&#9;&#9;&#9;&#9;c0.1,0.1,0.2,0.1,0.3,0.1c0.2,0,0.3,0.1,0.4,0.2c0.1,0.2,0.2,0.1,0.3,0.1c0.1,0,0.1-0.1,0.2-0.1c0.1,0.1,0,0.2,0,0.2&#10;&#9;&#9;&#9;&#9;&#9;&#9;&#9;&#9;&#9;s0,0.1-0.1,0.1c-0.1,0.1,0,0.2,0.1,0.2s0.1,0,0.2,0s0.3,0,0.2,0.2c0.1-0.1,0.2-0.2,0.3-0.1c-0.1,0.2-0.3,0.4-0.6,0.5&#10;&#9;&#9;&#9;&#9;&#9;&#9;&#9;&#9;&#9;c-0.5,0.4-1.1,0.7-1.6,1.1c-0.1,0.1-0.3,0.1-0.3,0.3l-1.6-0.3c-0.2-0.1-0.4-0.1-0.6-0.1c-0.2-0.1-0.5-0.1-0.8-0.2l-1.6-0.4&#10;&#9;&#9;&#9;&#9;&#9;&#9;&#9;&#9;&#9;c0-0.1-0.2-0.1-0.2-0.1c-0.1-0.2-0.3-0.3-0.5-0.3c-0.4-0.1-0.8-0.5-0.9-0.9c0-0.2-0.2-0.4-0.3-0.6v-0.1&#10;&#9;&#9;&#9;&#9;&#9;&#9;&#9;&#9;&#9;c-0.1,0,0.1-0.1,0-0.2c-0.1,0-0.1,0.1-0.1,0.2l0,0c-0.1,0-0.3,0-0.2-0.2c-0.1-0.1,0.2-0.1,0.1-0.2c-0.2-0.2,0-0.3,0.1-0.4&#10;&#9;&#9;&#9;&#9;&#9;&#9;&#9;&#9;&#9;s0.2-0.3,0.2-0.5v-0.1c0.1-0.1,0-0.3,0-0.5c-0.1-0.3-0.2-0.6-0.3-0.9c-0.1-0.3-0.2-0.6-0.3-0.8v-0.1c0-0.2-0.1-0.4-0.2-0.6&#10;&#9;&#9;&#9;&#9;&#9;&#9;&#9;&#9;&#9;c-0.1-0.1-0.2-0.3-0.3-0.5c-0.1-0.2-0.2-0.4-0.3-0.5l0,0c-0.1-0.2-0.2-0.4-0.4-0.5c-0.3-0.2-0.7-0.4-1-0.6&#10;&#9;&#9;&#9;&#9;&#9;&#9;&#9;&#9;&#9;c-0.1,0-0.2-0.1-0.2-0.1c-0.2,0.1-0.4,0.1-0.5,0c-0.1,0-0.2,0-0.3,0h-0.1c-0.3,0.1-0.6-0.1-0.8,0.2c-0.1,0.1-0.3,0-0.4,0&#10;&#9;&#9;&#9;&#9;&#9;&#9;&#9;&#9;&#9;s-0.2-0.1-0.3,0c-0.1,0.1-0.3,0.2-0.4,0.2c-0.5,0.3-1,0.6-1.5,1c-0.3,0.2-0.6,0.4-0.9,0.6c-0.5,0.3-0.9,0.6-1.4,0.9&#10;&#9;&#9;&#9;&#9;&#9;&#9;&#9;&#9;&#9;c-0.3,0.2-0.6,0.4-1,0.6c-0.5,0.3-1,0.6-1.4,0.9c-0.3,0.2-0.6,0.4-0.9,0.6c-0.4,0.3-0.9,0.6-1.3,0.9&#10;&#9;&#9;&#9;&#9;&#9;&#9;&#9;&#9;&#9;c-0.4,0.3-0.9,0.6-1.3,0.9c-0.5,0.3-1,0.6-1.5,1c-0.3,0.2-0.6,0.4-0.9,0.6c-0.4,0.3-0.9,0.6-1.3,0.9c-0.3,0.2-0.6,0.4-1,0.6&#10;&#9;&#9;&#9;&#9;&#9;&#9;&#9;&#9;&#9;c-0.5,0.3-1,0.6-1.5,0.9c-0.3,0.2-0.6,0.4-0.9,0.6c-0.4,0.3-0.9,0.6-1.3,0.9c-0.3,0.2-0.6,0.4-0.9,0.6&#10;&#9;&#9;&#9;&#9;&#9;&#9;&#9;&#9;&#9;c-0.5,0.3-1,0.6-1.5,0.9c-0.3,0.2-0.6,0.4-0.9,0.6C237.6,297.7,237.1,298.1,236.6,298.4z" id="el_U3PnCIuM5QE"/>
								<path d="M274.3,290.9c-0.1-0.1-0.2,0-0.3,0.1c0-0.2-0.1-0.2-0.2-0.2s-0.1,0-0.2,0s-0.2-0.1-0.1-0.2l0.1-0.1&#10;&#9;&#9;&#9;&#9;&#9;&#9;&#9;&#9;&#9;c0-0.1,0.1-0.2,0-0.2c-0.1-0.1-0.1,0.1-0.2,0.1s-0.2,0.1-0.3-0.1c-0.1-0.1-0.2-0.2-0.4-0.2c-0.1,0-0.2,0-0.3-0.1&#10;&#9;&#9;&#9;&#9;&#9;&#9;&#9;&#9;&#9;c-0.2-0.1-0.4-0.1-0.6-0.1c-0.3,0.1-0.3,0.1-0.4-0.2c0-0.1-0.1-0.2-0.2-0.1c-0.1,0-0.1,0.2-0.1,0.3c0,0.1,0.1,0.1,0,0.2&#10;&#9;&#9;&#9;&#9;&#9;&#9;&#9;&#9;&#9;c-0.1,0-0.2,0-0.3,0c-0.1-0.1-0.1-0.1,0-0.2c0.1-0.2-0.1-0.2-0.2-0.2c-0.3,0-0.6-0.2-0.9-0.1h-0.1c0-0.3-0.3-0.3-0.4-0.3&#10;&#9;&#9;&#9;&#9;&#9;&#9;&#9;&#9;&#9;c-0.1-0.1-0.1-0.2-0.1-0.3l0.4,0.1c0,0.1-0.1,0.1,0,0.2c0.1,0,0.1,0.1,0.2,0c0.1,0,0-0.1,0-0.1c0.4,0.1,0.8,0.2,1.2,0.3&#10;&#9;&#9;&#9;&#9;&#9;&#9;&#9;&#9;&#9;c0.2,0,0.2,0,0.2-0.1c0-0.8,0-1.6,0-2.4c0-0.1,0-0.3,0-0.4v-0.3c0,0,0-0.1,0-0.2c0-0.2,0.1-0.4,0.2-0.5s0.2-0.3,0.3-0.4&#10;&#9;&#9;&#9;&#9;&#9;&#9;&#9;&#9;&#9;l0.1-0.1c0.3-0.4,0.6-0.8,0.9-1.2l0,0c0.2,0.2,0.4,0.5,0.6,0.7c0.1,0.1,0.1,0,0.1-0.1c0.1-0.3,0.1-0.6,0.2-0.9&#10;&#9;&#9;&#9;&#9;&#9;&#9;&#9;&#9;&#9;c0-0.3,0.1-0.5,0.2-0.8c0.1,0.4,0.2,0.9,0.3,1.3c0.2,0.8,0.3,1.6,0.5,2.4c0.1,0.3,0.1,0.5,0.1,0.8c0,0.1,0,0.2,0.2,0.2&#10;&#9;&#9;&#9;&#9;&#9;&#9;&#9;&#9;&#9;c0.4-0.1,0.9-0.2,1.4-0.3l-2,2.3c0.3,0.1,0.6,0.1,0.9,0.1c0.1,0,0.2,0.1,0.1,0.2C275,289.9,274.6,290.4,274.3,290.9z&#10;&#9;&#9;&#9;&#9;&#9;&#9;&#9;&#9;&#9; M273.3,287.8c0,0.1,0.2,0.1,0.3,0.1c0.1,0,0.1-0.1,0.1-0.1c0-0.3-0.1-0.7-0.3-0.9c0-0.1-0.1-0.1-0.2,0&#10;&#9;&#9;&#9;&#9;&#9;&#9;&#9;&#9;&#9;c-0.1,0-0.1,0.1-0.1,0.2C273.2,287.2,273.2,287.5,273.3,287.8L273.3,287.8z M273.5,289.5c0.3-0.2,0.4-0.5,0.2-0.8&#10;&#9;&#9;&#9;&#9;&#9;&#9;&#9;&#9;&#9;c0-0.1-0.1-0.1-0.1-0.1c-0.1,0-0.1,0.1-0.1,0.1c0,0.2-0.1,0.3-0.3,0.5c-0.1,0.1-0.2,0.2-0.1,0.3&#10;&#9;&#9;&#9;&#9;&#9;&#9;&#9;&#9;&#9;C273.3,289.5,273.4,289.6,273.5,289.5L273.5,289.5z M273.3,285.7c0,0.1,0.1,0.1,0.1,0.2c0,0,0.1,0.1,0.2,0.1s0-0.1,0-0.2&#10;&#9;&#9;&#9;&#9;&#9;&#9;&#9;&#9;&#9;s0-0.3,0-0.4s0-0.3-0.1-0.4s-0.2-0.1-0.3-0.1c-0.1,0-0.1,0.1-0.1,0.2l0,0C273.2,285.3,273.2,285.5,273.3,285.7L273.3,285.7z&#10;&#9;&#9;&#9;&#9;&#9;&#9;&#9;&#9;&#9; M271.9,288.7c0,0.1,0.1,0.1,0.1,0.1s0.1,0,0.1-0.1c0-0.2,0.1-0.3,0.1-0.5c0-0.1,0-0.2-0.1-0.2s-0.2,0.1-0.2,0.2l0,0&#10;&#9;&#9;&#9;&#9;&#9;&#9;&#9;&#9;&#9;C271.8,288.4,271.9,288.6,271.9,288.7z" id="el_HLPnByvPON6"/>
								<path d="M273.3,287.8c-0.1-0.3-0.2-0.5-0.3-0.8c0-0.1,0-0.1,0.1-0.2c0.1,0,0.2,0,0.2,0&#10;&#9;&#9;&#9;&#9;&#9;&#9;&#9;&#9;&#9;c0.2,0.2,0.3,0.6,0.3,0.9c0,0.1,0,0.1-0.1,0.1C273.5,287.8,273.4,287.9,273.3,287.8z" id="el_WZTbv8d-t1g"/>
								<path d="M273.3,285.7c-0.1-0.2-0.1-0.4-0.2-0.5c0-0.1,0-0.2,0.1-0.2l0,0c0.1,0,0.2,0,0.3,0.1&#10;&#9;&#9;&#9;&#9;&#9;&#9;&#9;&#9;&#9;c0.1,0.1,0.1,0.3,0.1,0.4s0,0.3,0,0.4s0,0.1,0,0.2c-0.1,0-0.1,0-0.2-0.1C273.4,285.8,273.4,285.8,273.3,285.7z" id="el_-C2cY5DmPSL"/>
								<path d="M271.9,288.7c0-0.1,0-0.3,0-0.4s0.1-0.2,0.2-0.2l0,0c0.1,0,0.1,0.1,0.1,0.2c0,0.2-0.1,0.3-0.1,0.5&#10;&#9;&#9;&#9;&#9;&#9;&#9;&#9;&#9;&#9;c0,0.1-0.1,0.1-0.1,0.1C271.9,288.8,271.9,288.8,271.9,288.7z" id="el_TtBzTiSpvAt"/>
								<g id="el_J-t63ycJSIw">
									<path d="M255.7,277.9c0.1,0.1,0.3,0.1,0.4,0c0.1,0,0.1-0.1,0.1-0.1c0-0.2,0-0.3-0.3-0.3l-0.8-0.1&#10;&#9;&#9;&#9;&#9;&#9;&#9;&#9;&#9;&#9;&#9;c-0.1-0.1-0.2,0-0.3,0s-0.1,0-0.2,0.1c0,0.1,0,0.1,0.1,0.2C255,277.9,255.4,278,255.7,277.9L255.7,277.9z" id="el_noZ-jJ-10LS"/>
									<path d="M239.6,283.7c-0.1,0.1-0.3,0.2-0.4,0.3c-0.1,0-0.2,0.2-0.3,0.3c-0.1,0.1-0.1,0.1,0,0.2s0.1,0,0.2,0&#10;&#9;&#9;&#9;&#9;&#9;&#9;&#9;&#9;&#9;&#9;c0.2-0.1,0.4-0.2,0.7-0.3c0.1,0,0.2-0.2,0.1-0.3l0,0C239.8,283.7,239.7,283.7,239.6,283.7z" id="el_VIhaQaQFpo5"/>
									<path d="M263,280.3c-0.2-0.2-0.4-0.3-0.7-0.4c-0.1,0-0.2,0-0.2,0c-0.1,0.1,0,0.1,0.1,0.2&#10;&#9;&#9;&#9;&#9;&#9;&#9;&#9;&#9;&#9;&#9;c0,0.1,0.1,0.1,0.2,0.2c0.3,0.2,0.6,0.4,0.9,0.6c0.1,0.1,0.3,0.1,0.3,0c0.1-0.1,0.1-0.2-0.1-0.3l0,0&#10;&#9;&#9;&#9;&#9;&#9;&#9;&#9;&#9;&#9;&#9;C263.4,280.4,263.2,280.3,263,280.3L263,280.3z" id="el_uFPQKCeR2Rm"/>
									<path d="M258.7,278.3c-0.1,0-0.2,0-0.2,0.1s0,0.2,0.1,0.2c0.3,0.1,0.7,0.1,1,0.2c0.1,0,0.2,0,0.2-0.1&#10;&#9;&#9;&#9;&#9;&#9;&#9;&#9;&#9;&#9;&#9;s0-0.1,0-0.2c-0.1-0.1-0.2-0.1-0.3-0.1C259.3,278.3,259,278.3,258.7,278.3z" id="el_TnZscbxSx0E"/>
									<path d="M261.2,277.8c-0.2-0.1-0.4-0.2-0.6-0.2c0,0-0.1-0.1-0.2-0.1s-0.2-0.1-0.3,0.1c0,0.1,0,0.2,0.1,0.3&#10;&#9;&#9;&#9;&#9;&#9;&#9;&#9;&#9;&#9;&#9;c0.2,0.1,0.4,0.3,0.6,0.3s0.3,0.1,0.4,0C261.4,278.1,261.3,278,261.2,277.8L261.2,277.8z" id="el_zXwKBFG6CFJ"/>
									<path d="M249.5,277.7c-0.1,0-0.2,0-0.2,0c-0.1,0-0.1,0.1-0.1,0.1c0,0.1,0,0.1,0.1,0.1&#10;&#9;&#9;&#9;&#9;&#9;&#9;&#9;&#9;&#9;&#9;c0.4,0.2,0.8,0.2,1.3,0.2c0.1,0,0.2,0,0.2-0.1s0.1-0.3-0.1-0.3C250.2,277.7,249.8,277.7,249.5,277.7z" id="el_hNjRMelTw9h"/>
									<path d="M250.2,286.6c-0.2,0.1-0.3,0.4-0.5,0.5c-0.1,0-0.1,0.1-0.1,0.2l0,0c0.1,0.1,0.1,0,0.2,0&#10;&#9;&#9;&#9;&#9;&#9;&#9;&#9;&#9;&#9;&#9;c0.5-0.4,1-0.8,1.5-1.2c0.1,0,0.1-0.1,0.1-0.2s0-0.2-0.2-0.2c-0.1,0-0.3,0-0.3,0.2C250.7,286.1,250.5,286.3,250.2,286.6z" id="el_hMNj60rQ_Ck"/>
									<path d="M239.4,291.5c-0.2,0.2-0.5,0.5-0.8,0.6c-0.1,0.1-0.2,0.2-0.4,0.3c-0.1,0-0.1,0.1,0,0.2l0,0&#10;&#9;&#9;&#9;&#9;&#9;&#9;&#9;&#9;&#9;&#9;c0,0,0.1,0.1,0.2,0.1c0.2-0.1,0.4-0.1,0.5-0.2c0.3-0.2,0.6-0.5,0.9-0.8c0.1-0.1,0-0.2,0-0.3c0-0.1-0.1-0.1-0.2-0.1&#10;&#9;&#9;&#9;&#9;&#9;&#9;&#9;&#9;&#9;&#9;C239.5,291.3,239.4,291.4,239.4,291.5z" id="el_sVz8GA1EMcE"/>
									<path d="M256.9,276.7c-0.1,0-0.2-0.1-0.3,0.1c0,0.1,0,0.3,0.1,0.3c0.3,0.2,0.6,0.3,0.9,0.4&#10;&#9;&#9;&#9;&#9;&#9;&#9;&#9;&#9;&#9;&#9;c0.1,0,0.2,0,0.3-0.1c-0.1-0.1,0.1-0.3-0.2-0.3C257.5,276.9,257.2,276.8,256.9,276.7z" id="el_fEd9fo-d9vO"/>
									<path d="M236.7,290.6c0,0,0.1,0,0.1-0.1c0.1-0.1,0.1-0.2,0.1-0.3l0,0c-0.1-0.1-0.2-0.1-0.2,0&#10;&#9;&#9;&#9;&#9;&#9;&#9;&#9;&#9;&#9;&#9;c-0.1,0-0.2,0-0.2,0.1c-0.3,0.2-0.6,0.5-0.8,0.9c-0.1,0.1-0.2,0.2,0,0.3c0.1,0.1,0.2,0,0.3-0.1&#10;&#9;&#9;&#9;&#9;&#9;&#9;&#9;&#9;&#9;&#9;C236.1,291.1,236.3,290.7,236.7,290.6z" id="el_0DgtMj2PSIR"/>
									<path d="M241.6,285.2c0.1,0,0.1-0.1,0.2-0.1c0.3-0.1,0.5-0.2,0.8-0.4c0.1-0.1,0.1-0.2,0-0.4&#10;&#9;&#9;&#9;&#9;&#9;&#9;&#9;&#9;&#9;&#9;c-0.1-0.1-0.2-0.1-0.3,0c-0.4,0.2-0.8,0.4-1.1,0.6h-0.1c-0.1,0.1-0.2,0.1-0.1,0.2c0,0.1,0.2,0.1,0.2,0.1l0,0&#10;&#9;&#9;&#9;&#9;&#9;&#9;&#9;&#9;&#9;&#9;C241.4,285.3,241.5,285.2,241.6,285.2z" id="el_kg-WPYSlrV4"/>
									<path d="M257.9,280.9c0.1,0,0.1-0.1,0.1-0.2s0-0.2-0.1-0.2c-0.4-0.1-0.8-0.1-1.2-0.1c-0.1,0-0.1,0.1-0.1,0.1&#10;&#9;&#9;&#9;&#9;&#9;&#9;&#9;&#9;&#9;&#9;c0,0.1,0,0.1,0.1,0.2s0.2,0.1,0.3,0.1C257.2,280.9,257.6,280.9,257.9,280.9z" id="el_VtK7ucBH126"/>
									<path d="M255.2,283.7L255.2,283.7c-0.2,0.1-0.4,0.2-0.6,0.3c-0.1,0-0.1,0.1-0.1,0.1c0,0.1,0.1,0.1,0.1,0.1&#10;&#9;&#9;&#9;&#9;&#9;&#9;&#9;&#9;&#9;&#9;l0,0c0.1,0,0.2,0,0.3,0c0.4-0.1,0.7-0.3,1.1-0.5c0.1-0.1,0.2-0.1,0.1-0.3c0-0.1-0.2-0.2-0.3-0.1l0,0&#10;&#9;&#9;&#9;&#9;&#9;&#9;&#9;&#9;&#9;&#9;C255.6,283.5,255.4,283.6,255.2,283.7z" id="el_N-FFGJBDvAW"/>
									<path d="M237.1,284.1l0.1-0.1c0.2-0.2,0.4-0.4,0.6-0.5c0.1-0.1,0.2-0.2,0.1-0.3l0,0c-0.1-0.1-0.2-0.1-0.3,0&#10;&#9;&#9;&#9;&#9;&#9;&#9;&#9;&#9;&#9;&#9;c-0.3,0.2-0.5,0.5-0.7,0.8c-0.1,0.1-0.1,0.2,0,0.2l0,0C236.9,284.2,237,284.1,237.1,284.1z" id="el_LhdKPJmwB9n"/>
									<path d="M247.5,285c0.1-0.1,0.3-0.1,0.4-0.2c0.1,0,0.1-0.2,0.1-0.3l0,0c-0.1-0.1-0.2-0.1-0.3,0&#10;&#9;&#9;&#9;&#9;&#9;&#9;&#9;&#9;&#9;&#9;c-0.4,0.2-0.8,0.4-1.2,0.6c-0.1,0-0.1,0.1-0.1,0.1c0,0.1,0.1,0.1,0.1,0.1C246.8,285.3,247.2,285.2,247.5,285z" id="el_X4r7YdQDQfD"/>
									<path d="M269.4,290.6c0,0.1,0.1,0.1,0.3,0.1c0.1,0,0.1-0.1,0.1-0.2c0-0.2,0-0.3-0.1-0.5s-0.3-0.4-0.4-0.7&#10;&#9;&#9;&#9;&#9;&#9;&#9;&#9;&#9;&#9;&#9;c0-0.1-0.1-0.1-0.2-0.1s-0.1,0.1-0.1,0.2C269.2,289.9,269.3,290.2,269.4,290.6z" id="el_Zf7V7huUb3a"/>
									<path d="M246.5,279.6c0.1,0,0.2-0.1,0.1-0.2c0-0.1-0.1-0.2-0.2-0.2c-0.3,0.1-0.6,0.1-1,0.1&#10;&#9;&#9;&#9;&#9;&#9;&#9;&#9;&#9;&#9;&#9;c-0.1,0-0.1,0-0.2,0.1c0,0.1,0,0.2,0.1,0.2C245.7,279.7,246.1,279.7,246.5,279.6z" id="el_lT1aUsWuwlb"/>
									<path d="M273.1,291.5c0.1-0.1,0.2-0.1,0.3-0.2l0.1-0.1c0-0.1-0.1-0.1-0.1,0c-0.3,0-0.7,0.1-1,0.1&#10;&#9;&#9;&#9;&#9;&#9;&#9;&#9;&#9;&#9;&#9;c-0.2,0-0.2,0.2-0.2,0.3c0,0.1,0.1,0.1,0.2,0.1C272.6,291.6,272.9,291.6,273.1,291.5z" id="el_YTiAJAtG-ZA"/>
									<path d="M246.1,278.1c-0.1,0.1-0.3,0.1-0.2,0.3c0,0.1,0.2,0.1,0.3,0.1c0.3,0,0.6-0.1,0.8-0.1&#10;&#9;&#9;&#9;&#9;&#9;&#9;&#9;&#9;&#9;&#9;c0.1,0,0.2,0,0.1-0.1c0-0.1,0-0.2-0.1-0.2C246.7,277.9,246.4,277.9,246.1,278.1z" id="el_aX_ZRUJxwqL"/>
									<path d="M236.8,286.6c-0.2,0-0.4,0.3-0.5,0.5c0,0.1-0.1,0.1,0,0.2s0.1,0.1,0.2,0l0,0c0.2-0.2,0.5-0.4,0.8-0.6&#10;&#9;&#9;&#9;&#9;&#9;&#9;&#9;&#9;&#9;&#9;c0.1-0.1,0.1-0.2,0.1-0.3c0-0.1-0.1-0.1-0.2,0C237,286.5,236.9,286.6,236.8,286.6z" id="el_bZkFU_HlsYo"/>
									<path d="M247.2,282.6c-0.2,0.1-0.3,0.2-0.5,0.3c-0.1,0-0.1,0.1-0.1,0.2s0.1,0,0.2,0c0.4-0.1,0.7-0.2,1-0.4&#10;&#9;&#9;&#9;&#9;&#9;&#9;&#9;&#9;&#9;&#9;c0.1,0,0.2-0.1,0.1-0.2c0-0.1-0.1-0.2-0.2-0.1l0,0C247.5,282.4,247.4,282.5,247.2,282.6z" id="el_QmebnwW3but"/>
									<path d="M243.2,282.8c0.2-0.1,0.3-0.2,0.5-0.2c0.1-0.1,0.1-0.2,0.1-0.3l0,0c-0.1-0.1-0.2-0.1-0.3,0&#10;&#9;&#9;&#9;&#9;&#9;&#9;&#9;&#9;&#9;&#9;c-0.3,0.1-0.6,0.4-0.9,0.6c0,0-0.1,0-0.1,0.1s0.1,0.1,0.1,0C242.8,282.9,243,282.8,243.2,282.8z" id="el_c3NmVKBexZa"/>
									<path d="M247.1,281.1c-0.2,0.1-0.4,0.2-0.5,0.3c-0.1,0-0.1,0.1-0.1,0.1s0,0.1,0.1,0.1c0.4,0,0.7-0.1,1-0.3&#10;&#9;&#9;&#9;&#9;&#9;&#9;&#9;&#9;&#9;&#9;c0.1-0.1,0.1-0.2,0-0.3c-0.1-0.1-0.2-0.1-0.3,0C247.2,281,247.2,281.1,247.1,281.1z" id="el_qJj-OGLzWoj"/>
									<path d="M234.2,287.7c0.1,0,0.1-0.1,0.1-0.1c0.1-0.2,0.2-0.3,0.4-0.5c0.1-0.1,0.2-0.3,0-0.4&#10;&#9;&#9;&#9;&#9;&#9;&#9;&#9;&#9;&#9;&#9;c-0.1-0.1-0.3,0-0.4,0.1c-0.2,0.2-0.3,0.5-0.4,0.7c0,0.1-0.1,0.1,0,0.2C234.1,287.8,234.2,287.7,234.2,287.7z" id="el_b_XLdeDFdty"/>
									<path d="M272.6,290.9c0.1-0.1,0.3-0.1,0.4-0.2s0.1-0.2,0-0.2c-0.1-0.1-0.1-0.1-0.2,0s-0.2,0.1-0.3,0.1&#10;&#9;&#9;&#9;&#9;&#9;&#9;&#9;&#9;&#9;&#9;c-0.1,0-0.3,0.1-0.4,0.2c-0.1,0-0.2,0.1-0.2,0.3c0,0.1,0.2,0.1,0.3,0.1C272.4,291,272.5,291,272.6,290.9z" id="el_8xvi3zbvH_R"/>
									<path d="M235.2,284.1c-0.2,0.1-0.4,0.3-0.6,0.5c0,0.1-0.1,0.1,0,0.2c0,0,0.1,0.1,0.2,0c0.1,0,0.1-0.1,0.2-0.1&#10;&#9;&#9;&#9;&#9;&#9;&#9;&#9;&#9;&#9;&#9;c0.2-0.1,0.4-0.3,0.6-0.4c0.1,0,0.2-0.1,0.1-0.2c0-0.1-0.2-0.2-0.3-0.1C235.3,284,235.3,284.1,235.2,284.1z" id="el_qqY8mYGMWVC"/>
									<path d="M242.6,279.9c-0.1,0.1-0.3,0.1-0.2,0.2c0,0.1,0.2,0.1,0.3,0.1c0.3,0,0.5-0.1,0.8-0.2&#10;&#9;&#9;&#9;&#9;&#9;&#9;&#9;&#9;&#9;&#9;c0.1,0,0.2-0.1,0.2-0.2l0,0c0-0.1-0.2-0.1-0.3-0.1C243.1,279.7,242.9,279.8,242.6,279.9z" id="el_jD71RPd2uhq"/>
									<path d="M271.2,292L271.2,292c0.2-0.4,0.3-0.8,0.2-1.2c0-0.1-0.1-0.1-0.1-0.1c-0.1,0-0.1,0-0.1,0.1&#10;&#9;&#9;&#9;&#9;&#9;&#9;&#9;&#9;&#9;&#9;c0,0.3-0.1,0.5-0.2,0.8c0,0.1,0,0.1,0,0.2C270.9,292,271,292,271.2,292L271.2,292z" id="el_1LnVXfX040G"/>
									<path d="M252.1,278.8C252.1,278.8,252.1,278.9,252.1,278.8c0.3,0.2,0.6,0.1,0.9,0c0.1-0.1,0.1-0.2,0.1-0.3&#10;&#9;&#9;&#9;&#9;&#9;&#9;&#9;&#9;&#9;&#9;c0-0.1-0.1-0.1-0.3-0.1c-0.2,0.1-0.4,0.1-0.6,0.2C252,278.6,252,278.7,252.1,278.8z" id="el_kUpJBOyNVyl"/>
									<path d="M240.9,281.2c-0.2,0.1-0.4,0.3-0.5,0.3s-0.1,0.1-0.1,0.2s0.1,0.1,0.1,0.1c0.3,0,0.6-0.1,0.9-0.3&#10;&#9;&#9;&#9;&#9;&#9;&#9;&#9;&#9;&#9;&#9;c0.1-0.1,0-0.1,0-0.2s-0.1-0.1-0.2-0.1l0,0C241.1,281.1,241,281.1,240.9,281.2z" id="el_s7NAJJDHZu-"/>
									<path d="M262.9,279C262.9,279,262.9,279.1,262.9,279c0.4,0.3,0.6,0.7,0.9,1c0.1,0.1,0.2,0.2,0.4,0.1l0,0&#10;&#9;&#9;&#9;&#9;&#9;&#9;&#9;&#9;&#9;&#9;c0.1,0,0-0.2,0-0.3c-0.2-0.5-0.6-0.7-1-1c-0.1,0-0.2,0-0.2,0C262.8,278.9,262.8,278.9,262.9,279z" id="el_pEHB_YB1IM5"/>
									<path d="M251.3,279.9c0.1,0,0.2-0.1,0.1-0.2c0-0.1-0.1-0.1-0.2-0.1l0,0c-0.2,0-0.4,0-0.5,0s-0.2,0-0.3,0.1&#10;&#9;&#9;&#9;&#9;&#9;&#9;&#9;&#9;&#9;&#9;c-0.1,0-0.1,0.1-0.1,0.1c0,0.1,0.1,0.1,0.2,0.1c0.2,0.1,0.5,0,0.7,0.1C251.2,280,251.2,279.9,251.3,279.9z" id="el_Ai2epneKUFZ"/>
									<path d="M238.8,286.4c0.1,0,0.2-0.2,0.3-0.3c0.1-0.1,0.1-0.2,0.1-0.3c-0.1-0.1-0.2-0.1-0.3-0.1l0,0&#10;&#9;&#9;&#9;&#9;&#9;&#9;&#9;&#9;&#9;&#9;c-0.2,0.1-0.3,0.2-0.4,0.4c0,0.1-0.1,0.1-0.1,0.2C238.5,286.4,238.6,286.4,238.8,286.4&#10;&#9;&#9;&#9;&#9;&#9;&#9;&#9;&#9;&#9;&#9;C238.7,286.4,238.7,286.4,238.8,286.4z" id="el_ti7_InAjCpX"/>
									<path d="M267.5,282.6C267.6,282.6,267.6,282.7,267.5,282.6c0.2,0.2,0.3,0.3,0.5,0.2c0.1-0.1,0.1-0.3,0-0.4&#10;&#9;&#9;&#9;&#9;&#9;&#9;&#9;&#9;&#9;&#9;c-0.1-0.3-0.3-0.5-0.5-0.8c-0.1-0.1-0.2-0.1-0.3-0.1c-0.1,0-0.1,0.1-0.1,0.2C267.3,282.1,267.4,282.3,267.5,282.6z" id="el_X6xAlCanWSS"/>
									<path d="M234.5,289.5c0.1,0,0.1-0.1,0.2-0.2c0.1-0.1,0.1-0.2,0.2-0.3c0.1-0.1,0.1-0.2,0-0.3&#10;&#9;&#9;&#9;&#9;&#9;&#9;&#9;&#9;&#9;&#9;c-0.1-0.1-0.2-0.1-0.3,0c-0.2,0.1-0.3,0.3-0.4,0.6c0,0.1-0.1,0.1,0,0.2C234.4,289.5,234.4,289.5,234.5,289.5z" id="el_NoTIKFXv2xz"/>
									<path d="M265.5,283.1c0.2,0.2,0.4,0.5,0.8,0.5c0.1,0,0.2,0,0.3-0.1c0-0.1,0.1-0.3-0.1-0.4&#10;&#9;&#9;&#9;&#9;&#9;&#9;&#9;&#9;&#9;&#9;c-0.3-0.1-0.5-0.2-0.8-0.4c-0.1,0-0.1,0-0.2,0C265.4,282.9,265.4,283,265.5,283.1z" id="el_Aq0q2CgGnGQ"/>
									<path d="M236.8,285c-0.1,0.1-0.2,0.2-0.3,0.3c0,0.1-0.1,0.1,0,0.2s0.2,0.1,0.3,0l0,0c0.1-0.1,0.1-0.2,0.2-0.2&#10;&#9;&#9;&#9;&#9;&#9;&#9;&#9;&#9;&#9;&#9;c0.1-0.1,0.1-0.2,0-0.3C237,284.9,236.9,284.9,236.8,285z" id="el_fua3D2MtKO7"/>
									<path d="M238.3,281.7c-0.2,0.1-0.3,0.2-0.4,0.4c0,0.1-0.1,0.1,0,0.2s0.1,0,0.2,0c0.1-0.1,0.3-0.2,0.4-0.3&#10;&#9;&#9;&#9;&#9;&#9;&#9;&#9;&#9;&#9;&#9;c0.1-0.1,0.1-0.2,0.1-0.3C238.4,281.7,238.3,281.7,238.3,281.7z" id="el_Ekfx9s50H6x"/>
									<path d="M268.5,283.8c0.2,0.1,0.3,0.2,0.5,0.3c0,0,0.1,0.1,0.1,0c0,0,0.1-0.1,0-0.1c-0.1-0.2-0.2-0.3-0.4-0.5&#10;&#9;&#9;&#9;&#9;&#9;&#9;&#9;&#9;&#9;&#9;c-0.1-0.1-0.2,0-0.2,0C268.5,283.6,268.5,283.7,268.5,283.8z" id="el_Nm7h508EPN2"/>
									<path d="M267.5,289.9c-0.1,0-0.1,0.1-0.1,0.1c-0.1,0,0-0.1,0-0.1c0-0.1,0-0.2,0-0.2c-0.1,0-0.1,0-0.1-0.1&#10;&#9;&#9;&#9;&#9;&#9;&#9;&#9;&#9;&#9;&#9;c0-0.2-0.1-0.1-0.2-0.1H267c0,0.1,0,0.1,0.1,0.2l0.1,0.1c0,0.1,0.1,0.2,0.3,0.3C267.5,290.1,267.5,290,267.5,289.9z" id="el_4TFvCRITYmF"/>
									<path d="M246,287.3c0.1-0.1,0.2-0.1,0.2-0.2s-0.1-0.1-0.2-0.1c-0.1,0-0.1,0-0.2,0.1c-0.1,0.1-0.4,0.1-0.3,0.3&#10;&#9;&#9;&#9;&#9;&#9;&#9;&#9;&#9;&#9;&#9;C245.7,287.5,245.9,287.3,246,287.3z" id="el_ppSBZZkTeq0"/>
									<path d="M267,289.2C267,289.1,267.1,289.1,267,289.2c0.1-0.1,0.2-0.1,0.2-0.2s-0.1-0.2-0.2-0.2s0,0.1,0,0.1&#10;&#9;&#9;&#9;&#9;&#9;&#9;&#9;&#9;&#9;&#9;s0,0-0.1,0s-0.1,0.1-0.1,0.2v0.1C266.9,289.3,266.9,289.2,267,289.2L267,289.2z" id="el_xCUWIeNDA0g"/>
									<path d="M265.8,289.9c-0.1,0-0.1-0.1-0.2-0.1c0,0.1,0,0.2,0,0.2c0.1,0.1,0.1,0,0.1-0.1c0.1,0,0.1-0.2,0.2-0.2&#10;&#9;&#9;&#9;&#9;&#9;&#9;&#9;&#9;&#9;&#9;c0,0,0.1-0.1,0-0.1l0,0c0,0-0.1,0-0.1,0.1S265.8,289.8,265.8,289.9z" id="el_D1r-MYIc3wM"/>
									<path d="M266.3,289.4c-0.3,0-0.2,0.2-0.2,0.3c0,0.1,0.1,0.1,0.1,0.2c0-0.1,0.1-0.2,0.1-0.3&#10;&#9;&#9;&#9;&#9;&#9;&#9;&#9;&#9;&#9;&#9;C266.4,289.5,266.1,289.5,266.3,289.4z" id="el_Di_FmWdeYL1"/>
									<path d="M267.9,290.6c0-0.1-0.2-0.1-0.2-0.2s-0.1-0.2-0.2-0.2c0,0-0.1-0.1-0.1,0s0,0.1,0.1,0.1&#10;&#9;&#9;&#9;&#9;&#9;&#9;&#9;&#9;&#9;&#9;c0.2,0,0.2,0.1,0.1,0.2c0,0,0,0.2,0.1,0.1C267.8,290.6,267.9,290.6,267.9,290.6z" id="el_OzWVfS1POEl"/>
									<path d="M266.4,289.1c0-0.1,0.2-0.1,0.1-0.2c0-0.1-0.1-0.1-0.1-0.1l0,0c-0.1,0.1,0,0.2-0.1,0.2&#10;&#9;&#9;&#9;&#9;&#9;&#9;&#9;&#9;&#9;&#9;C266.2,289.2,266.3,289.1,266.4,289.1z" id="el_MVvqVWYAZIO"/>
									<path d="M268.4,290.6c-0.1-0.1-0.3-0.2-0.2-0.3v-0.1c-0.1,0-0.1,0.1-0.1,0.1&#10;&#9;&#9;&#9;&#9;&#9;&#9;&#9;&#9;&#9;&#9;C268,290.5,268.2,290.6,268.4,290.6z" id="el_1bbo8rc1Kpy"/>
									<path d="M267,291.3c0.1-0.1,0.1-0.2,0.1-0.3c0-0.1-0.1-0.1-0.2-0.1C267,291,266.9,291.2,267,291.3z" id="el_fMhCdoZsTTr"/>
									<path d="M267.4,290.5c0-0.1-0.1-0.1-0.1-0.1c-0.1,0,0,0.1,0,0.1c0,0.1,0.1,0.1,0.2,0.1&#10;&#9;&#9;&#9;&#9;&#9;&#9;&#9;&#9;&#9;&#9;C267.5,290.6,267.4,290.6,267.4,290.5z" id="el_U4a1L2quGwf"/>
									<path d="M268.7,288.9c0,0.1,0.1,0.1,0.1,0.1s0.1-0.1,0-0.1l0,0l-0.1-0.1C268.7,288.8,268.7,288.8,268.7,288.9&#10;&#9;&#9;&#9;&#9;&#9;&#9;&#9;&#9;&#9;&#9;z" id="el_56wRk83vk8l"/>
									<path d="M266.3,288.8c0,0,0.1-0.1,0-0.1c0,0-0.1-0.1-0.2,0c0,0-0.1,0-0.1,0.1&#10;&#9;&#9;&#9;&#9;&#9;&#9;&#9;&#9;&#9;&#9;C266.2,288.8,266.3,288.8,266.3,288.8z" id="el_mXkWrUAHA7T"/>
									<path d="M268.1,288.8c0,0,0.1,0.1,0.1,0v-0.1c0-0.1-0.1-0.1-0.1-0.1C268.1,288.7,268.1,288.7,268.1,288.8&#10;&#9;&#9;&#9;&#9;&#9;&#9;&#9;&#9;&#9;&#9;C268.1,288.7,268.1,288.8,268.1,288.8z" id="el_HgtDRkawYW6"/>
								</g>
							</g>
						</g>
					</g>
				</g>
			</g>
		</g>
		<line x1="271.1" y1="306" x2="285.6" y2="333.8" id="el_emS5_TEK9kZ"/>
		<line x1="268.4" y1="307.4" x2="282.8" y2="335.2" id="el_u5tD2tjvriU"/>
		<line x1="265.7" y1="308.8" x2="280.1" y2="336.6" id="el_SqKXbtokc0Z"/>
		<line x1="263" y1="310.2" x2="277.4" y2="338" id="el_yjQ8kZDoH-H"/>
		<line x1="260.3" y1="311.6" x2="274.7" y2="339.4" id="el_1cTsPczvVeX"/>
		<g id="el_QK12TGfxfFo">
			<path d="M250.2,317.5c0.5,0,1.1-0.1,1.8-0.1c0.6-0.7,1.2-1.4,1.5-1.8c0-0.1-0.1-0.1-0.1-0.2c0.2-0.2,0.4-0.4,0.6-0.5&#10;&#9;&#9;&#9;&#9;c0.2,0,0.4,0.1,0.2,0.3c-0.2,0.3-1,1.4-1.5,2.1c1.5-0.1,3-0.2,3.1,0.1c0.1,0.1,0.1,0.4,0,0.5c-1-0.3-5.9,0.4-6.6,0.4&#10;&#9;&#9;&#9;&#9;c-0.1-0.1-0.1-0.6,0-0.7c0.3-0.1,0.5-0.2,0.8-0.3C250.2,317.3,250.1,317.5,250.2,317.5z" id="el_oUofagu_Mk7"/>
			<path d="M254.9,318.4c0.1,0.2,0.1,0.6-0.5,0.9c-0.8,0.4-1.7,0.6-1.9,0.1c-0.1-0.2,0-0.4,0.1-0.5&#10;&#9;&#9;&#9;&#9;c-0.3,0.1-0.6,0.2-0.9,0.3c-0.3,0.2-0.5,0.4-0.3,0.7c0.3,0.5,1.2,0.5,1.7,0.2c0,0,0.1,0,0.1,0.1c0.1,0.1,0,0.2-0.2,0.3&#10;&#9;&#9;&#9;&#9;c-0.5,0.3-1.7,0.4-2-0.3c-0.3-0.5,0-1.2,0.7-1.6C252.7,318.2,254.6,317.9,254.9,318.4z M252.7,319.1c0.1,0.2,0.9,0,1.5-0.3&#10;&#9;&#9;&#9;&#9;c0.3-0.1,0.3-0.2,0.3-0.2s-0.1,0-0.2,0c-0.5,0-1,0.1-1.5,0.3C252.8,318.9,252.7,319,252.7,319.1L252.7,319.1z" id="el_cK3iNF9iuHr"/>
			<path d="M254.7,319.3c0.2,0.2,0.4,0.4,0.5,0.6c0.3-0.1,0.6-0.1,1-0.1c0.1,0.1,0.1,0.5,0,0.5l-0.5,0.1&#10;&#9;&#9;&#9;&#9;c0.1,0.1,0.1,0.2,0.2,0.3c0.1,0.1,0.2,0.2,0.1,0.3c-0.1,0.1,0,0.1,0,0.2s-0.1,0.2-0.1,0.2h-0.1l0,0c-0.2-0.3-0.4-0.6-0.6-0.9&#10;&#9;&#9;&#9;&#9;c-0.9,0.2-1.7,0.4-2.5,0.8c-0.2,0.1-0.2,0.2-0.2,0.3c0.3,0.4,0.8,0.6,1.3,0.5c0,0,0.2,0.2-0.2,0.4c-0.5,0.2-1.1-0.1-1.4-0.5&#10;&#9;&#9;&#9;&#9;c-0.2-0.4,0-1,0.7-1.4c0.6-0.3,1.3-0.5,2-0.7l-0.2-0.3C254.4,319.6,254.6,319.2,254.7,319.3z" id="el_FA7aD9H2Qng"/>
			<path d="M256,321.6c0.1,0,0.1,0,0.1,0.1c0,0,0.2,0.5,0,0.6c-0.9,0.2-1.8,0.4-2.7,0.8c-0.2,0.1-0.3,0.3-0.2,0.4&#10;&#9;&#9;&#9;&#9;c0.2,0.4,0.9,0.1,1.2,0c0.1,0.1,0.1,0.2,0,0.3c0,0,0,0-0.1,0.1c-0.5,0.3-1.3,0.2-1.6-0.3c-0.2-0.4,0-0.7,0.5-0.9&#10;&#9;&#9;&#9;&#9;C254.2,322.1,255.1,321.8,256,321.6z M257,321.2c0.2-0.1,0.7-0.3,0.9,0c0.1,0.2,0.1,0.3-0.1,0.3c0,0.1-0.1,0.3-0.2,0.3&#10;&#9;&#9;&#9;&#9;c-0.3,0.2-0.7,0.1-0.8-0.2l0,0C256.7,321.6,256.8,321.4,257,321.2L257,321.2z" id="el_VOOask2GWqe"/>
		</g>
		<g id="el_8q0pZUuWTAE">
			<path d="M286,302.8c-1.2,0.7-2.6,0.2-3.3-0.9l-0.1-0.1l-0.9-1.7l4.4-2.3l0.9,1.7c0.7,1.2,0.3,2.6-0.9,3.3&#10;&#9;&#9;&#9;&#9;C286.1,302.8,286.1,302.8,286,302.8z M285.5,301.9c0.7-0.3,1-1.1,0.7-1.8c0,0,0-0.1-0.1-0.1l-0.4-0.7l-2.6,1.4l0.4,0.7&#10;&#9;&#9;&#9;&#9;c0.3,0.7,1.2,1,1.9,0.7C285.5,301.9,285.5,301.9,285.5,301.9L285.5,301.9z" id="el_uy1Grqn48Wz"/>
			<path d="M288.7,304.9l-0.9,0.5l-0.2-0.4c-0.3-0.5-0.6-0.6-1.2-0.3l-1.8,0.9l-0.5-0.9l3.4-1.8l0.3,0.6l-0.3,0.4&#10;&#9;&#9;&#9;&#9;c0.4,0.1,0.8,0.4,0.9,0.8L288.7,304.9z" id="el_CZE9m_sObSv"/>
			<path d="M288.9,305.5l0.5,0.9l-3.4,1.8l-0.5-0.9L288.9,305.5z M290.2,304.8l0.5,0.9l-0.9,0.4l-0.5-0.9L290.2,304.8z" id="el_bBpHsMJZ0JJ"/>
			<path d="M291.5,310.4l-4.1,0.4L287,310l2.7-3.2l0.5,1l-1.8,2l2.7-0.4L291.5,310.4z" id="el_82iZaVXSxoh"/>
			<path d="M291.4,315.1l-1.3-2.6c-0.4,0.3-0.5,0.8-0.3,1.2c0.1,0.3,0.4,0.5,0.8,0.5l0.5,1c-1.1,0.2-2.2-0.5-2.5-1.6&#10;&#9;&#9;&#9;&#9;s0.5-2.2,1.6-2.5s2.2,0.5,2.5,1.6c0.2,0.9-0.2,1.8-1,2.2C291.6,315,291.5,315.1,291.4,315.1z M290.7,312.2l0.9,1.6&#10;&#9;&#9;&#9;&#9;c0.3-0.3,0.4-0.8,0.2-1.2C291.6,312.3,291.2,312.1,290.7,312.2L290.7,312.2z" id="el_LaGM90HBlIm"/>
			<path d="M294.8,316.8l-0.9,0.5l-0.2-0.4c-0.3-0.5-0.6-0.6-1.2-0.3l-1.8,0.9l-0.5-0.9l3.4-1.8l0.3,0.6l-0.3,0.4&#10;&#9;&#9;&#9;&#9;c0.4,0.1,0.8,0.4,0.9,0.8L294.8,316.8z" id="el_JG4JUn589EV"/>
			<path d="M277.8,305.6l-0.9,0.5l-1.4-2.6l4.4-2.3l0.5,1l-3.5,1.8L277.8,305.6z" id="el_tgtmlmfAB_T"/>
			<path d="M280.6,304.8l0.5,0.9l-3.4,1.8l-0.5-0.9L280.6,304.8z M281.9,304.1l0.5,0.9l-0.9,0.4l-0.5-0.9L281.9,304.1z" id="el_5L9R7oebj40"/>
			<path d="M279.7,307.3c1-0.5,2.2-0.2,2.7,0.8v0.1c0.5,0.8,0.3,1.9-0.5,2.5l-0.5-0.9c0.3-0.4,0.3-1.1-0.1-1.4&#10;&#9;&#9;&#9;&#9;c-0.3-0.3-0.8-0.3-1.1-0.1c-0.5,0.2-0.7,0.8-0.5,1.3l0,0c0.2,0.4,0.6,0.6,1,0.5l0.5,0.9c-0.9,0.3-1.9-0.1-2.3-1&#10;&#9;&#9;&#9;&#9;C278.3,309.1,278.7,307.8,279.7,307.3L279.7,307.3z" id="el_io6i8MDnz1r"/>
			<path d="M283.3,314.9l-1.3-2.6c-0.4,0.3-0.5,0.8-0.3,1.2c0.1,0.3,0.4,0.5,0.8,0.5l0.5,1c-1.1,0.2-2.2-0.5-2.5-1.6&#10;&#9;&#9;&#9;&#9;c-0.2-1.1,0.5-2.2,1.7-2.5c1.1-0.2,2.2,0.5,2.5,1.6c0.2,0.9-0.2,1.8-1,2.2C283.5,314.8,283.4,314.8,283.3,314.9z M282.6,312&#10;&#9;&#9;&#9;&#9;l0.9,1.6c0.3-0.3,0.4-0.8,0.2-1.2C283.5,312.1,283,311.9,282.6,312L282.6,312z" id="el_uRYUlc-jjMQ"/>
			<path d="M285.9,318.4l-2.1,1.1l-0.5-0.9l1.9-1c0.5-0.3,0.7-0.6,0.5-1s-0.7-0.6-1.2-0.4c0,0-0.1,0-0.1,0.1l-1.8,0.9&#10;&#9;&#9;&#9;&#9;l-0.5-0.9l3.4-1.8l0.3,0.6l-0.3,0.4c0.5,0.1,0.9,0.4,1.1,0.9C287,317.1,286.7,317.9,285.9,318.4&#10;&#9;&#9;&#9;&#9;C286.1,318.4,286,318.4,285.9,318.4z" id="el_MyygwgnIGNQ"/>
			<path d="M285.3,319.5l0.5,0.9c-0.3,0.2-0.3,0.5-0.2,0.8c0.1,0.3,0.4,0.4,0.6,0.3s0.1-0.5,0-0.8&#10;&#9;&#9;&#9;&#9;c-0.2-0.6-0.4-1.4,0.4-1.8c0.6-0.3,1.4,0,1.8,0.8c0.4,0.6,0.3,1.4-0.3,1.9l-0.1,0.1l-0.5-0.9c0.3-0.1,0.3-0.4,0.1-0.7&#10;&#9;&#9;&#9;&#9;c-0.1-0.3-0.4-0.4-0.6-0.3s-0.1,0.4,0,0.8c0.2,0.6,0.4,1.4-0.4,1.8c-0.7,0.4-1.4,0-1.9-0.8c-0.5-0.6-0.3-1.5,0.4-2&#10;&#9;&#9;&#9;&#9;C285.2,319.6,285.3,319.5,285.3,319.5z" id="el_j02W0BICRoR"/>
			<path d="M289.2,326.2l-1.3-2.6c-0.4,0.3-0.5,0.8-0.3,1.2c0.1,0.3,0.4,0.5,0.8,0.5l0.5,1c-1.1,0.2-2.2-0.5-2.5-1.6&#10;&#9;&#9;&#9;&#9;c-0.2-1.1,0.5-2.2,1.6-2.5c1.1-0.2,2.2,0.5,2.5,1.6c0.2,0.9-0.2,1.8-1,2.2C289.4,326.1,289.3,326.1,289.2,326.2z M288.5,323.3&#10;&#9;&#9;&#9;&#9;l0.9,1.6c0.3-0.3,0.4-0.8,0.2-1.2C289.4,323.4,288.9,323.2,288.5,323.3L288.5,323.3z" id="el_MzAurjUfSXb"/>
		</g>
	</g>
	<path id="el_N3LQ9ccURxC" d="M279.7,390l-6.5-57.6c-1.2-4.7-6.5-7.9-11.8-7c-5.3,0.8-7.4,2.8-7.4,10l0.1,15.2l0.8,9.6&#10;&#9;&#9;c-0.2,3.6,0.2,7.3,1.4,10.8c1.9,5.7,0.1-4-1.9,1.6l-0.6,1.8c-4,14-0.8,29.4,3.4,35.8c2.1,3.2,3.1,6,6.5,8.1&#10;&#9;&#9;c5.2,3.3,7.8,19.2,10.8,29.2c4.2,14.1,7.1,39.2,7.1,39.2L294,584h64.7l-61.4-192.5"/>
</g></g>
</svg>