<svg version="1.1" id="el_IvWKGC03s" xmlns="http://www.w3.org/2000/svg" xmlns:xlink="http://www.w3.org/1999/xlink" x="0px" y="0px" viewBox="0 0 360 584" style="enable-background:new 0 0 360 584;" xml:space="preserve"> <style>svg {cursor : none;}</style><style>@-webkit-keyframes kf_el_cyU-eIxPSWY_an_DPGtF0vpl{0%{-webkit-transform: translate(221.30674743652344px, 254.0030975341797px) translate(-221.30674743652344px, -254.0030975341797px) translate(50px, 340px);transform: translate(221.30674743652344px, 254.0030975341797px) translate(-221.30674743652344px, -254.0030975341797px) translate(50px, 340px);}41.11%{-webkit-transform: translate(221.30674743652344px, 254.0030975341797px) translate(-221.30674743652344px, -254.0030975341797px) translate(0px, 0px);transform: translate(221.30674743652344px, 254.0030975341797px) translate(-221.30674743652344px, -254.0030975341797px) translate(0px, 0px);}44.44%{-webkit-transform: translate(221.30674743652344px, 254.0030975341797px) translate(-221.30674743652344px, -254.0030975341797px) translate(0px, 5px);transform: translate(221.30674743652344px, 254.0030975341797px) translate(-221.30674743652344px, -254.0030975341797px) translate(0px, 5px);}64.44%{-webkit-transform: translate(221.30674743652344px, 254.0030975341797px) translate(-221.30674743652344px, -254.0030975341797px) translate(0px, 5px);transform: translate(221.30674743652344px, 254.0030975341797px) translate(-221.30674743652344px, -254.0030975341797px) translate(0px, 5px);}81.11%{-webkit-transform: translate(221.30674743652344px, 254.0030975341797px) translate(-221.30674743652344px, -254.0030975341797px) translate(-100px, 340px);transform: translate(221.30674743652344px, 254.0030975341797px) translate(-221.30674743652344px, -254.0030975341797px) translate(-100px, 340px);}100%{-webkit-transform: translate(221.30674743652344px, 254.0030975341797px) translate(-221.30674743652344px, -254.0030975341797px) translate(-100px, 340px);transform: translate(221.30674743652344px, 254.0030975341797px) translate(-221.30674743652344px, -254.0030975341797px) translate(-100px, 340px);}}@keyframes kf_el_cyU-eIxPSWY_an_DPGtF0vpl{0%{-webkit-transform: translate(221.30674743652344px, 254.0030975341797px) translate(-221.30674743652344px, -254.0030975341797px) translate(50px, 340px);transform: translate(221.30674743652344px, 254.0030975341797px) translate(-221.30674743652344px, -254.0030975341797px) translate(50px, 340px);}41.11%{-webkit-transform: translate(221.30674743652344px, 254.0030975341797px) translate(-221.30674743652344px, -254.0030975341797px) translate(0px, 0px);transform: translate(221.30674743652344px, 254.0030975341797px) translate(-221.30674743652344px, -254.0030975341797px) translate(0px, 0px);}44.44%{-webkit-transform: translate(221.30674743652344px, 254.0030975341797px) translate(-221.30674743652344px, -254.0030975341797px) translate(0px, 5px);transform: translate(221.30674743652344px, 254.0030975341797px) translate(-221.30674743652344px, -254.0030975341797px) translate(0px, 5px);}64.44%{-webkit-transform: translate(221.30674743652344px, 254.0030975341797px) translate(-221.30674743652344px, -254.0030975341797px) translate(0px, 5px);transform: translate(221.30674743652344px, 254.0030975341797px) translate(-221.30674743652344px, -254.0030975341797px) translate(0px, 5px);}81.11%{-webkit-transform: translate(221.30674743652344px, 254.0030975341797px) translate(-221.30674743652344px, -254.0030975341797px) translate(-100px, 340px);transform: translate(221.30674743652344px, 254.0030975341797px) translate(-221.30674743652344px, -254.0030975341797px) translate(-100px, 340px);}100%{-webkit-transform: translate(221.30674743652344px, 254.0030975341797px) translate(-221.30674743652344px, -254.0030975341797px) translate(-100px, 340px);transform: translate(221.30674743652344px, 254.0030975341797px) translate(-221.30674743652344px, -254.0030975341797px) translate(-100px, 340px);}}#el_IvWKGC03s *{-webkit-animation-duration: 3s;animation-duration: 3s;-webkit-animation-iteration-count: infinite;animation-iteration-count: infinite;-webkit-animation-timing-function: cubic-bezier(0, 0, 1, 1);animation-timing-function: cubic-bezier(0, 0, 1, 1);}#el_uZQ5H61aOx{fill: #F2F2F2;}#el_SlK7jT1VCg{fill: #FFFFFF;}#el_cUHRSevC0a{fill: #E6E6E6;}#el_GMae8pdYDR{fill: #F2F2F2;}#el_0ou0PeU4Dk{fill: #DDDDDD;}#el_n048y2p5od{fill: #F2F2F2;}#el_snIas9WStQ{fill: #F2F2F2;}#el_Sp2FMGeLqc{fill: #4D4D4D;}#el_1PIDA80z8B{fill: #4D4D4D;}#el_xngecuuCCU{fill: #E6E6E6;}#el_sldOVj5feu{fill: #4D4D4D;}#el_7lNA0N98m1{fill: #CCCCCC;}#el_9v7CMlDu83{fill: #B3B3B3;}#el_YRiiHu6dgo{fill: #4D4D4D;}#el_FfjMYrRyiGM{fill: #B3B3B3;}#el_Avttc7JkEwu{fill: #CCCCCC;}#el_U4ucJ4vtcwP{fill: #F2F2F2;}#el_nJlHR6FXwZF{fill: none;stroke: #CCCCCC;stroke-width: 4.13;stroke-miterlimit: 10;}#el_fn7T3PMCwGn{fill: #FE7F78;}#el_tlMldFG5Amw{fill: #37E8D7;}#el_4CTlfFfGAFg{display: none;fill: #B3B3B3;}#el_oOsJ3qWjhl-{fill: #B3B3B3;}#el_EKGeNuQpQGp{fill: #B3B3B3;}#el_Xd-Cc8dDsk-{fill: #B3B3B3;}#el_u5L0eM1rfch{fill: #B3B3B3;}#el_rV3FsmywpJf{fill: #CB6560;}#el_XEawyOCelEx{fill: #2CB9AC;}#el_chUm35_gJBv{fill: #FE7F78;}#el_oN3-6_aqwj4{fill: #37E8D7;}#el_JAJXFqhDPA9{fill: #4A4A4A;-webkit-transform: matrix(0.8872, -0.4614, 0.4614, 0.8872, -106.353, 161.2284);transform: matrix(0.8872, -0.4614, 0.4614, 0.8872, -106.353, 161.2284);}#el_8pnP7PM4X-e{fill: none;stroke: #4A4A4A;stroke-width: 0.8792;stroke-miterlimit: 10;}#el_yFyzxHAbk3I{fill: none;stroke: #4A4A4A;stroke-width: 0.8792;stroke-miterlimit: 10;}#el_eu4PtvgpESX{fill: none;stroke: #4A4A4A;stroke-width: 0.8792;stroke-miterlimit: 10;}#el_X1yroGSxeS1{fill: none;stroke: #4A4A4A;stroke-width: 0.8792;stroke-miterlimit: 10;}#el_lo645Lo4xl1{fill: #4A4A4A;}#el_AImVXNbljw-{fill: #4A4A4A;-webkit-transform: matrix(0.8872, -0.4614, 0.4614, 0.8872, -103.6623, 139.6001);transform: matrix(0.8872, -0.4614, 0.4614, 0.8872, -103.6623, 139.6001);}#el_hjWMZ9gDieY{fill: #4A4A4A;-webkit-transform: matrix(0.8872, -0.4614, 0.4614, 0.8872, -103.9851, 139.8795);transform: matrix(0.8872, -0.4614, 0.4614, 0.8872, -103.9851, 139.8795);}#el_MWlvWCDvomp{fill: #4A4A4A;-webkit-transform: matrix(0.8872, -0.4614, 0.4614, 0.8872, -104.3085, 140.1589);transform: matrix(0.8872, -0.4614, 0.4614, 0.8872, -104.3085, 140.1589);}#el_5ukPK0-alaS{fill: #4A4A4A;-webkit-transform: matrix(0.8872, -0.4614, 0.4614, 0.8872, -104.6312, 140.4383);transform: matrix(0.8872, -0.4614, 0.4614, 0.8872, -104.6312, 140.4383);}#el_q3XXKi-1om-{fill: #4A4A4A;-webkit-transform: matrix(0.8867, -0.4623, 0.4623, 0.8867, -105.0823, 141.0667);transform: matrix(0.8867, -0.4623, 0.4623, 0.8867, -105.0823, 141.0667);}#el_0LANN-WdOMG{fill: #4A4A4A;-webkit-transform: matrix(0.8872, -0.4614, 0.4614, 0.8872, -105.1158, 140.8575);transform: matrix(0.8872, -0.4614, 0.4614, 0.8872, -105.1158, 140.8575);}#el_SKARyR1CNMM{fill: #4A4A4A;-webkit-transform: matrix(0.8872, -0.4614, 0.4614, 0.8872, -105.4035, 141.1055);transform: matrix(0.8872, -0.4614, 0.4614, 0.8872, -105.4035, 141.1055);}#el_MlapAQmFdx8{fill: #4A4A4A;-webkit-transform: matrix(0.8872, -0.4614, 0.4614, 0.8872, -105.7176, 141.3866);transform: matrix(0.8872, -0.4614, 0.4614, 0.8872, -105.7176, 141.3866);}#el_Y1dsxL3X7IM{fill: #4A4A4A;-webkit-transform: matrix(0.8872, -0.4614, 0.4614, 0.8872, -106.0493, 141.6643);transform: matrix(0.8872, -0.4614, 0.4614, 0.8872, -106.0493, 141.6643);}#el_4Txni2SDFr_{fill: #4A4A4A;}#el_extI43AOyfg{fill: #4A4A4A;-webkit-transform: matrix(0.8867, -0.4623, 0.4623, 0.8867, -106.9521, 142.6849);transform: matrix(0.8867, -0.4623, 0.4623, 0.8867, -106.9521, 142.6849);}#el_RiPs11FlUwQ{fill: #4A4A4A;-webkit-transform: matrix(0.8871, -0.4615, 0.4615, 0.8871, -106.9863, 142.513);transform: matrix(0.8871, -0.4615, 0.4615, 0.8871, -106.9863, 142.513);}#el_o8sSqri-nxx{fill: #4A4A4A;}#el_NqqyU2f2KtA{fill: #4A4A4A;-webkit-transform: matrix(0.8872, -0.4614, 0.4614, 0.8872, -107.7817, 143.1714);transform: matrix(0.8872, -0.4614, 0.4614, 0.8872, -107.7817, 143.1714);}#el_z03fa4wZw3M{fill: #4A4A4A;-webkit-transform: matrix(0.8871, -0.4615, 0.4615, 0.8871, -108.1172, 143.4912);transform: matrix(0.8871, -0.4615, 0.4615, 0.8871, -108.1172, 143.4912);}#el_6DUTVlgOtOb{fill: #4A4A4A;-webkit-transform: matrix(0.8872, -0.4614, 0.4614, 0.8872, -108.3608, 143.7347);transform: matrix(0.8872, -0.4614, 0.4614, 0.8872, -108.3608, 143.7347);}#el_rHhjSK9YSpF{fill: #4A4A4A;-webkit-transform: matrix(0.8872, -0.4614, 0.4614, 0.8872, -108.6837, 144.0141);transform: matrix(0.8872, -0.4614, 0.4614, 0.8872, -108.6837, 144.0141);}#el_sq4T_2W45Tw{fill: #4A4A4A;}#el_2rNLXTRnA0f{fill: #4A4A4A;-webkit-transform: matrix(0.8871, -0.4615, 0.4615, 0.8871, -109.504, 144.7534);transform: matrix(0.8871, -0.4615, 0.4615, 0.8871, -109.504, 144.7534);}#el_pBMLYG3xitS{fill: #4A4A4A;-webkit-transform: matrix(0.8867, -0.4623, 0.4623, 0.8867, -109.9149, 145.325);transform: matrix(0.8867, -0.4623, 0.4623, 0.8867, -109.9149, 145.325);}#el_2L6CHCVZ3fv{fill: #4A4A4A;-webkit-transform: matrix(0.8872, -0.4614, 0.4614, 0.8872, -109.9416, 145.1042);transform: matrix(0.8872, -0.4614, 0.4614, 0.8872, -109.9416, 145.1042);}#el_JXmyMUxkLFf{fill: #4A4A4A;-webkit-transform: matrix(0.8872, -0.4614, 0.4614, 0.8872, -110.2553, 145.3855);transform: matrix(0.8872, -0.4614, 0.4614, 0.8872, -110.2553, 145.3855);}#el_IyxQKt5u5-X{fill: #4A4A4A;-webkit-transform: matrix(0.8872, -0.4614, 0.4614, 0.8872, -110.5872, 145.6631);transform: matrix(0.8872, -0.4614, 0.4614, 0.8872, -110.5872, 145.6631);}#el_y9QCF2bFFd_{fill: #4A4A4A;-webkit-transform: matrix(0.8872, -0.4614, 0.4614, 0.8872, -110.875, 145.9111);transform: matrix(0.8872, -0.4614, 0.4614, 0.8872, -110.875, 145.9111);}#el_9_ag6bDiaf1{fill: #4A4A4A;-webkit-transform: matrix(0.8872, -0.4614, 0.4614, 0.8872, -111.1887, 146.1924);transform: matrix(0.8872, -0.4614, 0.4614, 0.8872, -111.1887, 146.1924);}#el_VHnfaq460ae{fill: #4A4A4A;}#el_C5ahS75qrDc{fill: #4A4A4A;}#el_qPoz004XJuI{fill: #4A4A4A;-webkit-transform: matrix(0.8872, -0.4614, 0.4614, 0.8872, -123.2677, 156.7824);transform: matrix(0.8872, -0.4614, 0.4614, 0.8872, -123.2677, 156.7824);}#el_CVhMb0kxHV4{fill: #4A4A4A;-webkit-transform: matrix(0.8871, -0.4615, 0.4615, 0.8871, -123.5601, 157.0772);transform: matrix(0.8871, -0.4615, 0.4615, 0.8871, -123.5601, 157.0772);}#el_gx0mZNzEcLM{fill: #4A4A4A;-webkit-transform: matrix(0.8872, -0.4614, 0.4614, 0.8872, -123.8586, 157.314);transform: matrix(0.8872, -0.4614, 0.4614, 0.8872, -123.8586, 157.314);}#el_umA4H-DuT7u{fill: #4A4A4A;-webkit-transform: matrix(0.8872, -0.4614, 0.4614, 0.8872, -124.2011, 157.5893);transform: matrix(0.8872, -0.4614, 0.4614, 0.8872, -124.2011, 157.5893);}#el_cnymfBDNgAD{fill: #4A4A4A;}#el_uHGninsv_Kv{fill: #4A4A4A;-webkit-transform: matrix(0.8872, -0.4614, 0.4614, 0.8872, -124.9732, 158.2565);transform: matrix(0.8872, -0.4614, 0.4614, 0.8872, -124.9732, 158.2565);}#el_dwETAxILb6u{fill: #4A4A4A;-webkit-transform: matrix(0.8872, -0.4614, 0.4614, 0.8872, -125.2764, 158.54);transform: matrix(0.8872, -0.4614, 0.4614, 0.8872, -125.2764, 158.54);}#el_Y1niTh1e_Bj{fill: #4A4A4A;-webkit-transform: matrix(0.8871, -0.4615, 0.4615, 0.8871, -125.6245, 158.8626);transform: matrix(0.8871, -0.4615, 0.4615, 0.8871, -125.6245, 158.8626);}#el_IwRtMAEJlQT{fill: #4A4A4A;}#el_a3wbZV55JUB{fill: #4A4A4A;}#el_FKWqsyh8s3D{fill: #4A4A4A;}#el_8MwNpgF0W-N{fill: #4A4A4A;-webkit-transform: matrix(0.8871, -0.4615, 0.4615, 0.8871, -127.3659, 160.3685);transform: matrix(0.8871, -0.4615, 0.4615, 0.8871, -127.3659, 160.3685);}#el_iA9W0D8LYpx{fill: #4A4A4A;-webkit-transform: matrix(0.8872, -0.4614, 0.4614, 0.8872, -127.6835, 160.6001);transform: matrix(0.8872, -0.4614, 0.4614, 0.8872, -127.6835, 160.6001);}#el_ZzkNVOmiVtp{fill: #4A4A4A;-webkit-transform: matrix(0.8872, -0.4614, 0.4614, 0.8872, -127.9865, 160.8837);transform: matrix(0.8872, -0.4614, 0.4614, 0.8872, -127.9865, 160.8837);}#el_Lu99zBUtrvZ{fill: #4A4A4A;-webkit-transform: matrix(0.8871, -0.4615, 0.4615, 0.8871, -128.2994, 161.1757);transform: matrix(0.8871, -0.4615, 0.4615, 0.8871, -128.2994, 161.1757);}#el_useMMoat3Im{fill: #4A4A4A;-webkit-transform: matrix(0.8872, -0.4614, 0.4614, 0.8872, -128.6169, 161.407);transform: matrix(0.8872, -0.4614, 0.4614, 0.8872, -128.6169, 161.407);}#el_DYM-_zCv3VD{fill: #4A4A4A;-webkit-transform: matrix(0.8872, -0.4614, 0.4614, 0.8872, -111.9876, 146.8926);transform: matrix(0.8872, -0.4614, 0.4614, 0.8872, -111.9876, 146.8926);}#el_QcHLCekJ6aB{fill: #4A4A4A;-webkit-transform: matrix(0.8872, -0.4614, 0.4614, 0.8872, -112.3103, 147.172);transform: matrix(0.8872, -0.4614, 0.4614, 0.8872, -112.3103, 147.172);}#el_43JyfG5eJTP{fill: #4A4A4A;-webkit-transform: matrix(0.8872, -0.4614, 0.4614, 0.8872, -112.6161, 147.4165);transform: matrix(0.8872, -0.4614, 0.4614, 0.8872, -112.6161, 147.4165);}#el_7xThp1tP5bB{fill: #4A4A4A;}#el_3Z8C5ba-ScV{fill: #4A4A4A;}#el_JrhI-VXJDSx{fill: #4A4A4A;}#el_jY65kefTu4R{fill: #4A4A4A;-webkit-transform: matrix(0.8872, -0.4614, 0.4614, 0.8872, -114.3569, 148.9219);transform: matrix(0.8872, -0.4614, 0.4614, 0.8872, -114.3569, 148.9219);}#el_WOhNsnsSefi{fill: #4A4A4A;-webkit-transform: matrix(0.8872, -0.4614, 0.4614, 0.8872, -114.6712, 149.2031);transform: matrix(0.8872, -0.4614, 0.4614, 0.8872, -114.6712, 149.2031);}#el_jHn2AtpSovg{fill: #4A4A4A;-webkit-transform: matrix(0.8872, -0.4614, 0.4614, 0.8872, -115.0031, 149.4808);transform: matrix(0.8872, -0.4614, 0.4614, 0.8872, -115.0031, 149.4808);}#el_kb0LCuu-zSN{fill: #4A4A4A;-webkit-transform: matrix(0.8871, -0.4615, 0.4615, 0.8871, -115.2992, 149.8401);transform: matrix(0.8871, -0.4615, 0.4615, 0.8871, -115.2992, 149.8401);}#el_9O0Jb0FAxPo{fill: #4A4A4A;}#el_7AK92pktpV3{fill: #4A4A4A;-webkit-transform: matrix(0.8872, -0.4614, 0.4614, 0.8872, -116.0482, 150.4669);transform: matrix(0.8872, -0.4614, 0.4614, 0.8872, -116.0482, 150.4669);}#el_On86M1vlqS3{fill: #4A4A4A;}#el_vFCBV726Cyz{fill: #4A4A4A;-webkit-transform: matrix(0.8872, -0.4614, 0.4614, 0.8872, -116.9303, 151.1788);transform: matrix(0.8872, -0.4614, 0.4614, 0.8872, -116.9303, 151.1788);}#el_QKV3IHZ-ZiI{fill: #4A4A4A;-webkit-transform: matrix(0.8871, -0.4615, 0.4615, 0.8871, -117.2222, 151.4717);transform: matrix(0.8871, -0.4615, 0.4615, 0.8871, -117.2222, 151.4717);}#el_aY-6Xs3j9St{fill: #4A4A4A;-webkit-transform: matrix(0.8872, -0.4614, 0.4614, 0.8872, -117.5408, 151.7062);transform: matrix(0.8872, -0.4614, 0.4614, 0.8872, -117.5408, 151.7062);}#el_MMyDxokC3kS{fill: #4A4A4A;-webkit-transform: matrix(0.8872, -0.4614, 0.4614, 0.8872, -117.8137, 152.0252);transform: matrix(0.8872, -0.4614, 0.4614, 0.8872, -117.8137, 152.0252);}#el_Zt5Tg6HhKFv{fill: #4A4A4A;}#el_-1CNLZFpszk{fill: #4A4A4A;-webkit-transform: matrix(0.8872, -0.4614, 0.4614, 0.8872, -118.6045, 152.6886);transform: matrix(0.8872, -0.4614, 0.4614, 0.8872, -118.6045, 152.6886);}#el_lNpMm0OYZzk{fill: #4A4A4A;-webkit-transform: matrix(0.8872, -0.4614, 0.4614, 0.8872, -118.9275, 152.9679);transform: matrix(0.8872, -0.4614, 0.4614, 0.8872, -118.9275, 152.9679);}#el_07jB6ocOahs{fill: #4A4A4A;-webkit-transform: matrix(0.8872, -0.4614, 0.4614, 0.8872, -119.2415, 153.2493);transform: matrix(0.8872, -0.4614, 0.4614, 0.8872, -119.2415, 153.2493);}#el_CzS0DIs-r_t{fill: #4A4A4A;}#el_JuahehGAZ0T{fill: #4A4A4A;}#el_vw0VqzuNLEm{fill: #4A4A4A;}#el_TSG8KGWUJYg{fill: #4A4A4A;-webkit-transform: matrix(0.8871, -0.4615, 0.4615, 0.8871, -120.9966, 154.7987);transform: matrix(0.8871, -0.4615, 0.4615, 0.8871, -120.9966, 154.7987);}#el_Ulxr2jcrUOj{fill: #4A4A4A;-webkit-transform: matrix(0.8872, -0.4614, 0.4614, 0.8872, -121.3148, 155.0322);transform: matrix(0.8872, -0.4614, 0.4614, 0.8872, -121.3148, 155.0322);}#el_fT6PrAtr4XT{fill: #4A4A4A;-webkit-transform: matrix(0.8872, -0.4614, 0.4614, 0.8872, -121.6186, 155.3156);transform: matrix(0.8872, -0.4614, 0.4614, 0.8872, -121.6186, 155.3156);}#el_yDzWTuQe19-{fill: #4A4A4A;-webkit-transform: matrix(0.8871, -0.4615, 0.4615, 0.8871, -121.9301, 155.6059);transform: matrix(0.8871, -0.4615, 0.4615, 0.8871, -121.9301, 155.6059);}#el_m7kP0rLkdKT{fill: #4A4A4A;}#el_rul6l_png1F{fill: #B3B3B3;}#el_ih0WcBRmIC5{fill: #FFFFFF;}#el_dPfCDDsDm6N{fill: #FFFFFF;}#el_DAyDsSWMKnA{fill: #403C51;}#el_LnqsdALtFTz{fill: #403C51;}#el_PAvoc0oxWko{fill: #FFFFFF;}#el_3G2ZNIbLHP7{fill: #FFFFFF;}#el_clj_PDDAsxG{fill: #F2F2F2;}#el_TU26Pcl_Riu{fill: #414042;}#el__-fq5pqecit{fill: #414042;}#el_-mLvoM23rCV{fill: #414042;}#el_uoyVtra_vRS{fill: #414042;}#el_Hzy6J7ia2jl{fill: #414042;}#el_muLYiDE7D2B{fill: #414042;}#el_6POaA5Jphc3{fill: #FFFFFF;}#el_DxbYVlc0VEk{fill: #FFFFFF;}#el_rOL6ZGjmbQK{fill: #0E4160;}#el_GyVchdYrVFA{fill: #0E4160;}#el_--0xyYL_L9Y{fill: #FFFFFF;}#el_f6vpEBxd8yB{fill: #FFFFFF;}#el_fn6ve60qpir{fill: #F2F2F2;}#el_6nP-G2JtK_A{fill: #414042;}#el_lJO3S_L7CT3{fill: #414042;}#el_0Vi3hR49t9e{fill: #414042;}#el_o11NepkQ5Uw{fill: #414042;}#el_P1eZpF4zalW{fill: #414042;}#el_3id2moP-WzI{fill: #414042;}#el_cyU-eIxPSWY_an_DPGtF0vpl{-webkit-animation-fill-mode: backwards;animation-fill-mode: backwards;-webkit-transform: translate(221.30674743652344px, 254.0030975341797px) translate(-221.30674743652344px, -254.0030975341797px) translate(50px, 340px);transform: translate(221.30674743652344px, 254.0030975341797px) translate(-221.30674743652344px, -254.0030975341797px) translate(50px, 340px);-webkit-animation-name: kf_el_cyU-eIxPSWY_an_DPGtF0vpl;animation-name: kf_el_cyU-eIxPSWY_an_DPGtF0vpl;-webkit-animation-timing-function: cubic-bezier(0.42, 0, 0.58, 1);animation-timing-function: cubic-bezier(0.42, 0, 0.58, 1);}</style>

<title>douro-BTC-amazonite</title>
<path d="M27.8,481.5h295.1c14.2,0,25.7-13,25.7-29.1V29.1C348.6,13,337.1,0,322.9,0H27.8C13.6,0,2.1,13,2.1,29.1v423.4&#10;&#9;C2.1,468.5,13.6,481.5,27.8,481.5z" id="el_uZQ5H61aOx"/>
<g id="el_2AFtNlePJm">
	<path d="M361,240.1v27.7c0,0.8-0.6,1.6-1.4,1.8l-11,2.3v-35.8l11,2.3C360.4,238.5,361,239.3,361,240.1z" id="el_SlK7jT1VCg"/>
	<path d="M348.6,403.1v54.1c0,15-12.2,27.2-27.2,27.2H28.2c-15,0-27.2-12.2-27.2-27.2v-54.1h1&#10;&#9;&#9;c0,14.2,11.5,25.7,25.7,25.7h295.1C337.1,428.8,348.6,417.3,348.6,403.1z" id="el_cUHRSevC0a"/>
	<path d="M303.5,190.2h0.7V44.1h-0.7V44H47.2v0.1h-0.8v146.1L303.5,190.2L303.5,190.2z M348.6,403v0.1&#10;&#9;&#9;c0,14.2-11.5,25.7-25.7,25.7H27.8C13.6,428.8,2,417.3,2,403.1V28.6C2,14.4,13.5,2.8,27.7,2.8l0,0h295.1c14.2,0,25.7,11.5,25.7,25.7&#10;&#9;&#9;l0,0L348.6,403L348.6,403z M306.6,355.6V252.4c0-2.7-2.2-4.9-4.9-4.9l0,0h-81c-2.7,0-4.9,2.2-4.9,4.9l0,0v103.2&#10;&#9;&#9;c0,2.7,2.2,4.9,4.9,4.9l0,0h81C304.5,360.5,306.6,358.3,306.6,355.6z M182.7,367.6v-48.5c0-2.7-2.2-4.9-4.9-4.9H59.2&#10;&#9;&#9;c-2.7,0-4.9,2.2-4.9,4.9v48.5c0,2.7,2.2,4.9,4.9,4.9l0,0h118.6C180.5,372.5,182.7,370.3,182.7,367.6L182.7,367.6z M179.6,21.5&#10;&#9;&#9;c-0.3-2.5-2.6-4.2-5-3.8c-2,0.3-3.6,1.8-3.8,3.8c0.3,2.5,2.6,4.2,5.1,3.8C177.8,25.1,179.3,23.5,179.6,21.5z" id="el_GMae8pdYDR"/>
	<path d="M306.6,252.4v103.2c0,2.7-2.2,4.9-4.9,4.9h-81c-2.7,0-4.9-2.2-4.9-4.9l0,0V252.4c0-2.7,2.2-4.9,4.9-4.9l0,0h81&#10;&#9;&#9;C304.5,247.5,306.6,249.7,306.6,252.4L306.6,252.4z M263.3,306.3c0-1.1-0.9-2.1-2.1-2.1s-2.1,0.9-2.1,2.1c0,1.1,0.9,2.1,2.1,2.1&#10;&#9;&#9;S263.3,307.5,263.3,306.3L263.3,306.3z" id="el_0ou0PeU4Dk"/>
	<rect x="303.5" y="44.1" width="0.7" height="146.1" id="el_n048y2p5od"/>
	<rect x="47.2" y="44.1" width="256.3" height="0.1" id="el_snIas9WStQ"/>
	<path d="M261.2,304.2c1.1,0,2.1,0.9,2.1,2.1s-0.9,2.1-2.1,2.1s-2.1-0.9-2.1-2.1l0,0&#10;&#9;&#9;C259.2,305.2,260.1,304.2,261.2,304.2L261.2,304.2z" id="el_Sp2FMGeLqc"/>
	<path d="M182.7,365.8v1.8c0,2.7-2.2,4.9-4.9,4.9l0,0H59.2c-2.7,0-4.9-2.2-4.9-4.9l0,0v-1.8c0,2.9,2.4,5.3,5.3,5.3l0,0&#10;&#9;&#9;h117.7C180.3,371.2,182.7,368.8,182.7,365.8L182.7,365.8z" id="el_1PIDA80z8B"/>
	<path d="M182.7,319.1v46.7c0,2.9-2.4,5.3-5.3,5.3l0,0H59.6c-2.9,0-5.3-2.4-5.3-5.3l0,0v-46.7c0-2.7,2.2-4.9,4.9-4.9&#10;&#9;&#9;h118.6C180.5,314.2,182.7,316.4,182.7,319.1z M160.9,355.3V331c0-2.2-1.8-4-4-4l0,0H80c-2.2,0-4,1.8-4,4l0,0v24.4c0,2.2,1.8,4,4,4&#10;&#9;&#9;l0,0h76.9C159.1,359.4,160.9,357.6,160.9,355.3L160.9,355.3z" id="el_xngecuuCCU"/>
	<path d="M175.2,17.6c2.3-0.1,4.3,1.6,4.4,3.9c-0.3,2.5-2.6,4.2-5.1,3.8c-2-0.3-3.5-1.8-3.8-3.8&#10;&#9;&#9;C170.9,19.2,172.9,17.5,175.2,17.6z" id="el_sldOVj5feu"/>
	<path d="M160.9,352.8v2.5c0,2.2-1.8,4-4,4l0,0H80c-2.2,0-4-1.8-4-4l0,0v-2.5H160.9z" id="el_7lNA0N98m1"/>
	<rect x="76" y="347.3" width="84.9" height="5.5" id="el_9v7CMlDu83"/>
	<rect x="76" y="339.8" width="84.9" height="7.5" id="el_YRiiHu6dgo"/>
	<rect x="76" y="333.5" width="84.9" height="6.3" id="el_FfjMYrRyiGM"/>
	<path d="M160.9,331v2.5H76V331c0-2.2,1.8-4,4-4l0,0h76.9C159.1,327,160.9,328.7,160.9,331L160.9,331z" id="el_Avttc7JkEwu"/>
	<rect x="46.4" y="44.1" width="0.8" height="146.1" id="el_U4ucJ4vtcwP"/>
	<path d="M348.6,403V28.6c0-14.2-11.5-25.7-25.7-25.7l0,0H27.8C13.6,2.8,2,14.3,2,28.6l0,0v374.5&#10;&#9;&#9;c0,14.2,11.5,25.7,25.7,25.7h295.1c14.2,0,25.7-11.5,25.7-25.7" id="el_nJlHR6FXwZF"/>
</g>
<rect id="el_fn7T3PMCwGn" x="47.2" y="44.1" width="256.3" height="146.1"/>
<rect id="el_tlMldFG5Amw" x="47.2" y="44.1" width="256.3" height="146.1"/>
<g id="el_cyU-eIxPSWY_an_DPGtF0vpl" data-animator-group="true" data-animator-type="0"><g id="el_cyU-eIxPSWY">
	<polygon points="244.4,366.8 272.2,383.4 290.1,356.3 263,341.5 &#9;" id="el_4CTlfFfGAFg"/>
	<path id="el_oOsJ3qWjhl-" d="M237.8,340.6C237.9,340.6,237.9,340.6,237.8,340.6L237.8,340.6l37.3,8.3l-3.5,8.3&#10;&#9;&#9;l-34.8-0.2l0,0c0,0,0,0-0.1,0c-4.9,0-8.6-3.7-8.3-8.3S232.3,339.2,237.8,340.6z"/>
	<path id="el_EKGeNuQpQGp" d="M240.6,353L240.6,353L240.6,353l33-1.9l2.1,15.1l-33,1.8l0,0c0,0,0,0-0.1,0&#10;&#9;&#9;c-4.6,0.3-8.9-2.9-9.4-7.1S236,353.2,240.6,353z"/>
	<path id="el_Xd-Cc8dDsk-" d="M243.1,365.8L243.1,365.8L243.1,365.8l30,1.3l-0.1,13.6l-29.9-1.3l0,0c0,0,0,0-0.1,0&#10;&#9;&#9;c-4.2-0.2-7.6-3.4-7.6-7.2S238.8,365.6,243.1,365.8z"/>
	<path id="el_u5L0eM1rfch" d="M273.9,329.7c1.8-0.1,3.6,0.5,4.9,1.7l14.7,12.4c2.1,1.9,3.3,4.5,3.3,7.3l0.5,54.3&#10;&#9;&#9;c0,3.2-2.9,5.6-6.5,5.4l-13-0.6c-3.6-0.2-6.5-2.9-6.5-6l2.6-45.4l-11.4-9.6l-24.5-0.3c-10.5,0.2-16.4-4.5-14.7-10.6&#10;&#9;&#9;c1-3.6,3.1-6.2,11.1-6.1L273.9,329.7z"/>
	<path id="el_rV3FsmywpJf" d="M272.2,256.6l36.3,69.8c1.1,2.1,0.3,4.7-1.8,5.8l-42.8,22.2c-2.1,1.1-4.7,0.3-5.8-1.8&#10;&#9;&#9;l-36.3-69.8c-1.1-2.1-0.3-4.7,1.8-5.8l42.8-22.2C268.5,253.7,271.1,254.5,272.2,256.6z"/>
	<path id="el_XEawyOCelEx" d="M272.2,256.6l36.3,69.8c1.1,2.1,0.3,4.7-1.8,5.8l-42.8,22.2c-2.1,1.1-4.7,0.3-5.8-1.8&#10;&#9;&#9;l-36.3-69.8c-1.1-2.1-0.3-4.7,1.8-5.8l42.8-22.2C268.5,253.7,271.1,254.5,272.2,256.6z"/>
	<g id="el_jgZmWvimAUd">
		<path id="el_chUm35_gJBv" d="M271.7,255.8l36.7,70.5c0.9,1.7,0.2,3.7-1.4,4.6l-43.5,22.6c-1.7,0.9-3.7,0.2-4.6-1.4&#10;&#9;&#9;&#9;l-36.7-70.5c-0.9-1.7-0.2-3.7,1.4-4.6l43.5-22.6C268.8,253.5,270.9,254.2,271.7,255.8z"/>
		<path id="el_oN3-6_aqwj4" d="M271.7,255.8l36.7,70.5c0.9,1.7,0.2,3.7-1.4,4.6l-43.5,22.6c-1.7,0.9-3.7,0.2-4.6-1.4l-36.7-70.5&#10;&#9;&#9;&#9;c-0.9-1.7-0.2-3.7,1.4-4.6l43.5-22.6C268.8,253.5,270.9,254.2,271.7,255.8z"/>
		
			<rect x="270.2" y="255" width="12.7" height="86.2" id="el_JAJXFqhDPA9"/>
		<line x1="251.1" y1="271.3" x2="284.2" y2="335" id="el_8pnP7PM4X-e"/>
		<line x1="248.4" y1="272.7" x2="274.4" y2="322.7" id="el_yFyzxHAbk3I"/>
		<line x1="242.8" y1="275.6" x2="252.6" y2="294.4" id="el_eu4PtvgpESX"/>
		<line x1="240.1" y1="277.1" x2="257.6" y2="310.8" id="el_X1yroGSxeS1"/>
		<g id="el_Hk3keSVlA_H">
			<polygon points="237.1,278.8 229.6,282.8 237.1,278.8 236.9,278.5 229.1,282.5 229.3,282.9 229.3,282.9 &#10;&#9;&#9;&#9;&#9;229.5,283.3 237.3,279.2 &#9;&#9;&#9;" id="el_lo645Lo4xl1"/>
			
				<rect x="229.3" y="281.6" width="8.8" height="0.4" id="el_AImVXNbljw-"/>
			
				<rect x="229.7" y="282.4" width="8.8" height="0.4" id="el_hjWMZ9gDieY"/>
			
				<rect x="230.1" y="283.2" width="8.8" height="0.4" id="el_MWlvWCDvomp"/>
			
				<rect x="230.5" y="284" width="8.8" height="0.4" id="el_5ukPK0-alaS"/>
			
				<rect x="230.9" y="284.8" width="8.8" height="0.4" id="el_q3XXKi-1om-"/>
			
				<rect x="231.1" y="285.2" width="8.8" height="0.4" id="el_0LANN-WdOMG"/>
			
				<rect x="231.5" y="285.9" width="8.8" height="0.4" id="el_SKARyR1CNMM"/>
			
				<rect x="231.9" y="286.7" width="8.8" height="0.4" id="el_MlapAQmFdx8"/>
			
				<rect x="232.3" y="287.5" width="8.8" height="0.4" id="el_Y1dsxL3X7IM"/>
			<polygon points="240.9,286.3 233.1,290.3 233.3,290.7 233.3,290.7 233.5,291.1 241.3,287 &#9;&#9;&#9;" id="el_4Txni2SDFr_"/>
			
				<rect x="233.3" y="289.4" width="8.8" height="0.4" id="el_extI43AOyfg"/>
			
				<rect x="233.5" y="289.8" width="8.8" height="0.4" id="el_RiPs11FlUwQ"/>
			<polygon points="242.4,289 242.4,289 242.2,288.6 234.3,292.7 234.5,293.1 238.4,291.1 234.5,293.1 234.7,293.5 &#10;&#9;&#9;&#9;&#9;242.6,289.4 &#9;&#9;&#9;" id="el_o8sSqri-nxx"/>
			
				<rect x="234.5" y="291.8" width="8.8" height="0.4" id="el_NqqyU2f2KtA"/>
			
				<rect x="234.9" y="292.6" width="8.8" height="0.4" id="el_z03fa4wZw3M"/>
			
				<rect x="235.4" y="293.3" width="8.8" height="0.4" id="el_6DUTVlgOtOb"/>
			
				<rect x="235.8" y="294.1" width="8.8" height="0.4" id="el_rHhjSK9YSpF"/>
			<polygon points="244.6,293.3 240.8,295.3 244.6,293.3 244.4,292.9 236.6,297 236.8,297.4 236.8,297.4 237,297.7 &#10;&#9;&#9;&#9;&#9;244.8,293.7 &#9;&#9;&#9;" id="el_sq4T_2W45Tw"/>
			
				<rect x="236.8" y="296.1" width="8.8" height="0.4" id="el_2rNLXTRnA0f"/>
			
				<rect x="237.2" y="296.7" width="8.8" height="0.4" id="el_pBMLYG3xitS"/>
			
				<rect x="237.4" y="297.2" width="8.8" height="0.4" id="el_2L6CHCVZ3fv"/>
			
				<rect x="237.8" y="298" width="8.8" height="0.4" id="el_JXmyMUxkLFf"/>
			
				<rect x="238.2" y="298.8" width="8.8" height="0.4" id="el_IyxQKt5u5-X"/>
			
				<rect x="238.6" y="299.5" width="8.8" height="0.4" id="el_y9QCF2bFFd_"/>
			
				<rect x="239" y="300.3" width="8.8" height="0.4" id="el_9_ag6bDiaf1"/>
			<polygon points="247.8,299.5 244,301.5 247.8,299.5 247.6,299.1 239.8,303.2 240,303.6 240,303.6 240.2,303.9 &#10;&#9;&#9;&#9;&#9;248,299.9 &#9;&#9;&#9;" id="el_VHnfaq460ae"/>
			<polygon points="262.4,327.5 262.4,327.5 262.2,327.1 262.2,327.1 262.1,326.9 254.2,330.9 254.4,331.3 &#10;&#9;&#9;&#9;&#9;254.4,331.3 254.5,331.5 254.5,331.5 254.7,331.9 262.6,327.9 &#9;&#9;&#9;" id="el_C5ahS75qrDc"/>
			
				<rect x="254.6" y="330.3" width="8.8" height="0.4" id="el_qPoz004XJuI"/>
			
				<rect x="255" y="331" width="8.8" height="0.4" id="el_CVhMb0kxHV4"/>
			
				<rect x="255.4" y="331.8" width="8.8" height="0.4" id="el_gx0mZNzEcLM"/>
			
				<rect x="255.8" y="332.6" width="8.8" height="0.4" id="el_umA4H-DuT7u"/>
			<polygon points="264.6,331.8 264.6,331.8 264.4,331.4 256.6,335.4 256.8,335.8 256.8,335.8 257,336.2 264.8,332.1 &#10;&#9;&#9;&#9;&#9;&#9;&#9;&#9;" id="el_cnymfBDNgAD"/>
			
				<rect x="256.8" y="334.5" width="8.8" height="0.4" id="el_uHGninsv_Kv"/>
			
				<rect x="257.2" y="335.3" width="8.8" height="0.4" id="el_dwETAxILb6u"/>
			
				<rect x="257.6" y="336.1" width="8.8" height="0.4" id="el_Y1niTh1e_Bj"/>
			<polygon points="266.4,335.3 266.4,335.3 266.2,334.9 258.4,338.9 258.6,339.3 258.6,339.3 258.8,339.7 &#10;&#9;&#9;&#9;&#9;266.6,335.7 &#9;&#9;&#9;" id="el_IwRtMAEJlQT"/>
			<polygon points="266.8,336 259,340.1 259.2,340.5 259.2,340.5 259.4,340.9 267.2,336.8 &#9;&#9;&#9;" id="el_a3wbZV55JUB"/>
			<polygon points="267.4,337.2 259.6,341.3 259.8,341.7 259.8,341.7 260,342.1 267.9,338 &#9;&#9;&#9;" id="el_FKWqsyh8s3D"/>
			
				<rect x="259.8" y="340.4" width="8.8" height="0.4" id="el_8MwNpgF0W-N"/>
			
				<rect x="260.2" y="341.2" width="8.8" height="0.4" id="el_iA9W0D8LYpx"/>
			
				<rect x="260.6" y="342" width="8.8" height="0.4" id="el_ZzkNVOmiVtp"/>
			
				<rect x="261" y="342.7" width="8.8" height="0.4" id="el_Lu99zBUtrvZ"/>
			
				<rect x="261.4" y="343.5" width="8.8" height="0.4" id="el_useMMoat3Im"/>
			
				<rect x="240" y="302.3" width="8.8" height="0.4" id="el_DYM-_zCv3VD"/>
			
				<rect x="240.4" y="303.1" width="8.8" height="0.4" id="el_QcHLCekJ6aB"/>
			
				<rect x="240.8" y="303.8" width="8.8" height="0.4" id="el_43JyfG5eJTP"/>
			<polygon points="249.6,303 249.6,303 249.4,302.6 241.6,306.7 241.8,307.1 241.8,307.1 242,307.5 249.8,303.4 &#9;&#9;&#9;&#10;&#9;&#9;&#9;&#9;" id="el_7xThp1tP5bB"/>
			<polygon points="250.3,304.2 250.3,304.2 250.1,303.8 242.2,307.8 242.4,308.2 242.4,308.2 242.6,308.6 &#10;&#9;&#9;&#9;&#9;250.5,304.5 &#9;&#9;&#9;" id="el_3Z8C5ba-ScV"/>
			<polygon points="250.9,305.3 250.9,305.3 250.7,304.9 242.8,309 243,309.4 243,309.4 243.2,309.8 251.1,305.7 &#9;&#9;&#9;&#10;&#9;&#9;&#9;&#9;" id="el_JrhI-VXJDSx"/>
			
				<rect x="243" y="308.1" width="8.8" height="0.4" id="el_jY65kefTu4R"/>
			
				<rect x="243.4" y="308.9" width="8.8" height="0.4" id="el_WOhNsnsSefi"/>
			
				<rect x="243.8" y="309.7" width="8.8" height="0.4" id="el_jHn2AtpSovg"/>
			
				<rect x="244.3" y="310.4" width="8.8" height="0.4" id="el_kb0LCuu-zSN"/>
			<polygon points="253.1,309.6 253.1,309.6 252.9,309.2 245.1,313.3 245.5,314.1 253.3,310 &#9;&#9;&#9;" id="el_9O0Jb0FAxPo"/>
			
				<rect x="245.3" y="312.4" width="8.8" height="0.4" id="el_7AK92pktpV3"/>
			<polygon points="254.2,311.7 254.2,311.7 254,311.3 246.1,315.3 246.3,315.7 246.3,315.7 246.5,316.1 254.4,312.1 &#10;&#9;&#9;&#9;&#9;&#9;&#9;&#9;" id="el_On86M1vlqS3"/>
			
				<rect x="246.3" y="314.5" width="8.8" height="0.4" id="el_vFCBV726Cyz"/>
			
				<rect x="246.7" y="315.2" width="8.8" height="0.4" id="el_QKV3IHZ-ZiI"/>
			
				<rect x="247.1" y="316" width="8.8" height="0.4" id="el_aY-6Xs3j9St"/>
			
				<rect x="247.6" y="316.8" width="8.8" height="0.4" id="el_MMyDxokC3kS"/>
			<polygon points="256.2,315.6 248.4,319.6 248.6,320 248.6,320 248.8,320.4 256.6,316.3 &#9;&#9;&#9;" id="el_Zt5Tg6HhKFv"/>
			
				<rect x="248.6" y="318.7" width="8.8" height="0.4" id="el_-1CNLZFpszk"/>
			
				<rect x="249" y="319.5" width="8.8" height="0.4" id="el_lNpMm0OYZzk"/>
			
				<rect x="249.4" y="320.3" width="8.8" height="0.4" id="el_07jB6ocOahs"/>
			<polygon points="258,319.1 250.2,323.1 250.4,323.5 250.4,323.5 250.6,323.9 258.4,319.9 &#9;&#9;&#9;" id="el_CzS0DIs-r_t"/>
			<polygon points="258.6,320.2 250.8,324.3 251,324.7 251,324.7 251.2,325.1 259,321 &#9;&#9;&#9;" id="el_JuahehGAZ0T"/>
			<polygon points="259.2,321.4 251.4,325.5 251.6,325.9 251.6,325.9 251.8,326.3 259.6,322.2 &#9;&#9;&#9;" id="el_vw0VqzuNLEm"/>
			
				<rect x="251.6" y="324.6" width="8.8" height="0.4" id="el_TSG8KGWUJYg"/>
			
				<rect x="252" y="325.4" width="8.8" height="0.4" id="el_Ulxr2jcrUOj"/>
			
				<rect x="252.4" y="326.2" width="8.8" height="0.4" id="el_fT6PrAtr4XT"/>
			
				<rect x="252.8" y="326.9" width="8.8" height="0.4" id="el_yDzWTuQe19-"/>
			<polygon points="261.7,326.1 261.7,326.1 261.5,325.7 253.6,329.8 253.8,330.2 253.8,330.2 254,330.6 261.9,326.5 &#10;&#9;&#9;&#9;&#9;&#9;&#9;&#9;" id="el_m7kP0rLkdKT"/>
		</g>
	</g>
	<path id="el_rul6l_png1F" d="M279.7,389.7l-6.5-57.6c-1.2-4.7-6.5-7.9-11.8-7c-5.3,0.8-7.4,2.8-7.4,10l0.1,15.2l0.8,9.6&#10;&#9;&#9;c-0.2,3.6,0.2,7.3,1.4,10.8c1.9,5.7,0.1-4-1.9,1.6l-0.6,1.8c-4,14-0.8,29.4,3.4,35.8c2.1,3.2,3.1,6,6.5,8.1&#10;&#9;&#9;c5.2,3.3,7.8,19.2,10.8,29.2c4.2,14.1,7.1,39.2,7.1,39.2L294,584h64.7l-61.5-192.8"/>
</g></g>
<g id="el_ncfvEBly0a1">
	<path d="M166.2,84h-90c-1.5,0-2.7-1.2-2.7-2.7s1.2-2.7,2.7-2.7h90c1.5,0,2.7,1.2,2.7,2.7S167.7,84,166.2,84z" id="el_ih0WcBRmIC5"/>
	<path d="M139.1,97.5h-63c-1.5,0-2.7-1.2-2.7-2.7s1.2-2.7,2.7-2.7h63c1.5,0,2.7,1.2,2.7,2.7S140.6,97.5,139.1,97.5z" id="el_dPfCDDsDm6N"/>
	<path d="M139.1,117.3h-63c-0.7,0-1.3-0.6-1.3-1.3s0.6-1.3,1.3-1.3h63c0.7,0,1.3,0.6,1.3,1.3S139.9,117.3,139.1,117.3z&#10;&#9;&#9;" id="el_DAyDsSWMKnA"/>
	<path d="M124.9,127.6H76.2c-0.7,0-1.3-0.6-1.3-1.3s0.6-1.3,1.3-1.3h48.7c0.7,0,1.3,0.6,1.3,1.3&#10;&#9;&#9;S125.6,127.6,124.9,127.6z" id="el_LnqsdALtFTz"/>
	<path d="M124.9,145.7H76.2c-0.7,0-1.3-0.6-1.3-1.3s0.6-1.3,1.3-1.3h48.7c0.7,0,1.3,0.6,1.3,1.3&#10;&#9;&#9;S125.6,145.7,124.9,145.7z" id="el_PAvoc0oxWko"/>
	<path d="M210.1,78.4H270c3.9,0,7.1,3.2,7.1,7.1v33.7c0,3.9-3.2,7.1-7.1,7.1h-59.9c-3.9,0-7.1-3.2-7.1-7.1V85.4&#10;&#9;&#9;C203.1,81.5,206.2,78.4,210.1,78.4z" id="el_3G2ZNIbLHP7"/>
	<rect x="209.8" y="84" width="21.9" height="34.2" id="el_clj_PDDAsxG"/>
	<rect x="240.1" y="84.8" width="18.8" height="2.7" id="el_TU26Pcl_Riu"/>
	<rect x="240.1" y="90.2" width="21.3" height="2.7" id="el__-fq5pqecit"/>
	<rect x="240.1" y="100.2" width="21.3" height="1.1" id="el_-mLvoM23rCV"/>
	<rect x="240.1" y="102.8" width="21.3" height="1.1" id="el_uoyVtra_vRS"/>
	<rect x="240.1" y="106" width="21.3" height="1.1" id="el_Hzy6J7ia2jl"/>
	<rect x="240.1" y="108.7" width="21.3" height="1.1" id="el_muLYiDE7D2B"/>
</g>
<g id="el_bnQsjW8I720">
	<path d="M166.2,84h-90c-1.5,0-2.7-1.2-2.7-2.7s1.2-2.7,2.7-2.7h90c1.5,0,2.7,1.2,2.7,2.7S167.7,84,166.2,84z" id="el_6POaA5Jphc3"/>
	<path d="M139.1,97.5h-63c-1.5,0-2.7-1.2-2.7-2.7s1.2-2.7,2.7-2.7h63c1.5,0,2.7,1.2,2.7,2.7S140.6,97.5,139.1,97.5z" id="el_DxbYVlc0VEk"/>
	<path d="M139.1,117.3h-63c-0.7,0-1.3-0.6-1.3-1.3s0.6-1.3,1.3-1.3h63c0.7,0,1.3,0.6,1.3,1.3S139.9,117.3,139.1,117.3z&#10;&#9;&#9;" id="el_rOL6ZGjmbQK"/>
	<path d="M124.9,127.6H76.2c-0.7,0-1.3-0.6-1.3-1.3s0.6-1.3,1.3-1.3h48.7c0.7,0,1.3,0.6,1.3,1.3&#10;&#9;&#9;S125.6,127.6,124.9,127.6z" id="el_GyVchdYrVFA"/>
	<path d="M124.9,145.7H76.2c-0.7,0-1.3-0.6-1.3-1.3s0.6-1.3,1.3-1.3h48.7c0.7,0,1.3,0.6,1.3,1.3&#10;&#9;&#9;S125.6,145.7,124.9,145.7z" id="el_--0xyYL_L9Y"/>
	<path d="M210.1,78.4H270c3.9,0,7.1,3.2,7.1,7.1v33.7c0,3.9-3.2,7.1-7.1,7.1h-59.9c-3.9,0-7.1-3.2-7.1-7.1V85.4&#10;&#9;&#9;C203.1,81.5,206.2,78.4,210.1,78.4z" id="el_f6vpEBxd8yB"/>
	<rect x="209.8" y="84" width="21.9" height="34.2" id="el_fn6ve60qpir"/>
	<rect x="240.1" y="84.8" width="18.8" height="2.7" id="el_6nP-G2JtK_A"/>
	<rect x="240.1" y="90.2" width="21.3" height="2.7" id="el_lJO3S_L7CT3"/>
	<rect x="240.1" y="100.2" width="21.3" height="1.1" id="el_0Vi3hR49t9e"/>
	<rect x="240.1" y="102.8" width="21.3" height="1.1" id="el_o11NepkQ5Uw"/>
	<rect x="240.1" y="106" width="21.3" height="1.1" id="el_P1eZpF4zalW"/>
	<rect x="240.1" y="108.7" width="21.3" height="1.1" id="el_3id2moP-WzI"/>
</g>
</svg>