<?xml version="1.0" encoding="UTF-8"?>
<svg width="196px" height="156px" viewBox="0 0 196 156" version="1.1" xmlns="http://www.w3.org/2000/svg" xmlns:xlink="http://www.w3.org/1999/xlink">
    <!-- Generator: Sketch 56.2 (81672) - https://sketch.com -->
    <title>Group 5 Copy</title>
    <desc>Created with Sketch.</desc>
    <defs>
        <polygon id="path-1" points="0 0.043 79.9554 0.043 79.9554 80 0 80"></polygon>
    </defs>
    <g id="error-template" stroke="none" stroke-width="1" fill="none" fill-rule="evenodd">
        <g id="Group-5-Copy">
            <g id="Group">
                <g id="Group-3">
                    <g id="Group-2">
                        <g id="Group-17">
                            <path d="M8,156 L148,156 C152.418278,156 156,152.418278 156,148 L156,8 C156,3.581722 152.418278,-8.11624501e-16 148,0 L8,0 C3.581722,8.11624501e-16 -5.41083001e-16,3.581722 0,8 L0,148 C5.41083001e-16,152.418278 3.581722,156 8,156 Z" id="Fill-1" fill="#FFFFFF"></path>
                            <g id="Group-16" transform="translate(13.000000, 13.000000)" fill="#0E4160">
                                <path d="M0.695097945,3.69478973 L0.695097945,40.2327144 C0.695097945,41.8893925 2.03811164,43.2315226 3.69478973,43.2315226 L18.9645021,43.2315226 C20.6211801,43.2315226 21.9633103,44.5745363 21.9633103,46.2312144 L21.9633103,61.5009267 C21.9633103,63.1576048 23.306324,64.4997349 24.9630021,64.4997349 L40.2327144,64.4997349 C41.8893925,64.4997349 43.2324062,63.1576048 43.2324062,61.5009267 L43.2324062,24.9612349 C43.2324062,23.3054404 44.5745363,21.9633103 46.2303308,21.9633103 L61.5009267,21.9633103 C63.1567212,21.9633103 64.4997349,20.6202966 64.4997349,18.9636185 L64.4997349,3.69478973 C64.4997349,2.03811164 63.1567212,0.695097945 61.5009267,0.695097945 L3.69478973,0.695097945 C2.03811164,0.695097945 0.695097945,2.03811164 0.695097945,3.69478973" id="Fill-2"></path>
                                <path d="M67.4988966,43.2315226 L82.7694925,43.2315226 C84.425287,43.2315226 85.7683007,41.8885089 85.7683007,40.2318308 L85.7683007,24.9612349 C85.7683007,23.3054404 84.425287,21.9633103 82.7694925,21.9633103 L67.4988966,21.9633103 C65.8431021,21.9633103 64.4992048,23.3054404 64.4992048,24.9612349 L64.4992048,40.2318308 C64.4992048,41.8885089 65.8431021,43.2315226 67.4988966,43.2315226" id="Fill-4"></path>
                                <path d="M85.7680356,3.69478973 L85.7680356,18.9636185 C85.7680356,20.6202966 87.1110493,21.9633103 88.7677274,21.9633103 L104.03744,21.9633103 C105.694118,21.9633103 107.036248,20.6202966 107.036248,18.9636185 L107.036248,3.69478973 C107.036248,2.03811164 105.694118,0.695097945 104.03744,0.695097945 L88.7677274,0.695097945 C87.1110493,0.695097945 85.7680356,2.03811164 85.7680356,3.69478973" id="Fill-6"></path>
                                <path d="M107.036513,24.9615 L107.036513,61.5003082 C107.036513,63.1569863 108.379527,64.5 110.036205,64.5 L125.306801,64.5 C126.962595,64.5 128.304725,63.1569863 128.304725,61.5003082 L128.304725,24.9615 C128.304725,23.3057055 126.962595,21.9626918 125.306801,21.9626918 L110.036205,21.9626918 C108.379527,21.9626918 107.036513,23.3057055 107.036513,24.9615" id="Fill-8"></path>
                                <path d="M82.7696692,64.5 L67.4990733,64.5 C65.8432788,64.5 64.4993815,65.8430137 64.4993815,67.4996918 L64.4993815,82.7702877 C64.4993815,84.4260822 65.8432788,85.7682123 67.4990733,85.7682123 L82.7687856,85.7682123 C84.4254637,85.7682123 85.7684774,87.111226 85.7684774,88.7679041 L85.7684774,104.036733 C85.7684774,105.693411 87.1106075,107.036425 88.7672856,107.036425 L104.037882,107.036425 C105.69456,107.036425 107.037573,108.378555 107.037573,110.035233 L107.037573,125.304945 C107.037573,126.961623 108.379703,128.304637 110.036382,128.304637 L125.306977,128.304637 C126.962772,128.304637 128.304902,126.961623 128.304902,125.304945 L128.304902,88.7679041 C128.304902,87.111226 126.962772,85.7682123 125.306977,85.7682123 L88.7672856,85.7682123 C87.1106075,85.7682123 85.7684774,84.4260822 85.7684774,82.7702877 L85.7684774,67.4996918 C85.7684774,65.8430137 84.4254637,64.5 82.7696692,64.5" id="Fill-10"></path>
                                <path d="M46.2304192,107.036071 L61.5010151,107.036071 C63.1568096,107.036071 64.4998233,105.693058 64.4998233,104.036379 L64.4998233,88.7675507 C64.4998233,87.1108726 63.1568096,85.7687425 61.5010151,85.7687425 L46.2304192,85.7687425 C44.5746247,85.7687425 43.231611,87.1108726 43.231611,88.7675507 L43.231611,104.036379 C43.231611,105.693058 44.5746247,107.036071 46.2304192,107.036071" id="Fill-12"></path>
                                <path d="M18.964237,85.7684774 L3.69452466,85.7684774 C2.03784658,85.7684774 0.694832877,87.1114911 0.694832877,88.7681692 L0.694832877,125.30521 C0.694832877,126.961888 2.03784658,128.304902 3.69452466,128.304902 L40.2324493,128.304902 C41.8891274,128.304902 43.2321411,126.961888 43.2321411,125.30521 L43.2321411,110.035498 C43.2321411,108.37882 41.8891274,107.035806 40.2324493,107.035806 L24.962737,107.035806 C23.3060589,107.035806 21.9639288,105.693676 21.9639288,104.036998 L21.9639288,88.7681692 C21.9639288,87.1114911 20.6209151,85.7684774 18.964237,85.7684774" id="Fill-14"></path>
                            </g>
                        </g>
                    </g>
                </g>
            </g>
            <g id="Group-4" transform="translate(116.000000, 60.000000)">
                <g id="Group-3">
                    <g id="Clip-2"></g>
                    <path d="M39.9794,0.043 C62.0574,0.043 79.9554,17.941 79.9554,40.021 C79.9554,62.101 62.0574,80.001 39.9794,80.001 C17.8974,80.001 -0.0006,62.101 -0.0006,40.021 C-0.0006,17.941 17.8974,0.043 39.9794,0.043" id="Fill-1" fill="#2CB9AC" mask="url(#mask-2)"></path>
                </g>
                <path d="M63.2256,36.0234 L56.2096,40.1094 C56.2216,40.2694 56.2296,40.4374 56.2296,40.6034 C56.2296,44.1854 53.3396,47.1054 49.7816,47.1054 L34.1276,47.1054 L34.1276,41.9994 L18.6556,51.0034 L34.1276,60.0114 L34.1276,54.9014 L49.7816,54.9014 C53.5716,54.9014 57.1316,53.4134 59.8116,50.7154 C62.4896,48.0134 63.9636118,44.4234 63.9636118,40.6034 C63.9656,39.0214 63.7136,37.4814 63.2256,36.0234" id="Fill-4" fill="#FFFFFF"></path>
                <path d="M23.7216,39.42 C23.7216,35.838 26.6076,32.926 30.1596,32.926 L45.8476,32.926 L45.8476,38.028 L61.3016,29.03 L45.8476,20.032 L45.8476,25.132 L30.1596,25.132 C26.3736,25.132 22.8156,26.62 20.1396,29.318 C17.4636,32.018 15.9916,35.602 15.9916,39.42 C15.9916,41.008 16.2456,42.556 16.7416,44.02 L23.7416,39.942 C23.7256,39.77 23.7216,39.594 23.7216,39.42" id="Fill-6" fill="#FFFFFF"></path>
            </g>
        </g>
    </g>
</svg>