<svg id="f5edefd9-c3f1-4d57-8fba-15d4288f2e84" data-name="Layer 1" xmlns="http://www.w3.org/2000/svg" xmlns:xlink="http://www.w3.org/1999/xlink" viewBox="0 0 196.83845 176">
  <defs>
    <clipPath id="b48a328d-2a9b-43c3-9763-a3a978d3ed8c">
      <path d="M92.285,176C43.98959,176,4.83845,136.60106,4.83845,88S43.98959,0,92.285,0h16.55349V176Z" fill="#ce9912"/>
    </clipPath>
  </defs>
  <title>almost-there</title>
  <g>
    <g>
      <path d="M92.285,176C43.98959,176,4.83845,136.60106,4.83845,88S43.98959,0,92.285,0h16.55349V176Z" fill="#ce9912"/>
      <g clip-path="url(#b48a328d-2a9b-43c3-9763-a3a978d3ed8c)">
        <path d="M0,168.62187H176.33071M0,7.37813H176.33071M0,27.53359H176.33071M0,47.68906H176.33071M0,67.84453H176.33071M0,88H176.33071M0,108.15547H176.33071M0,128.31094H176.33071M0,148.46641H176.33071" fill="none" stroke="#ffe47d" stroke-miterlimit="10" stroke-width="3"/>
      </g>
    </g>
    <circle cx="108.83845" cy="88" r="88" fill="#fbcb40"/>
    <ellipse cx="108.83857" cy="88.00009" rx="75.21338" ry="73.33313" fill="none" stroke="#ffe47d" stroke-miterlimit="10" stroke-width="4" stroke-dasharray="11.66776 19.44626"/>
    <g>
      <rect x="98.20544" y="57.28382" width="21.26602" height="61.43236" transform="translate(94.10344 -51.1858) rotate(45)" fill="#ce9912"/>
      <rect x="77.49303" y="78.88612" width="58.3941" height="18.22776" transform="translate(-30.9766 101.21588) rotate(-45)" fill="#ffe47d"/>
    </g>
    <path d="M173.50511,31.4498c7.58559-4.0114,23.33334-4.03658,23.33334-4.03658s-15.747-.02519-23.33255-4.0358C169.503,15.77724,169.47784,0,169.47784,0s-.02514,15.778-4.02884,23.3782c-7.58716,4.00983-23.33177,4.035-23.33177,4.035s15.74618.02518,23.33256,4.0358c4.00291,7.601,4.028,23.37741,4.028,23.37741S169.503,39.05155,173.50511,31.4498Z" fill="#fff"/>
  </g>
</svg>
