<?xml version="1.0" encoding="UTF-8"?>
<svg width="1280px" height="800px" viewBox="0 0 1280 800" version="1.1" xmlns="http://www.w3.org/2000/svg" xmlns:xlink="http://www.w3.org/1999/xlink">
    <!-- Generator: Sketch 44.1 (41455) - http://www.bohemiancoding.com/sketch -->
    <title>Start Copy 10</title>
    <desc>Created with Sketch.</desc>
    <defs></defs>
    <g id="v2" stroke="none" stroke-width="1" fill="none" fill-rule="evenodd">
        <g id="Start-Copy-10">
            <path d="M923.189694,599.333628 C962.401856,609.994066 1003.6615,615.683594 1046.25,615.683594 C1304.6826,615.683594 1514.18359,406.182601 1514.18359,147.75 C1514.18359,-110.682601 1304.6826,-320.183594 1046.25,-320.183594 C787.817399,-320.183594 578.316406,-110.682601 578.316406,147.75 C578.316406,157.726796 578.628636,167.630668 579.243856,177.452376 C502.697671,142.830299 417.724639,123.556641 328.25,123.556641 C-8.47436112,123.556641 -281.443359,396.525639 -281.443359,733.25 C-281.443359,1069.97436 -8.47436112,1342.94336 328.25,1342.94336 C664.974361,1342.94336 937.943359,1069.97436 937.943359,733.25 C937.943359,687.243131 932.847592,642.426442 923.189679,599.333558 Z" id="Oval-4" fill="#FFFFFF"></path>
            <circle id="Oval-1" fill="#0E4160" style="mix-blend-mode: multiply;" cx="1046.25" cy="147.75" r="467.933594"></circle>
            <circle id="Oval-1" fill="#07D2BF" style="mix-blend-mode: multiply;" cx="328.25" cy="733.25" r="609.693359"></circle>
        </g>
    </g>
</svg>