<?xml version="1.0" encoding="UTF-8"?>
<svg width="258px" height="176px" viewBox="0 0 258 176" version="1.1" xmlns="http://www.w3.org/2000/svg" xmlns:xlink="http://www.w3.org/1999/xlink">
    <title>Group Copy</title>
    <g id="----↳-Promo-code" stroke="none" stroke-width="1" fill="none" fill-rule="evenodd">
        <g id="Group-Copy">
            <path d="M13.6263186,26.5434291 C6.09732432,26.5434291 0.00178623827,32.6137194 0.00178623827,40.1115286 L0.00178623827,63.6233416 C2.2077905,63.2275498 4.4718475,62.9874064 6.79395725,62.9874064 C27.8938968,62.9874064 44.9971282,80.019796 44.9971282,101.032339 C44.9971282,122.044883 27.8938968,139.077272 6.79395725,139.077272 C4.4718475,139.077272 2.2077905,138.837129 0.00178623827,138.441337 L0.00178623827,161.95315 C0.00178623827,169.446512 6.09732432,175.52125 13.6263186,175.52125 L227.307703,175.52125 C234.832232,175.52125 240.932235,169.446512 240.932235,161.95315 L240.932235,40.1115286 C240.932235,32.6137194 234.832232,26.5434291 227.307703,26.5434291 L13.6263186,26.5434291 Z" id="Fill-1" fill="#403C51"></path>
            <path d="M16.7182971,26.5434291 C9.19376836,26.5434291 3.09376468,32.6137194 3.09376468,40.1115286 L3.09376468,63.6233416 C5.30423453,63.2275498 7.56829154,62.9874064 9.88593569,62.9874064 C30.9903408,62.9874064 48.0935722,80.019796 48.0935722,101.032339 C48.0935722,122.044883 30.9903408,139.077272 9.88593569,139.077272 C7.56829154,139.077272 5.30423453,138.837129 3.09376468,138.441337 L3.09376468,161.95315 C3.09376468,169.446512 9.19376836,175.52125 16.7182971,175.52125 L227.606031,175.52125 C235.135025,175.52125 241.230563,169.446512 241.230563,161.95315 L241.230563,40.1115286 C241.230563,32.6137194 235.135025,26.5434291 227.606031,26.5434291 L16.7182971,26.5434291 Z" id="Fill-4" fill="#FFFFFF"></path>
            <polygon id="Fill-7" fill="#403C51" points="73.543895 52.7088262 83.439655 52.7088262 83.439655 42.8585017 73.543895 42.8585017"></polygon>
            <polygon id="Fill-9" fill="#403C51" points="73.543895 79.4092093 83.439655 79.4092093 83.439655 69.5544377 73.543895 69.5544377"></polygon>
            <polygon id="Fill-10" fill="#403C51" points="73.543895 106.109592 83.439655 106.109592 83.439655 96.2548208 73.543895 96.2548208"></polygon>
            <polygon id="Fill-11" fill="#403C51" points="73.543895 132.809976 83.439655 132.809976 83.439655 122.955204 73.543895 122.955204"></polygon>
            <polygon id="Fill-12" fill="#403C51" points="73.543895 159.505912 83.439655 159.505912 83.439655 149.655587 73.543895 149.655587"></polygon>
            <path d="M195.328716,122.820457 C195.328716,119.084894 192.689549,116.461105 188.942914,116.461105 C185.285591,116.461105 182.557112,119.084894 182.557112,122.820457 C182.557112,126.462631 185.285591,129.179809 188.942914,129.179809 C192.689549,129.179809 195.328716,126.462631 195.328716,122.820457 L195.328716,122.820457 Z M169.620282,122.820457 C169.620282,111.809439 177.676216,104.009228 188.942914,104.009228 C200.209612,104.009228 208.261081,111.809439 208.261081,122.820457 C208.261081,133.840368 200.209612,141.631686 188.942914,141.631686 C177.676216,141.631686 169.620282,133.840368 169.620282,122.820457 L169.620282,122.820457 Z M144.809432,79.2611209 C144.809432,75.5255577 142.156868,72.8839808 138.405768,72.8839808 C134.752911,72.8839808 132.002104,75.5255577 132.002104,79.2611209 C132.002104,82.9210835 134.752911,85.6693907 138.405768,85.6693907 C142.156868,85.6693907 144.809432,82.9210835 144.809432,79.2611209 L144.809432,79.2611209 Z M178.042395,62.9625027 L195.145627,62.9625027 L147.52898,141.618345 L130.43468,141.618345 L178.042395,62.9625027 Z M119.069739,79.2611209 C119.069739,68.2501035 127.125673,60.4321033 138.405768,60.4321033 C149.784106,60.4321033 157.7284,68.2501035 157.7284,79.2611209 C157.7284,90.2988209 149.672466,98.1168212 138.405768,98.1168212 C127.125673,98.1168212 119.069739,90.2988209 119.069739,79.2611209 L119.069739,79.2611209 Z" id="Fill-13" fill="#403C51"></path>
            <g id="Group-5" transform="translate(208.592593, 0.000000)">
                <circle id="Oval-5" fill="#CB6560" fill-rule="nonzero" cx="23.777394" cy="23.777394" r="23.777394"></circle>
                <path d="M20.5249867,28.6008087 L20.5249867,27.9544028 C20.5249867,24.0946522 22.4363496,22.7121667 24.0236604,21.5623597 C25.15988,20.7563061 26.1119948,20.0667616 26.1119948,18.691749 C26.1119948,17.247442 25.0270662,16.3384664 23.7393503,16.3384664 C22.4373681,16.3384664 21.2206446,17.2083794 21.2206446,18.8038426 L15.2854676,18.8038426 C15.2854676,13.7311055 19.1217803,11.0395043 23.7590516,11.0395043 C28.5845038,11.0395043 32.2221053,14.0018282 32.2221053,18.634004 C32.2221053,21.8558411 30.4228359,23.2474981 28.8222778,24.4937733 C27.5508668,25.4737418 26.4299325,26.3375403 26.4299325,27.9544033 L26.4299325,28.6008087 L20.5249867,28.6008087 Z M20.3891159,36.1756065 L20.3891159,30.3063269 L26.5175692,30.3063269 L26.5175692,36.1756065 L20.3891159,36.1756065 Z" id="?" fill="#FFFFFF"></path>
            </g>
        </g>
    </g>
</svg>