<svg id="b1bea385-dfc0-4816-b1a5-4d5d0b09fcba" data-name="Layer 1" xmlns="http://www.w3.org/2000/svg" xmlns:xlink="http://www.w3.org/1999/xlink" viewBox="0 0 223.99998 176.02441">
  <defs>
    <clipPath id="bfae19ab-5a80-432b-8695-1b4b5fa1f477">
      <path d="M511.19824-34.3114c5.1713,8.457-2.5153,18.3236-14.27751,18.3236H312.75728c-11.76227,0-19.45315-9.86655-14.27758-18.3236l19.49969-31.85469,72.58628-118.577c2.74376-4.48311,7.95906-6.85091,13.31356-7.10341a77.79464,77.79464,0,0,1,9.4581,0Z" fill="none" clip-rule="evenodd"/>
    </clipPath>
    <clipPath id="fca13540-2137-4fbe-a87d-040ab070f1f4">
      <path d="M519.19824-34.32377c5.1713,8.46276-2.5153,18.336-14.27751,18.336H320.75728c-11.76227,0-19.45315-9.87321-14.27758-18.336Q319.4795-55.57457,325.97939-66.2q24.19544-39.55235,72.58625-118.657c5.8151-9.5077,22.73159-9.5077,28.54669,0Z" fill="none" clip-rule="evenodd"/>
    </clipPath>
    <clipPath id="b46c3030-8289-46e1-b477-1c009a626b37">
      <path d="M412.70093-69.9878a11.159,11.159,0,0,1,11.1372,11.06558,11.0479,11.0479,0,0,1-11.1372,10.93442,10.987,10.987,0,0,1-10.8628-10.93442,11.10173,11.10173,0,0,1,10.8628-11.06558m-4.11879-13.77493-4.744-35.36577v-14.45079a2.44622,2.44622,0,0,1,2.3137-2.40851h13.3757a2.44578,2.44578,0,0,1,2.3106,2.40851v14.19809l-4.744,35.61847a2.50012,2.50012,0,0,1-2.3074,2.02784h-3.894a2.50647,2.50647,0,0,1-2.3106-2.02784" fill="none" clip-rule="evenodd"/>
    </clipPath>
  </defs>
  <title>error-signal-amazonite</title>
  <g>
    <path d="M214.36011,157.68844c5.17129,8.46276-2.51531,18.336-14.27751,18.336H15.91915c-11.76227,0-19.45316-9.87321-14.27759-18.336q12.99981-21.2508,19.4997-31.8762Q45.33668,86.25991,93.7275,7.15521C96.351,2.86574,101.23416.51149,106.338.09247c1.89162-.1553,9.66284-.068,9.66284-.068a36.826,36.826,0,0,1,6.27333,7.13078Z" fill="#0e4160" fill-rule="evenodd"/>
    <path d="M222.36012,157.68844c5.1713,8.46276-2.5153,18.336-14.27751,18.336H23.91917c-11.76227,0-19.45316-9.87321-14.27759-18.336q12.99981-21.2508,19.4997-31.8762Q53.3367,86.25991,101.72752,7.15521c5.8151-9.50771,22.73159-9.50771,28.5467,0Z" fill="#2cb9ac" fill-rule="evenodd"/>
    <path d="M115.8628,122.449A11.159,11.159,0,0,1,127,133.51455,11.0002,11.0002,0,1,1,115.8628,122.449M111.744,108.674,107,73.30827V58.85747a2.44622,2.44622,0,0,1,2.3137-2.4085h13.3757A2.44579,2.44579,0,0,1,125,58.85747v14.1981L120.256,108.674a2.50014,2.50014,0,0,1-2.3074,2.02784h-3.894a2.5065,2.5065,0,0,1-2.3106-2.02784" fill="#fbcb40" fill-rule="evenodd"/>
  </g>
</svg>
