<svg xmlns="http://www.w3.org/2000/svg" width="224" height="176" viewBox="0 0 224 176">
  <g fill="none" fill-rule="evenodd">
    <g transform="translate(.697)">
      <path fill="#403C51" d="M213.02702,157.676402 C218.166169,166.133447 210.527352,176 198.838226,176 L15.8201502,176 C4.131024,176 -3.51202913,166.133447 1.63135585,157.676402 C10.2439892,143.518754 16.7034643,132.900519 21.0097809,125.821695 C37.0397475,99.4712623 61.0846974,59.9456131 93.1446306,7.24474755 C95.8713379,2.76162727 101.054218,0.393817856 106.375435,0.141319294 C110.346365,-0.0471064313 113.479443,-0.0471064313 115.77467,0.141319294 L213.02702,157.676402 Z"/>
      <path fill="#CB6560" d="M220.977268,157.664034 C226.116416,166.126788 218.4776,176 206.788474,176 L23.7703977,176 C12.0812716,176 4.43821845,166.126788 9.58160342,157.664034 C18.1942368,143.496831 24.6537118,132.871428 28.9600285,125.787826 C44.9899951,99.4196078 69.034945,59.8672801 101.094878,7.13084312 C106.873772,-2.37694771 123.685099,-2.37694771 129.463993,7.13084312 L220.977268,157.664034 Z"/>
    </g>
    <path fill="#FFDA40" d="M103.72773,109.875 L103.72773,53 L125.75615,53 L125.75615,109.875 L103.72773,109.875 Z M103.239111,144 L103.239111,122.161265 L126.136889,122.161265 L126.136889,144 L103.239111,144 Z"/>
  </g>
</svg>