<svg id="e2a1f805-85d3-4fef-9d47-1df2fb6310ad" data-name="Layer 1" xmlns="http://www.w3.org/2000/svg" viewBox="0 0 21.5 21.5">
  <title>Artboard 107</title>
  <path d="M10.75,0A10.75,10.75,0,1,0,21.5,10.75,10.762,10.762,0,0,0,10.75,0ZM1.5,10.75a9.21129,9.21129,0,0,1,.39941-2.68066c1.1167-.2334,2.23633-.41748,3.35718-.562a20.61813,20.61813,0,0,0,0,6.48536c-1.12085-.14454-2.24048-.32862-3.35718-.562A9.21129,9.21129,0,0,1,1.5,10.75Zm5,0a18.54217,18.54217,0,0,1,.30908-3.416Q8.40357,7.18677,10,7.15918v7.18164Q8.40369,14.313,6.80908,14.166A18.54217,18.54217,0,0,1,6.5,10.75Zm5-9.08691c1.10278.46972,2.16113,1.95019,2.82031,4.13623Q12.91114,5.68505,11.5,5.65918Zm-1.5,0V5.65918q-1.411.02343-2.82031.14014C7.83887,3.61328,8.89722,2.13281,10,1.66309Zm0,14.17773v3.99609c-1.10278-.46972-2.16113-1.95019-2.82031-4.13623Q8.58922,15.815,10,15.84082Zm1.5,3.99609V15.84082q1.41064-.02343,2.82031-.14014C13.66113,17.88672,12.60278,19.36719,11.5,19.83691Zm0-5.49609V7.15918q1.59631.02783,3.19092.1748A18.54217,18.54217,0,0,1,15,10.75a18.54217,18.54217,0,0,1-.30908,3.416Q13.0968,14.31323,11.5,14.34082Zm4.74341-6.8335c1.12085.14454,2.24048.32862,3.35718.562a9.1954,9.1954,0,0,1,0,5.36132c-1.1167.2334-2.23633.41748-3.35718.562A20.139,20.139,0,0,0,16.5,10.75,20.139,20.139,0,0,0,16.24341,7.50732Zm2.6709-1.0957c-1.00074-.18652-2.00244-.3457-3.00611-.46338a11.75253,11.75253,0,0,0-1.64428-3.751A9.30352,9.30352,0,0,1,18.91431,6.41162ZM7.23608,2.19727a11.74711,11.74711,0,0,0-1.644,3.751c-1.00366.11768-2.00561.27686-3.00635.46338A9.30352,9.30352,0,0,1,7.23608,2.19727ZM2.58569,15.08838c1.00074.186,2.00269.3457,3.00635.46338a11.74711,11.74711,0,0,0,1.644,3.751A9.30352,9.30352,0,0,1,2.58569,15.08838Zm11.67823,4.21435a11.75253,11.75253,0,0,0,1.64428-3.751c1.00367-.11768,2.00537-.27735,3.00611-.46338A9.30352,9.30352,0,0,1,14.26392,19.30273Z" fill="#403c51"/>
</svg>
