<svg xmlns="http://www.w3.org/2000/svg" xmlns:xlink="http://www.w3.org/1999/xlink" width="304" height="310" viewBox="0 0 304 310">
  <defs>
    <path id="insert-bill-a" d="M0,68 C27.3341071,56.1981331 45.0007738,44.6981331 53,33.5 C58.2911467,26.092913 61.862968,18.0931088 63.7154639,9.50058761 L63.7154665,9.50058819 C65.1122054,3.02202688 71.4963975,-1.0976042 77.9749588,0.299134643 C78.2627532,0.36118137 78.5481667,0.43379816 78.8306199,0.516837596 C86.5205439,2.77762586 93.6840364,4.19165507 100.321097,4.75892525 C110.730347,5.6486047 120.623314,4.72896295 130,2 C126.839432,16.9279687 111.74463,31.5953164 84.7155934,46.0020431 C57.6865566,60.4087698 29.4480255,67.7414221 0,68 Z"/>
    <filter id="insert-bill-b" width="122.3%" height="142.7%" x="-12.7%" y="-24.3%" filterUnits="objectBoundingBox">
      <feOffset dx="-2" dy="-2" in="SourceAlpha" result="shadowOffsetOuter1"/>
      <feGaussianBlur in="shadowOffsetOuter1" result="shadowBlurOuter1" stdDeviation="4.5"/>
      <feColorMatrix in="shadowBlurOuter1" values="0 0 0 0 0   0 0 0 0 0   0 0 0 0 0  0 0 0 0.115149457 0"/>
    </filter>
  </defs>
  <g fill="none" fill-rule="evenodd">
    <rect width="304" height="83" fill="#34D9C8" rx="10"/>
    <rect width="262" height="51" x="21" y="17" fill="#2BA699" rx="10"/>
    <rect width="228" height="13" x="38" y="33" fill="#196861"/>
    <g transform="translate(42 40)">
      <path fill="#FFF" d="M0,0 L220,0 L220,197 L133,255 L91,263 L10,263 C4.4771525,263 6.76353751e-16,258.522847 0,253 L0,0 Z"/>
      <path fill="#D8D8D8" d="M110.5,63 C145.293939,63 173.5,34.7939392 173.5,0 L47.5,0 C47.5,34.7939392 75.7060608,63 110.5,63 Z"/>
    </g>
    <path fill="#D8D8D8" d="M235.564563,40 L235.564563,234.78269 C212.49753,234.78269 193.793336,253.485419 193.793336,276.550643 L110.221403,276.550643 C110.221403,253.485419 91.5172089,234.78269 68.4501764,234.78269 L68.4501764,40 L58,40 L58,277 C58,282.522847 62.4771525,287 68,287 L193.793336,287 L246,252 L246,40 L235.564563,40 Z"/>
    <polygon fill="#FFF" points="133 84.183 144.263 84.183 144.263 111 159.279 111 159.279 84.183 170.55 84.183 151.779 52"/>
    <rect width="220" height="6" x="42" y="40" fill="#196861" opacity=".2"/>
    <path stroke="#979797"/>
    <g transform="translate(132 235)">
      <mask id="insert-bill-c" fill="#fff">
        <use xlink:href="#insert-bill-a"/>
      </mask>
      <use fill="#000" filter="url(#insert-bill-b)" xlink:href="#insert-bill-a"/>
      <use fill="#FFF" xlink:href="#insert-bill-a"/>
      <path fill="#D8D8D8" fill-opacity=".7" d="M162.007407,164.701357 C162.007407,164.701357 141,175.743023 130,168.743023 C124.094399,164.984914 115.427733,160.984914 104,156.743023 C102,147.743023 91,137.743023 76.1541031,141.743023 C64.7180344,131.076357 57,124.40969 53,121.743023 C47,117.743023 53,107.762548 53,104.743023 C53,80.6517054 62.1853474,48.1538659 80.5560422,7.24950495 L73.6666667,7.24950495 C-4.77777778,71.5785173 -28,106.40969 4,111.743023 C34.9609555,116.903183 59.0570748,135.893271 76.2883579,168.713288 L76.2883573,168.713289 C77.315977,170.670572 79.5069471,171.72072 81.6763723,171.295803 C101.865517,167.34144 117.306726,168.823846 128,175.743023 C139.333333,183.076357 150.669136,183.395801 162.007407,176.701357 C161.891931,174.213327 161.891931,172.667647 162.007407,172.06432 C162.475955,169.616307 162.007407,164.701357 162.007407,164.701357 Z" mask="url(#insert-bill-c)" transform="matrix(1 0 0 -1 0 188.743)"/>
    </g>
  </g>
</svg>
