<svg xmlns="http://www.w3.org/2000/svg" width="172" height="176" viewBox="0 0 172 176">
  <g fill="none" fill-rule="evenodd">
    <g transform="translate(0 20)">
      <path fill="#FFF" d="M8,156 L148,156 C152.418278,156 156,152.418278 156,148 L156,8 C156,3.581722 152.418278,-8.11624501e-16 148,0 L8,0 C3.581722,8.11624501e-16 -5.41083001e-16,3.581722 0,8 L0,148 C5.41083001e-16,152.418278 3.581722,156 8,156 Z"/>
      <g fill="#0E4160" transform="translate(13 14)">
        <path d="M1 2.99969178L1 39.5376164C1 41.1942945 2.3430137 42.5364247 3.99969178 42.5364247L19.2694041 42.5364247C20.9260822 42.5364247 22.2682123 43.8794384 22.2682123 45.5361164L22.2682123 60.8058288C22.2682123 62.4625068 23.611226 63.804637 25.2679041 63.804637L40.5376164 63.804637C42.1942945 63.804637 43.5373082 62.4625068 43.5373082 60.8058288L43.5373082 24.266137C43.5373082 22.6103425 44.8794384 21.2682123 46.5352329 21.2682123L61.8058288 21.2682123C63.4616233 21.2682123 64.804637 19.9251986 64.804637 18.2685205L64.804637 2.99969178C64.804637 1.3430137 63.4616233 0 61.8058288 0L3.99969178 0C2.3430137 0 1 1.3430137 1 2.99969178M67.4988966 42.2315226L82.7694925 42.2315226C84.425287 42.2315226 85.7683007 40.8885089 85.7683007 39.2318308L85.7683007 23.9612349C85.7683007 22.3054404 84.425287 20.9633103 82.7694925 20.9633103L67.4988966 20.9633103C65.8431021 20.9633103 64.4992048 22.3054404 64.4992048 23.9612349L64.4992048 39.2318308C64.4992048 40.8885089 65.8431021 42.2315226 67.4988966 42.2315226M82.7696692 63.5L67.4990733 63.5C65.8432788 63.5 64.4993815 64.8430137 64.4993815 66.4996918L64.4993815 81.7702877C64.4993815 83.4260822 65.8432788 84.7682123 67.4990733 84.7682123L82.7687856 84.7682123C84.4254637 84.7682123 85.7684774 86.111226 85.7684774 87.7679041L85.7684774 103.036733C85.7684774 104.693411 87.1106075 106.036425 88.7672856 106.036425L104.037882 106.036425C105.69456 106.036425 107.037573 107.378555 107.037573 109.035233L107.037573 124.304945C107.037573 125.961623 108.379703 127.304637 110.036382 127.304637L125.306977 127.304637C126.962772 127.304637 128.304902 125.961623 128.304902 124.304945L128.304902 87.7679041C128.304902 86.111226 126.962772 84.7682123 125.306977 84.7682123L88.7672856 84.7682123C87.1106075 84.7682123 85.7684774 83.4260822 85.7684774 81.7702877L85.7684774 66.4996918C85.7684774 64.8430137 84.4254637 63.5 82.7696692 63.5M46.2304192 106.036071L61.5010151 106.036071C63.1568096 106.036071 64.4998233 104.693058 64.4998233 103.036379L64.4998233 87.7675507C64.4998233 86.1108726 63.1568096 84.7687425 61.5010151 84.7687425L46.2304192 84.7687425C44.5746247 84.7687425 43.231611 86.1108726 43.231611 87.7675507L43.231611 103.036379C43.231611 104.693058 44.5746247 106.036071 46.2304192 106.036071M18.964237 84.7684774L3.69452466 84.7684774C2.03784658 84.7684774.694832877 86.1114911.694832877 87.7681692L.694832877 124.30521C.694832877 125.961888 2.03784658 127.304902 3.69452466 127.304902L40.2324493 127.304902C41.8891274 127.304902 43.2321411 125.961888 43.2321411 124.30521L43.2321411 109.035498C43.2321411 107.37882 41.8891274 106.035806 40.2324493 106.035806L24.962737 106.035806C23.3060589 106.035806 21.9639288 104.693676 21.9639288 103.036998L21.9639288 87.7681692C21.9639288 86.1114911 20.6209151 84.7684774 18.964237 84.7684774"/>
        <path d="M86,39.5376164 C86,40.6420685 86,47.7314726 86,60.8058288 C86,62.4625068 87.3430137,63.804637 88.9996918,63.804637 L104.269404,63.804637 C105.926082,63.804637 107.269096,62.4625068 107.269096,60.8058288 L107.269096,24.266137 C107.269096,22.6103425 108.611226,21.2682123 110.267021,21.2682123 L125.537616,21.2682123 C127.193411,21.2682123 128.536425,19.9251986 128.536425,18.2685205 L128.536425,2.99969178 C128.536425,1.3430137 127.193411,0 125.537616,0 L88.9996918,9.09494702e-13 C87.3430137,9.09494702e-13 86,1.3430137 86,2.99969178 L86,39.5376164 Z" transform="matrix(-1 0 0 1 214.536 0)"/>
      </g>
    </g>
    <g fill-rule="nonzero" transform="translate(116)">
      <circle cx="28" cy="28" r="28" fill="#FE7F78"/>
      <path fill="#FFF" d="M24.1554731,28 L16,19.8445269 L19.8445269,16 L28,24.1554731 L36.1554731,16 L40,19.8445269 L31.8445269,28 L40,36.1554731 L36.1554731,40 L28,31.8445269 L19.8445269,40 L16,36.1554731 L24.1554731,28 Z"/>
    </g>
  </g>
</svg>