<svg xmlns="http://www.w3.org/2000/svg" width="136" height="175" viewBox="0 0 136 175">
    <g fill="#0E4160" fill-rule="evenodd">
        <path d="M52.026 145.001c-2.077 9.468-7.226 14.534-11.246 17.14 2.453 2.918 7.185 10.365 8.673 12.786H61.43l-8.854-11.784c8.915-2.644 14.156-10.568 15.034-16.78l-.783-.125c-5.317-.862-10.355-1.677-14.8-1.237"/>
        <path d="M127.039 93.435s-8.438-2.708-15.516-4.348c0 0-2.237-14.437-5.464-29.807 0 0 1.86-.167 3.16 4.675l4.873 23.187s8.63 2.042 15.356 4.653l-2.41 1.64zM108.66 43.577l1.941-2.184c3.78.534 5.809 1.64 5.809 1.64l-.405.616.75 6.026c-1.093.04-2.764.949-2.764.949l-1.26-.81v-4.17c-3.767-.622-4.1-1.213-4.1-1.213l.029-.854zm-19.974 89.685c-8.341 1.533-18.58-.474-18.58-.474l.371-1.65s12.478 1.445 19.424-.754c-.5 1.216-.64 1.596-1.215 2.878zm-23.248-27.539c-5.777 4.342-11.605 8.333-15.563 11.5l-.632 11.317-10.33 6.416-1.724-1.066c.393-3.327.902-5.774.902-5.774l1.445-1.087c-.324 2.11-.481 5.105-.481 5.105l7.892-5.115c.317-5.432.936-10.893.936-10.893 1.75-1.64 14.329-10.575 23.392-16.734 0 0 .063 1.892-5.837 6.331zm69.78-12.077s-2.277-8.826-4.84-19.546c-2.555-10.717-3.695-17.073-7.773-19.731 0 0 .851-2.532.723-5.058l-1.96-2.153 2.088-2.658s-.64-3.537-1.611-5.756c-1.656-1.332-8.093-3.22-13.267-3.958l2.626-2.373s7.518.745 13.142 3.94c.012-.53.097-5.177-1.267-11.835 0 0-2.214-3.733-4.175-5.376 0 0-1.407-7.201-1.897-10.434-.506-3.353-.192-5.445-.192-5.445-.217-.572-.964-1.31-2.17-1.939l-1.559 2.473-1.216-3.45c-1.457-.327-3.204-.452-5.22-.248l-1.34 3.312-2.186-2.63-.537.144c-1.674.5-3.022 1.191-4.125 1.948l-.521 3.614-1.744-1.606c-1.709 1.948-2.161 3.755-2.161 3.755.571.832 1.15 2.724 1.341 8.989.192 6.513.255 12.08.255 12.08s-1.58 2.152-1.518 5.882c.057 3.732 0 7.15 0 7.15s1.898 1.33 2.092 3.036c.183 1.709.145 6.827-2.41 10.318-2.971 4.043-6.882 6.582-8 11.58-1.081 4.843 1.306 8.478 4.328 9.574-4.024-.295-7.995-3.937-7.624-9.969.314-5.238 3.638-8.618 6.296-12.982-2.617-4.27-5.935-9.549-8.684-14.167-5.105-8.59-12.217-10.972-22.66-9.197-10.32 1.76-16.584 10.35-22.359 19.31C29.324 59.199 0 106.475 0 106.475h6.864l20.885-27.9 2.341-.031-20.351 27.931h7.6L38.945 81.87l2.422-.01-20.96 24.614h7.225L49.28 84.905l2.51.022-20.876 21.547H38L59.084 87.79l2.61.048-20.184 18.637h6.99L68.467 89.83l2.743-.632a12866.733 12866.733 0 0 0-19.569 14.955c-8.008 6.133-14.143 10.322-19.823 18.076-5.68 7.75-4.59 17.89-4.848 24.412-.254 6.526-6.39 8.974-9.292 7.685-3.613 10.589-8.913 18.465-8.913 18.465.437.698.635 1.446.716 2.137h16.063l-4.351-3.934 4.804-8.206c6.713 1.005 21.004-2.596 23.8-20.847 10.163-2.12 23 3.38 33.756 2.177-1.7 3.419-6.405 15.176-6.286 30.81h20.279l-3.604-8.86-3.116-2.501c2.978-12.829 7.976-18.537 12.52-27.486a79.52 79.52 0 0 0 1.91-4.034l1.758.396s-1.15 4.983-4.89 11.92c0 0 5.205.641 9.38-.245 0 0-2.658 2.093-5.247 2.718 0 0-4.486 10.525-4.483 23.112l.088 4.98h17.59l-1.624-5.26-3.16-2.532c-.126-8.662 3.766-18.374 10.213-28.139 6.452-9.774 11.567-24.573 6.54-43.163l3.799-2.187z"/>
    </g>
</svg>
