<svg xmlns="http://www.w3.org/2000/svg" width="560" height="140" viewBox="0 0 560 140">
    <g fill="#0E4160" fill-rule="evenodd">
        <path d="M41.384 115.342c-1.652 7.531-5.747 11.56-8.945 13.635 1.95 2.32 5.715 8.243 6.899 10.17h9.527l-7.043-9.374c7.091-2.103 11.26-8.407 11.958-13.348l-.622-.1c-4.23-.685-8.237-1.333-11.774-.983"/>
        <path d="M101.054 74.324s-6.713-2.155-12.343-3.46c0 0-1.78-11.483-4.346-23.71 0 0 1.48-.132 2.514 3.72l3.876 18.444s6.865 1.624 12.215 3.701l-1.916 1.305zm-14.62-39.66l1.545-1.738c3.006.425 4.62 1.305 4.62 1.305l-.322.49.597 4.793c-.87.033-2.199.755-2.199.755l-1.002-.645v-3.316c-2.996-.495-3.26-.965-3.26-.965l.022-.68zm-15.888 71.34c-6.635 1.22-14.779-.377-14.779-.377l.295-1.313s9.926 1.15 15.451-.6c-.397.968-.51 1.27-.967 2.29zM52.054 84.098c-4.596 3.454-9.232 6.628-12.38 9.147l-.503 9.003-8.216 5.103-1.372-.847c.312-2.647.717-4.594.717-4.594l1.15-.865c-.258 1.68-.383 4.062-.383 4.062l6.278-4.069c.252-4.321.744-8.665.744-8.665 1.392-1.304 11.398-8.412 18.608-13.31 0 0 .05 1.504-4.643 5.035zm55.507-9.607s-1.812-7.02-3.85-15.548c-2.033-8.525-2.94-13.58-6.183-15.695 0 0 .677-2.014.574-4.024l-1.559-1.712 1.662-2.114s-.51-2.814-1.282-4.579c-1.317-1.06-6.438-2.561-10.553-3.149l2.089-1.887s5.98.593 10.453 3.134c.01-.422.077-4.118-1.007-9.414 0 0-1.762-2.97-3.321-4.276 0 0-1.12-5.729-1.51-8.3-.402-2.667-.152-4.331-.152-4.331-.172-.455-.767-1.043-1.727-1.543l-1.24 1.967L88.99.276c-1.16-.26-2.55-.36-4.154-.197l-1.064 2.634L82.03.621l-.427.115a11.584 11.584 0 0 0-3.281 1.55l-.415 2.874-1.387-1.277c-1.36 1.55-1.72 2.986-1.72 2.986.456.663.916 2.167 1.068 7.15.152 5.181.202 9.61.202 9.61s-1.257 1.712-1.207 4.679c.045 2.969 0 5.688 0 5.688s1.51 1.057 1.665 2.414c.145 1.36.115 5.431-1.917 8.208-2.364 3.216-5.475 5.236-6.365 9.212-.86 3.851 1.04 6.743 3.444 7.615-3.202-.235-6.36-3.131-6.065-7.93.25-4.166 2.893-6.855 5.008-10.327-2.082-3.396-4.721-7.595-6.908-11.269-4.06-6.833-9.718-8.727-18.025-7.315-8.209 1.4-13.192 8.232-17.785 15.36C23.326 47.09 0 84.695 0 84.695h5.46l16.613-22.193 1.862-.025L7.747 84.695h6.045L30.98 65.124l1.927-.008-16.674 19.58h5.748l17.218-17.158 1.997.018-16.606 17.14h5.638l16.77-14.864 2.077.038-16.056 14.825h5.56l15.884-13.24 2.181-.503c-4.41 3.364-11.428 8.725-15.566 11.897-6.37 4.878-11.25 8.21-15.768 14.378-4.519 6.165-3.651 14.23-3.856 19.419-.203 5.19-5.083 7.138-7.392 6.113-2.874 8.422-7.09 14.688-7.09 14.688.348.555.505 1.15.57 1.7h12.777l-3.46-3.13 3.82-6.528c5.34.8 16.708-2.064 18.932-16.582 8.084-1.687 18.295 2.689 26.852 1.732-1.352 2.719-5.096 12.071-5 24.507h16.13l-2.866-7.048-2.48-1.989c2.37-10.204 6.346-14.745 9.96-21.863a63.254 63.254 0 0 0 1.519-3.21l1.4.316s-.915 3.963-3.892 9.482c0 0 4.141.51 7.462-.195 0 0-2.114 1.664-4.173 2.162 0 0-3.569 8.372-3.566 18.384l.07 3.961h13.992l-1.292-4.183-2.514-2.015c-.1-6.89 2.996-14.615 8.124-22.383 5.133-7.775 9.201-19.546 5.203-34.334l3.021-1.74zM141.707 6.281c0-2.354.092-4.538.486-4.847.49-.361 3.406-.58 6.104-.58 2.835 0 5.489.269 5.976.58.486.351.53 2.224.53 4.847v42.555c0 .8.178 1.958.401 2.182.265.262 1.46.399 2.208.399h20.177c1.324 0 3.532 0 3.805.356.217.356.435 3.382.435 5.61 0 2.223-.218 4.986-.435 5.342-.273.359-1.728.446-3.805.446h-29.91c-2.122 0-4.556-.401-5.085-.894-.53-.486-.887-3.024-.887-5.119V6.281zM225.573 32.521c1.695 0 3.393-.269 3.525-.446.133-.132.4-1.872.4-3.697 0-6.995-.804-15.014-2.005-16.126-.891-.8-4.816-1.785-10.258-1.785-5.58 0-9.371 1.07-10.217 1.785-1.251 1.022-2.005 9.131-2.005 16.081 0 1.96.267 3.61.4 3.742.132.135 1.827.446 3.52.446h16.64zm-33.499.444c-.05-16.26 2.14-27.8 3.705-29.532C197.019 2.049 204.47 0 216.966 0c12.979 0 20.518 2.139 21.813 3.517 1.516 1.56 3.66 13.277 3.66 29.448v24.769c0 2.363-.092 4.544-.492 4.858-.402.312-3.258.579-6.024.579-2.716 0-5.437-.267-5.841-.579-.492-.356-.584-2.183-.584-4.858V46.775c0-1.697-.267-3.342-.4-3.52-.132-.13-1.83-.398-3.525-.398h-16.64c-1.693 0-3.388.22-3.52.399-.133.177-.4 1.874-.4 3.52v10.958c0 2.316-.09 4.544-.542 4.858-.397.312-3.208.579-5.976.579-2.716 0-5.485-.267-5.89-.579-.446-.314-.531-2.228-.531-4.858V32.965zM257.68 5.845c.267-2.763.85-4.144 1.207-4.413.573-.444 3.743-.578 5.795-.578 2.628 0 5.386.219 5.967.62.446.312 1.027 1.34 2.227 3.608l14.395 29.23c.264.442.619.487.89 0L302.467 5.13c1.2-2.226 1.828-3.293 2.272-3.61.623-.446 3.117-.665 5.523-.665 2.1 0 4.95.177 5.57.578.267.22.89 1.381 1.205 4.497l5.438 53.062c.222 1.825.31 3.029.043 3.388-.312.352-2.541 1.022-6.24 1.426-1.827.175-3.298.22-4.365.22-.89 0-1.467-.135-1.651-.31-.267-.269-.489-1.605-.666-3.919l-3.077-37.515c-.04-.578-.623-.71-.89-.18l-12.832 26.424c-.222.354-.845 1.469-1.115 1.6-.314.225-2.852.447-4.723.447-1.92 0-3.922-.222-4.366-.491-.27-.132-.805-.935-1.16-1.606l-12.21-25.927c-.265-.536-.798-.399-.846.09l-3.428 37.335c-.182 2.002-.404 3.52-.713 3.832-.138.175-.85.22-1.873.22-.982 0-2.277-.085-3.7-.22-2.404-.267-5.397-.982-5.796-1.426-.306-.359-.177-2.047 0-3.922l4.813-52.612zM366.428 32.521c1.697 0 3.387-.269 3.525-.446.132-.132.399-1.872.399-3.697 0-6.995-.804-15.014-2.005-16.126-.89-.8-4.815-1.785-10.26-1.785-5.576 0-9.37 1.07-10.22 1.785-1.247 1.022-2.004 9.131-2.004 16.081 0 1.96.272 3.61.405 3.742.132.135 1.827.446 3.52.446h16.64zm-33.5.444c-.045-16.26 2.141-27.8 3.702-29.532C337.875 2.049 345.327 0 357.818 0c12.98 0 20.52 2.139 21.813 3.517 1.517 1.56 3.662 13.277 3.662 29.448v24.769c0 2.363-.088 4.544-.492 4.858-.402.312-3.258.579-6.024.579-2.72 0-5.442-.267-5.841-.579-.494-.356-.584-2.183-.584-4.858V46.775c0-1.697-.267-3.342-.4-3.52-.137-.13-1.827-.398-3.524-.398h-16.64c-1.693 0-3.388.22-3.52.399-.133.177-.405 1.874-.405 3.52v10.958c0 2.316-.087 4.544-.536 4.858-.4.312-3.208.579-5.979.579-2.718 0-5.484-.267-5.889-.579-.444-.314-.531-2.228-.531-4.858V32.965zM396.555 55.462c.442-2.358 1.161-4.766 1.563-4.856.496-.14 10.248 1.871 20.08 1.871 5.752 0 10.426-.533 11.283-1.292.72-.666 1.076-3.211 1.076-5.753 0-2.184-.266-3.967-.897-4.591-.898-.893-8.895-2.63-16.218-4.77-9.43-2.675-13.66-4.282-14.738-5.527-1.164-1.385-2.288-7.715-2.288-13.336 0-6.42.99-12.26 2.157-13.555C399.783 2.315 406.435 0 418.832 0c12.985 0 20.666 2.63 20.982 3.119.179.314-.047 2.764-.495 4.683-.447 2.093-1.345 4.992-2.067 4.992-.626.048-9.116-2.093-16.89-2.093-6.25 0-10.513.888-11.232 1.515-.583.531-.9 2.45-.9 5.618 0 2.186.221 3.743.855 4.282.942.753 3.954 1.472 13.123 3.745 8.528 2.093 16.749 4.86 17.918 6.108 1.305 1.472 2.07 9.543 2.07 13.685 0 6.152-1.348 13.692-2.65 14.985-.943.935-9.255 3.385-22.55 3.385-10.385 0-20.441-2.497-20.763-2.899-.264-.312-.134-3.208.322-5.663M452.038 55.462c.45-2.358 1.169-4.766 1.576-4.856.488-.14 10.24 1.871 20.077 1.871 5.75 0 10.426-.533 11.278-1.292.72-.666 1.076-3.211 1.076-5.753 0-2.184-.269-3.967-.897-4.591-.898-.893-8.895-2.63-16.213-4.77-9.436-2.675-13.66-4.282-14.743-5.527-1.164-1.385-2.288-7.715-2.288-13.336 0-6.42.986-12.26 2.152-13.555C455.276 2.315 461.923 0 474.32 0c12.985 0 20.67 2.63 20.982 3.119.179.314-.048 2.764-.493 4.683-.45 2.093-1.347 4.992-2.069 4.992-.626.048-9.118-2.093-16.89-2.093-6.25 0-10.513.888-11.232 1.515-.586.531-.898 2.45-.898 5.618 0 2.186.22 3.743.853 4.282.942.753 3.954 1.472 13.118 3.745 8.533 2.093 16.754 4.86 17.923 6.108 1.307 1.472 2.069 9.543 2.069 13.685 0 6.152-1.35 13.692-2.65 14.985-.943.935-9.257 3.385-22.554 3.385-10.375 0-20.441-2.497-20.758-2.899-.264-.312-.134-3.208.317-5.663M508.78 6.286c0-2.668.086-4.45.536-4.851.45-.362 2.743-.581 5.62-.581 3.105 0 5.621.269 6.03.58.404.402.49 2.356.49 4.852v25.885c0 8.332 1.26 16.708 2.204 18.002.81 1.067 4.676 1.78 10.524 1.78 5.757 0 10.164-.98 11.06-1.827 1.353-1.424 2.07-9.8 2.07-17.955V6.286c0-2.446.091-4.45.54-4.851.404-.312 3.014-.581 5.983-.581 3.012 0 5.172.269 5.617.58.498.402.546 2.184.546 4.852v27.221c0 13.5-2.028 25.486-3.601 27.047-1.346 1.291-8.455 3.47-21.629 3.47-13.583 0-21.042-2.004-22.35-3.43-1.579-1.733-3.64-13.764-3.64-27.087V6.286zM167.998 87.073c7.355 0 12.672 2.53 17.625 6.726.582.578.655 1.447.072 2.02l-1.967 1.955c-.58.725-1.165.65-1.893-.072-3.787-3.255-8.592-5.423-13.91-5.423-11.508 0-20.32 9.621-20.32 20.828 0 11.138 8.812 20.759 20.32 20.759 6.335 0 10.05-2.168 13.91-5.423.728-.578 1.313-.506 1.893.067l1.675 1.664c.585.437.437 1.447-.07 1.954-4.808 4.342-10.853 7.018-17.335 7.018-14.566 0-26.29-11.497-26.29-25.964 0-14.467 11.724-26.109 26.29-26.109M216.075 114.266c5.565 0 10.408-4.681 10.408-10.68 0-5.565-4.843-10.314-10.408-10.314h-14.022v20.994h14.022zm-19.734-24.95c0-.734.579-1.39 1.375-1.39h18.72c8.675 0 15.76 6.88 15.76 15.588 0 6.729-4.412 12.365-10.7 14.924l9.903 18.589c.506.946 0 2.12-1.229 2.12h-3.47c-.867 0-1.229-.37-1.589-1.098l-9.399-18.95h-13.805v18.658c0 .731-.65 1.39-1.375 1.39h-2.816c-.796 0-1.375-.659-1.375-1.39V89.316zM254.068 114.485L236.69 90.049c-.577-.95 0-2.122 1.153-2.122h3.391c.505 0 .936.369 1.153.655l14.567 20.415 14.563-20.415c.218-.286.649-.655 1.156-.655h3.386c1.154 0 1.73 1.173 1.154 2.122l-17.594 24.365v23.343c0 .731-.648 1.39-1.368 1.39h-2.812c-.795 0-1.371-.659-1.371-1.39v-23.272zM302.416 115.144c6.034 0 11.187-4.46 11.187-11.191 0-6.515-5.153-10.463-11.187-10.463h-11.7v21.654h11.7zm-17.294-25.826c0-.733.594-1.391 1.402-1.391h16.26c9.05 0 16.484 7.316 16.484 16.174 0 9.066-7.433 16.46-16.41 16.46h-12.141v17.194c0 .73-.662 1.391-1.4 1.391h-2.793c-.808 0-1.402-.66-1.402-1.391V89.318zM336.592 92.83h-12.539c-.796 0-1.37-.659-1.37-1.392v-2.12c0-.733.574-1.391 1.37-1.391h30.552c.794 0 1.37.658 1.37 1.391v2.12c0 .733-.576 1.392-1.37 1.392h-12.539v44.927c0 .731-.648 1.39-1.368 1.39h-2.738c-.72 0-1.368-.659-1.368-1.39V92.83zM386.247 134.084c11.516 0 21-9.402 21-20.902 0-11.5-9.484-21.047-21-21.047-11.519 0-20.931 9.547-20.931 21.047s9.412 20.902 20.93 20.902m0-47.01c14.485 0 26.071 11.643 26.071 26.108 0 14.467-11.586 25.964-26.07 25.964-14.487 0-26.003-11.497-26.003-25.964 0-14.465 11.516-26.109 26.003-26.109M428.628 88.081c.146-.576.73-1.008 1.314-1.008h1.169c.511 0 1.096.358 1.241.792l14.466 39.855h.364l14.247-39.855c.148-.434.732-.792 1.244-.792h1.169c.581 0 1.168.432 1.314 1.008l9.422 48.61c.223 1.008-.218 1.735-1.312 1.735h-2.921c-.587 0-1.17-.511-1.317-1.013l-6.5-37.253h-.297l-13.44 38.194c-.147.432-.804.792-1.24.792h-1.315c-.441 0-1.098-.36-1.246-.792l-13.588-38.194h-.291l-6.358 37.253c-.07.502-.73 1.013-1.314 1.013h-2.921c-1.099 0-1.535-.727-1.317-1.735l9.427-48.61zM513.769 121.69c-3.583-7.999-7.091-16.067-10.674-24.06h-.582l-10.671 24.06h21.927zm-34.72 15.548l22.22-49.362c.22-.438.586-.803 1.244-.803h.73c.657 0 1.024.365 1.245.803l22.075 49.362c.434.954-.148 1.908-1.245 1.908h-2.923a1.35 1.35 0 0 1-1.244-.808l-5.407-12.104h-25.952l-5.335 12.104a1.34 1.34 0 0 1-1.242.808h-2.926c-1.091 0-1.68-.954-1.24-1.908zM539.763 92.83h-12.539c-.796 0-1.37-.659-1.37-1.392v-2.12c0-.733.574-1.391 1.37-1.391h30.552c.792 0 1.37.658 1.37 1.391v2.12c0 .733-.578 1.392-1.37 1.392h-12.539v44.927c0 .731-.648 1.39-1.368 1.39h-2.738c-.72 0-1.368-.659-1.368-1.39V92.83z"/>
    </g>
</svg>
