<svg xmlns="http://www.w3.org/2000/svg" xmlns:xlink="http://www.w3.org/1999/xlink" width="193" height="176" viewBox="0 0 193 176">
  <defs>
    <polygon id="group-a" points=".839 0 104.839 0 104.839 176 .839 176"/>
    <path id="group-c" d="M88.285,0.001 C39.99,0.001 0.838,39.399 0.838,88 C0.838,136.601 39.99,176 88.285,176 L104.839,176 L104.839,0.001"/>
    <polygon id="group-e" points=".839 0 176.838 0 176.838 176 .839 176"/>
  </defs>
  <g fill="none" fill-rule="evenodd">
    <mask id="group-b" fill="#fff">
      <use xlink:href="#group-a"/>
    </mask>
    <path fill="#CE9912" d="M88.2849,176.0002 C39.9899,176.0002 0.8389,136.6012 0.8389,88.0002 C0.8389,39.3982 39.9899,0.0002 88.2849,0.0002 L104.8389,0.0002 L104.8389,176.0002 L88.2849,176.0002 Z" mask="url(#group-b)"/>
    <g>
      <mask id="group-d" fill="#fff">
        <use xlink:href="#group-c"/>
      </mask>
      <path stroke="#FFE47D" stroke-width="3" d="M-4.0003,148.466 L172.3307,148.466 M-4.0003,128.311 L172.3307,128.311 M-4.0003,108.155 L172.3307,108.155 M-4.0003,88 L172.3307,88 M-4.0003,67.845 L172.3307,67.845 M-4.0003,47.689 L172.3307,47.689 M-4.0003,27.533 L172.3307,27.533 M-4.0003,7.378 L172.3307,7.378 M-4.0003,168.622 L172.3307,168.622" mask="url(#group-d)"/>
    </g>
    <g transform="translate(16)">
      <mask id="group-f" fill="#fff">
        <use xlink:href="#group-e"/>
      </mask>
      <path fill="#FBCB40" d="M176.8386,88.0002 C176.8386,136.6012 137.4396,176.0002 88.8386,176.0002 C40.2366,176.0002 0.8386,136.6012 0.8386,88.0002 C0.8386,39.3982 40.2366,0.0002 88.8386,0.0002 C137.4396,0.0002 176.8386,39.3982 176.8386,88.0002" mask="url(#group-f)"/>
      <path stroke="#FFE47D" stroke-dasharray="11.668 19.446" stroke-width="4" d="M13.6247,88.0002 C13.6247,128.5012 47.2997,161.3332 88.8387,161.3332 C130.3777,161.3332 164.0527,128.5012 164.0527,88.0002 C164.0527,47.4992 130.3777,14.6672 88.8387,14.6672 C47.2997,14.6672 13.6247,47.4992 13.6247,88.0002 Z"/>
      <polygon fill="#CE9912" points="74.637 117.239 59.6 102.201 103.039 58.761 118.076 73.799"/>
      <polygon fill="#FFE47D" points="72.489 115.09 59.6 102.201 100.891 60.91 113.78 73.799"/>
    </g>
    <circle cx="165" cy="28" r="28" fill="#FE7F78" fill-rule="nonzero"/>
    <path fill="#FFF" fill-rule="nonzero" d="M161.155473,28 L153,19.8445269 L156.844527,16 L165,24.1554731 L173.155473,16 L177,19.8445269 L168.844527,28 L177,36.1554731 L173.155473,40 L165,31.8445269 L156.844527,40 L153,36.1554731 L161.155473,28 Z"/>
  </g>
</svg>