<?xml version="1.0" encoding="UTF-8"?>
<svg width="172px" height="172px" viewBox="0 0 172 172" version="1.1" xmlns="http://www.w3.org/2000/svg" xmlns:xlink="http://www.w3.org/1999/xlink">
    <title>pair-with-server</title>
    <g id="system-template" stroke="none" stroke-width="1" fill="none" fill-rule="evenodd">
        <path d="M86,0 C133.496477,0 172,38.5031988 172,86 C172,133.496139 133.496139,172 86,172 C38.5031988,172 0,133.496477 0,86 C0,38.502861 38.502861,0 86,0 Z M86,8 C42.921139,8 8,42.921139 8,86 C8,129.078214 42.9214919,164 86,164 C129.077861,164 164,129.077861 164,86 C164,42.9214919 129.078214,8 86,8 Z M120.1435,48 C122.272748,48 123.9995,49.7261092 123.9995,51.855 L123.9995,51.855 L123.9995,70.644 C123.9995,71.8450736 123.450333,72.917911 122.589403,73.6251078 C123.45023,74.3317409 123.9995,75.4043092 123.9995,76.605 L123.9995,76.605 L123.9995,95.394 C123.9995,96.5950736 123.450333,97.667911 122.589403,98.3751078 C123.45023,99.0817409 123.9995,100.154309 123.9995,101.355 L123.9995,101.355 L123.9995,120.144 C123.9995,122.273569 122.273069,124 120.1435,124 L120.1435,124 L51.8555,124 C49.7259305,124 47.9995,122.273569 47.9995,120.144 L47.9995,120.144 L47.9995,101.355 C47.9995,100.154309 48.5487695,99.0817409 49.4097311,98.3747059 C48.5486673,97.667911 47.9995,96.5950736 47.9995,95.394 L47.9995,95.394 L47.9995,76.605 C47.9995,75.4043092 48.5487695,74.3317409 49.4097311,73.6247059 C48.5486673,72.917911 47.9995,71.8450736 47.9995,70.644 L47.9995,70.644 L47.9995,51.855 C47.9995,49.7261092 49.7262518,48 51.8555,48 L51.8555,48 Z M119.999,101.5 L51.999,101.5 L51.999,120 L119.999,120 L119.999,101.5 Z M72.5,107.375 C74.363,107.375 75.875,108.886 75.875,110.75 C75.875,112.613 74.363,114.125 72.5,114.125 C70.636,114.125 69.125,112.613 69.125,110.75 C69.125,108.886 70.636,107.375 72.5,107.375 Z M82.625,107.375 C84.488,107.375 86,108.886 86,110.75 C86,112.613 84.488,114.125 82.625,114.125 C80.761,114.125 79.25,112.613 79.25,110.75 C79.25,108.886 80.761,107.375 82.625,107.375 Z M62.375,107.375 C64.238,107.375 65.75,108.886 65.75,110.75 C65.75,112.613 64.238,114.125 62.375,114.125 C60.511,114.125 59,112.613 59,110.75 C59,108.886 60.511,107.375 62.375,107.375 Z M119.999,76.75 L51.999,76.75 L51.999,95.25 L119.999,95.25 L119.999,76.75 Z M72.5,82.625 C74.363,82.625 75.875,84.136 75.875,86 C75.875,87.863 74.363,89.375 72.5,89.375 C70.636,89.375 69.125,87.863 69.125,86 C69.125,84.136 70.636,82.625 72.5,82.625 Z M82.625,82.625 C84.488,82.625 86,84.136 86,86 C86,87.863 84.488,89.375 82.625,89.375 C80.761,89.375 79.25,87.863 79.25,86 C79.25,84.136 80.761,82.625 82.625,82.625 Z M62.375,82.625 C64.238,82.625 65.75,84.136 65.75,86 C65.75,87.863 64.238,89.375 62.375,89.375 C60.511,89.375 59,87.863 59,86 C59,84.136 60.511,82.625 62.375,82.625 Z M119.999,52 L51.999,52 L51.999,70.5 L119.999,70.5 L119.999,52 Z M72.5,57.875 C74.363,57.875 75.875,59.386 75.875,61.25 C75.875,63.113 74.363,64.625 72.5,64.625 C70.636,64.625 69.125,63.113 69.125,61.25 C69.125,59.386 70.636,57.875 72.5,57.875 Z M82.625,57.875 C84.488,57.875 86,59.386 86,61.25 C86,63.113 84.488,64.625 82.625,64.625 C80.761,64.625 79.25,63.113 79.25,61.25 C79.25,59.386 80.761,57.875 82.625,57.875 Z M62.375,57.875 C64.238,57.875 65.75,59.386 65.75,61.25 C65.75,63.113 64.238,64.625 62.375,64.625 C60.511,64.625 59,63.113 59,61.25 C59,59.386 60.511,57.875 62.375,57.875 Z" id="pair-with-server" fill="#0E4160" fill-rule="nonzero"></path>
    </g>
</svg>