<svg xmlns="http://www.w3.org/2000/svg" xmlns:xlink="http://www.w3.org/1999/xlink" width="168" height="224" viewBox="0 0 168 224">
  <defs>
    <polygon id="phone-warning-a" points="0 0 127.999 0 127.999 224 0 224"/>
  </defs>
  <g fill="none" fill-rule="evenodd">
    <path fill="#FFF" d="M125.0371,130.8586 L125.0371,200.7306 C125.0371,211.9606 115.8511,221.0636 104.5211,221.0636 L23.4781,221.0636 C12.1471,221.0636 2.9621,211.9606 2.9621,200.7306 L2.9621,23.2686 C2.9621,12.0396 12.1471,2.9356 23.4781,2.9356 L104.5211,2.9356 C115.8511,2.9356 125.0371,12.0396 125.0371,23.2686 L125.0371,38.9346 L125.0371,130.8586 Z"/>
    <mask id="phone-warning-b" fill="#fff">
      <use xlink:href="#phone-warning-a"/>
    </mask>
    <path fill="#0E4160" d="M23.4785,5.8718 C13.7985,5.8718 5.9245,13.6758 5.9245,23.2688 L5.9245,200.7308 C5.9245,210.3238 13.7985,218.1288 23.4785,218.1288 L104.5215,218.1288 C114.2015,218.1288 122.0755,210.3238 122.0755,200.7308 L122.0755,23.2688 C122.0755,13.6758 114.2015,5.8718 104.5215,5.8718 L23.4785,5.8718 Z M104.5215,223.9998 L23.4785,223.9998 C10.5335,223.9998 -0.0005,213.5618 -0.0005,200.7308 L-0.0005,23.2688 C-0.0005,10.4378 10.5335,-0.0002 23.4785,-0.0002 L104.5215,-0.0002 C117.4665,-0.0002 127.9995,10.4378 127.9995,23.2688 L127.9995,200.7308 C127.9995,213.5618 117.4665,223.9998 104.5215,223.9998 L104.5215,223.9998 Z" mask="url(#phone-warning-b)"/>
    <path fill="#0E4160" d="M72.1983 197.2788C72.1983 192.7508 68.5283 189.0798 64.0003 189.0798 59.4713 189.0798 55.8013 192.7508 55.8013 197.2788 55.8013 201.8068 59.4713 205.4778 64.0003 205.4778 68.5283 205.4778 72.1983 201.8068 72.1983 197.2788M79.0967 24.1348L48.9037 24.1348C47.2827 24.1348 45.9677 22.8198 45.9677 21.1988 45.9677 19.5778 47.2827 18.2628 48.9037 18.2628L79.0967 18.2628C80.7177 18.2628 82.0327 19.5778 82.0327 21.1988 82.0327 22.8198 80.7177 24.1348 79.0967 24.1348"/>
    <g fill="#2CB9AC" fill-rule="nonzero" transform="translate(112 16)">
      <circle cx="28" cy="28" r="28"/>
    </g>
    <path fill="#FFF" d="M136.160417,47.75 L136.160417,29 L143.392501,29 L143.392501,47.75 L136.160417,47.75 Z M136,59 L136,51.8004169 L143.5175,51.8004169 L143.5175,59 L136,59 Z"/>
  </g>
</svg>
