<svg xmlns="http://www.w3.org/2000/svg" width="168" height="224" viewBox="0 0 168 224">
  <g fill="none" fill-rule="evenodd" transform="translate(-1)">
    <path fill="#FFF" d="M126,130.847933 L126,200.678932 C126,211.902342 116.819644,221 105.496605,221 L24.5033955,221 C13.179357,221 4,211.902342 4,200.678932 L4,23.3210684 C4,12.0986577 13.179357,3 24.5033955,3 L105.496605,3 C116.819644,3 126,12.0986577 126,23.3210684 L126,38.9778754 L126,130.847933 Z"/>
    <path fill="#403C51" d="M105.5215,223.9998 L24.4785,223.9998 C11.5335,223.9998 0.9995,213.5618 0.9995,200.7308 L0.9995,23.2688 C0.9995,10.4378 11.5335,-0.0002 24.4785,-0.0002 L105.5215,-0.0002 C118.4665,-0.0002 128.9995,10.4378 128.9995,23.2688 L128.9995,200.7308 C128.9995,213.5618 118.4665,223.9998 105.5215,223.9998 Z M24.4785,5.8718 C14.7985,5.8718 6.9245,13.6758 6.9245,23.2688 L6.9245,200.7308 C6.9245,210.3238 14.7985,218.1288 24.4785,218.1288 L105.5215,218.1288 C115.2015,218.1288 123.0755,210.3238 123.0755,200.7308 L123.0755,23.2688 C123.0755,13.6758 115.2015,5.8718 105.5215,5.8718 L24.4785,5.8718 Z"/>
    <path fill="#403C51" d="M73 197C73 192.5819 69.4188571 189 65.0004879 189 60.5811429 189 57 192.5819 57 197 57 201.4181 60.5811429 205 65.0004879 205 69.4188571 205 73 201.4181 73 197M80.0692916 24L49.9307084 24C48.31263 24 47 22.6563351 47 21 47 19.3436649 48.31263 18 49.9307084 18L80.0692916 18C81.68737 18 83 19.3436649 83 21 83 22.6563351 81.68737 24 80.0692916 24"/>
    <g fill="#CB6560" fill-rule="nonzero" transform="translate(113 16)">
      <circle cx="28" cy="28" r="28"/>
    </g>
    <path fill="#FFF" fill-rule="nonzero" d="M137.155473,44 L129,35.8445269 L132.844527,32 L141,40.1554731 L149.155473,32 L153,35.8445269 L144.844527,44 L153,52.1554731 L149.155473,56 L141,47.8445269 L132.844527,56 L129,52.1554731 L137.155473,44 Z"/>
  </g>
</svg>
