<?xml version="1.0" encoding="UTF-8"?>
<!-- Generator: Adobe Illustrator 23.0.3, SVG Export Plug-In . SVG Version: 6.00 Build 0)  -->
<svg version="1.1" id="Layer_1" xmlns="http://www.w3.org/2000/svg" xmlns:xlink="http://www.w3.org/1999/xlink" x="0px" y="0px" viewBox="0 0 167 191" style="enable-background:new 0 0 167 191;" xml:space="preserve">
<style type="text/css">
	.st0{filter:url(#Adobe_OpacityMaskFilter);}
	.st1{fill-rule:evenodd;clip-rule:evenodd;fill:#FFFFFF;}
	.st2{mask:url(#mask-2_1_);fill-rule:evenodd;clip-rule:evenodd;fill:#F2F2F2;}
	.st3{fill-rule:evenodd;clip-rule:evenodd;fill:#0E4160;}
	.st4{fill:#0E4160;}
	.st5{fill-rule:evenodd;clip-rule:evenodd;fill:#CCCCCC;}
	.st6{fill-rule:evenodd;clip-rule:evenodd;fill:#0E4160;fill-opacity:0.2645;}
	.st7{fill:#FE7F78;}
	.st8{fill:#FFFFFF;}
</style>
<title>printing-error</title>
<desc>Created with Sketch.</desc>
<g id="printing-error">
	<g id="Group-2-Copy">
		<g id="Group-36" transform="translate(0.000000, 15.000000)">
			<g id="Group-3">
				<g id="Clip-2">
				</g>
				<defs>
					<filter id="Adobe_OpacityMaskFilter" filterUnits="userSpaceOnUse" x="0" y="0" width="90" height="155.3">
						<feColorMatrix type="matrix" values="1 0 0 0 0  0 1 0 0 0  0 0 1 0 0  0 0 0 1 0"/>
					</filter>
				</defs>
				<mask maskUnits="userSpaceOnUse" x="0" y="0" width="90" height="155.3" id="mask-2_1_">
					<g class="st0">
						<polygon id="path-1_1_" class="st1" points="0,0 90,0 90,155.3 0,155.3       "/>
					</g>
				</mask>
				<path id="Fill-1" class="st2" d="M27,110.3c-5,0-9,4-9,9v9v18c0,5-4,9-9,9s-9-4-9-9V9V0l9,9l9-9l9,9l9-9l9,9l9-9l9,9l9-9l9,9      l9-9v9v101.3H27z"/>
			</g>
			<path id="Fill-4" class="st1" d="M73.9,95.2H16.1c-2.4,0-4.4-2-4.4-4.4V33.1c0-2.4,2-4.4,4.4-4.4h57.7c2.4,0,4.4,2,4.4,4.4v57.7     C78.2,93.2,76.3,95.2,73.9,95.2"/>
			<path id="Fill-6" class="st3" d="M17.7,35.9v15.6c0,0.7,0.6,1.3,1.3,1.3h6.5c0.7,0,1.3,0.6,1.3,1.3v6.5c0,0.7,0.6,1.3,1.3,1.3     h6.5c0.7,0,1.3-0.6,1.3-1.3V45c0-0.7,0.6-1.3,1.3-1.3h6.5c0.7,0,1.3-0.6,1.3-1.3v-6.5c0-0.7-0.6-1.3-1.3-1.3H19     C18.3,34.7,17.7,35.2,17.7,35.9"/>
			<path id="Fill-8" class="st3" d="M46.3,52.8h6.5c0.7,0,1.3-0.6,1.3-1.3V45c0-0.7-0.6-1.3-1.3-1.3h-6.5c-0.7,0-1.3,0.6-1.3,1.3     v6.5C45,52.3,45.6,52.8,46.3,52.8"/>
			<path id="Fill-10" class="st3" d="M54.1,35.9v6.5c0,0.7,0.6,1.3,1.3,1.3h6.5c0.7,0,1.3-0.6,1.3-1.3v-6.5c0-0.7-0.6-1.3-1.3-1.3     h-6.5C54.7,34.7,54.1,35.2,54.1,35.9"/>
			<path id="Fill-12" class="st3" d="M63.2,45v15.6c0,0.7,0.6,1.3,1.3,1.3H71c0.7,0,1.3-0.6,1.3-1.3V45c0-0.7-0.6-1.3-1.3-1.3h-6.5     C63.8,43.7,63.2,44.3,63.2,45"/>
			<path id="Fill-14" class="st3" d="M52.8,61.9h-6.5c-0.7,0-1.3,0.6-1.3,1.3v6.5c0,0.7,0.6,1.3,1.3,1.3h6.5c0.7,0,1.3,0.6,1.3,1.3     v6.5c0,0.7,0.6,1.3,1.3,1.3h6.5c0.7,0,1.3,0.6,1.3,1.3v6.5c0,0.7,0.6,1.3,1.3,1.3H71c0.7,0,1.3-0.6,1.3-1.3V72.3     c0-0.7-0.6-1.3-1.3-1.3H55.4c-0.7,0-1.3-0.6-1.3-1.3v-6.5C54.1,62.5,53.5,61.9,52.8,61.9"/>
			<path id="Fill-16" class="st3" d="M37.2,80.1h6.5c0.7,0,1.3-0.6,1.3-1.3v-6.5c0-0.7-0.6-1.3-1.3-1.3h-6.5c-0.7,0-1.3,0.6-1.3,1.3     v6.5C35.9,79.5,36.5,80.1,37.2,80.1"/>
			<path id="Fill-18" class="st3" d="M25.5,71H19c-0.7,0-1.3,0.6-1.3,1.3v15.6c0,0.7,0.6,1.3,1.3,1.3h15.6c0.7,0,1.3-0.6,1.3-1.3     v-6.5c0-0.7-0.6-1.3-1.3-1.3h-6.5c-0.7,0-1.3-0.6-1.3-1.3v-6.5C26.8,71.6,26.2,71,25.5,71"/>
			<rect x="11.8" y="107" class="st4" width="59.2" height="2"/>
			<rect x="11.8" y="118.1" class="st4" width="59.2" height="2"/>
			<rect x="11.8" y="129.2" class="st4" width="59.2" height="2"/>
			<rect x="11.8" y="140.3" class="st4" width="59.2" height="2"/>
			<path id="Fill-28" class="st5" d="M36,127v-8c0-5-4.2-9-9.3-9s-9.3,4-9.3,9v9v18c0,5-4.2,9-9.3,9h28V127z"/>
			<path id="Fill-30" class="st1" d="M27,110h90c5,0,9,4,9,9v56.7l-9-9l-9,9l-9-9l-9,9l-9-9l-9,9l-9-9l-9,9l-9-9l-9,9V127v-8     C36,114,32,110,27,110"/>
			<rect x="45" y="147.5" class="st4" width="22.7" height="2"/>
			<rect x="79" y="147.5" class="st4" width="22.7" height="2"/>
		</g>
		<circle id="Oval" class="st3" cx="155" cy="56" r="12"/>
		<polyline id="Path" class="st6" points="155,44 12,44 12,110 79,110 155,68   "/>
		<g id="Group" transform="translate(63.000000, 0.000000)">
			<circle id="Oval-5" class="st7" cx="28" cy="28" r="28"/>
			<path id="Combined-Shape" class="st8" d="M24.2,28L16,19.8l3.8-3.8l8.2,8.2l8.2-8.2l3.8,3.8L31.8,28l8.2,8.2L36.2,40L28,31.8     L19.8,40L16,36.2L24.2,28z"/>
		</g>
	</g>
</g>
</svg>