<svg xmlns="http://www.w3.org/2000/svg" width="208" height="176" viewBox="0 0 208 176">
  <g fill="none" fill-rule="evenodd">
    <g transform="translate(24 20)">
      <path fill="#FFF" d="M8,156 L148,156 C152.418278,156 156,152.418278 156,148 L156,8 C156,3.581722 152.418278,-8.11624501e-16 148,0 L8,0 C3.581722,8.11624501e-16 -5.41083001e-16,3.581722 0,8 L0,148 C5.41083001e-16,152.418278 3.581722,156 8,156 Z"/>
      <g fill="#0E4160" transform="translate(13 13)">
        <path d="M.695097945 3.69478973L.695097945 40.2327144C.695097945 41.8893925 2.03811164 43.2315226 3.69478973 43.2315226L18.9645021 43.2315226C20.6211801 43.2315226 21.9633103 44.5745363 21.9633103 46.2312144L21.9633103 61.5009267C21.9633103 63.1576048 23.306324 64.4997349 24.9630021 64.4997349L40.2327144 64.4997349C41.8893925 64.4997349 43.2324062 63.1576048 43.2324062 61.5009267L43.2324062 24.9612349C43.2324062 23.3054404 44.5745363 21.9633103 46.2303308 21.9633103L61.5009267 21.9633103C63.1567212 21.9633103 64.4997349 20.6202966 64.4997349 18.9636185L64.4997349 3.69478973C64.4997349 2.03811164 63.1567212.695097945 61.5009267.695097945L3.69478973.695097945C2.03811164.695097945.695097945 2.03811164.695097945 3.69478973M67.4988966 43.2315226L82.7694925 43.2315226C84.425287 43.2315226 85.7683007 41.8885089 85.7683007 40.2318308L85.7683007 24.9612349C85.7683007 23.3054404 84.425287 21.9633103 82.7694925 21.9633103L67.4988966 21.9633103C65.8431021 21.9633103 64.4992048 23.3054404 64.4992048 24.9612349L64.4992048 40.2318308C64.4992048 41.8885089 65.8431021 43.2315226 67.4988966 43.2315226M85.7680356 3.69478973L85.7680356 18.9636185C85.7680356 20.6202966 87.1110493 21.9633103 88.7677274 21.9633103L104.03744 21.9633103C105.694118 21.9633103 107.036248 20.6202966 107.036248 18.9636185L107.036248 3.69478973C107.036248 2.03811164 105.694118.695097945 104.03744.695097945L88.7677274.695097945C87.1110493.695097945 85.7680356 2.03811164 85.7680356 3.69478973M107.036513 24.9615L107.036513 61.5003082C107.036513 63.1569863 108.379527 64.5 110.036205 64.5L125.306801 64.5C126.962595 64.5 128.304725 63.1569863 128.304725 61.5003082L128.304725 24.9615C128.304725 23.3057055 126.962595 21.9626918 125.306801 21.9626918L110.036205 21.9626918C108.379527 21.9626918 107.036513 23.3057055 107.036513 24.9615M82.7696692 64.5L67.4990733 64.5C65.8432788 64.5 64.4993815 65.8430137 64.4993815 67.4996918L64.4993815 82.7702877C64.4993815 84.4260822 65.8432788 85.7682123 67.4990733 85.7682123L82.7687856 85.7682123C84.4254637 85.7682123 85.7684774 87.111226 85.7684774 88.7679041L85.7684774 104.036733C85.7684774 105.693411 87.1106075 107.036425 88.7672856 107.036425L104.037882 107.036425C105.69456 107.036425 107.037573 108.378555 107.037573 110.035233L107.037573 125.304945C107.037573 126.961623 108.379703 128.304637 110.036382 128.304637L125.306977 128.304637C126.962772 128.304637 128.304902 126.961623 128.304902 125.304945L128.304902 88.7679041C128.304902 87.111226 126.962772 85.7682123 125.306977 85.7682123L88.7672856 85.7682123C87.1106075 85.7682123 85.7684774 84.4260822 85.7684774 82.7702877L85.7684774 67.4996918C85.7684774 65.8430137 84.4254637 64.5 82.7696692 64.5M46.2304192 107.036071L61.5010151 107.036071C63.1568096 107.036071 64.4998233 105.693058 64.4998233 104.036379L64.4998233 88.7675507C64.4998233 87.1108726 63.1568096 85.7687425 61.5010151 85.7687425L46.2304192 85.7687425C44.5746247 85.7687425 43.231611 87.1108726 43.231611 88.7675507L43.231611 104.036379C43.231611 105.693058 44.5746247 107.036071 46.2304192 107.036071M18.964237 85.7684774L3.69452466 85.7684774C2.03784658 85.7684774.694832877 87.1114911.694832877 88.7681692L.694832877 125.30521C.694832877 126.961888 2.03784658 128.304902 3.69452466 128.304902L40.2324493 128.304902C41.8891274 128.304902 43.2321411 126.961888 43.2321411 125.30521L43.2321411 110.035498C43.2321411 108.37882 41.8891274 107.035806 40.2324493 107.035806L24.962737 107.035806C23.3060589 107.035806 21.9639288 105.693676 21.9639288 104.036998L21.9639288 88.7681692C21.9639288 87.1114911 20.6209151 85.7684774 18.964237 85.7684774"/>
      </g>
    </g>
    <g transform="translate(152)">
      <circle cx="28" cy="28" r="28" fill="#2CB9AC" fill-rule="nonzero"/>
      <path fill="#FFF" d="M24.1700006,33.6800006 L24.1700006,32.9188 C24.1700006,28.3735999 26.4208008,26.7456 28.2900006,25.3915997 C29.6280005,24.4423999 30.7492004,23.6303998 30.7492004,22.0112 C30.7492004,20.3103998 29.4716003,19.24 27.9552002,19.24 C26.4220001,19.24 24.9891998,20.2644 24.9891998,22.1432001 L18,22.1432001 C18,16.1696002 22.5176001,13 27.9784003,13 C33.6608002,13 37.9444,16.4884003 37.9444,21.9432001 C37.9444,25.7372003 35.8256,27.3760004 33.9408002,28.8436005 C32.4436005,29.9976007 31.1236005,31.0148004 31.1236005,32.9188007 L31.1236005,33.6800006 L24.1700006,33.6800006 Z M24.0100006,42.6 L24.0100006,35.6884003 L31.2268005,35.6884003 L31.2268005,42.6 L24.0100006,42.6 Z"/>
    </g>
    <g transform="translate(165 98)">
      <circle cx="15.5" cy="15.5" r="15.5" fill="#2CB9AC" fill-rule="nonzero"/>
      <path fill="#FFF" d="M13.4029606,18.1783787 L13.4029606,17.7669189 C13.4029606,15.310054 14.6443517,14.430054 15.6752776,13.698162 C16.413229,13.185081 17.0316081,12.746162 17.0316081,11.8709189 C17.0316081,10.9515674 16.3269692,10.372973 15.490624,10.372973 C14.6450132,10.372973 13.8547762,10.9267027 13.8547762,11.9422703 L10,11.9422703 C10,8.71329742 12.4916067,7 15.5034196,7 C18.6374522,7 21,8.88562177 21,11.8341622 C21,13.8849731 19.8314113,14.770811 18.7918815,15.5641084 C17.9661261,16.1878923 17.2381022,16.73773 17.2381022,17.7669193 L17.2381022,18.1783787 L13.4029606,18.1783787 Z M13.3147152,23 L13.3147152,19.2640001 L17.2950204,19.2640001 L17.2950204,23 L13.3147152,23 Z"/>
    </g>
    <g transform="translate(0 101)">
      <circle cx="24.5" cy="24.5" r="24.5" fill="#2CB9AC" fill-rule="nonzero"/>
      <path fill="#FFF" d="M21.6404008,29.0526316 L21.6404008,28.4985662 C21.6404008,25.1901899 23.3332069,24.0051957 24.7390149,23.0196412 C25.7453123,22.3287343 26.5885565,21.7376928 26.5885565,20.5591039 C26.5885565,19.3211195 25.6276852,18.5419931 24.4872146,18.5419931 C23.3341089,18.5419931 22.256513,19.287637 22.256513,20.6551846 L17,20.6551846 C17,16.3070998 20.3976455,14 24.5046632,14 C28.7783439,14 32,16.5391491 32,20.5096079 C32,23.2711982 30.40647,24.4640537 28.9889293,25.5322956 C27.8628992,26.3722734 26.8701393,27.1126763 26.8701393,28.4985667 L26.8701393,29.0526316 L21.6404008,29.0526316 Z M21.6153846,36 L21.6153846,31.3684211 L27.3846154,31.3684211 L27.3846154,36 L21.6153846,36 Z"/>
    </g>
    <g transform="translate(75 34)">
      <circle cx="12.5" cy="12.5" r="12.5" fill="#2CB9AC" fill-rule="nonzero"/>
      <path fill="#FFF" d="M11.4748804,14.6851354 L11.4748804,14.4022568 C11.4748804,12.7131621 12.3777103,12.1081622 13.1274746,11.6049864 C13.6641666,11.2522432 14.1138968,10.9504864 14.1138968,10.3487567 C14.1138968,9.71670262 13.6014321,9.31891892 12.9931811,9.31891892 C12.3781914,9.31891892 11.8034736,9.69960812 11.8034736,10.3978108 L9,10.3978108 C9,8.17789197 10.8120776,7 13.002487,7 C15.2817834,7 17,8.29636496 17,10.3234865 C17,11.733419 16.1501173,12.3424326 15.3940956,12.8878245 C14.7935462,13.3166759 14.2640743,13.6946893 14.2640743,14.402257 L14.2640743,14.6851354 L11.4748804,14.6851354 Z M11.410702,18 L11.410702,15.4315001 L14.3054694,15.4315001 L14.3054694,18 L11.410702,18 Z"/>
    </g>
  </g>
</svg>