<?xml version="1.0" encoding="UTF-8" standalone="no"?>
<!-- Created with Inkscape (http://www.inkscape.org/) -->
<svg xmlns:rdf="http://www.w3.org/1999/02/22-rdf-syntax-ns#" xmlns="http://www.w3.org/2000/svg" version="1.1" xmlns:cc="http://creativecommons.org/ns#" xmlns:xlink="http://www.w3.org/1999/xlink" viewBox="0 0 180 180" xmlns:dc="http://purl.org/dc/elements/1.1/">
	<metadata>
		<rdf:RDF>
			<cc:Work rdf:about="">
				<dc:format>image/svg+xml</dc:format>
				<dc:type rdf:resource="http://purl.org/dc/dcmitype/StillImage"/>
				<dc:title/>
			</cc:Work>
		</rdf:RDF>
	</metadata>
	<g fill="none">
		<path id="slice" d="m90,36,0,18c0.628355,0,1.247506,0.02961,1.875,0.0625l0.9375-18c-0.94124-0.049328-1.869968-0.0625-2.8125-0.0625z"/>
		<use xlink:href="#slice" height="180" width="180" y="0" x="0" fill="#edede1"/>
		<use xlink:href="#slice" transform="matrix(0.99939083,0.0348995,-0.0348995,0.99939083,3.1957803,-3.0861291)" height="180" width="180" y="0" x="0" fill="#ecece0"/>
		<use xlink:href="#slice" transform="matrix(0.99756405,0.06975647,-0.06975647,0.99756405,6.4973181,-6.0588472)" height="180" width="180" y="0" x="0" fill="#ecece0"/>
		<use xlink:href="#slice" transform="matrix(0.9945219,0.10452846,-0.10452846,0.9945219,9.9005911,-8.9145323)" height="180" width="180" y="0" x="0" fill="#ecece0"/>
		<use xlink:href="#slice" transform="matrix(0.99026807,0.1391731,-0.1391731,0.99026807,13.401453,-11.649705)" height="180" width="180" y="0" x="0" fill="#ecece0"/>
		<use xlink:href="#slice" transform="matrix(0.98480775,0.17364818,-0.17364818,0.98480775,16.995638,-14.261034)" height="180" width="180" y="0" x="0" fill="#ecece0"/>
		<use xlink:href="#slice" transform="matrix(0.9781476,0.20791169,-0.20791169,0.9781476,20.678768,-16.745336)" height="180" width="180" y="0" x="0" fill="#ecece0"/>
		<use xlink:href="#slice" transform="matrix(0.97029573,0.2419219,-0.2419219,0.97029573,24.446355,-19.099586)" height="180" width="180" y="0" x="0" fill="#ebebe0"/>
		<use xlink:href="#slice" transform="matrix(0.9612617,0.27563736,-0.27563736,0.9612617,28.293809,-21.320915)" height="180" width="180" y="0" x="0" fill="#ebebdf"/>
		<use xlink:href="#slice" transform="matrix(0.95105652,0.30901699,-0.30901699,0.95105652,32.216443,-23.406616)" height="180" width="180" y="0" x="0" fill="#ebebdf"/>
		<use xlink:href="#slice" transform="matrix(0.93969262,0.34202014,-0.34202014,0.93969262,36.209477,-25.354149)" height="180" width="180" y="0" x="0" fill="#ebebdf"/>
		<use xlink:href="#slice" transform="matrix(0.92718385,0.37460659,-0.37460659,0.92718385,40.268046,-27.16114)" height="180" width="180" y="0" x="0" fill="#ebebdf"/>
		<use xlink:href="#slice" transform="matrix(0.91354546,0.40673664,-0.40673664,0.91354546,44.387207,-28.825389)" height="180" width="180" y="0" x="0" fill="#ebebdf"/>
		<use xlink:href="#slice" transform="matrix(0.89879405,0.43837115,-0.43837115,0.89879405,48.561939,-30.344867)" height="180" width="180" y="0" x="0" fill="#eaeadf"/>
		<use xlink:href="#slice" transform="matrix(0.88294759,0.46947156,-0.46947156,0.88294759,52.787157,-31.717724)" height="180" width="180" y="0" x="0" fill="#eaeadf"/>
		<use xlink:href="#slice" transform="matrix(0.8660254,0.5,-0.5,0.8660254,57.057714,-32.942286)" height="180" width="180" y="0" x="0" fill="#eaeade"/>
		<use xlink:href="#slice" transform="matrix(0.8480481,0.52991926,-0.52991926,0.8480481,61.368405,-34.017062)" height="180" width="180" y="0" x="0" fill="#eaeade"/>
		<use xlink:href="#slice" transform="matrix(0.82903757,0.5591929,-0.5591929,0.82903757,65.71398,-34.940743)" height="180" width="180" y="0" x="0" fill="#eaeade"/>
		<use xlink:href="#slice" transform="matrix(0.80901699,0.58778525,-0.58778525,0.80901699,70.089143,-35.712202)" height="180" width="180" y="0" x="0" fill="#eaeade"/>
		<use xlink:href="#slice" transform="matrix(0.78801075,0.61566148,-0.61566148,0.78801075,74.488565,-36.330501)" height="180" width="180" y="0" x="0" fill="#e9e9de"/>
		<use xlink:href="#slice" transform="matrix(0.76604444,0.64278761,-0.64278761,0.76604444,78.906885,-36.794885)" height="180" width="180" y="0" x="0" fill="#e9e9de"/>
		<use xlink:href="#slice" transform="matrix(0.74314483,0.66913061,-0.66913061,0.74314483,83.33872,-37.104789)" height="180" width="180" y="0" x="0" fill="#e9e9de"/>
		<use xlink:href="#slice" transform="matrix(0.7193398,0.69465837,-0.69465837,0.7193398,87.778671,-37.259835)" height="180" width="180" y="0" x="0" fill="#e9e9dd"/>
		<use xlink:href="#slice" transform="matrix(0.69465837,0.7193398,-0.7193398,0.69465837,92.221329,-37.259835)" height="180" width="180" y="0" x="0" fill="#e9e9dd"/>
		<use xlink:href="#slice" transform="matrix(0.66913061,0.74314483,-0.74314483,0.66913061,96.66128,-37.104789)" height="180" width="180" y="0" x="0" fill="#e9e9dd"/>
		<use xlink:href="#slice" transform="matrix(0.64278761,0.76604444,-0.76604444,0.64278761,101.09312,-36.794885)" height="180" width="180" y="0" x="0" fill="#e8e8dd"/>
		<use xlink:href="#slice" transform="matrix(0.61566148,0.78801075,-0.78801075,0.61566148,105.51144,-36.330501)" height="180" width="180" y="0" x="0" fill="#e8e8dd"/>
		<use xlink:href="#slice" transform="matrix(0.58778525,0.80901699,-0.80901699,0.58778525,109.91086,-35.712202)" height="180" width="180" y="0" x="0" fill="#e8e8dd"/>
		<use xlink:href="#slice" transform="matrix(0.5591929,0.82903757,-0.82903757,0.5591929,114.28602,-34.940743)" height="180" width="180" y="0" x="0" fill="#e8e8dd"/>
		<use xlink:href="#slice" transform="matrix(0.52991926,0.8480481,-0.8480481,0.52991926,118.63159,-34.017062)" height="180" width="180" y="0" x="0" fill="#e8e8dc"/>
		<use xlink:href="#slice" transform="matrix(0.5,0.8660254,-0.8660254,0.5,122.94229,-32.942286)" height="180" width="180" y="0" x="0" fill="#e8e8dc"/>
		<use xlink:href="#slice" transform="matrix(0.46947156,0.88294759,-0.88294759,0.46947156,127.21284,-31.717724)" height="180" width="180" y="0" x="0" fill="#e7e7dc"/>
		<use xlink:href="#slice" transform="matrix(0.43837115,0.89879405,-0.89879405,0.43837115,131.43806,-30.344867)" height="180" width="180" y="0" x="0" fill="#e7e7dc"/>
		<use xlink:href="#slice" transform="matrix(0.40673664,0.91354546,-0.91354546,0.40673664,135.61279,-28.825389)" height="180" width="180" y="0" x="0" fill="#e7e7dc"/>
		<use xlink:href="#slice" transform="matrix(0.37460659,0.92718385,-0.92718385,0.37460659,139.73195,-27.16114)" height="180" width="180" y="0" x="0" fill="#e7e7dc"/>
		<use xlink:href="#slice" transform="matrix(0.34202014,0.93969262,-0.93969262,0.34202014,143.79052,-25.354149)" height="180" width="180" y="0" x="0" fill="#e7e7dc"/>
		<use xlink:href="#slice" transform="matrix(0.30901699,0.95105652,-0.95105652,0.30901699,147.78356,-23.406616)" height="180" width="180" y="0" x="0" fill="#e7e7db"/>
		<use xlink:href="#slice" transform="matrix(0.27563736,0.9612617,-0.9612617,0.27563736,151.70619,-21.320915)" height="180" width="180" y="0" x="0" fill="#e7e7db"/>
		<use xlink:href="#slice" transform="matrix(0.2419219,0.97029573,-0.97029573,0.2419219,155.55364,-19.099586)" height="180" width="180" y="0" x="0" fill="#e6e6db"/>
		<use xlink:href="#slice" transform="matrix(0.20791169,0.9781476,-0.9781476,0.20791169,159.32123,-16.745336)" height="180" width="180" y="0" x="0" fill="#e6e6db"/>
		<use xlink:href="#slice" transform="matrix(0.17364818,0.98480775,-0.98480775,0.17364818,163.00436,-14.261034)" height="180" width="180" y="0" x="0" fill="#e6e6db"/>
		<use xlink:href="#slice" transform="matrix(0.1391731,0.99026807,-0.99026807,0.1391731,166.59855,-11.649705)" height="180" width="180" y="0" x="0" fill="#e6e6db"/>
		<use xlink:href="#slice" transform="matrix(0.10452846,0.9945219,-0.9945219,0.10452846,170.09941,-8.9145323)" height="180" width="180" y="0" x="0" fill="#e6e6db"/>
		<use xlink:href="#slice" transform="matrix(0.06975647,0.99756405,-0.99756405,0.06975647,173.50268,-6.0588472)" height="180" width="180" y="0" x="0" fill="#e6e6da"/>
		<use xlink:href="#slice" transform="matrix(0.0348995,0.99939083,-0.99939083,0.0348995,176.80422,-3.0861291)" height="180" width="180" y="0" x="0" fill="#e5e5da"/>
		<use xlink:href="#slice" transform="matrix(0,1,-1,0,180,0)" height="180" width="180" y="0" x="0" fill="#e5e5da"/>
		<use xlink:href="#slice" transform="matrix(-0.0348995,0.99939083,-0.99939083,-0.0348995,183.08613,3.1957803)" height="180" width="180" y="0" x="0" fill="#e5e5da"/>
		<use xlink:href="#slice" transform="matrix(-0.06975647,0.99756405,-0.99756405,-0.06975647,186.05885,6.4973181)" height="180" width="180" y="0" x="0" fill="#e5e5da"/>
		<use xlink:href="#slice" transform="matrix(-0.10452846,0.9945219,-0.9945219,-0.10452846,188.91453,9.9005911)" height="180" width="180" y="0" x="0" fill="#e5e5da"/>
		<use xlink:href="#slice" transform="matrix(-0.1391731,0.99026807,-0.99026807,-0.1391731,191.64971,13.401453)" height="180" width="180" y="0" x="0" fill="#e5e5da"/>
		<use xlink:href="#slice" transform="matrix(-0.17364818,0.98480775,-0.98480775,-0.17364818,194.26103,16.995638)" height="180" width="180" y="0" x="0" fill="#e4e4da"/>
		<use xlink:href="#slice" transform="matrix(-0.20791169,0.9781476,-0.9781476,-0.20791169,196.74534,20.678768)" height="180" width="180" y="0" x="0" fill="#e4e4d9"/>
		<use xlink:href="#slice" transform="matrix(-0.2419219,0.97029573,-0.97029573,-0.2419219,199.09959,24.446355)" height="180" width="180" y="0" x="0" fill="#e4e4d9"/>
		<use xlink:href="#slice" transform="matrix(-0.27563736,0.9612617,-0.9612617,-0.27563736,201.32091,28.293809)" height="180" width="180" y="0" x="0" fill="#e4e4d9"/>
		<use xlink:href="#slice" transform="matrix(-0.30901699,0.95105652,-0.95105652,-0.30901699,203.40662,32.216443)" height="180" width="180" y="0" x="0" fill="#e4e4d9"/>
		<use xlink:href="#slice" transform="matrix(-0.34202014,0.93969262,-0.93969262,-0.34202014,205.35415,36.209477)" height="180" width="180" y="0" x="0" fill="#e4e4d9"/>
		<use xlink:href="#slice" transform="matrix(-0.37460659,0.92718385,-0.92718385,-0.37460659,207.16114,40.268046)" height="180" width="180" y="0" x="0" fill="#e3e3d9"/>
		<use xlink:href="#slice" transform="matrix(-0.40673664,0.91354546,-0.91354546,-0.40673664,208.82539,44.387207)" height="180" width="180" y="0" x="0" fill="#e3e3d9"/>
		<use xlink:href="#slice" transform="matrix(-0.43837115,0.89879405,-0.89879405,-0.43837115,210.34487,48.561939)" height="180" width="180" y="0" x="0" fill="#e3e3d8"/>
		<use xlink:href="#slice" transform="matrix(-0.46947156,0.88294759,-0.88294759,-0.46947156,211.71772,52.787157)" height="180" width="180" y="0" x="0" fill="#e3e3d8"/>
		<use xlink:href="#slice" transform="matrix(-0.5,0.8660254,-0.8660254,-0.5,212.94229,57.057714)" height="180" width="180" y="0" x="0" fill="#e3e3d8"/>
		<use xlink:href="#slice" transform="matrix(-0.52991926,0.8480481,-0.8480481,-0.52991926,214.01706,61.368405)" height="180" width="180" y="0" x="0" fill="#e3e3d8"/>
		<use xlink:href="#slice" transform="matrix(-0.5591929,0.82903757,-0.82903757,-0.5591929,214.94074,65.71398)" height="180" width="180" y="0" x="0" fill="#e2e2d8"/>
		<use xlink:href="#slice" transform="matrix(-0.58778525,0.80901699,-0.80901699,-0.58778525,215.7122,70.089143)" height="180" width="180" y="0" x="0" fill="#e2e2d8"/>
		<use xlink:href="#slice" transform="matrix(-0.61566148,0.78801075,-0.78801075,-0.61566148,216.3305,74.488565)" height="180" width="180" y="0" x="0" fill="#e2e2d8"/>
		<use xlink:href="#slice" transform="matrix(-0.64278761,0.76604444,-0.76604444,-0.64278761,216.79488,78.906885)" height="180" width="180" y="0" x="0" fill="#e2e2d7"/>
		<use xlink:href="#slice" transform="matrix(-0.66913061,0.74314483,-0.74314483,-0.66913061,217.10479,83.33872)" height="180" width="180" y="0" x="0" fill="#e2e2d7"/>
		<use xlink:href="#slice" transform="matrix(-0.69465837,0.7193398,-0.7193398,-0.69465837,217.25984,87.778671)" height="180" width="180" y="0" x="0" fill="#e2e2d7"/>
		<use xlink:href="#slice" transform="matrix(-0.7193398,0.69465837,-0.69465837,-0.7193398,217.25984,92.221329)" height="180" width="180" y="0" x="0" fill="#e1e1d7"/>
		<use xlink:href="#slice" transform="matrix(-0.74314483,0.66913061,-0.66913061,-0.74314483,217.10479,96.66128)" height="180" width="180" y="0" x="0" fill="#e1e1d7"/>
		<use xlink:href="#slice" transform="matrix(-0.76604444,0.64278761,-0.64278761,-0.76604444,216.79488,101.09312)" height="180" width="180" y="0" x="0" fill="#e1e1d7"/>
		<use xlink:href="#slice" transform="matrix(-0.78801075,0.61566148,-0.61566148,-0.78801075,216.3305,105.51144)" height="180" width="180" y="0" x="0" fill="#e1e1d7"/>
		<use xlink:href="#slice" transform="matrix(-0.80901699,0.58778525,-0.58778525,-0.80901699,215.7122,109.91086)" height="180" width="180" y="0" x="0" fill="#e1e1d6"/>
		<use xlink:href="#slice" transform="matrix(-0.82903757,0.5591929,-0.5591929,-0.82903757,214.94074,114.28602)" height="180" width="180" y="0" x="0" fill="#e1e1d6"/>
		<use xlink:href="#slice" transform="matrix(-0.8480481,0.52991926,-0.52991926,-0.8480481,214.01706,118.63159)" height="180" width="180" y="0" x="0" fill="#e1e1d6"/>
		<use xlink:href="#slice" transform="matrix(-0.8660254,0.5,-0.5,-0.8660254,212.94229,122.94229)" height="180" width="180" y="0" x="0" fill="#e0e0d6"/>
		<use xlink:href="#slice" transform="matrix(-0.88294759,0.46947156,-0.46947156,-0.88294759,211.71772,127.21284)" height="180" width="180" y="0" x="0" fill="#e0e0d6"/>
		<use xlink:href="#slice" transform="matrix(-0.89879405,0.43837115,-0.43837115,-0.89879405,210.34487,131.43806)" height="180" width="180" y="0" x="0" fill="#e0e0d6"/>
		<use xlink:href="#slice" transform="matrix(-0.91354546,0.40673664,-0.40673664,-0.91354546,208.82539,135.61279)" height="180" width="180" y="0" x="0" fill="#e0e0d6"/>
		<use xlink:href="#slice" transform="matrix(-0.92718385,0.37460659,-0.37460659,-0.92718385,207.16114,139.73195)" height="180" width="180" y="0" x="0" fill="#e0e0d5"/>
		<use xlink:href="#slice" transform="matrix(-0.93969262,0.34202014,-0.34202014,-0.93969262,205.35415,143.79052)" height="180" width="180" y="0" x="0" fill="#e0e0d5"/>
		<use xlink:href="#slice" transform="matrix(-0.95105652,0.30901699,-0.30901699,-0.95105652,203.40662,147.78356)" height="180" width="180" y="0" x="0" fill="#dfdfd5"/>
		<use xlink:href="#slice" transform="matrix(-0.9612617,0.27563736,-0.27563736,-0.9612617,201.32091,151.70619)" height="180" width="180" y="0" x="0" fill="#dfdfd5"/>
		<use xlink:href="#slice" transform="matrix(-0.97029573,0.2419219,-0.2419219,-0.97029573,199.09959,155.55364)" height="180" width="180" y="0" x="0" fill="#dfdfd5"/>
		<use xlink:href="#slice" transform="matrix(-0.9781476,0.20791169,-0.20791169,-0.9781476,196.74534,159.32123)" height="180" width="180" y="0" x="0" fill="#dfdfd5"/>
		<use xlink:href="#slice" transform="matrix(-0.98480775,0.17364818,-0.17364818,-0.98480775,194.26103,163.00436)" height="180" width="180" y="0" x="0" fill="#dfdfd5"/>
		<use xlink:href="#slice" transform="matrix(-0.99026807,0.1391731,-0.1391731,-0.99026807,191.64971,166.59855)" height="180" width="180" y="0" x="0" fill="#dfdfd4"/>
		<use xlink:href="#slice" transform="matrix(-0.9945219,0.10452846,-0.10452846,-0.9945219,188.91453,170.09941)" height="180" width="180" y="0" x="0" fill="#deded4"/>
		<use xlink:href="#slice" transform="matrix(-0.99756405,0.06975647,-0.06975647,-0.99756405,186.05885,173.50268)" height="180" width="180" y="0" x="0" fill="#deded4"/>
		<use xlink:href="#slice" transform="matrix(-0.99939083,0.0348995,-0.0348995,-0.99939083,183.08613,176.80422)" height="180" width="180" y="0" x="0" fill="#deded4"/>
		<use xlink:href="#slice" transform="matrix(-1,0,0,-1,180,180)" height="180" width="180" y="0" x="0" fill="#deded4"/>
		<use xlink:href="#slice" transform="matrix(-0.99939083,-0.0348995,0.0348995,-0.99939083,176.80422,183.08613)" height="180" width="180" y="0" x="0" fill="#deded4"/>
		<use xlink:href="#slice" transform="matrix(-0.99756405,-0.06975647,0.06975647,-0.99756405,173.50268,186.05885)" height="180" width="180" y="0" x="0" fill="#deded4"/>
		<use xlink:href="#slice" transform="matrix(-0.9945219,-0.10452846,0.10452846,-0.9945219,170.09941,188.91453)" height="180" width="180" y="0" x="0" fill="#ddddd4"/>
		<use xlink:href="#slice" transform="matrix(-0.99026807,-0.1391731,0.1391731,-0.99026807,166.59855,191.64971)" height="180" width="180" y="0" x="0" fill="#ddddd3"/>
		<use xlink:href="#slice" transform="matrix(-0.98480775,-0.17364818,0.17364818,-0.98480775,163.00436,194.26103)" height="180" width="180" y="0" x="0" fill="#ddddd3"/>
		<use xlink:href="#slice" transform="matrix(-0.9781476,-0.20791169,0.20791169,-0.9781476,159.32123,196.74534)" height="180" width="180" y="0" x="0" fill="#ddddd3"/>
		<use xlink:href="#slice" transform="matrix(-0.97029573,-0.2419219,0.2419219,-0.97029573,155.55364,199.09959)" height="180" width="180" y="0" x="0" fill="#ddddd3"/>
		<use xlink:href="#slice" transform="matrix(-0.9612617,-0.27563736,0.27563736,-0.9612617,151.70619,201.32091)" height="180" width="180" y="0" x="0" fill="#ddddd3"/>
		<use xlink:href="#slice" transform="matrix(-0.95105652,-0.30901699,0.30901699,-0.95105652,147.78356,203.40662)" height="180" width="180" y="0" x="0" fill="#dcdcd3"/>
		<use xlink:href="#slice" transform="matrix(-0.93969262,-0.34202014,0.34202014,-0.93969262,143.79052,205.35415)" height="180" width="180" y="0" x="0" fill="#dcdcd3"/>
		<use xlink:href="#slice" transform="matrix(-0.92718385,-0.37460659,0.37460659,-0.92718385,139.73195,207.16114)" height="180" width="180" y="0" x="0" fill="#dcdcd2"/>
		<use xlink:href="#slice" transform="matrix(-0.91354546,-0.40673664,0.40673664,-0.91354546,135.61279,208.82539)" height="180" width="180" y="0" x="0" fill="#dcdcd2"/>
		<use xlink:href="#slice" transform="matrix(-0.89879405,-0.43837115,0.43837115,-0.89879405,131.43806,210.34487)" height="180" width="180" y="0" x="0" fill="#dcdcd2"/>
		<use xlink:href="#slice" transform="matrix(-0.88294759,-0.46947156,0.46947156,-0.88294759,127.21284,211.71772)" height="180" width="180" y="0" x="0" fill="#dcdcd2"/>
		<use xlink:href="#slice" transform="matrix(-0.8660254,-0.5,0.5,-0.8660254,122.94229,212.94229)" height="180" width="180" y="0" x="0" fill="#dbdbd2"/>
		<use xlink:href="#slice" transform="matrix(-0.8480481,-0.52991926,0.52991926,-0.8480481,118.63159,214.01706)" height="180" width="180" y="0" x="0" fill="#dbdbd2"/>
		<use xlink:href="#slice" transform="matrix(-0.82903757,-0.5591929,0.5591929,-0.82903757,114.28602,214.94074)" height="180" width="180" y="0" x="0" fill="#dbdbd2"/>
		<use xlink:href="#slice" transform="matrix(-0.80901699,-0.58778525,0.58778525,-0.80901699,109.91086,215.7122)" height="180" width="180" y="0" x="0" fill="#dbdbd1"/>
		<use xlink:href="#slice" transform="matrix(-0.78801075,-0.61566148,0.61566148,-0.78801075,105.51144,216.3305)" height="180" width="180" y="0" x="0" fill="#dbdbd1"/>
		<use xlink:href="#slice" transform="matrix(-0.76604444,-0.64278761,0.64278761,-0.76604444,101.09312,216.79488)" height="180" width="180" y="0" x="0" fill="#dbdbd1"/>
		<use xlink:href="#slice" transform="matrix(-0.74314483,-0.66913061,0.66913061,-0.74314483,96.66128,217.10479)" height="180" width="180" y="0" x="0" fill="#dbdbd1"/>
		<use xlink:href="#slice" transform="matrix(-0.7193398,-0.69465837,0.69465837,-0.7193398,92.221329,217.25984)" height="180" width="180" y="0" x="0" fill="#dadad1"/>
		<use xlink:href="#slice" transform="matrix(-0.69465837,-0.7193398,0.7193398,-0.69465837,87.778671,217.25984)" height="180" width="180" y="0" x="0" fill="#dadad1"/>
		<use xlink:href="#slice" transform="matrix(-0.66913061,-0.74314483,0.74314483,-0.66913061,83.33872,217.10479)" height="180" width="180" y="0" x="0" fill="#dadad1"/>
		<use xlink:href="#slice" transform="matrix(-0.64278761,-0.76604444,0.76604444,-0.64278761,78.906885,216.79488)" height="180" width="180" y="0" x="0" fill="#dadad0"/>
		<use xlink:href="#slice" transform="matrix(-0.61566148,-0.78801075,0.78801075,-0.61566148,74.488565,216.3305)" height="180" width="180" y="0" x="0" fill="#dadad0"/>
		<use xlink:href="#slice" transform="matrix(-0.58778525,-0.80901699,0.80901699,-0.58778525,70.089143,215.7122)" height="180" width="180" y="0" x="0" fill="#dadad0"/>
		<use xlink:href="#slice" transform="matrix(-0.5591929,-0.82903757,0.82903757,-0.5591929,65.71398,214.94074)" height="180" width="180" y="0" x="0" fill="#d9d9d0"/>
		<use xlink:href="#slice" transform="matrix(-0.52991926,-0.8480481,0.8480481,-0.52991926,61.368405,214.01706)" height="180" width="180" y="0" x="0" fill="#d9d9d0"/>
		<use xlink:href="#slice" transform="matrix(-0.5,-0.8660254,0.8660254,-0.5,57.057714,212.94229)" height="180" width="180" y="0" x="0" fill="#d9d9d0"/>
		<use xlink:href="#slice" transform="matrix(-0.46947156,-0.88294759,0.88294759,-0.46947156,52.787157,211.71772)" height="180" width="180" y="0" x="0" fill="#d9d9d0"/>
		<use xlink:href="#slice" transform="matrix(-0.43837115,-0.89879405,0.89879405,-0.43837115,48.561939,210.34487)" height="180" width="180" y="0" x="0" fill="#d9d9cf"/>
		<use xlink:href="#slice" transform="matrix(-0.40673664,-0.91354546,0.91354546,-0.40673664,44.387207,208.82539)" height="180" width="180" y="0" x="0" fill="#d9d9cf"/>
		<use xlink:href="#slice" transform="matrix(-0.37460659,-0.92718385,0.92718385,-0.37460659,40.268046,207.16114)" height="180" width="180" y="0" x="0" fill="#d8d8cf"/>
		<use xlink:href="#slice" transform="matrix(-0.34202014,-0.93969262,0.93969262,-0.34202014,36.209477,205.35415)" height="180" width="180" y="0" x="0" fill="#d8d8cf"/>
		<use xlink:href="#slice" transform="matrix(-0.30901699,-0.95105652,0.95105652,-0.30901699,32.216443,203.40662)" height="180" width="180" y="0" x="0" fill="#d8d8cf"/>
		<use xlink:href="#slice" transform="matrix(-0.27563736,-0.9612617,0.9612617,-0.27563736,28.293809,201.32091)" height="180" width="180" y="0" x="0" fill="#d8d8cf"/>
		<use xlink:href="#slice" transform="matrix(-0.2419219,-0.97029573,0.97029573,-0.2419219,24.446355,199.09959)" height="180" width="180" y="0" x="0" fill="#d8d8cf"/>
		<use xlink:href="#slice" transform="matrix(-0.20791169,-0.9781476,0.9781476,-0.20791169,20.678768,196.74534)" height="180" width="180" y="0" x="0" fill="#d8d8ce"/>
		<use xlink:href="#slice" transform="matrix(-0.17364818,-0.98480775,0.98480775,-0.17364818,16.995638,194.26103)" height="180" width="180" y="0" x="0" fill="#d7d7ce"/>
		<use xlink:href="#slice" transform="matrix(-0.1391731,-0.99026807,0.99026807,-0.1391731,13.401453,191.64971)" height="180" width="180" y="0" x="0" fill="#d7d7ce"/>
		<use xlink:href="#slice" transform="matrix(-0.10452846,-0.9945219,0.9945219,-0.10452846,9.9005911,188.91453)" height="180" width="180" y="0" x="0" fill="#d7d7ce"/>
		<use xlink:href="#slice" transform="matrix(-0.06975647,-0.99756405,0.99756405,-0.06975647,6.4973181,186.05885)" height="180" width="180" y="0" x="0" fill="#d7d7ce"/>
		<use xlink:href="#slice" transform="matrix(-0.0348995,-0.99939083,0.99939083,-0.0348995,3.1957803,183.08613)" height="180" width="180" y="0" x="0" fill="#d7d7ce"/>
		<use xlink:href="#slice" transform="matrix(0,-1,1,0,0,180)" height="180" width="180" y="0" x="0" fill="#d7d7ce"/>
		<use xlink:href="#slice" transform="matrix(0.0348995,-0.99939083,0.99939083,0.0348995,-3.0861291,176.80422)" height="180" width="180" y="0" x="0" fill="#d6d6ce"/>
		<use xlink:href="#slice" transform="matrix(0.06975647,-0.99756405,0.99756405,0.06975647,-6.0588472,173.50268)" height="180" width="180" y="0" x="0" fill="#d6d6cd"/>
		<use xlink:href="#slice" transform="matrix(0.10452846,-0.9945219,0.9945219,0.10452846,-8.9145323,170.09941)" height="180" width="180" y="0" x="0" fill="#d6d6cd"/>
		<use xlink:href="#slice" transform="matrix(0.1391731,-0.99026807,0.99026807,0.1391731,-11.649705,166.59855)" height="180" width="180" y="0" x="0" fill="#d6d6cd"/>
		<use xlink:href="#slice" transform="matrix(0.17364818,-0.98480775,0.98480775,0.17364818,-14.261034,163.00436)" height="180" width="180" y="0" x="0" fill="#d6d6cd"/>
		<use xlink:href="#slice" transform="matrix(0.20791169,-0.9781476,0.9781476,0.20791169,-16.745336,159.32123)" height="180" width="180" y="0" x="0" fill="#d6d6cd"/>
		<use xlink:href="#slice" transform="matrix(0.2419219,-0.97029573,0.97029573,0.2419219,-19.099586,155.55364)" height="180" width="180" y="0" x="0" fill="#d5d5cd"/>
		<use xlink:href="#slice" transform="matrix(0.27563736,-0.9612617,0.9612617,0.27563736,-21.320915,151.70619)" height="180" width="180" y="0" x="0" fill="#d5d5cd"/>
		<use xlink:href="#slice" transform="matrix(0.30901699,-0.95105652,0.95105652,0.30901699,-23.406616,147.78356)" height="180" width="180" y="0" x="0" fill="#d5d5cc"/>
		<use xlink:href="#slice" transform="matrix(0.34202014,-0.93969262,0.93969262,0.34202014,-25.354149,143.79052)" height="180" width="180" y="0" x="0" fill="#d5d5cc"/>
		<use xlink:href="#slice" transform="matrix(0.37460659,-0.92718385,0.92718385,0.37460659,-27.16114,139.73195)" height="180" width="180" y="0" x="0" fill="#d5d5cc"/>
		<use xlink:href="#slice" transform="matrix(0.40673664,-0.91354546,0.91354546,0.40673664,-28.825389,135.61279)" height="180" width="180" y="0" x="0" fill="#d5d5cc"/>
		<use xlink:href="#slice" transform="matrix(0.43837115,-0.89879405,0.89879405,0.43837115,-30.344867,131.43806)" height="180" width="180" y="0" x="0" fill="#d5d5cc"/>
		<use xlink:href="#slice" transform="matrix(0.46947156,-0.88294759,0.88294759,0.46947156,-31.717724,127.21284)" height="180" width="180" y="0" x="0" fill="#d4d4cc"/>
		<use xlink:href="#slice" transform="matrix(0.5,-0.8660254,0.8660254,0.5,-32.942286,122.94229)" height="180" width="180" y="0" x="0" fill="#d4d4cc"/>
		<use xlink:href="#slice" transform="matrix(0.52991926,-0.8480481,0.8480481,0.52991926,-34.017062,118.63159)" height="180" width="180" y="0" x="0" fill="#d4d4cb"/>
		<use xlink:href="#slice" transform="matrix(0.5591929,-0.82903757,0.82903757,0.5591929,-34.940743,114.28602)" height="180" width="180" y="0" x="0" fill="#d4d4cb"/>
		<use xlink:href="#slice" transform="matrix(0.58778525,-0.80901699,0.80901699,0.58778525,-35.712202,109.91086)" height="180" width="180" y="0" x="0" fill="#d4d4cb"/>
		<use xlink:href="#slice" transform="matrix(0.61566148,-0.78801075,0.78801075,0.61566148,-36.330501,105.51144)" height="180" width="180" y="0" x="0" fill="#d4d4cb"/>
		<use xlink:href="#slice" transform="matrix(0.64278761,-0.76604444,0.76604444,0.64278761,-36.794885,101.09312)" height="180" width="180" y="0" x="0" fill="#d3d3cb"/>
		<use xlink:href="#slice" transform="matrix(0.66913061,-0.74314483,0.74314483,0.66913061,-37.104789,96.66128)" height="180" width="180" y="0" x="0" fill="#d3d3cb"/>
		<use xlink:href="#slice" transform="matrix(0.69465837,-0.7193398,0.7193398,0.69465837,-37.259835,92.221329)" height="180" width="180" y="0" x="0" fill="#d3d3cb"/>
		<use xlink:href="#slice" transform="matrix(0.7193398,-0.69465837,0.69465837,0.7193398,-37.259835,87.778671)" height="180" width="180" y="0" x="0" fill="#d3d3ca"/>
		<use xlink:href="#slice" transform="matrix(0.74314483,-0.66913061,0.66913061,0.74314483,-37.104789,83.33872)" height="180" width="180" y="0" x="0" fill="#d3d3ca"/>
		<use xlink:href="#slice" transform="matrix(0.76604444,-0.64278761,0.64278761,0.76604444,-36.794885,78.906885)" height="180" width="180" y="0" x="0" fill="#d3d3ca"/>
		<use xlink:href="#slice" transform="matrix(0.78801075,-0.61566148,0.61566148,0.78801075,-36.330501,74.488565)" height="180" width="180" y="0" x="0" fill="#d2d2ca"/>
		<use xlink:href="#slice" transform="matrix(0.80901699,-0.58778525,0.58778525,0.80901699,-35.712202,70.089143)" height="180" width="180" y="0" x="0" fill="#d2d2ca"/>
		<use xlink:href="#slice" transform="matrix(0.82903757,-0.5591929,0.5591929,0.82903757,-34.940743,65.71398)" height="180" width="180" y="0" x="0" fill="#d2d2ca"/>
		<use xlink:href="#slice" transform="matrix(0.8480481,-0.52991926,0.52991926,0.8480481,-34.017062,61.368405)" height="180" width="180" y="0" x="0" fill="#d2d2ca"/>
		<use xlink:href="#slice" transform="matrix(0.8660254,-0.5,0.5,0.8660254,-32.942286,57.057714)" height="180" width="180" y="0" x="0" fill="#d2d2c9"/>
		<use xlink:href="#slice" transform="matrix(0.88294759,-0.46947156,0.46947156,0.88294759,-31.717724,52.787157)" height="180" width="180" y="0" x="0" fill="#d2d2c9"/>
		<use xlink:href="#slice" transform="matrix(0.89879405,-0.43837115,0.43837115,0.89879405,-30.344867,48.561939)" height="180" width="180" y="0" x="0" fill="#d1d1c9"/>
		<use xlink:href="#slice" transform="matrix(0.91354546,-0.40673664,0.40673664,0.91354546,-28.825389,44.387207)" height="180" width="180" y="0" x="0" fill="#d1d1c9"/>
		<use xlink:href="#slice" transform="matrix(0.92718385,-0.37460659,0.37460659,0.92718385,-27.16114,40.268046)" height="180" width="180" y="0" x="0" fill="#d1d1c9"/>
		<use xlink:href="#slice" transform="matrix(0.93969262,-0.34202014,0.34202014,0.93969262,-25.354149,36.209477)" height="180" width="180" y="0" x="0" fill="#d1d1c9"/>
		<use xlink:href="#slice" transform="matrix(0.95105652,-0.30901699,0.30901699,0.95105652,-23.406616,32.216443)" height="180" width="180" y="0" x="0" fill="#d1d1c9"/>
		<use xlink:href="#slice" transform="matrix(0.9612617,-0.27563736,0.27563736,0.9612617,-21.320915,28.293809)" height="180" width="180" y="0" x="0" fill="#d1d1c8"/>
		<use xlink:href="#slice" transform="matrix(0.97029573,-0.2419219,0.2419219,0.97029573,-19.099586,24.446355)" height="180" width="180" y="0" x="0" fill="#d0d0c8"/>
		<use xlink:href="#slice" transform="matrix(0.9781476,-0.20791169,0.20791169,0.9781476,-16.745336,20.678768)" height="180" width="180" y="0" x="0" fill="#d0d0c8"/>
		<use xlink:href="#slice" transform="matrix(0.98480775,-0.17364818,0.17364818,0.98480775,-14.261034,16.995638)" height="180" width="180" y="0" x="0" fill="#d0d0c8"/>
		<use xlink:href="#slice" transform="matrix(0.99026807,-0.1391731,0.1391731,0.99026807,-11.649705,13.401453)" height="180" width="180" y="0" x="0" fill="#d0d0c8"/>
		<use xlink:href="#slice" transform="matrix(0.9945219,-0.10452846,0.10452846,0.9945219,-8.9145323,9.9005911)" height="180" width="180" y="0" x="0" fill="#d0d0c8"/>
		<use xlink:href="#slice" transform="matrix(0.99756405,-0.06975647,0.06975647,0.99756405,-6.0588472,6.4973181)" height="180" width="180" y="0" x="0" fill="#d0d0c8"/>
		<use xlink:href="#slice" transform="matrix(0.99939083,-0.0348995,0.0348995,0.99939083,-3.0861291,3.1957803)" height="180" width="180" y="0" x="0" fill="#d0d0c8"/>
	</g>
</svg>
