<svg id="ae0fcc69-2255-4086-a1c5-cd5bb38c00af" data-name="Layer 1" xmlns="http://www.w3.org/2000/svg" viewBox="0 0 398.81367 576.25001">
  <style>svg {cursor : none;}</style>
  <title>gaia-scan-btc_v1</title>
  <g>
    <g>
      <g>
        <path d="M398.00931,339.77418q.56631,10.6645.55521,21.34379c-.01851,28.14642-.07773,102.78679-.07773,111.01358,0,10.16142-2.62429,12.05905-2.62429,12.05905h-2.99444a5.75426,5.75426,0,0,0,.47748-1.75337l.54411-5.11585c.18507-1.746.29241-3.503.31832-5.26011l.39235-27.82461a21.21683,21.21683,0,0,0,.65144-3.39207,31.00793,31.00793,0,0,0,.18878-3.21081c.07773-8.31927.422-46.64561.422-62.10413,0-17.39315-.54411-46.85275-.54411-46.85275l-2.132-79.86719Z" fill="#0c2730"/>
        <path d="M394.60032,444.23666A21.07746,21.07746,0,0,1,375.46777,459.599l-.42937.0222H23.77526l-.42936-.0222a21.045,21.045,0,0,1-19.784-18.75442,31.00792,31.00792,0,0,1-.18877-3.21081c-.07773-8.31927-.422-46.64561-.422-62.10413,0-17.39315.54411-46.85275.54411-46.85275l2.132-79.86719.05553-2.0752S10.10968,38.92668,10.10968,34.88357a40.85715,40.85715,0,0,1,.42937-6.46232A19.14391,19.14391,0,0,1,23.36441,14.42387a16.177,16.177,0,0,1,3.10918-.64364l3.38678-.38841a87.72512,87.72512,0,0,1,10.14925-.56226c18.4663.05179,91.40984.21085,159.39721-.0148,67.98737.22565,140.93092.06659,159.39722.0148a87.72512,87.72512,0,0,1,10.14925.56226l3.38678.38841a16.177,16.177,0,0,1,3.10918.64364,19.144,19.144,0,0,1,12.82536,13.99738,40.85808,40.85808,0,0,1,.42936,6.46232c0,4.04311,4.42688,211.85094,4.42688,211.85094l.05552,2.0752,2.132,79.86719s.54411,29.4596.54411,46.85275c0,15.45852-.34423,53.78486-.422,62.10413a31.00793,31.00793,0,0,1-.18878,3.21081A21.21683,21.21683,0,0,1,394.60032,444.23666ZM311.46311,323.54255A12.57747,12.57747,0,0,0,324.03677,310.555l-1.13633-71.58491A10.66918,10.66918,0,0,0,312.233,228.65333H208.83431a11.82109,11.82109,0,0,0-11.826,11.8778l.37755,72.38392c.02961,5.87786,4.44538,10.6275,9.88644,10.6275h104.1908ZM303.39405,192.761a12.40237,12.40237,0,0,0,12.4071-12.48815l-.83652-113.66213a14.16419,14.16419,0,0,0-14.169-14.05287H98.018A14.16419,14.16419,0,0,0,83.849,66.61072l-.83651,113.66213A12.40237,12.40237,0,0,0,95.41962,192.761H303.39405Zm7.11039,201.57855v-6.392H216.13717v6.392ZM206.48392,27.59635c0-3.48455-3.16841-6.307-7.07709-6.307s-7.07708,2.82241-7.07708,6.307c0,3.48085,3.1684,6.30326,7.07708,6.30326S206.48392,31.0772,206.48392,27.59635Zm-50.3687,381.166a9.07,9.07,0,0,0-9.06843-9.07018H89.8342a9.06834,9.06834,0,1,0,0,18.13667h57.21259a9.07082,9.07082,0,0,0,9.06843-9.06649Zm-24.21457-95.81769a4.06345,4.06345,0,0,0,4.06414-4.15039l-.02962-1.33167-.17026-7.84948-.14435-6.65838a2.79992,2.79992,0,0,0-2.79827-2.73733H53.99352a3.98173,3.98173,0,0,0-3.98271,3.91734l-.08143,5.47837-.11845,7.84948-.02591,1.69788a3.72886,3.72886,0,0,0,3.731,3.78418Zm-22.6748,10.05414c0-.05178,0-.09987-.0037-.15166a3.33362,3.33362,0,0,0-3.33126-3.18122H79.37033a3.331,3.331,0,1,0,0,6.66207h26.52056A3.33365,3.33365,0,0,0,109.22585,322.99878Z" fill="#f2f2f2"/>
        <path d="M394.60032,444.23666l-.39235,27.82461c-.02591,1.75707-.13325,3.51414-.31832,5.26011l-.54411,5.11585a5.75426,5.75426,0,0,1-.47748,1.75337h-.0037a5.63753,5.63753,0,0,1-1.86551,2.25275l-7.599-.04439-183.993-1.08383L15.41379,486.399l-7.599.04439a5.70223,5.70223,0,0,1-1.60641-1.74967,4.9619,4.9619,0,0,1-.25909-.50308H5.9456a5.75455,5.75455,0,0,1-.47748-1.75337l-.5441-5.11585c-.18507-1.746-.29241-3.503-.31832-5.26011l-.39235-27.82461A21.07751,21.07751,0,0,0,23.3459,459.599l.42936.0222H375.0384l.42937-.0222A21.07746,21.07746,0,0,0,394.60032,444.23666Z" fill="#e6e6e6"/>
        <polygon points="383.4 486.399 383.4 486.443 354.211 509.714 199.407 508.753 44.603 509.714 15.414 486.443 15.414 486.399 199.407 485.315 383.4 486.399" fill="#ccc"/>
        <path d="M377.82556.24893c3.09437,3.09615,2.97223,12.78778,2.87229,15.47332-.01481.4217-.04812.8434-.09624,1.26139a19.05634,19.05634,0,0,0-5.15235-2.55977,16.177,16.177,0,0,0-3.10918-.64364l-3.38678-.38841a87.72512,87.72512,0,0,0-10.14925-.56226c-18.4663.05179-91.40985.21085-159.39722-.0148-67.98737.22565-140.93091.06659-159.39721.0148a87.72512,87.72512,0,0,0-10.14925.56226l-3.38678.38841a16.177,16.177,0,0,0-3.10918.64364,19.0564,19.0564,0,0,0-5.15236,2.55977c-.04811-.418-.08143-.83969-.09623-1.26139-.09994-2.68554-.22209-12.37717,2.87229-15.47332H377.82556Z" fill="#e6e6e6"/>
        <path d="M324.03677,310.555a12.57747,12.57747,0,0,1-12.57366,12.98753H207.27231c-5.44106,0-9.85683-4.74964-9.88644-10.6275l-.37755-72.38392a11.82109,11.82109,0,0,1,11.826-11.8778H312.233a10.66918,10.66918,0,0,1,10.66744,10.31678Zm-59.3594-34.45708a4.15112,4.15112,0,1,0-4.14927,4.14669A4.1493,4.1493,0,0,0,264.67737,276.09794Z" fill="#e6e6e6"/>
        <path d="M315.80115,180.27285a12.40237,12.40237,0,0,1-12.4071,12.48815H95.41962a12.40237,12.40237,0,0,1-12.4071-12.48815L83.849,66.61072A14.16419,14.16419,0,0,1,98.018,52.55785H300.79566a14.16419,14.16419,0,0,1,14.169,14.05287Zm-5.96666,7.51287a8.997,8.997,0,0,0,2.6354-6.45493l-.83652-113.51786a10.86571,10.86571,0,0,0-10.83771-10.74958H98.018A10.8657,10.8657,0,0,0,87.1803,67.81293l-.83652,113.51786a9.07729,9.07729,0,0,0,9.07584,9.13677H303.39405A9.01042,9.01042,0,0,0,309.83449,187.78572Z" fill="#e6e6e6"/>
        <path d="M312.46989,181.33079a9.07729,9.07729,0,0,1-9.07584,9.13677H95.41962a9.07729,9.07729,0,0,1-9.07584-9.13677L87.1803,67.81293A10.8657,10.8657,0,0,1,98.018,57.06335H300.79566a10.86571,10.86571,0,0,1,10.83771,10.74958Z" fill="#37e8d7"/>
        <rect x="216.13717" y="387.94752" width="94.36727" height="6.39204" fill="#1a1a1a"/>
        <path d="M260.5281,271.94755a4.14854,4.14854,0,1,1-4.153,4.15039A4.1493,4.1493,0,0,1,260.5281,271.94755Z" fill="#1a1a1a"/>
        <path d="M199.40683,21.28939c3.90868,0,7.07709,2.82241,7.07709,6.307,0,3.48085-3.16841,6.30326-7.07709,6.30326s-7.07708-2.82241-7.07708-6.30326C192.32975,24.1118,195.49815,21.28939,199.40683,21.28939Zm3.44231,6.82114a3.44984,3.44984,0,1,0-3.44231,3.22191A3.33681,3.33681,0,0,0,202.84914,28.11053Z" fill="#e6e6e6"/>
        <ellipse cx="199.40683" cy="28.11053" rx="3.4423" ry="3.22191" fill="#1a1a1a"/>
        <path d="M147.04679,399.69215a9.06834,9.06834,0,0,1,0,18.13667H89.8342a9.06834,9.06834,0,0,1,0-18.13667Z" fill="#e6e6e6"/>
        <path d="M135.96479,308.79425a4.06345,4.06345,0,0,1-4.06414,4.15039H53.516a3.72886,3.72886,0,0,1-3.731-3.78418l.02591-1.69788h86.12424Z" fill="#e6e6e6"/>
        <polygon points="135.765 299.613 135.935 307.463 49.811 307.463 49.929 299.613 135.765 299.613" fill="#1a1a1a"/>
        <path d="M135.62056,292.95472l.14435,6.65838H49.92938l.08143-5.47837a3.98173,3.98173,0,0,1,3.98271-3.91734h78.82877A2.79992,2.79992,0,0,1,135.62056,292.95472Z" fill="#e6e6e6"/>
        <path d="M109.22215,322.84712c.0037.05179.0037.09988.0037.15166a3.33365,3.33365,0,0,1-3.335,3.32919H79.37033a3.331,3.331,0,1,1,0-6.66207h26.52056A3.33362,3.33362,0,0,1,109.22215,322.84712Z" fill="#e6e6e6"/>
        <path d="M5.9456,484.1906H2.95117S.32687,482.293.32687,472.13155c0-8.22679-.05922-82.86716-.07772-111.01358Q.238,350.43683.80436,339.77418l4.82292-90.96447-2.132,79.86719s-.54411,29.4596-.54411,46.85275c0,15.45852.34423,53.78486.422,62.10413a31.00792,31.00792,0,0,0,.18877,3.21081,21.21684,21.21684,0,0,0,.65145,3.39207l.39235,27.82461c.02591,1.75707.13325,3.51414.31832,5.26011l.5441,5.11585A5.75455,5.75455,0,0,0,5.9456,484.1906Z" fill="#0c2730"/>
      </g>
      <g>
        <path d="M5.9456,484.1906H2.95117S.32687,482.293.32687,472.13155c0-8.22679-.05922-82.86716-.07772-111.01358Q.238,350.43683.80436,339.77418l4.82292-90.96447" fill="none" stroke="#0c2730" stroke-miterlimit="10" stroke-width="0.49786"/>
        <path d="M380.60161,16.98364c.04812-.418.08143-.83969.09624-1.26139.09994-2.68554.22208-12.37717-2.87229-15.47332H20.98811c-3.09438,3.09615-2.97223,12.78778-2.87229,15.47332.0148.4217.04812.8434.09623,1.26139" fill="none" stroke="#e6e6e6" stroke-miterlimit="10" stroke-width="0.49786"/>
        <path d="M4.21335,444.23666A21.07751,21.07751,0,0,0,23.3459,459.599l.42936.0222H375.0384l.42937-.0222a21.045,21.045,0,0,0,19.784-18.75442,31.00793,31.00793,0,0,0,.18878-3.21081c.07773-8.31927.422-46.64561.422-62.10413,0-17.39315-.54411-46.85275-.54411-46.85275l-2.132-79.86719-.05552-2.0752S388.704,38.92668,388.704,34.88357a40.85808,40.85808,0,0,0-.42936-6.46232,19.144,19.144,0,0,0-12.82536-13.99738,16.177,16.177,0,0,0-3.10918-.64364l-3.38678-.38841a87.72512,87.72512,0,0,0-10.14925-.56226c-18.4663.05179-91.40985.21085-159.39722-.0148-67.98737.22565-140.93091.06659-159.39721.0148a87.72512,87.72512,0,0,0-10.14925.56226l-3.38678.38841a16.177,16.177,0,0,0-3.10918.64364A19.14391,19.14391,0,0,0,10.53905,28.42125a40.85715,40.85715,0,0,0-.42937,6.46232c0,4.04311-4.42687,211.85094-4.42687,211.85094l-.05553,2.0752-2.132,79.86719s-.54411,29.4596-.54411,46.85275c0,15.45852.34423,53.78486.422,62.10413a31.00792,31.00792,0,0,0,.18877,3.21081A21.21684,21.21684,0,0,0,4.21335,444.23666Z" fill="none" stroke="#f2f2f2" stroke-miterlimit="10" stroke-width="0.49786"/>
        <path d="M5.9456,484.1906a5.75455,5.75455,0,0,1-.47748-1.75337l-.5441-5.11585c-.18507-1.746-.29241-3.503-.31832-5.26011l-.39235-27.82461v-.01479" fill="none" stroke="#e6e6e6" stroke-miterlimit="10" stroke-width="0.49786"/>
        <line x1="5.94931" y1="484.1906" x2="5.9456" y2="484.1906" fill="none" stroke="#0c2730" stroke-miterlimit="10" stroke-width="0.49786"/>
        <path d="M392.86436,484.1906a5.63753,5.63753,0,0,1-1.86551,2.25275l-7.599-.04439-183.993-1.08383L15.41379,486.399l-7.599.04439a5.70223,5.70223,0,0,1-1.60641-1.74967,4.9619,4.9619,0,0,1-.25909-.50308" fill="none" stroke="#e6e6e6" stroke-miterlimit="10" stroke-width="0.49786"/>
        <path d="M394.60032,444.22187v.01479l-.39235,27.82461c-.02591,1.75707-.13325,3.51414-.31832,5.26011l-.54411,5.11585a5.75426,5.75426,0,0,1-.47748,1.75337" fill="none" stroke="#e6e6e6" stroke-miterlimit="10" stroke-width="0.49786"/>
        <polyline points="383.4 486.443 354.211 509.714 199.407 508.753 44.603 509.714 15.414 486.443" fill="none" stroke="#ccc" stroke-miterlimit="10" stroke-width="0.49786"/>
        <path d="M392.86806,484.1906h2.99444s2.62429-1.89763,2.62429-12.05905c0-8.22679.05922-82.86716.07773-111.01358q.0111-10.68114-.55521-21.34379l-4.82293-90.96447" fill="none" stroke="#0c2730" stroke-miterlimit="10" stroke-width="0.49786"/>
        <line x1="392.86436" y1="484.1906" x2="392.86806" y2="484.1906" fill="none" stroke="#e6e6e6" stroke-miterlimit="10" stroke-width="0.49786"/>
        <path d="M199.40683,52.55785H300.79566a14.16419,14.16419,0,0,1,14.169,14.05287l.83652,113.66213a12.40237,12.40237,0,0,1-12.4071,12.48815H95.41962a12.40237,12.40237,0,0,1-12.4071-12.48815L83.849,66.61072A14.16419,14.16419,0,0,1,98.018,52.55785Z" fill="none" stroke="#e6e6e6" stroke-miterlimit="10" stroke-width="0.49786"/>
        <path d="M199.40683,57.06335H300.79566a10.86571,10.86571,0,0,1,10.83771,10.74958l.83652,113.51786a9.07729,9.07729,0,0,1-9.07584,9.13677H95.41962a9.07729,9.07729,0,0,1-9.07584-9.13677L87.1803,67.81293A10.8657,10.8657,0,0,1,98.018,57.06335Z" fill="none" stroke="#37e8d7" stroke-miterlimit="10" stroke-width="0.49786"/>
        <path d="M208.83431,228.65333a11.82109,11.82109,0,0,0-11.826,11.8778l.37755,72.38392c.02961,5.87786,4.44538,10.6275,9.88644,10.6275h104.1908A12.57747,12.57747,0,0,0,324.03677,310.555l-1.13633-71.58491A10.66918,10.66918,0,0,0,312.233,228.65333Z" fill="none" stroke="#e6e6e6" stroke-miterlimit="10" stroke-width="0.49786"/>
        <ellipse cx="199.40683" cy="28.11053" rx="3.4423" ry="3.22191" fill="none" stroke="#0c2730" stroke-miterlimit="10" stroke-width="0.49786"/>
        <path d="M206.48392,27.59635c0-3.48455-3.16841-6.307-7.07709-6.307s-7.07708,2.82241-7.07708,6.307c0,3.48085,3.1684,6.30326,7.07708,6.30326S206.48392,31.0772,206.48392,27.59635Z" fill="none" stroke="#e6e6e6" stroke-miterlimit="10" stroke-width="0.49786"/>
        <path d="M49.92938,299.6131l.08143-5.47837a3.98173,3.98173,0,0,1,3.98271-3.91734h78.82877a2.79992,2.79992,0,0,1,2.79827,2.73733l.14435,6.65838" fill="none" stroke="#e6e6e6" stroke-miterlimit="10" stroke-width="0.49786"/>
        <path d="M135.93517,307.46258l.02962,1.33167a4.06345,4.06345,0,0,1-4.06414,4.15039H53.516a3.72886,3.72886,0,0,1-3.731-3.78418l.02591-1.69788" fill="none" stroke="#e6e6e6" stroke-miterlimit="10" stroke-width="0.49786"/>
        <line x1="135.76491" y1="299.6131" x2="135.93517" y2="307.46258" fill="none" stroke="#e6e6e6" stroke-miterlimit="10" stroke-width="0.49786"/>
        <line x1="49.92938" y1="299.6131" x2="135.76491" y2="299.6131" fill="none" stroke="#1a1a1a" stroke-miterlimit="10" stroke-width="0.49786"/>
        <line x1="49.81093" y1="307.46258" x2="49.92938" y2="299.6131" fill="none" stroke="#e6e6e6" stroke-miterlimit="10" stroke-width="0.49786"/>
        <path d="M105.89089,326.328H79.37033a3.331,3.331,0,1,1,0-6.66207h26.52056a3.33362,3.33362,0,0,1,3.33126,3.18122c.0037.05179.0037.09988.0037.15166A3.33365,3.33365,0,0,1,105.89089,326.328Z" fill="none" stroke="#e6e6e6" stroke-miterlimit="10" stroke-width="0.49786"/>
        <path d="M147.04679,417.82882H89.8342a9.06834,9.06834,0,0,1,0-18.13667h57.21259a9.06834,9.06834,0,0,1,0,18.13667Z" fill="none" stroke="#e6e6e6" stroke-miterlimit="10" stroke-width="0.49786"/>
      </g>
    </g>
    <g>
      <line x1="115.63754" y1="84.49676" x2="196.59061" y2="84.49676" fill="none" stroke="#fff" stroke-linecap="round" stroke-linejoin="round" stroke-width="5.07813"/>
      <line x1="115.63754" y1="98.04382" x2="172.23893" y2="98.04382" fill="none" stroke="#fff" stroke-linecap="round" stroke-linejoin="round" stroke-width="5.07813"/>
      <line x1="115.63754" y1="119.30472" x2="172.23893" y2="119.30472" fill="none" stroke="#0e4160" stroke-linecap="round" stroke-linejoin="round" stroke-width="2.53906"/>
      <line x1="115.63754" y1="129.48969" x2="159.42147" y2="129.48969" fill="none" stroke="#0e4160" stroke-linecap="round" stroke-linejoin="round" stroke-width="2.53906"/>
      <line x1="115.63754" y1="147.6813" x2="159.42147" y2="147.6813" fill="none" stroke="#fff" stroke-linecap="round" stroke-linejoin="round" stroke-width="2.53906"/>
      <g>
        <g>
          <g>
            <g>
              <path d="M292.35371,237.51588V370.91846a8.83371,8.83371,0,0,1-.542,3.1744H221.51021a8.83371,8.83371,0,0,1-.542-3.1744V237.51588a9.35967,9.35967,0,0,1,.46454-2.94214h70.45639A9.35967,9.35967,0,0,1,292.35371,237.51588Z" fill="#1a1a1a"/>
              <path d="M291.88917,234.57374H221.43278a10.081,10.081,0,0,1,9.67808-7.20048h51.10023A10.081,10.081,0,0,1,291.88917,234.57374Z" fill="#1a1a1a"/>
              <path d="M221.51021,374.09286h70.30153a10.11607,10.11607,0,0,1-9.60065,6.96822H231.11086A10.11607,10.11607,0,0,1,221.51021,374.09286Z" fill="#1a1a1a"/>
            </g>
            <g>
              <path d="M291.81174,374.09286a10.11607,10.11607,0,0,1-9.60065,6.96822H231.11086a10.11607,10.11607,0,0,1-9.60065-6.96822,8.83371,8.83371,0,0,1-.542-3.1744V237.51588a9.35967,9.35967,0,0,1,.46454-2.94214,10.081,10.081,0,0,1,9.67808-7.20048h51.10023a10.081,10.081,0,0,1,9.67808,7.20048,9.35967,9.35967,0,0,1,.46454,2.94214V370.91846A8.83371,8.83371,0,0,1,291.81174,374.09286Z" fill="none" stroke="#231f20" stroke-miterlimit="10" stroke-width="0.44874"/>
              <line x1="221.43278" y1="234.57374" x2="291.88917" y2="234.57374" fill="none" stroke="#231f20" stroke-miterlimit="10" stroke-width="0.44874"/>
              <line x1="221.51021" y1="374.09286" x2="291.81174" y2="374.09286" fill="none" stroke="#231f20" stroke-miterlimit="10" stroke-width="0.44874"/>
            </g>
          </g>
          <circle cx="238.52852" cy="246.95933" r="4.89087" fill="#b3b3b3"/>
        </g>
        <path d="M301.76046,308.65658s-1.6404-8.14948-9.72175-6.103l4.171-1.44243a9.05223,9.05223,0,0,0,5.55075-11.1815s-1.72886-8.73015-10.52273-5.89832L229.49521,303.9779l-4.35434-14.95835a8.723,8.723,0,0,0-11.01505-6.17428l-.76445.25123a9.47582,9.47582,0,0,0-5.81055,11.70476l8.52733,29.29363V576.25h58.29437V357.57829l15.77589-5.04561a8.74666,8.74666,0,0,0,5.71062-10.63239,8.6478,8.6478,0,0,0-2.44171-4.2962l1.05151-.33627a8.7466,8.7466,0,0,0,5.71062-10.63239s-1.12976-5.76951-6.71822-5.91991l2.74848-.87733A9.0524,9.0524,0,0,0,301.76046,308.65658Z" fill="#b3b3b3"/>
      </g>
      <g>
        <rect x="219.55745" y="102.38457" width="66.21127" height="87.70582" fill="#f2f2f2"/>
        <g>
          <path d="M285.75613,102.07123l-.36-.072H219.87405l-.432.072a6.68351,6.68351,0,0,1,6.69621-6.69621h52.92167A6.68351,6.68351,0,0,1,285.75613,102.07123Z" fill="#1a1a1a"/>
          <g>
            <path d="M219.442,190.058V102.07123a6.68351,6.68351,0,0,1,6.69621-6.69621h52.92167a6.68351,6.68351,0,0,1,6.69622,6.69621V190.058" fill="none" stroke="#231f20" stroke-miterlimit="10" stroke-width="1.0392"/>
            <line x1="219.87405" y1="101.99922" x2="285.39611" y2="101.99922" fill="none" stroke="#231f20" stroke-miterlimit="10" stroke-width="1.0392"/>
          </g>
        </g>
        <g>
          <rect x="231.72449" y="117.58924" width="43.83918" height="43.83918" fill="#fff"/>
          <g>
            <rect x="231.72449" y="117.58924" width="14.61306" height="14.61306" fill="#231f20"/>
            <rect x="246.33755" y="117.58924" width="7.30653" height="7.30653" fill="#231f20"/>
            <rect x="253.64408" y="124.89577" width="7.30653" height="7.30653" fill="#231f20"/>
            <rect x="260.95061" y="117.58924" width="7.30653" height="7.30653" fill="#231f20"/>
            <rect x="268.25714" y="124.89577" width="7.30653" height="14.61306" fill="#231f20"/>
            <rect x="253.64408" y="139.50881" width="7.30653" height="7.30653" fill="#231f20"/>
            <polygon points="260.951 146.815 260.951 154.122 268.257 154.122 268.257 161.428 275.564 161.428 275.564 146.815 260.951 146.815" fill="#231f20"/>
            <rect x="246.33755" y="146.81536" width="7.30653" height="7.30653" fill="#231f20"/>
            <rect x="239.03102" y="132.2023" width="7.30653" height="7.30653" fill="#231f20"/>
            <rect x="231.72449" y="146.81536" width="7.30653" height="7.30653" fill="#231f20"/>
            <rect x="239.03102" y="154.12189" width="7.30653" height="7.30653" fill="#231f20"/>
            <rect x="231.72449" y="154.12189" width="7.30653" height="7.30653" fill="#231f20"/>
          </g>
        </g>
      </g>
    </g>
  </g>
</svg>
