<svg id="aed0e791-bc8d-414e-9b08-aef5f97fd51f" data-name="Layer 1" xmlns="http://www.w3.org/2000/svg" viewBox="0 0 398.81367 576.47565">
  <style>svg {cursor : none;}</style>
  <title>gaia-scan-front_v1</title>
  <g>
    <g>
      <g>
        <path d="M314.96463,66.61072l.83652,113.66213a12.40237,12.40237,0,0,1-12.4071,12.48815H95.41962a12.40237,12.40237,0,0,1-12.4071-12.48815L83.849,66.61072A14.16419,14.16419,0,0,1,98.018,52.55785H300.79566A14.16419,14.16419,0,0,1,314.96463,66.61072Zm-5.13014,121.175a8.997,8.997,0,0,0,2.6354-6.45493l-.83652-113.51786a10.86571,10.86571,0,0,0-10.83771-10.74958H98.018A10.86328,10.86328,0,0,0,87.1803,67.81293l-.83652,113.51786a9.07729,9.07729,0,0,0,9.07584,9.13677H303.39405A9.01042,9.01042,0,0,0,309.83449,187.78572Z" fill="#e6e6e6"/>
        <polygon points="383.4 486.443 354.211 509.714 199.407 508.753 44.603 509.714 15.414 486.443 15.414 486.399 199.407 485.315 383.4 486.399 383.4 486.443" fill="#ccc"/>
        <path d="M153.45762,415.17286a9.06731,9.06731,0,0,0-6.41083-15.48071H89.8342a9.06834,9.06834,0,1,0,0,18.13667h57.21259A9.02553,9.02553,0,0,0,153.45762,415.17286ZM49.785,309.16046a3.72886,3.72886,0,0,0,3.731,3.78418h78.38461a4.06262,4.06262,0,0,0,4.06043-4.15039l-.02961-1.33167h.0037l-.17026-7.84948-.14435-6.65838a2.79992,2.79992,0,0,0-2.79827-2.73733H53.99352a3.98173,3.98173,0,0,0-3.98271,3.91734l-.08143,5.47837-.11845,7.84948Zm26.254,13.72365a3.33326,3.33326,0,0,0,3.33126,3.44386h26.52056a3.33365,3.33365,0,0,0,3.335-3.32919c0-.05178,0-.09987-.0037-.15166a3.33362,3.33362,0,0,0-3.33126-3.18122H79.37033a3.33765,3.33765,0,0,0-3.33126,3.21821Zm121.3468-9.96906c.02961,5.87786,4.44538,10.6275,9.88644,10.6275H311.4594A12.57823,12.57823,0,0,0,324.03677,310.555l-1.13633-71.58491a10.67565,10.67565,0,0,0-10.67114-10.32048h-103.395a11.82424,11.82424,0,0,0-11.826,11.8815Zm2.021-279.01544c3.90868,0,7.07709-2.82241,7.07709-6.30326,0-3.48455-3.16841-6.307-7.07709-6.307s-7.07708,2.82241-7.07708,6.307C192.32975,31.0772,195.49815,33.89961,199.40683,33.89961Zm16.72664,360.43994h94.371v-6.392h-94.371ZM303.39405,192.761a12.40237,12.40237,0,0,0,12.4071-12.48815l-.83652-113.66213a14.16419,14.16419,0,0,0-14.169-14.05287H98.018A14.16419,14.16419,0,0,0,83.849,66.61072l-.83651,113.66213A12.40237,12.40237,0,0,0,95.41962,192.761H303.39405ZM10.10968,34.88357a40.85715,40.85715,0,0,1,.42937-6.46232A19.14391,19.14391,0,0,1,23.36441,14.42387a16.177,16.177,0,0,1,3.10918-.64364l3.38678-.38841a86.891,86.891,0,0,1,10.14554-.56226c18.47.05179,91.41355.21085,159.40092-.0148,67.98737.22565,140.93092.06659,159.39722.0148a86.90939,86.90939,0,0,1,10.14925.56226l3.38678.38841a16.23524,16.23524,0,0,1,3.10918.64364,19.144,19.144,0,0,1,12.82536,13.99738,40.85808,40.85808,0,0,1,.42936,6.46232c0,4.04311,4.42688,211.85094,4.42688,211.85094l.05552,2.0752,2.132,79.86719s.54411,29.4596.54411,46.84905c0,15.46222-.34423,53.78856-.422,62.10783a31.00793,31.00793,0,0,1-.18878,3.21081,21.04009,21.04009,0,0,1-19.784,18.75072l-.42937.0259H23.77526l-.42936-.0259a21.04017,21.04017,0,0,1-19.784-18.75072,31.00792,31.00792,0,0,1-.18877-3.21081c-.07773-8.31927-.422-46.64561-.422-62.10783,0-17.38945.54411-46.84905.54411-46.84905l2.132-79.86719.05553-2.0752S10.10968,38.92668,10.10968,34.88357Z" fill="#f2f2f2"/>
        <path d="M394.60032,444.23666l-.39235,27.82461c-.02591,1.75707-.13325,3.51414-.31832,5.26011l-.54411,5.11585a5.78321,5.78321,0,0,1-.47748,1.75337h-.0037a5.63753,5.63753,0,0,1-1.86551,2.25275l-7.599-.04439-183.993-1.08383L15.41379,486.399l-7.599.04439A5.67331,5.67331,0,0,1,6.2084,484.69a5.32422,5.32422,0,0,1-.25909-.49938H5.9456a5.7835,5.7835,0,0,1-.47748-1.75337l-.5441-5.11585c-.18507-1.746-.29241-3.503-.31832-5.26011l-.39235-27.82461A21.06863,21.06863,0,0,0,23.3459,459.59531l.42936.0259H375.0384l.42937-.0259A21.06919,21.06919,0,0,0,394.60032,444.23666Z" fill="#e6e6e6"/>
        <path d="M260.5281,280.24463a4.14854,4.14854,0,1,1,4.14927-4.14669A4.1493,4.1493,0,0,1,260.5281,280.24463Z" fill="#1a1a1a"/>
        <path d="M197.38587,312.91505l-.37755-72.38392a11.82424,11.82424,0,0,1,11.826-11.8815h103.395a10.67565,10.67565,0,0,1,10.67114,10.32048l1.13633,71.58491a12.57823,12.57823,0,0,1-12.57737,12.98753H207.27231C201.83125,323.54255,197.41548,318.79291,197.38587,312.91505Zm58.98926-36.81711a4.15112,4.15112,0,1,0,4.153-4.15039A4.1493,4.1493,0,0,0,256.37513,276.09794Z" fill="#e6e6e6"/>
        <path d="M89.8342,417.82882a9.06834,9.06834,0,0,1,0-18.13667h57.21259a9.06834,9.06834,0,0,1,0,18.13667Z" fill="#e6e6e6"/>
        <path d="M2.95117,375.526c0,15.46222.34423,53.78856.422,62.10783a31.00792,31.00792,0,0,0,.18877,3.21081,20.89154,20.89154,0,0,0,.65145,3.39207l.39235,27.82461c.02591,1.75707.13325,3.51414.31832,5.26011l.5441,5.11585a5.7835,5.7835,0,0,0,.47748,1.75337H2.95117S.32687,482.293.32687,472.13155c0-8.22679-.05922-82.86716-.07772-111.01728Q.238,350.43868.80436,339.77418l4.82292-90.96447-2.132,79.86719S2.95117,358.1365,2.95117,375.526Z" fill="#0c2730"/>
        <path d="M79.37033,326.328a3.331,3.331,0,0,1,0-6.66207h26.52056a3.33362,3.33362,0,0,1,3.33126,3.18122c.0037.05179.0037.09988.0037.15166a3.33365,3.33365,0,0,1-3.335,3.32919Z" fill="#e6e6e6"/>
        <path d="M377.82556.24893c3.09437,3.09615,2.97223,12.78778,2.87229,15.47332-.01481.4217-.04812.8397-.09624,1.26139a19.16411,19.16411,0,0,0-5.15235-2.55977,16.23524,16.23524,0,0,0-3.10918-.64364l-3.38678-.38841a86.90939,86.90939,0,0,0-10.14925-.56226c-18.4663.05179-91.40985.21085-159.39722-.0148-67.98737.22565-140.93091.06659-159.40092.0148a86.891,86.891,0,0,0-10.14554.56226l-3.38678.38841a16.177,16.177,0,0,0-3.10918.64364,19.16417,19.16417,0,0,0-5.15236,2.55977c-.04811-.42169-.08143-.83969-.09623-1.26139-.09994-2.68554-.22209-12.37717,2.87229-15.47332H377.82556Z" fill="#e6e6e6"/>
        <path d="M206.48392,27.59635c0,3.48085-3.16841,6.30326-7.07709,6.30326s-7.07708-2.82241-7.07708-6.30326c0-3.48455,3.1684-6.307,7.07708-6.307S206.48392,24.1118,206.48392,27.59635Zm-7.07709,3.73609a3.229,3.229,0,1,0-3.4423-3.22191A3.33681,3.33681,0,0,0,199.40683,31.33244Z" fill="#e6e6e6"/>
        <polygon points="49.929 299.613 135.765 299.613 135.931 307.463 49.811 307.463 49.929 299.613" fill="#1a1a1a"/>
        <path d="M135.76491,299.6131H49.92938l.08143-5.47837a3.98173,3.98173,0,0,1,3.98271-3.91734h78.82877a2.79992,2.79992,0,0,1,2.79827,2.73733Z" fill="#e6e6e6"/>
        <polygon points="135.765 299.613 135.935 307.463 135.931 307.463 135.765 299.613" fill="#1a1a1a"/>
        <rect x="216.13347" y="387.94752" width="94.37097" height="6.39204" fill="#1a1a1a"/>
        <path d="M395.44054,437.63378c.07773-8.31927.422-46.64561.422-62.10783,0-17.38945-.54411-46.84905-.54411-46.84905l-2.132-79.86719,4.82293,90.96447q.56631,10.6645.55521,21.34009c-.02221,28.15012-.07773,102.79049-.07773,111.01728,0,10.16142-2.62429,12.05905-2.62429,12.05905h-2.99444a5.78321,5.78321,0,0,0,.47748-1.75337l.54411-5.11585c.18507-1.746.29241-3.503.31832-5.26011l.39235-27.82461a20.89153,20.89153,0,0,0,.65144-3.39207A31.00793,31.00793,0,0,0,395.44054,437.63378Z" fill="#0c2730"/>
        <ellipse cx="199.40683" cy="28.11053" rx="3.4423" ry="3.22191" fill="#1a1a1a"/>
        <path d="M311.63337,67.81293l.83652,113.51786a9.07729,9.07729,0,0,1-9.07584,9.13677H95.41962a9.07729,9.07729,0,0,1-9.07584-9.13677L87.1803,67.81293A10.86328,10.86328,0,0,1,98.018,57.06335H300.79566A10.86571,10.86571,0,0,1,311.63337,67.81293Z" fill="#37e8d7"/>
        <path d="M49.81093,307.46258h86.12054l.02961,1.33167a4.06262,4.06262,0,0,1-4.06043,4.15039H53.516a3.72886,3.72886,0,0,1-3.731-3.78418Z" fill="#e6e6e6"/>
      </g>
      <g>
        <path d="M5.9456,484.1906H2.95117S.32687,482.293.32687,472.13155c0-8.22679-.05922-82.86716-.07772-111.01728Q.238,350.43868.80436,339.77418l4.82292-90.96447" fill="none" stroke="#0c2730" stroke-miterlimit="10" stroke-width="0.49786"/>
        <path d="M380.60161,16.98364c.04812-.42169.08143-.83969.09624-1.26139.09994-2.68554.22208-12.37717-2.87229-15.47332H20.98811c-3.09438,3.09615-2.97223,12.78778-2.87229,15.47332.0148.4217.04812.8397.09623,1.26139" fill="none" stroke="#e6e6e6" stroke-miterlimit="10" stroke-width="0.49786"/>
        <path d="M4.21335,444.23666A21.06863,21.06863,0,0,0,23.3459,459.59531l.42936.0259H375.0384l.42937-.0259a21.04009,21.04009,0,0,0,19.784-18.75072,31.00793,31.00793,0,0,0,.18878-3.21081c.07773-8.31927.422-46.64561.422-62.10783,0-17.38945-.54411-46.84905-.54411-46.84905l-2.132-79.86719-.05552-2.0752S388.704,38.92668,388.704,34.88357a40.85808,40.85808,0,0,0-.42936-6.46232,19.144,19.144,0,0,0-12.82536-13.99738,16.23524,16.23524,0,0,0-3.10918-.64364l-3.38678-.38841a86.90939,86.90939,0,0,0-10.14925-.56226c-18.4663.05179-91.40985.21085-159.39722-.0148-67.98737.22565-140.93091.06659-159.40092.0148a86.891,86.891,0,0,0-10.14554.56226l-3.38678.38841a16.177,16.177,0,0,0-3.10918.64364A19.14391,19.14391,0,0,0,10.53905,28.42125a40.85715,40.85715,0,0,0-.42937,6.46232c0,4.04311-4.42687,211.85094-4.42687,211.85094l-.05553,2.0752-2.132,79.86719s-.54411,29.4596-.54411,46.84905c0,15.46222.34423,53.78856.422,62.10783a31.00792,31.00792,0,0,0,.18877,3.21081A20.89154,20.89154,0,0,0,4.21335,444.23666Z" fill="none" stroke="#f2f2f2" stroke-miterlimit="10" stroke-width="0.49786"/>
        <path d="M5.9456,484.1906a5.7835,5.7835,0,0,1-.47748-1.75337l-.5441-5.11585c-.18507-1.746-.29241-3.503-.31832-5.26011l-.39235-27.82461v-.01479" fill="none" stroke="#e6e6e6" stroke-miterlimit="10" stroke-width="0.49786"/>
        <line x1="5.94931" y1="484.1906" x2="5.9456" y2="484.1906" fill="none" stroke="#0c2730" stroke-miterlimit="10" stroke-width="0.49786"/>
        <path d="M392.86436,484.1906a5.63753,5.63753,0,0,1-1.86551,2.25275l-7.599-.04439-183.993-1.08383L15.41379,486.399l-7.599.04439A5.67331,5.67331,0,0,1,6.2084,484.69a5.32422,5.32422,0,0,1-.25909-.49938" fill="none" stroke="#e6e6e6" stroke-miterlimit="10" stroke-width="0.49786"/>
        <path d="M394.60032,444.22187v.01479l-.39235,27.82461c-.02591,1.75707-.13325,3.51414-.31832,5.26011l-.54411,5.11585a5.78321,5.78321,0,0,1-.47748,1.75337" fill="none" stroke="#e6e6e6" stroke-miterlimit="10" stroke-width="0.49786"/>
        <polyline points="383.4 486.443 354.211 509.714 199.407 508.753 44.603 509.714 15.414 486.443" fill="none" stroke="#ccc" stroke-miterlimit="10" stroke-width="0.49786"/>
        <path d="M392.86806,484.1906h2.99444s2.62429-1.89763,2.62429-12.05905c0-8.22679.05552-82.86716.07773-111.01728q.0111-10.67559-.55521-21.34009l-4.82293-90.96447" fill="none" stroke="#0c2730" stroke-miterlimit="10" stroke-width="0.49786"/>
        <line x1="392.86436" y1="484.1906" x2="392.86806" y2="484.1906" fill="none" stroke="#e6e6e6" stroke-miterlimit="10" stroke-width="0.49786"/>
        <path d="M199.40683,52.55785H300.79566a14.16419,14.16419,0,0,1,14.169,14.05287l.83652,113.66213a12.40237,12.40237,0,0,1-12.4071,12.48815H95.41962a12.40237,12.40237,0,0,1-12.4071-12.48815L83.849,66.61072A14.16419,14.16419,0,0,1,98.018,52.55785Z" fill="none" stroke="#e6e6e6" stroke-miterlimit="10" stroke-width="0.49786"/>
        <path d="M199.40683,57.06335H300.79566a10.86571,10.86571,0,0,1,10.83771,10.74958l.83652,113.51786a9.07729,9.07729,0,0,1-9.07584,9.13677H95.41962a9.07729,9.07729,0,0,1-9.07584-9.13677L87.1803,67.81293A10.86328,10.86328,0,0,1,98.018,57.06335Z" fill="none" stroke="#37e8d7" stroke-miterlimit="10" stroke-width="0.49786"/>
        <path d="M208.83431,228.64963a11.82424,11.82424,0,0,0-11.826,11.8815l.37755,72.38392c.02961,5.87786,4.44538,10.6275,9.88644,10.6275H311.4594A12.57823,12.57823,0,0,0,324.03677,310.555l-1.13633-71.58491a10.67565,10.67565,0,0,0-10.67114-10.32048Z" fill="none" stroke="#e6e6e6" stroke-miterlimit="10" stroke-width="0.49786"/>
        <ellipse cx="199.40683" cy="28.11053" rx="3.4423" ry="3.22191" fill="none" stroke="#0c2730" stroke-miterlimit="10" stroke-width="0.49786"/>
        <path d="M206.48392,27.59635c0-3.48455-3.16841-6.307-7.07709-6.307s-7.07708,2.82241-7.07708,6.307c0,3.48085,3.1684,6.30326,7.07708,6.30326S206.48392,31.0772,206.48392,27.59635Z" fill="none" stroke="#e6e6e6" stroke-miterlimit="10" stroke-width="0.49786"/>
        <path d="M49.92938,299.6131l.08143-5.47837a3.98173,3.98173,0,0,1,3.98271-3.91734h78.82877a2.79992,2.79992,0,0,1,2.79827,2.73733l.14435,6.65838" fill="none" stroke="#e6e6e6" stroke-miterlimit="10" stroke-width="0.49786"/>
        <path d="M135.93147,307.46258l.02961,1.33167a4.06262,4.06262,0,0,1-4.06043,4.15039H53.516a3.72886,3.72886,0,0,1-3.731-3.78418l.02591-1.69788" fill="none" stroke="#e6e6e6" stroke-miterlimit="10" stroke-width="0.49786"/>
        <line x1="49.92938" y1="299.6131" x2="135.76491" y2="299.6131" fill="none" stroke="#1a1a1a" stroke-miterlimit="10" stroke-width="0.49786"/>
        <path d="M105.89089,326.328H79.37033a3.331,3.331,0,0,1,0-6.66207h26.52056a3.33362,3.33362,0,0,1,3.33126,3.18122c.0037.05179.0037.09988.0037.15166A3.33365,3.33365,0,0,1,105.89089,326.328Z" fill="none" stroke="#e6e6e6" stroke-miterlimit="10" stroke-width="0.49786"/>
        <path d="M147.04679,417.82882H89.8342a9.06834,9.06834,0,0,1,0-18.13667h57.21259a9.06834,9.06834,0,0,1,0,18.13667Z" fill="none" stroke="#e6e6e6" stroke-miterlimit="10" stroke-width="0.49786"/>
      </g>
    </g>
    <g>
      <g>
        <polygon points="244.954 336.064 270.947 351.617 287.677 326.25 262.271 312.442 244.954 336.064" fill="#b3b3b3"/>
        <path d="M238.77418,311.55392a.279.279,0,0,0,.0627.00321l.00036-.00554,34.8107,7.77658L270.338,327.126l-32.51165-.15677.00015-.003c-.02114.00011-.0419.00285-.06314.0027-4.58348-.02211-8.07287-3.49083-7.79374-7.74759S233.64559,310.30219,238.77418,311.55392Z" fill="#b3b3b3"/>
        <path d="M241.36636,323.16271c.02005-.00118.03979.00027.06-.00068l-.0007-.00506,30.81351-1.72725,1.93562,14.08816-30.81341,1.72735-.00042-.00273c-.02.00132-.03914.005-.05927.00609-4.34407.24351-8.29889-2.71233-8.8333-6.602S237.02229,323.40622,241.36636,323.16271Z" fill="#b3b3b3"/>
        <path d="M243.66881,335.11376c.01822.00075.03581.00382.05413.00478l0-.00458,27.99654,1.22935-.13508,12.76152L243.588,347.87558v-.00248c-.0182-.00062-.03593.00095-.05423.00011-3.94693-.17331-7.11633-3.17012-7.079-6.69356S239.72188,334.94045,243.66881,335.11376Z" fill="#b3b3b3"/>
        <path d="M272.53664,301.43182a6.246,6.246,0,0,1,4.62354,1.61764l13.75255,11.63264a9.32384,9.32384,0,0,1,3.10388,6.79493l.47051,50.77812c-.007,2.95187-2.7262,5.21182-6.07348,5.0477l-12.13334-.59492c-3.34724-.16412-6.055-2.69011-6.04791-5.64195l2.43716-42.42535-10.63266-8.956-22.94418-.24164c-9.80308.158-15.31184-4.22728-13.72475-9.89037.93948-3.35227,2.86524-5.80891,10.41867-5.73893Z" fill="#b3b3b3"/>
        <g>
          <rect x="223.51622" y="251.09303" width="81.58825" height="53.12723" rx="4.02171" transform="translate(388.68407 -84.95106) rotate(62.5212)" fill="#2cb9ac"/>
          <g>
            <rect x="224.1573" y="250.93413" width="80.63955" height="52.17853" rx="3.16095" transform="translate(388.20427 -85.44269) rotate(62.51998)" fill="#37e8d7"/>
            <rect x="234.68984" y="265.59637" width="80.63957" height="11.89759" transform="translate(389.01672 -97.73718) rotate(62.52)" fill="#4a4a4a"/>
            <line x1="251.17334" y1="246.50182" x2="282.13265" y2="306.02483" fill="none" stroke="#4a4a4a" stroke-miterlimit="10" stroke-width="0.82207"/>
            <line x1="248.62072" y1="247.8295" x2="272.93362" y2="294.57398" fill="none" stroke="#4a4a4a" stroke-miterlimit="10" stroke-width="0.82207"/>
            <line x1="243.41849" y1="250.5353" x2="252.55796" y2="268.10703" fill="none" stroke="#4a4a4a" stroke-miterlimit="10" stroke-width="0.82207"/>
            <line x1="240.86587" y1="251.86298" x2="257.27056" y2="283.40296" fill="none" stroke="#4a4a4a" stroke-miterlimit="10" stroke-width="0.82207"/>
            <line x1="237.98393" y1="253.36194" x2="230.65991" y2="257.17134" fill="none" stroke="#4a4a4a" stroke-miterlimit="10" stroke-width="0.41104"/>
            <line x1="238.1736" y1="253.7266" x2="230.84958" y2="257.536" fill="none" stroke="#4a4a4a" stroke-miterlimit="10" stroke-width="0.41104"/>
            <line x1="238.55294" y1="254.45592" x2="231.22892" y2="258.26532" fill="none" stroke="#4a4a4a" stroke-miterlimit="10" stroke-width="0.41104"/>
            <line x1="238.93227" y1="255.18524" x2="231.60825" y2="258.99464" fill="none" stroke="#4a4a4a" stroke-miterlimit="10" stroke-width="0.41104"/>
            <line x1="239.31161" y1="255.91456" x2="231.98759" y2="259.72395" fill="none" stroke="#4a4a4a" stroke-miterlimit="10" stroke-width="0.41104"/>
            <line x1="239.69094" y1="256.64388" x2="232.36692" y2="260.45327" fill="none" stroke="#4a4a4a" stroke-miterlimit="10" stroke-width="0.41104"/>
            <line x1="240.07028" y1="257.3732" x2="232.74626" y2="261.18259" fill="none" stroke="#4a4a4a" stroke-miterlimit="10" stroke-width="0.41104"/>
            <line x1="240.25995" y1="257.73786" x2="232.93593" y2="261.54725" fill="none" stroke="#4a4a4a" stroke-miterlimit="10" stroke-width="0.41104"/>
            <line x1="240.63928" y1="258.46718" x2="233.31526" y2="262.27657" fill="none" stroke="#4a4a4a" stroke-miterlimit="10" stroke-width="0.41104"/>
            <line x1="241.01862" y1="259.19649" x2="233.6946" y2="263.00589" fill="none" stroke="#4a4a4a" stroke-miterlimit="10" stroke-width="0.41104"/>
            <line x1="241.39796" y1="259.92581" x2="234.07393" y2="263.73521" fill="none" stroke="#4a4a4a" stroke-miterlimit="10" stroke-width="0.41104"/>
            <line x1="241.77729" y1="260.65513" x2="234.45327" y2="264.46453" fill="none" stroke="#4a4a4a" stroke-miterlimit="10" stroke-width="0.41104"/>
            <line x1="241.96696" y1="261.01979" x2="234.64294" y2="264.82919" fill="none" stroke="#4a4a4a" stroke-miterlimit="10" stroke-width="0.41104"/>
            <line x1="242.34629" y1="261.74911" x2="235.02227" y2="265.55851" fill="none" stroke="#4a4a4a" stroke-miterlimit="10" stroke-width="0.41104"/>
            <line x1="242.53596" y1="262.11377" x2="235.21194" y2="265.92316" fill="none" stroke="#4a4a4a" stroke-miterlimit="10" stroke-width="0.41104"/>
            <line x1="242.9153" y1="262.84309" x2="235.59128" y2="266.65248" fill="none" stroke="#4a4a4a" stroke-miterlimit="10" stroke-width="0.41104"/>
            <line x1="243.10497" y1="263.20775" x2="235.78095" y2="267.01714" fill="none" stroke="#4a4a4a" stroke-miterlimit="10" stroke-width="0.41104"/>
            <line x1="243.4843" y1="263.93707" x2="236.16028" y2="267.74646" fill="none" stroke="#4a4a4a" stroke-miterlimit="10" stroke-width="0.41104"/>
            <line x1="243.86364" y1="264.66639" x2="236.53962" y2="268.47578" fill="none" stroke="#4a4a4a" stroke-miterlimit="10" stroke-width="0.41104"/>
            <line x1="244.24297" y1="265.3957" x2="236.91895" y2="269.2051" fill="none" stroke="#4a4a4a" stroke-miterlimit="10" stroke-width="0.41104"/>
            <line x1="244.62231" y1="266.12502" x2="237.29829" y2="269.93442" fill="none" stroke="#4a4a4a" stroke-miterlimit="10" stroke-width="0.41104"/>
            <line x1="245.19131" y1="267.219" x2="237.86729" y2="271.0284" fill="none" stroke="#4a4a4a" stroke-miterlimit="10" stroke-width="0.41104"/>
            <line x1="245.57065" y1="267.94832" x2="238.24663" y2="271.75772" fill="none" stroke="#4a4a4a" stroke-miterlimit="10" stroke-width="0.41104"/>
            <line x1="245.00165" y1="266.85434" x2="237.67763" y2="270.66374" fill="none" stroke="#4a4a4a" stroke-miterlimit="10" stroke-width="0.41104"/>
            <line x1="245.93128" y1="268.64167" x2="238.60726" y2="272.45106" fill="none" stroke="#4a4a4a" stroke-miterlimit="10" stroke-width="0.41104"/>
            <line x1="246.12094" y1="269.00633" x2="238.79692" y2="272.81572" fill="none" stroke="#4a4a4a" stroke-miterlimit="10" stroke-width="0.41104"/>
            <line x1="246.50028" y1="269.73565" x2="239.17626" y2="273.54504" fill="none" stroke="#4a4a4a" stroke-miterlimit="10" stroke-width="0.41104"/>
            <line x1="246.87962" y1="270.46497" x2="239.5556" y2="274.27436" fill="none" stroke="#4a4a4a" stroke-miterlimit="10" stroke-width="0.41104"/>
            <line x1="247.25895" y1="271.19428" x2="239.93493" y2="275.00368" fill="none" stroke="#4a4a4a" stroke-miterlimit="10" stroke-width="0.41104"/>
            <line x1="247.63829" y1="271.9236" x2="240.31427" y2="275.733" fill="none" stroke="#4a4a4a" stroke-miterlimit="10" stroke-width="0.41104"/>
            <line x1="248.01762" y1="272.65292" x2="240.6936" y2="276.46232" fill="none" stroke="#4a4a4a" stroke-miterlimit="10" stroke-width="0.41104"/>
            <line x1="248.20729" y1="273.01758" x2="240.88327" y2="276.82698" fill="none" stroke="#4a4a4a" stroke-miterlimit="10" stroke-width="0.41104"/>
            <g>
              <line x1="261.62761" y1="298.81976" x2="254.30359" y2="302.62915" fill="none" stroke="#4a4a4a" stroke-miterlimit="10" stroke-width="0.41104"/>
              <line x1="261.81728" y1="299.18442" x2="254.49326" y2="302.99381" fill="none" stroke="#4a4a4a" stroke-miterlimit="10" stroke-width="0.41104"/>
              <line x1="262.19661" y1="299.91373" x2="254.87259" y2="303.72313" fill="none" stroke="#4a4a4a" stroke-miterlimit="10" stroke-width="0.41104"/>
              <line x1="262.57595" y1="300.64305" x2="255.25193" y2="304.45245" fill="none" stroke="#4a4a4a" stroke-miterlimit="10" stroke-width="0.41104"/>
              <line x1="262.95528" y1="301.37237" x2="255.63126" y2="305.18177" fill="none" stroke="#4a4a4a" stroke-miterlimit="10" stroke-width="0.41104"/>
              <line x1="263.33462" y1="302.10169" x2="256.0106" y2="305.91109" fill="none" stroke="#4a4a4a" stroke-miterlimit="10" stroke-width="0.41104"/>
              <line x1="263.71395" y1="302.83101" x2="256.38993" y2="306.6404" fill="none" stroke="#4a4a4a" stroke-miterlimit="10" stroke-width="0.41104"/>
              <line x1="263.90362" y1="303.19567" x2="256.5796" y2="307.00506" fill="none" stroke="#4a4a4a" stroke-miterlimit="10" stroke-width="0.41104"/>
              <line x1="264.28296" y1="303.92499" x2="256.95894" y2="307.73438" fill="none" stroke="#4a4a4a" stroke-miterlimit="10" stroke-width="0.41104"/>
              <line x1="264.66229" y1="304.65431" x2="257.33827" y2="308.4637" fill="none" stroke="#4a4a4a" stroke-miterlimit="10" stroke-width="0.41104"/>
              <line x1="265.04163" y1="305.38363" x2="257.71761" y2="309.19302" fill="none" stroke="#4a4a4a" stroke-miterlimit="10" stroke-width="0.41104"/>
              <line x1="265.42097" y1="306.11294" x2="258.09695" y2="309.92234" fill="none" stroke="#4a4a4a" stroke-miterlimit="10" stroke-width="0.41104"/>
              <line x1="265.61063" y1="306.4776" x2="258.28661" y2="310.287" fill="none" stroke="#4a4a4a" stroke-miterlimit="10" stroke-width="0.41104"/>
              <line x1="265.98997" y1="307.20692" x2="258.66595" y2="311.01632" fill="none" stroke="#4a4a4a" stroke-miterlimit="10" stroke-width="0.41104"/>
              <line x1="266.17964" y1="307.57158" x2="258.85562" y2="311.38098" fill="none" stroke="#4a4a4a" stroke-miterlimit="10" stroke-width="0.41104"/>
              <line x1="266.55897" y1="308.3009" x2="259.23495" y2="312.1103" fill="none" stroke="#4a4a4a" stroke-miterlimit="10" stroke-width="0.41104"/>
              <line x1="266.74864" y1="308.66556" x2="259.42462" y2="312.47496" fill="none" stroke="#4a4a4a" stroke-miterlimit="10" stroke-width="0.41104"/>
              <line x1="267.12798" y1="309.39488" x2="259.80396" y2="313.20427" fill="none" stroke="#4a4a4a" stroke-miterlimit="10" stroke-width="0.41104"/>
              <line x1="267.50731" y1="310.1242" x2="260.18329" y2="313.93359" fill="none" stroke="#4a4a4a" stroke-miterlimit="10" stroke-width="0.41104"/>
              <line x1="267.88665" y1="310.85352" x2="260.56263" y2="314.66291" fill="none" stroke="#4a4a4a" stroke-miterlimit="10" stroke-width="0.41104"/>
              <line x1="268.26599" y1="311.58284" x2="260.94196" y2="315.39223" fill="none" stroke="#4a4a4a" stroke-miterlimit="10" stroke-width="0.41104"/>
              <line x1="268.64532" y1="312.31216" x2="261.3213" y2="316.12155" fill="none" stroke="#4a4a4a" stroke-miterlimit="10" stroke-width="0.41104"/>
            </g>
            <line x1="248.58663" y1="273.7469" x2="241.26261" y2="277.5563" fill="none" stroke="#4a4a4a" stroke-miterlimit="10" stroke-width="0.41104"/>
            <line x1="248.96596" y1="274.47622" x2="241.64194" y2="278.28561" fill="none" stroke="#4a4a4a" stroke-miterlimit="10" stroke-width="0.41104"/>
            <line x1="249.3453" y1="275.20554" x2="242.02128" y2="279.01493" fill="none" stroke="#4a4a4a" stroke-miterlimit="10" stroke-width="0.41104"/>
            <line x1="249.72463" y1="275.93486" x2="242.40061" y2="279.74425" fill="none" stroke="#4a4a4a" stroke-miterlimit="10" stroke-width="0.41104"/>
            <line x1="249.9143" y1="276.29952" x2="242.59028" y2="280.10891" fill="none" stroke="#4a4a4a" stroke-miterlimit="10" stroke-width="0.41104"/>
            <line x1="250.29364" y1="277.02884" x2="242.96962" y2="280.83823" fill="none" stroke="#4a4a4a" stroke-miterlimit="10" stroke-width="0.41104"/>
            <line x1="250.48331" y1="277.39349" x2="243.15929" y2="281.20289" fill="none" stroke="#4a4a4a" stroke-miterlimit="10" stroke-width="0.41104"/>
            <line x1="250.86264" y1="278.12281" x2="243.53862" y2="281.93221" fill="none" stroke="#4a4a4a" stroke-miterlimit="10" stroke-width="0.41104"/>
            <line x1="251.05231" y1="278.48747" x2="243.72829" y2="282.29687" fill="none" stroke="#4a4a4a" stroke-miterlimit="10" stroke-width="0.41104"/>
            <line x1="251.43165" y1="279.21679" x2="244.10763" y2="283.02619" fill="none" stroke="#4a4a4a" stroke-miterlimit="10" stroke-width="0.41104"/>
            <line x1="251.81098" y1="279.94611" x2="244.48696" y2="283.75551" fill="none" stroke="#4a4a4a" stroke-miterlimit="10" stroke-width="0.41104"/>
            <line x1="252.19032" y1="280.67543" x2="244.8663" y2="284.48482" fill="none" stroke="#4a4a4a" stroke-miterlimit="10" stroke-width="0.41104"/>
            <line x1="252.56965" y1="281.40475" x2="245.24563" y2="285.21414" fill="none" stroke="#4a4a4a" stroke-miterlimit="10" stroke-width="0.41104"/>
            <line x1="253.13866" y1="282.49873" x2="245.81464" y2="286.30812" fill="none" stroke="#4a4a4a" stroke-miterlimit="10" stroke-width="0.41104"/>
            <line x1="253.51799" y1="283.22805" x2="246.19397" y2="287.03744" fill="none" stroke="#4a4a4a" stroke-miterlimit="10" stroke-width="0.41104"/>
            <line x1="252.94899" y1="282.13407" x2="245.62497" y2="285.94346" fill="none" stroke="#4a4a4a" stroke-miterlimit="10" stroke-width="0.41104"/>
            <line x1="253.9444" y1="284.04786" x2="246.62038" y2="287.85726" fill="none" stroke="#4a4a4a" stroke-miterlimit="10" stroke-width="0.41104"/>
            <line x1="254.13407" y1="284.41252" x2="246.81005" y2="288.22192" fill="none" stroke="#4a4a4a" stroke-miterlimit="10" stroke-width="0.41104"/>
            <line x1="254.5134" y1="285.14184" x2="247.18938" y2="288.95124" fill="none" stroke="#4a4a4a" stroke-miterlimit="10" stroke-width="0.41104"/>
            <line x1="254.89274" y1="285.87116" x2="247.56872" y2="289.68055" fill="none" stroke="#4a4a4a" stroke-miterlimit="10" stroke-width="0.41104"/>
            <line x1="255.27207" y1="286.60048" x2="247.94805" y2="290.40987" fill="none" stroke="#4a4a4a" stroke-miterlimit="10" stroke-width="0.41104"/>
            <line x1="255.65141" y1="287.3298" x2="248.32739" y2="291.13919" fill="none" stroke="#4a4a4a" stroke-miterlimit="10" stroke-width="0.41104"/>
            <line x1="256.03075" y1="288.05912" x2="248.70673" y2="291.86851" fill="none" stroke="#4a4a4a" stroke-miterlimit="10" stroke-width="0.41104"/>
            <line x1="256.22041" y1="288.42378" x2="248.89639" y2="292.23317" fill="none" stroke="#4a4a4a" stroke-miterlimit="10" stroke-width="0.41104"/>
            <line x1="256.59975" y1="289.15309" x2="249.27573" y2="292.96249" fill="none" stroke="#4a4a4a" stroke-miterlimit="10" stroke-width="0.41104"/>
            <line x1="256.97909" y1="289.88241" x2="249.65507" y2="293.69181" fill="none" stroke="#4a4a4a" stroke-miterlimit="10" stroke-width="0.41104"/>
            <line x1="257.35842" y1="290.61173" x2="250.0344" y2="294.42113" fill="none" stroke="#4a4a4a" stroke-miterlimit="10" stroke-width="0.41104"/>
            <line x1="257.73776" y1="291.34105" x2="250.41374" y2="295.15045" fill="none" stroke="#4a4a4a" stroke-miterlimit="10" stroke-width="0.41104"/>
            <line x1="257.92743" y1="291.70571" x2="250.60341" y2="295.51511" fill="none" stroke="#4a4a4a" stroke-miterlimit="10" stroke-width="0.41104"/>
            <line x1="258.30676" y1="292.43503" x2="250.98274" y2="296.24442" fill="none" stroke="#4a4a4a" stroke-miterlimit="10" stroke-width="0.41104"/>
            <line x1="258.49643" y1="292.79969" x2="251.17241" y2="296.60908" fill="none" stroke="#4a4a4a" stroke-miterlimit="10" stroke-width="0.41104"/>
            <line x1="258.87577" y1="293.52901" x2="251.55174" y2="297.3384" fill="none" stroke="#4a4a4a" stroke-miterlimit="10" stroke-width="0.41104"/>
            <line x1="259.06543" y1="293.89367" x2="251.74141" y2="297.70306" fill="none" stroke="#4a4a4a" stroke-miterlimit="10" stroke-width="0.41104"/>
            <line x1="259.44477" y1="294.62299" x2="252.12075" y2="298.43238" fill="none" stroke="#4a4a4a" stroke-miterlimit="10" stroke-width="0.41104"/>
            <line x1="259.8241" y1="295.3523" x2="252.50008" y2="299.1617" fill="none" stroke="#4a4a4a" stroke-miterlimit="10" stroke-width="0.41104"/>
            <line x1="260.20344" y1="296.08162" x2="252.87942" y2="299.89102" fill="none" stroke="#4a4a4a" stroke-miterlimit="10" stroke-width="0.41104"/>
            <line x1="260.58278" y1="296.81094" x2="253.25876" y2="300.62034" fill="none" stroke="#4a4a4a" stroke-miterlimit="10" stroke-width="0.41104"/>
            <line x1="261.15178" y1="297.90492" x2="253.82776" y2="301.71432" fill="none" stroke="#4a4a4a" stroke-miterlimit="10" stroke-width="0.41104"/>
            <line x1="261.53112" y1="298.63424" x2="254.2071" y2="302.44363" fill="none" stroke="#4a4a4a" stroke-miterlimit="10" stroke-width="0.41104"/>
            <line x1="260.96211" y1="297.54026" x2="253.63809" y2="301.34966" fill="none" stroke="#4a4a4a" stroke-miterlimit="10" stroke-width="0.41104"/>
          </g>
        </g>
        <path d="M277.9464,357.465l-6.077-53.81485c-1.13378-4.41106-6.0556-7.35605-10.99342-6.57794s-6.89633,2.61074-6.88784,9.39582l.10344,14.23.75251,9.0117a26.325,26.325,0,0,0,1.31278,10.06279c1.79858,5.35435.13373-3.78356-1.80772,1.49045l-.52435,1.68471c-3.70871,13.12366-.77277,27.481,3.15264,33.4867,1.98342,3.03453,2.93868,5.58748,6.086,7.59737,4.8303,3.08465,7.33337,17.95147,10.13078,27.26436,3.94927,13.1476,6.60769,36.63169,6.60769,36.63169l20.61455,161.86383h56.82062L294.48712,372.25515" fill="#b3b3b3"/>
      </g>
      <line x1="108.53402" y1="92.6941" x2="184.20079" y2="92.6941" fill="none" stroke="#fff" stroke-linecap="round" stroke-linejoin="round" stroke-width="4.74652"/>
      <line x1="108.53402" y1="105.35653" x2="161.43929" y2="105.35653" fill="none" stroke="#fff" stroke-linecap="round" stroke-linejoin="round" stroke-width="4.74652"/>
      <line x1="108.53402" y1="125.22907" x2="161.43929" y2="125.22907" fill="none" stroke="#0e4160" stroke-linecap="round" stroke-linejoin="round" stroke-width="2.37326"/>
      <line x1="108.53402" y1="134.74896" x2="149.45883" y2="134.74896" fill="none" stroke="#0e4160" stroke-linecap="round" stroke-linejoin="round" stroke-width="2.37326"/>
      <line x1="108.53402" y1="151.75264" x2="149.45883" y2="151.75264" fill="none" stroke="#fff" stroke-linecap="round" stroke-linejoin="round" stroke-width="2.37326"/>
      <rect x="221.10026" y="88.90575" width="69.17901" height="44.76289" rx="6.59506" fill="#fff"/>
      <rect x="227.33362" y="94.18919" width="20.44573" height="32.01099" fill="#f2f2f2"/>
      <line x1="255.68977" y1="96.26307" x2="273.17462" y2="96.26307" fill="none" stroke="#414042" stroke-miterlimit="10" stroke-width="2.50314"/>
      <line x1="255.68977" y1="101.26936" x2="275.67776" y2="101.26936" fill="none" stroke="#414042" stroke-miterlimit="10" stroke-width="2.50314"/>
      <line x1="255.68977" y1="109.78006" x2="275.67776" y2="109.78006" fill="none" stroke="#414042" stroke-miterlimit="10" stroke-width="1.00126"/>
      <line x1="255.68977" y1="112.2832" x2="275.67776" y2="112.2832" fill="none" stroke="#414042" stroke-miterlimit="10" stroke-width="1.00126"/>
      <line x1="255.68977" y1="115.28698" x2="275.67776" y2="115.28698" fill="none" stroke="#414042" stroke-miterlimit="10" stroke-width="1.00126"/>
      <line x1="255.68977" y1="117.79012" x2="275.67776" y2="117.79012" fill="none" stroke="#414042" stroke-miterlimit="10" stroke-width="1.00126"/>
    </g>
  </g>
</svg>
