<svg xmlns="http://www.w3.org/2000/svg" xmlns:xlink="http://www.w3.org/1999/xlink" width="200" height="120" viewBox="0 0 200 120">
  <defs>
    <polygon id="asset-may-we-amazonite-a" points=".002 0 184.612 0 184.612 119.999 .002 119.999"/>
    <polygon id="asset-may-we-amazonite-c" points="15.388 0 199.998 0 199.998 119.999 15.388 119.999"/>
  </defs>
  <g fill="none" fill-rule="evenodd">
    <path fill="#0E4160" d="M173.032,14.9995 L140.852,14.9995 C135.892,14.9995 131.047,9.8845 126.912,6.9845 L123.287,4.4445 C119.162,1.5495 114.307,-0.0005 109.347,-0.0005 L89.802,-0.0005 L70.267,-0.0005 C65.307,-0.0005 60.452,1.5495 56.327,4.4445 L52.702,6.9845 C48.567,9.8845 43.722,14.9995 38.762,14.9995 L11.582,14.9995 C5.187,14.9995 0.002,16.8845 0.002,23.6195 L0.002,107.8095 C0.002,114.5395 5.187,119.9995 11.582,119.9995 L173.032,119.9995 C179.427,119.9995 184.612,114.5395 184.612,107.8095 L184.612,23.6195 C184.612,16.8845 179.427,14.9995 173.032,14.9995" mask="url(#asset-may-we-amazonite-b)"/>
    <path fill="#2CB9AC" d="M187.458263,14.9995 L155.384595,14.9995 C150.440984,14.9995 145.607009,9.8845 141.490656,6.9845 L137.877634,4.4445 C133.766264,1.5495 128.927306,-0.0005 123.983695,-0.0005 L104.503277,-0.0005 L85.032826,-0.0005 C80.0842316,-0.0005 75.2502573,1.5495 71.1339039,4.4445 L67.5258653,6.9845 C63.4045285,9.8845 58.5755376,14.9995 53.6319268,14.9995 L26.5417366,14.9995 C20.1678674,14.9995 15,16.8845 15,23.6195 L15,107.8095 C15,114.5395 18.2043768,119.9995 24.578246,119.9995 L187.458263,119.9995 C193.832133,119.9995 199,114.5395 199,107.8095 L199,23.6195 C199,16.8845 193.832133,14.9995 187.458263,14.9995" mask="url(#asset-may-we-amazonite-d)"/>
    <path fill="#0E4160" d="M106.746252,94.9995 C89.7666057,94.9995 76,81.5645 76,64.9995 C76,48.4345 89.7666057,34.9995 106.746252,34.9995 L113.026452,34.9995 L113.026452,94.9995 L106.746252,94.9995 Z" mask="url(#asset-may-we-amazonite-d)"/>
    <path fill="#2CB9AC" d="M114.004875,94.9995 C97.4351641,94.9995 84,81.5645 84,64.9995 C84,48.4345 97.4351641,34.9995 114.004875,34.9995 C130.569711,34.9995 144,48.4345 144,64.9995 C144,81.5645 130.569711,94.9995 114.004875,94.9995 Z" mask="url(#asset-may-we-amazonite-d)"/>
    <path fill="#0E4160" d="M183.386126,15 C189.799833,15 195,16.885 195,23.62 L195,107.81 C195,114.54 189.799833,120 183.386126,120 L172.579607,120 C165.077727,120 159,114.09 159,106.8 L159,28.2 C159,20.91 165.077727,15 172.579607,15 L183.386126,15 Z" mask="url(#asset-may-we-amazonite-d)"/>
    <path fill="#2CB9AC" d="M187.386126,15 C193.799833,15 199,16.885 199,23.62 L199,107.81 C199,114.54 193.799833,120 187.386126,120 L176.579607,120 C169.082741,120 163,114.09 163,106.8 L163,28.2 C163,20.91 169.082741,15 176.579607,15 L187.386126,15 Z" mask="url(#asset-may-we-amazonite-d)"/>
    <path fill="#FE7F78" d="M121.328,14.3745 L94.183,14.3745 C91.768,14.3745 89.808,12.4145 89.808,9.9995 C89.808,7.5845 91.768,5.6245 94.183,5.6245 L121.328,5.6245 C123.743,5.6245 125.703,7.5845 125.703,9.9995 C125.703,12.4145 123.743,14.3745 121.328,14.3745" mask="url(#asset-may-we-amazonite-d)"/>
    <path fill="#FFDA40" d="M114 90.9995C99.6411856 90.9995 88 79.3619 88 64.9995 88 50.6371 99.6411856 38.9995 114 38.9995 128.358814 38.9995 140 50.6371 140 64.9995 140 79.3619 128.358814 90.9995 114 90.9995zM121.328 14.3745L94.183 14.3745C91.768 14.3745 89.808 12.4145 89.808 9.9995 89.808 7.5845 91.768 5.6245 94.183 5.6245L121.328 5.6245C123.743 5.6245 125.703 7.5845 125.703 9.9995 125.703 12.4145 123.743 14.3745 121.328 14.3745" mask="url(#asset-may-we-amazonite-d)"/>
  </g>
</svg>
