<svg id="eVsRnZqHUWF1" xmlns="http://www.w3.org/2000/svg" xmlns:xlink="http://www.w3.org/1999/xlink" viewBox="110 0 381.1 626.6" shape-rendering="geometricPrecision" text-rendering="geometricPrecision">
<style><![CDATA[
#eVsRnZqHUWF223_to {animation: eVsRnZqHUWF223_to__to 3000ms linear infinite normal forwards}@keyframes eVsRnZqHUWF223_to__to { 0% {transform: translate(315.232086px,907.702695px)} 47.666667% {transform: translate(315.232086px,907.702695px)} 73% {transform: translate(315.232086px,359.148511px)} 76% {transform: translate(315.232086px,367.148511px)} 83.333333% {transform: translate(315.232086px,367.148511px)} 98% {transform: translate(315.232086px,907.702695px)} 100% {transform: translate(315.232086px,907.702695px)}} #eVsRnZqHUWF236_to {animation: eVsRnZqHUWF236_to__to 3000ms linear infinite normal forwards}@keyframes eVsRnZqHUWF236_to__to { 0% {transform: translate(399.100038px,822.027719px)} 22.333333% {transform: translate(300.500015px,440.750031px)} 25.666667% {transform: translate(300.500015px,450.750031px)} 32.333333% {transform: translate(300.500015px,450.750031px)} 46.666667% {transform: translate(302.200038px,821.301236px)} 100% {transform: translate(302.200038px,821.301236px)}}
]]></style>
<defs><rect id="eVsRnZqHUWF2" width="64.3" height="86.2" rx="0" ry="0"/><path id="eVsRnZqHUWF3" d="M348.7,248h-.4-64-.3c0-3.6,3-6.5,6.5-6.5h51.7c3.6-.1,6.5,2.9,6.5,6.5"/><rect id="eVsRnZqHUWF4" width="87.5" height="114.4" rx="0" ry="0"/><rect id="eVsRnZqHUWF5" width="180.4" height="97.7" rx="0" ry="0"/><rect id="eVsRnZqHUWF6" width="43.1" height="43.1" rx="0" ry="0"/><rect id="eVsRnZqHUWF7" width="42.8" height="42.8" rx="0" ry="0"/><rect id="eVsRnZqHUWF8" width="43.1" height="43.1" rx="0" ry="0"/><rect id="eVsRnZqHUWF9" width="14.3" height="14.3" rx="0" ry="0"/><rect id="eVsRnZqHUWF10" width="43.1" height="43.1" rx="0" ry="0"/><rect id="eVsRnZqHUWF11" width="7.1" height="7.1" rx="0" ry="0"/><rect id="eVsRnZqHUWF12" width="43.1" height="43.1" rx="0" ry="0"/><rect id="eVsRnZqHUWF13" width="7.1" height="7.1" rx="0" ry="0"/><rect id="eVsRnZqHUWF14" width="43.1" height="43.1" rx="0" ry="0"/><rect id="eVsRnZqHUWF15" width="7.1" height="7.1" rx="0" ry="0"/><rect id="eVsRnZqHUWF16" width="43.1" height="43.1" rx="0" ry="0"/><rect id="eVsRnZqHUWF17" width="7.1" height="14.3" rx="0" ry="0"/><rect id="eVsRnZqHUWF18" width="43.1" height="43.1" rx="0" ry="0"/><rect id="eVsRnZqHUWF19" width="7.1" height="7.1" rx="0" ry="0"/><rect id="eVsRnZqHUWF20" width="43.1" height="43.1" rx="0" ry="0"/><polygon id="eVsRnZqHUWF21" points="324.5,291.8 324.5,298.9 331.6,298.9 331.6,306 338.8,306 338.8,291.8"/><rect id="eVsRnZqHUWF22" width="180.9" height="98.3" rx="0" ry="0"/><rect id="eVsRnZqHUWF23" width="43.1" height="43.1" rx="0" ry="0"/><rect id="eVsRnZqHUWF24" width="7.1" height="7.1" rx="0" ry="0"/><rect id="eVsRnZqHUWF25" width="43.1" height="43.1" rx="0" ry="0"/><rect id="eVsRnZqHUWF26" width="7.1" height="7.1" rx="0" ry="0"/><rect id="eVsRnZqHUWF27" width="43.1" height="43.1" rx="0" ry="0"/><rect id="eVsRnZqHUWF28" width="7.1" height="7.1" rx="0" ry="0"/><rect id="eVsRnZqHUWF29" width="43.1" height="43.1" rx="0" ry="0"/><rect id="eVsRnZqHUWF30" width="7.1" height="7.1" rx="0" ry="0"/><rect id="eVsRnZqHUWF31" width="43.1" height="43.1" rx="0" ry="0"/><rect id="eVsRnZqHUWF32" width="7.1" height="7.1" rx="0" ry="0"/></defs><g><g><g><rect width="210.2" height="60.8" rx="0" ry="0" transform="translate(210.6 384.4)" fill="#002e75"/></g><g><rect width="210.2" height="186.1" rx="0" ry="0" transform="translate(210.6 445.2)" fill="#064990"/><g><polygon points="213.1,100.4 418,100.8 420.9,363.4 210.6,363.4" fill="#064990"/><rect width="210.2" height="21" rx="0" ry="0" transform="translate(210.6 363.4)" fill="#285293"/></g><path d="M275.8,118.3h-28.5c-1.3,0-2.5-1.1-2.5-2.5v-7.7c0-1.3,1.1-2.5,2.5-2.5h28.5c1.3,0,2.5,1.1,2.5,2.5v7.7c0,1.4-1.1,2.5-2.5,2.5Z" fill="#292b2b"/><path d="M386.2,118.3h-28.5c-1.3,0-2.5-1.1-2.5-2.5v-7.7c0-1.3,1.1-2.5,2.5-2.5h28.5c1.3,0,2.5,1.1,2.5,2.5v7.7c0,1.4-1.1,2.5-2.5,2.5Z" fill="#292b2b"/><path d="M398.8,131.1c-.1-3-2.6-5.4-5.6-5.4h-65-89.8c-3,0-5.5,2.4-5.6,5.4l-.3,211.6c-.1,3.2,2.4,5.8,5.6,5.8h119.1h36.3c3.2,0,5.7-2.6,5.6-5.8l-.3-211.6ZM315.3,334.4h-70.5L244.7,139h80.4h61.7l-.1,195.4h-71.4Z" fill="#292b2b"/><path d="M309.6,434.5h-77.6c-1.3,0-2.5-1.1-2.5-2.5l.5-36.7c0-1.3,1.1-2.5,2.5-2.5l77.1.7c1.3,0,2.5,1.1,2.5,2.5v36c0,1.4-1.1,2.5-2.5,2.5Z" fill="#18427d"/><path d="M396.6,433.1h-58.3c-1.3,0-2.5-1.1-2.5-2.5v-35.4c0-1.3,1.1-2.5,2.5-2.5h58.3c1.3,0,2.5,1.1,2.5,2.5v35.4c0,1.4-1.1,2.5-2.5,2.5Z" fill="#e8e8e8"/><path d="M340.6,431.5c-1.2,0-2.3-1-2.3-2.3v-32.7c0-1.2,1-2.3,2.3-2.3h53.7c1.2,0,2.3,1,2.3,2.3l-56,35Z" fill="#e0e0e0"/><path d="M374.2,436.9h-12.6c-1.3,0-2.5-1.1-2.5-2.5v-3.2c0-1.3,1.1-2.5,2.5-2.5h12.6c1.3,0,2.5,1.1,2.5,2.5v3.2c0,1.4-1.1,2.5-2.5,2.5Z" fill="#e8e8e8"/><rect width="24.9" height="22.4" rx="0" ry="0" transform="translate(304 99.2)" fill="#1b569e"/><circle r="5.4" transform="translate(316.5 110.4)" fill="#292b2b"/></g><path d="M352.6,543.5h-72.6c-1.3,0-2.5-1.1-2.5-2.5v-76.3c0-1.3,1.1-2.5,2.5-2.5h72.5c1.3,0,2.5,1.1,2.5,2.5v76.3c0,1.4-1.1,2.5-2.4,2.5Z" fill="#f4f4f4"/><path d="M281.3,537v-67.5c0-1.6,1.3-2.9,2.9-2.9h63.9c1.6,0,2.9,1.3,2.9,2.9v67.5c0,1.5-1.1,2.8-2.5,2.7h-64.7c-1.2.1-2.4-1.2-2.5-2.7Z" fill="#959595"/><rect width="63.5" height="20.6" rx="0" ry="0" transform="translate(284.4 510.8)"/><rect width="63.5" height="4.6" rx="0" ry="0" transform="translate(284.4 518.4)" fill="#34393d" stroke="#000" stroke-width="0.1044" stroke-linecap="round" stroke-linejoin="round"/><path d="M347.8,466.6h-63.2c-1.8,0-3.3,1.5-3.3,3.3v20.8h69.8v-20.8c0-1.8-1.5-3.3-3.3-3.3Z" fill="#858585"/><polygon points="315.3,334.4 244.9,334.4 244.7,139.1 325.1,139.1 386.8,139.1 386.6,334.4" fill="#00ebd5"/></g><g><line x1="275.1" y1="161.2" x2="342.8" y2="161.2" fill="none" stroke="#fff" stroke-width="4.3134" stroke-linecap="round" stroke-linejoin="round" stroke-miterlimit="10"/><line x1="275.1" y1="171.3" x2="322.4" y2="171.3" fill="none" stroke="#fff" stroke-width="4.3134" stroke-linecap="round" stroke-linejoin="round" stroke-miterlimit="10"/><line x1="275.1" y1="187.1" x2="322.4" y2="187.1" fill="none" stroke="#004263" stroke-width="2.1567" stroke-linecap="round" stroke-linejoin="round" stroke-miterlimit="10"/><line x1="275.1" y1="194.7" x2="311.7" y2="194.7" fill="none" stroke="#004263" stroke-width="2.1567" stroke-linecap="round" stroke-linejoin="round" stroke-miterlimit="10"/><g><g><g clip-path="url(#eVsRnZqHUWF66)"><rect width="66.8" height="88.6" rx="0" ry="0" transform="translate(282.6 247)" fill="#f0f0f0"/><clipPath id="eVsRnZqHUWF66"><use width="64.299995" height="86.200005" xlink:href="#eVsRnZqHUWF2" transform="translate(283.8 248.2)"/></clipPath></g></g></g><g><g><g clip-path="url(#eVsRnZqHUWF72)"><rect width="67.2" height="9" rx="0" ry="0" transform="translate(282.7 240.2)" fill="#1a1a1a"/><clipPath id="eVsRnZqHUWF72"><use width="64.700012" height="6.502426" xlink:href="#eVsRnZqHUWF3"/></clipPath></g></g></g><path d="M284,334v-86c0-3.6,3-6.5,6.5-6.5h51.7c3.6,0,6.5,3,6.5,6.5v86" fill="none" stroke="#241f20" stroke-width="1.0903" stroke-miterlimit="10"/><line x1="284.3" y1="248" x2="348.3" y2="248" fill="none" stroke="#241f20" stroke-width="1.0903" stroke-miterlimit="10"/><g><g><g clip-path="url(#eVsRnZqHUWF221)"><g><g><g clip-path="url(#eVsRnZqHUWF219)"><g><g><g><g clip-path="url(#eVsRnZqHUWF92)"><g><g><g clip-path="url(#eVsRnZqHUWF90)"><rect width="45.2" height="45.3" rx="0" ry="0" transform="translate(294.7 262)" fill="#fff"/><clipPath id="eVsRnZqHUWF90"><use width="42.799999" height="42.799999" xlink:href="#eVsRnZqHUWF7" transform="translate(295.9 263.2)"/></clipPath></g></g></g><clipPath id="eVsRnZqHUWF92"><use width="43.100002" height="43.100002" xlink:href="#eVsRnZqHUWF6" transform="translate(295.8 263.1)"/></clipPath></g></g><g><g clip-path="url(#eVsRnZqHUWF102)"><g><g><g clip-path="url(#eVsRnZqHUWF100)"><rect width="16.7" height="16.7" rx="0" ry="0" transform="translate(294.7 262)" fill="#241f20"/><clipPath id="eVsRnZqHUWF100"><use width="14.3" height="14.3" xlink:href="#eVsRnZqHUWF9" transform="translate(295.9 263.2)"/></clipPath></g></g></g><clipPath id="eVsRnZqHUWF102"><use width="43.100002" height="43.100002" xlink:href="#eVsRnZqHUWF8" transform="translate(295.8 263.1)"/></clipPath></g></g><g><g clip-path="url(#eVsRnZqHUWF112)"><g><g><g clip-path="url(#eVsRnZqHUWF110)"><rect width="9.6" height="9.6" rx="0" ry="0" transform="translate(309 262)" fill="#241f20"/><clipPath id="eVsRnZqHUWF110"><use width="7.1" height="7.1" xlink:href="#eVsRnZqHUWF11" transform="translate(310.2 263.2)"/></clipPath></g></g></g><clipPath id="eVsRnZqHUWF112"><use width="43.100002" height="43.100002" xlink:href="#eVsRnZqHUWF10" transform="translate(295.8 263.1)"/></clipPath></g></g><g><g clip-path="url(#eVsRnZqHUWF122)"><g><g><g clip-path="url(#eVsRnZqHUWF120)"><rect width="9.6" height="9.6" rx="0" ry="0" transform="translate(316.1 269.1)" fill="#241f20"/><clipPath id="eVsRnZqHUWF120"><use width="7.1" height="7.1" xlink:href="#eVsRnZqHUWF13" transform="translate(317.4 270.3)"/></clipPath></g></g></g><clipPath id="eVsRnZqHUWF122"><use width="43.100002" height="43.100002" xlink:href="#eVsRnZqHUWF12" transform="translate(295.8 263.1)"/></clipPath></g></g><g><g clip-path="url(#eVsRnZqHUWF132)"><g><g><g clip-path="url(#eVsRnZqHUWF130)"><rect width="9.6" height="9.6" rx="0" ry="0" transform="translate(323.3 262)" fill="#241f20"/><clipPath id="eVsRnZqHUWF130"><use width="7.1" height="7.1" xlink:href="#eVsRnZqHUWF15" transform="translate(324.5 263.2)"/></clipPath></g></g></g><clipPath id="eVsRnZqHUWF132"><use width="43.100002" height="43.100002" xlink:href="#eVsRnZqHUWF14" transform="translate(295.8 263.1)"/></clipPath></g></g><g><g clip-path="url(#eVsRnZqHUWF142)"><g><g><g clip-path="url(#eVsRnZqHUWF140)"><rect width="9.6" height="16.7" rx="0" ry="0" transform="translate(330.4 269.1)" fill="#241f20"/><clipPath id="eVsRnZqHUWF140"><use width="7.1" height="14.3" xlink:href="#eVsRnZqHUWF17" transform="translate(331.6 270.3)"/></clipPath></g></g></g><clipPath id="eVsRnZqHUWF142"><use width="43.100002" height="43.100002" xlink:href="#eVsRnZqHUWF16" transform="translate(295.8 263.1)"/></clipPath></g></g><g><g clip-path="url(#eVsRnZqHUWF152)"><g><g><g clip-path="url(#eVsRnZqHUWF150)"><rect width="9.6" height="9.6" rx="0" ry="0" transform="translate(316.1 283.4)" fill="#241f20"/><clipPath id="eVsRnZqHUWF150"><use width="7.1" height="7.1" xlink:href="#eVsRnZqHUWF19" transform="translate(317.4 284.6)"/></clipPath></g></g></g><clipPath id="eVsRnZqHUWF152"><use width="43.100002" height="43.100002" xlink:href="#eVsRnZqHUWF18" transform="translate(295.8 263.1)"/></clipPath></g></g><g><g clip-path="url(#eVsRnZqHUWF167)"><g><g><g clip-path="url(#eVsRnZqHUWF165)"><g><g><g clip-path="url(#eVsRnZqHUWF163)"><rect width="16.7" height="16.7" rx="0" ry="0" transform="translate(323.3 290.5)" fill="#241f20"/><clipPath id="eVsRnZqHUWF163"><use width="180.900009" height="98.299995" xlink:href="#eVsRnZqHUWF22" transform="translate(170.8 238.8)"/></clipPath></g></g></g><clipPath id="eVsRnZqHUWF165"><use width="14.299988" height="14.200012" xlink:href="#eVsRnZqHUWF21"/></clipPath></g></g></g><clipPath id="eVsRnZqHUWF167"><use width="43.100002" height="43.100002" xlink:href="#eVsRnZqHUWF20" transform="translate(295.8 263.1)"/></clipPath></g></g><g><g clip-path="url(#eVsRnZqHUWF177)"><g><g><g clip-path="url(#eVsRnZqHUWF175)"><rect width="9.6" height="9.6" rx="0" ry="0" transform="translate(309 290.5)" fill="#241f20"/><clipPath id="eVsRnZqHUWF175"><use width="7.1" height="7.1" xlink:href="#eVsRnZqHUWF24" transform="translate(310.2 291.8)"/></clipPath></g></g></g><clipPath id="eVsRnZqHUWF177"><use width="43.100002" height="43.100002" xlink:href="#eVsRnZqHUWF23" transform="translate(295.8 263.1)"/></clipPath></g></g><g><g clip-path="url(#eVsRnZqHUWF187)"><g><g><g clip-path="url(#eVsRnZqHUWF185)"><rect width="9.6" height="9.6" rx="0" ry="0" transform="translate(301.9 276.3)" fill="#241f20"/><clipPath id="eVsRnZqHUWF185"><use width="7.1" height="7.1" xlink:href="#eVsRnZqHUWF26" transform="translate(303.1 277.5)"/></clipPath></g></g></g><clipPath id="eVsRnZqHUWF187"><use width="43.100002" height="43.100002" xlink:href="#eVsRnZqHUWF25" transform="translate(295.8 263.1)"/></clipPath></g></g><g><g clip-path="url(#eVsRnZqHUWF197)"><g><g><g clip-path="url(#eVsRnZqHUWF195)"><rect width="9.6" height="9.6" rx="0" ry="0" transform="translate(294.7 290.5)" fill="#241f20"/><clipPath id="eVsRnZqHUWF195"><use width="7.1" height="7.1" xlink:href="#eVsRnZqHUWF28" transform="translate(295.9 291.8)"/></clipPath></g></g></g><clipPath id="eVsRnZqHUWF197"><use width="43.100002" height="43.100002" xlink:href="#eVsRnZqHUWF27" transform="translate(295.8 263.1)"/></clipPath></g></g><g><g clip-path="url(#eVsRnZqHUWF207)"><g><g><g clip-path="url(#eVsRnZqHUWF205)"><rect width="9.6" height="9.6" rx="0" ry="0" transform="translate(301.9 297.7)" fill="#241f20"/><clipPath id="eVsRnZqHUWF205"><use width="7.1" height="7.1" xlink:href="#eVsRnZqHUWF30" transform="translate(303.1 298.9)"/></clipPath></g></g></g><clipPath id="eVsRnZqHUWF207"><use width="43.100002" height="43.100002" xlink:href="#eVsRnZqHUWF29" transform="translate(295.8 263.1)"/></clipPath></g></g><g><g clip-path="url(#eVsRnZqHUWF217)"><g><g><g clip-path="url(#eVsRnZqHUWF215)"><rect width="9.6" height="9.6" rx="0" ry="0" transform="translate(294.7 297.7)" fill="#241f20"/><clipPath id="eVsRnZqHUWF215"><use width="7.1" height="7.1" xlink:href="#eVsRnZqHUWF32" transform="translate(295.9 298.9)"/></clipPath></g></g></g><clipPath id="eVsRnZqHUWF217"><use width="43.100002" height="43.100002" xlink:href="#eVsRnZqHUWF31" transform="translate(295.8 263.1)"/></clipPath></g></g></g></g><clipPath id="eVsRnZqHUWF219"><use width="180.400009" height="97.700005" xlink:href="#eVsRnZqHUWF5" transform="translate(170.9 238.9)"/></clipPath></g></g></g><clipPath id="eVsRnZqHUWF221"><use width="87.5" height="114.400002" xlink:href="#eVsRnZqHUWF4" transform="translate(269.7 219.6)"/></clipPath></g></g></g></g></g><g id="eVsRnZqHUWF223_to" transform="translate(315.232086,907.702695)"><g transform="translate(-315.232086,-359.148476)"><g><g><g><path d="M345.7,95v107.6c0,.9-.2,1.8-.4,2.6h-56.6c-.3-.8-.5-1.7-.4-2.6v-107.6c0-.8.2-1.6.4-2.3h56.7c.2.8.3,1.6.3,2.3Z" fill="#1a1a1a"/><path d="M345.3,92.7h-56.7c1-3.4,4.2-5.7,7.7-5.7h41.3c3.6-.1,6.7,2.3,7.7,5.7Z" fill="#1a1a1a"/><path d="M288.6,205.1h56.6c-1,3.3-4.2,5.6-7.7,5.6h-41.2c-3.5,0-6.6-2.3-7.7-5.6Z" fill="#1a1a1a"/></g><g><path d="M345.2,205.1c-1,3.3-4.2,5.6-7.7,5.6h-41.2c-3.5,0-6.6-2.3-7.7-5.6-.3-.8-.5-1.7-.4-2.6v-107.5c0-.8.2-1.6.4-2.3c1-3.4,4.2-5.7,7.7-5.7h41.3c3.5,0,6.7,2.3,7.7,5.7.2.7.4,1.5.4,2.3v107.6c.1.8-.2,1.6-.5,2.5Z" fill="none" stroke="#231f20" stroke-width="0.3615" stroke-miterlimit="10"/><polyline points="288.5,92.7 288.5,92.7 345.3,92.7" fill="none" stroke="#231f20" stroke-width="0.3615" stroke-miterlimit="10"/><polyline points="288.5,205.1 288.6,205.1 345.2,205.1" fill="none" stroke="#231f20" stroke-width="0.3615" stroke-miterlimit="10"/></g></g><circle r="3.9" transform="translate(302.2 102.7)" fill="#b1b1b1"/></g><path d="M353.2,152.4c0,0-1.3-6.5-7.8-4.9l3.4-1.1c3.6-1.4,5.6-5.3,4.5-9c0,0-1.4-7-8.5-4.8l-49.9,16-3.5-12.1c-1-3.7-4.8-6-8.5-5.1h-.1c-.1,0-.2.1-.3.1l-.6.2c-3.8,1.4-5.9,5.6-4.7,9.4l6.8,23.6-.2,466.6h47l.2-439.6l12.7-4c3.5-1.2,5.6-4.9,4.6-8.5-.3-1.3-1-2.5-1.9-3.5l.9-.2c3.5-1.2,5.6-4.9,4.6-8.5c0,0-.9-4.7-5.4-4.8l2.2-.7c3.7-1.4,5.7-5.4,4.5-9.1Z" fill="#b1b1b1"/></g></g><g id="eVsRnZqHUWF236_to" transform="translate(399.100038,822.027719)"><g transform="translate(-300.500015,-440.750031)"><ellipse rx="15.5" ry="15.5" transform="translate(124.3 375.1)" fill="#acacac"/><g><path d="M498.4,626.4l-64-.3-65.4.4-103.8-96.8c-23.2,5.3-85.7-9.6-92.4-29.9l20.8-29.5.2-.2c26.9-30.2,75.3-57.4,75.3-57.4l3.7-10h23.2c1.2,1.1,2.3,2.8,2.5,4.7l5.6,36.2c.9,6.7,4.5,12.8,10,16.9L498.4,626.4Z" fill="#acacac"/><path d="M269.1,412.8c0,0-48.2,27.2-75.3,57.4L239,406.1c10.3,0,20.7,2.3,30.1,6.7Z" fill="#808080"/></g><g><g><path d="M245.9,267.1v234.9h-.2l-.6-.2h-119.3v-234.7l.8-.2h118.5l.8.2Z" fill="#cfd0d0"/><path d="M245.9,267.1l-.6-.2h-118.7l-.8.2c0-6.7,5.3-12.1,12.1-12.1v0h95.8c6.7,0,12.1,5.3,12.1,12c.1-.1.1-.1.1.1Z" fill="#333"/><path d="M245,501.9l.6.2c-.2,6.5-5.6,11.5-12.1,11.5h-95.8c-6.5-.2-11.7-5.1-12.1-11.5l.8-.2h118.6v0Z" fill="#333"/></g><g><path d="M245.7,501.9c-.2,6.5-5.6,11.5-12.1,11.5h-95.8c-6.5-.2-11.7-5.1-12.1-11.5h-.2v-234.8c0-6.7,5.3-12.1,12.1-12.1v0h95.8c6.7,0,12.1,5.3,12.1,12c0,.2,0,.2,0,.2v234.8l.2-.1v0v0Z" fill="none" stroke="#333" stroke-width="0.6683" stroke-miterlimit="10"/><line x1="126.5" y1="266.9" x2="245.1" y2="266.9" fill="none" stroke="#231f20" stroke-width="0.6683" stroke-miterlimit="10"/><line x1="126.8" y1="501.9" x2="245" y2="501.9" fill="none" stroke="#231f20" stroke-width="0.6683" stroke-miterlimit="10"/></g><rect width="79.3" height="79.3" rx="0" ry="0" transform="translate(145.8 344.5)" fill="#fff"/><g><polygon points="145.8,344.5 145.8,370.9 159,370.9 159,384.1 172.2,384.1 172.2,357.7 185.4,357.7 185.4,344.5" fill="#231f20"/><rect width="13.1" height="13.1" rx="0" ry="0" transform="translate(185.4 357.7)" fill="#231f20"/><rect width="13.1" height="13.1" rx="0" ry="0" transform="translate(198.6 344.5)" fill="#231f20"/><rect width="13.1" height="26.4" rx="0" ry="0" transform="translate(211.8 357.7)" fill="#231f20"/><polygon points="198.6,384.1 185.4,384.1 185.4,397.4 198.6,397.4 198.6,410.7 211.8,410.7 211.8,423.8 225.1,423.8 225.1,397.4 198.6,397.4" fill="#231f20"/><rect width="13.1" height="13.1" rx="0" ry="0" transform="translate(172.2 397.4)" fill="#231f20"/><polygon points="159,397.4 145.8,397.4 145.8,423.8 172.2,423.8 172.2,410.7 159,410.7" fill="#231f20"/></g></g><g><g><path d="M124.8,437.5c8.1,0,14.9,6.7,14.9,14.9v.2c0,3.9-1.6,7.8-4.4,10.6s-6.5,4.4-10.6,4.4h-7c-8.1,0-14.9-6.7-14.9-14.9v-.2c0-3.9,1.6-7.8,4.4-10.6s6.5-4.4,10.6-4.4h7Z" fill="#acacac"/><path d="M124.8,470.3c8.1,0,14.9,6.7,14.9,14.9v.2c0,3.9-1.6,7.8-4.4,10.6s-6.5,4.4-10.6,4.4h-7c-8.1,0-14.9-6.5-14.9-14.8c0,0,0,0,0-.2c0-3.9,1.6-7.8,4.4-10.6s6.5-4.4,10.6-4.4l7-.1v0Z" fill="#acacac"/><path d="M118.5,403c8.7,0,15.9,7.2,15.9,15.9s-7.2,15.9-15.9,15.9-15.9-7.2-15.9-15.9v0c.1-8.8,7.1-15.9,15.9-15.9-.1,0,0,0,0,0Z" fill="#acacac"/></g></g><path d="M253.2,346.7l42.9,56-26.9,10-33.3-48.5c-3.9-3.9-6.7-13.1-3-16.9l3.3-3.3c3.8-4.2,13-1.2,17,2.7Z" fill="#acacac"/></g></g></svg>
