<svg id="ekQtqoMiKvZ1" xmlns="http://www.w3.org/2000/svg" xmlns:xlink="http://www.w3.org/1999/xlink" viewBox="140 100 341.1 626.6" shape-rendering="geometricPrecision" text-rendering="geometricPrecision">
<style><![CDATA[
#ekQtqoMiKvZ27_to {animation: ekQtqoMiKvZ27_to__to 3000ms linear infinite normal forwards}@keyframes ekQtqoMiKvZ27_to__to { 0% {transform: translate(463.941518px,866.927377px)} 46.666667% {transform: translate(463.941559px,513.4px)} 50% {transform: translate(463.941559px,516.4px)} 56.666667% {transform: translate(463.941559px,516.4px)} 80% {transform: translate(467.658423px,756.480329px)} 100% {transform: translate(467.658423px,756.480329px)}} #ekQtqoMiKvZ27_ts {animation: ekQtqoMiKvZ27_ts__ts 3000ms linear infinite normal forwards}@keyframes ekQtqoMiKvZ27_ts__ts { 0% {transform: scale(1.81471,1.814712)} 43.666667% {transform: scale(1,1)} 100% {transform: scale(1,1)}} #ekQtqoMiKvZ215_to {animation: ekQtqoMiKvZ215_to__to 3000ms linear infinite normal forwards}@keyframes ekQtqoMiKvZ215_to__to { 0% {transform: translate(368.099976px,411.795303px)} 46.666667% {transform: translate(368.099976px,411.795303px)} 50% {transform: translate(368.099976px,414.795303px)} 56.666667% {transform: translate(368.099976px,414.795303px)} 78.666667% {transform: translate(368.099976px,414.795303px)} 79.333333% {transform: translate(368.099976px,414.795303px)} 100% {transform: translate(368.099976px,414.795303px)}} #ekQtqoMiKvZ215 {animation: ekQtqoMiKvZ215_c_o 3000ms linear infinite normal forwards}@keyframes ekQtqoMiKvZ215_c_o { 0% {opacity: 0} 43.333333% {opacity: 0} 46.666667% {opacity: 1} 56.666667% {opacity: 0.659091} 58.666667% {opacity: 0} 76% {opacity: 0} 100% {opacity: 0}}
]]></style>
<defs><path id="ekQtqoMiKvZ2" d="M385.5,419.6h-31.7c-1.2,0-2-.8-2-1.7l1.6-17.8c.1-.8.9-1.4,2-1.4h28.3c1,0,1.9.6,2,1.4l1.7,17.8c.2.9-.7,1.7-1.9,1.7Z"/></defs><g><g><g><rect width="210.2" height="60.8" rx="0" ry="0" transform="translate(210.6 384.4)" fill="#002e75"/></g><g><rect width="210.2" height="186.1" rx="0" ry="0" transform="translate(210.6 445.2)" fill="#064990"/><g><polygon points="213.1,100.4 418,100.8 420.9,363.4 210.6,363.4" fill="#064990"/><rect width="210.2" height="21" rx="0" ry="0" transform="translate(210.6 363.4)" fill="#285293"/></g><path d="M275.8,118.3h-28.5c-1.3,0-2.5-1.1-2.5-2.5v-7.7c0-1.3,1.1-2.5,2.5-2.5h28.5c1.3,0,2.5,1.1,2.5,2.5v7.7c0,1.4-1.1,2.5-2.5,2.5Z" fill="#292b2b"/><path d="M386.2,118.3h-28.5c-1.3,0-2.5-1.1-2.5-2.5v-7.7c0-1.3,1.1-2.5,2.5-2.5h28.5c1.3,0,2.5,1.1,2.5,2.5v7.7c0,1.4-1.1,2.5-2.5,2.5Z" fill="#292b2b"/><path d="M398.8,131.1c-.1-3-2.6-5.4-5.6-5.4h-65-89.8c-3,0-5.5,2.4-5.6,5.4l-.3,211.6c-.1,3.2,2.4,5.8,5.6,5.8h119.1h36.3c3.2,0,5.7-2.6,5.6-5.8l-.3-211.6ZM315.3,334.4h-70.5L244.7,139h80.4h61.7l-.1,195.4h-71.4Z" fill="#292b2b"/><path d="M309.6,434.5h-77.6c-1.3,0-2.5-1.1-2.5-2.5l.5-36.7c0-1.3,1.1-2.5,2.5-2.5l77.1.7c1.3,0,2.5,1.1,2.5,2.5v36c0,1.4-1.1,2.5-2.5,2.5Z" fill="#18427d"/><path d="M396.6,433.1h-58.3c-1.3,0-2.5-1.1-2.5-2.5v-35.4c0-1.3,1.1-2.5,2.5-2.5h58.3c1.3,0,2.5,1.1,2.5,2.5v35.4c0,1.4-1.1,2.5-2.5,2.5Z" fill="#e8e8e8"/><path d="M340.6,431.5c-1.2,0-2.3-1-2.3-2.3v-32.7c0-1.2,1-2.3,2.3-2.3h53.7c1.2,0,2.3,1,2.3,2.3l-56,35Z" fill="#e0e0e0"/><path d="M374.2,436.9h-12.6c-1.3,0-2.5-1.1-2.5-2.5v-3.2c0-1.3,1.1-2.5,2.5-2.5h12.6c1.3,0,2.5,1.1,2.5,2.5v3.2c0,1.4-1.1,2.5-2.5,2.5Z" fill="#e8e8e8"/><rect width="24.9" height="22.4" rx="0" ry="0" transform="translate(304 99.2)" fill="#1b569e"/><circle r="5.4" transform="translate(316.5 110.4)" fill="#292b2b"/></g><path d="M352.6,543.5h-72.6c-1.3,0-2.5-1.1-2.5-2.5v-76.3c0-1.3,1.1-2.5,2.5-2.5h72.5c1.3,0,2.5,1.1,2.5,2.5v76.3c0,1.4-1.1,2.5-2.4,2.5Z" fill="#f4f4f4"/><path d="M281.3,537v-67.5c0-1.6,1.3-2.9,2.9-2.9h63.9c1.6,0,2.9,1.3,2.9,2.9v67.5c0,1.5-1.1,2.8-2.5,2.7h-64.7c-1.2.1-2.4-1.2-2.5-2.7Z" fill="#959595"/><rect width="63.5" height="20.6" rx="0" ry="0" transform="translate(284.4 510.8)"/><rect width="63.5" height="4.6" rx="0" ry="0" transform="translate(284.4 518.4)" fill="#34393d" stroke="#000" stroke-width="0.1044" stroke-linecap="round" stroke-linejoin="round"/><path d="M347.8,466.6h-63.2c-1.8,0-3.3,1.5-3.3,3.3v20.8h69.8v-20.8c0-1.8-1.5-3.3-3.3-3.3Z" fill="#858585"/><polygon points="315.3,334.4 244.9,334.4 244.7,139.1 325.1,139.1 386.8,139.1 386.6,334.4" fill="#00ebd5"/></g></g><g id="ekQtqoMiKvZ27_to" transform="translate(463.941518,866.927377)"><g id="ekQtqoMiKvZ27_ts" transform="scale(1.81471,1.814712)"><g transform="translate(-463.941559,-513.549988)"><path d="M362.7,448.9c0,0,0,0,0,0v0l28.6-6.9.4,6.9-24.1,11.6v0c0,0,0,0-.1,0-3.4,1.7-7.2.3-8.5-2.9s-.6-7.8,3.7-8.7Z" fill="#b1b1b1"/><path d="M368.8,456.6v0v0L391,444.1l6.6,9.7-22.2,12.4v0c0,0,0,0-.1,0-3.1,1.8-7.1,1-8.9-1.7s-.7-6.2,2.4-7.9Z" fill="#b1b1b1"/><path d="M374.8,464.6v0v0l21.2-9.2l4.5,9.4-21.1,9.2v0c0,0,0,0-.1,0-3,1.3-6.4.2-7.7-2.4s.2-5.7,3.2-7Z" fill="#b1b1b1"/><path d="M383.9,429.2c1.2-.7,2.7-.9,4-.5l14.4,3.6c2.1.6,3.8,2,4.7,3.9l18.7,37.4c1.1,2.2-.1,4.9-2.7,5.9l-9.2,4c-2.6,1.1-5.5.2-6.5-2l-13.5-32.3-11.1-2.8-17,8.1c-7.2,3.7-12.9,2.4-13.7-2.4-.5-2.8,0-5.3,5.6-8l26.3-14.9Z" fill="#b1b1b1"/><path d="M376.6,428.4c1.2-.7,2.7-.9,4-.5l14.4,3.6c2.1.6,3.8,2,4.7,3.9l18.7,37.4c1.1,2.2-.1,4.9-2.7,5.9l-9.2,4c-2.6,1.1-5.5.2-6.5-2l-13.5-32.3-11.1-2.8-17,8.1c-7.2,3.7-12.9,2.4-13.7-2.4-.5-2.8,0-5.3,5.6-8l26.3-14.9Z" fill="#b1b1b1"/><g><path d="M389.1,398.2l6.3,54.1c.3,2.2-1.3,4-3.5,4h-45.1c-2.2,0-3.8-1.8-3.6-3.9l6.1-54.2c.1-1.2,1.6-2.2,3.2-2.2h33.3c1.7,0,3.2,1,3.3,2.2Z" fill="#c96561"/><path d="M389.1,398.2l6.3,54.1c.3,2.2-1.3,4-3.5,4h-45.1c-2.2,0-3.8-1.8-3.6-3.9l6.1-54.2c.1-1.2,1.6-2.2,3.2-2.2h33.3c1.7,0,3.2,1,3.3,2.2Z" fill="#2eb7aa"/><path d="M389.1,397.8l6.4,54.5c.2,1.7-1.1,3.1-2.8,3.1l-45.6.1c-1.8,0-3-1.4-2.9-3.1l5.9-54.6c.1-1,1.2-1.7,2.5-1.8h33.9c1.3,0,2.5.8,2.6,1.8Z" fill="#fc7e79"/><path d="M389.1,397.8l6.4,54.5c.2,1.7-1.1,3.1-2.8,3.1l-45.6.1c-1.8,0-3-1.4-2.9-3.1l5.9-54.6c.1-1,1.2-1.7,2.5-1.8h33.9c1.3,0,2.5.8,2.6,1.8Z" fill="#37e6d5"/><g><path d="M385.5,419.6h-31.7c-1.2,0-2-.8-2-1.7l1.6-17.8c.1-.8.9-1.4,2-1.4h28.3c1,0,1.9.6,2,1.4l1.7,17.8c.2.9-.7,1.7-1.9,1.7Z" fill="#c96561"/><path d="M385.5,419.6h-31.7c-1.2,0-2-.8-2-1.7l1.6-17.8c.1-.8.9-1.4,2-1.4h28.3c1,0,1.9.6,2,1.4l1.7,17.8c.2.9-.7,1.7-1.9,1.7Z" fill="#2eb7aa"/><polygon points="352,416 352.4,410.2 368.7,408.1 374.6,407.9 376.4,410.1 375.6,412.1 356.6,413.7" fill="#d7effd"/><g><g><g><g><g><g><g clip-path="url(#ekQtqoMiKvZ188)"><g><g><g><path d="M370.9,408.6c0,.1-.1.1-.1.1c0-.1,0-.1.1-.1Z" fill="#d1e0e7"/><path d="M372,408.3c0,0,.1.1,0,0-.1,0-.2.1-.4,0-.1,0-.1,0-.2.1c0,0,0,0,0-.1.3.1.5,0,.6,0Z" fill="#d1e0e7"/><path d="M372.1,408.3c.2,0,.3,0,.4,0c0,0-.2,0-.4,0Z" fill="#d1e0e7"/><path d="M373.1,408.3c0,.1,0,.1,0,0-.2,0-.3,0-.3,0-.1,0-.2,0-.2,0c.1,0,.3,0,.4,0c0-.1.1,0,.1,0Z" fill="#d1e0e7"/><path d="M380,412.7c0,.1,0,.1,0,0-.1,0-.2,0-.3-.1-.1,0-.1,0,0,.1c0,.1,0,.2.2.3-.3.5-.6,1-.9,1.6-.2-.2-.4-.3-.7-.5-.2-.2-.4-.3-.7-.5-.1-.1-.1-.1,0-.2.3-.4.6-.8.9-1.3v-.1h.1c.1.1.2.2.4.2c0,0,0,0,.1,0c0,.1,0,.1.1.1s.2,0,.2-.1s0-.1.1-.1.2-.1.1-.2c.1,0,0,.1.1.1h.1c0-.1,0-.1,0-.1-.1,0,0-.1,0-.1s.1,0,0-.1s0-.1,0-.2c0,0,.1,0,.1,0v0c.2.1.2.1.2.2s0,.2,0,.3s0,.1-.2.1c0,0-.1,0-.1,0v.1c.2.4.2.5.2.5Z" fill="#0e3e5a"/><path d="M373.5,415.4c-.1,0-.1,0-.1-.1c0,.1,0,.1.1.1s.1,0,0,0c.1,0,0,0,0,0Zm.2-.2c-.1,0-.1,0,0,0v-.2c0-.1,0-.1-.1-.1c0,.1,0,.1-.1.1v0c0,0-.1,0-.1,0v0c.2.1.2.2.3.2-.1.1,0,.1,0,0c0,.1.1,0,0,0Zm.4.2c-.1,0-.2,0-.2,0c0-.1-.1-.1-.2,0c0,0,.1,0,.1.1.1,0,.1.1.2,0c0,0,.1-.1.1-.1c0,.1,0,.1,0,0c.1,0,0,0,0,0Zm-.1.4v0c-.1-.1-.1-.2,0-.2-.2,0-.2.1-.1.2.1,0,.1,0,.1,0s0,0,0,0v0c0,0,.1,0,0,0Zm.2-.3v0c.1.1.1.1,0,0c.1,0,0,0,0,0Zm-.1.6v0c0,.1-.1.1,0,.1c0,0,0,0,0-.1Zm.7-1.1v0c-.1,0-.1,0-.1.1c0,0,0,0,.1-.1v0Zm-.7,1.4v0v0v0Zm.7-.9v0v0Zm.6.6c-.1,0-.2.1-.3.1c0,.1-.1.1-.2.1c0,.1,0,.1-.1.1.1,0,.2,0,.2,0c0-.1.1-.1.2-.1s.2-.1.2-.1c.1,0,0-.1,0-.1Zm.6.1c-.1,0-.2,0-.3,0v.1v0c0,0,0,0,.1,0v0c.1,0,.1,0,.2,0-.1,0,0,.1,0-.1c0,.1,0,.1,0,0Zm-.1.3c0,0,0,0,0,0s0,.1,0,0v0Zm.5-.5h.1c.1,0,.2,0,.3,0-.1,0,0-.1-.1-.1s-.2,0-.2.1c-.1-.1-.2-.1-.1,0l-.1-.1c-.1,0-.1.1-.1.2v.1c0,.1,0,.1,0,.1s0,0,0-.1v-.1c-.1,0,0-.1,0-.1s.1-.1.2,0Zm.2.2v0c0,0-.1,0,0,0-.1,0-.1-.1-.1-.1l.1.1c-.1,0-.1,0,0,0v0Zm.5.1v0c-.1,0,0,.1,0,0Zm.6.5c-.6-.1-1-.2-1.6-.3v0c-.1,0-.1,0-.2,0h-.1c0,0,.1,0,0,.1v0h.1v0c.1-.1.2-.1.3-.1.6.1,1,.2,1.6.3.1,0,0,0-.1,0Z" fill="#379596"/><path d="M375.2,414.4c-.1-.2-.4-.4-.3-.6c0-.1,0-.1,0-.1.1-.2,0-.3,0-.5c0-.1,0-.1,0-.1c0-.1,0-.1,0-.1-.1,0-.1,0-.1,0c0,.1-.1.1-.1.1c0,.1,0,.1-.1.1s-.1,0-.1-.1v0c0,0,0-.1.1,0v-.1c-.1-.1-.2-.1-.2.1c0,.1,0,.1,0,.1-.2,0-.3,0-.3.1s-.1.1-.1.1c-.2,0-.3,0-.3.1.1,0,0,.1,0,.1-.1,0-.1.1,0,.2c0,.1,0,.1,0,.2s0,.1.1.1c.2,0,.3-.2.3-.2s0-.1.1-.1l.1.2.1.1c.2.2.4.4.7.6h.1v0v0v0v0v0v0v0h.1c0,0,0,0,0,.1h.1c0-.1.1-.1.2-.1-.3-.2-.4-.3-.4-.3Zm-1-1.2v0c0-.1,0-.1,0,0v0Z" fill="#dbe5ea"/><path d="M376.4,416.1v0c-.1-.1-.1,0,0,0c0,.1,0,.1,0,0v0v0v0c0,.1,0,.1.1.1v0v0c0,.1,0,.1-.1.1s-.2,0-.2,0h-.1c-.1,0-.1,0,0-.1v-.1c0-.1,0-.1.1-.2h.1c0,0,.1,0,.1,0c0-.1.1,0,.2-.1h.1c.1.1.3.1.4.2-.1,0-.1,0-.2,0-.1.2-.3.2-.5.1Z" fill="#318586"/><path d="M376,413.9c-.1,0-.1-.1-.2-.1c0,0,0,0,0-.1s.1-.2.1-.2s0-.1,0-.1h.1c.1,0,.1.1.1.2v0c0,.2-.1.3-.1.3v0Z" fill="#e1e9ee"/><path d="M375.9,413.4v0c-.1,0-.2,0-.2,0c0-.1.1-.1.2-.1h.1c0,0,.1-.1.1,0c.1,0,0,.1,0,.1.1,0,0,0-.2,0c.1-.1.1,0,0,0Z" fill="#e1e9ee"/><path d="M380.6,412.4c0-.1,0-.1-.1-.1s-.1-.1,0-.1c0-.1,0-.1.1-.1c0,0,.1,0,.1,0-.1.1,0,.2-.1.3v0v0v0Z" fill="#0c3047"/><path d="M374.5,413.1c0,.1,0,.1-.1.1s-.1,0-.1-.1s0-.1.1-.1v0l.1.1Z" fill="#e1e9ee"/><path d="M375.4,414.9c-.1,0-.2-.1-.2-.2c0,0,.2,0,.2.2v0Z" fill="#e0f3fb"/><path d="M376,413.9v0v0v0c0,.1,0,0,0,0v0Z" fill="#e1e9ee"/><path d="M376,413.9c0,0,0,0,0,0c.1,0,.1,0,0,0c.1,0,.1,0,0,0v0Z" fill="#e1e9ee"/><path d="M373.5,416.8c0,.1-.2.1-.3.1-.5-.1-1-.1-1.5-.2-.1,0-.1-.1-.1-.1c0-.1,0-.2.1-.3.1,0,.2-.1.2-.2.1-.1.1-.2.2-.3c0-.1.1,0,.1,0c.1,0,0,.1,0,.1c0,.1-.1.1-.1.1v.1h.1c.1,0,.2-.1.3-.2c0-.1,0-.1-.1-.2c0-.1-.1-.2,0-.2s.1-.1.2-.1-.1.1,0,.1s0-.1.1-.1c0-.1.1-.1.2-.1s.1,0,.1.1c.1,0,.1.1.2,0c0-.1.1,0,.1.1c0,0,.1,0,.1.1s0,.1,0,.1v0c-.1,0-.1,0,0,.1v.1c0,.1,0,.1.1.1c0,0,0,0,.1,0c0,.1.1.1,0,.1s-.1,0-.1.1c0,0,0,.1,0,.1.1.1,0,.1,0,.3-.1.2-.1.3,0,.2Zm-.5.1c0,0,.1,0,.1,0c.1-.2.2-.3.1-.5c0-.1-.2-.1-.3-.1s-.1.1-.2.1c0,.1,0,.1-.1.2s-.1.2,0,.2c.2,0,.3.1.4.1v0Z" fill="#50bcbd"/><path d="M373.2,415.6c0,0-.1,0-.1,0c0,.1-.1,0-.2,0s0-.1-.1-.1-.1-.1-.2.1c0,.1,0,.1-.1.1s0-.1,0-.1c-.1,0-.1.1-.2.1c0,0,0,0,0,.1v0c0,.1.1.1.1.2.1,0,.1.1.1.2-.1.1-.2.1-.3.2h-.1c0,0,0-.1,0-.1c0-.1.1-.1.1-.1v-.1c-.1,0-.1,0-.1,0-.1.1-.2.1-.2.3c0,.1-.1.2-.2.2c0-.1,0-.1,0-.2v0c0-.1.1-.3,0-.4c0-.1,0-.1.1-.1c0-.1,0-.1.1-.1.1-.1.1-.2.3-.2c0,0,.2,0,.1-.1c0-.1,0-.1,0-.2c0,0,0,0-.1,0h-.1l.1-.1c0,.1.2.1.2.2s0,.1.1.1.1,0,.1-.1c0,0,0,0,0-.1c0,0,0,0-.1,0s-.1,0-.1-.1c0,0,0,0,0-.1v0c0-.1.1-.1.1-.2c0,0,0-.1.1-.1h.1c0,.1,0,.1.1.1s.1.1.1.1c.1,0,.1.1.2.1c0,.1-.2.1-.1.3c0,0,0,0,0,.1s0,.1-.1.1c.3,0,.3,0,.3,0Z" fill="#44aeaf"/><path d="M374.1,416.4v0c0,0,0,0,0,0v0c-.2.3-.4.4-.6.5h-.1v0c-.1,0,0-.1-.1-.2v0v0-.1-.1c0,0,0,0,0-.1v0c0,0,0-.1,0-.1s0,0-.1,0v-.1v0c0,0,0,0,0-.1c0,0,0,0,.1,0v0v0-.1c.2,0,.3-.1.5-.1c0,.1,0,.1.1.2.2.2.2.2.2.3c0-.1,0-.1,0,0c0,0,0,0,0,0v0Z" fill="#44aeaf"/><path d="M375.5,416.5c-.2.1-.4.1-.7.1-.1,0-.1,0-.1-.1s0-.1,0-.2v0h.1v0c0,0,0-.1.1-.1s.1-.1.2-.1.2-.1.3-.1c0,.1.1.1.1.1.1,0,.1,0,0,.1.1.2.1.2,0,.3Z" fill="#3fa4a5"/><path d="M377.9,416.8c-.1.1-.3.1-.4.2-.1,0-.3,0-.5-.1s-.5-.3-.8-.3c-.1,0-.1,0-.2,0h-.1v0v0h-.1v-.1v0v0c0-.1,0-.1.1,0c.1,0,.1,0,.2,0v0c.5.1,1,.2,1.6.3.1,0,.2,0,.2,0Z" fill="#3fa4a5"/><path d="M372.2,415c0,.1.1.1.1.1c0,.1,0,.1,0,.2s-.1.1-.1.1c-.2,0-.2.1-.3.2c0,.1,0,.1-.1.1s0-.1,0-.1v0c.1-.2.2-.5.4-.6Z" fill="#50bcbd"/><path d="M375.7,416.4v0c-.1-.1-.1-.1,0,0v0c-.1,0-.1,0,0,0Z" fill="#318586"/><path d="M375.7,416.4c0,0,0,.1,0,0v0c0,0,0,0,0,0v0Z" fill="#318586"/><path d="M376,416.3c0,.1-.1,0,0,0-.2.1-.2.1-.3,0v0c0,0,0,0-.1,0v0-.1c.2,0,.3,0,.4.1c0,0,0,0,0,0Z" fill="#318586"/><path d="M382.1,411.8c0-.1.1-.1.2-.1-.1,0-.1,0-.2.1Z" fill="#0c3047"/><path d="M382.3,411.7c0,0,0,0,0,0v0Z" fill="#0c3047"/><path d="M379.7,411.9c-.1,0,0-.1,0,0-.1-.1,0-.1,0-.1.1,0,.1,0,0,.1.1-.1,0,0,0,0s0,0,0,0Z" fill="#0f3a54"/><path d="M373.5,414.6c0,0,0,.1,0,0c0,.1-.1,0-.1,0h-.1v0c0,0,0,0-.1,0h-.1c0-.1.1-.1.1-.1.2,0,.3.1.3.1s0,0,0,0v0Z" fill="#2d7b7c"/><path d="M373.7,415.1v0c-.1,0-.1,0-.1-.1v0c0-.1,0-.1.1-.1c0,0,0,.1,0,.2v0v0Z" fill="#2d7b7c"/><path d="M374.3,414.2l-.1-.1v0v0h-.1v0v0v0h.1l.1.1Z" fill="#2d7b7c"/><path d="M378.1,416.8l-1-.6c-.1,0-.2,0-.2,0-.1,0-.3,0-.4.1v0c0,0,.1,0,.1,0c0,.1,0,.1-.1.1s-.2,0-.2,0c-.1,0-.2,0-.1-.1-.1,0-.1,0,0-.1v-.1c0-.1,0-.1.1-.2h.1c0,0,.1,0,.1,0c0-.1.1,0,.2-.1h-.1c-.4-.2-.7-.5-1.1-.7-.1,0-.2-.1-.2-.2h-.1c-.1,0-.1,0-.1-.1l-.2-.1c0,.1,0,.2,0,.3s0,.1-.1.1v0c-.1,0-.1-.1-.2,0c0,0,.1,0,.1-.1.1,0,.1-.1.1-.1c0-.1,0-.2,0-.3l-.4-.3v0l-.1-.1v0v0h-.1v0v0h-.1v0c0,0,0,0-.1,0v0c-.1,0,0-.1-.1-.1v-.1c0-.1.1,0,.1.1c0,0,.1,0,0,.1v-.1l-.1-.2c0,.1,0,.1-.1.1-.1.1-.2.2-.3.2c0,.1,0,.1-.1.1-.2.1-.4.3-.5.5v0c0,.1-.1.1-.2.1v0c0,0,0,.1-.1.1v.1c0,.1,0,.1-.1,0-.1,0,0-.1,0-.1c0,.1,0,.1-.1.1.1.1.2.1.2.2s0,.1.1.1c0,0,0-.1.1-.1c0,0,0,0-.1,0s-.1,0-.1-.1c0,0,0,0,0-.1v0c0-.1.1-.1.1-.1s0-.1.1-.1h.1c0,0,0,.1.1.1s.1.1.1.1c.1,0,.1.1.2.1h.1v0h.1v0c0-.1,0-.1.1-.1s.1,0,.1.1l-.1.1v0v.1c0,0,0,.1,0,.1h-.1v0h-.1c0,.1,0,.1.1.1v0v0v0c.1,0,.2-.1.2,0c0,0,.1,0,.2,0c0,0,.1,0,.1,0c0,.1,0,.1-.1,0c0,.1-.1,0-.1,0v0c-.1,0-.1.1,0,.2h.1c.2,0,0,.1,0,.1h-.1v.1c.2.1.5.1.7.2h-.4c0,.1,0,.1,0,.1v.1v0c0,0,0,0,0,.1v0v0v0c0,.1,0,.1,0,.1.2,0,.3-.1.4-.2.1,0,.1-.1.2,0v0c0,0,0,0,.1,0v0c0,0,0-.1.1-.1c0-.1.1-.1.2-.1s.2-.1.3-.1c0,.1.1.1.1.1v0c0,0,0,.1.1.1v0-.1c.1,0,.2-.1.3,0c.1,0,.1,0,0,.1c0,.1-.1,0-.1,0-.1,0-.1.1-.2,0c0,0,.1,0,0,.1v0v0c0,.1,0,.1,0,.2.1,0,.1,0,.2-.1v0h-.1v-.1v0v0c0-.1,0-.1.1,0h-.1c0,0,0,0,0,.1c0-.1.1-.1.1-.1.1,0,.2-.1.3,0c0,0,.1,0,0,.1v.1c.5.1,1,.2,1.6.3.1,0,.1.1.1.1s.1,0,.1.1l.3.1-.1-.4Zm-5-2.2v0c-.1,0-.1,0,0,0c0-.1-.1-.1,0-.1v0v0v0c0,0,0,0,0-.1c0,0,0,0,.1,0c0,0-.1,0-.1,0v0c0,.1.1.1,0,.2.1,0,.1,0,0,0v0Zm.4,0c0,0,0,.1,0,0c0,.1-.1,0-.1,0h-.1v0h-.1c0,0,0,0-.1,0v0v0c0-.1.1-.1.1-.1.2,0,.3.1.3.1s0,0,0,0v0c.1,0,.1,0,0,0c.1,0,.1.1,0,0Zm1.3.9v0v0v0v0Zm0-.5v0c0,.1-.1.1-.1.1s0-.1.1-.1v0Zm-.2.2c-.1,0-.1-.1-.1-.1l.1.1Zm-.2.1c-.1,0-.1,0,0,0-.1,0-.2,0-.1-.1v0-.1v0l.1.2v0v0c0-.1,0-.1,0,0v0Zm-.2-.2v0c-.1.1-.1.1,0,0v0v0Zm-.4,0v0c.1.1.1.1,0,0v0v0c.1.1.1.1,0,0v0v0Zm.4.4v0c0,0,.1,0,0,0v0Zm2.8.8c0,.1-.1.1,0,0-.1,0-.1,0-.1,0v0v0v0c-.1-.1-.1-.1,0-.1l.1.1c0-.1,0-.1,0,0c.1-.1.1-.1.1,0s-.1,0-.1,0Z" fill="#2d7b7c"/><path d="M374.2,415.3c0,0,0,0,0,0v0c.1-.1.1-.1,0,0c.2,0,.2,0,0,0c.1,0,.1,0,0,0Z" fill="#318586"/><path d="M374.2,415.5c.1,0,.1,0,0,0v0v0Z" fill="#318586"/><path d="M374.8,415v0c0,.1-.1.1-.1.1s0-.1.1-.1v0Z" fill="#318586"/><path d="M374,415.8c0,0-.1,0,0,0-.2-.1-.3-.1-.4-.1s-.1-.1-.2,0c0,0,0,.1,0,.1-.1,0-.1,0-.1,0-.1,0-.1,0,0-.1c0,0,0,0,0-.1v-.1c0-.1-.1-.2,0-.3v-.1c-.1-.1,0-.2.1-.3v0h.1c.1,0,.1,0,.1.1v0v.1c0,0,0,.1,0,.1h-.1-.1v.1c0,.1,0,.1.1.1v0v0v0c.1,0,.2-.1.2,0c0,0,.1,0,.2,0c0,0,.1,0,.1,0c0,.1,0,.1-.1,0s-.1,0-.1,0c-.1,0-.1.1,0,.2l.2.3c.1,0,0,0,0,0Z" fill="#3fa4a5"/><path d="M374.6,416.1h-.4-.1c-.2,0-.3,0-.4,0v0v0c0,0,0,0-.1,0c0,0,0,0-.1,0v0c-.1,0-.1,0,0-.1v-.1-.1v0c0-.1,0-.1.1-.1c0,0,0,0,.1,0c.1.1.3.1.4.1c0,.2.3.2.5.3Z" fill="#e0f3fb"/><path d="M375,414.6v0v0l-.2-.2-.4-.3-.1-.1c-.1,0-.1,0-.1-.1v0h-.1v-.1l.1.1c.2.2.4.4.7.6v0v0v0c.1,0,.1,0,.1.1c0-.1,0-.1,0,0v0v0v0Z" fill="#e0f3fb"/><path d="M372.6,414.7v0c0,0,0,.1-.1.1v.1c0,0,0,0-.1,0s0-.1,0-.1s0,0,0-.1c0,0,0,0,0-.1c0,0,0,0,0-.1s0-.1.1-.1c0-.1.1,0,.2,0c.1.2,0,.2-.1.3Z" fill="#318586"/><path d="M373.1,414.5v0v0v0v0c0,0,0,0,0,0s0,0,0,0Z" fill="#318586"/><path d="M373.4,414.7v0v0l-.1-.1v0v0c.1,0,.1,0,.1.1Z" fill="#318586"/><path d="M377,416.3c0,0-.1.1,0,0-.1,0-.1,0-.1,0v0v0v0c-.1,0,0-.1,0-.1l.1.1c0-.1,0-.1,0,0h.1c0,.1-.1,0-.1,0Z" fill="#318586"/><path d="M373.1,414.5v0v0v0v0v0c0,0,0-.1,0,0c0-.1,0-.1,0,0c.1-.1,0,0,0,0Z" fill="#2d7b7c"/><path d="M373.9,415.2v0v0v0v0c-.1-.1-.1-.1,0,0-.1-.1-.1-.1,0,0v0Z" fill="#318586"/><path d="M375,414.5c.1,0,.2,0,.1.1-.1,0-.2,0-.1-.1Z" fill="#e0f3fb"/><path d="M380.1,412.2c0,0,0,0,0,0s0,0,0,0Z" fill="#0c3047"/><path d="M373.2,414.4c0,0-.1.1,0,0-.1,0-.1,0-.1,0v0v0c0,.1,0,0,.1,0-.1,0-.1,0,0,0Z" fill="#2a7072"/><path d="M373.1,414.6v0c-.1,0-.1,0,0,0v0Z" fill="#2a7072"/><path d="M373.7,413.8c-.1.1-.2.2-.3.2.2-.1.3-.1.3-.2Z" fill="#2a7072"/><path d="M373.5,414.6c0,0,0,.1,0,0c0,.1-.1,0-.1,0h-.1v0h-.1c0,0,0,0-.1,0v0c0-.1.1-.1.1-.1.2,0,.3.1.3.1s0,0,0,0v0Z" fill="#2a7072"/><path d="M374,413.9c0,.1,0,0,0,0-.1,0,0-.1-.1-.1v-.1c-.1,0,0,.1.1.2-.1-.1,0,0,0,0v0Z" fill="#2a7072"/><path d="M374.2,413.1v0v0c-.1,0-.1,0,0,0Z" fill="#e0f3fb"/><path d="M372.8,415.1v0c0,0-.1,0,0,0-.1-.1-.2,0-.2-.1c0,0,0,0,0-.1v0c.1.2.1.1.2.2c0-.1,0,0,0,0Z" fill="#379596"/><path d="M372.5,414.7c0,.1,0,.1,0,0v0Z" fill="#379596"/><path d="M372.5,414.8v0c-.1-.1,0,0,0,0Z" fill="#379596"/><path d="M372.5,414.8v0c-.1,0-.1,0,0,0Z" fill="#379596"/><path d="M373,416.9c-.1,0-.2,0-.2-.1-.1-.1-.1-.1,0-.2c0-.1.1-.1.1-.2s0-.1.2-.1c.1,0,.2,0,.3.1.1.2,0,.3-.1.5-.2,0-.3,0-.3,0Z" fill="#bfe6fb"/><path d="M373.4,415.9v.1c-.1-.1-.1-.1,0-.1Z" fill="#44aeaf"/><path d="M373.9,415.2v0v0c-.1-.1-.1-.1,0,0-.1-.1-.1-.1,0,0v0v0Z" fill="#2a7072"/><path d="M374.3,415.2v0v0v0v0c.1-.1,0,0,0,0Z" fill="#2a7072"/><path d="M374.2,415.1v0v0v0v0Z" fill="#2d7b7c"/><path d="M374.4,415.3c-.1,0-.1,0,0,0-.1,0-.2,0-.1-.1v0-.1v0l.1.2v0v0c-.1-.1-.1-.1,0,0v0Z" fill="#2d7b7c"/><path d="M374,413.9v0c0,.1,0,0,0,0-.1,0,0-.1-.1-.1v-.1c-.1,0,0,.1.1.2-.1-.1,0,0,0,0Z" fill="#318586"/><path d="M374.2,414v0c0,0-.1,0,0,0-.1,0-.1,0,0,0v0c-.1,0-.1,0,0,0-.1,0-.1-.1-.1-.1v0c0,.1,0,.1.1.1Z" fill="#318586"/><path d="M370.9,408.6c0,0-.1,0-.1.1s-.1,0-.2,0c-.2,0-.3,0-.4,0-.2,0-.3,0-.4,0s-.2,0-.4,0h-.1c-.1,0-.2,0-.3,0-.3.1-.6.1-1,.1-.2,0-.4,0-.6,0-.4,0-.8,0-1.1.1-.4,0-.7.1-1.1.1-.2,0-.3,0-.4,0h-.2c-.2,0-.3,0-.4,0-.3,0-.7,0-1,0-.1,0-.2.1-.3,0-.3,0-.5,0-.8.1-.4,0-.8.1-1.2.1s-.8.1-1.2.1c-.2,0-.3,0-.4,0h-.2c-.3,0-.5,0-.9,0-.1,0-.2,0-.3,0-.4,0-.9.1-1.3.1-.5,0-1.1.1-1.7.1-.4,0-.9,0-1.3.1-.2,0-.3,0-.5,0-.3,0-.5,0-.9,0l.2-.1c.3,0,.7,0,1,0s.5,0,.8-.1c.3,0,.5,0,.9,0c.3,0,.5,0,.8-.1.3,0,.6,0,.9,0c.2,0,.3,0,.5,0c.3,0,.6,0,.9,0s.5,0,.8-.1c.4,0,.8-.1,1.2-.1.3,0,.5,0,.8-.1.4,0,.9,0,1.2-.1.3,0,.5,0,.8-.1.3,0,.6-.1,1-.1.3,0,.5,0,.8-.1.3,0,.5,0,.9,0c.3,0,.5,0,.8-.1.4,0,.9,0,1.2-.1.3,0,.5,0,.8-.1.3,0,.6-.1.9-.1s.5,0,.8-.1c.3,0,.6,0,.9-.1.1,0,.2,0,.2,0-.1,0-.2.1-.4,0c.1.4,0,.5,0,.6v0Z" fill="#d7effd"/><path d="M374.8,410.3v0c-.2.1-.2.1-.3.1l.1-.1h.1c0,0,.1-.1.1,0c0,0,0,0,0,0c.2,0,.2-.1.3-.2c0-.1.1-.1,0-.2c0-.1,0-.1.2-.1v-.1c-.1,0-.1,0-.2,0-.2,0-.2,0-.1-.1s0-.2-.1-.2v.1c0,0,.1,0,0,.1-.1,0-.2.1-.2-.1h-.1v.1c0,.1-.1.1,0,.2-.1,0-.2,0-.3.1c0,.1-.1,0,0-.1c0-.1,0-.1-.1-.1s-.2,0-.2-.1c-.1,0-.1-.1-.2,0h-.1c-.1,0-.1,0-.1-.1s0-.1.1,0c.1-.1.2-.2.2-.3h-.1c0,.2,0,.2-.3.2s-.6,0-.9,0c-.1,0-.2,0-.2-.1.1-.1.4,0,.5-.1h.1c.1-.1,0-.2.2-.3c0,0,0,0,0-.1s0-.1.1-.1.2-.1.2,0c.1,0,0,.1.1.1c0-.1,0-.1,0-.1s0,0-.1,0v-.1c-.2-.1-.3-.1-.6-.2-.1,0-.2,0-.2-.1-.1,0-.2,0-.2,0-.2.1-.4,0-.5,0-.2,0-.4,0-.5,0-.1.1-.2.1-.4.1h-.1c0,.1-.1.1-.1.1v0c-.1.1-.2.1-.3.1s-.3,0-.4,0c-.2,0-.3,0-.4,0c0,.1,0,.1-.1.1s-.1,0-.1,0c0,.1-.1,0-.1-.1h-.1c-.1,0-.2,0-.3,0-.3.1-.6.1-1,.1-.2,0-.4,0-.6,0-.4,0-.8,0-1.1.1-.4,0-.7.1-1.1.1-.2,0-.3,0-.4,0c0,.2-.1.3-.4.2.1,0,.2-.1.1-.2-.2,0-.3,0-.4,0-.3,0-.7,0-1,0c0,.1,0,.1.1.1.2,0,.2,0,.1.1c0,0,0,.1,0,.1.1.1,0,.1-.1.1c0,.1,0,.2-.1.2s-.1.1-.2,0c0-.1-.2-.1-.1-.2v-.1c-.1,0-.1.1-.1.1c0-.1.1-.1.1-.1c0-.1.1-.1.1-.2s-.1-.1-.1-.1c-.3,0-.5,0-.8.1-.4,0-.8.1-1.2.1s-.8.1-1.2.1c-.2,0-.3,0-.4,0c0,0,0,0,.1,0c0,.1-.1,0-.1,0h-.2c-.3,0-.5,0-.9,0-.1,0-.2,0-.3,0-.4,0-.9.1-1.3.1-.5,0-1.1.1-1.7.1l-1.3.1c-.2,0-.3,0-.5,0-.3,0-.5,0-.9,0l-.1.5c.1,0,.1,0,.1,0c0,.1,0,.1-.1,0v.1c.1,0,.1.1.1.1h.1c-.1,0-.2.1-.3.1v.5c.2-.1.4-.1.7-.1.2,0,.2,0,.2.2c0,.1-.1.1-.1.1-.1,0-.3,0-.4,0s-.2.1-.3,0v.2l-.3,3.7c.1,0,.1,0,.1-.1s.1,0,.1,0c.1.1.2,0,.3,0c0,0,0-.1.1,0s.2,0,.3,0s.2,0,.2-.1v-.1c0,.1.1.1.1.1s.1,0,.2,0c0,0,.1,0,.1,0c.1,0,.1-.1.2-.1c0,0,0-.1,0-.1-.1,0,0-.1-.1-.1.1,0,.2,0,.2.1s0,.1.1.1.1,0,.2,0s.1,0,.1,0c.1,0,.1,0,.2-.1.3,0,.5-.1.8-.1.2,0,.4-.1.6-.1.3-.1.7-.1,1-.2.2,0,.3,0,.4-.1h.1c.1,0,.2,0,.3,0s.1,0,.2,0s.2-.1.3,0c.4-.1.8-.1,1.2-.1.3,0,.4,0,.7-.1.1,0,.2,0,.2-.1.1,0,.2,0,.3,0c.3-.1.7-.1,1-.2.3,0,.5-.1.8-.1.2-.1.5-.1.7-.1h.1c.1,0,.2-.1.4-.1s.3,0,.5,0c.1,0,.1,0,.2,0c.3,0,.6-.1.9-.1.2,0,.4-.1.5,0c.5-.1,1-.1,1.5-.2.5,0,1.1-.1,1.6-.2.4-.1.8-.1,1.2-.2.2-.1.4,0,.6-.1s.4-.1.6-.1c.2.3.4.5.6.8.2.1.3.3.4.5c0-.1,0-.1.1-.1c0,0,0,0,0-.1c0,0,0,0,0-.1v-.1c0-.1,0-.1.1-.1.2-.2.5-.4.7-.6c0-.1.1,0,.1-.1-.1,0-.1-.1-.1-.1c0-.1.1-.1,0-.2c0-.1-.1-.2,0-.2c0,0,0-.1,0-.1.1-.1.2-.1.3-.1s.1,0,.1-.1c.1-.1.2-.1.3-.1s0,0,0-.1.1-.1.2-.1.1-.1.2-.1v-.1c0-.1.1-.1.1-.1.1,0,.2-.1.3-.2s.2-.2.3-.3c.1.5.1.2.2-.2Zm-22.5.5c-.1.1-.1.1,0,0-.1,0-.1,0-.2,0c0,0,0,0-.1,0c0,0,0,0,0-.1s0-.1.1-.1c0,0,0-.1.1,0c.2.1.2.1.1.2c0-.1,0,0,0,0v0v0Zm1,0c0,0-.1,0-.1,0-.1.1-.1.1-.1.1s0,.1,0,.1h-.1c0-.1,0-.1-.1-.1v0c-.1,0-.2.1-.3,0h.1c.1,0,.2,0,.2,0h.2c.1,0,.1,0,.1,0v0-.1c.1-.1.1-.1.1,0c.1-.1,0,0,0,0v0Zm2.7-.2c-.3,0-.5,0-.8.1-.1,0-.2,0-.2.1s-.1.1,0,.1s0,.1,0,.1h-.1c.1,0,.1.1.2,0c.1,0,.2,0,.3,0s.1,0,0,.1c-.1,0-.1.1-.2.1c0,0,0,0-.1,0-.1.2-.3.1-.4,0-.1,0-.1.1-.2.1c0,.1,0,.1-.1,0c0-.1-.1-.2.1-.2c0,0,0-.1.1,0c.1,0,.1-.1.1-.2-.3,0-.6,0-.9,0-.1,0-.2,0-.3-.1.2,0,.3,0,.4,0s.3-.1.4,0c0-.1.1-.1.2-.1.2,0,.3,0,.4-.1h.1c.1.1.3,0,.4,0c0,0,0-.1.1,0c.2-.1.3-.1.5,0c0-.1,0-.1,0,0c.1,0,.1,0,0,0Zm2.3-.7c.2,0,.3-.1.4,0-.1,0-.2,0-.4,0Zm.9-.2h.1-.1Zm.1,0c.1,0,.1,0,.2,0-.1,0-.1,0-.2,0Zm3,.4c0,0,0-.1,0,0c.1-.1.1-.1,0,0c.1-.1,0,0,0,0Zm9.5-.7c0,0-.1,0-.1-.1.1.1.2.1.1.1c0,0,0,0,0,0Zm.1,0c0-.1.1-.1.2-.1c0,0-.1.1-.2.1Z" fill="#d7effd"/><path d="M352.3,410.8v0c-.1,0-.1,0-.1,0c.1,0,.1,0,.1,0Z" fill="#d7effd"/><path d="M353,410.9v0c-.1-.1-.1-.1-.2-.1h.2c.1,0,.1,0,.1,0c0,.1,0,.1-.1.1Z" fill="#d7effd"/><path d="M359.1,409.7c0,0-.1,0,0,0c0,0,0,0,0,0Z" fill="#d7effd"/><path d="M359.3,409.7c0,0-.1,0-.1,0s0,0,.1,0Z" fill="#d7effd"/><path d="M359.5,409.7c0,0,0,0,0,0v0Z" fill="#d7effd"/><path d="M362.7,409.6c-.1,0-.1.1-.1.1-.1-.1,0-.1.1-.1Z" fill="#d7effd"/><path d="M362.4,410.1c0-.1-.1,0,0,0-.1,0-.1,0-.1-.1.1,0,.1,0,.1.1Z" fill="#d7effd"/><path d="M370.9,408.6c0,.1-.1.1-.1.1c0-.1,0-.1.1-.1Z" fill="#d7effd"/><path d="M371.9,409.4c-.1,0-.1,0,0,0-.1,0-.1-.1-.1-.1c0,.1.1.1.1.1Z" fill="#d7effd"/><path d="M372.1,409.4c-.1,0-.1,0-.2.1.1-.1.2-.2.2-.1Z" fill="#d7effd"/><path d="M374.8,410.3v0c-.2.1-.2.1-.3.1l.1-.1h.1c0,0,.1-.1.1,0c0,0,0,0,0,0Z" fill="#d7effd"/><path d="M383.5,411.1c-.1-.1-.3-.1-.4-.1-.3,0-.7,0-1.1,0-.2,0-.4,0-.6,0v0c0,0-.1,0-.4,0s-.5,0-.7,0-1.2.4-1.2.4-.2,0-.3.3c-.1.2-1.1,1.6-1.1,1.6s-.2.1-.1.2l1,.7.4.3.9-1.6.3-.4.2-.1l2.4-1c.2,0,.4-.2.7-.3.1,0,.1,0,0,0Z" fill="#0f3a54"/></g><path d="M352.5,409.8c.2-2,.4-3.9.5-5.9.2-.1.5-.2.7-.3.1,0,0,0,.1-.1c0-.1,0-.1-.2-.1s-.3.1-.5.2c0-.2,0-.6.1-.8c0-.1,0-.1.1-.1h.1c0,0,0,0,.1,0s.1,0,.1,0c.1-.1.3-.2.5-.2.1,0,.2-.1.4-.1v0c0,0,.1-.1.1-.1s0,0,.1,0c.1.1.2,0,.3,0s.2,0,.4,0c.1.1.3,0,.3-.1v0c.1.1.2,0,.3-.1.1,0,.1,0,.1,0s.1-.1.2,0s.2,0,.4,0c.1,0,0,0,0,0c0-.1,0-.1.2-.1.1,0,.2,0,.2,0s.1-.1.2,0h.1c.2-.1.4,0,.6-.1h.1c.1.1.1.1.1-.1c0-.1,0,0,.1-.1.2,0,.4,0,.6,0c.1,0,.2,0,.1-.1c0-.1,0,0,0,0c.1,0,.3,0,.4,0s.1,0,.1,0c.1.1.2,0,.3.1c0,0,0,0,0,0c.1-.1.2-.1.3-.1.2,0,.2,0,.3.1.1,0,.1,0,.2,0c.1-.1.3-.1.5-.1.1,0,.2,0,.2,0c.1,0,.2,0,.3.1.1,0,.2.1.3,0v0c0,0,.1,0,.2,0s.2.1.2.1.1,0,0,0c0,0,.1-.1.1,0c.1,0,.1,0,.1,0s.1-.1.2,0c.1,0,.3.1.4,0c.1,0,.2,0,.3,0c0,0,0,0,.1,0s.2,0,.2,0c.1,0,.1.1.2,0c.1,0,.1,0,.1,0c.1-.1.1-.1.4,0c.1,0,.2.1.3,0c0,0,0,0,.1,0c0,.1,0,.2.1,0c0,0,.2,0,.2,0h.1c.2-.1.2,0,.3,0c.1.1.2,0,.3,0c.1-.1.2,0,.4,0c.1,0,.2,0,.3,0h.1c.1.1.1.1.3,0-.1.1,0,.1.1.1s.2,0,.3,0c.2,0,.5,0,.7,0c.2.1.3.1.5.2c0,.1.1,0,.1,0c.1,0,.2,0,.3.1c0,.1.1,0,.1.1.1.1.3.2.4.2.1.1.3.2.5.1.1,0,.2,0,.3.1h.1c.2-.1.3.1.4.1c0,.1.1.1.2.1.1.1.2,0,.3.1s.3.1.3.1h.1c.2.1.4.3.6.3.1,0,.1,0,.1.1.1,0,.2,0,.2.1s.2.2.2.2c.1,0,.2,0,.3.1.1,0,.2.1.3.1h.1c.3,0,.5.2.8.3.2,0,.5.2.5.3s.2.1.1.2v0c.2,0,.2.1.3.1.1.1.2.2.4.3h.1c.1.1.3.2.4.3c0,.1,0,.1.1.1.2,0,.3.1.2.3c0,.1,0,.1.1,0c0-.1.1,0,.2,0c0,.1,0,.1-.1.1.2,0,.2,0,.3.1.1.2.2.3.4.4.1,0,.1.1,0,.1c0,.1,0,.1.1,0c.1.1.2.1.1.2c0,.1,0,.1.1.2v0c.1.1.2.1.1.2c0,.1-.1.1.1.1h.1v0v.1c0,.1,0,.1-.1.1s-.1.1-.1.1v0c0,.1.1,0,.2,0s.2,0,.2.1c.1.2.1.3.2.5c0,.1.1.2-.1.2c0,.1.1,0,.1.1.1,0,.2,0,.2.1s.1.2.2.3c.1,0,.1,0,.1.1s0,.1.1.1.2.1.1.2v.1v0h.1c.1-.1.1-.2.2-.3.1-.2.2-.4.3-.7.1.2.1.4.2.6.1.5.3,1,.5,1.4c0,.1.1.1.2.1.3,0,.5,0,.8-.1.1,0,.1,0,.1.1.1.2.2.5.2.8c0,.1,0,.1.1.2-.1,0-.3,0-.4,0-.2,0-.3,0-.5,0l-.2.1c0-.1,0-.2,0-.4c0-.1,0-.1-.1-.1s-.2,0-.1.1v0c0,.1,0,.3.2.5v.1v0c-.1,0-.1,0-.2.1-.3.1-.6.2-.9.3h-.1c-.1.2-.2.3-.3.4c0,.1-.1.1-.1.1c0,.1-.2.1-.1.2-.3.4-.5.7-.8,1.1-.1.1,0,.2.1.3c0,.1-.1.2,0,.2.1.1.2.2.2.3c0,0,0,0,.1,0c.2,0,.4.2.6.3.1,0,.2.1.1.2c0,.1-.1.1-.1.1.1,0,.1.1.2.1s0-.1.1-.1c0-.1.1-.1.2-.1s.1.1.1.1c0,.2,0,.2.2.2s.3.1.4.2c0,.1.1.1.2.1.1.1.2.1.2.2s.1.1.2.1.1,0,.2,0c0,.1-.1.1-.1.1s0,.1-.1,0c-.1,0-.1.1,0,.1s.1,0,.1.1c.1,0,.2.1.1.2.1,0,.2-.1.2,0-.1.1-.3.1-.6.1-.5.1-1,.1-1.5.2-.1,0-.2,0-.3.1l-1-.6c-.1-.1-.2-.2-.4-.2-.1-.1-.3-.2-.5-.3l-1-.7c0-.1-.1-.1-.1-.1c0-.1-.1-.3-.2-.3-.2-.2-.4-.5-.3-.8.1-.1,0-.3,0-.4v-.1c-.1,0,.1,0,.1-.1-.1,0-.1,0-.1.1v0c-.1,0-.2-.1-.1-.2c0-.1.2,0,.1-.1-.1-.2.1-.2.2-.2s.2-.1.3-.2v-.1c.1,0,.1-.2.2-.3c0-.2.1-.4.1-.6s.1-.4.1-.5v-.1c.1-.1.1-.2.1-.4c0-.1,0-.2,0-.3s0-.3,0-.3v0c0-.1,0-.3-.1-.4-.1-.2-.3-.4-.5-.6-.1,0-.1-.1-.1-.1-.2,0-.3-.1-.3-.1-.1,0-.1-.1-.2-.1h-.1c-.2,0-.4-.2-.6-.1-.1,0-.2-.1-.3-.1s-.1-.1-.2-.1-.3,0-.3,0c-.4,0-.9,0-1.3.1-.3,0-.5,0-.8.1-.4,0-.8.1-1.2.1-.3,0-.5,0-.9,0s-.9,0-1.2.1c-.3,0-.5,0-.8.1-.4,0-.8.1-1.2.1s-.8.1-1.2.1-.9,0-1.3.1c-.3,0-.5,0-.8.1-.4,0-.8.1-1.2.1-.3,0-.5,0-.9,0s-.9,0-1.3.1c-.3,0-.5,0-.8.1-.4,0-.8.1-1.2.1-.3,0-.5,0-.8.1-.4,0-.9,0-1.3.1-.3,0-.5,0-.8.1-1.2-.6-1.7-.5-2.1-.5Z" fill="#f1f9fc"/><path d="M380.5,416.4c0-.1-.1-.1-.2,0c.1-.1,0-.1-.1-.2-.1,0-.1,0-.1-.1-.1,0-.1-.1,0-.1h.1c0-.1.1-.1.1-.1c0-.1-.1,0-.2,0s-.2,0-.2-.1-.1-.2-.2-.2-.1-.1-.2-.1c-.1-.1-.2-.2-.4-.2s-.2,0-.2-.2c0-.1,0-.1-.1-.1s-.1.1-.2.1c0,.1,0,.1-.1.1s-.1-.1-.2-.1c0-.1,0-.1.1-.1.1-.1,0-.1-.1-.2-.2-.1-.4-.3-.6-.3h-.1c.1-.2-.1-.3-.2-.3c0-.1,0-.1,0-.2l.2.2c0,.1-.1,0-.1.1.1,0,0,.1.1.1s0-.1,0-.1c.2.2.5.3.7.5.1.1.1.1.2,0c.3-.4.5-.9.8-1.3c0-.1.1-.2.1-.2l.1-.2c0,0,0-.1.1-.1.1-.1.2-.2.3-.2s.2-.1.3-.1h.1c.3-.1.7-.3,1-.4v0c.1.2.1.4.2.6c0,.1.1,0,.1,0c.2-.1.3-.3.4-.4.1-.2.2-.2.4-.4-.1.2-.1.5-.2.8-.1.5-.3,1-.4,1.5c0,.2-.1.3-.2.5c0,.1-.1.1.1.2.3.1.7.1,1.1.2l-2.1.7c.2.1.4.2.6.3.1,0,.1.1,0,.1c0-.3-.5-.2-.8,0Zm.2-2c0,.1.1.1.2.1s.1,0,.1,0c.1-.2.2-.4.1-.6c0-.1,0-.1-.1-.1s-.1,0-.1.1-.1.3-.2.5v0Zm-.4,1c.3,0,.4-.2.4-.4c0-.1,0-.1,0-.1-.1,0-.1,0-.1,0-.1.1-.2.1-.4.2-.1,0-.2.1-.2.1.2.1.2.2.3.2v0Zm1.1-2.2c0,.1,0,.1,0,.1s0,.1.1.1s0-.1.1-.1c0-.1.1-.2.1-.2c0-.1.1-.2.1-.2c0-.1-.1-.1-.2-.1s-.1,0-.1.1v0c0,.1-.1.2-.1.3v0Zm-1.9,1.3c-.1,0,0,.1,0,0c0,.1.1.1.1.1.1-.1.2-.1.2-.2s.1-.1,0-.1-.2,0-.2.1v0c-.1-.1-.1,0-.1.1Z" fill="#f4fafc"/><path d="M380.7,414.4c0-.2,0-.3,0-.5c0-.1,0-.1.1-.1s.1.1.1.1c.1.2,0,.4-.1.6c0,.1,0,.1-.1,0c.2-.1.1,0,0-.1Z" fill="#e2eaef"/><path d="M381.4,413.2c0-.1.1-.2,0-.3c0-.1.1-.1.1-.1v0c.1,0,.1.1.2.1c0,.1,0,.2-.1.2c0,.1-.1.2-.1.2s0,.1-.1.1-.1,0-.1-.1c.1,0,.1,0,.1-.1Z" fill="#e2eaef"/><path d="M379.5,414.5c0-.1.1-.2.1-.2c0-.1.1-.1.2-.1v0c.1,0,0,.1,0,.1-.1.1-.2.1-.2.2s-.1,0-.1,0c-.1,0-.1,0,0,0Z" fill="#e2eaef"/><g opacity="0.3"><path d="M372.1,404.4c0,.1.2.1.3.1s.1,0,.1,0c.1-.1.1-.1-.1-.2l-.5-.3c0-.1-.1-.1-.2-.1s-.1,0-.2,0c0,0,0,0,0,.1.2.2.4.3.6.4v0Z" fill="#0d4160"/><path d="M359.9,403.1c-.1,0-.3,0-.4,0s-.2,0-.3.1c-.1,0-.1,0-.1.1s.1,0,.1.1c.2,0,.3,0,.5,0c.1,0,.2,0,.2-.1v0c.1-.1,0-.2,0-.2Z" fill="#0d4160"/><path d="M376.1,407.5c-.1-.2-.2-.3-.3-.4-.1,0-.1-.1-.1-.1-.1,0,0,.1,0,.1c0,.1,0,.1.1.2.1.2.3.4.4.6c0,.1.2.1.2.1.1,0,.1-.1,0-.2v0c0-.1-.1-.2-.3-.3v0Z" fill="#0d4160"/><path d="M373.9,405.4c-.1,0-.1-.1-.2,0c0,.1-.1.1,0,.1.2.1.4.2.6.4.1,0,.1.1.2,0c0-.1,0-.1.1-.1c0-.1-.1-.1-.2-.1-.1-.2-.3-.3-.5-.3Z" fill="#0d4160"/><path d="M375.7,405.8c-.1-.1-.2-.2-.3-.3c0,0,0-.1-.1-.1s-.1-.1-.2,0c0,.1-.1.1,0,.2s.2.3.3.3c.1.1.2.1.3.1s0-.1,0-.2v0Z" fill="#0d4160"/><path d="M368.2,402.7c-.1,0-.1-.1-.1-.1-.1,0-.1,0-.1,0s0,0,0,.1c.2.2.4.3.8.4.1,0,.1.1.2,0c0,0,.2-.1,0-.2-.4,0-.6-.1-.8-.2Z" fill="#0d4160"/><path d="M365.6,407.3c-.2,0-.3.1-.5.1-.1,0-.1,0-.1.1v0c0,.1.1,0,.1.1.5-.1.9-.1,1.4-.2.1,0,.1,0,.1-.1s.1-.1-.1-.2c-.1,0-.2-.1-.3,0s-.3.2-.6.2Z" fill="#0d4160"/><path d="M356.9,407c-.2,0-.5.1-.7.1-.1,0-.2,0-.4,0-.1,0-.1,0-.1.1v0c0,0,0,.1.1.1.2,0,.3.1.4,0c.3,0,.6-.1.9-.2.1,0,.1-.1.1-.2s0-.1-.1-.1-.2.1-.2.2Z" fill="#0d4160"/><path d="M373.3,404.1c-.1,0-.1-.1-.2,0c0,0-.1.1,0,.2.1.2.3.3.5.4.1,0,.1.1.2,0c0-.1.2-.1,0-.2-.2-.2-.4-.3-.5-.4Z" fill="#0d4160"/><path d="M355.5,405.8c0,0,.1,0,.1,0c.1,0,.1-.1.2-.1v0c0-.1-.1-.1-.1-.1-.1,0-.1-.1-.2,0-.3,0-.6.1-.8.2-.1,0-.2,0-.1.2c0,.1.1.1.2,0c.2-.1.4-.2.7-.2Z" fill="#0d4160"/><path d="M360.6,404.4c.1,0,.1,0,.2,0c.2,0,.4,0,.6,0c.1,0,.1-.1.1-.2s-.1-.1-.2-.1c-.3,0-.6,0-.9,0h-.1c-.1,0-.2,0-.1.1c0,0,.1.1.1.1v0c.1.1.2.1.3.1Z" fill="#0d4160"/><path d="M372.6,406.5c.1,0,.1,0,.1-.1s.1-.1,0-.1c-.2-.2-.5-.3-.8-.4-.1,0-.1,0-.1,0c0,.1,0,.1,0,.1c0,.1.1.1.2.1.1.2.4.3.6.4Z" fill="#0d4160"/><path d="M369.9,407.2v0c-.2,0-.3,0-.5,0-.1,0-.1,0-.1,0c0,.1,0,.1,0,.1v0c.1,0,.1.1.2.1.3.1.6,0,.9,0c.1,0,.2,0,.2-.1s-.1-.2-.2-.1v0c-.2,0-.4,0-.5,0Z" fill="#0d4160"/><path d="M358.2,402.7v0c.3-.1.5-.1.7-.1.1,0,.2,0,.2-.1v0c0-.1-.1-.1-.2-.1-.3,0-.6.1-.7.3-.2-.1-.2,0-.2,0v0c0,0,.1,0,.2,0Z" fill="#0d4160"/><path d="M364.4,405.8c.1,0,.2,0,.3,0s.1-.1.2-.1v0c0-.1-.1-.1-.2-.1-.3,0-.7,0-1,0-.1,0-.1,0-.1,0c0,.1,0,.1,0,.1.3.1.6.1.8.1Z" fill="#0d4160"/><path d="M377.1,414.8c0,.1,0,.1.2.1.1,0,.1,0,.1-.1.1-.1.1-.2.1-.3s-.1-.3,0-.5c0-.1,0-.1-.1-.1s-.1,0-.1.1c-.1.4-.1.6-.2.8Z" fill="#0d4160"/><path d="M365.7,402.9c.1,0,.2,0,.1-.1c0,0,0-.1-.1-.1-.2,0-.4-.1-.7-.2-.1,0-.1,0-.2,0c0,0-.1.1,0,.1.3.1.6.2.9.3Z" fill="#0d4160"/><path d="M379.4,416.4c.1,0,.2,0,.3,0h.1c0-.1,0-.1-.1,0-.2-.1-.5-.1-.7-.2-.1-.1-.2.1-.2.1c0,.1,0,.1.1.1.1-.1.3,0,.5,0Z" fill="#0d4160"/><path d="M365.9,402c-.1,0-.2,0-.2.1c0,0,.1.1.2.1.2.1.4.1.5.2.1,0,.1.1.1,0c0,0,.1-.1,0-.1-.1-.2-.3-.3-.6-.3Z" fill="#0d4160"/><path d="M357.1,403.8c-.1-.1-.4,0-.5.1c0,0-.1,0-.1.1s0,.1.1.1v0c.2,0,.5-.1.7-.1.1,0,.1-.1.2-.1c0,0,0-.1-.1-.1-.2,0-.3.1-.3,0Z" fill="#0d4160"/><path d="M365.1,404.5c-.2,0-.3,0-.4,0s-.1,0-.1.1.1,0,.1.1c.3.1.5.1.8.1.1,0,.2,0,.1-.1c0-.1,0-.1-.1-.1v0c-.2-.1-.3-.1-.4-.1Z" fill="#0d4160"/><path d="M362.5,403.6c.2,0,.3,0,.4,0s.1-.1.2-.1v0c0-.1-.1-.1-.2-.1-.2,0-.5,0-.8.1c0,0-.1,0-.1,0s0,.1.1,0c.1,0,.2,0,.4.1Z" fill="#0d4160"/><path d="M365.5,403.8c-.2,0-.3,0-.4,0s-.1,0-.1,0s0,0,0,.1c.3.1.5.1.7.1.1,0,.1-.1.1-.1c0-.1-.1-.1-.2-.1c0-.1,0,0-.1,0Z" fill="#0d4160"/><path d="M355.1,403.7c0,0,.1,0,0,0c.2-.1.3-.1.5-.2.1,0,.2-.1.1-.2c0-.1-.2-.1-.3-.1-.2,0-.4.2-.5.2c0,0-.1,0-.1.1.2.2.3.2.3.2Z" fill="#0d4160"/><path d="M379.3,415.9c.1,0,.2,0,.3,0s.1-.1.1-.1c0-.1,0-.1-.1-.1s-.2,0-.2,0c-.1,0-.2,0-.3,0s-.2,0-.2.1.1.1.2.1c0,0,.1.1.2,0Z" fill="#0d4160"/><path d="M357,402.2c-.2,0-.4,0-.6.1c0,0-.1,0-.1.1c0,0,0,.1.1.1s.1,0,.2,0c.2,0,.4,0,.5,0s.2,0,.1-.1c0,0-.1-.1-.1-.1c0-.1,0-.1-.1-.1Z" fill="#0d4160"/><path d="M363.1,402c-.1,0-.2,0-.2,0s.1.1.2.1c.2.1.3.1.6.1.1,0,.2,0,.2,0v0c0,0-.1-.1-.2-.1-.2-.1-.4-.1-.6-.1Z" fill="#0d4160"/><path d="M377.9,416.1v0c.3-.2.5-.4.5-.6c0-.1,0-.1,0-.1-.1,0-.1,0-.1,0-.1.2-.2.3-.4.4c0,.1,0,.1-.1.1-.1.2,0,.2.1.2v0Z" fill="#0d4160"/><path d="M369.5,403.9c0,0,0,0,0,0c.1.2.4.2.6.2.1,0,.1-.1.2-.1s0-.1-.2-.1-.3-.1-.5-.1c-.1,0-.1,0-.1.1Z" fill="#0d4160"/><path d="M361.6,402.2c-.2,0-.4,0-.4,0-.1,0-.1,0-.1.1s0,.1,0,.1c.2.1.4.1.7.1.1,0,0,0,.1-.1c0,0,0-.1-.1-.1v0c-.1-.1-.1-.1-.2-.1Z" fill="#0d4160"/><path d="M376.5,406.8c0,0-.1.1,0,0c.2.3.2.5.3.8c0,.1.1.2.2.2v0c.1,0,.1-.1.1-.2c0-.3-.2-.5-.3-.8-.1,0-.1-.1-.1-.1-.3,0-.3,0-.2.1Z" fill="#0d4160"/><path d="M368.6,404.2c.1,0,.2,0,.1-.1c0,0,0-.1-.1-.1v0c-.1-.1-.3-.1-.3-.1-.1,0-.1-.1-.2,0-.1,0-.1,0-.1,0s0,.1.1.1c.1.1.3.2.5.2-.1.1-.1,0,0,0Z" fill="#0d4160"/><path d="M358.4,404.3c.1,0,.2,0,.3-.1s.1-.1.2-.1c0-.1-.1-.1-.2-.1v0c-.2,0-.3,0-.4.1c0,0-.1,0-.1.1c0,0,.1,0,.2.1-.1-.1-.1-.1,0,0Z" fill="#0d4160"/><path d="M378.4,409.9c.1.1,0,.1,0,0c.1.2.1.2.3.2.1,0,.2-.1.1-.2c0-.2,0-.3-.1-.6c0-.1-.1-.1-.2-.1s-.1,0-.1.1c0,.3,0,.4,0,.6Z" fill="#0d4160"/><path d="M354.6,404.7c.1,0,.1,0,.2,0s.1-.1.2-.1.1-.1.1-.1c0-.1-.1-.1-.2-.1-.2,0-.3.1-.5.2c0,0-.1,0-.1.1.2,0,.2,0,.3,0Z" fill="#0d4160"/><path d="M376.9,409.7c.1.2.1.4.4.5.1,0,.1.1.2,0c0-.1.2-.1.1-.2-.2-.1-.3-.2-.4-.4-.1,0-.1,0-.1-.1-.2,0-.2.1-.2.2Z" fill="#0d4160"/><path d="M357.7,403c-.1,0-.2,0-.3.1c0,0-.1,0-.1.1s.1.1.2.1v0c.1,0,.1-.1.2,0c.1,0,.1-.1.1-.1c0-.2,0-.2-.1-.2Z" fill="#0d4160"/><path d="M359.8,401.8c-.2,0-.3,0-.4.1c0,0-.1,0-.1.1s.1,0,.1.1c.1,0,.3,0,.4,0s.1-.1.2-.1c-.2-.2-.2-.2-.2-.2Z" fill="#0d4160"/><path d="M378.7,410.9c.1.1.1.2.2.3c0,0,0,.1.1,0c0,0,.1,0,0-.1c0-.1,0-.2-.1-.4c0-.1-.1-.1-.1-.1c0,.1-.1.2-.1.3Z" fill="#0d4160"/><path d="M376,413.9c-.1,0-.1,0-.1,0s.1,0,.1,0c0-.1,0-.1,0-.1-.1,0-.1,0,0-.1s0-.1-.1-.1h-.1c0,.1,0,.1,0,.1v.1c0,.1,0,.1.1.3.1-.1.1-.2.1-.2Z" fill="#0d4160"/><path d="M362.7,406.6c.1,0,.2,0,.2,0s0-.1-.1-.1-.1,0-.2,0-.3-.1-.3.1c.1,0,.3,0,.4,0Z" fill="#0d4160"/><path d="M375.9,413.4c.1-.1.1-.1,0,0c.1,0,.2,0,.2-.1s0-.1-.1-.2c-.1,0,0,.1,0,.1s0,0-.1,0-.1,0-.1.1v.1c0,0,.1-.1.1,0v0Z" fill="#0d4160"/><path d="M374.9,413.4c-.1,0,0-.1-.1-.1c0,.1-.1.1-.1.1c0,.1.1,0,.2,0c0,0,.1-.1.1-.1s.1,0,0-.1v0c0,0-.1,0-.1,0c0,.2,0,.2,0,.2Z" fill="#0d4160"/><path d="M375.4,413.3c-.2-.1-.2.1-.2.1c0,.1,0,.1,0,.1c0-.1.1-.1.2-.1c0,0-.2-.1,0-.1Z" fill="#0d4160"/><path d="M376.1,414.4c0-.1-.1-.1-.1-.2s0-.1-.1-.2c0,0,0-.1-.1,0s0,.1,0,.1c.1.1.1.1,0,.1c0,0-.1.1,0,.1.2.1.3.1.3.1Z" fill="#0d4160"/><path d="M375.6,413.1c0-.1.2,0,.1-.1c0-.1,0-.1,0-.1v0c-.1.1-.1.2-.1.2-.2,0-.1,0,0,0Z" fill="#0d4160"/><path d="M376.4,414.5c0-.1-.1-.2,0-.2v-.1c-.1,0-.1,0-.1,0-.1.2,0,.3.1.3Z" fill="#0d4160"/><path d="M375.2,414.5c.1,0,.1-.1.2-.1c0-.1,0-.1-.1-.1c0,.1-.1.1-.1.2Z" fill="#0d4160"/><path d="M375.8,414.2c0-.1-.1-.1,0,0-.1-.1-.1,0,0,0-.1,0-.1.1,0,0c0,.1-.1.1,0,0Z" fill="#0d4160"/><path d="M377.2,413.7c0,0,0,.1,0,0c0,.1.1,0,0,0v0v0c0-.1,0-.1,0,0Z" fill="#0d4160"/><path d="M375.6,412.9c0,0,.1,0,0,0c0-.1,0-.1-.1-.1c0,0-.1,0-.1,0c.1.1.2.1.2.1Z" fill="#0d4160"/><path d="M376.8,413.5c0,0,.1,0,0,0h.1c0-.1,0-.1,0-.1s0,0-.1.1c.1-.1,0,0,0,0Z" fill="#0d4160"/></g></g></g><clipPath id="ekQtqoMiKvZ188"><use width="35.62793" height="20.899994" xlink:href="#ekQtqoMiKvZ2"/></clipPath></g></g></g></g></g></g></g></g><line x1="373" y1="424.4" x2="373.6" y2="448.8" fill="none" stroke="#000" stroke-width="0.3506" stroke-miterlimit="10"/><line x1="370.6" y1="424.4" x2="370.7" y2="448.8" fill="none" stroke="#000" stroke-width="0.3506" stroke-miterlimit="10"/><line x1="368.1" y1="424.4" x2="368" y2="448.8" fill="none" stroke="#000" stroke-width="0.3506" stroke-miterlimit="10"/><line x1="365.7" y1="424.4" x2="365.2" y2="448.8" fill="none" stroke="#000" stroke-width="0.3506" stroke-miterlimit="10"/><line x1="363.2" y1="424.4" x2="362.5" y2="448.8" fill="none" stroke="#000" stroke-width="0.3506" stroke-miterlimit="10"/><g><path d="M353.8,424.8c.3.2.8.3,1.3.5.7-.2,1.4-.5,1.8-.6c0-.1,0-.1,0-.2.2-.1.4-.1.6-.1.1.1.2.2,0,.2-.3.1-1.3.5-1.9.8c1.1.4,2.2.8,2.1,1.1c0,.1-.1.3-.2.3-.6-.5-4.3-1.7-4.8-1.9c0-.1.2-.4.3-.4.2,0,.4,0,.7.1.2.1,0,.2.1.2Z" fill="#fff"/><path d="M356.7,426.9c0,.2-.2.4-.7.4-.7,0-1.4-.2-1.4-.6c0-.2.2-.3.3-.3-.3,0-.5-.1-.8-.1s-.5.1-.5.3c0,.4.6.7,1.1.7c0,0,.1,0,0,.1c0,.1-.1.1-.3.1-.5,0-1.4-.3-1.3-.8c0-.4.5-.8,1.2-.8.9.1,2.4.6,2.4,1Zm-1.8-.3c0,.2.6.3,1.2.3.3,0,.3,0,.3,0s-.1,0-.1-.1c-.4-.2-.7-.3-1.2-.3-.1,0-.2.1-.2.1v0Z" fill="#fff"/><path d="M356.2,427.4c.1.2.1.4.1.5.3,0,.5.1.7.3c0,.1-.1.4-.2.3l-.4-.1c0,.1,0,.2,0,.3s.1.2-.1.2c-.1,0,0,.1-.1.1c0,.1-.2.1-.2.1h-.1v0c0-.3,0-.5,0-.8-.7-.2-1.4-.3-2.1-.3-.2,0-.2.1-.3.1c0,.4.3.7.7.8c0,0,.1.2-.3.2s-.7-.4-.8-.8c0-.3.4-.6,1.1-.7.5,0,1.1.1,1.7.2v-.3c-.1,0,.2-.2.3-.1Z" fill="#fff"/><path d="M356.1,429.3c.1,0,.1,0,0,0c0,.1,0,.5-.2.5-.7-.2-1.4-.3-2.3-.4-.2,0-.3.1-.3.2c0,.3.6.4.9.4c0,.1,0,.2-.1.2c0,0,0,0-.1,0-.5,0-1-.3-1-.7c0-.3.3-.5.7-.4.9-.1,1.7,0,2.4.2Zm.9.1c.2,0,.6,0,.6.3c0,.2-.1.2-.2.2c0,.1-.2.2-.3.1-.3,0-.5-.2-.5-.4v0c0-.1.2-.2.4-.2v0Z" fill="#fff"/></g><g><path d="M385.1,427.2c-1.1.1-2-.7-2.2-1.6v-.1l-.1-1.3h4l.1,1.3c.2.9-.6,1.7-1.8,1.7.1,0,.1,0,0,0Zm-.1-.7c.6,0,1.1-.4,1.1-.9c0,0,0-.1,0-.1l-.1-.6h-2.4l.1.6c0,.5.6,1,1.2,1.1.1-.1.1-.1.1-.1v0Z" fill="#fff"/><path d="M386.5,429.4h-.8v-.3c-.1-.4-.3-.6-.8-.6h-1.7l-.1-.7h3.2v.5l-.4.2c.3.2.5.5.4.8l.2.1Z" fill="#fff"/><path d="M386.4,429.9l.1.8h-3.2l-.1-.8h3.2Zm1.2,0l.1.8h-.8l-.1-.8h.8Z" fill="#fff"/><path d="M386.8,434.1l-3.3-1.2v-.7l3.1-1.2.1.8-2.1.7l2.2.7v.9Z" fill="#fff"/><path d="M385.1,437.3L385,435c-.4.1-.7.4-.6.7c0,.2.1.5.5.6l.1.9c-.9-.3-1.6-1.1-1.4-2c.1-.9,1.1-1.3,2.1-1.1s1.6,1.1,1.4,2c-.1.7-.8,1.2-1.5,1.2-.3,0-.4,0-.5,0Zm.5-2.3l.2,1.4c.3-.1.6-.4.6-.8-.1-.2-.4-.5-.8-.6v0Z" fill="#fff"/><path d="M387.3,439.7h-.9v-.4c-.1-.5-.3-.6-.9-.7h-1.7l-.1-.8h3.3v.5l-.4.2c.3.2.5.6.4.9l.3.3Z" fill="#fff"/><path d="M378.1,426.3h-.8l-.1-2.1h4v.8h-3.2l.1,1.3Z" fill="#fff"/><path d="M380.4,426.7l.1.7h-3.1l-.1-.7h3.1Zm1.2,0l.1.7h-.8l-.1-.7h.8Z" fill="#fff"/><path d="M378.9,428c.9,0,1.7.6,1.7,1.4v.1c.1.7-.4,1.3-1.2,1.5l-.1-.8c.4-.2.6-.6.4-.9-.1-.3-.5-.5-.8-.4-.4,0-.8.3-.8.7v0c0,.3.2.6.6.7l.1.8c-.8-.1-1.4-.7-1.4-1.4-.2-1,.6-1.7,1.5-1.7v0Z" fill="#fff"/><path d="M378.9,434.2l-.1-2.2c-.4.1-.7.4-.7.7c0,.2.1.5.4.6v.9c-.9-.3-1.5-1.1-1.3-1.9s1.2-1.3,2.2-1.1c.9.2,1.5,1.1,1.3,1.9-.2.7-.8,1.1-1.5,1.1-.1,0-.2,0-.3,0Zm.5-2.2l.1,1.4c.3-.1.6-.4.6-.7s-.3-.6-.7-.7v0Z" fill="#fff"/><path d="M379.7,437.6h-2l-.1-.8h1.8c.5,0,.8-.2.7-.5c0-.3-.3-.7-.8-.7c0,0-.1,0-.1,0h-1.7l-.1-.8h3.3v.5l-.4.2c.4.2.6.6.5,1c.2.6-.3,1-1.1,1.1.1,0,.1,0,0,0Z" fill="#fff"/><path d="M378.8,438.1l.1.8c-.3,0-.4.2-.5.5c0,.3.2.4.4.4s.3-.3.3-.6c.1-.5.2-1.1,1-1.1.6,0,1.1.5,1.1,1.2.1.6-.3,1.1-.9,1.3h-.1l-.1-.8c.3,0,.4-.2.3-.5c0-.3-.2-.4-.4-.4s-.2.2-.3.6c-.1.5-.2,1.2-1,1.1-.7,0-1.1-.5-1.2-1.3-.2-.6.3-1.2,1-1.3.2.2.3.1.3.1Z" fill="#fff"/><path d="M379.4,444.5l-.1-2.4c-.4.1-.7.4-.7.8c0,.3.1.5.5.7v.9c-1-.3-1.6-1.2-1.4-2.1.3-.9,1.2-1.4,2.2-1.2.9.3,1.6,1.2,1.4,2.1-.2.7-.8,1.3-1.6,1.2-.1,0-.2-.1-.3,0Zm.5-2.5l.1,1.5c.4-.1.6-.4.6-.8c0-.2-.3-.6-.7-.7v0Z" fill="#fff"/></g></g><path d="M408.2,468.7l-23.9-37.6c-2.4-2.8-7.2-3.3-10.5-.9-3.4,2.3-4.2,4.4-1.7,9.4l5.2,10.5l3.8,6.4c1.1,2.6,2.6,5,4.6,7c3.2,3.3-1.3-2.8-.8,1.7l.2,1.4c2,11,9.4,20.6,14.4,23.6c2.5,1.5,4.2,3.1,7.2,3.4c4.7.5,11.9,10.6,17.3,16.5c7.7,8.3,18.1,24.7,18.1,24.7l68,96.3h74.6l-164-167.4" fill="#b1b1b1"/></g></g></g><g id="ekQtqoMiKvZ215_to" transform="translate(368.099976,411.795303)"><path id="ekQtqoMiKvZ215" style="mix-blend-mode:multiply" d="M389.3,399.8l-.2-1.8c-.1-1.4-1.4-2.1-2.7-2h-34.2c-1.3,0-2.8,1.3-2.9,2.4l-2.4,29.2l42.4-27.8Z" transform="translate(-368.099976,-411.795303)" opacity="0" fill="#e0e0e0"/></g><g><path d="M353.5,164.9h-78.9c-1.3,0-2.4-1.1-2.4-2.4s1.1-2.4,2.4-2.4h78.9c1.3,0,2.4,1.1,2.4,2.4c0,1.4-1,2.4-2.4,2.4Z" fill="#fff"/><path d="M329.2,177.2h-54.4c-1.3,0-2.4-1.1-2.4-2.4s1.1-2.4,2.4-2.4h54.4c1.3,0,2.4,1.1,2.4,2.4s-1.1,2.4-2.4,2.4Z" fill="#fff"/><path d="M329.2,195.1h-54.4c-.7,0-1.2-.5-1.2-1.2s.5-1.2,1.2-1.2h54.4c.7,0,1.2.5,1.2,1.2c0,.6-.6,1.2-1.2,1.2Z" fill="#0d4160"/><path d="M316.4,204.2h-41.7c-.7,0-1.2-.5-1.2-1.2s.5-1.2,1.2-1.2h41.7c.7,0,1.2.5,1.2,1.2s-.5,1.2-1.2,1.2Z" fill="#0d4160"/><path d="M316.4,220.6h-41.7c-.7,0-1.2-.5-1.2-1.2s.5-1.2,1.2-1.2h41.7c.7,0,1.2.5,1.2,1.2c0,.6-.5,1.2-1.2,1.2Z" fill="#fff"/><path d="M287.4,257.7h53.9c3.5,0,6.4,2.8,6.4,6.4v30.3c0,3.5-2.8,6.4-6.4,6.4h-53.9c-3.5,0-6.4-2.8-6.4-6.4v-30.4c.1-3.6,2.9-6.3,6.4-6.3Z" fill="#fff"/><rect width="19.7" height="30.8" rx="0" ry="0" transform="translate(287.1 262.7)" fill="#f0f0f0"/><rect width="16.9" height="2.4" rx="0" ry="0" transform="translate(314.4 263.5)" fill="#414042"/><rect width="19.2" height="2.4" rx="0" ry="0" transform="translate(314.4 268.3)" fill="#414042"/><rect width="19.2" height="1" rx="0" ry="0" transform="translate(314.4 277.3)" fill="#414042"/><rect width="19.2" height="1" rx="0" ry="0" transform="translate(314.4 279.6)" fill="#414042"/><rect width="19.2" height="1" rx="0" ry="0" transform="translate(314.4 282.5)" fill="#414042"/><rect width="19.2" height="1" rx="0" ry="0" transform="translate(314.4 285)" fill="#414042"/></g></svg>
