<svg id="egMbn1ZCz3K1" xmlns="http://www.w3.org/2000/svg" xmlns:xlink="http://www.w3.org/1999/xlink" viewBox="140 0 341.1 626.6" shape-rendering="geometricPrecision" text-rendering="geometricPrecision">
<style><![CDATA[
#egMbn1ZCz3K35_to {animation: egMbn1ZCz3K35_to__to 3000ms linear infinite normal forwards}@keyframes egMbn1ZCz3K35_to__to { 0% {transform: translate(542.925619px,872.109102px)} 45% {transform: translate(464.625534px,513.400015px)} 48.333333% {transform: translate(464.625534px,517.400015px)} 60.666667% {transform: translate(464.625534px,517.400015px)} 94.666667% {transform: translate(464.625534px,762.276028px)} 100% {transform: translate(464.625534px,762.276028px)}} #egMbn1ZCz3K35_ts {animation: egMbn1ZCz3K35_ts__ts 3000ms linear infinite normal forwards}@keyframes egMbn1ZCz3K35_ts__ts { 0% {transform: scale(1.782441,1.782435)} 45% {transform: scale(1,1)} 100% {transform: scale(1,1)}} #egMbn1ZCz3K125_to {animation: egMbn1ZCz3K125_to__to 3000ms linear infinite normal forwards}@keyframes egMbn1ZCz3K125_to__to { 0% {transform: translate(368.050003px,411.896194px)} 44.666667% {transform: translate(368.050003px,411.896194px)} 48% {transform: translate(368.050003px,415.896194px)} 56.666667% {transform: translate(368.050003px,415.896194px)} 100% {transform: translate(368.050003px,415.896194px)}} #egMbn1ZCz3K125 {animation: egMbn1ZCz3K125_c_o 3000ms linear infinite normal forwards}@keyframes egMbn1ZCz3K125_c_o { 0% {opacity: 0} 43.333333% {opacity: 0} 45% {opacity: 1} 56.666667% {opacity: 1} 58.333333% {opacity: 0} 100% {opacity: 0}}
]]></style>
<g><g><g><rect width="210.2" height="60.8" rx="0" ry="0" transform="translate(210.6 384.4)" fill="#002e75"/></g><g><rect width="210.2" height="186.1" rx="0" ry="0" transform="translate(210.6 445.2)" fill="#064990"/><g><polygon points="213.1,100.4 418,100.8 420.9,363.4 210.6,363.4" fill="#064990"/><rect width="210.2" height="21" rx="0" ry="0" transform="translate(210.6 363.4)" fill="#285293"/></g><path d="M275.8,118.3h-28.5c-1.3,0-2.5-1.1-2.5-2.5v-7.7c0-1.3,1.1-2.5,2.5-2.5h28.5c1.3,0,2.5,1.1,2.5,2.5v7.7c0,1.4-1.1,2.5-2.5,2.5Z" fill="#292b2b"/><path d="M386.2,118.3h-28.5c-1.3,0-2.5-1.1-2.5-2.5v-7.7c0-1.3,1.1-2.5,2.5-2.5h28.5c1.3,0,2.5,1.1,2.5,2.5v7.7c0,1.4-1.1,2.5-2.5,2.5Z" fill="#292b2b"/><path d="M398.8,131.1c-.1-3-2.6-5.4-5.6-5.4h-65-89.8c-3,0-5.5,2.4-5.6,5.4l-.3,211.6c-.1,3.2,2.4,5.8,5.6,5.8h119.1h36.3c3.2,0,5.7-2.6,5.6-5.8l-.3-211.6ZM315.3,334.4h-70.5L244.7,139h80.4h61.7l-.1,195.4h-71.4Z" fill="#292b2b"/><path d="M309.6,434.5h-77.6c-1.3,0-2.5-1.1-2.5-2.5l.5-36.7c0-1.3,1.1-2.5,2.5-2.5l77.1.7c1.3,0,2.5,1.1,2.5,2.5v36c0,1.4-1.1,2.5-2.5,2.5Z" fill="#18427d"/><path d="M396.6,433.1h-58.3c-1.3,0-2.5-1.1-2.5-2.5v-35.4c0-1.3,1.1-2.5,2.5-2.5h58.3c1.3,0,2.5,1.1,2.5,2.5v35.4c0,1.4-1.1,2.5-2.5,2.5Z" fill="#e8e8e8"/><path d="M340.6,431.5c-1.2,0-2.3-1-2.3-2.3v-32.7c0-1.2,1-2.3,2.3-2.3h53.7c1.2,0,2.3,1,2.3,2.3l-56,35Z" fill="#e0e0e0"/><path d="M374.2,436.9h-12.6c-1.3,0-2.5-1.1-2.5-2.5v-3.2c0-1.3,1.1-2.5,2.5-2.5h12.6c1.3,0,2.5,1.1,2.5,2.5v3.2c0,1.4-1.1,2.5-2.5,2.5Z" fill="#e8e8e8"/><rect width="24.9" height="22.4" rx="0" ry="0" transform="translate(304 99.2)" fill="#1b569e"/><circle r="5.4" transform="translate(316.5 110.4)" fill="#292b2b"/></g><path d="M352.6,543.5h-72.6c-1.3,0-2.5-1.1-2.5-2.5v-76.3c0-1.3,1.1-2.5,2.5-2.5h72.5c1.3,0,2.5,1.1,2.5,2.5v76.3c0,1.4-1.1,2.5-2.4,2.5Z" fill="#f4f4f4"/><path d="M281.3,537v-67.5c0-1.6,1.3-2.9,2.9-2.9h63.9c1.6,0,2.9,1.3,2.9,2.9v67.5c0,1.5-1.1,2.8-2.5,2.7h-64.7c-1.2.1-2.4-1.2-2.5-2.7Z" fill="#959595"/><rect width="63.5" height="20.6" rx="0" ry="0" transform="translate(284.4 510.8)"/><rect width="63.5" height="4.6" rx="0" ry="0" transform="translate(284.4 518.4)" fill="#34393d" stroke="#000" stroke-width="0.1044" stroke-linecap="round" stroke-linejoin="round"/><path d="M347.8,466.6h-63.2c-1.8,0-3.3,1.5-3.3,3.3v20.8h69.8v-20.8c0-1.8-1.5-3.3-3.3-3.3Z" fill="#858585"/><polygon points="315.3,334.4 244.9,334.4 244.7,139.1 325.1,139.1 386.8,139.1 386.6,334.4" fill="#00ebd5"/></g></g><g><g><path d="M351.8,165.3h-77.2c-1.3,0-2.3-1.1-2.3-2.3c0-1.3,1.1-2.3,2.3-2.3h77.2c1.3,0,2.3,1.1,2.3,2.3s-.9,2.3-2.3,2.3Z" fill="#fff"/><path d="M328,177.2h-53.3c-1.3,0-2.3-1.1-2.3-2.3s1.1-2.3,2.3-2.3h53.3c1.3,0,2.3,1.1,2.3,2.3s-1,2.3-2.3,2.3Z" fill="#fff"/><path d="M328,194.7h-53.3c-.6,0-1.2-.5-1.2-1.2c0-.6.5-1.2,1.2-1.2h53.3c.6,0,1.2.5,1.2,1.2s-.6,1.2-1.2,1.2Z" fill="#0d4160"/><path d="M315.5,203.7h-40.8c-.6,0-1.2-.5-1.2-1.2s.5-1.2,1.2-1.2h40.8c.6,0,1.2.5,1.2,1.2s-.6,1.2-1.2,1.2Z" fill="#0d4160"/><path d="M315.5,219.7h-40.8c-.6,0-1.2-.5-1.2-1.2c0-.6.5-1.2,1.2-1.2h40.8c.6,0,1.2.5,1.2,1.2s-.6,1.2-1.2,1.2Z" fill="#fff"/><path d="M288.8,257.7h52.8c3.4,0,6.3,2.8,6.3,6.3v29.7c0,3.4-2.8,6.3-6.3,6.3h-52.9c-3.4,0-6.3-2.8-6.3-6.3v-29.7c.2-3.6,3-6.3,6.4-6.3Z" fill="#fff"/><rect width="65.1" height="8.9" rx="0" ry="0" transform="translate(282.6 265.9)" fill="#414042"/></g></g><g id="egMbn1ZCz3K35_to" transform="translate(542.925619,872.109102)"><g id="egMbn1ZCz3K35_ts" transform="scale(1.782441,1.782435)"><g transform="translate(-464.625534,-513.650009)"><path d="M362.7,448.9c0,0,0,0,0,0v0l28.6-6.9.4,6.9-24.1,11.6v0c0,0,0,0-.1,0-3.4,1.7-7.2.3-8.5-2.9s-.6-7.8,3.7-8.7Z" fill="#b1b1b1"/><path d="M368.8,456.6v0v0L391,444.1l6.6,9.7-22.2,12.4v0c0,0,0,0-.1,0-3.1,1.8-7.1,1-8.9-1.7s-.7-6.2,2.4-7.9Z" fill="#b1b1b1"/><path d="M374.8,464.6v0v0l21.2-9.2l4.5,9.4-21.1,9.2v0c0,0,0,0-.1,0-3,1.3-6.4.2-7.7-2.4s.2-5.7,3.2-7Z" fill="#b1b1b1"/><path d="M383.9,429.2c1.2-.7,2.7-.9,4-.5l14.4,3.6c2.1.6,3.8,2,4.7,3.9l18.7,37.4c1.1,2.2-.1,4.9-2.7,5.9l-9.2,4c-2.6,1.1-5.5.2-6.5-2l-13.5-32.3-11.1-2.8-17,8.1c-7.2,3.7-12.9,2.4-13.7-2.4-.5-2.8,0-5.3,5.6-8l26.3-14.9Z" fill="#b1b1b1"/><path d="M376.6,428.4c1.2-.7,2.7-.9,4-.5l14.4,3.6c2.1.6,3.8,2,4.7,3.9l18.7,37.4c1.1,2.2-.1,4.9-2.7,5.9l-9.2,4c-2.6,1.1-5.5.2-6.5-2l-13.5-32.3-11.1-2.8-17,8.1c-7.2,3.7-12.9,2.4-13.7-2.4-.5-2.8,0-5.3,5.6-8l26.3-14.9Z" fill="#b1b1b1"/><g><path d="M389,398l5,55.1c.2,1.7-1.1,2.9-2.7,3l-43.9.2c-1.7,0-2.9-1.3-2.8-2.9l4.6-55c.1-1.1,1.2-1.9,2.5-1.9l34.6-.3c1.5,0,2.7.9,2.7,1.8Z" fill="#fc7e79"/><path d="M389,398l5,55.1c.2,1.7-1.1,2.9-2.7,3l-43.9.2c-1.7,0-2.9-1.3-2.8-2.9l4.6-55c.1-1.1,1.2-1.9,2.5-1.9l34.6-.3c1.5,0,2.7.9,2.7,1.8Z" fill="#37e6d5"/><polygon points="373.6,396.3 382.6,396.3 386.4,456.1 375,456.2" fill="#4a4a4a"/><line x1="370.9" y1="400.6" x2="371.5" y2="450.3" fill="none" stroke="#4a4a4a" stroke-width="0.6155" stroke-miterlimit="10"/><line x1="368.7" y1="400.6" x2="368.8" y2="437.9" fill="none" stroke="#4a4a4a" stroke-width="0.6155" stroke-miterlimit="10"/><line x1="364.2" y1="400.6" x2="364" y2="413.4" fill="none" stroke="#4a4a4a" stroke-width="0.6155" stroke-miterlimit="10"/><line x1="362" y1="400.7" x2="361.3" y2="424.6" fill="none" stroke="#4a4a4a" stroke-width="0.6155" stroke-miterlimit="10"/><g><polygon points="359.5,400.8 353.4,400.9 359.5,400.8 359.5,400.6 353.2,400.6 353.2,400.9 353.2,400.9 353.1,401.1 359.5,401.1" fill="#4a4a4a"/><polygon points="353.1,401.4 359.5,401.3 359.5,401.5 353.1,401.6" fill="#4a4a4a"/><polygon points="353.1,401.9 359.5,401.8 359.5,402.1 353.1,402.1" fill="#4a4a4a"/><polygon points="353.1,402.4 359.4,402.3 359.4,402.6 353,402.6" fill="#4a4a4a"/><polygon points="353,402.9 359.4,402.9 359.4,403.1 353,403.1" fill="#4a4a4a"/><polygon points="353,403.4 359.4,403.4 359.4,403.6 352.9,403.7" fill="#4a4a4a"/><polygon points="352.9,403.7 359.3,403.6 359.3,403.9 352.9,403.9" fill="#4a4a4a"/><polygon points="352.9,404.2 359.4,404.1 359.3,404.3 352.9,404.4" fill="#4a4a4a"/><polygon points="352.9,404.7 359.3,404.6 359.3,404.9 352.9,404.9" fill="#4a4a4a"/><polygon points="352.8,405.2 359.3,405.2 359.3,405.4 352.8,405.5" fill="#4a4a4a"/><polygon points="359.2,405.7 352.8,405.7 352.8,406 352.8,406 352.8,406.3 359.2,406.2" fill="#4a4a4a"/><polygon points="352.8,406.5 359.3,406.4 359.2,406.7 352.7,406.7" fill="#4a4a4a"/><polygon points="352.7,406.8 359.2,406.7 359.2,406.9 352.7,407" fill="#4a4a4a"/><polygon points="359.2,407.5 359.2,407.5 359.2,407.3 352.7,407.3 352.6,407.6 355.9,407.6 352.6,407.6 352.6,407.9 359.2,407.8" fill="#4a4a4a"/><polygon points="352.6,408.1 359.2,408.1 359.1,408.3 352.6,408.4" fill="#4a4a4a"/><polygon points="352.6,408.6 359.1,408.6 359.1,408.8 352.6,408.9" fill="#4a4a4a"/><polygon points="352.6,409.2 359.2,409.1 359.2,409.4 352.6,409.4" fill="#4a4a4a"/><polygon points="352.6,409.7 359.2,409.7 359.2,409.9 352.6,410" fill="#4a4a4a"/><polygon points="359.1,410.5 355.9,410.5 359.1,410.5 359.1,410.2 352.5,410.3 352.5,410.6 352.5,410.6 352.5,410.8 359.1,410.8" fill="#4a4a4a"/><polygon points="352.5,411.1 359.1,411 359.1,411.3 352.4,411.3" fill="#4a4a4a"/><polygon points="352.4,411.5 359,411.5 359,411.7 352.4,411.8" fill="#4a4a4a"/><polygon points="352.4,411.9 359.1,411.8 359.1,412.1 352.4,412.1" fill="#4a4a4a"/><polygon points="352.4,412.4 359,412.4 359,412.6 352.4,412.7" fill="#4a4a4a"/><polygon points="352.3,413 359,413 359,413.2 352.3,413.3" fill="#4a4a4a"/><polygon points="352.3,413.5 359,413.5 359,413.7 352.3,413.8" fill="#4a4a4a"/><polygon points="352.3,414.1 359,414 359,414.3 352.3,414.3" fill="#4a4a4a"/><polygon points="358.9,414.9 355.6,414.9 358.9,414.9 358.9,414.6 352.2,414.7 352.2,415 352.2,415 352.2,415.2 358.9,415.2" fill="#4a4a4a"/><polygon points="358.1,437 358.1,437 358.1,436.7 358.1,436.7 358.1,436.5 350.7,436.5 350.7,436.8 350.7,436.8 350.7,437 350.7,437 350.7,437.3 358.1,437.3" fill="#4a4a4a"/><polygon points="350.7,437.7 358.1,437.7 358,438 350.7,438" fill="#4a4a4a"/><polygon points="350.7,438.3 358.1,438.3 358,438.6 350.7,438.6" fill="#4a4a4a"/><polygon points="350.6,439 358,439 358,439.3 350.6,439.3" fill="#4a4a4a"/><polygon points="350.6,439.7 358,439.7 358,440 350.6,440" fill="#4a4a4a"/><polygon points="357.9,440.7 357.9,440.7 357.9,440.4 350.5,440.4 350.5,440.7 350.5,440.7 350.5,441.1 357.9,441" fill="#4a4a4a"/><polygon points="350.5,441.4 357.9,441.4 357.9,441.7 350.5,441.7" fill="#4a4a4a"/><polygon points="350.4,442.1 357.9,442.1 357.9,442.4 350.4,442.4" fill="#4a4a4a"/><polygon points="350.4,442.8 357.8,442.8 357.8,443.1 350.3,443.1" fill="#4a4a4a"/><polygon points="357.8,443.9 357.8,443.9 357.8,443.5 350.3,443.5 350.3,443.9 350.3,443.9 350.2,444.2 357.7,444.2" fill="#4a4a4a"/><polygon points="357.8,444.5 350.2,444.6 350.2,444.9 350.2,444.9 350.2,445.3 357.7,445.2" fill="#4a4a4a"/><polygon points="357.7,445.6 350.1,445.7 350.1,446 350.1,446 350.1,446.4 357.7,446.4" fill="#4a4a4a"/><polygon points="350.1,446.7 357.7,446.7 357.6,447 350,447" fill="#4a4a4a"/><polygon points="350,447.5 357.6,447.4 357.6,447.7 350,447.8" fill="#4a4a4a"/><polygon points="349.9,448.2 357.6,448.2 357.6,448.5 349.9,448.5" fill="#4a4a4a"/><polygon points="349.9,448.9 357.6,448.8 357.6,449.1 349.9,449.2" fill="#4a4a4a"/><polygon points="349.9,449.6 357.5,449.6 357.5,449.9 349.8,449.9" fill="#4a4a4a"/><polygon points="352.2,415.5 358.9,415.5 358.9,415.7 352.1,415.8" fill="#4a4a4a"/><polygon points="352.1,416.1 358.9,416 358.8,416.3 352.1,416.4" fill="#4a4a4a"/><polygon points="352.1,416.6 358.9,416.6 358.9,416.8 352.1,416.9" fill="#4a4a4a"/><polygon points="358.8,417.4 358.8,417.4 358.8,417.2 352,417.2 352,417.5 352,417.5 352,417.8 358.8,417.7" fill="#4a4a4a"/><polygon points="358.8,418.4 358.8,418.4 358.8,418.1 352,418.1 352,418.4 352,418.4 351.9,418.6 358.8,418.6" fill="#4a4a4a"/><polygon points="358.8,419.2 358.8,419.2 358.8,418.9 351.9,418.9 351.9,419.2 351.9,419.2 351.9,419.5 358.8,419.5" fill="#4a4a4a"/><polygon points="351.9,419.8 358.7,419.7 358.7,420 351.8,420.1" fill="#4a4a4a"/><polygon points="351.8,420.4 358.7,420.3 358.7,420.6 351.8,420.7" fill="#4a4a4a"/><polygon points="351.8,421 358.6,420.9 358.6,421.2 351.7,421.3" fill="#4a4a4a"/><polygon points="351.7,421.6 358.6,421.5 358.6,421.8 351.7,421.8" fill="#4a4a4a"/><polygon points="358.6,422.4 358.6,422.4 358.7,422.1 351.7,422.2 351.7,422.8 358.6,422.7" fill="#4a4a4a"/><polygon points="351.7,423.1 358.6,423.1 358.6,423.3 351.7,423.4" fill="#4a4a4a"/><polygon points="358.6,424.1 358.6,424.1 358.6,423.8 351.6,423.7 351.6,424.1 351.6,424.1 351.5,424.4 358.6,424.4" fill="#4a4a4a"/><polygon points="351.5,424.7 358.5,424.6 358.5,424.9 351.5,425" fill="#4a4a4a"/><polygon points="351.5,425.2 358.5,425.2 358.5,425.5 351.5,425.5" fill="#4a4a4a"/><polygon points="351.5,425.9 358.5,425.8 358.5,426.1 351.4,426.2" fill="#4a4a4a"/><polygon points="351.5,426.6 358.5,426.5 358.5,426.8 351.4,426.8" fill="#4a4a4a"/><polygon points="358.4,427.1 351.4,427.1 351.4,427.5 351.4,427.5 351.4,427.8 358.5,427.7" fill="#4a4a4a"/><polygon points="351.4,428.1 358.5,428 358.4,428.3 351.4,428.4" fill="#4a4a4a"/><polygon points="351.3,428.7 358.4,428.7 358.4,428.9 351.3,429" fill="#4a4a4a"/><polygon points="351.3,429.4 358.4,429.3 358.4,429.6 351.2,429.6" fill="#4a4a4a"/><polygon points="358.3,429.9 351.2,430 351.2,430.3 351.2,430.3 351.2,430.6 358.3,430.6" fill="#4a4a4a"/><polygon points="358.3,430.9 351.1,430.9 351.1,431.3 351.1,431.3 351.1,431.6 358.3,431.5" fill="#4a4a4a"/><polygon points="358.3,431.8 351.1,431.9 351,432.2 351,432.2 351,432.6 358.2,432.5" fill="#4a4a4a"/><polygon points="351,432.9 358.2,432.8 358.2,433.1 351,433.2" fill="#4a4a4a"/><polygon points="350.9,433.5 358.2,433.5 358.2,433.8 350.9,433.8" fill="#4a4a4a"/><polygon points="350.9,434.2 358.1,434.2 358.1,434.5 350.9,434.5" fill="#4a4a4a"/><polygon points="350.9,434.8 358.1,434.7 358.1,435 350.9,435.1" fill="#4a4a4a"/><polygon points="358.1,435.8 358.1,435.8 358.2,435.5 350.8,435.5 350.8,435.9 350.8,435.9 350.7,436.2 358.1,436.1" fill="#4a4a4a"/></g></g><path d="M408.2,468.7l-23.9-37.6c-2.4-2.8-7.2-3.3-10.5-.9-3.4,2.3-4.2,4.4-1.7,9.4l5.2,10.5l3.8,6.4c1.1,2.6,2.6,5,4.6,7c3.2,3.3-1.3-2.8-.8,1.7l.2,1.4c2,11,9.4,20.6,14.4,23.6c2.5,1.5,4.2,3.1,7.2,3.4c4.7.5,11.9,10.6,17.3,16.5c7.7,8.3,18.1,24.7,18.1,24.7l68,96.3h74.6l-164-167.4" fill="#b1b1b1"/></g></g></g><g id="egMbn1ZCz3K125_to" transform="translate(368.050003,411.896194)"><path id="egMbn1ZCz3K125" style="mix-blend-mode:multiply" d="M389.2,399.9L389,398c-.1-1-1.2-1.9-2.6-1.8l-34.6.3c-1.3,0-2.5.9-2.5,1.9l-2.4,29.2l42.3-27.7Z" transform="translate(-368.050003,-411.896194)" opacity="0" fill="#e0e0e0"/></g></svg>
