<svg version="1.1" id="el_xaNwEfxTx" xmlns="http://www.w3.org/2000/svg" xmlns:xlink="http://www.w3.org/1999/xlink" x="0px" y="0px" viewBox="0 0 360 584" style="enable-background:new 0 0 360 584;" xml:space="preserve"> <style>svg {cursor : none;}</style><style>@-webkit-keyframes kf_el_GCzscQyo_L0_an_CiLo4GHC-{0%{opacity: 0;}73.33%{opacity: 0;}74.44%{opacity: 1;}100%{opacity: 1;}}@keyframes kf_el_GCzscQyo_L0_an_CiLo4GHC-{0%{opacity: 0;}73.33%{opacity: 0;}74.44%{opacity: 1;}100%{opacity: 1;}}@-webkit-keyframes kf_el_GCzscQyo_L0_an_Vgv5ZOMrq{0%{-webkit-transform: translate(179.89999389648438px, 122.94999694824219px) scale(0.3, 0.3) translate(-179.89999389648438px, -122.94999694824219px);transform: translate(179.89999389648438px, 122.94999694824219px) scale(0.3, 0.3) translate(-179.89999389648438px, -122.94999694824219px);}74.44%{-webkit-transform: translate(179.89999389648438px, 122.94999694824219px) scale(0.3, 0.3) translate(-179.89999389648438px, -122.94999694824219px);transform: translate(179.89999389648438px, 122.94999694824219px) scale(0.3, 0.3) translate(-179.89999389648438px, -122.94999694824219px);}78.89%{-webkit-transform: translate(179.89999389648438px, 122.94999694824219px) scale(1.1, 1.1) translate(-179.89999389648438px, -122.94999694824219px);transform: translate(179.89999389648438px, 122.94999694824219px) scale(1.1, 1.1) translate(-179.89999389648438px, -122.94999694824219px);}79.44%{-webkit-transform: translate(179.89999389648438px, 122.94999694824219px) scale(1, 1) translate(-179.89999389648438px, -122.94999694824219px);transform: translate(179.89999389648438px, 122.94999694824219px) scale(1, 1) translate(-179.89999389648438px, -122.94999694824219px);}100%{-webkit-transform: translate(179.89999389648438px, 122.94999694824219px) scale(1, 1) translate(-179.89999389648438px, -122.94999694824219px);transform: translate(179.89999389648438px, 122.94999694824219px) scale(1, 1) translate(-179.89999389648438px, -122.94999694824219px);}}@keyframes kf_el_GCzscQyo_L0_an_Vgv5ZOMrq{0%{-webkit-transform: translate(179.89999389648438px, 122.94999694824219px) scale(0.3, 0.3) translate(-179.89999389648438px, -122.94999694824219px);transform: translate(179.89999389648438px, 122.94999694824219px) scale(0.3, 0.3) translate(-179.89999389648438px, -122.94999694824219px);}74.44%{-webkit-transform: translate(179.89999389648438px, 122.94999694824219px) scale(0.3, 0.3) translate(-179.89999389648438px, -122.94999694824219px);transform: translate(179.89999389648438px, 122.94999694824219px) scale(0.3, 0.3) translate(-179.89999389648438px, -122.94999694824219px);}78.89%{-webkit-transform: translate(179.89999389648438px, 122.94999694824219px) scale(1.1, 1.1) translate(-179.89999389648438px, -122.94999694824219px);transform: translate(179.89999389648438px, 122.94999694824219px) scale(1.1, 1.1) translate(-179.89999389648438px, -122.94999694824219px);}79.44%{-webkit-transform: translate(179.89999389648438px, 122.94999694824219px) scale(1, 1) translate(-179.89999389648438px, -122.94999694824219px);transform: translate(179.89999389648438px, 122.94999694824219px) scale(1, 1) translate(-179.89999389648438px, -122.94999694824219px);}100%{-webkit-transform: translate(179.89999389648438px, 122.94999694824219px) scale(1, 1) translate(-179.89999389648438px, -122.94999694824219px);transform: translate(179.89999389648438px, 122.94999694824219px) scale(1, 1) translate(-179.89999389648438px, -122.94999694824219px);}}@-webkit-keyframes kf_el_9R68C06BP_b_an_0xWIckczf{73.33%{opacity: 1;}74.44%{opacity: 0;}0%{opacity: 1;}100%{opacity: 0;}}@keyframes kf_el_9R68C06BP_b_an_0xWIckczf{73.33%{opacity: 1;}74.44%{opacity: 0;}0%{opacity: 1;}100%{opacity: 0;}}@-webkit-keyframes kf_el_UbFTZOmAJoH_an_jZj10o5zK{73.33%{opacity: 1;}74.44%{opacity: 0;}0%{opacity: 1;}100%{opacity: 0;}}@keyframes kf_el_UbFTZOmAJoH_an_jZj10o5zK{73.33%{opacity: 1;}74.44%{opacity: 0;}0%{opacity: 1;}100%{opacity: 0;}}@-webkit-keyframes kf_el_3YnQ7KqYvmM_an_oFyDUVwXv{50%{-webkit-transform: translate(184.4752960205078px, 235.39999389648438px) translate(-184.4752960205078px, -235.39999389648438px) translate(0px, 355px);transform: translate(184.4752960205078px, 235.39999389648438px) translate(-184.4752960205078px, -235.39999389648438px) translate(0px, 355px);}60.56%{-webkit-transform: translate(184.4752960205078px, 235.39999389648438px) translate(-184.4752960205078px, -235.39999389648438px) translate(0px, 0px);transform: translate(184.4752960205078px, 235.39999389648438px) translate(-184.4752960205078px, -235.39999389648438px) translate(0px, 0px);}62.78%{-webkit-transform: translate(184.4752960205078px, 235.39999389648438px) translate(-184.4752960205078px, -235.39999389648438px) translate(0px, 5px);transform: translate(184.4752960205078px, 235.39999389648438px) translate(-184.4752960205078px, -235.39999389648438px) translate(0px, 5px);}73.33%{-webkit-transform: translate(184.4752960205078px, 235.39999389648438px) translate(-184.4752960205078px, -235.39999389648438px) translate(0px, 5px);transform: translate(184.4752960205078px, 235.39999389648438px) translate(-184.4752960205078px, -235.39999389648438px) translate(0px, 5px);}85.56%{-webkit-transform: translate(184.4752960205078px, 235.39999389648438px) translate(-184.4752960205078px, -235.39999389648438px) translate(0px, 355px);transform: translate(184.4752960205078px, 235.39999389648438px) translate(-184.4752960205078px, -235.39999389648438px) translate(0px, 355px);}0%{-webkit-transform: translate(184.4752960205078px, 235.39999389648438px) translate(-184.4752960205078px, -235.39999389648438px) translate(0px, 355px);transform: translate(184.4752960205078px, 235.39999389648438px) translate(-184.4752960205078px, -235.39999389648438px) translate(0px, 355px);}100%{-webkit-transform: translate(184.4752960205078px, 235.39999389648438px) translate(-184.4752960205078px, -235.39999389648438px) translate(0px, 355px);transform: translate(184.4752960205078px, 235.39999389648438px) translate(-184.4752960205078px, -235.39999389648438px) translate(0px, 355px);}}@keyframes kf_el_3YnQ7KqYvmM_an_oFyDUVwXv{50%{-webkit-transform: translate(184.4752960205078px, 235.39999389648438px) translate(-184.4752960205078px, -235.39999389648438px) translate(0px, 355px);transform: translate(184.4752960205078px, 235.39999389648438px) translate(-184.4752960205078px, -235.39999389648438px) translate(0px, 355px);}60.56%{-webkit-transform: translate(184.4752960205078px, 235.39999389648438px) translate(-184.4752960205078px, -235.39999389648438px) translate(0px, 0px);transform: translate(184.4752960205078px, 235.39999389648438px) translate(-184.4752960205078px, -235.39999389648438px) translate(0px, 0px);}62.78%{-webkit-transform: translate(184.4752960205078px, 235.39999389648438px) translate(-184.4752960205078px, -235.39999389648438px) translate(0px, 5px);transform: translate(184.4752960205078px, 235.39999389648438px) translate(-184.4752960205078px, -235.39999389648438px) translate(0px, 5px);}73.33%{-webkit-transform: translate(184.4752960205078px, 235.39999389648438px) translate(-184.4752960205078px, -235.39999389648438px) translate(0px, 5px);transform: translate(184.4752960205078px, 235.39999389648438px) translate(-184.4752960205078px, -235.39999389648438px) translate(0px, 5px);}85.56%{-webkit-transform: translate(184.4752960205078px, 235.39999389648438px) translate(-184.4752960205078px, -235.39999389648438px) translate(0px, 355px);transform: translate(184.4752960205078px, 235.39999389648438px) translate(-184.4752960205078px, -235.39999389648438px) translate(0px, 355px);}0%{-webkit-transform: translate(184.4752960205078px, 235.39999389648438px) translate(-184.4752960205078px, -235.39999389648438px) translate(0px, 355px);transform: translate(184.4752960205078px, 235.39999389648438px) translate(-184.4752960205078px, -235.39999389648438px) translate(0px, 355px);}100%{-webkit-transform: translate(184.4752960205078px, 235.39999389648438px) translate(-184.4752960205078px, -235.39999389648438px) translate(0px, 355px);transform: translate(184.4752960205078px, 235.39999389648438px) translate(-184.4752960205078px, -235.39999389648438px) translate(0px, 355px);}}@-webkit-keyframes kf_el_krYruIUKixy_an_EGayulaIX{0%{-webkit-transform: translate(2px, 257.4000244140625px) translate(-2px, -257.4000244140625px) translate(100px, 335px);transform: translate(2px, 257.4000244140625px) translate(-2px, -257.4000244140625px) translate(100px, 335px);}16.67%{-webkit-transform: translate(2px, 257.4000244140625px) translate(-2px, -257.4000244140625px) translate(100px, 335px);transform: translate(2px, 257.4000244140625px) translate(-2px, -257.4000244140625px) translate(100px, 335px);}26.67%{-webkit-transform: translate(2px, 257.4000244140625px) translate(-2px, -257.4000244140625px) translate(50px, 0px);transform: translate(2px, 257.4000244140625px) translate(-2px, -257.4000244140625px) translate(50px, 0px);}30%{-webkit-transform: translate(2px, 257.4000244140625px) translate(-2px, -257.4000244140625px) translate(50px, 20px);transform: translate(2px, 257.4000244140625px) translate(-2px, -257.4000244140625px) translate(50px, 20px);}40.56%{-webkit-transform: translate(2px, 257.4000244140625px) translate(-2px, -257.4000244140625px) translate(50px, 20px);transform: translate(2px, 257.4000244140625px) translate(-2px, -257.4000244140625px) translate(50px, 20px);}47.22%{-webkit-transform: translate(2px, 257.4000244140625px) translate(-2px, -257.4000244140625px) translate(50px, 330px);transform: translate(2px, 257.4000244140625px) translate(-2px, -257.4000244140625px) translate(50px, 330px);}100%{-webkit-transform: translate(2px, 257.4000244140625px) translate(-2px, -257.4000244140625px) translate(50px, 330px);transform: translate(2px, 257.4000244140625px) translate(-2px, -257.4000244140625px) translate(50px, 330px);}}@keyframes kf_el_krYruIUKixy_an_EGayulaIX{0%{-webkit-transform: translate(2px, 257.4000244140625px) translate(-2px, -257.4000244140625px) translate(100px, 335px);transform: translate(2px, 257.4000244140625px) translate(-2px, -257.4000244140625px) translate(100px, 335px);}16.67%{-webkit-transform: translate(2px, 257.4000244140625px) translate(-2px, -257.4000244140625px) translate(100px, 335px);transform: translate(2px, 257.4000244140625px) translate(-2px, -257.4000244140625px) translate(100px, 335px);}26.67%{-webkit-transform: translate(2px, 257.4000244140625px) translate(-2px, -257.4000244140625px) translate(50px, 0px);transform: translate(2px, 257.4000244140625px) translate(-2px, -257.4000244140625px) translate(50px, 0px);}30%{-webkit-transform: translate(2px, 257.4000244140625px) translate(-2px, -257.4000244140625px) translate(50px, 20px);transform: translate(2px, 257.4000244140625px) translate(-2px, -257.4000244140625px) translate(50px, 20px);}40.56%{-webkit-transform: translate(2px, 257.4000244140625px) translate(-2px, -257.4000244140625px) translate(50px, 20px);transform: translate(2px, 257.4000244140625px) translate(-2px, -257.4000244140625px) translate(50px, 20px);}47.22%{-webkit-transform: translate(2px, 257.4000244140625px) translate(-2px, -257.4000244140625px) translate(50px, 330px);transform: translate(2px, 257.4000244140625px) translate(-2px, -257.4000244140625px) translate(50px, 330px);}100%{-webkit-transform: translate(2px, 257.4000244140625px) translate(-2px, -257.4000244140625px) translate(50px, 330px);transform: translate(2px, 257.4000244140625px) translate(-2px, -257.4000244140625px) translate(50px, 330px);}}#el_xaNwEfxTx *{-webkit-animation-duration: 6s;animation-duration: 6s;-webkit-animation-iteration-count: infinite;animation-iteration-count: infinite;-webkit-animation-timing-function: cubic-bezier(0, 0, 1, 1);animation-timing-function: cubic-bezier(0, 0, 1, 1);}#el_HnQqzxL4KJ{fill: #161B1E;}#el_XBfdHLtZ-9{fill: #252D33;}#el_Z0yj7Cicfs{fill: #252D33;}#el_tnmADQRZ6l{fill: #161B1E;}#el_wBlaHVsJ8b{fill: #252D33;}#el_11OdJt1y0q{fill: #FFFFFF;}#el_ez4W8KTzr4{fill: #2A353F;}#el_RfIVAo25fh{fill: #E6E7E8;}#el_5xDRdc1af8{fill: #FFFFFF;}#el_unWA0JOLCh{fill: #E6E7E8;}#el_v9IwBxuRyK{fill: #161B1E;}#el_O-a0XFlAQy{fill: #161B1E;}#el_faLBWztzeg4{fill: #37E8D7;}#el_YMdrIPRXeG2{fill: #D0D2D3;}#el_IHdgvtncGaI{fill: #D0D2D3;}#el_Il40FkE-nwf{fill: #161B1E;}#el_7jIhhhOZu80{fill: #E6E7E8;}#el_CI2INeny_YH{fill: #252D33;}#el_3QmkHHhgS8_{fill: #404041;}#el_iWYxVni5WYz{fill: #FFFFFF;}#el_-lTxXyLWZLS{fill: #FFFFFF;}#el_I-x6mwxKKt_{fill: #0E4160;}#el_t3QssCpjkiH{fill: #0E4160;}#el_8Jos7DZSuGO{fill: #FFFFFF;}#el_fKqLMV2HJA3{fill: #FFFFFF;}#el_K3CWujsNRBL{fill: #F2F2F2;}#el_yj7HimryiUr{fill: #FFFFFF;}#el_p2h1tuRE6CG{fill: #231F20;}#el_J4QN1Y0pDZQ{fill: #231F20;}#el__ejaN-Tavmb{fill: #231F20;}#el_2ndO9sgQDdi{fill: #231F20;}#el_h9p6OhxRC6X{fill: #231F20;}#el_wQJUB7JpW1V{fill: #231F20;}#el_zGr_BaY70kp{fill: #231F20;}#el_1sDkKTHhOdE{fill: #231F20;}#el_gv_QHE5MjiY{fill: none;stroke: #000000;stroke-width: 0.5077;stroke-miterlimit: 10;}#el_geESLRmXa7a{fill: #1A1A1A;}#el_AC-3GWhvZJg{fill: #1A1A1A;}#el_OJB5vho2e9Y{fill: #1A1A1A;}#el_9jVIqKDAe9I{fill: none;stroke: #231F20;stroke-width: 0.4487;stroke-miterlimit: 10;}#el_wCagyM80mXK{fill: none;stroke: #231F20;stroke-width: 0.4487;stroke-miterlimit: 10;}#el_-wIomK75vFs{fill: none;stroke: #231F20;stroke-width: 0.4487;stroke-miterlimit: 10;}#el_KiW0gLkSyKc{fill: #B3B3B3;}#el_xjENjrZm777{fill: #B3B3B3;}#el_oS3PcqpkrOu{fill: #B3B3B3;}#el_BKd1N46gkDl{fill: #B3B3B3;}#el_e98x4U-OYgF{fill: #808080;}#el_Sknv46aj2HH{fill: #E6E6E6;}#el_9-W21F6nq4l{fill: #1A1A1A;}#el_VWyyZ8h7hbq{fill: #1A1A1A;}#el_oIqccpMQnzB{fill: none;stroke: #231F20;stroke-width: 1.1471;stroke-miterlimit: 10;}#el_QxII3elHgBl{fill: none;stroke: #231F20;stroke-width: 1.1471;stroke-miterlimit: 10;}#el_ReNxva-NZZp{fill: none;stroke: #231F20;stroke-width: 1.1471;stroke-miterlimit: 10;}#el_X_IlcpEhG3a{fill: #FFFFFF;}#el_M9OlP3r8C7R{fill: #231F20;}#el_6FOTYnO1elu{fill: #231F20;}#el_AOMDgPhCzqs{fill: #231F20;}#el_TY_kFPKMtKn{fill: #231F20;}#el_QN2R3GnTP6s{fill: #231F20;}#el_otlLvx33tFv{fill: #231F20;}#el_nj-CijQxQyL{fill: #231F20;}#el_m9Q71Xk68xK{fill: #B3B3B3;}#el_nOKuikkiDCn{fill: #B3B3B3;}#el_31ncpFtg0Lv{fill: #B3B3B3;}#el_ZQT7HExcVk7{fill: #B3B3B3;}#el_krYruIUKixy_an_EGayulaIX{-webkit-animation-fill-mode: backwards;animation-fill-mode: backwards;-webkit-transform: translate(2px, 257.4000244140625px) translate(-2px, -257.4000244140625px) translate(100px, 335px);transform: translate(2px, 257.4000244140625px) translate(-2px, -257.4000244140625px) translate(100px, 335px);-webkit-animation-name: kf_el_krYruIUKixy_an_EGayulaIX;animation-name: kf_el_krYruIUKixy_an_EGayulaIX;-webkit-animation-timing-function: cubic-bezier(0.42, 0, 0.58, 1);animation-timing-function: cubic-bezier(0.42, 0, 0.58, 1);}#el_3YnQ7KqYvmM_an_oFyDUVwXv{-webkit-animation-fill-mode: backwards;animation-fill-mode: backwards;-webkit-transform: translate(184.4752960205078px, 235.39999389648438px) translate(-184.4752960205078px, -235.39999389648438px) translate(0px, 355px);transform: translate(184.4752960205078px, 235.39999389648438px) translate(-184.4752960205078px, -235.39999389648438px) translate(0px, 355px);-webkit-animation-name: kf_el_3YnQ7KqYvmM_an_oFyDUVwXv;animation-name: kf_el_3YnQ7KqYvmM_an_oFyDUVwXv;-webkit-animation-timing-function: cubic-bezier(0.42, 0, 0.58, 1);animation-timing-function: cubic-bezier(0.42, 0, 0.58, 1);}#el_UbFTZOmAJoH{-webkit-animation-fill-mode: backwards;animation-fill-mode: backwards;opacity: 1;-webkit-animation-name: kf_el_UbFTZOmAJoH_an_jZj10o5zK;animation-name: kf_el_UbFTZOmAJoH_an_jZj10o5zK;-webkit-animation-timing-function: cubic-bezier(0, 0, 1, 1);animation-timing-function: cubic-bezier(0, 0, 1, 1);}#el_9R68C06BP_b{-webkit-animation-fill-mode: backwards;animation-fill-mode: backwards;opacity: 1;-webkit-animation-name: kf_el_9R68C06BP_b_an_0xWIckczf;animation-name: kf_el_9R68C06BP_b_an_0xWIckczf;-webkit-animation-timing-function: cubic-bezier(0, 0, 1, 1);animation-timing-function: cubic-bezier(0, 0, 1, 1);}#el_GCzscQyo_L0_an_Vgv5ZOMrq{-webkit-animation-fill-mode: backwards;animation-fill-mode: backwards;-webkit-transform: translate(179.89999389648438px, 122.94999694824219px) scale(0.3, 0.3) translate(-179.89999389648438px, -122.94999694824219px);transform: translate(179.89999389648438px, 122.94999694824219px) scale(0.3, 0.3) translate(-179.89999389648438px, -122.94999694824219px);-webkit-animation-name: kf_el_GCzscQyo_L0_an_Vgv5ZOMrq;animation-name: kf_el_GCzscQyo_L0_an_Vgv5ZOMrq;-webkit-animation-timing-function: cubic-bezier(0.42, 0, 0.58, 1);animation-timing-function: cubic-bezier(0.42, 0, 0.58, 1);}#el_GCzscQyo_L0{-webkit-animation-fill-mode: backwards;animation-fill-mode: backwards;opacity: 0;-webkit-animation-name: kf_el_GCzscQyo_L0_an_CiLo4GHC-;animation-name: kf_el_GCzscQyo_L0_an_CiLo4GHC-;-webkit-animation-timing-function: cubic-bezier(0, 0, 1, 1);animation-timing-function: cubic-bezier(0, 0, 1, 1);}</style>

<title>Artboard 1</title>
<g id="el_bFM60034o3">
	<path d="M294.4,61.2v123.6c-0.1,4.4-3.8,8-8.2,7.9H73.8c-4.4,0.1-8.1-3.4-8.2-7.9V61.2c0.1-4.4,3.8-8,8.2-7.9h212.4&#10;&#9;&#9;C290.7,53.2,294.3,56.7,294.4,61.2L294.4,61.2z" id="el_HnQqzxL4KJ"/>
	<path d="M56.4,150.2V457h-51H1.3l-0.2-0.2L1,456.3l-0.2-0.8l-0.1-1.1l-0.1-1.4l-0.1-1.7l-0.1-1.9l-0.1-2.1l-0.1-2.2&#10;&#9;&#9;l0-2.3l0-2.4v-87.3c0-6.3,0.1-12.5,0.2-18.5l4.4-184.5H56.4z" id="el_XBfdHLtZ-9"/>
	<path d="M336.6,457V150.2h18.6l4.4,184.5c0.1,5.9,0.2,12.2,0.2,18.5v87.3v2.4l0,2.3l-0.1,2.2l-0.1,2.1l-0.1,1.9&#10;&#9;&#9;l-0.1,1.7l-0.1,1.4l-0.1,1.1l-0.1,0.8l-0.2,0.5l-0.1,0.2h-4.2H336.6z" id="el_Z0yj7Cicfs"/>
	<path d="M187.7,30.6c0.2-4.3-3.1-7.9-7.4-8c-4.3-0.2-7.9,3.1-8,7.4s3.1,7.9,7.4,8c0.1,0,0.2,0,0.3,0&#10;&#9;&#9;C184.2,38.1,187.6,34.8,187.7,30.6z" id="el_tnmADQRZ6l"/>
	<g id="el_MxCYv7q-tq">
		<g id="el_GBMPdRjLRk">
			<path d="M359.9,440.5v2.4l0,2.3l-0.1,2.2l-0.1,2.1l-0.1,1.9l-0.1,1.7l-0.1,1.4l-0.1,1.1l-0.1,0.8l-0.2,0.5l-0.1,0.2&#10;&#9;&#9;&#9;&#9;h-4.2c0.5-5,0.7-10.1,0.7-15.1V150.2l4.4,184.5c0.1,5.9,0.2,12.2,0.2,18.5V440.5z" id="el_wBlaHVsJ8b"/>
			<path d="M355.2,413.5v28.3c0.1,5-0.1,10.1-0.7,15.1c-0.1,0.6-0.2,0.9-0.3,0.9H5.8c-0.1,0-0.2-0.3-0.3-0.9&#10;&#9;&#9;&#9;&#9;c-0.5-5-0.8-10.1-0.7-15.1v-28.3c0,10.4,8.5,18.9,18.9,18.9c0,0,0,0,0,0h312.6C346.8,432.4,355.2,424,355.2,413.5&#10;&#9;&#9;&#9;&#9;C355.2,413.5,355.2,413.5,355.2,413.5z" id="el_11OdJt1y0q"/>
			<path d="M11.5,18.5c3.4-2.8,7.7-4.3,12.2-4.2h312.6c4.4-0.1,8.8,1.4,12.2,4.3c4.1,3.4,6.6,8.5,6.7,13.8v381.1&#10;&#9;&#9;&#9;&#9;c0,10.4-8.4,18.9-18.9,18.9c0,0,0,0,0,0H23.7c-10.4,0-18.9-8.5-18.9-18.9c0,0,0,0,0,0V32.4c0,0,0,0,0,0&#10;&#9;&#9;&#9;&#9;C4.9,27,7.4,21.9,11.5,18.5z M294.8,309.6v-74.3c-0.1-2.5-2.2-4.6-4.7-4.5c0,0,0,0,0,0H180.2c-2.5-0.1-4.6,1.9-4.7,4.5&#10;&#9;&#9;&#9;&#9;c0,0,0,0,0,0v74.3c0.1,2.5,2.2,4.6,4.7,4.5H290C292.6,314.1,294.7,312.1,294.8,309.6L294.8,309.6z M285.3,179.9V66.1&#10;&#9;&#9;&#9;&#9;c-0.1-4.1-3.5-7.3-7.5-7.2H82.2c-4.1-0.1-7.5,3.2-7.5,7.2v113.8c0.1,4.1,3.5,7.3,7.5,7.2h195.5&#10;&#9;&#9;&#9;&#9;C281.8,187.2,285.2,183.9,285.3,179.9L285.3,179.9z M276.7,375.2v-3.8c0-0.5-0.4-0.9-1-0.9c0,0,0,0,0,0h-81.2&#10;&#9;&#9;&#9;&#9;c-0.5,0-0.9,0.4-0.9,0.9c0,0,0,0,0,0v3.8c0,0.5,0.4,0.9,0.9,0.9h81.2C276.2,376.2,276.7,375.8,276.7,375.2z M186.6,30.6&#10;&#9;&#9;&#9;&#9;c0.2-3.7-2.7-6.7-6.3-6.9c-3.7-0.2-6.7,2.7-6.9,6.3s2.7,6.7,6.3,6.9c0.1,0,0.2,0,0.3,0C183.6,37,186.5,34.2,186.6,30.6z&#10;&#9;&#9;&#9;&#9; M120.7,304.3v-14.5c0-1.5-1.3-2.8-2.8-2.7c0,0,0,0,0,0H48c-1.5,0-2.8,1.2-2.8,2.7v14.5c0,1.5,1.3,2.7,2.8,2.7h69.9&#10;&#9;&#9;&#9;&#9;C119.4,307,120.7,305.8,120.7,304.3L120.7,304.3z M97.5,315.9c0.1-1.5-1.1-2.8-2.6-2.8c0,0,0,0,0,0H71.1&#10;&#9;&#9;&#9;&#9;c-1.5-0.1-2.8,1.1-2.8,2.6c-0.1,1.5,1.1,2.8,2.6,2.8h23.8C96.2,318.6,97.5,317.4,97.5,315.9z" id="el_ez4W8KTzr4"/>
			<path d="M7.6,457.9h344.9c-0.1,0.3-0.4,0.7-0.7,0.9l-28.6,23c-0.4,0.3-1,0.5-1.5,0.5H38.3c-0.5,0-1.1-0.2-1.5-0.5&#10;&#9;&#9;&#9;&#9;l-28.6-23C7.9,458.6,7.7,458.3,7.6,457.9z" id="el_RfIVAo25fh"/>
			<path d="M348.4,11.5l0.1,7.1c-3.4-2.9-7.7-4.4-12.2-4.3H23.7c-4.4-0.1-8.8,1.4-12.2,4.2l0.1-7&#10;&#9;&#9;&#9;&#9;C11.8,4.7,12.2,0,12.6,0h334.8C347.8,0,348.2,4.7,348.4,11.5z" id="el_5xDRdc1af8"/>
			<path d="M294.8,236.4v73.2c-0.1,2.6-2.2,4.6-4.7,4.5H180.2c-2.5,0-4.7-2-4.7-4.5v-73.2c0.1-2.5,2.2-4.6,4.7-4.5H290&#10;&#9;&#9;&#9;&#9;C292.6,231.8,294.7,233.8,294.8,236.4z" id="el_unWA0JOLCh"/>
			<path d="M294.8,235.3v1.1c-0.1-2.6-2.2-4.6-4.7-4.5H180.2c-2.5,0-4.7,2-4.7,4.5v-1.1c0-2.5,2.1-4.6,4.7-4.5&#10;&#9;&#9;&#9;&#9;c0,0,0,0,0,0H290C292.6,230.7,294.7,232.7,294.8,235.3C294.8,235.3,294.8,235.3,294.8,235.3z" id="el_v9IwBxuRyK"/>
			<path d="M282.5,67.2c-0.1-2.5-2.2-4.6-4.7-4.5H82.2c-2.6,0-4.7,2-4.7,4.5v113.5c0.1,2.6,2.2,4.6,4.7,4.5h195.5&#10;&#9;&#9;&#9;&#9;c2.5,0,4.7-2,4.7-4.5L282.5,67.2z M285.3,66.1v113.8c-0.1,4.1-3.5,7.3-7.5,7.2H82.2c-4.1,0.1-7.5-3.2-7.5-7.2V66.1&#10;&#9;&#9;&#9;&#9;c0.1-4.1,3.5-7.3,7.5-7.2h195.5C281.8,58.8,285.2,62,285.3,66.1L285.3,66.1z" id="el_O-a0XFlAQy"/>
			<path d="M282.5,67.2v113.5c-0.1,2.5-2.2,4.6-4.7,4.5H82.2c-2.6,0-4.7-2-4.7-4.5V67.2c0.1-2.6,2.2-4.6,4.7-4.5h195.5&#10;&#9;&#9;&#9;&#9;C280.3,62.6,282.4,64.6,282.5,67.2z" id="el_faLBWztzeg4"/>
			<path d="M276.7,371.5v3.8c0,0.5-0.4,0.9-1,0.9h-81.2c-0.5,0-0.9-0.4-0.9-0.9v-3.8c0-0.5,0.4-0.9,0.9-0.9c0,0,0,0,0,0h81.2&#10;&#9;&#9;&#9;&#9;C276.2,370.5,276.7,370.9,276.7,371.5C276.7,371.4,276.7,371.4,276.7,371.5z" id="el_F6dOFlb5y38"/>
			<path d="M180.2,27.4c2,0.1,3.5,1.8,3.4,3.8c-0.1,2-1.8,3.5-3.8,3.4c-1.9-0.1-3.4-1.7-3.4-3.6C176.5,29,178.1,27.4,180.2,27.4z" id="el_hcUd-3kgMdm"/>
			<path d="M120.7,301.7v2.5c0,1.5-1.3,2.8-2.8,2.7H48c-1.5,0-2.8-1.2-2.8-2.7v-2.5H120.7z" id="el_YMdrIPRXeG2"/>
			<rect x="45.1" y="295.9" width="75.6" height="5.8" id="el_FMDefsaU-XB"/>
			<path d="M120.7,290.8v5.1H45.1v-5.1c0-1.5,1.3-2.7,2.8-2.7h69.9C119.4,288.1,120.7,289.3,120.7,290.8z" id="el_IHdgvtncGaI"/>
			<path d="M120.7,289.8v1.1c0-1.5-1.3-2.7-2.8-2.7H48c-1.5,0-2.8,1.2-2.8,2.7v-1.1c0-1.5,1.3-2.8,2.8-2.7h69.9&#10;&#9;&#9;&#9;&#9;C119.4,287,120.7,288.2,120.7,289.8C120.7,289.8,120.7,289.8,120.7,289.8z" id="el_Il40FkE-nwf"/>
			<path d="M94.9,313.1c1.5,0.1,2.7,1.3,2.6,2.8c-0.1,1.5-1.3,2.7-2.8,2.6H70.9c-1.5-0.1-2.7-1.3-2.6-2.8&#10;&#9;&#9;&#9;&#9;c0.1-1.5,1.3-2.7,2.8-2.6H94.9z" id="el_7jIhhhOZu80"/>
			<path d="M5.4,457H1.3l-0.2-0.2L1,456.3l-0.2-0.8l-0.1-1.1l-0.1-1.4l-0.1-1.7l-0.1-1.9l-0.1-2.1l-0.1-2.2l0-2.3l0-2.4&#10;&#9;&#9;&#9;&#9;v-87.3c0-6.3,0.1-12.5,0.2-18.5l4.4-184.5v291.7C4.7,446.9,4.9,452,5.4,457z" id="el_CI2INeny_YH"/>
		</g>
		<circle cx="235.1" cy="278.4" r="3" id="el_3QmkHHhgS8_"/>
		<g id="el_9R68C06BP_b">
			<path id="el_iWYxVni5WYz" d="M173.3,100.4h-71.8c-1.2,0-2.1-1-2.1-2.1c0-1.2,1-2.1,2.1-2.1&#10;&#9;&#9;&#9;&#9;h71.8c1.2,0,2.1,1,2.1,2.1C175.5,99.4,174.6,100.4,173.3,100.4C173.4,100.4,173.3,100.4,173.3,100.4z"/>
			<path id="el_-lTxXyLWZLS" d="M151.7,111.2h-50.3c-1.2,0-2.1-1-2.1-2.1c0-1.2,1-2.1,2.1-2.1&#10;&#9;&#9;&#9;&#9;h50.3c1.2,0,2.1,1,2.1,2.1C153.9,110.2,152.9,111.2,151.7,111.2z"/>
			<path id="el_I-x6mwxKKt_" d="M150.7,127h-50.3c-0.6,0-1.1-0.5-1.1-1.1s0.5-1.1,1.1-1.1h50.3&#10;&#9;&#9;&#9;&#9;c0.6,0,1.1,0.5,1.1,1.1S151.2,127,150.7,127z"/>
			<path id="el_t3QssCpjkiH" d="M139.3,135.2h-38.9c-0.6,0-1.1-0.5-1.1-1.1s0.5-1.1,1.1-1.1h38.9&#10;&#9;&#9;&#9;&#9;c0.6,0,1.1,0.5,1.1,1.1S139.9,135.2,139.3,135.2z"/>
		</g>
		<g id="el_GCzscQyo_L0_an_Vgv5ZOMrq" data-animator-group="true" data-animator-type="2"><g id="el_GCzscQyo_L0">
			<path d="M180,87C160.2,87,144,103.2,144,123s16.1,35.9,35.9,35.9s35.9-16.1,35.9-35.9S199.7,87,180,87z M180,152.2&#10;&#9;&#9;&#9;&#9;c-16.1,0-29.2-13.2-29.2-29.2s13.2-29.2,29.2-29.2s29.2,13.2,29.2,29.2S196.1,152.2,180,152.2z" id="el_8Jos7DZSuGO"/>
			<path d="M194.7,110.3c-1.4-1.1-3.5-1-4.7,0.5l-14,17.4l-4.3-4.2c-1.3-1.3-3.4-1.3-4.7,0.1c-1.3,1.3-1.3,3.4,0.1,4.7&#10;&#9;&#9;&#9;&#9;l6.9,6.8c0.6,0.6,1.5,1,2.4,1c0.1,0,0.1,0,0.2,0c1-0.1,1.8-0.5,2.4-1.3l16.4-20.3C196.3,113.5,196.1,111.4,194.7,110.3z" id="el_fKqLMV2HJA3"/>
		</g></g>
		<g id="el_UbFTZOmAJoH">
			<g id="el_wnIeYFB9PuV">
				<polygon points="261.7,185.2 200.5,185.2 200.5,103.2 261.7,103.2 &#9;&#9;&#9;&#9;" id="el_K3CWujsNRBL"/>
				<g id="el_hQ8-8hP14TH">
					<rect id="el_yj7HimryiUr" x="211.7" y="117.2" width="40.5" height="40.5"/>
					<g id="el_jGiIF2ubCK9">
						<rect x="231.9" y="123.9" width="6.7" height="6.7" id="el_p2h1tuRE6CG"/>
						<rect x="238.8" y="117.2" width="6.7" height="6.7" id="el_J4QN1Y0pDZQ"/>
						<rect x="245.5" y="123.9" width="6.7" height="13.5" id="el__ejaN-Tavmb"/>
						<polygon points="238.8,144.2 238.8,137.4 231.9,137.4 231.9,144.2 238.8,144.2 238.8,151 245.5,151 245.5,157.7 &#10;&#9;&#9;&#9;&#9;&#9;&#9;&#9;252.3,157.7 252.3,144.2 &#9;&#9;&#9;&#9;&#9;&#9;" id="el_2ndO9sgQDdi"/>
						<rect x="225.2" y="144.2" width="6.7" height="6.7" id="el_h9p6OhxRC6X"/>
						<polygon points="218.5,137.4 225.2,137.4 225.2,123.9 231.9,123.9 231.9,117.2 211.7,117.2 211.7,130.7 &#10;&#9;&#9;&#9;&#9;&#9;&#9;&#9;218.5,130.7 &#9;&#9;&#9;&#9;&#9;&#9;" id="el_wQJUB7JpW1V"/>
						<polygon points="218.5,144.2 211.7,144.2 211.7,157.7 225.2,157.7 225.2,151 218.5,151 &#9;&#9;&#9;&#9;&#9;&#9;" id="el_zGr_BaY70kp"/>
					</g>
				</g>
			</g>
			<path id="el_1sDkKTHhOdE" d="M255.5,96.1h-48.9c-3.7,0-6.6,3-6.6,6.6l0.1,82.4h1l-0.1-81.8&#10;&#9;&#9;&#9;&#9;h60.3v81.8h1v-82.3C262.2,99.2,259.2,96.2,255.5,96.1z"/>
		</g>
	</g>
	<g id="el_p4b1lnGt0cD">
		<path d="M276.8,370.5h11.5c3.6,0,6.5,2.9,6.5,6.4c0,0,0,0,0,0.1v24.2c0,3.6-2.9,6.5-6.4,6.5c0,0,0,0-0.1,0H182.9&#10;&#9;&#9;&#9;c-3.6,0-6.5-2.9-6.5-6.4c0,0,0,0,0-0.1V377c0-3.6,2.9-6.5,6.4-6.5c0,0,0,0,0.1,0L276.8,370.5L276.8,370.5z" id="el_gv_QHE5MjiY"/>
	</g>
</g>
<g id="el_3YnQ7KqYvmM_an_oFyDUVwXv" data-animator-group="true" data-animator-type="0"><g id="el_3YnQ7KqYvmM">
	<g id="el_AE5VoD0UvuI">
		<g id="el_n5PGvLMnI7i">
			<g id="el_8svlNpfArzb">
				<path d="M269.8,245.4v133.5c0,1.1-0.2,2.2-0.5,3.2h-70.2c-0.4-1-0.6-2.1-0.5-3.2V245.4c0-1,0.2-2,0.5-2.9h70.4&#10;&#9;&#9;&#9;&#9;&#9;C269.7,243.5,269.8,244.5,269.8,245.4z" id="el_geESLRmXa7a"/>
				<path d="M269.3,242.5h-70.4c1.3-4.2,5.2-7.1,9.6-7.1h51.2C264.2,235.4,268.1,238.3,269.3,242.5z" id="el_AC-3GWhvZJg"/>
				<path d="M199,382h70.2c-1.3,4.1-5.2,6.9-9.5,6.9h-51.2C204.2,389,200.3,386.2,199,382z" id="el_OJB5vho2e9Y"/>
			</g>
			<g id="el_dqmZup9sDiy">
				<path d="M269.2,382c-1.3,4.1-5.2,6.9-9.5,6.9h-51.2c-4.3,0-8.2-2.8-9.5-6.9c-0.4-1-0.6-2.1-0.5-3.2V245.4&#10;&#9;&#9;&#9;&#9;&#9;c0-1,0.2-2,0.5-2.9c1.3-4.2,5.2-7.1,9.6-7.1h51.2c4.4,0,8.3,2.9,9.6,7.1c0.3,0.9,0.5,1.9,0.5,2.9v133.5&#10;&#9;&#9;&#9;&#9;&#9;C269.9,380,269.6,381,269.2,382z" id="el_9jVIqKDAe9I"/>
				<polyline points="198.8,242.5 198.9,242.5 269.3,242.5 &#9;&#9;&#9;&#9;" id="el_wCagyM80mXK"/>
				<polyline points="198.9,382 199,382 269.2,382 &#9;&#9;&#9;&#9;" id="el_-wIomK75vFs"/>
			</g>
		</g>
		<circle id="el_KiW0gLkSyKc" cx="215.9" cy="254.9" r="4.9"/>
	</g>
	<path id="el_xjENjrZm777" d="M279.2,316.6c0,0-1.6-8.1-9.7-6.1l4.2-1.4c4.5-1.7,7-6.6,5.6-11.2&#10;&#9;&#9;c0,0-1.7-8.7-10.5-5.9l-61.9,19.9l-4.4-15c-1.2-4.6-5.9-7.5-10.5-6.3c0,0-0.1,0-0.1,0c-0.1,0-0.3,0.1-0.4,0.1l-0.8,0.3&#10;&#9;&#9;c-4.7,1.7-7.3,6.9-5.8,11.7l8.5,29.3l-0.2,252h58.3l0.2-218.5l15.8-5c4.4-1.5,6.9-6.1,5.7-10.6c-0.4-1.6-1.2-3.1-2.4-4.3l1.1-0.3&#10;&#9;&#9;c4.4-1.5,6.9-6.1,5.7-10.6c0,0-1.1-5.8-6.7-5.9l2.7-0.9C278.2,326.2,280.6,321.3,279.2,316.6z"/>
</g></g>
<g id="el_krYruIUKixy_an_EGayulaIX" data-animator-group="true" data-animator-type="0"><g id="el_krYruIUKixy">
	<g id="el_Twy-ABHbOje">
		<circle cx="22" cy="369.1" r="14.4" id="el_oS3PcqpkrOu"/>
	</g>
	<g id="el_TDOO9jpH9nG">
		<g id="el_tclE3x5crcg">
			<path d="M360,583.8L229.6,584L153,512.8c-21.5,5-79.7-9-85.8-27.8l19.4-27.4l0.1-0.1c25-28.1,69.9-53.4,69.9-53.4&#10;&#9;&#9;&#9;&#9;l3.5-9.2h21.5c1.2,1.1,2.1,2.6,2.4,4.3l5.2,33.6c0.9,6.3,4.2,11.9,9.2,15.8L360,583.8z" id="el_BKd1N46gkDl"/>
			<path d="M156.6,404.1c0,0-44.8,25.3-69.9,53.4l42-59.5C138.3,397.9,147.9,400,156.6,404.1z" id="el_e98x4U-OYgF"/>
		</g>
	</g>
	<g id="el_zUygQPj0AAn">
		<g id="el_PYDNT-hjASm">
			<g id="el_DSCPNXq-guZ">
				<path d="M135,268.7v218.4h-0.1l-0.6-0.1H23.5V268.7l0.7-0.1h110.2L135,268.7z" id="el_Sknv46aj2HH"/>
				<path d="M135,268.7l-0.6-0.1H24.1l-0.7,0.1c0-6.2,5-11.3,11.3-11.3c0,0,0,0,0,0h89c6.2,0,11.3,5,11.3,11.1&#10;&#9;&#9;&#9;&#9;&#9;C135,268.6,135,268.6,135,268.7z" id="el_9-W21F6nq4l"/>
				<path d="M134.2,486.9l0.6,0.1c-0.2,6-5.2,10.7-11.2,10.7h-89c-6-0.1-10.9-4.7-11.2-10.7l0.7-0.1H134.2z" id="el_VWyyZ8h7hbq"/>
			</g>
			<g id="el_wru_6wgDsY5">
				<path d="M134.9,487c-0.2,6-5.2,10.7-11.2,10.7h-89c-6-0.1-10.9-4.7-11.2-10.7h-0.1V268.7c0-6.2,5-11.3,11.3-11.3&#10;&#9;&#9;&#9;&#9;&#9;c0,0,0,0,0,0h89c6.2,0,11.3,5,11.3,11.1c0,0.1,0,0.1,0,0.2v218.4h-0.1V487z" id="el_oIqccpMQnzB"/>
				<line x1="24.1" y1="268.6" x2="134.3" y2="268.6" id="el_QxII3elHgBl"/>
				<line x1="24.3" y1="486.9" x2="134.2" y2="486.9" id="el_ReNxva-NZZp"/>
			</g>
		</g>
		<g id="el_0Ufw3_Tl8fy">
			<rect id="el_X_IlcpEhG3a" x="44.2" y="340.7" width="73.7" height="73.7"/>
			<g id="el_xrCqEVr2d7I">
				<polygon points="44.2,340.7 44.2,365.2 56.4,365.2 56.4,377.6 68.7,377.6 68.7,353 81,353 81,340.7 &#9;&#9;&#9;&#9;" id="el_M9OlP3r8C7R"/>
				<rect x="81" y="353" width="12.2" height="12.2" id="el_6FOTYnO1elu"/>
				<rect x="93.3" y="340.7" width="12.2" height="12.2" id="el_AOMDgPhCzqs"/>
				<rect x="105.6" y="353" width="12.2" height="24.6" id="el_TY_kFPKMtKn"/>
				<polygon points="93.3,377.6 81,377.6 81,389.8 93.3,389.8 93.3,402.2 105.6,402.2 105.6,414.4 117.9,414.4 &#10;&#9;&#9;&#9;&#9;&#9;117.9,389.8 93.3,389.8 &#9;&#9;&#9;&#9;" id="el_QN2R3GnTP6s"/>
				<rect x="68.7" y="389.8" width="12.2" height="12.2" id="el_otlLvx33tFv"/>
				<polygon points="56.4,389.8 44.2,389.8 44.2,414.4 68.7,414.4 68.7,402.2 56.4,402.2 &#9;&#9;&#9;&#9;" id="el_nj-CijQxQyL"/>
			</g>
		</g>
	</g>
	<g id="el_lsprGV9D8o6">
		<g id="el_zOQdikoW9x9">
			<path d="M22.5,427.1c7.6,0,13.8,6.2,13.8,13.8c0,0,0,0.1,0,0.1c0,3.7-1.5,7.2-4,9.8c-2.6,2.6-6.1,4.1-9.8,4.1H16&#10;&#9;&#9;&#9;&#9;c-7.6,0-13.8-6.2-13.8-13.8c0,0,0-0.1,0-0.1c0-3.7,1.5-7.2,4-9.8c2.6-2.6,6.1-4.1,9.8-4.1H22.5z" id="el_m9Q71Xk68xK"/>
			<path d="M22.5,457.6c7.6,0,13.8,6.2,13.8,13.8c0,0,0,0.1,0,0.1c0,3.7-1.5,7.2-4,9.8c-2.6,2.6-6.1,4-9.8,4H16&#10;&#9;&#9;&#9;&#9;c-7.6,0-13.8-6.1-13.8-13.7c0,0,0,0,0-0.1c0-3.7,1.5-7.2,4-9.8c2.6-2.6,6.1-4,9.8-4h6.5V457.6z" id="el_nOKuikkiDCn"/>
			<path d="M16.7,395.1c8.1,0,14.7,6.6,14.7,14.7c0,8.1-6.6,14.7-14.7,14.7S2,417.9,2,409.8c0,0,0,0,0,0&#10;&#9;&#9;&#9;&#9;C2,401.7,8.5,395.1,16.7,395.1C16.6,395.1,16.7,395.1,16.7,395.1z" id="el_31ncpFtg0Lv"/>
		</g>
	</g>
	<g id="el_Ef-imzljtUx">
		<path d="M141.8,342.7l39.9,52l-25,9.2l-30.9-45.2c-3.6-3.7-6.3-12.2-2.7-15.8l3-3&#10;&#9;&#9;&#9;C129.6,336.4,138.1,339.1,141.8,342.7z" id="el_ZQT7HExcVk7"/>
	</g>
</g></g>
</svg>