<svg version="1.1" id="el_lBpxjxUb8" xmlns="http://www.w3.org/2000/svg" xmlns:xlink="http://www.w3.org/1999/xlink" x="0px" y="0px" viewBox="0 0 360 584" style="enable-background:new 0 0 360 584;" xml:space="preserve"><style>@-webkit-keyframes kf_el_rDrV_jvAQOD_an_CaWjsFAPq{0%{-webkit-transform: translate(187.2067108154297px, 233.58349609375px) translate(-187.2067108154297px, -233.58349609375px) translate(50px, 350px);transform: translate(187.2067108154297px, 233.58349609375px) translate(-187.2067108154297px, -233.58349609375px) translate(50px, 350px);}16.67%{-webkit-transform: translate(187.2067108154297px, 233.58349609375px) translate(-187.2067108154297px, -233.58349609375px) translate(50px, 350px);transform: translate(187.2067108154297px, 233.58349609375px) translate(-187.2067108154297px, -233.58349609375px) translate(50px, 350px);}42.22%{-webkit-transform: translate(187.2067108154297px, 233.58349609375px) translate(-187.2067108154297px, -233.58349609375px) translate(0px, 0px);transform: translate(187.2067108154297px, 233.58349609375px) translate(-187.2067108154297px, -233.58349609375px) translate(0px, 0px);}44.44%{-webkit-transform: translate(187.2067108154297px, 233.58349609375px) translate(-187.2067108154297px, -233.58349609375px) translate(0px, 5px);transform: translate(187.2067108154297px, 233.58349609375px) translate(-187.2067108154297px, -233.58349609375px) translate(0px, 5px);}64.44%{-webkit-transform: translate(187.2067108154297px, 233.58349609375px) translate(-187.2067108154297px, -233.58349609375px) translate(0px, 5px);transform: translate(187.2067108154297px, 233.58349609375px) translate(-187.2067108154297px, -233.58349609375px) translate(0px, 5px);}82.22%{-webkit-transform: translate(187.2067108154297px, 233.58349609375px) translate(-187.2067108154297px, -233.58349609375px) translate(-100px, 355px);transform: translate(187.2067108154297px, 233.58349609375px) translate(-187.2067108154297px, -233.58349609375px) translate(-100px, 355px);}100%{-webkit-transform: translate(187.2067108154297px, 233.58349609375px) translate(-187.2067108154297px, -233.58349609375px) translate(-100px, 355px);transform: translate(187.2067108154297px, 233.58349609375px) translate(-187.2067108154297px, -233.58349609375px) translate(-100px, 355px);}}@keyframes kf_el_rDrV_jvAQOD_an_CaWjsFAPq{0%{-webkit-transform: translate(187.2067108154297px, 233.58349609375px) translate(-187.2067108154297px, -233.58349609375px) translate(50px, 350px);transform: translate(187.2067108154297px, 233.58349609375px) translate(-187.2067108154297px, -233.58349609375px) translate(50px, 350px);}16.67%{-webkit-transform: translate(187.2067108154297px, 233.58349609375px) translate(-187.2067108154297px, -233.58349609375px) translate(50px, 350px);transform: translate(187.2067108154297px, 233.58349609375px) translate(-187.2067108154297px, -233.58349609375px) translate(50px, 350px);}42.22%{-webkit-transform: translate(187.2067108154297px, 233.58349609375px) translate(-187.2067108154297px, -233.58349609375px) translate(0px, 0px);transform: translate(187.2067108154297px, 233.58349609375px) translate(-187.2067108154297px, -233.58349609375px) translate(0px, 0px);}44.44%{-webkit-transform: translate(187.2067108154297px, 233.58349609375px) translate(-187.2067108154297px, -233.58349609375px) translate(0px, 5px);transform: translate(187.2067108154297px, 233.58349609375px) translate(-187.2067108154297px, -233.58349609375px) translate(0px, 5px);}64.44%{-webkit-transform: translate(187.2067108154297px, 233.58349609375px) translate(-187.2067108154297px, -233.58349609375px) translate(0px, 5px);transform: translate(187.2067108154297px, 233.58349609375px) translate(-187.2067108154297px, -233.58349609375px) translate(0px, 5px);}82.22%{-webkit-transform: translate(187.2067108154297px, 233.58349609375px) translate(-187.2067108154297px, -233.58349609375px) translate(-100px, 355px);transform: translate(187.2067108154297px, 233.58349609375px) translate(-187.2067108154297px, -233.58349609375px) translate(-100px, 355px);}100%{-webkit-transform: translate(187.2067108154297px, 233.58349609375px) translate(-187.2067108154297px, -233.58349609375px) translate(-100px, 355px);transform: translate(187.2067108154297px, 233.58349609375px) translate(-187.2067108154297px, -233.58349609375px) translate(-100px, 355px);}}#el_lBpxjxUb8 *{-webkit-animation-duration: 3s;animation-duration: 3s;-webkit-animation-iteration-count: infinite;animation-iteration-count: infinite;-webkit-animation-timing-function: cubic-bezier(0, 0, 1, 1);animation-timing-function: cubic-bezier(0, 0, 1, 1);}#el_IFVJxTyScr{fill: #161B1E;}#el_UpSrBNKbpR{fill: #252D33;}#el_46zfRzxzCa{fill: #252D33;}#el_nNfJAnfT9n{fill: #161B1E;}#el_6MDAJgX018{fill: #252D33;}#el_-QFjf5vEm-{fill: #FFFFFF;}#el_SNSwRQdQ65{fill: #2A353F;}#el_ihdaHaHWuw{fill: #E6E7E8;}#el_0565e0ZTQ1{fill: #FFFFFF;}#el_JR6Rn_ADtV{fill: #E6E7E8;}#el_6UKLdGX31u{fill: #161B1E;}#el_yst7F85yXB{fill: #161B1E;}#el_2ajnJkouKRf{fill: #37E8D7;}#el_RtOGmM2IJov{fill: #D0D2D3;}#el_DrKuNApfMs_{fill: #D0D2D3;}#el_NASaCF15tTL{fill: #161B1E;}#el_gtYbWSTSUd6{fill: #E6E7E8;}#el_8gk7LZkaYM8{fill: #252D33;}#el_2_OC3ohluf_{fill: #404041;}#el_Us0u6JFUd0g{fill: #FFFFFF;}#el_3_jd-1V4fxe{fill: #FFFFFF;}#el_SohDwMLW-Pk{fill: #0E4160;}#el_QRqhvilJXoo{fill: #0E4160;}#el_1ar8K-5B003{fill: #FFFFFF;}#el_tQSTHKPwXp4{fill: #FFFFFF;}#el_t6q670vvd1H{fill: #414042;}#el_0VDeLgIwJAT{fill: none;stroke: #000000;stroke-width: 0.5077;stroke-miterlimit: 10;}#el_JzTqi_Qiqh9{display: none;fill: #B3B3B3;}#el_LzamRIwrm4P{fill: #B3B3B3;}#el_iN4gX-JVmX7{fill: #B3B3B3;}#el_P9eSNn-l2QO{fill: #B3B3B3;}#el_fdyAGKalcYw{fill: #B3B3B3;}#el_yKpFdvOzc1F{fill: #CB6560;}#el_7N2Pc0jOHob{fill: #2CB9AC;}#el_-j_R0Te0Pcs{fill: #FE7F78;}#el_IqOmbzKlmz3{fill: #37E8D7;}#el_nrqFbOEzwci{fill: #CB6560;}#el_A0eK5zTSc5T{fill: #2CB9AC;}#el_6WJ-JfZRtir{fill: #D9F1FE;}#el_7QrA3duWv-x{-webkit-clip-path: url(#SVGID_2_);clip-path: url(#SVGID_2_);}#el_6zoOZgDCwxg{fill: #D4E2E9;}#el_sNInCoweQEr{fill: #D4E2E9;}#el_JjK3HB_ho6m{fill: #D4E2E9;}#el_it-5q4xM_dZ{fill: #D4E2E9;}#el_0N4VjUCV2IE{fill: #0E3E5A;}#el_RSNEjonuRy9{fill: #359798;}#el_dLv6vAVvTD2{fill: #DDE7EC;}#el_JYkrUfSfvUY{fill: #308788;}#el_sjGOuowrtby{fill: #E2EBF0;}#el_6oGQr9t7pJM{fill: #E2EBF0;}#el_tk3nsN049wQ{fill: #0C3147;}#el_Dkarcwx0Lx4{fill: #E2EBF0;}#el__DvvxMzp5H7{fill: #E2F4FD;}#el_uDx74WmbvOa{fill: #E2EBF0;}#el_xo9IYdxSesd{fill: #E2EBF0;}#el_yy-s9I86-e5{fill: #0E3A54;}#el_FwMc7dz3LAf{fill: #50BEBF;}#el_My3XgUMX9JH{fill: #43B0B1;}#el_62RTEqUrDYF{fill: #43B0B1;}#el_hXWUAWHJiCL{fill: #3EA6A7;}#el_BuIeUq2MEer{fill: #3EA6A7;}#el_G26Kp4ESuFk{fill: #50BEBF;}#el_wV5LM_aTOYB{fill: #308788;}#el_6I0kGeY-Tbc{fill: #308788;}#el_sTQMnVfDPZl{fill: #308788;}#el_SF0r3SxRluk{fill: #0C3147;}#el_m2UIo1YNFQg{fill: #0C3147;}#el_HA8tb5oUuvw{fill: #0E3A54;}#el_vpvbq2xtQgw{fill: #2D7B7C;}#el_ASMj0cQpoJR{fill: #2D7B7C;}#el_slIvw22iwhA{fill: #2D7B7C;}#el_BxuCFDlxZ0h{fill: #308788;}#el_6n4tbkef_BW{fill: #2D7B7C;}#el_PD-W3nqKgZx{fill: #308788;}#el_Dbt8zkUw9N5{fill: #308788;}#el_XDKnctBjJas{fill: #308788;}#el_3632pZfiwNp{fill: #308788;}#el_ZKQGpWMeHbX{fill: #3EA6A7;}#el_GI7Jz9nX--6{fill: #E2F4FD;}#el_6OmH7rsPhvl{fill: #E2F4FD;}#el_ODnImtxlLWX{fill: #308788;}#el_TdSxzWRdymz{fill: #308788;}#el_e1As2ozATaj{fill: #308788;}#el_Sn9rOAzoSI_{fill: #308788;}#el_kPIkMshrchM{fill: #2D7B7C;}#el_wlWBxDwbK7c{fill: #308788;}#el_ikLgmBCAxkc{fill: #E2F4FD;}#el_JAvwcMr2uZO{fill: #0C3147;}#el_Th3p74KQh2T{fill: #2B7072;}#el_p82v-Qk1fut{fill: #2B7072;}#el_PbWMx5_11_s{fill: #2B7072;}#el_tPq7E8DKuo-{fill: #2B7072;}#el_8kVSw4D15th{fill: #2B7072;}#el_l644V7T5GW0{fill: #2B7072;}#el_og16xUpbPlm{fill: #E2F4FD;}#el_OJTbmO_b5md{fill: #359798;}#el_5uzmi83TZG9{fill: #359798;}#el_suuiOwwRMwr{fill: #359798;}#el_uv6Uqnn6uxS{fill: #359798;}#el_F0x7r63ZxXV{fill: #C1E8FD;}#el_owKcYBUrlUq{fill: #43B0B1;}#el_-0XZiUmdAP5{fill: #2B7072;}#el_gSV1r5xPVwD{fill: #2B7072;}#el_eXKaca6Y10X{fill: #2D7B7C;}#el_vjmMSNngHJd{fill: #2D7B7C;}#el_UeXb0Rb4qsU{fill: #308788;}#el_xbcfOX7x3V6{fill: #308788;}#el_S2CYfwdDxs_{fill: #2B7072;}#el_U6L0C8PnORY{fill: #D9F1FE;}#el_NQ2f_jd1Dp_{fill: #D9F1FE;}#el_UIQx4Vufz2N{fill: #D9F1FE;}#el_RbozTiAmUPL{fill: #D9F1FE;}#el_C31mQ-6Lvlu{fill: #D9F1FE;}#el_Cw6pPerB6Fs{fill: #D9F1FE;}#el_eq0GnYgQ-8b{fill: #D9F1FE;}#el_yntoBoM_-cV{fill: #D9F1FE;}#el_8353IAyZFQd{fill: #D9F1FE;}#el_X8kjNU0XDNs{fill: #D9F1FE;}#el_cMhWryjWwRS{fill: #D9F1FE;}#el_vnudd8DAfjW{fill: #D9F1FE;}#el_ikATNg1xXCb{fill: #D9F1FE;}#el_NckiWhVSUJw{fill: #D9F1FE;}#el_upKT0BaIIPs{fill: #0E3A54;}#el_H-kXND_qxj9{fill: #F3FBFE;}#el_QCpVQIDKSyS{fill: #F6FCFE;}#el_QVDQzaWhOkD{fill: #E4ECF0;}#el_NoI4YXyCu4L{fill: #E4ECF0;}#el_KXWemRHeJ2c{fill: #E4ECF0;}#el_Gyj0V3-Wffk{opacity: 0.3;}#el_PCoi4zfdeAA{fill: #0E4160;}#el_kYQ-3PbaGAY{fill: #0E4160;}#el_bQxihODf6nC{fill: #0E4160;}#el_8lXDFlylWl1{fill: #0E4160;}#el_u5LoLdpVzRp{fill: #0E4160;}#el_nBl0SfPgdLS{fill: #0E4160;}#el_WDBu3yMzJ4A{fill: #0E4160;}#el_i0i2zDN4m9u{fill: #0E4160;}#el_yEggkoYN5f_{fill: #0E4160;}#el_Ijlj8YGxqWe{fill: #0E4160;}#el_60HjxxLxeqn{fill: #0E4160;}#el_10UAwrfw7CG{fill: #0E4160;}#el_qdxSLh1sYQP{fill: #0E4160;}#el_pcBQ6jMTBNy{fill: #0E4160;}#el_5FSv4GUGclY{fill: #0E4160;}#el_9OdIi0GQlI3{fill: #0E4160;}#el_CT4S2zPF4IP{fill: #0E4160;}#el_gKcpEicDdQs{fill: #0E4160;}#el_84icvc-q80g{fill: #0E4160;}#el_mWosnUXrV2A{fill: #0E4160;}#el_m4eaLdRIPg8{fill: #0E4160;}#el_A4CHd2DYYoN{fill: #0E4160;}#el_-miBLVysKOp{fill: #0E4160;}#el_akWXy506-tb{fill: #0E4160;}#el_ZH8zvHBt6S-{fill: #0E4160;}#el_ha9dASpVL5G{fill: #0E4160;}#el_E7EBPdlao5s{fill: #0E4160;}#el_P47oofSdCFz{fill: #0E4160;}#el_DVtcCvpseBe{fill: #0E4160;}#el_rDQ-aQ_I9EO{fill: #0E4160;}#el_bb88_vZoGHv{fill: #0E4160;}#el__bphkvoTQRy{fill: #0E4160;}#el_4TFBQInNkbx{fill: #0E4160;}#el_lz9pwviVixR{fill: #0E4160;}#el_XYySGA8I5DC{fill: #0E4160;}#el_2E7TfUia-kh{fill: #0E4160;}#el_uITPWQkLEk_{fill: #0E4160;}#el_Q28Vsz9P996{fill: #0E4160;}#el_dgsuCDgJNEB{fill: #0E4160;}#el_AX6ADjToanU{fill: #0E4160;}#el_YdNVD3gkctz{fill: #0E4160;}#el_7Ft8mC6vSPi{fill: #0E4160;}#el_wcsMmc5PPoq{fill: #0E4160;}#el_w3dkymnSPKX{fill: #0E4160;}#el_2eqyDqWakiy{fill: #0E4160;}#el_LNFaeW9ZitP{fill: #0E4160;}#el_X0H5vqNxmd0{fill: #0E4160;}#el_wWR7Czp64lz{fill: #0E4160;}#el_J0CZ1Uh1Gtp{fill: #0E4160;}#el_fL0M7sBIGk0{fill: #0E4160;}#el_5Qotu5RWuBU{fill: #0E4160;}#el_YSLDgF8yErt{fill: #0E4160;}#el_kc1JKUMdDgf{fill: none;stroke: #000000;stroke-width: 0.5073;stroke-miterlimit: 10;}#el_8aC_LD_APNB{fill: none;stroke: #000000;stroke-width: 0.5073;stroke-miterlimit: 10;}#el_DmsagEJnNSf{fill: none;stroke: #000000;stroke-width: 0.5073;stroke-miterlimit: 10;}#el_0Du8XrlL9gr{fill: none;stroke: #000000;stroke-width: 0.5073;stroke-miterlimit: 10;}#el_aDJR7R01hCd{fill: none;stroke: #000000;stroke-width: 0.5073;stroke-miterlimit: 10;}#el_sOd4wAJ21Ew{fill: #FFFFFF;}#el_0ptP-Ovw6p3{fill: #FFFFFF;}#el_uf4AnNY8dGP{fill: #FFFFFF;}#el_RW8uctCWu8M{fill: #FFFFFF;}#el_lZE0z4dmFug{fill: #FFFFFF;}#el_CswsKLb9Dil{fill: #FFFFFF;}#el_lIwyBB59qF0{fill: #FFFFFF;}#el_HnOS9x5Djbb{fill: #FFFFFF;}#el_mv7qF-lTLYp{fill: #FFFFFF;}#el_YQhRJiia3-k{fill: #FFFFFF;}#el_KpZ3OE9TNwQ{fill: #FFFFFF;}#el_Y0tiAVXf6oq{fill: #FFFFFF;}#el_xCVeS4FYyqF{fill: #FFFFFF;}#el_ImqszVBlr2P{fill: #FFFFFF;}#el_fZfi-bnxM7p{fill: #FFFFFF;}#el_kzgCE-vAFfV{fill: #FFFFFF;}#el_aX6LN9FNkcp{fill: #FFFFFF;}#el_z7kim7IgISh{fill: #B3B3B3;}#el_rDrV_jvAQOD_an_CaWjsFAPq{-webkit-animation-fill-mode: backwards;animation-fill-mode: backwards;-webkit-transform: translate(187.2067108154297px, 233.58349609375px) translate(-187.2067108154297px, -233.58349609375px) translate(50px, 350px);transform: translate(187.2067108154297px, 233.58349609375px) translate(-187.2067108154297px, -233.58349609375px) translate(50px, 350px);-webkit-animation-name: kf_el_rDrV_jvAQOD_an_CaWjsFAPq;animation-name: kf_el_rDrV_jvAQOD_an_CaWjsFAPq;-webkit-animation-timing-function: cubic-bezier(0.42, 0, 0.58, 1);animation-timing-function: cubic-bezier(0.42, 0, 0.58, 1);}</style>
  <style>svg {cursor : none;}</style>
<title>Artboard 1</title>
<g id="el_oTIy5tJj-n">
	<path d="M294.4,61.2v123.6c-0.1,4.4-3.8,8-8.2,7.9H73.8c-4.4,0.1-8.1-3.4-8.2-7.9V61.2c0.1-4.4,3.8-8,8.2-7.9h212.4&#10;&#9;&#9;C290.7,53.2,294.3,56.7,294.4,61.2L294.4,61.2z" id="el_IFVJxTyScr"/>
	<path d="M56.4,150.2V457h-51H1.3l-0.2-0.2L1,456.3l-0.2-0.8l-0.1-1.1l-0.1-1.4l-0.1-1.7l-0.1-1.9l-0.1-2.1l-0.1-2.2&#10;&#9;&#9;l0-2.3l0-2.4v-87.3c0-6.3,0.1-12.5,0.2-18.5l4.4-184.5H56.4z" id="el_UpSrBNKbpR"/>
	<path d="M336.6,457V150.2h18.6l4.4,184.5c0.1,5.9,0.2,12.2,0.2,18.5v87.3v2.4l0,2.3l-0.1,2.2l-0.1,2.1l-0.1,1.9&#10;&#9;&#9;l-0.1,1.7l-0.1,1.4l-0.1,1.1l-0.1,0.8l-0.2,0.5l-0.1,0.2h-4.2H336.6z" id="el_46zfRzxzCa"/>
	<path d="M187.7,30.6c0.2-4.3-3.1-7.9-7.4-8c-4.3-0.2-7.9,3.1-8,7.4s3.1,7.9,7.4,8c0.1,0,0.2,0,0.3,0&#10;&#9;&#9;C184.2,38.1,187.6,34.8,187.7,30.6z" id="el_nNfJAnfT9n"/>
	<g id="el_3V-nr80z_5">
		<g id="el_x16LDW5KSL">
			<path d="M359.9,440.5v2.4l0,2.3l-0.1,2.2l-0.1,2.1l-0.1,1.9l-0.1,1.7l-0.1,1.4l-0.1,1.1l-0.1,0.8l-0.2,0.5l-0.1,0.2&#10;&#9;&#9;&#9;&#9;h-4.2c0.5-5,0.7-10.1,0.7-15.1V150.2l4.4,184.5c0.1,5.9,0.2,12.2,0.2,18.5V440.5z" id="el_6MDAJgX018"/>
			<path d="M355.2,413.5v28.3c0.1,5-0.1,10.1-0.7,15.1c-0.1,0.6-0.2,0.9-0.3,0.9H5.8c-0.1,0-0.2-0.3-0.3-0.9&#10;&#9;&#9;&#9;&#9;c-0.5-5-0.8-10.1-0.7-15.1v-28.3c0,10.4,8.5,18.9,18.9,18.9c0,0,0,0,0,0h312.6C346.8,432.4,355.2,424,355.2,413.5&#10;&#9;&#9;&#9;&#9;C355.2,413.5,355.2,413.5,355.2,413.5z" id="el_-QFjf5vEm-"/>
			<path d="M11.5,18.5c3.4-2.8,7.7-4.3,12.2-4.2h312.6c4.4-0.1,8.8,1.4,12.2,4.3c4.1,3.4,6.6,8.5,6.7,13.8v381.1&#10;&#9;&#9;&#9;&#9;c0,10.4-8.4,18.9-18.9,18.9c0,0,0,0,0,0H23.7c-10.4,0-18.9-8.5-18.9-18.9c0,0,0,0,0,0V32.4c0,0,0,0,0,0&#10;&#9;&#9;&#9;&#9;C4.9,27,7.4,21.9,11.5,18.5z M294.8,309.6v-74.3c-0.1-2.5-2.2-4.6-4.7-4.5c0,0,0,0,0,0H180.2c-2.5-0.1-4.6,1.9-4.7,4.5&#10;&#9;&#9;&#9;&#9;c0,0,0,0,0,0v74.3c0.1,2.5,2.2,4.6,4.7,4.5H290C292.6,314.1,294.7,312.1,294.8,309.6L294.8,309.6z M285.3,179.9V66.1&#10;&#9;&#9;&#9;&#9;c-0.1-4.1-3.5-7.3-7.5-7.2H82.2c-4.1-0.1-7.5,3.2-7.5,7.2v113.8c0.1,4.1,3.5,7.3,7.5,7.2h195.5&#10;&#9;&#9;&#9;&#9;C281.8,187.2,285.2,183.9,285.3,179.9L285.3,179.9z M276.7,375.2v-3.8c0-0.5-0.4-0.9-1-0.9c0,0,0,0,0,0h-81.2&#10;&#9;&#9;&#9;&#9;c-0.5,0-0.9,0.4-0.9,0.9c0,0,0,0,0,0v3.8c0,0.5,0.4,0.9,0.9,0.9h81.2C276.2,376.2,276.7,375.8,276.7,375.2z M186.6,30.6&#10;&#9;&#9;&#9;&#9;c0.2-3.7-2.7-6.7-6.3-6.9c-3.7-0.2-6.7,2.7-6.9,6.3s2.7,6.7,6.3,6.9c0.1,0,0.2,0,0.3,0C183.6,37,186.5,34.2,186.6,30.6z&#10;&#9;&#9;&#9;&#9; M120.7,304.3v-14.5c0-1.5-1.3-2.8-2.8-2.7c0,0,0,0,0,0H48c-1.5,0-2.8,1.2-2.8,2.7v14.5c0,1.5,1.3,2.7,2.8,2.7h69.9&#10;&#9;&#9;&#9;&#9;C119.4,307,120.7,305.8,120.7,304.3L120.7,304.3z M97.5,315.9c0.1-1.5-1.1-2.8-2.6-2.8c0,0,0,0,0,0H71.1&#10;&#9;&#9;&#9;&#9;c-1.5-0.1-2.8,1.1-2.8,2.6c-0.1,1.5,1.1,2.8,2.6,2.8h23.8C96.2,318.6,97.5,317.4,97.5,315.9z" id="el_SNSwRQdQ65"/>
			<path d="M7.6,457.9h344.9c-0.1,0.3-0.4,0.7-0.7,0.9l-28.6,23c-0.4,0.3-1,0.5-1.5,0.5H38.3c-0.5,0-1.1-0.2-1.5-0.5&#10;&#9;&#9;&#9;&#9;l-28.6-23C7.9,458.6,7.7,458.3,7.6,457.9z" id="el_ihdaHaHWuw"/>
			<path d="M348.4,11.5l0.1,7.1c-3.4-2.9-7.7-4.4-12.2-4.3H23.7c-4.4-0.1-8.8,1.4-12.2,4.2l0.1-7&#10;&#9;&#9;&#9;&#9;C11.8,4.7,12.2,0,12.6,0h334.8C347.8,0,348.2,4.7,348.4,11.5z" id="el_0565e0ZTQ1"/>
			<path d="M294.8,236.4v73.2c-0.1,2.6-2.2,4.6-4.7,4.5H180.2c-2.5,0-4.7-2-4.7-4.5v-73.2c0.1-2.5,2.2-4.6,4.7-4.5H290&#10;&#9;&#9;&#9;&#9;C292.6,231.8,294.7,233.8,294.8,236.4z" id="el_JR6Rn_ADtV"/>
			<path d="M294.8,235.3v1.1c-0.1-2.6-2.2-4.6-4.7-4.5H180.2c-2.5,0-4.7,2-4.7,4.5v-1.1c0-2.5,2.1-4.6,4.7-4.5&#10;&#9;&#9;&#9;&#9;c0,0,0,0,0,0H290C292.6,230.7,294.7,232.7,294.8,235.3C294.8,235.3,294.8,235.3,294.8,235.3z" id="el_6UKLdGX31u"/>
			<path d="M282.5,67.2c-0.1-2.5-2.2-4.6-4.7-4.5H82.2c-2.6,0-4.7,2-4.7,4.5v113.5c0.1,2.6,2.2,4.6,4.7,4.5h195.5&#10;&#9;&#9;&#9;&#9;c2.5,0,4.7-2,4.7-4.5L282.5,67.2z M285.3,66.1v113.8c-0.1,4.1-3.5,7.3-7.5,7.2H82.2c-4.1,0.1-7.5-3.2-7.5-7.2V66.1&#10;&#9;&#9;&#9;&#9;c0.1-4.1,3.5-7.3,7.5-7.2h195.5C281.8,58.8,285.2,62,285.3,66.1L285.3,66.1z" id="el_yst7F85yXB"/>
			<path d="M282.5,67.2v113.5c-0.1,2.5-2.2,4.6-4.7,4.5H82.2c-2.6,0-4.7-2-4.7-4.5V67.2c0.1-2.6,2.2-4.6,4.7-4.5h195.5&#10;&#9;&#9;&#9;&#9;C280.3,62.6,282.4,64.6,282.5,67.2z" id="el_2ajnJkouKRf"/>
			<path d="M276.7,371.5v3.8c0,0.5-0.4,0.9-1,0.9h-81.2c-0.5,0-0.9-0.4-0.9-0.9v-3.8c0-0.5,0.4-0.9,0.9-0.9c0,0,0,0,0,0h81.2&#10;&#9;&#9;&#9;&#9;C276.2,370.5,276.7,370.9,276.7,371.5C276.7,371.4,276.7,371.4,276.7,371.5z" id="el_4HbP1KpaHNk"/>
			<path d="M180.2,27.4c2,0.1,3.5,1.8,3.4,3.8c-0.1,2-1.8,3.5-3.8,3.4c-1.9-0.1-3.4-1.7-3.4-3.6C176.5,29,178.1,27.4,180.2,27.4z" id="el_tU2bwh6SAcP"/>
			<path d="M120.7,301.7v2.5c0,1.5-1.3,2.8-2.8,2.7H48c-1.5,0-2.8-1.2-2.8-2.7v-2.5H120.7z" id="el_RtOGmM2IJov"/>
			<rect x="45.1" y="295.9" width="75.6" height="5.8" id="el_BU68s5HYsY5"/>
			<path d="M120.7,290.8v5.1H45.1v-5.1c0-1.5,1.3-2.7,2.8-2.7h69.9C119.4,288.1,120.7,289.3,120.7,290.8z" id="el_DrKuNApfMs_"/>
			<path d="M120.7,289.8v1.1c0-1.5-1.3-2.7-2.8-2.7H48c-1.5,0-2.8,1.2-2.8,2.7v-1.1c0-1.5,1.3-2.8,2.8-2.7h69.9&#10;&#9;&#9;&#9;&#9;C119.4,287,120.7,288.2,120.7,289.8C120.7,289.8,120.7,289.8,120.7,289.8z" id="el_NASaCF15tTL"/>
			<path d="M94.9,313.1c1.5,0.1,2.7,1.3,2.6,2.8c-0.1,1.5-1.3,2.7-2.8,2.6H70.9c-1.5-0.1-2.7-1.3-2.6-2.8&#10;&#9;&#9;&#9;&#9;c0.1-1.5,1.3-2.7,2.8-2.6H94.9z" id="el_gtYbWSTSUd6"/>
			<path d="M5.4,457H1.3l-0.2-0.2L1,456.3l-0.2-0.8l-0.1-1.1l-0.1-1.4l-0.1-1.7l-0.1-1.9l-0.1-2.1l-0.1-2.2l0-2.3l0-2.4&#10;&#9;&#9;&#9;&#9;v-87.3c0-6.3,0.1-12.5,0.2-18.5l4.4-184.5v291.7C4.7,446.9,4.9,452,5.4,457z" id="el_8gk7LZkaYM8"/>
		</g>
		<circle cx="235.1" cy="278.4" r="3" id="el_2_OC3ohluf_"/>
		<g id="el_SxejCkfxh9T">
			<path d="M172.1,99.8H99.8c-1.2,0-2.2-1-2.2-2.2c0-1.2,1-2.2,2.2-2.2h72.3c1.2,0,2.2,1,2.2,2.2&#10;&#9;&#9;&#9;&#9;C174.3,98.8,173.4,99.8,172.1,99.8z" id="el_Us0u6JFUd0g"/>
			<path d="M149.8,111H99.9c-1.2,0-2.2-1-2.2-2.2s1-2.2,2.2-2.2h49.9c1.2,0,2.2,1,2.2,2.2C152,110,151,111,149.8,111z" id="el_3_jd-1V4fxe"/>
			<path d="M149.8,127.4H99.9c-0.6,0-1.1-0.5-1.1-1.1c0-0.6,0.5-1.1,1.1-1.1h49.9c0.6,0,1.1,0.5,1.1,1.1&#10;&#9;&#9;&#9;&#9;C150.9,126.9,150.4,127.4,149.8,127.4z" id="el_SohDwMLW-Pk"/>
			<path d="M138.1,135.8H99.9c-0.6,0-1.1-0.5-1.1-1.1s0.5-1.1,1.1-1.1h38.2c0.6,0,1.1,0.5,1.1,1.1&#10;&#9;&#9;&#9;&#9;S138.7,135.8,138.1,135.8z" id="el_QRqhvilJXoo"/>
			<path d="M138.1,150.8H99.9c-0.6,0-1.1-0.5-1.1-1.1s0.5-1.1,1.1-1.1h38.2c0.6,0,1.1,0.5,1.1,1.1&#10;&#9;&#9;&#9;&#9;C139.2,150.3,138.7,150.8,138.1,150.8z" id="el_1ar8K-5B003"/>
			<path d="M202.4,95.2h49.4c3.2,0,5.9,2.6,5.9,5.9v27.8c0,3.2-2.6,5.9-5.9,5.9h-49.5c-3.2,0-5.9-2.6-5.9-5.9v-27.8&#10;&#9;&#9;&#9;&#9;C196.6,97.8,199.2,95.2,202.4,95.2z" id="el_tQSTHKPwXp4"/>
			<rect x="196.6" y="102.9" width="61" height="8.3" id="el_t6q670vvd1H"/>
		</g>
	</g>
	<g id="el_zfyfjeFMVeQ">
		<path d="M276.8,370.5h11.5c3.6,0,6.5,2.9,6.5,6.4c0,0,0,0,0,0.1v24.2c0,3.6-2.9,6.5-6.4,6.5c0,0,0,0-0.1,0H182.9&#10;&#9;&#9;&#9;c-3.6,0-6.5-2.9-6.5-6.4c0,0,0,0,0-0.1V377c0-3.6,2.9-6.5,6.4-6.5c0,0,0,0,0.1,0L276.8,370.5L276.8,370.5z" id="el_0VDeLgIwJAT"/>
	</g>
</g>
<g id="el_rDrV_jvAQOD_an_CaWjsFAPq" data-animator-group="true" data-animator-type="0"><g id="el_rDrV_jvAQOD">
	<polygon points="210.3,346.7 238.1,363.3 256,336.2 228.9,321.4 &#9;" id="el_JzTqi_Qiqh9"/>
	<path id="el_LzamRIwrm4P" d="M203.7,320.5C203.8,320.5,203.8,320.5,203.7,320.5L203.7,320.5l37.3,8.3l-3.5,8.3&#10;&#9;&#9;l-34.8-0.2l0,0c0,0,0,0-0.1,0c-4.9,0-8.6-3.7-8.3-8.3S198.2,319.1,203.7,320.5z"/>
	<path id="el_iN4gX-JVmX7" d="M206.5,332.9L206.5,332.9L206.5,332.9l33-1.9l2.1,15.1l-33,1.8l0,0c0,0,0,0-0.1,0&#10;&#9;&#9;c-4.6,0.3-8.9-2.9-9.4-7.1S201.9,333.1,206.5,332.9z"/>
	<path id="el_P9eSNn-l2QO" d="M209,345.7L209,345.7L209,345.7l30,1.3l-0.1,13.6l-29.9-1.3l0,0c0,0,0,0-0.1,0&#10;&#9;&#9;c-4.2-0.2-7.6-3.4-7.6-7.2S204.7,345.5,209,345.7z"/>
	<path id="el_fdyAGKalcYw" d="M239.8,309.6c1.8-0.1,3.6,0.5,4.9,1.7l14.7,12.4c2.1,1.9,3.3,4.5,3.3,7.3l0.5,54.3&#10;&#9;&#9;c0,3.2-2.9,5.6-6.5,5.4l-13-0.6c-3.6-0.2-6.5-2.9-6.5-6l2.6-45.4l-11.4-9.6l-24.5-0.3c-10.5,0.2-16.4-4.5-14.7-10.6&#10;&#9;&#9;c1-3.6,3.1-6.2,11.1-6.1L239.8,309.6z"/>
	<g id="el_mN2l6qHWk-v">
		<path id="el_yKpFdvOzc1F" d="M238.1,236.2l36.3,69.8c1.1,2.1,0.3,4.7-1.8,5.8L229.8,334c-2.1,1.1-4.7,0.3-5.8-1.8&#10;&#9;&#9;&#9;l-36.3-69.8c-1.1-2.1-0.3-4.7,1.8-5.8l42.8-22.2C234.4,233.3,237,234.1,238.1,236.2z"/>
		<path id="el_7N2Pc0jOHob" d="M238.1,236.2l36.3,69.8c1.1,2.1,0.3,4.7-1.8,5.8L229.8,334c-2.1,1.1-4.7,0.3-5.8-1.8&#10;&#9;&#9;&#9;l-36.3-69.8c-1.1-2.1-0.3-4.7,1.8-5.8l42.8-22.2C234.4,233.3,237,234.1,238.1,236.2z"/>
		<path id="el_-j_R0Te0Pcs" d="M237.7,235.4l36.7,70.5c0.9,1.7,0.2,3.7-1.4,4.6l-43.5,22.6c-1.7,0.9-3.7,0.2-4.6-1.4&#10;&#9;&#9;&#9;l-36.7-70.5c-0.9-1.7-0.2-3.7,1.4-4.6l43.5-22.6C234.8,233.1,236.8,233.7,237.7,235.4z"/>
		<path id="el_IqOmbzKlmz3" d="M237.7,235.4l36.7,70.5c0.9,1.7,0.2,3.7-1.4,4.6l-43.5,22.6c-1.7,0.9-3.7,0.2-4.6-1.4&#10;&#9;&#9;&#9;l-36.7-70.5c-0.9-1.7-0.2-3.7,1.4-4.6l43.5-22.6C234.8,233.1,236.8,233.7,237.7,235.4z"/>
		<g id="el_QXifefdvqxh">
			<path id="el_nrqFbOEzwci" d="M248,272l-35.8,18.6c-1.3,0.7-2.9,0.2-3.6-1.1l-13.9-26.8c-0.7-1.3-0.2-2.9,1.1-3.6&#10;&#9;&#9;&#9;&#9;l35.8-18.6c1.3-0.7,2.9-0.2,3.6,1.1l13.9,26.8C249.8,269.7,249.3,271.3,248,272z"/>
			<path id="el_A0eK5zTSc5T" d="M248,272l-35.8,18.6c-1.3,0.7-2.9,0.2-3.6-1.1l-13.9-26.8c-0.7-1.3-0.2-2.9,1.1-3.6l35.8-18.6&#10;&#9;&#9;&#9;&#9;c1.3-0.7,2.9-0.2,3.6,1.1l13.9,26.8C249.8,269.7,249.3,271.3,248,272z"/>
			<polygon points="207.2,286.9 202.8,278.6 220.4,265.5 227.4,261.5 231.2,263.7 231.7,267.2 210.6,280.9 &#9;&#9;&#9;" id="el_6WJ-JfZRtir"/>
			<g id="el_fkNVK4sJdBd">
				<g id="el_LoKZvzF-8dK">
					<g id="el_zYmSz11CqMa">
						<g id="el_WoEwFYLhBS0">
							<g id="el_WLmnJqlKGzL">
								<defs>
									<path id="SVGID_1_" d="M248,272l-35.8,18.6c-1.3,0.7-2.9,0.2-3.6-1.1l-13.9-26.8c-0.7-1.3-0.2-2.9,1.1-3.6l35.8-18.6&#10;&#9;&#9;&#9;&#9;&#9;&#9;&#9;&#9;&#9;&#9;c1.3-0.7,2.9-0.2,3.6,1.1l13.9,26.8C249.8,269.7,249.3,271.3,248,272z"/>
								</defs>
								<clipPath id="SVGID_2_">
									<use xlink:href="#SVGID_1_" style="overflow:visible;"/>
								</clipPath>
								<g id="el_7QrA3duWv-x">
									<g id="el_64-uS7La7UJ">
										<g id="el_2GR2czeelqz">
											<path d="M223.4,264.8c0,0.1,0,0.2-0.1,0.2C223.3,264.9,223.3,264.9,223.4,264.8z" id="el_6zoOZgDCwxg"/>
											<path d="M224.6,263.7C224.6,263.7,224.7,263.7,224.6,263.7c-0.1,0.1-0.2,0.2-0.4,0.3&#10;&#9;&#9;&#9;&#9;&#9;&#9;&#9;&#9;&#9;&#9;&#9;&#9;c-0.1,0.1-0.1,0.1-0.2,0.2c0,0,0,0,0-0.1C224.2,264,224.4,263.8,224.6,263.7z" id="el_sNInCoweQEr"/>
											<path d="M224.7,263.6c0.2-0.1,0.3-0.2,0.5-0.3C225.1,263.4,224.9,263.5,224.7,263.6z" id="el_JjK3HB_ho6m"/>
											<path d="M225.9,263C225.9,263.1,225.9,263.1,225.9,263c-0.2,0.1-0.3,0.2-0.4,0.2s-0.2,0.1-0.3,0.1&#10;&#9;&#9;&#9;&#9;&#9;&#9;&#9;&#9;&#9;&#9;&#9;&#9;c0.1-0.1,0.3-0.2,0.4-0.3C225.7,262.9,225.8,263,225.9,263z" id="el_it-5q4xM_dZ"/>
											<path d="M237.2,265.4C237.3,265.5,237.3,265.5,237.2,265.4c-0.1,0-0.2,0.1-0.4,0.1c-0.1,0-0.1,0,0,0.1&#10;&#9;&#9;&#9;&#9;&#9;&#9;&#9;&#9;&#9;&#9;&#9;&#9;c0.1,0.2,0.2,0.3,0.4,0.3c0,1,0,1.9,0,2.9c-0.4-0.1-0.7-0.2-1.1-0.3c-0.4-0.1-0.7-0.2-1.1-0.3c-0.2,0-0.2-0.1-0.2-0.3&#10;&#9;&#9;&#9;&#9;&#9;&#9;&#9;&#9;&#9;&#9;&#9;&#9;c0.1-0.8,0.1-1.6,0.2-2.4v-0.1h0.1c0.2,0,0.4,0.1,0.6,0.1c0,0,0,0,0.1,0c0,0.1,0.1,0.2,0.2,0.1s0.2-0.1,0.1-0.3&#10;&#9;&#9;&#9;&#9;&#9;&#9;&#9;&#9;&#9;&#9;&#9;&#9;c0-0.1,0-0.1,0-0.2c0.1-0.1,0.2-0.2,0-0.4c0.1,0,0.1,0.1,0.2,0.1h0.1c0-0.1,0-0.1,0-0.1c-0.1,0-0.1-0.1,0-0.1&#10;&#9;&#9;&#9;&#9;&#9;&#9;&#9;&#9;&#9;&#9;&#9;&#9;c0,0,0.1-0.1,0-0.1c-0.2-0.1-0.1-0.2-0.1-0.3c0,0,0.1,0,0.1-0.1l0,0c0.3,0,0.3,0,0.4,0.2c0,0.1,0.1,0.3,0.2,0.4&#10;&#9;&#9;&#9;&#9;&#9;&#9;&#9;&#9;&#9;&#9;&#9;&#9;c0,0.1,0.1,0.2-0.1,0.3c0,0-0.1,0-0.1,0.1l0.1,0.1C237.1,265.2,237.2,265.3,237.2,265.4z" id="el_0N4VjUCV2IE"/>
											<path d="M231.5,273.1c-0.1,0-0.1,0-0.2-0.1c0.1,0.3,0.1,0.3,0.3,0.2C231.6,273.2,231.6,273.2,231.5,273.1&#10;&#9;&#9;&#9;&#9;&#9;&#9;&#9;&#9;&#9;&#9;&#9;&#9;C231.6,273.2,231.5,273.2,231.5,273.1z M231.6,272.8c-0.1,0-0.1,0-0.1-0.1v-0.2c-0.1-0.1-0.1-0.2-0.2-0.1&#10;&#9;&#9;&#9;&#9;&#9;&#9;&#9;&#9;&#9;&#9;&#9;&#9;c0,0.1,0,0.1,0,0.2l0,0c0,0-0.1,0-0.1,0.1l0,0c0.2,0,0.3,0.1,0.4,0.2C231.6,273,231.7,272.9,231.6,272.8&#10;&#9;&#9;&#9;&#9;&#9;&#9;&#9;&#9;&#9;&#9;&#9;&#9;C231.7,272.9,231.7,272.8,231.6,272.8z M232.2,272.9c-0.1,0.1-0.2,0.1-0.2,0.1c-0.1-0.1-0.2,0-0.3,0.1c0,0,0.1,0,0.2,0&#10;&#9;&#9;&#9;&#9;&#9;&#9;&#9;&#9;&#9;&#9;&#9;&#9;s0.2,0,0.2-0.1c0,0,0.1-0.1,0.1,0c0.1,0,0.1,0,0.1-0.1C232.3,272.8,232.2,272.9,232.2,272.9z M232.3,273.4h-0.1&#10;&#9;&#9;&#9;&#9;&#9;&#9;&#9;&#9;&#9;&#9;&#9;&#9;c-0.1-0.1-0.2-0.2-0.1-0.3c-0.2,0.1-0.2,0.3,0,0.4c0.1,0,0.1,0,0.1,0c0.1-0.1,0.1-0.1,0.1,0h0.1&#10;&#9;&#9;&#9;&#9;&#9;&#9;&#9;&#9;&#9;&#9;&#9;&#9;C232.4,273.5,232.5,273.3,232.3,273.4z M232.4,272.9L232.4,272.9c0.1,0.1,0.1,0.1,0.1,0.1&#10;&#9;&#9;&#9;&#9;&#9;&#9;&#9;&#9;&#9;&#9;&#9;&#9;C232.5,272.9,232.4,272.9,232.4,272.9z M232.7,273.8L232.7,273.8c0,0.1,0,0.2,0.1,0.2C232.8,274,232.7,273.9,232.7,273.8&#10;&#9;&#9;&#9;&#9;&#9;&#9;&#9;&#9;&#9;&#9;&#9;&#9;z M232.7,271.9L232.7,271.9c-0.1,0-0.1,0.1-0.1,0.2C232.7,272.1,232.7,272,232.7,271.9L232.7,271.9z M232.9,274.2&#10;&#9;&#9;&#9;&#9;&#9;&#9;&#9;&#9;&#9;&#9;&#9;&#9;L232.9,274.2L232.9,274.2L232.9,274.2z M233.1,272.5L233.1,272.5L233.1,272.5z M234.1,273c-0.1,0-0.2,0.2-0.3,0.3&#10;&#9;&#9;&#9;&#9;&#9;&#9;&#9;&#9;&#9;&#9;&#9;&#9;c0,0.1-0.1,0.2-0.1,0.3c0,0.1,0,0.1,0,0.2c0.1,0,0.2-0.1,0.3-0.1c-0.1-0.1,0-0.2,0.1-0.3c0.1-0.1,0.2-0.2,0.2-0.3&#10;&#9;&#9;&#9;&#9;&#9;&#9;&#9;&#9;&#9;&#9;&#9;&#9;C234.3,273.1,234.2,273.1,234.1,273z M234.9,272.9c-0.1,0-0.2,0.1-0.3,0.2v0.1l0,0c0,0,0,0,0.1,0l0,0&#10;&#9;&#9;&#9;&#9;&#9;&#9;&#9;&#9;&#9;&#9;&#9;&#9;c0.1,0,0.1-0.1,0.2-0.1c0,0,0.1,0,0.1-0.1C235,272.9,235,272.9,234.9,272.9z M235,273.3C235,273.3,235,273.4,235,273.3&#10;&#9;&#9;&#9;&#9;&#9;&#9;&#9;&#9;&#9;&#9;&#9;&#9;C235,273.4,235.1,273.4,235,273.3L235,273.3z M235.2,272.3l0.1-0.1c0.1-0.1,0.2-0.1,0.3-0.2c-0.1,0-0.1-0.1-0.2-0.1&#10;&#9;&#9;&#9;&#9;&#9;&#9;&#9;&#9;&#9;&#9;&#9;&#9;s-0.2,0.1-0.2,0.2s-0.1,0.1-0.1,0.1l-0.1,0.1c-0.1,0.1-0.1,0.2,0,0.3l0.1,0.1c0,0.1,0,0.1,0.1,0.1c0,0,0,0,0-0.1&#10;&#9;&#9;&#9;&#9;&#9;&#9;&#9;&#9;&#9;&#9;&#9;&#9;l-0.1-0.1c-0.1,0-0.1-0.1-0.1-0.1C235,272.4,235.1,272.3,235.2,272.3z M235.6,272.5L235.6,272.5&#10;&#9;&#9;&#9;&#9;&#9;&#9;&#9;&#9;&#9;&#9;&#9;&#9;C235.6,272.5,235.5,272.5,235.6,272.5c-0.1,0-0.2,0-0.2,0h0.1C235.5,272.5,235.5,272.6,235.6,272.5L235.6,272.5z&#10;&#9;&#9;&#9;&#9;&#9;&#9;&#9;&#9;&#9;&#9;&#9;&#9; M236.2,272.3v0.1C236.2,272.4,236.3,272.4,236.2,272.3z M237.3,272.6c-0.7,0.2-1.3,0.4-2,0.5l0,0&#10;&#9;&#9;&#9;&#9;&#9;&#9;&#9;&#9;&#9;&#9;&#9;&#9;c-0.1,0.1-0.1,0.1-0.2,0.1l-0.1,0.1c0,0,0.1,0,0.1,0.1l0,0h0.1l0,0c0-0.2,0.1-0.3,0.3-0.3c0.7-0.2,1.3-0.3,2-0.5&#10;&#9;&#9;&#9;&#9;&#9;&#9;&#9;&#9;&#9;&#9;&#9;&#9;C237.5,272.6,237.4,272.6,237.3,272.6z" id="el_RSNEjonuRy9"/>
											<path d="M232.7,270.7c-0.3-0.2-0.7-0.3-0.8-0.7c-0.1-0.1-0.1-0.1-0.1-0.2c0-0.3-0.2-0.5-0.3-0.7&#10;&#9;&#9;&#9;&#9;&#9;&#9;&#9;&#9;&#9;&#9;&#9;&#9;c-0.1-0.1-0.1-0.1-0.1-0.2s-0.1-0.1-0.1-0.1c-0.1,0-0.1,0.1-0.1,0.1c0,0.1,0,0.2-0.1,0.2c0,0.1,0.1,0.2-0.1,0.2&#10;&#9;&#9;&#9;&#9;&#9;&#9;&#9;&#9;&#9;&#9;&#9;&#9;c-0.1,0-0.1,0-0.2,0l0,0c0,0,0-0.1,0.1-0.1l-0.1-0.1c-0.2,0-0.3,0-0.2,0.2c0,0.1,0.1,0.1,0,0.1c-0.2,0.1-0.3,0.2-0.3,0.4&#10;&#9;&#9;&#9;&#9;&#9;&#9;&#9;&#9;&#9;&#9;&#9;&#9;c0,0.1,0,0.2-0.1,0.2c-0.2,0.1-0.3,0.2-0.3,0.4c0.1,0,0.1,0.1,0.1,0.1c-0.1,0.1,0,0.2,0.1,0.3c0.1,0.1,0.1,0.2,0.1,0.3&#10;&#9;&#9;&#9;&#9;&#9;&#9;&#9;&#9;&#9;&#9;&#9;&#9;s0.1,0.1,0.2,0.1c0.2-0.1,0.2-0.4,0.2-0.5c0,0,0-0.1,0.1-0.2l0.3,0.2h0.2c0.4,0.2,0.8,0.3,1.2,0.4h0.1l0,0l0,0l0,0l0,0&#10;&#9;&#9;&#9;&#9;&#9;&#9;&#9;&#9;&#9;&#9;&#9;&#9;l0,0l0,0l0,0h0.1c0,0,0,0,0,0.1h0.1c0-0.1,0-0.2,0.1-0.3C232.9,270.8,232.8,270.8,232.7,270.7z M230.7,269.6L230.7,269.6&#10;&#9;&#9;&#9;&#9;&#9;&#9;&#9;&#9;&#9;&#9;&#9;&#9;C230.7,269.5,230.7,269.5,230.7,269.6L230.7,269.6z" id="el_dLv6vAVvTD2"/>
											<path d="M235.3,272.4h-0.1c0,0,0,0.1,0.1,0.1s0.1,0,0.1,0l0,0l0,0l0,0c0,0,0,0,0.1,0l0,0l0,0&#10;&#9;&#9;&#9;&#9;&#9;&#9;&#9;&#9;&#9;&#9;&#9;&#9;c0,0.1,0.1,0.1,0,0.2s-0.2,0.1-0.3,0.1h-0.1c-0.1,0-0.1,0-0.1-0.1l-0.1-0.1c-0.1-0.1-0.1-0.2,0-0.3l0.1-0.1&#10;&#9;&#9;&#9;&#9;&#9;&#9;&#9;&#9;&#9;&#9;&#9;&#9;c0,0,0.1,0,0.1-0.1s0.1-0.1,0.2-0.2h0.1c0.2,0,0.4,0,0.6,0.1c-0.1,0-0.1,0.1-0.2,0.1&#10;&#9;&#9;&#9;&#9;&#9;&#9;&#9;&#9;&#9;&#9;&#9;&#9;C235.8,272.3,235.6,272.4,235.3,272.4z" id="el_JYkrUfSfvUY"/>
											<path d="M233.4,269.6c-0.1,0.1-0.2-0.1-0.3,0c0,0,0,0,0-0.1s0-0.3-0.1-0.4c0,0-0.1-0.1,0-0.1h0.1&#10;&#9;&#9;&#9;&#9;&#9;&#9;&#9;&#9;&#9;&#9;&#9;&#9;c0.1,0,0.2,0,0.2,0.2l0,0C233.4,269.3,233.3,269.5,233.4,269.6L233.4,269.6z" id="el_sjGOuowrtby"/>
											<path d="M232.9,268.8L232.9,268.8c-0.1,0-0.2,0.1-0.2,0.1c0-0.1,0-0.2,0.1-0.3h0.1c0,0,0-0.2,0.1-0.1&#10;&#9;&#9;&#9;&#9;&#9;&#9;&#9;&#9;&#9;&#9;&#9;&#9;c0.1,0,0.1,0.1,0.1,0.2C233.2,268.7,233.1,268.7,232.9,268.8C233,268.7,233,268.8,232.9,268.8z" id="el_6oGQr9t7pJM"/>
											<path d="M237.7,264.5c0-0.1-0.1-0.1-0.2,0s-0.2,0-0.1-0.1c0-0.1,0-0.1,0-0.2c0,0,0.1-0.1,0.1,0&#10;&#9;&#9;&#9;&#9;&#9;&#9;&#9;&#9;&#9;&#9;&#9;&#9;C237.6,264.3,237.7,264.3,237.7,264.5L237.7,264.5L237.7,264.5L237.7,264.5z" id="el_tk3nsN049wQ"/>
											<path d="M231,269.3c0,0.1,0.1,0.2-0.1,0.2c-0.1,0-0.1,0-0.2,0c0-0.1,0-0.1,0.1-0.2l0,0H231z" id="el_Dkarcwx0Lx4"/>
											<path d="M233.3,271.3c-0.1,0-0.3,0-0.4-0.1C233,271.1,233.2,271.1,233.3,271.3L233.3,271.3z" id="el__DvvxMzp5H7"/>
											<path d="M233.4,269.6L233.4,269.6L233.4,269.6L233.4,269.6C233.4,269.7,233.4,269.6,233.4,269.6&#10;&#9;&#9;&#9;&#9;&#9;&#9;&#9;&#9;&#9;&#9;&#9;&#9;L233.4,269.6z" id="el_uDx74WmbvOa"/>
											<path d="M233.4,269.6C233.4,269.5,233.4,269.5,233.4,269.6C233.5,269.5,233.5,269.5,233.4,269.6&#10;&#9;&#9;&#9;&#9;&#9;&#9;&#9;&#9;&#9;&#9;&#9;&#9;C233.5,269.5,233.5,269.5,233.4,269.6L233.4,269.6z" id="el_xo9IYdxSesd"/>
											<path d="M237.8,264.4L237.8,264.4L237.8,264.4z" id="el_yy-s9I86-e5"/>
											<path d="M232.5,275.2c0,0.1-0.2,0.3-0.3,0.3c-0.6,0.2-1.2,0.4-1.9,0.6c-0.1,0-0.2,0-0.2-0.1&#10;&#9;&#9;&#9;&#9;&#9;&#9;&#9;&#9;&#9;&#9;&#9;&#9;c-0.1-0.1-0.1-0.3-0.1-0.4c0.1-0.1,0.2-0.2,0.1-0.4c0-0.2,0-0.4,0.1-0.5c0-0.1,0.1-0.1,0.1-0.1c0.1,0,0.1,0.1,0,0.1&#10;&#9;&#9;&#9;&#9;&#9;&#9;&#9;&#9;&#9;&#9;&#9;&#9;c0,0.1,0,0.2-0.1,0.2v0.1h0.1c0.1-0.1,0.1-0.3,0.2-0.4c0-0.1-0.1-0.1-0.2-0.2s-0.2-0.2-0.2-0.3c0.1-0.1,0.1-0.2,0.2-0.3&#10;&#9;&#9;&#9;&#9;&#9;&#9;&#9;&#9;&#9;&#9;&#9;&#9;c0.1,0,0,0.2,0.1,0.1c0.1,0,0-0.1,0-0.2s0.1-0.2,0.2-0.2s0.1,0,0.2,0.1c0.1,0,0.2,0.1,0.2-0.1c0-0.1,0.1-0.1,0.2,0&#10;&#9;&#9;&#9;&#9;&#9;&#9;&#9;&#9;&#9;&#9;&#9;&#9;c0,0,0.1,0,0.2,0.1c0,0.1,0.1,0.1,0.1,0.1l0,0c-0.1,0.1-0.1,0.1,0.1,0.2v0.1c0.1,0.2,0.1,0.2,0.2,0.1c0,0,0,0,0.1,0&#10;&#9;&#9;&#9;&#9;&#9;&#9;&#9;&#9;&#9;&#9;&#9;&#9;c0,0.1,0.2,0.1,0.1,0.2c-0.1,0-0.1,0.1-0.1,0.2c0,0,0,0.1,0.1,0.1c0.2,0.1,0.1,0.2,0.2,0.4&#10;&#9;&#9;&#9;&#9;&#9;&#9;&#9;&#9;&#9;&#9;&#9;&#9;C232.3,275.2,232.4,275.3,232.5,275.2z M232,275.5c0,0,0.1,0,0.1-0.1c0-0.3,0-0.5-0.2-0.8c-0.1-0.1-0.3-0.1-0.4,0&#10;&#9;&#9;&#9;&#9;&#9;&#9;&#9;&#9;&#9;&#9;&#9;&#9;s-0.1,0.2-0.1,0.3c0,0.1,0.1,0.2,0,0.4c0,0.2,0,0.3,0.2,0.3C231.7,275.6,231.9,275.6,232,275.5L232,275.5z" id="el_FwMc7dz3LAf"/>
											<path d="M231.3,273.6c0,0-0.1,0-0.1,0.1s-0.1,0.1-0.2,0.1s-0.1-0.1-0.2-0.1s-0.2,0-0.2,0.2&#10;&#9;&#9;&#9;&#9;&#9;&#9;&#9;&#9;&#9;&#9;&#9;&#9;c0,0.1,0.1,0.1,0,0.2c-0.1,0-0.1-0.1-0.1-0.1c-0.1,0.1-0.1,0.2-0.2,0.3c0,0,0,0,0,0.1l0,0c0,0.1,0.2,0.1,0.2,0.2&#10;&#9;&#9;&#9;&#9;&#9;&#9;&#9;&#9;&#9;&#9;&#9;&#9;c0.1,0,0.2,0.1,0.2,0.2c0,0.2-0.1,0.3-0.2,0.4h-0.1c0,0-0.1-0.1,0-0.1c0-0.1,0-0.2,0.1-0.2v-0.1c-0.1,0-0.1,0-0.1,0.1&#10;&#9;&#9;&#9;&#9;&#9;&#9;&#9;&#9;&#9;&#9;&#9;&#9;c-0.1,0.2-0.1,0.3-0.1,0.5c0,0.1,0,0.3-0.1,0.4c-0.1-0.1-0.1-0.2-0.1-0.3l0,0c-0.1-0.2-0.1-0.4-0.3-0.6&#10;&#9;&#9;&#9;&#9;&#9;&#9;&#9;&#9;&#9;&#9;&#9;&#9;c0-0.1,0-0.1,0-0.2s0-0.1,0-0.2c0.1-0.2,0-0.3,0.2-0.5c0,0,0.2-0.1,0.1-0.2c0-0.1-0.1-0.2-0.1-0.3c0,0,0,0-0.1,0h-0.1&#10;&#9;&#9;&#9;&#9;&#9;&#9;&#9;&#9;&#9;&#9;&#9;&#9;v-0.2c0.1,0.1,0.3,0.1,0.4,0.2s0.1,0.1,0.2,0s0.1-0.1,0.1-0.2c0,0,0,0,0-0.1c0,0,0,0-0.1,0s-0.1,0.1-0.2,0c0,0,0,0,0-0.1&#10;&#9;&#9;&#9;&#9;&#9;&#9;&#9;&#9;&#9;&#9;&#9;&#9;l0,0c0-0.1,0-0.2,0-0.3c0,0,0-0.1,0-0.2h0.1c0.1,0.1,0.1,0.1,0.2,0c0.1,0,0.2,0,0.2,0c0.1,0,0.2,0.1,0.3,0.1&#10;&#9;&#9;&#9;&#9;&#9;&#9;&#9;&#9;&#9;&#9;&#9;&#9;c0,0.1-0.1,0.3,0.1,0.4c0,0,0,0,0,0.1s0,0.1,0,0.2C231.3,273.6,231.3,273.6,231.3,273.6z" id="el_My3XgUMX9JH"/>
											<path d="M232.9,274.2L232.9,274.2C232.9,274.3,232.9,274.3,232.9,274.2L232.9,274.2c0,0.5-0.2,0.8-0.4,1&#10;&#9;&#9;&#9;&#9;&#9;&#9;&#9;&#9;&#9;&#9;&#9;&#9;h-0.1l0,0c-0.1,0-0.1-0.1-0.2-0.2l0,0l0,0v-0.1v-0.1c0,0,0,0,0-0.1l0,0c0,0,0-0.1-0.1-0.1c0,0,0,0-0.1,0v-0.1l0,0&#10;&#9;&#9;&#9;&#9;&#9;&#9;&#9;&#9;&#9;&#9;&#9;&#9;c0,0,0,0,0-0.1c0,0,0,0,0.1-0.1l0,0l0,0l-0.1-0.1c0.2-0.1,0.3-0.3,0.5-0.4c0.1,0.1,0.1,0.1,0.2,0.2s0.1,0.1,0.1,0.2&#10;&#9;&#9;&#9;&#9;&#9;&#9;&#9;&#9;&#9;&#9;&#9;&#9;C232.8,274.1,232.8,274.1,232.9,274.2C232.8,274.2,232.9,274.2,232.9,274.2L232.9,274.2z" id="el_62RTEqUrDYF"/>
											<path d="M234.6,273.5c-0.2,0.2-0.4,0.4-0.7,0.6c-0.1,0.1-0.1,0.1-0.2,0c0-0.1-0.1-0.2-0.1-0.3l0,0h0.1l0,0&#10;&#9;&#9;&#9;&#9;&#9;&#9;&#9;&#9;&#9;&#9;&#9;&#9;c0,0,0-0.1,0-0.2s0.1-0.2,0.1-0.3c0.1-0.1,0.2-0.3,0.3-0.3c0.1,0.1,0.2,0.1,0.2,0.1c0.1,0,0.1,0,0.1,0.1&#10;&#9;&#9;&#9;&#9;&#9;&#9;&#9;&#9;&#9;&#9;&#9;&#9;C234.6,273.3,234.6,273.4,234.6,273.5z" id="el_hXWUAWHJiCL"/>
											<path d="M237.5,272.6c-0.1,0.2-0.3,0.3-0.4,0.5c-0.1,0.1-0.4,0.2-0.6,0.1c-0.3-0.1-0.7-0.1-1.1,0.1&#10;&#9;&#9;&#9;&#9;&#9;&#9;&#9;&#9;&#9;&#9;&#9;&#9;c-0.1,0-0.1,0-0.2,0.1h-0.1l0,0l0,0H235v-0.1l0,0l0,0c0-0.1,0-0.1,0.1-0.1c0.1-0.1,0.1-0.1,0.2-0.1l0,0&#10;&#9;&#9;&#9;&#9;&#9;&#9;&#9;&#9;&#9;&#9;&#9;&#9;c0.7-0.1,1.3-0.3,2-0.5C237.4,272.6,237.5,272.6,237.5,272.6z" id="el_BuIeUq2MEer"/>
											<path d="M229.7,273.4c0.1,0.1,0.2,0,0.2,0c0,0.1,0.1,0.2,0.1,0.3c0,0.1-0.1,0.2-0.1,0.2&#10;&#9;&#9;&#9;&#9;&#9;&#9;&#9;&#9;&#9;&#9;&#9;&#9;c-0.2,0.1-0.1,0.3-0.2,0.5c0,0.1,0,0.1,0,0.2c-0.1,0-0.1-0.1-0.1-0.1l0,0C229.6,274.1,229.6,273.7,229.7,273.4z" id="el_G26Kp4ESuFk"/>
											<path d="M234.7,273.3L234.7,273.3c-0.2-0.1-0.1-0.1-0.1-0.1l0,0C234.6,273.3,234.6,273.3,234.7,273.3z" id="el_wV5LM_aTOYB"/>
											<path d="M234.8,273.3C234.8,273.3,234.8,273.4,234.8,273.3h-0.1C234.8,273.3,234.8,273.3,234.8,273.3&#10;&#9;&#9;&#9;&#9;&#9;&#9;&#9;&#9;&#9;&#9;&#9;&#9;L234.8,273.3z" id="el_6I0kGeY-Tbc"/>
											<path d="M235,273C235,273.1,234.9,273.1,235,273c-0.2,0.2-0.2,0.2-0.3,0.2l0,0c0,0,0,0-0.1,0l0,0v-0.1&#10;&#9;&#9;&#9;&#9;&#9;&#9;&#9;&#9;&#9;&#9;&#9;&#9;c0.1-0.1,0.2-0.2,0.3-0.2S235,272.9,235,273z" id="el_sTQMnVfDPZl"/>
											<path d="M239,262.7c-0.1-0.2,0.1-0.2,0.2-0.2C239.1,262.6,239.1,262.6,239,262.7z" id="el_SF0r3SxRluk"/>
											<path d="M239.2,262.5C239.2,262.4,239.2,262.4,239.2,262.5L239.2,262.5z" id="el_m2UIo1YNFQg"/>
											<path d="M236.3,264.4C236.2,264.4,236.2,264.3,236.3,264.4c-0.2-0.1-0.1-0.2-0.1-0.2c0.1-0.1,0.1,0,0.1,0.1&#10;&#9;&#9;&#9;&#9;&#9;&#9;&#9;&#9;&#9;&#9;&#9;&#9;C236.3,264.2,236.3,264.3,236.3,264.4C236.3,264.3,236.3,264.4,236.3,264.4z" id="el_HA8tb5oUuvw"/>
											<path d="M231,272.1C231,272.1,231,272.2,231,272.1c0,0.1-0.1,0.1-0.1,0.1h-0.1l0,0c0,0,0,0-0.1,0h-0.1&#10;&#9;&#9;&#9;&#9;&#9;&#9;&#9;&#9;&#9;&#9;&#9;&#9;c0-0.1,0-0.2,0.1-0.2s0.2,0,0.2,0.1C230.9,272.1,230.9,272.1,231,272.1L231,272.1z" id="el_vpvbq2xtQgw"/>
											<path d="M231.5,272.7L231.5,272.7c-0.1,0-0.1,0.1-0.2,0l0,0c0-0.1,0-0.1,0-0.2c0.1-0.1,0.1,0,0.2,0.1V272.7&#10;&#9;&#9;&#9;&#9;&#9;&#9;&#9;&#9;&#9;&#9;&#9;&#9;L231.5,272.7z" id="el_ASMj0cQpoJR"/>
											<path d="M231.6,270.9h-0.2l0,0l0,0h-0.1l0,0l0,0l0,0h0.1H231.6z" id="el_slIvw22iwhA"/>
											<path d="M231.8,272.6L231.8,272.6L231.8,272.6L231.8,272.6L231.8,272.6z" id="el_BxuCFDlxZ0h"/>
											<path d="M237.8,272.4l-1.6-0.3c-0.1,0-0.2,0.1-0.2,0.1c-0.1,0.1-0.3,0.2-0.4,0.3l0,0c0,0,0.1-0.1,0.1,0&#10;&#9;&#9;&#9;&#9;&#9;&#9;&#9;&#9;&#9;&#9;&#9;&#9;s0.1,0.1,0,0.2s-0.2,0.1-0.3,0.1c-0.1,0-0.2,0.1-0.2,0c-0.1,0-0.1,0-0.1-0.1l-0.1-0.1c-0.1-0.1-0.1-0.2,0-0.3l0.1-0.1&#10;&#9;&#9;&#9;&#9;&#9;&#9;&#9;&#9;&#9;&#9;&#9;&#9;c0,0,0.1,0,0.1-0.1s0.1-0.1,0.2-0.2h-0.1c-0.6-0.1-1.2-0.3-1.8-0.4c-0.1,0-0.3,0-0.4-0.1H233c-0.1,0-0.1,0-0.2,0&#10;&#9;&#9;&#9;&#9;&#9;&#9;&#9;&#9;&#9;&#9;&#9;&#9;l-0.3-0.1c0.1,0.2,0.1,0.3,0.2,0.4c0,0.1,0.1,0.1,0,0.2l0,0c-0.1,0-0.2,0-0.3,0.1c0,0,0.1-0.1,0.1-0.2&#10;&#9;&#9;&#9;&#9;&#9;&#9;&#9;&#9;&#9;&#9;&#9;&#9;c0.1-0.1,0.1-0.2,0-0.2c-0.1-0.1-0.2-0.3-0.2-0.4l-0.7-0.2l0,0h-0.2l0,0l0,0h-0.1l0,0l0,0h-0.1l0,0c0,0,0,0-0.1,0l0,0&#10;&#9;&#9;&#9;&#9;&#9;&#9;&#9;&#9;&#9;&#9;&#9;&#9;c-0.1,0-0.1-0.1-0.2,0l-0.1-0.1c0-0.1,0.1,0,0.2,0c0,0,0.1,0,0.1,0.1v-0.1l-0.3-0.2c0,0.1,0,0.1-0.1,0.2&#10;&#9;&#9;&#9;&#9;&#9;&#9;&#9;&#9;&#9;&#9;&#9;&#9;c0,0.2-0.1,0.4-0.2,0.5c0.1,0.1,0,0.1,0,0.2c-0.1,0.3-0.2,0.7-0.3,1l0,0c0,0.1-0.1,0.2-0.1,0.3l0,0c0,0,0,0.1,0,0.2v0.1&#10;&#9;&#9;&#9;&#9;&#9;&#9;&#9;&#9;&#9;&#9;&#9;&#9;c0,0.1,0,0.1-0.1,0.1s-0.1-0.1-0.1-0.1c0,0.1,0,0.1,0,0.2c0.2,0,0.3,0.1,0.4,0.2s0.1,0.1,0.2,0c0,0,0-0.1,0.1-0.2&#10;&#9;&#9;&#9;&#9;&#9;&#9;&#9;&#9;&#9;&#9;&#9;&#9;c0,0,0,0-0.1,0s-0.1,0.1-0.2,0c0,0,0,0,0-0.1l0,0c0-0.1,0.1-0.2,0.1-0.2s0-0.1,0-0.2h0.1c0,0,0.1,0.1,0.2,0&#10;&#9;&#9;&#9;&#9;&#9;&#9;&#9;&#9;&#9;&#9;&#9;&#9;c0.1,0,0.2,0,0.2,0c0.1,0,0.2,0.1,0.3,0.1l0.1-0.1l0,0l0.1-0.1l0,0c0-0.1,0-0.1,0-0.2c0.1-0.1,0.1,0,0.2,0.1v0.2l0,0&#10;&#9;&#9;&#9;&#9;&#9;&#9;&#9;&#9;&#9;&#9;&#9;&#9;l0.1,0.1c0,0,0,0.1,0.1,0.1l-0.1,0.1l0,0l-0.1,0.1c0,0.1,0.1,0.1,0.2,0.1l0,0l0,0l0,0c0.1-0.1,0.2-0.2,0.3-0.1&#10;&#9;&#9;&#9;&#9;&#9;&#9;&#9;&#9;&#9;&#9;&#9;&#9;c0,0,0.1,0,0.2-0.1c0,0,0.1-0.1,0.1,0s0,0.1-0.1,0.1c0,0.1-0.1,0.1-0.1,0.1l0,0c-0.1,0.1,0,0.2,0.1,0.3h0.1&#10;&#9;&#9;&#9;&#9;&#9;&#9;&#9;&#9;&#9;&#9;&#9;&#9;c0.2-0.1,0.1,0.1,0.1,0.1h-0.1v0.1c0.3,0,0.6-0.1,0.9-0.1l-0.5,0.3c0.1,0.1,0.1,0.1,0.1,0.2l0.1,0.1l0,0c0,0,0,0,0,0.1&#10;&#9;&#9;&#9;&#9;&#9;&#9;&#9;&#9;&#9;&#9;&#9;&#9;l0,0l0,0l0,0c0,0.1,0,0.1,0.1,0.1c0.2-0.1,0.3-0.3,0.4-0.5c0.1-0.1,0.1-0.2,0.2-0.1l0,0c0,0,0,0,0.1,0l0,0&#10;&#9;&#9;&#9;&#9;&#9;&#9;&#9;&#9;&#9;&#9;&#9;&#9;c0,0,0-0.1,0-0.2s0.1-0.2,0.1-0.3c0.1-0.1,0.2-0.3,0.3-0.3c0.1,0.1,0.2,0.1,0.2,0.1l0,0c0,0,0.1,0.1,0.2,0.1l0,0v-0.1&#10;&#9;&#9;&#9;&#9;&#9;&#9;&#9;&#9;&#9;&#9;&#9;&#9;c0.1-0.1,0.2-0.2,0.3-0.2s0.1,0,0.1,0.1s-0.1,0.1-0.1,0.1c-0.1,0.1-0.1,0.2-0.2,0.1c0,0,0.1,0,0.1,0.1l0,0l0,0&#10;&#9;&#9;&#9;&#9;&#9;&#9;&#9;&#9;&#9;&#9;&#9;&#9;c0.1,0.1,0.1,0.2,0.1,0.3c0.1-0.1,0.1-0.1,0.2-0.2l0,0H235v-0.1l0,0l0,0c0-0.1,0-0.1,0.1-0.1H235c0,0,0,0,0,0.1&#10;&#9;&#9;&#9;&#9;&#9;&#9;&#9;&#9;&#9;&#9;&#9;&#9;c-0.1-0.1,0-0.2,0-0.2c0.1-0.1,0.2-0.2,0.3-0.2c0,0,0.1,0,0.1,0.1v0.1c0.7-0.1,1.3-0.3,2-0.5c0.1,0,0.2,0,0.2,0&#10;&#9;&#9;&#9;&#9;&#9;&#9;&#9;&#9;&#9;&#9;&#9;&#9;s0.1,0,0.2,0l0.4-0.1L237.8,272.4z M230.5,272.3L230.5,272.3c-0.1,0-0.1,0-0.1-0.1c0,0-0.1,0,0-0.1l0,0l0,0l0,0&#10;&#9;&#9;&#9;&#9;&#9;&#9;&#9;&#9;&#9;&#9;&#9;&#9;c0,0,0,0,0-0.1c0,0,0,0,0.1,0c0,0-0.1,0-0.1,0.1l0,0c0,0,0.1,0,0.1,0.1c0.1,0,0.1,0.1,0.1,0.1H230.5z M231,272.1&#10;&#9;&#9;&#9;&#9;&#9;&#9;&#9;&#9;&#9;&#9;&#9;&#9;C231,272.1,231,272.2,231,272.1c0,0.1-0.1,0.1-0.1,0.1h-0.1l0,0h-0.1c0,0,0,0-0.1,0l0,0l0,0c0-0.1,0-0.2,0.1-0.2&#10;&#9;&#9;&#9;&#9;&#9;&#9;&#9;&#9;&#9;&#9;&#9;&#9;s0.2,0,0.2,0.1C230.9,272.1,230.9,272.1,231,272.1L231,272.1C231,272,231,272,231,272.1C231.1,272,231.1,272.1,231,272.1&#10;&#9;&#9;&#9;&#9;&#9;&#9;&#9;&#9;&#9;&#9;&#9;&#9;z M233.1,272.5L233.1,272.5L233.1,272.5L233.1,272.5L233.1,272.5z M232.7,271.9L232.7,271.9c0,0.1,0,0.2-0.1,0.2&#10;&#9;&#9;&#9;&#9;&#9;&#9;&#9;&#9;&#9;&#9;&#9;&#9;C232.6,272,232.6,271.9,232.7,271.9L232.7,271.9z M232.6,272.3c-0.1,0.1-0.2,0-0.2,0H232.6z M232.4,272.5&#10;&#9;&#9;&#9;&#9;&#9;&#9;&#9;&#9;&#9;&#9;&#9;&#9;C232.4,272.6,232.4,272.6,232.4,272.5c-0.1,0.1-0.2,0.1-0.2,0l0,0v-0.1l0,0h0.1v0.1H232.4&#10;&#9;&#9;&#9;&#9;&#9;&#9;&#9;&#9;&#9;&#9;&#9;&#9;C232.4,272.4,232.4,272.4,232.4,272.5L232.4,272.5z M232.1,272.4L232.1,272.4c0,0.1,0,0.1,0,0.1l0,0V272.4z M231.7,272.6&#10;&#9;&#9;&#9;&#9;&#9;&#9;&#9;&#9;&#9;&#9;&#9;&#9;L231.7,272.6C231.8,272.6,231.8,272.6,231.7,272.6L231.7,272.6L231.7,272.6C231.8,272.6,231.8,272.6,231.7,272.6&#10;&#9;&#9;&#9;&#9;&#9;&#9;&#9;&#9;&#9;&#9;&#9;&#9;L231.7,272.6L231.7,272.6z M232.4,272.9L232.4,272.9c0,0,0.1,0,0.1,0.1L232.4,272.9z M236.2,272.4&#10;&#9;&#9;&#9;&#9;&#9;&#9;&#9;&#9;&#9;&#9;&#9;&#9;C236.2,272.5,236.1,272.5,236.2,272.4c-0.1,0.1-0.1,0.1-0.1,0.1l0,0l0,0l0,0c-0.2,0-0.2-0.1-0.1-0.1l0.1-0.1&#10;&#9;&#9;&#9;&#9;&#9;&#9;&#9;&#9;&#9;&#9;&#9;&#9;c0,0,0,0,0.1,0c0.1-0.1,0.1-0.1,0.1,0S236.2,272.4,236.2,272.4z" id="el_6n4tbkef_BW"/>
											<path d="M232.3,272.6c0,0-0.1,0-0.1-0.1l0,0c0.1,0,0.1,0,0.1,0C232.4,272.5,232.4,272.5,232.3,272.6&#10;&#9;&#9;&#9;&#9;&#9;&#9;&#9;&#9;&#9;&#9;&#9;&#9;C232.4,272.6,232.4,272.6,232.3,272.6z" id="el_PD-W3nqKgZx"/>
											<path d="M232.4,272.9c0.1,0,0.1,0,0.1,0.1L232.4,272.9L232.4,272.9z" id="el_Dbt8zkUw9N5"/>
											<path d="M232.7,271.9L232.7,271.9c0,0.1,0,0.2-0.1,0.2C232.6,272,232.6,271.9,232.7,271.9L232.7,271.9z" id="el_XDKnctBjJas"/>
											<path d="M233.1,272.5L233.1,272.5L233.1,272.5z" id="el_3632pZfiwNp"/>
											<path d="M232.4,273.5C232.4,273.5,232.3,273.5,232.4,273.5c-0.3,0-0.4,0.1-0.5,0.1s-0.2,0-0.2,0.1&#10;&#9;&#9;&#9;&#9;&#9;&#9;&#9;&#9;&#9;&#9;&#9;&#9;c0,0,0,0.1,0.1,0.1c-0.1,0-0.1,0-0.1,0.1c-0.1,0-0.1,0-0.1-0.1c0,0,0,0,0-0.1l-0.1-0.1c-0.1-0.1-0.2-0.2-0.2-0.4v-0.1&#10;&#9;&#9;&#9;&#9;&#9;&#9;&#9;&#9;&#9;&#9;&#9;&#9;c-0.2-0.1-0.1-0.3-0.1-0.4l0,0l0.1-0.1c0.1,0,0.1,0,0.2,0l0,0l0.1,0.1c0,0,0,0.1,0.1,0.1l-0.1,0.1h-0.1v0.1&#10;&#9;&#9;&#9;&#9;&#9;&#9;&#9;&#9;&#9;&#9;&#9;&#9;c0,0.1,0.1,0.1,0.2,0.1l0,0l0,0l0,0c0.1-0.1,0.2-0.2,0.3-0.1c0,0,0.1,0,0.2-0.1c0,0,0.1-0.1,0.1,0s0,0.1-0.1,0.1&#10;&#9;&#9;&#9;&#9;&#9;&#9;&#9;&#9;&#9;&#9;&#9;&#9;s-0.1,0.1-0.1,0.1c-0.1,0.1,0,0.2,0.1,0.3h0.1C232.5,273.3,232.4,273.5,232.4,273.5z" id="el_ZKQGpWMeHbX"/>
											<path d="M233.2,273.5l-0.5,0.3h-0.1c-0.2,0.1-0.4,0.2-0.5,0.3l0,0l0,0c0,0,0,0-0.1,0c0,0,0,0-0.1,0l0,0&#10;&#9;&#9;&#9;&#9;&#9;&#9;&#9;&#9;&#9;&#9;&#9;&#9;c-0.1,0.1-0.1,0-0.1-0.1v-0.1l-0.1-0.2l0,0c0-0.1,0-0.1,0.1-0.2c0,0,0,0,0.1,0c0.2,0,0.4-0.1,0.5-0.1&#10;&#9;&#9;&#9;&#9;&#9;&#9;&#9;&#9;&#9;&#9;&#9;&#9;C232.6,273.6,232.9,273.5,233.2,273.5z" id="el_GI7Jz9nX--6"/>
											<path d="M232.7,271.2L232.7,271.2h-0.1l-0.3-0.1l-0.7-0.2h-0.2c-0.1,0-0.1,0-0.2-0.1l0,0h-0.1v-0.1h0.2&#10;&#9;&#9;&#9;&#9;&#9;&#9;&#9;&#9;&#9;&#9;&#9;&#9;c0.4,0.1,0.8,0.3,1.2,0.4l0,0l0,0l0,0C232.6,271.1,232.6,271.1,232.7,271.2C232.6,271.1,232.6,271.1,232.7,271.2&#10;&#9;&#9;&#9;&#9;&#9;&#9;&#9;&#9;&#9;&#9;&#9;&#9;L232.7,271.2L232.7,271.2L232.7,271.2z" id="el_6OmH7rsPhvl"/>
											<path d="M230,272.7L230,272.7c0,0,0,0.1,0,0.2v0.1c0,0,0,0-0.1,0.1c-0.1,0-0.1-0.1-0.1-0.1s0,0,0-0.1&#10;&#9;&#9;&#9;&#9;&#9;&#9;&#9;&#9;&#9;&#9;&#9;&#9;c0,0,0,0,0-0.1c0,0,0,0,0-0.1s0-0.1,0.1-0.2c0-0.1,0.1-0.1,0.2-0.1C230.1,272.5,230,272.6,230,272.7z" id="el_ODnImtxlLWX"/>
											<path d="M230.4,272.1L230.4,272.1L230.4,272.1L230.4,272.1L230.4,272.1&#10;&#9;&#9;&#9;&#9;&#9;&#9;&#9;&#9;&#9;&#9;&#9;&#9;C230.4,272.2,230.4,272.2,230.4,272.1C230.4,272.2,230.4,272.2,230.4,272.1z" id="el_TdSxzWRdymz"/>
											<path d="M230.9,272.2h-0.1l0,0h-0.1l0,0l0,0C230.8,272.1,230.8,272.1,230.9,272.2z" id="el_e1As2ozATaj"/>
											<path d="M236.2,272.4C236.2,272.4,236.1,272.5,236.2,272.4c-0.1,0.1-0.1,0.1-0.1,0.1l0,0l0,0l0,0&#10;&#9;&#9;&#9;&#9;&#9;&#9;&#9;&#9;&#9;&#9;&#9;&#9;c-0.1,0-0.1-0.1-0.1-0.1l0.1-0.1c0,0,0,0,0.1,0h0.1C236.3,272.4,236.2,272.4,236.2,272.4z" id="el_Sn9rOAzoSI_"/>
											<path d="M230.4,272.1L230.4,272.1L230.4,272.1L230.4,272.1L230.4,272.1L230.4,272.1&#10;&#9;&#9;&#9;&#9;&#9;&#9;&#9;&#9;&#9;&#9;&#9;&#9;C230.4,272.1,230.4,272,230.4,272.1C230.4,272,230.4,272,230.4,272.1C230.5,272,230.4,272.1,230.4,272.1z" id="el_kPIkMshrchM"/>
											<path d="M231.8,272.6L231.8,272.6L231.8,272.6L231.8,272.6L231.8,272.6&#10;&#9;&#9;&#9;&#9;&#9;&#9;&#9;&#9;&#9;&#9;&#9;&#9;C231.7,272.6,231.7,272.6,231.8,272.6C231.7,272.6,231.7,272.6,231.8,272.6L231.8,272.6z" id="el_wlWBxDwbK7c"/>
											<path d="M232.6,271.1c0.1-0.1,0.2-0.1,0.2,0C232.7,271.2,232.6,271.2,232.6,271.1z" id="el_ikLgmBCAxkc"/>
											<path d="M237,264.5C237,264.6,237,264.6,237,264.5C237,264.6,237,264.5,237,264.5z" id="el_JAvwcMr2uZO"/>
											<path d="M230.5,272C230.5,272,230.4,272.1,230.5,272c-0.1,0.1-0.1,0.1-0.1,0.1l0,0l0,0&#10;&#9;&#9;&#9;&#9;&#9;&#9;&#9;&#9;&#9;&#9;&#9;&#9;C230.4,272.1,230.4,272,230.5,272C230.4,272,230.4,272,230.5,272z" id="el_Th3p74KQh2T"/>
											<path d="M230.5,272.3L230.5,272.3c-0.1,0-0.1,0-0.1-0.1L230.5,272.3z" id="el_p82v-Qk1fut"/>
											<path d="M230.6,270.7c0,0.2-0.1,0.4-0.2,0.5C230.5,271,230.6,270.9,230.6,270.7z" id="el_PbWMx5_11_s"/>
											<path d="M231,272.1C231,272.1,231,272.2,231,272.1c0,0.1-0.1,0.1-0.1,0.1h-0.1l0,0h-0.1c0,0,0,0-0.1,0l0,0&#10;&#9;&#9;&#9;&#9;&#9;&#9;&#9;&#9;&#9;&#9;&#9;&#9;c0-0.1,0-0.2,0.1-0.2s0.2,0,0.2,0.1C230.9,272.1,230.9,272.1,231,272.1L231,272.1z" id="el_tPq7E8DKuo-"/>
											<path d="M231,270.8C231.1,270.8,231,270.8,231,270.8c-0.1,0-0.1-0.1-0.2,0l-0.1-0.1c0-0.1,0.1,0,0.2,0&#10;&#9;&#9;&#9;&#9;&#9;&#9;&#9;&#9;&#9;&#9;&#9;&#9;C230.9,270.7,231,270.7,231,270.8L231,270.8z" id="el_8kVSw4D15th"/>
											<path d="M231.6,270.9L231.6,270.9L231.6,270.9z" id="el_l644V7T5GW0"/>
											<path d="M230.7,269.5v0.1l0,0C230.6,269.6,230.6,269.6,230.7,269.5z" id="el_og16xUpbPlm"/>
											<path d="M230.5,273.2L230.5,273.2C230.5,273.2,230.4,273.2,230.5,273.2c-0.2,0-0.2,0.1-0.3,0c0,0,0,0,0-0.1&#10;&#9;&#9;&#9;&#9;&#9;&#9;&#9;&#9;&#9;&#9;&#9;&#9;l0,0C230.3,273.2,230.3,273.1,230.5,273.2C230.4,273.1,230.5,273.1,230.5,273.2z" id="el_OJTbmO_b5md"/>
											<path d="M229.9,272.8C229.9,272.9,229.9,272.9,229.9,272.8L229.9,272.8z" id="el_5uzmi83TZG9"/>
											<path d="M229.9,272.9L229.9,272.9C229.8,272.9,229.9,272.9,229.9,272.9z" id="el_suuiOwwRMwr"/>
											<path d="M229.9,273L229.9,273C229.8,273,229.8,273,229.9,273z" id="el_uv6Uqnn6uxS"/>
											<path d="M232,275.5c-0.1,0.1-0.2,0.1-0.3,0c-0.2,0-0.2-0.1-0.2-0.3c0-0.1,0-0.2,0-0.4&#10;&#9;&#9;&#9;&#9;&#9;&#9;&#9;&#9;&#9;&#9;&#9;&#9;c0-0.1-0.1-0.2,0.1-0.3c0.1-0.1,0.3-0.1,0.4,0c0.2,0.2,0.2,0.5,0.2,0.8C232.1,275.5,232,275.5,232,275.5z" id="el_F0x7r63ZxXV"/>
											<path d="M231.7,273.9l0.1,0.2C231.6,274.1,231.6,274,231.7,273.9z" id="el_owKcYBUrlUq"/>
											<path d="M231.8,272.6L231.8,272.6L231.8,272.6C231.7,272.6,231.7,272.6,231.8,272.6&#10;&#9;&#9;&#9;&#9;&#9;&#9;&#9;&#9;&#9;&#9;&#9;&#9;C231.7,272.6,231.7,272.6,231.8,272.6L231.8,272.6L231.8,272.6z" id="el_-0XZiUmdAP5"/>
											<path d="M232.3,272.4L232.3,272.4L232.3,272.4L232.3,272.4L232.3,272.4&#10;&#9;&#9;&#9;&#9;&#9;&#9;&#9;&#9;&#9;&#9;&#9;&#9;C232.3,272.3,232.3,272.4,232.3,272.4z" id="el_gSV1r5xPVwD"/>
											<path d="M232.1,272.4v0.1l0,0V272.4L232.1,272.4z" id="el_eXKaca6Y10X"/>
											<path d="M232.4,272.5C232.4,272.6,232.4,272.6,232.4,272.5c-0.1,0.1-0.2,0.1-0.2,0l0,0v-0.1l0,0h0.1v0.1&#10;&#9;&#9;&#9;&#9;&#9;&#9;&#9;&#9;&#9;&#9;&#9;&#9;l0,0C232.3,272.4,232.3,272.4,232.4,272.5L232.4,272.5z" id="el_vjmMSNngHJd"/>
											<path d="M231,270.8L231,270.8C231.1,270.8,231,270.8,231,270.8c-0.1,0-0.1-0.1-0.2,0l-0.1-0.1&#10;&#9;&#9;&#9;&#9;&#9;&#9;&#9;&#9;&#9;&#9;&#9;&#9;c0-0.1,0.1,0,0.2,0C230.9,270.7,231,270.7,231,270.8z" id="el_UeXb0Rb4qsU"/>
											<path d="M231.3,270.8L231.3,270.8C231.3,270.8,231.2,270.8,231.3,270.8&#10;&#9;&#9;&#9;&#9;&#9;&#9;&#9;&#9;&#9;&#9;&#9;&#9;C231.2,270.8,231.2,270.8,231.3,270.8L231.3,270.8C231.2,270.8,231.2,270.8,231.3,270.8c-0.1,0-0.2,0-0.2,0l0,0&#10;&#9;&#9;&#9;&#9;&#9;&#9;&#9;&#9;&#9;&#9;&#9;&#9;C231.2,270.8,231.2,270.8,231.3,270.8z" id="el_xbcfOX7x3V6"/>
											<path d="M231,270.8L231,270.8L231,270.8z" id="el_S2CYfwdDxs_"/>
											<path d="M223.4,264.8c0,0-0.1,0.1-0.1,0.2s-0.1,0.1-0.2,0.1c-0.2,0.1-0.3,0.2-0.5,0.3&#10;&#9;&#9;&#9;&#9;&#9;&#9;&#9;&#9;&#9;&#9;&#9;&#9;c-0.2,0.1-0.3,0.2-0.4,0.3c-0.1,0.1-0.3,0.1-0.4,0.3h-0.1c-0.1,0.1-0.3,0.1-0.4,0.2c-0.3,0.3-0.7,0.5-1.1,0.7&#10;&#9;&#9;&#9;&#9;&#9;&#9;&#9;&#9;&#9;&#9;&#9;&#9;c-0.2,0.1-0.5,0.3-0.7,0.4c-0.4,0.3-0.9,0.5-1.3,0.8c-0.4,0.3-0.8,0.6-1.2,0.8c-0.2,0.1-0.3,0.2-0.4,0.3l-0.3,0.1&#10;&#9;&#9;&#9;&#9;&#9;&#9;&#9;&#9;&#9;&#9;&#9;&#9;c-0.2,0.1-0.3,0.2-0.5,0.3c-0.4,0.2-0.8,0.5-1.2,0.7c-0.1,0-0.2,0.2-0.3,0.2c-0.3,0.2-0.6,0.4-0.9,0.6&#10;&#9;&#9;&#9;&#9;&#9;&#9;&#9;&#9;&#9;&#9;&#9;&#9;c-0.5,0.3-0.9,0.6-1.3,0.9c-0.5,0.3-0.9,0.6-1.4,0.9c-0.2,0.1-0.3,0.2-0.4,0.3l-0.2,0.1c-0.3,0.2-0.6,0.4-1,0.6&#10;&#9;&#9;&#9;&#9;&#9;&#9;&#9;&#9;&#9;&#9;&#9;&#9;c-0.1,0.1-0.2,0.1-0.3,0.2c-0.5,0.3-1,0.7-1.5,1c-0.6,0.4-1.3,0.8-1.9,1.2c-0.5,0.3-1,0.6-1.5,0.9&#10;&#9;&#9;&#9;&#9;&#9;&#9;&#9;&#9;&#9;&#9;&#9;&#9;c-0.2,0.1-0.4,0.2-0.6,0.3c-0.3,0.2-0.6,0.4-1,0.6l0.2-0.2c0.4-0.2,0.8-0.5,1.2-0.7c0.3-0.2,0.6-0.4,0.9-0.6&#10;&#9;&#9;&#9;&#9;&#9;&#9;&#9;&#9;&#9;&#9;&#9;&#9;c0.3-0.2,0.6-0.4,1-0.6c0.3-0.2,0.6-0.4,0.9-0.6c0.3-0.2,0.7-0.4,1-0.6c0.2-0.1,0.4-0.2,0.6-0.4c0.3-0.2,0.7-0.4,1-0.6&#10;&#9;&#9;&#9;&#9;&#9;&#9;&#9;&#9;&#9;&#9;&#9;&#9;s0.6-0.4,0.9-0.6c0.5-0.3,0.9-0.6,1.4-0.9c0.3-0.2,0.6-0.4,0.9-0.6c0.5-0.3,1-0.6,1.4-0.9c0.3-0.2,0.6-0.4,0.9-0.6&#10;&#9;&#9;&#9;&#9;&#9;&#9;&#9;&#9;&#9;&#9;&#9;&#9;c0.4-0.2,0.7-0.5,1.1-0.7c0.3-0.2,0.6-0.4,0.9-0.6c0.3-0.2,0.6-0.4,1-0.6c0.3-0.2,0.6-0.4,0.9-0.6c0.5-0.3,1-0.6,1.4-0.9&#10;&#9;&#9;&#9;&#9;&#9;&#9;&#9;&#9;&#9;&#9;&#9;&#9;c0.3-0.2,0.6-0.4,0.9-0.6c0.3-0.2,0.7-0.5,1-0.7s0.6-0.4,0.9-0.6c0.3-0.2,0.7-0.4,1-0.7c0.1,0,0.2-0.1,0.3-0.1&#10;&#9;&#9;&#9;&#9;&#9;&#9;&#9;&#9;&#9;&#9;&#9;&#9;c-0.1,0.1-0.2,0.2-0.4,0.3C223.5,264.5,223.4,264.6,223.4,264.8L223.4,264.8z" id="el_U6L0C8PnORY"/>
											<path d="M229.4,265L229.4,265c-0.1,0.3-0.2,0.3-0.3,0.3v-0.2h0.1C229.3,265,229.3,264.9,229.4,265&#10;&#9;&#9;&#9;&#9;&#9;&#9;&#9;&#9;&#9;&#9;&#9;&#9;C229.4,264.9,229.4,265,229.4,265c0.2-0.1,0.2-0.2,0.2-0.4c0-0.1,0-0.2-0.1-0.3c-0.1-0.1-0.1-0.2,0.1-0.3l-0.1-0.1&#10;&#9;&#9;&#9;&#9;&#9;&#9;&#9;&#9;&#9;&#9;&#9;&#9;c-0.1,0-0.1,0-0.2,0.1c-0.2,0.1-0.2,0.1-0.2-0.1s-0.1-0.3-0.3-0.2l0.1,0.1c0,0,0.1,0,0.1,0.1c-0.1,0.1-0.2,0.2-0.3,0&#10;&#9;&#9;&#9;&#9;&#9;&#9;&#9;&#9;&#9;&#9;&#9;&#9;h-0.1v0.1c0.1,0.1,0,0.2,0.1,0.3c-0.1,0.1-0.2,0.1-0.3,0.3c0,0.1-0.1,0-0.1-0.1s-0.1-0.1-0.2,0s-0.2,0.1-0.3,0&#10;&#9;&#9;&#9;&#9;&#9;&#9;&#9;&#9;&#9;&#9;&#9;&#9;c-0.1,0-0.2,0-0.3,0.1l-0.1,0.1c-0.1,0-0.1,0.1-0.2,0c0-0.1,0-0.1,0.1-0.1c0.1-0.2,0.1-0.4,0-0.6l-0.1,0.1&#10;&#9;&#9;&#9;&#9;&#9;&#9;&#9;&#9;&#9;&#9;&#9;&#9;c0.1,0.3,0.1,0.3-0.2,0.5c-0.3,0.2-0.7,0.4-1.1,0.5c-0.1,0-0.2,0.1-0.3,0c0.1-0.2,0.4-0.3,0.5-0.4l0.1-0.1&#10;&#9;&#9;&#9;&#9;&#9;&#9;&#9;&#9;&#9;&#9;&#9;&#9;c0-0.2-0.1-0.3,0-0.5c0,0,0,0,0-0.1s-0.1-0.1,0-0.2c0.1,0,0.2-0.2,0.3-0.1c0.1,0,0.1,0.1,0.2,0c0-0.1-0.1-0.1-0.1-0.2&#10;&#9;&#9;&#9;&#9;&#9;&#9;&#9;&#9;&#9;&#9;&#9;&#9;c0,0,0,0-0.1,0v-0.1c-0.3,0-0.5,0-0.8,0.1c-0.1,0.1-0.2,0.1-0.3,0c-0.1,0-0.2,0.1-0.3,0.1c-0.2,0.2-0.4,0.3-0.6,0.4&#10;&#9;&#9;&#9;&#9;&#9;&#9;&#9;&#9;&#9;&#9;&#9;&#9;s-0.4,0.3-0.6,0.4c-0.1,0.2-0.2,0.3-0.4,0.4h-0.1c0,0.1,0,0.2-0.1,0.2l0,0c0,0.2-0.1,0.3-0.3,0.4&#10;&#9;&#9;&#9;&#9;&#9;&#9;&#9;&#9;&#9;&#9;&#9;&#9;c-0.2,0.1-0.3,0.2-0.5,0.3c-0.2,0.1-0.3,0.2-0.4,0.3c0.1,0.2,0.1,0.2-0.1,0.2c-0.1,0-0.1,0-0.1,0.1s-0.1,0.1-0.2,0h-0.1&#10;&#9;&#9;&#9;&#9;&#9;&#9;&#9;&#9;&#9;&#9;&#9;&#9;c-0.1,0.1-0.3,0.1-0.4,0.2c-0.3,0.3-0.7,0.5-1.1,0.7c-0.2,0.1-0.5,0.3-0.7,0.4c-0.4,0.3-0.9,0.5-1.3,0.8&#10;&#9;&#9;&#9;&#9;&#9;&#9;&#9;&#9;&#9;&#9;&#9;&#9;c-0.4,0.3-0.8,0.6-1.2,0.8c-0.2,0.1-0.3,0.2-0.4,0.3c0.2,0.3,0.1,0.5-0.3,0.6c0.1-0.1,0.1-0.3,0-0.4&#10;&#9;&#9;&#9;&#9;&#9;&#9;&#9;&#9;&#9;&#9;&#9;&#9;c-0.2,0.1-0.3,0.2-0.5,0.3c-0.4,0.2-0.8,0.5-1.2,0.7c0,0.1,0.1,0.1,0.2,0.1c0.2-0.1,0.2-0.1,0.2,0.1c0,0,0,0.1,0.1,0.1&#10;&#9;&#9;&#9;&#9;&#9;&#9;&#9;&#9;&#9;&#9;&#9;&#9;c0.2,0.1,0.1,0.1,0,0.2c0.1,0.1,0.1,0.3,0,0.4c-0.1,0-0.1,0.2-0.2,0.1c-0.1-0.1-0.3-0.1-0.3-0.2l-0.1-0.2&#10;&#9;&#9;&#9;&#9;&#9;&#9;&#9;&#9;&#9;&#9;&#9;&#9;c-0.1,0.1-0.1,0.2-0.1,0.2c-0.1-0.1,0-0.2,0.1-0.2c-0.1-0.1,0.1-0.2,0-0.3c0-0.1-0.2,0-0.2-0.1c-0.3,0.2-0.6,0.4-0.9,0.6&#10;&#9;&#9;&#9;&#9;&#9;&#9;&#9;&#9;&#9;&#9;&#9;&#9;c-0.5,0.3-0.9,0.6-1.3,0.9c-0.5,0.3-0.9,0.6-1.4,0.9c-0.2,0.1-0.3,0.2-0.4,0.3c0,0,0,0,0.1,0c0,0.1-0.1,0.1-0.1,0&#10;&#9;&#9;&#9;&#9;&#9;&#9;&#9;&#9;&#9;&#9;&#9;&#9;l-0.2,0.1c-0.3,0.2-0.6,0.4-1,0.6c-0.1,0.1-0.2,0.1-0.3,0.2c-0.5,0.3-1,0.7-1.5,1c-0.6,0.4-1.3,0.8-1.9,1.2l-1.5,0.9&#10;&#9;&#9;&#9;&#9;&#9;&#9;&#9;&#9;&#9;&#9;&#9;&#9;c-0.2,0.1-0.4,0.2-0.6,0.3c-0.3,0.2-0.6,0.4-1,0.6l0.4,0.8c0.1,0,0.1,0,0.1,0c0,0.1,0,0.1-0.1,0.1v0.1&#10;&#9;&#9;&#9;&#9;&#9;&#9;&#9;&#9;&#9;&#9;&#9;&#9;c0.1,0,0.2,0.1,0.2,0.1h0.1c-0.1,0.1-0.2,0.2-0.3,0.3l0.4,0.7c0.2-0.2,0.4-0.4,0.7-0.6c0.2-0.1,0.3-0.1,0.4,0.1&#10;&#9;&#9;&#9;&#9;&#9;&#9;&#9;&#9;&#9;&#9;&#9;&#9;c0,0.1,0,0.2,0,0.2c-0.1,0.1-0.3,0.2-0.5,0.3c-0.1,0.1-0.2,0.2-0.4,0.2l0.2,0.3l2.8,5.3c0.1,0,0.1-0.1,0.1-0.2&#10;&#9;&#9;&#9;&#9;&#9;&#9;&#9;&#9;&#9;&#9;&#9;&#9;s0.1-0.1,0.1-0.1c0.2,0,0.3-0.1,0.4-0.2c0,0,0-0.1,0.1-0.1c0.2,0,0.3-0.1,0.4-0.2c0.1-0.1,0.2-0.1,0.1-0.3v-0.1&#10;&#9;&#9;&#9;&#9;&#9;&#9;&#9;&#9;&#9;&#9;&#9;&#9;c0.1,0.1,0.2,0.1,0.2,0.1s0.1,0,0.2-0.1c0,0,0.1,0,0.1-0.1c0.1,0,0.1-0.2,0.1-0.3c0,0,0-0.1-0.1-0.1s-0.1-0.1-0.2-0.1&#10;&#9;&#9;&#9;&#9;&#9;&#9;&#9;&#9;&#9;&#9;&#9;&#9;c0.1-0.1,0.2-0.1,0.3,0s0.1,0.1,0.2,0.1s0.1,0,0.2-0.1c0.1,0,0.1-0.1,0.1-0.1c0.1-0.1,0.1-0.1,0.2-0.2&#10;&#9;&#9;&#9;&#9;&#9;&#9;&#9;&#9;&#9;&#9;&#9;&#9;c0.3-0.2,0.5-0.4,0.8-0.6c0.2-0.1,0.4-0.3,0.6-0.4c0.3-0.3,0.7-0.5,1-0.8c0.2-0.1,0.3-0.2,0.4-0.3l0.1-0.1&#10;&#9;&#9;&#9;&#9;&#9;&#9;&#9;&#9;&#9;&#9;&#9;&#9;c0.1-0.1,0.2-0.1,0.3-0.2c0.1,0,0.1-0.1,0.2-0.1c0.1,0,0.2-0.2,0.3-0.2c0.4-0.3,0.9-0.6,1.3-0.9c0.3-0.2,0.5-0.3,0.7-0.6&#10;&#9;&#9;&#9;&#9;&#9;&#9;&#9;&#9;&#9;&#9;&#9;&#9;c0.1,0,0.2-0.1,0.2-0.2c0.1-0.1,0.2-0.1,0.3-0.2c0.3-0.3,0.7-0.5,1-0.8c0.3-0.2,0.5-0.4,0.8-0.6c0.2-0.2,0.5-0.4,0.7-0.5&#10;&#9;&#9;&#9;&#9;&#9;&#9;&#9;&#9;&#9;&#9;&#9;&#9;l0.1-0.1c0.1-0.1,0.2-0.2,0.4-0.3c0.2-0.1,0.4-0.2,0.6-0.4c0.1,0,0.1-0.1,0.2-0.1c0.3-0.2,0.6-0.5,1-0.7&#10;&#9;&#9;&#9;&#9;&#9;&#9;&#9;&#9;&#9;&#9;&#9;&#9;c0.2-0.1,0.4-0.3,0.6-0.4c0.5-0.4,1.1-0.8,1.6-1.2c0.6-0.4,1.2-0.8,1.7-1.3c0.4-0.3,0.9-0.6,1.3-1&#10;&#9;&#9;&#9;&#9;&#9;&#9;&#9;&#9;&#9;&#9;&#9;&#9;c0.2-0.2,0.5-0.3,0.7-0.5s0.4-0.4,0.7-0.5c0.4,0.3,0.8,0.5,1.3,0.8c0.3,0.1,0.6,0.3,0.9,0.5c0-0.1,0-0.1,0.1-0.2&#10;&#9;&#9;&#9;&#9;&#9;&#9;&#9;&#9;&#9;&#9;&#9;&#9;c0,0,0,0,0-0.1c0,0,0,0,0-0.1v-0.1c0-0.1,0-0.1,0.1-0.2c0.1-0.4,0.3-0.9,0.4-1.3c0-0.1,0.1-0.1,0-0.2&#10;&#9;&#9;&#9;&#9;&#9;&#9;&#9;&#9;&#9;&#9;&#9;&#9;c-0.1,0-0.2,0-0.2-0.1s0-0.2-0.1-0.3c-0.1-0.1-0.2-0.2-0.1-0.3c0,0,0-0.1-0.1-0.1c0-0.2,0.1-0.3,0.3-0.4&#10;&#9;&#9;&#9;&#9;&#9;&#9;&#9;&#9;&#9;&#9;&#9;&#9;c0.1,0,0.1-0.1,0.1-0.2c0-0.2,0.1-0.3,0.3-0.4c0.1,0,0,0,0-0.1c-0.1-0.2,0-0.2,0.2-0.2c0.1-0.1,0-0.2,0.1-0.3v-0.1&#10;&#9;&#9;&#9;&#9;&#9;&#9;&#9;&#9;&#9;&#9;&#9;&#9;c-0.1-0.1,0-0.2,0.1-0.2c0.1-0.1,0.2-0.3,0.2-0.5s0.1-0.4,0.1-0.7C229.8,266,229.6,265.6,229.4,265z M203.2,279.5&#10;&#9;&#9;&#9;&#9;&#9;&#9;&#9;&#9;&#9;&#9;&#9;&#9;C203.1,279.6,203.1,279.6,203.2,279.5c-0.1,0-0.1,0.1-0.2,0.1c0,0,0,0-0.1,0.1c0,0,0,0,0-0.1s0-0.1,0-0.2&#10;&#9;&#9;&#9;&#9;&#9;&#9;&#9;&#9;&#9;&#9;&#9;&#9;c0,0,0-0.1,0.1-0.1s0.1,0,0.1,0.1C203.1,279.4,203.1,279.5,203.2,279.5L203.2,279.5L203.2,279.5z M204.3,278.8&#10;&#9;&#9;&#9;&#9;&#9;&#9;&#9;&#9;&#9;&#9;&#9;&#9;c0,0-0.1,0-0.1,0.1c0,0.2,0,0.2-0.1,0.2c0,0,0.1,0.1,0,0.1H204c-0.1-0.1-0.1-0.1-0.2-0.1l0,0c-0.1,0-0.2,0.2-0.4,0.2&#10;&#9;&#9;&#9;&#9;&#9;&#9;&#9;&#9;&#9;&#9;&#9;&#9;l0.1-0.1c0.1-0.1,0.2-0.1,0.3-0.1l0.2-0.1c0.1,0,0.1,0,0.1,0l0,0v-0.1C204.2,278.8,204.2,278.7,204.3,278.8&#10;&#9;&#9;&#9;&#9;&#9;&#9;&#9;&#9;&#9;&#9;&#9;&#9;C204.3,278.7,204.3,278.8,204.3,278.8L204.3,278.8z M207.3,276.9c-0.3,0.2-0.6,0.4-0.9,0.6c-0.1,0.1-0.2,0.1-0.2,0.2&#10;&#9;&#9;&#9;&#9;&#9;&#9;&#9;&#9;&#9;&#9;&#9;&#9;s0,0.2,0.1,0.2s0.1,0.1,0,0.1l-0.1,0.1c0.1,0,0.2,0,0.2-0.1c0.1-0.1,0.2-0.1,0.3-0.2c0.1,0,0.1,0,0.1,0.1&#10;&#9;&#9;&#9;&#9;&#9;&#9;&#9;&#9;&#9;&#9;&#9;&#9;c-0.1,0.1-0.1,0.2-0.2,0.2c0,0,0,0-0.1,0c0,0.3-0.3,0.3-0.5,0.3c-0.1,0-0.1,0.2-0.1,0.3c0,0.1,0,0.1-0.1,0.1&#10;&#9;&#9;&#9;&#9;&#9;&#9;&#9;&#9;&#9;&#9;&#9;&#9;c-0.1-0.1-0.2-0.2-0.1-0.3c0,0,0-0.1,0.1-0.1c0.1-0.1,0-0.2,0-0.3c-0.3,0.2-0.7,0.4-1,0.6c-0.1,0.1-0.2,0.1-0.4,0.1&#10;&#9;&#9;&#9;&#9;&#9;&#9;&#9;&#9;&#9;&#9;&#9;&#9;c0.2-0.1,0.3-0.2,0.5-0.3c0.2-0.1,0.3-0.3,0.5-0.3c-0.1-0.1,0-0.2,0.2-0.3c0.2-0.1,0.3-0.2,0.4-0.4l0.1-0.1&#10;&#9;&#9;&#9;&#9;&#9;&#9;&#9;&#9;&#9;&#9;&#9;&#9;c0.2,0,0.4-0.2,0.5-0.3c0,0,0-0.1,0.1-0.1C206.9,277,207,276.9,207.3,276.9C207.3,276.8,207.3,276.8,207.3,276.9&#10;&#9;&#9;&#9;&#9;&#9;&#9;&#9;&#9;&#9;&#9;&#9;&#9;C207.4,276.9,207.4,276.9,207.3,276.9z M209.5,274.5c0.2-0.1,0.3-0.3,0.5-0.3C209.8,274.3,209.7,274.4,209.5,274.5z&#10;&#9;&#9;&#9;&#9;&#9;&#9;&#9;&#9;&#9;&#9;&#9;&#9; M210.4,273.7l0.1-0.1L210.4,273.7z M210.5,273.6c0.1-0.1,0.1-0.1,0.2-0.1C210.6,273.5,210.6,273.6,210.5,273.6z&#10;&#9;&#9;&#9;&#9;&#9;&#9;&#9;&#9;&#9;&#9;&#9;&#9; M214.4,272.3c0,0-0.1,0-0.1-0.1C214.4,272.2,214.4,272.2,214.4,272.3C214.4,272.2,214.4,272.3,214.4,272.3z&#10;&#9;&#9;&#9;&#9;&#9;&#9;&#9;&#9;&#9;&#9;&#9;&#9; M225.1,265.5c0,0-0.1,0-0.2-0.1C225.1,265.4,225.2,265.4,225.1,265.5C225.2,265.5,225.2,265.5,225.1,265.5z&#10;&#9;&#9;&#9;&#9;&#9;&#9;&#9;&#9;&#9;&#9;&#9;&#9; M225.3,265.4c0-0.1,0.1-0.2,0.2-0.2C225.4,265.2,225.4,265.3,225.3,265.4z" id="el_NQ2f_jd1Dp_"/>
											<path d="M203.2,279.5L203.2,279.5c-0.1,0.1-0.1,0.1-0.1,0.1C203.2,279.5,203.2,279.5,203.2,279.5z" id="el_UIQx4Vufz2N"/>
											<path d="M204.1,279.2H204c-0.1-0.1-0.1-0.1-0.2-0.1l0.2-0.1c0.1,0,0.1,0,0.1,0&#10;&#9;&#9;&#9;&#9;&#9;&#9;&#9;&#9;&#9;&#9;&#9;&#9;C204.1,279.1,204.2,279.1,204.1,279.2z" id="el_RbozTiAmUPL"/>
											<path d="M210.3,273.7c0,0.1-0.1,0.1-0.1,0C210.2,273.7,210.2,273.7,210.3,273.7z" id="el_C31mQ-6Lvlu"/>
											<path d="M210.5,273.6c0,0-0.1,0-0.1,0.1C210.4,273.6,210.4,273.6,210.5,273.6z" id="el_Cw6pPerB6Fs"/>
											<path d="M210.7,273.5c0,0,0.1,0,0.1,0.1C210.8,273.6,210.7,273.5,210.7,273.5z" id="el_eq0GnYgQ-8b"/>
											<path d="M214.4,271.4c-0.1,0.1-0.1,0.2-0.1,0.2C214.2,271.5,214.3,271.5,214.4,271.4z" id="el_yntoBoM_-cV"/>
											<path d="M214.5,272.2L214.5,272.2L214.5,272.2z" id="el_8353IAyZFQd"/>
											<path d="M214.5,272.2C214.4,272.2,214.4,272.3,214.5,272.2c-0.1,0-0.1,0-0.2,0&#10;&#9;&#9;&#9;&#9;&#9;&#9;&#9;&#9;&#9;&#9;&#9;&#9;C214.4,272.2,214.4,272.2,214.5,272.2z" id="el_X8kjNU0XDNs"/>
											<path d="M223.4,264.8c0,0.1,0,0.2-0.1,0.2C223.3,264.9,223.3,264.9,223.4,264.8z" id="el_cMhWryjWwRS"/>
											<path d="M225.2,265.4C225.2,265.5,225.2,265.5,225.2,265.4c-0.1,0-0.2,0-0.2,0&#10;&#9;&#9;&#9;&#9;&#9;&#9;&#9;&#9;&#9;&#9;&#9;&#9;C225.1,265.4,225.2,265.4,225.2,265.4z" id="el_vnudd8DAfjW"/>
											<path d="M225.5,265.2c-0.1,0.1-0.1,0.1-0.2,0.2C225.3,265.3,225.4,265.2,225.5,265.2z" id="el_ikATNg1xXCb"/>
											<path d="M229.4,265L229.4,265c-0.1,0.3-0.2,0.3-0.3,0.3v-0.2h0.1C229.3,265,229.3,264.9,229.4,265&#10;&#9;&#9;&#9;&#9;&#9;&#9;&#9;&#9;&#9;&#9;&#9;&#9;C229.4,264.9,229.4,265,229.4,265z" id="el_NckiWhVSUJw"/>
											<path d="M240.2,260.8c-0.2,0-0.4,0-0.5,0.1c-0.4,0.2-0.8,0.5-1.3,0.7c-0.2,0.1-0.5,0.3-0.7,0.4l0,0&#10;&#9;&#9;&#9;&#9;&#9;&#9;&#9;&#9;&#9;&#9;&#9;&#9;c0,0-0.1,0.1-0.5,0.3c-0.4,0.2-0.6,0.4-0.8,0.5s-1.2,1.3-1.2,1.3s-0.2,0.1-0.2,0.6c0,0.4-0.2,3.1-0.2,3.1&#10;&#9;&#9;&#9;&#9;&#9;&#9;&#9;&#9;&#9;&#9;&#9;&#9;s-0.1,0.3,0.1,0.4l1.7,0.4l0.6,0.2v-2.9v-0.8l0.2-0.3l2.1-2.9c0.3-0.3,0.5-0.7,0.8-1&#10;&#9;&#9;&#9;&#9;&#9;&#9;&#9;&#9;&#9;&#9;&#9;&#9;C240.4,260.8,240.3,260.8,240.2,260.8z" id="el_upKT0BaIIPs"/>
										</g>
										<path d="M202.5,278c-1.6-3-3.1-6-4.7-9c0.2-0.3,0.4-0.6,0.6-0.9c0.1,0,0-0.1,0-0.2c-0.1-0.2-0.2-0.2-0.4,0&#10;&#9;&#9;&#9;&#9;&#9;&#9;&#9;&#9;&#9;&#9;&#9;s-0.3,0.4-0.4,0.6c-0.2-0.4-0.5-0.9-0.7-1.3c-0.1-0.1-0.1-0.2,0-0.3l0.1-0.1c0-0.1,0-0.1,0.1-0.1s0.1,0,0.1-0.1&#10;&#9;&#9;&#9;&#9;&#9;&#9;&#9;&#9;&#9;&#9;&#9;c0-0.2,0.2-0.5,0.4-0.6c0.1-0.1,0.2-0.3,0.4-0.4v-0.1c0-0.1,0-0.2,0.1-0.2c0,0,0,0,0.1,0c0.2,0,0.2-0.1,0.3-0.2&#10;&#9;&#9;&#9;&#9;&#9;&#9;&#9;&#9;&#9;&#9;&#9;s0.2-0.2,0.4-0.3c0.2,0,0.3-0.2,0.3-0.4v-0.1c0.2,0,0.2-0.2,0.3-0.3c0.1,0,0.1-0.1,0.1-0.1c0-0.1,0.1-0.2,0.2-0.2&#10;&#9;&#9;&#9;&#9;&#9;&#9;&#9;&#9;&#9;&#9;&#9;c0.2,0,0.2-0.2,0.4-0.3c0.1,0,0-0.1,0-0.1c-0.1-0.1-0.1-0.2,0.1-0.3c0.1,0,0.2-0.1,0.2-0.1c0-0.1,0.1-0.2,0.2-0.2h0.1&#10;&#9;&#9;&#9;&#9;&#9;&#9;&#9;&#9;&#9;&#9;&#9;c0.1-0.3,0.5-0.3,0.6-0.5h0.1c0.2,0,0.2,0,0.1-0.2c-0.1-0.1,0-0.1,0.1-0.2c0.3-0.1,0.5-0.3,0.8-0.4&#10;&#9;&#9;&#9;&#9;&#9;&#9;&#9;&#9;&#9;&#9;&#9;c0.1-0.1,0.2-0.1,0.1-0.2c-0.1-0.1,0-0.1,0-0.1c0.1-0.1,0.3-0.2,0.4-0.3c0.1-0.1,0.1-0.1,0.2,0c0.2,0.1,0.3-0.1,0.5-0.1&#10;&#9;&#9;&#9;&#9;&#9;&#9;&#9;&#9;&#9;&#9;&#9;c0,0,0,0,0-0.1c0-0.2,0.2-0.3,0.3-0.3c0.2-0.1,0.3-0.1,0.5-0.1c0.1,0,0.1,0,0.2-0.1c0-0.3,0.3-0.3,0.5-0.4&#10;&#9;&#9;&#9;&#9;&#9;&#9;&#9;&#9;&#9;&#9;&#9;c0.1,0,0.2-0.1,0.3-0.1c0.1-0.1,0.2-0.2,0.4-0.1c0.1,0,0.3,0,0.3-0.2l0,0c0-0.1,0.1-0.1,0.2-0.1c0.1,0,0.3,0,0.4,0&#10;&#9;&#9;&#9;&#9;&#9;&#9;&#9;&#9;&#9;&#9;&#9;c0,0,0.1-0.1,0-0.1c0-0.1,0-0.2,0.1-0.1c0.1,0,0.1,0,0.1-0.1s0.1-0.2,0.2-0.1c0.2,0,0.4-0.1,0.5-0.2s0.3-0.1,0.4-0.2&#10;&#9;&#9;&#9;&#9;&#9;&#9;&#9;&#9;&#9;&#9;&#9;c0,0.1,0,0,0.1,0c0.1-0.1,0.2-0.2,0.3-0.1c0.1,0,0.2,0,0.2-0.1c0.1,0,0.1,0,0.2,0c0-0.3,0-0.3,0.4-0.3&#10;&#9;&#9;&#9;&#9;&#9;&#9;&#9;&#9;&#9;&#9;&#9;c0.2,0,0.4,0.1,0.4-0.2c0,0,0-0.1,0.1-0.1c0.1,0.1,0.2,0.3,0.2,0c0-0.1,0.2-0.1,0.3-0.1h0.1c0.1-0.3,0.3-0.1,0.4-0.2&#10;&#9;&#9;&#9;&#9;&#9;&#9;&#9;&#9;&#9;&#9;&#9;c0.2,0,0.3-0.1,0.4-0.2c0.1-0.2,0.3-0.1,0.5-0.2c0.1-0.1,0.3-0.1,0.4-0.2h0.1c0.2,0.1,0.2,0,0.3-0.2&#10;&#9;&#9;&#9;&#9;&#9;&#9;&#9;&#9;&#9;&#9;&#9;c0,0.2,0.1,0.2,0.2,0.2c0.1-0.1,0.2-0.2,0.4-0.2c0.3-0.1,0.6-0.4,0.9-0.4c0.3,0,0.5,0,0.8,0.1c0.1,0.1,0.1,0,0.1,0&#10;&#9;&#9;&#9;&#9;&#9;&#9;&#9;&#9;&#9;&#9;&#9;c0.1,0,0.2-0.2,0.4-0.1c0.1,0.1,0.1-0.1,0.2,0c0.2,0,0.5,0.1,0.7,0.1c0.2,0.1,0.5,0.2,0.7-0.1c0.1-0.1,0.3-0.1,0.4-0.1&#10;&#9;&#9;&#9;&#9;&#9;&#9;&#9;&#9;&#9;&#9;&#9;h0.1c0.1-0.3,0.4,0,0.6-0.1c0.1,0.2,0.2,0,0.3,0c0.2,0,0.3-0.1,0.5,0c0.2,0,0.4,0,0.5,0h0.1c0.3,0.1,0.7,0.2,1,0.1&#10;&#9;&#9;&#9;&#9;&#9;&#9;&#9;&#9;&#9;&#9;&#9;c0.1,0,0.1,0,0.2,0c0.1-0.1,0.2-0.1,0.3,0c0.1,0.1,0.4,0.1,0.4,0.1c0.1-0.1,0.3-0.1,0.4-0.1c0.1,0,0.3,0,0.4,0h0.1&#10;&#9;&#9;&#9;&#9;&#9;&#9;&#9;&#9;&#9;&#9;&#9;c0.4-0.2,0.8,0,1.2-0.1c0.3-0.1,0.7,0,0.9,0.2c0.1,0.1,0.3,0,0.3,0.2l0,0c0.2-0.1,0.3,0,0.5,0s0.4,0.1,0.7,0.2h0.1&#10;&#9;&#9;&#9;&#9;&#9;&#9;&#9;&#9;&#9;&#9;&#9;c0.2,0,0.5,0.1,0.7,0.3c0.1,0.1,0.1,0.1,0.2,0.1c0.3-0.1,0.4,0,0.5,0.3c0,0.1,0.1,0.1,0.1,0s0.1-0.1,0.2-0.1&#10;&#9;&#9;&#9;&#9;&#9;&#9;&#9;&#9;&#9;&#9;&#9;c0.1,0.1,0,0.1,0,0.2c0.2-0.2,0.3-0.1,0.5,0c0.3,0.2,0.5,0.3,0.8,0.4c0.1,0,0.2,0,0.1,0.2c0,0.1,0.1,0.1,0.1,0&#10;&#9;&#9;&#9;&#9;&#9;&#9;&#9;&#9;&#9;&#9;&#9;c0.2,0,0.3,0,0.3,0.2c0,0.1,0.1,0.2,0.2,0.2l0,0c0.2,0,0.3,0,0.3,0.2c0,0.1,0,0.2,0.2,0.1h0.1l0,0v0.1&#10;&#9;&#9;&#9;&#9;&#9;&#9;&#9;&#9;&#9;&#9;&#9;c0,0.1,0,0.1-0.1,0.2s0,0.2,0,0.2l0,0c0.1,0.1,0.1-0.1,0.2-0.1s0.2-0.1,0.3,0c0.2,0.2,0.4,0.4,0.6,0.6&#10;&#9;&#9;&#9;&#9;&#9;&#9;&#9;&#9;&#9;&#9;&#9;c0.1,0.1,0.2,0.2,0,0.3c0.1,0.1,0.1,0,0.2,0c0.1-0.1,0.2-0.1,0.3,0.1c0.1,0.2,0.3,0.3,0.5,0.4c0.1,0,0.1,0,0.2,0.1&#10;&#9;&#9;&#9;&#9;&#9;&#9;&#9;&#9;&#9;&#9;&#9;c0,0.1,0.1,0.1,0.2,0.1s0.3,0,0.2,0.2v0.1l0,0l0.1-0.1c0-0.2,0-0.4,0-0.6c0-0.4,0-0.7-0.1-1.2c0.3,0.3,0.5,0.6,0.7,0.8&#10;&#9;&#9;&#9;&#9;&#9;&#9;&#9;&#9;&#9;&#9;&#9;c0.5,0.6,1.1,1.3,1.6,1.9c0.1,0.1,0.2,0.1,0.3,0c0.3-0.2,0.6-0.4,0.9-0.6c0.1-0.1,0.1-0.1,0.2,0c0.3,0.3,0.6,0.6,0.8,1&#10;&#9;&#9;&#9;&#9;&#9;&#9;&#9;&#9;&#9;&#9;&#9;c0.1,0.1,0.1,0.1,0.2,0.2c-0.1,0.1-0.3,0.2-0.5,0.3c-0.2,0.1-0.4,0.2-0.6,0.4l-0.2,0.2c-0.1-0.2-0.2-0.3-0.3-0.5&#10;&#9;&#9;&#9;&#9;&#9;&#9;&#9;&#9;&#9;&#9;&#9;c-0.1-0.1-0.1-0.2-0.2-0.1c-0.1,0-0.2,0.1-0.1,0.2l0,0c0.1,0.2,0.2,0.5,0.5,0.6v0.1l0,0c-0.1,0-0.1,0.1-0.2,0.2&#10;&#9;&#9;&#9;&#9;&#9;&#9;&#9;&#9;&#9;&#9;&#9;c-0.3,0.3-0.6,0.7-0.9,1l-0.1,0.1c0,0.3,0,0.5,0,0.8c0,0.1,0,0.2,0,0.2c0,0.1-0.1,0.3,0,0.4c-0.1,0.7-0.1,1.4-0.2,2.1&#10;&#9;&#9;&#9;&#9;&#9;&#9;&#9;&#9;&#9;&#9;&#9;c0,0.2,0.1,0.3,0.3,0.4c0,0.1,0,0.3,0.1,0.3c0.2,0.1,0.4,0.1,0.4,0.3c0,0,0,0,0.1,0c0.3-0.1,0.6,0.1,0.9,0.1&#10;&#9;&#9;&#9;&#9;&#9;&#9;&#9;&#9;&#9;&#9;&#9;c0.1,0,0.3,0,0.2,0.2c0,0.1,0,0.2,0,0.2c0.1,0,0.2,0,0.3,0c0.1,0,0-0.1,0-0.2s0-0.2,0.1-0.3c0.1,0,0.2,0,0.2,0.1&#10;&#9;&#9;&#9;&#9;&#9;&#9;&#9;&#9;&#9;&#9;&#9;c0.1,0.3,0.1,0.3,0.4,0.2c0.2-0.1,0.4,0,0.6,0.1c0.1,0.1,0.2,0.1,0.3,0.1c0.2,0,0.3,0.1,0.4,0.2c0.1,0.2,0.2,0.1,0.3,0.1&#10;&#9;&#9;&#9;&#9;&#9;&#9;&#9;&#9;&#9;&#9;&#9;c0.1,0,0.1-0.1,0.2-0.1c0.1,0.1,0,0.2,0,0.2s0,0.1-0.1,0.1c-0.1,0.1,0,0.2,0.1,0.2s0.1,0,0.2,0s0.3,0,0.2,0.2&#10;&#9;&#9;&#9;&#9;&#9;&#9;&#9;&#9;&#9;&#9;&#9;c0.1-0.1,0.2-0.2,0.3-0.1c-0.1,0.2-0.3,0.4-0.6,0.5c-0.5,0.4-1.1,0.7-1.6,1.1c-0.1,0.1-0.3,0.1-0.3,0.3l-1.6-0.3&#10;&#9;&#9;&#9;&#9;&#9;&#9;&#9;&#9;&#9;&#9;&#9;c-0.2-0.1-0.4-0.1-0.6-0.1c-0.2-0.1-0.5-0.1-0.8-0.2l-1.6-0.4c0-0.1-0.2-0.1-0.2-0.1c-0.1-0.2-0.3-0.3-0.5-0.3&#10;&#9;&#9;&#9;&#9;&#9;&#9;&#9;&#9;&#9;&#9;&#9;c-0.4-0.1-0.8-0.5-0.9-0.9c0-0.2-0.2-0.4-0.3-0.6v-0.1c-0.1,0,0.1-0.1,0-0.2c-0.1,0-0.1,0.1-0.1,0.2l0,0&#10;&#9;&#9;&#9;&#9;&#9;&#9;&#9;&#9;&#9;&#9;&#9;c-0.1,0-0.3,0-0.2-0.2c-0.1-0.1,0.2-0.1,0.1-0.2c-0.2-0.2,0-0.3,0.1-0.4s0.2-0.3,0.2-0.5v-0.1c0.1-0.1,0-0.3,0-0.5&#10;&#9;&#9;&#9;&#9;&#9;&#9;&#9;&#9;&#9;&#9;&#9;c-0.1-0.3-0.2-0.6-0.3-0.9c-0.1-0.3-0.2-0.6-0.3-0.8v-0.1c0-0.2-0.1-0.4-0.2-0.6c-0.1-0.1-0.2-0.3-0.3-0.5&#10;&#9;&#9;&#9;&#9;&#9;&#9;&#9;&#9;&#9;&#9;&#9;c-0.1-0.2-0.2-0.4-0.3-0.5l0,0c-0.1-0.2-0.2-0.4-0.4-0.5c-0.3-0.2-0.7-0.4-1-0.6c-0.1,0-0.2-0.1-0.2-0.1&#10;&#9;&#9;&#9;&#9;&#9;&#9;&#9;&#9;&#9;&#9;&#9;c-0.2,0.1-0.4,0.1-0.5,0c-0.1,0-0.2,0-0.3,0h-0.1c-0.3,0.1-0.6-0.1-0.8,0.2c-0.1,0.1-0.3,0-0.4,0s-0.2-0.1-0.3,0&#10;&#9;&#9;&#9;&#9;&#9;&#9;&#9;&#9;&#9;&#9;&#9;c-0.1,0.1-0.3,0.2-0.4,0.2c-0.5,0.3-1,0.6-1.5,1c-0.3,0.2-0.6,0.4-0.9,0.6c-0.5,0.3-0.9,0.6-1.4,0.9&#10;&#9;&#9;&#9;&#9;&#9;&#9;&#9;&#9;&#9;&#9;&#9;c-0.3,0.2-0.6,0.4-1,0.6c-0.5,0.3-1,0.6-1.4,0.9c-0.3,0.2-0.6,0.4-0.9,0.6c-0.4,0.3-0.9,0.6-1.3,0.9&#10;&#9;&#9;&#9;&#9;&#9;&#9;&#9;&#9;&#9;&#9;&#9;c-0.4,0.3-0.9,0.6-1.3,0.9c-0.5,0.3-1,0.6-1.5,1c-0.3,0.2-0.6,0.4-0.9,0.6c-0.4,0.3-0.9,0.6-1.3,0.9&#10;&#9;&#9;&#9;&#9;&#9;&#9;&#9;&#9;&#9;&#9;&#9;c-0.3,0.2-0.6,0.4-1,0.6c-0.5,0.3-1,0.6-1.5,0.9c-0.3,0.2-0.6,0.4-0.9,0.6c-0.4,0.3-0.9,0.6-1.3,0.9&#10;&#9;&#9;&#9;&#9;&#9;&#9;&#9;&#9;&#9;&#9;&#9;c-0.3,0.2-0.6,0.4-0.9,0.6c-0.5,0.3-1,0.6-1.5,0.9c-0.3,0.2-0.6,0.4-0.9,0.6C203.5,277.3,203,277.7,202.5,278z" id="el_H-kXND_qxj9"/>
										<path d="M240.2,270.5c-0.1-0.1-0.2,0-0.3,0.1c0-0.2-0.1-0.2-0.2-0.2s-0.1,0-0.2,0s-0.2-0.1-0.1-0.2l0.1-0.1&#10;&#9;&#9;&#9;&#9;&#9;&#9;&#9;&#9;&#9;&#9;&#9;c0-0.1,0.1-0.2,0-0.2c-0.1-0.1-0.1,0.1-0.2,0.1s-0.2,0.1-0.3-0.1c-0.1-0.1-0.2-0.2-0.4-0.2c-0.1,0-0.2,0-0.3-0.1&#10;&#9;&#9;&#9;&#9;&#9;&#9;&#9;&#9;&#9;&#9;&#9;c-0.2-0.1-0.4-0.1-0.6-0.1c-0.3,0.1-0.3,0.1-0.4-0.2c0-0.1-0.1-0.2-0.2-0.1c-0.1,0-0.1,0.2-0.1,0.3c0,0.1,0.1,0.1,0,0.2&#10;&#9;&#9;&#9;&#9;&#9;&#9;&#9;&#9;&#9;&#9;&#9;c-0.1,0-0.2,0-0.3,0c-0.1-0.1-0.1-0.1,0-0.2c0.1-0.2-0.1-0.2-0.2-0.2c-0.3,0-0.6-0.2-0.9-0.1h-0.1c0-0.3-0.3-0.3-0.4-0.3&#10;&#9;&#9;&#9;&#9;&#9;&#9;&#9;&#9;&#9;&#9;&#9;c-0.1-0.1-0.1-0.2-0.1-0.3l0.4,0.1c0,0.1-0.1,0.1,0,0.2c0.1,0,0.1,0.1,0.2,0c0.1,0,0-0.1,0-0.1c0.4,0.1,0.8,0.2,1.2,0.3&#10;&#9;&#9;&#9;&#9;&#9;&#9;&#9;&#9;&#9;&#9;&#9;c0.2,0,0.2,0,0.2-0.1c0-0.8,0-1.6,0-2.4c0-0.1,0-0.3,0-0.4v-0.3c0,0,0-0.1,0-0.2c0-0.2,0.1-0.4,0.2-0.5s0.2-0.3,0.3-0.4&#10;&#9;&#9;&#9;&#9;&#9;&#9;&#9;&#9;&#9;&#9;&#9;l0.1-0.1c0.3-0.4,0.6-0.8,0.9-1.2l0,0c0.2,0.2,0.4,0.5,0.6,0.7c0.1,0.1,0.1,0,0.1-0.1c0.1-0.3,0.1-0.6,0.2-0.9&#10;&#9;&#9;&#9;&#9;&#9;&#9;&#9;&#9;&#9;&#9;&#9;c0-0.3,0.1-0.5,0.2-0.8c0.1,0.4,0.2,0.9,0.3,1.3c0.2,0.8,0.3,1.6,0.5,2.4c0.1,0.3,0.1,0.5,0.1,0.8c0,0.1,0,0.2,0.2,0.2&#10;&#9;&#9;&#9;&#9;&#9;&#9;&#9;&#9;&#9;&#9;&#9;c0.4-0.1,0.9-0.2,1.4-0.3l-2,2.3c0.3,0.1,0.6,0.1,0.9,0.1c0.1,0,0.2,0.1,0.1,0.2C240.9,269.5,240.5,270,240.2,270.5z&#10;&#9;&#9;&#9;&#9;&#9;&#9;&#9;&#9;&#9;&#9;&#9; M239.2,267.4c0,0.1,0.2,0.1,0.3,0.1c0.1,0,0.1-0.1,0.1-0.1c0-0.3-0.1-0.7-0.3-0.9c0-0.1-0.1-0.1-0.2,0&#10;&#9;&#9;&#9;&#9;&#9;&#9;&#9;&#9;&#9;&#9;&#9;c-0.1,0-0.1,0.1-0.1,0.2C239.1,266.8,239.1,267.1,239.2,267.4L239.2,267.4z M239.4,269.1c0.3-0.2,0.4-0.5,0.2-0.8&#10;&#9;&#9;&#9;&#9;&#9;&#9;&#9;&#9;&#9;&#9;&#9;c0-0.1-0.1-0.1-0.1-0.1c-0.1,0-0.1,0.1-0.1,0.1c0,0.2-0.1,0.3-0.3,0.5c-0.1,0.1-0.2,0.2-0.1,0.3&#10;&#9;&#9;&#9;&#9;&#9;&#9;&#9;&#9;&#9;&#9;&#9;C239.2,269.1,239.3,269.2,239.4,269.1L239.4,269.1z M239.2,265.3c0,0.1,0.1,0.1,0.1,0.2c0,0,0.1,0.1,0.2,0.1s0-0.1,0-0.2&#10;&#9;&#9;&#9;&#9;&#9;&#9;&#9;&#9;&#9;&#9;&#9;s0-0.3,0-0.4s0-0.3-0.1-0.4s-0.2-0.1-0.3-0.1c-0.1,0-0.1,0.1-0.1,0.2l0,0C239.1,264.9,239.1,265.1,239.2,265.3&#10;&#9;&#9;&#9;&#9;&#9;&#9;&#9;&#9;&#9;&#9;&#9;L239.2,265.3z M237.8,268.3c0,0.1,0.1,0.1,0.1,0.1s0.1,0,0.1-0.1c0-0.2,0.1-0.3,0.1-0.5c0-0.1,0-0.2-0.1-0.2&#10;&#9;&#9;&#9;&#9;&#9;&#9;&#9;&#9;&#9;&#9;&#9;s-0.2,0.1-0.2,0.2l0,0C237.7,268,237.8,268.2,237.8,268.3z" id="el_QCpVQIDKSyS"/>
										<path d="M239.2,267.4c-0.1-0.3-0.2-0.5-0.3-0.8c0-0.1,0-0.1,0.1-0.2c0.1,0,0.2,0,0.2,0&#10;&#9;&#9;&#9;&#9;&#9;&#9;&#9;&#9;&#9;&#9;&#9;c0.2,0.2,0.3,0.6,0.3,0.9c0,0.1,0,0.1-0.1,0.1C239.4,267.4,239.3,267.5,239.2,267.4z" id="el_QVDQzaWhOkD"/>
										<path d="M239.2,265.3c-0.1-0.2-0.1-0.4-0.2-0.5c0-0.1,0-0.2,0.1-0.2l0,0c0.1,0,0.2,0,0.3,0.1&#10;&#9;&#9;&#9;&#9;&#9;&#9;&#9;&#9;&#9;&#9;&#9;c0.1,0.1,0.1,0.3,0.1,0.4s0,0.3,0,0.4s0,0.1,0,0.2c-0.1,0-0.1,0-0.2-0.1C239.3,265.4,239.3,265.4,239.2,265.3z" id="el_NoI4YXyCu4L"/>
										<path d="M237.8,268.3c0-0.1,0-0.3,0-0.4s0.1-0.2,0.2-0.2l0,0c0.1,0,0.1,0.1,0.1,0.2c0,0.2-0.1,0.3-0.1,0.5&#10;&#9;&#9;&#9;&#9;&#9;&#9;&#9;&#9;&#9;&#9;&#9;c0,0.1-0.1,0.1-0.1,0.1C237.8,268.4,237.8,268.4,237.8,268.3z" id="el_KXWemRHeJ2c"/>
										<g id="el_Gyj0V3-Wffk">
											<path d="M221.6,257.5c0.1,0.1,0.3,0.1,0.4,0c0.1,0,0.1-0.1,0.1-0.1c0-0.2,0-0.3-0.3-0.3L221,257&#10;&#9;&#9;&#9;&#9;&#9;&#9;&#9;&#9;&#9;&#9;&#9;&#9;c-0.1-0.1-0.2,0-0.3,0s-0.1,0-0.2,0.1c0,0.1,0,0.1,0.1,0.2C220.9,257.5,221.3,257.6,221.6,257.5L221.6,257.5z" id="el_PCoi4zfdeAA"/>
											<path d="M205.5,263.3c-0.1,0.1-0.3,0.2-0.4,0.3c-0.1,0-0.2,0.2-0.3,0.3c-0.1,0.1-0.1,0.1,0,0.2s0.1,0,0.2,0&#10;&#9;&#9;&#9;&#9;&#9;&#9;&#9;&#9;&#9;&#9;&#9;&#9;c0.2-0.1,0.4-0.2,0.7-0.3c0.1,0,0.2-0.2,0.1-0.3l0,0C205.7,263.3,205.6,263.3,205.5,263.3z" id="el_kYQ-3PbaGAY"/>
											<path d="M228.9,259.9c-0.2-0.2-0.4-0.3-0.7-0.4c-0.1,0-0.2,0-0.2,0c-0.1,0.1,0,0.1,0.1,0.2&#10;&#9;&#9;&#9;&#9;&#9;&#9;&#9;&#9;&#9;&#9;&#9;&#9;c0,0.1,0.1,0.1,0.2,0.2c0.3,0.2,0.6,0.4,0.9,0.6c0.1,0.1,0.3,0.1,0.3,0c0.1-0.1,0.1-0.2-0.1-0.3l0,0&#10;&#9;&#9;&#9;&#9;&#9;&#9;&#9;&#9;&#9;&#9;&#9;&#9;C229.3,260,229.1,259.9,228.9,259.9L228.9,259.9z" id="el_bQxihODf6nC"/>
											<path d="M224.6,257.9c-0.1,0-0.2,0-0.2,0.1s0,0.2,0.1,0.2c0.3,0.1,0.7,0.1,1,0.2c0.1,0,0.2,0,0.2-0.1&#10;&#9;&#9;&#9;&#9;&#9;&#9;&#9;&#9;&#9;&#9;&#9;&#9;s0-0.1,0-0.2c-0.1-0.1-0.2-0.1-0.3-0.1C225.2,257.9,224.9,257.9,224.6,257.9z" id="el_8lXDFlylWl1"/>
											<path d="M227.1,257.4c-0.2-0.1-0.4-0.2-0.6-0.2c0,0-0.1-0.1-0.2-0.1s-0.2-0.1-0.3,0.1c0,0.1,0,0.2,0.1,0.3&#10;&#9;&#9;&#9;&#9;&#9;&#9;&#9;&#9;&#9;&#9;&#9;&#9;c0.2,0.1,0.4,0.3,0.6,0.3s0.3,0.1,0.4,0C227.3,257.7,227.2,257.6,227.1,257.4L227.1,257.4z" id="el_u5LoLdpVzRp"/>
											<path d="M215.4,257.3c-0.1,0-0.2,0-0.2,0c-0.1,0-0.1,0.1-0.1,0.1c0,0.1,0,0.1,0.1,0.1&#10;&#9;&#9;&#9;&#9;&#9;&#9;&#9;&#9;&#9;&#9;&#9;&#9;c0.4,0.2,0.8,0.2,1.3,0.2c0.1,0,0.2,0,0.2-0.1s0.1-0.3-0.1-0.3C216.1,257.3,215.7,257.3,215.4,257.3z" id="el_nBl0SfPgdLS"/>
											<path d="M216.1,266.2c-0.2,0.1-0.3,0.4-0.5,0.5c-0.1,0-0.1,0.1-0.1,0.2l0,0c0.1,0.1,0.1,0,0.2,0&#10;&#9;&#9;&#9;&#9;&#9;&#9;&#9;&#9;&#9;&#9;&#9;&#9;c0.5-0.4,1-0.8,1.5-1.2c0.1,0,0.1-0.1,0.1-0.2s0-0.2-0.2-0.2c-0.1,0-0.3,0-0.3,0.2C216.6,265.7,216.4,265.9,216.1,266.2z&#10;&#9;&#9;&#9;&#9;&#9;&#9;&#9;&#9;&#9;&#9;&#9;&#9;" id="el_WDBu3yMzJ4A"/>
											<path d="M205.3,271.1c-0.2,0.2-0.5,0.5-0.8,0.6c-0.1,0.1-0.2,0.2-0.4,0.3c-0.1,0-0.1,0.1,0,0.2l0,0&#10;&#9;&#9;&#9;&#9;&#9;&#9;&#9;&#9;&#9;&#9;&#9;&#9;c0,0,0.1,0.1,0.2,0.1c0.2-0.1,0.4-0.1,0.5-0.2c0.3-0.2,0.6-0.5,0.9-0.8c0.1-0.1,0-0.2,0-0.3c0-0.1-0.1-0.1-0.2-0.1&#10;&#9;&#9;&#9;&#9;&#9;&#9;&#9;&#9;&#9;&#9;&#9;&#9;C205.4,270.9,205.3,271,205.3,271.1z" id="el_i0i2zDN4m9u"/>
											<path d="M222.8,256.3c-0.1,0-0.2-0.1-0.3,0.1c0,0.1,0,0.3,0.1,0.3c0.3,0.2,0.6,0.3,0.9,0.4&#10;&#9;&#9;&#9;&#9;&#9;&#9;&#9;&#9;&#9;&#9;&#9;&#9;c0.1,0,0.2,0,0.3-0.1c-0.1-0.1,0.1-0.3-0.2-0.3C223.4,256.5,223.1,256.4,222.8,256.3z" id="el_yEggkoYN5f_"/>
											<path d="M202.6,270.2c0,0,0.1,0,0.1-0.1c0.1-0.1,0.1-0.2,0.1-0.3l0,0c-0.1-0.1-0.2-0.1-0.2,0&#10;&#9;&#9;&#9;&#9;&#9;&#9;&#9;&#9;&#9;&#9;&#9;&#9;c-0.1,0-0.2,0-0.2,0.1c-0.3,0.2-0.6,0.5-0.8,0.9c-0.1,0.1-0.2,0.2,0,0.3c0.1,0.1,0.2,0,0.3-0.1&#10;&#9;&#9;&#9;&#9;&#9;&#9;&#9;&#9;&#9;&#9;&#9;&#9;C202,270.7,202.2,270.3,202.6,270.2z" id="el_Ijlj8YGxqWe"/>
											<path d="M207.5,264.8c0.1,0,0.1-0.1,0.2-0.1c0.3-0.1,0.5-0.2,0.8-0.4c0.1-0.1,0.1-0.2,0-0.4&#10;&#9;&#9;&#9;&#9;&#9;&#9;&#9;&#9;&#9;&#9;&#9;&#9;c-0.1-0.1-0.2-0.1-0.3,0c-0.4,0.2-0.8,0.4-1.1,0.6H207c-0.1,0.1-0.2,0.1-0.1,0.2c0,0.1,0.2,0.1,0.2,0.1l0,0&#10;&#9;&#9;&#9;&#9;&#9;&#9;&#9;&#9;&#9;&#9;&#9;&#9;C207.3,264.9,207.4,264.8,207.5,264.8z" id="el_60HjxxLxeqn"/>
											<path d="M223.8,260.5c0.1,0,0.1-0.1,0.1-0.2s0-0.2-0.1-0.2c-0.4-0.1-0.8-0.1-1.2-0.1c-0.1,0-0.1,0.1-0.1,0.1&#10;&#9;&#9;&#9;&#9;&#9;&#9;&#9;&#9;&#9;&#9;&#9;&#9;c0,0.1,0,0.1,0.1,0.2s0.2,0.1,0.3,0.1C223.1,260.5,223.5,260.5,223.8,260.5z" id="el_10UAwrfw7CG"/>
											<path d="M221.1,263.3L221.1,263.3c-0.2,0.1-0.4,0.2-0.6,0.3c-0.1,0-0.1,0.1-0.1,0.1c0,0.1,0.1,0.1,0.1,0.1&#10;&#9;&#9;&#9;&#9;&#9;&#9;&#9;&#9;&#9;&#9;&#9;&#9;l0,0c0.1,0,0.2,0,0.3,0c0.4-0.1,0.7-0.3,1.1-0.5c0.1-0.1,0.2-0.1,0.1-0.3c0-0.1-0.2-0.2-0.3-0.1l0,0&#10;&#9;&#9;&#9;&#9;&#9;&#9;&#9;&#9;&#9;&#9;&#9;&#9;C221.5,263.1,221.3,263.2,221.1,263.3z" id="el_qdxSLh1sYQP"/>
											<path d="M203,263.7l0.1-0.1c0.2-0.2,0.4-0.4,0.6-0.5c0.1-0.1,0.2-0.2,0.1-0.3l0,0c-0.1-0.1-0.2-0.1-0.3,0&#10;&#9;&#9;&#9;&#9;&#9;&#9;&#9;&#9;&#9;&#9;&#9;&#9;c-0.3,0.2-0.5,0.5-0.7,0.8c-0.1,0.1-0.1,0.2,0,0.2l0,0C202.8,263.8,202.9,263.7,203,263.7z" id="el_pcBQ6jMTBNy"/>
											<path d="M213.4,264.6c0.1-0.1,0.3-0.1,0.4-0.2c0.1,0,0.1-0.2,0.1-0.3l0,0c-0.1-0.1-0.2-0.1-0.3,0&#10;&#9;&#9;&#9;&#9;&#9;&#9;&#9;&#9;&#9;&#9;&#9;&#9;c-0.4,0.2-0.8,0.4-1.2,0.6c-0.1,0-0.1,0.1-0.1,0.1c0,0.1,0.1,0.1,0.1,0.1C212.7,264.9,213.1,264.8,213.4,264.6z" id="el_5FSv4GUGclY"/>
											<path d="M235.3,270.2c0,0.1,0.1,0.1,0.3,0.1c0.1,0,0.1-0.1,0.1-0.2c0-0.2,0-0.3-0.1-0.5s-0.3-0.4-0.4-0.7&#10;&#9;&#9;&#9;&#9;&#9;&#9;&#9;&#9;&#9;&#9;&#9;&#9;c0-0.1-0.1-0.1-0.2-0.1s-0.1,0.1-0.1,0.2C235.1,269.5,235.2,269.8,235.3,270.2z" id="el_9OdIi0GQlI3"/>
											<path d="M212.4,259.2c0.1,0,0.2-0.1,0.1-0.2c0-0.1-0.1-0.2-0.2-0.2c-0.3,0.1-0.6,0.1-1,0.1&#10;&#9;&#9;&#9;&#9;&#9;&#9;&#9;&#9;&#9;&#9;&#9;&#9;c-0.1,0-0.1,0-0.2,0.1c0,0.1,0,0.2,0.1,0.2C211.6,259.3,212,259.3,212.4,259.2z" id="el_CT4S2zPF4IP"/>
											<path d="M239,271.1c0.1-0.1,0.2-0.1,0.3-0.2l0.1-0.1c0-0.1-0.1-0.1-0.1,0c-0.3,0-0.7,0.1-1,0.1&#10;&#9;&#9;&#9;&#9;&#9;&#9;&#9;&#9;&#9;&#9;&#9;&#9;c-0.2,0-0.2,0.2-0.2,0.3c0,0.1,0.1,0.1,0.2,0.1C238.5,271.2,238.8,271.2,239,271.1z" id="el_gKcpEicDdQs"/>
											<path d="M212,257.7c-0.1,0.1-0.3,0.1-0.2,0.3c0,0.1,0.2,0.1,0.3,0.1c0.3,0,0.6-0.1,0.8-0.1&#10;&#9;&#9;&#9;&#9;&#9;&#9;&#9;&#9;&#9;&#9;&#9;&#9;c0.1,0,0.2,0,0.1-0.1c0-0.1,0-0.2-0.1-0.2C212.6,257.5,212.3,257.5,212,257.7z" id="el_84icvc-q80g"/>
											<path d="M202.7,266.2c-0.2,0-0.4,0.3-0.5,0.5c0,0.1-0.1,0.1,0,0.2s0.1,0.1,0.2,0l0,0&#10;&#9;&#9;&#9;&#9;&#9;&#9;&#9;&#9;&#9;&#9;&#9;&#9;c0.2-0.2,0.5-0.4,0.8-0.6c0.1-0.1,0.1-0.2,0.1-0.3c0-0.1-0.1-0.1-0.2,0C202.9,266.1,202.8,266.2,202.7,266.2z" id="el_mWosnUXrV2A"/>
											<path d="M213.1,262.2c-0.2,0.1-0.3,0.2-0.5,0.3c-0.1,0-0.1,0.1-0.1,0.2s0.1,0,0.2,0c0.4-0.1,0.7-0.2,1-0.4&#10;&#9;&#9;&#9;&#9;&#9;&#9;&#9;&#9;&#9;&#9;&#9;&#9;c0.1,0,0.2-0.1,0.1-0.2c0-0.1-0.1-0.2-0.2-0.1l0,0C213.4,262,213.3,262.1,213.1,262.2z" id="el_m4eaLdRIPg8"/>
											<path d="M209.1,262.4c0.2-0.1,0.3-0.2,0.5-0.2c0.1-0.1,0.1-0.2,0.1-0.3l0,0c-0.1-0.1-0.2-0.1-0.3,0&#10;&#9;&#9;&#9;&#9;&#9;&#9;&#9;&#9;&#9;&#9;&#9;&#9;c-0.3,0.1-0.6,0.4-0.9,0.6c0,0-0.1,0-0.1,0.1s0.1,0.1,0.1,0C208.7,262.5,208.9,262.4,209.1,262.4z" id="el_A4CHd2DYYoN"/>
											<path d="M213,260.7c-0.2,0.1-0.4,0.2-0.5,0.3c-0.1,0-0.1,0.1-0.1,0.1s0,0.1,0.1,0.1c0.4,0,0.7-0.1,1-0.3&#10;&#9;&#9;&#9;&#9;&#9;&#9;&#9;&#9;&#9;&#9;&#9;&#9;c0.1-0.1,0.1-0.2,0-0.3c-0.1-0.1-0.2-0.1-0.3,0C213.1,260.6,213.1,260.7,213,260.7z" id="el_-miBLVysKOp"/>
											<path d="M200.1,267.3c0.1,0,0.1-0.1,0.1-0.1c0.1-0.2,0.2-0.3,0.4-0.5c0.1-0.1,0.2-0.3,0-0.4&#10;&#9;&#9;&#9;&#9;&#9;&#9;&#9;&#9;&#9;&#9;&#9;&#9;c-0.1-0.1-0.3,0-0.4,0.1c-0.2,0.2-0.3,0.5-0.4,0.7c0,0.1-0.1,0.1,0,0.2C200,267.4,200.1,267.3,200.1,267.3z" id="el_akWXy506-tb"/>
											<path d="M238.5,270.5c0.1-0.1,0.3-0.1,0.4-0.2s0.1-0.2,0-0.2c-0.1-0.1-0.1-0.1-0.2,0s-0.2,0.1-0.3,0.1&#10;&#9;&#9;&#9;&#9;&#9;&#9;&#9;&#9;&#9;&#9;&#9;&#9;c-0.1,0-0.3,0.1-0.4,0.2c-0.1,0-0.2,0.1-0.2,0.3c0,0.1,0.2,0.1,0.3,0.1C238.3,270.6,238.4,270.6,238.5,270.5z" id="el_ZH8zvHBt6S-"/>
											<path d="M201.1,263.7c-0.2,0.1-0.4,0.3-0.6,0.5c0,0.1-0.1,0.1,0,0.2c0,0,0.1,0.1,0.2,0&#10;&#9;&#9;&#9;&#9;&#9;&#9;&#9;&#9;&#9;&#9;&#9;&#9;c0.1,0,0.1-0.1,0.2-0.1c0.2-0.1,0.4-0.3,0.6-0.4c0.1,0,0.2-0.1,0.1-0.2c0-0.1-0.2-0.2-0.3-0.1&#10;&#9;&#9;&#9;&#9;&#9;&#9;&#9;&#9;&#9;&#9;&#9;&#9;C201.2,263.6,201.2,263.7,201.1,263.7z" id="el_ha9dASpVL5G"/>
											<path d="M208.5,259.5c-0.1,0.1-0.3,0.1-0.2,0.2c0,0.1,0.2,0.1,0.3,0.1c0.3,0,0.5-0.1,0.8-0.2&#10;&#9;&#9;&#9;&#9;&#9;&#9;&#9;&#9;&#9;&#9;&#9;&#9;c0.1,0,0.2-0.1,0.2-0.2l0,0c0-0.1-0.2-0.1-0.3-0.1C209,259.3,208.8,259.4,208.5,259.5z" id="el_E7EBPdlao5s"/>
											<path d="M237.1,271.6L237.1,271.6c0.2-0.4,0.3-0.8,0.2-1.2c0-0.1-0.1-0.1-0.1-0.1c-0.1,0-0.1,0-0.1,0.1&#10;&#9;&#9;&#9;&#9;&#9;&#9;&#9;&#9;&#9;&#9;&#9;&#9;c0,0.3-0.1,0.5-0.2,0.8c0,0.1,0,0.1,0,0.2C236.8,271.6,236.9,271.6,237.1,271.6L237.1,271.6z" id="el_P47oofSdCFz"/>
											<path d="M218,258.4C218,258.4,218,258.5,218,258.4c0.3,0.2,0.6,0.1,0.9,0c0.1-0.1,0.1-0.2,0.1-0.3&#10;&#9;&#9;&#9;&#9;&#9;&#9;&#9;&#9;&#9;&#9;&#9;&#9;c0-0.1-0.1-0.1-0.3-0.1c-0.2,0.1-0.4,0.1-0.6,0.2C217.9,258.2,217.9,258.3,218,258.4z" id="el_DVtcCvpseBe"/>
											<path d="M206.8,260.8c-0.2,0.1-0.4,0.3-0.5,0.3s-0.1,0.1-0.1,0.2s0.1,0.1,0.1,0.1c0.3,0,0.6-0.1,0.9-0.3&#10;&#9;&#9;&#9;&#9;&#9;&#9;&#9;&#9;&#9;&#9;&#9;&#9;c0.1-0.1,0-0.1,0-0.2s-0.1-0.1-0.2-0.1l0,0C207,260.7,206.9,260.7,206.8,260.8z" id="el_rDQ-aQ_I9EO"/>
											<path d="M228.8,258.6C228.8,258.6,228.8,258.7,228.8,258.6c0.4,0.3,0.6,0.7,0.9,1c0.1,0.1,0.2,0.2,0.4,0.1&#10;&#9;&#9;&#9;&#9;&#9;&#9;&#9;&#9;&#9;&#9;&#9;&#9;l0,0c0.1,0,0-0.2,0-0.3c-0.2-0.5-0.6-0.7-1-1c-0.1,0-0.2,0-0.2,0C228.7,258.5,228.7,258.5,228.8,258.6z" id="el_bb88_vZoGHv"/>
											<path d="M217.2,259.5c0.1,0,0.2-0.1,0.1-0.2c0-0.1-0.1-0.1-0.2-0.1l0,0c-0.2,0-0.4,0-0.5,0s-0.2,0-0.3,0.1&#10;&#9;&#9;&#9;&#9;&#9;&#9;&#9;&#9;&#9;&#9;&#9;&#9;c-0.1,0-0.1,0.1-0.1,0.1c0,0.1,0.1,0.1,0.2,0.1c0.2,0.1,0.5,0,0.7,0.1C217.1,259.6,217.1,259.5,217.2,259.5z" id="el__bphkvoTQRy"/>
											<path d="M204.7,266c0.1,0,0.2-0.2,0.3-0.3c0.1-0.1,0.1-0.2,0.1-0.3c-0.1-0.1-0.2-0.1-0.3-0.1l0,0&#10;&#9;&#9;&#9;&#9;&#9;&#9;&#9;&#9;&#9;&#9;&#9;&#9;c-0.2,0.1-0.3,0.2-0.4,0.4c0,0.1-0.1,0.1-0.1,0.2C204.4,266,204.5,266,204.7,266C204.6,266,204.6,266,204.7,266z" id="el_4TFBQInNkbx"/>
											<path d="M233.4,262.2C233.5,262.2,233.5,262.3,233.4,262.2c0.2,0.2,0.3,0.3,0.5,0.2c0.1-0.1,0.1-0.3,0-0.4&#10;&#9;&#9;&#9;&#9;&#9;&#9;&#9;&#9;&#9;&#9;&#9;&#9;c-0.1-0.3-0.3-0.5-0.5-0.8c-0.1-0.1-0.2-0.1-0.3-0.1c-0.1,0-0.1,0.1-0.1,0.2C233.2,261.7,233.3,261.9,233.4,262.2z" id="el_lz9pwviVixR"/>
											<path d="M200.4,269.1c0.1,0,0.1-0.1,0.2-0.2c0.1-0.1,0.1-0.2,0.2-0.3c0.1-0.1,0.1-0.2,0-0.3&#10;&#9;&#9;&#9;&#9;&#9;&#9;&#9;&#9;&#9;&#9;&#9;&#9;c-0.1-0.1-0.2-0.1-0.3,0c-0.2,0.1-0.3,0.3-0.4,0.6c0,0.1-0.1,0.1,0,0.2C200.3,269.1,200.3,269.1,200.4,269.1z" id="el_XYySGA8I5DC"/>
											<path d="M231.4,262.7c0.2,0.2,0.4,0.5,0.8,0.5c0.1,0,0.2,0,0.3-0.1c0-0.1,0.1-0.3-0.1-0.4&#10;&#9;&#9;&#9;&#9;&#9;&#9;&#9;&#9;&#9;&#9;&#9;&#9;c-0.3-0.1-0.5-0.2-0.8-0.4c-0.1,0-0.1,0-0.2,0C231.3,262.5,231.3,262.6,231.4,262.7z" id="el_2E7TfUia-kh"/>
											<path d="M202.7,264.6c-0.1,0.1-0.2,0.2-0.3,0.3c0,0.1-0.1,0.1,0,0.2s0.2,0.1,0.3,0l0,0&#10;&#9;&#9;&#9;&#9;&#9;&#9;&#9;&#9;&#9;&#9;&#9;&#9;c0.1-0.1,0.1-0.2,0.2-0.2c0.1-0.1,0.1-0.2,0-0.3C202.9,264.5,202.8,264.5,202.7,264.6z" id="el_uITPWQkLEk_"/>
											<path d="M204.2,261.3c-0.2,0.1-0.3,0.2-0.4,0.4c0,0.1-0.1,0.1,0,0.2s0.1,0,0.2,0c0.1-0.1,0.3-0.2,0.4-0.3&#10;&#9;&#9;&#9;&#9;&#9;&#9;&#9;&#9;&#9;&#9;&#9;&#9;c0.1-0.1,0.1-0.2,0.1-0.3C204.3,261.3,204.2,261.3,204.2,261.3z" id="el_Q28Vsz9P996"/>
											<path d="M234.4,263.4c0.2,0.1,0.3,0.2,0.5,0.3c0,0,0.1,0.1,0.1,0c0,0,0.1-0.1,0-0.1&#10;&#9;&#9;&#9;&#9;&#9;&#9;&#9;&#9;&#9;&#9;&#9;&#9;c-0.1-0.2-0.2-0.3-0.4-0.5c-0.1-0.1-0.2,0-0.2,0C234.4,263.2,234.4,263.3,234.4,263.4z" id="el_dgsuCDgJNEB"/>
											<path d="M233.4,269.5c-0.1,0-0.1,0.1-0.1,0.1c-0.1,0,0-0.1,0-0.1c0-0.1,0-0.2,0-0.2c-0.1,0-0.1,0-0.1-0.1&#10;&#9;&#9;&#9;&#9;&#9;&#9;&#9;&#9;&#9;&#9;&#9;&#9;c0-0.2-0.1-0.1-0.2-0.1h-0.1c0,0.1,0,0.1,0.1,0.2l0.1,0.1c0,0.1,0.1,0.2,0.3,0.3C233.4,269.7,233.4,269.6,233.4,269.5z" id="el_AX6ADjToanU"/>
											<path d="M211.9,266.9c0.1-0.1,0.2-0.1,0.2-0.2s-0.1-0.1-0.2-0.1c-0.1,0-0.1,0-0.2,0.1&#10;&#9;&#9;&#9;&#9;&#9;&#9;&#9;&#9;&#9;&#9;&#9;&#9;c-0.1,0.1-0.4,0.1-0.3,0.3C211.6,267.1,211.8,266.9,211.9,266.9z" id="el_YdNVD3gkctz"/>
											<path d="M232.9,268.8C232.9,268.7,233,268.7,232.9,268.8c0.1-0.1,0.2-0.1,0.2-0.2s-0.1-0.2-0.2-0.2&#10;&#9;&#9;&#9;&#9;&#9;&#9;&#9;&#9;&#9;&#9;&#9;&#9;s0,0.1,0,0.1s0,0-0.1,0s-0.1,0.1-0.1,0.2v0.1C232.8,268.9,232.8,268.8,232.9,268.8L232.9,268.8z" id="el_7Ft8mC6vSPi"/>
											<path d="M231.7,269.5c-0.1,0-0.1-0.1-0.2-0.1c0,0.1,0,0.2,0,0.2c0.1,0.1,0.1,0,0.1-0.1&#10;&#9;&#9;&#9;&#9;&#9;&#9;&#9;&#9;&#9;&#9;&#9;&#9;c0.1,0,0.1-0.2,0.2-0.2c0,0,0.1-0.1,0-0.1l0,0c0,0-0.1,0-0.1,0.1S231.7,269.4,231.7,269.5z" id="el_wcsMmc5PPoq"/>
											<path d="M232.2,269c-0.3,0-0.2,0.2-0.2,0.3c0,0.1,0.1,0.1,0.1,0.2c0-0.1,0.1-0.2,0.1-0.3&#10;&#9;&#9;&#9;&#9;&#9;&#9;&#9;&#9;&#9;&#9;&#9;&#9;C232.3,269.1,232,269.1,232.2,269z" id="el_w3dkymnSPKX"/>
											<path d="M233.8,270.2c0-0.1-0.2-0.1-0.2-0.2s-0.1-0.2-0.2-0.2c0,0-0.1-0.1-0.1,0s0,0.1,0.1,0.1&#10;&#9;&#9;&#9;&#9;&#9;&#9;&#9;&#9;&#9;&#9;&#9;&#9;c0.2,0,0.2,0.1,0.1,0.2c0,0,0,0.2,0.1,0.1C233.7,270.2,233.8,270.2,233.8,270.2z" id="el_2eqyDqWakiy"/>
											<path d="M232.3,268.7c0-0.1,0.2-0.1,0.1-0.2c0-0.1-0.1-0.1-0.1-0.1l0,0c-0.1,0.1,0,0.2-0.1,0.2&#10;&#9;&#9;&#9;&#9;&#9;&#9;&#9;&#9;&#9;&#9;&#9;&#9;C232.1,268.8,232.2,268.7,232.3,268.7z" id="el_LNFaeW9ZitP"/>
											<path d="M234.3,270.2c-0.1-0.1-0.3-0.2-0.2-0.3v-0.1c-0.1,0-0.1,0.1-0.1,0.1&#10;&#9;&#9;&#9;&#9;&#9;&#9;&#9;&#9;&#9;&#9;&#9;&#9;C233.9,270.1,234.1,270.2,234.3,270.2z" id="el_X0H5vqNxmd0"/>
											<path d="M232.9,270.9c0.1-0.1,0.1-0.2,0.1-0.3c0-0.1-0.1-0.1-0.2-0.1C232.9,270.6,232.8,270.8,232.9,270.9z" id="el_wWR7Czp64lz"/>
											<path d="M233.3,270.1c0-0.1-0.1-0.1-0.1-0.1c-0.1,0,0,0.1,0,0.1c0,0.1,0.1,0.1,0.2,0.1&#10;&#9;&#9;&#9;&#9;&#9;&#9;&#9;&#9;&#9;&#9;&#9;&#9;C233.4,270.2,233.3,270.2,233.3,270.1z" id="el_J0CZ1Uh1Gtp"/>
											<path d="M234.6,268.5c0,0.1,0.1,0.1,0.1,0.1s0.1-0.1,0-0.1l0,0l-0.1-0.1&#10;&#9;&#9;&#9;&#9;&#9;&#9;&#9;&#9;&#9;&#9;&#9;&#9;C234.6,268.4,234.6,268.4,234.6,268.5z" id="el_fL0M7sBIGk0"/>
											<path d="M232.2,268.4c0,0,0.1-0.1,0-0.1c0,0-0.1-0.1-0.2,0c0,0-0.1,0-0.1,0.1&#10;&#9;&#9;&#9;&#9;&#9;&#9;&#9;&#9;&#9;&#9;&#9;&#9;C232.1,268.4,232.2,268.4,232.2,268.4z" id="el_5Qotu5RWuBU"/>
											<path d="M234,268.4c0,0,0.1,0.1,0.1,0v-0.1c0-0.1-0.1-0.1-0.1-0.1C234,268.3,234,268.3,234,268.4&#10;&#9;&#9;&#9;&#9;&#9;&#9;&#9;&#9;&#9;&#9;&#9;&#9;C234,268.3,234,268.4,234,268.4z" id="el_YSLDgF8yErt"/>
										</g>
									</g>
								</g>
							</g>
						</g>
					</g>
				</g>
			</g>
		</g>
		<line x1="237" y1="285.6" x2="251.5" y2="313.4" id="el_kc1JKUMdDgf"/>
		<line x1="234.3" y1="287" x2="248.7" y2="314.8" id="el_8aC_LD_APNB"/>
		<line x1="231.6" y1="288.4" x2="246" y2="316.2" id="el_DmsagEJnNSf"/>
		<line x1="228.9" y1="289.8" x2="243.3" y2="317.6" id="el_0Du8XrlL9gr"/>
		<line x1="226.2" y1="291.2" x2="240.6" y2="319" id="el_aDJR7R01hCd"/>
		<g id="el_AJ97Ql81hgy">
			<path d="M216.1,297.1c0.5,0,1.1-0.1,1.8-0.1c0.6-0.7,1.2-1.4,1.5-1.8c0-0.1-0.1-0.1-0.1-0.2c0.2-0.2,0.4-0.4,0.6-0.5&#10;&#9;&#9;&#9;&#9;c0.2,0,0.4,0.1,0.2,0.3c-0.2,0.3-1,1.4-1.5,2.1c1.5-0.1,3-0.2,3.1,0.1c0.1,0.1,0.1,0.4,0,0.5c-1-0.3-5.9,0.4-6.6,0.4&#10;&#9;&#9;&#9;&#9;c-0.1-0.1-0.1-0.6,0-0.7c0.3-0.1,0.5-0.2,0.8-0.3C216.1,296.9,216,297.1,216.1,297.1z" id="el_sOd4wAJ21Ew"/>
			<path d="M220.8,298c0.1,0.2,0.1,0.6-0.5,0.9c-0.8,0.4-1.7,0.6-1.9,0.1c-0.1-0.2,0-0.4,0.1-0.5&#10;&#9;&#9;&#9;&#9;c-0.3,0.1-0.6,0.2-0.9,0.3c-0.3,0.2-0.5,0.4-0.3,0.7c0.3,0.5,1.2,0.5,1.7,0.2c0,0,0.1,0,0.1,0.1c0.1,0.1,0,0.2-0.2,0.3&#10;&#9;&#9;&#9;&#9;c-0.5,0.3-1.7,0.4-2-0.3c-0.3-0.5,0-1.2,0.7-1.6C218.6,297.8,220.5,297.5,220.8,298z M218.6,298.7c0.1,0.2,0.9,0,1.5-0.3&#10;&#9;&#9;&#9;&#9;c0.3-0.1,0.3-0.2,0.3-0.2s-0.1,0-0.2,0c-0.5,0-1,0.1-1.5,0.3C218.7,298.5,218.6,298.6,218.6,298.7L218.6,298.7z" id="el_0ptP-Ovw6p3"/>
			<path d="M220.6,298.9c0.2,0.2,0.4,0.4,0.5,0.6c0.3-0.1,0.6-0.1,1-0.1c0.1,0.1,0.1,0.5,0,0.5l-0.5,0.1&#10;&#9;&#9;&#9;&#9;c0.1,0.1,0.1,0.2,0.2,0.3c0.1,0.1,0.2,0.2,0.1,0.3c-0.1,0.1,0,0.1,0,0.2s-0.1,0.2-0.1,0.2h-0.1l0,0c-0.2-0.3-0.4-0.6-0.6-0.9&#10;&#9;&#9;&#9;&#9;c-0.9,0.2-1.7,0.4-2.5,0.8c-0.2,0.1-0.2,0.2-0.2,0.3c0.3,0.4,0.8,0.6,1.3,0.5c0,0,0.2,0.2-0.2,0.4c-0.5,0.2-1.1-0.1-1.4-0.5&#10;&#9;&#9;&#9;&#9;c-0.2-0.4,0-1,0.7-1.4c0.6-0.3,1.3-0.5,2-0.7l-0.2-0.3C220.3,299.2,220.5,298.8,220.6,298.9z" id="el_uf4AnNY8dGP"/>
			<path d="M221.9,301.2c0.1,0,0.1,0,0.1,0.1c0,0,0.2,0.5,0,0.6c-0.9,0.2-1.8,0.4-2.7,0.8c-0.2,0.1-0.3,0.3-0.2,0.4&#10;&#9;&#9;&#9;&#9;c0.2,0.4,0.9,0.1,1.2,0c0.1,0.1,0.1,0.2,0,0.3c0,0,0,0-0.1,0.1c-0.5,0.3-1.3,0.2-1.6-0.3c-0.2-0.4,0-0.7,0.5-0.9&#10;&#9;&#9;&#9;&#9;C220.1,301.7,221,301.4,221.9,301.2z M222.9,300.8c0.2-0.1,0.7-0.3,0.9,0c0.1,0.2,0.1,0.3-0.1,0.3c0,0.1-0.1,0.3-0.2,0.3&#10;&#9;&#9;&#9;&#9;c-0.3,0.2-0.7,0.1-0.8-0.2l0,0C222.6,301.2,222.7,301,222.9,300.8L222.9,300.8z" id="el_RW8uctCWu8M"/>
		</g>
		<g id="el__7ClHBV3yp9">
			<path d="M251.9,282.4c-1.2,0.7-2.6,0.2-3.3-0.9l-0.1-0.1l-0.9-1.7l4.4-2.3l0.9,1.7c0.7,1.2,0.3,2.6-0.9,3.3&#10;&#9;&#9;&#9;&#9;C252,282.4,252,282.4,251.9,282.4z M251.4,281.5c0.7-0.3,1-1.1,0.7-1.8c0,0,0-0.1-0.1-0.1l-0.4-0.7l-2.6,1.4l0.4,0.7&#10;&#9;&#9;&#9;&#9;c0.3,0.7,1.2,1,1.9,0.7C251.4,281.5,251.4,281.5,251.4,281.5L251.4,281.5z" id="el_lZE0z4dmFug"/>
			<path d="M254.6,284.5l-0.9,0.5l-0.2-0.4c-0.3-0.5-0.6-0.6-1.2-0.3l-1.8,0.9l-0.5-0.9l3.4-1.8l0.3,0.6l-0.3,0.4&#10;&#9;&#9;&#9;&#9;c0.4,0.1,0.8,0.4,0.9,0.8L254.6,284.5z" id="el_CswsKLb9Dil"/>
			<path d="M254.8,285.1l0.5,0.9l-3.4,1.8l-0.5-0.9L254.8,285.1z M256.1,284.4l0.5,0.9l-0.9,0.4l-0.5-0.9L256.1,284.4z" id="el_lIwyBB59qF0"/>
			<path d="M257.4,290l-4.1,0.4l-0.4-0.8l2.7-3.2l0.5,1l-1.8,2l2.7-0.4L257.4,290z" id="el_HnOS9x5Djbb"/>
			<path d="M257.3,294.7l-1.3-2.6c-0.4,0.3-0.5,0.8-0.3,1.2c0.1,0.3,0.4,0.5,0.8,0.5l0.5,1c-1.1,0.2-2.2-0.5-2.5-1.6&#10;&#9;&#9;&#9;&#9;s0.5-2.2,1.6-2.5c1.1-0.3,2.2,0.5,2.5,1.6c0.2,0.9-0.2,1.8-1,2.2C257.5,294.6,257.4,294.7,257.3,294.7z M256.6,291.8l0.9,1.6&#10;&#9;&#9;&#9;&#9;c0.3-0.3,0.4-0.8,0.2-1.2C257.5,291.9,257.1,291.7,256.6,291.8L256.6,291.8z" id="el_mv7qF-lTLYp"/>
			<path d="M260.7,296.4l-0.9,0.5l-0.2-0.4c-0.3-0.5-0.6-0.6-1.2-0.3l-1.8,0.9l-0.5-0.9l3.4-1.8l0.3,0.6l-0.3,0.4&#10;&#9;&#9;&#9;&#9;c0.4,0.1,0.8,0.4,0.9,0.8L260.7,296.4z" id="el_YQhRJiia3-k"/>
			<path d="M243.7,285.2l-0.9,0.5l-1.4-2.6l4.4-2.3l0.5,1l-3.5,1.8L243.7,285.2z" id="el_KpZ3OE9TNwQ"/>
			<path d="M246.5,284.4l0.5,0.9l-3.4,1.8l-0.5-0.9L246.5,284.4z M247.8,283.7l0.5,0.9l-0.9,0.4l-0.5-0.9L247.8,283.7z" id="el_Y0tiAVXf6oq"/>
			<path d="M245.6,286.9c1-0.5,2.2-0.2,2.7,0.8v0.1c0.5,0.8,0.3,1.9-0.5,2.5l-0.5-0.9c0.3-0.4,0.3-1.1-0.1-1.4&#10;&#9;&#9;&#9;&#9;c-0.3-0.3-0.8-0.3-1.1-0.1c-0.5,0.2-0.7,0.8-0.5,1.3l0,0c0.2,0.4,0.6,0.6,1,0.5l0.5,0.9c-0.9,0.3-1.9-0.1-2.3-1&#10;&#9;&#9;&#9;&#9;C244.2,288.7,244.6,287.4,245.6,286.9L245.6,286.9z" id="el_xCVeS4FYyqF"/>
			<path d="M249.2,294.5l-1.3-2.6c-0.4,0.3-0.5,0.8-0.3,1.2c0.1,0.3,0.4,0.5,0.8,0.5l0.5,1c-1.1,0.2-2.2-0.5-2.5-1.6&#10;&#9;&#9;&#9;&#9;c-0.2-1.1,0.5-2.2,1.7-2.5c1.1-0.2,2.2,0.5,2.5,1.6c0.2,0.9-0.2,1.8-1,2.2C249.4,294.4,249.3,294.4,249.2,294.5z M248.5,291.6&#10;&#9;&#9;&#9;&#9;l0.9,1.6c0.3-0.3,0.4-0.8,0.2-1.2C249.4,291.7,248.9,291.5,248.5,291.6L248.5,291.6z" id="el_ImqszVBlr2P"/>
			<path d="M251.8,298l-2.1,1.1l-0.5-0.9l1.9-1c0.5-0.3,0.7-0.6,0.5-1s-0.7-0.6-1.2-0.4c0,0-0.1,0-0.1,0.1l-1.8,0.9&#10;&#9;&#9;&#9;&#9;l-0.5-0.9l3.4-1.8l0.3,0.6l-0.3,0.4c0.5,0.1,0.9,0.4,1.1,0.9C252.9,296.7,252.6,297.5,251.8,298C252,298,251.9,298,251.8,298z" id="el_fZfi-bnxM7p"/>
			<path d="M251.2,299.1l0.5,0.9c-0.3,0.2-0.3,0.5-0.2,0.8c0.1,0.3,0.4,0.4,0.6,0.3s0.1-0.5,0-0.8&#10;&#9;&#9;&#9;&#9;c-0.2-0.6-0.4-1.4,0.4-1.8c0.6-0.3,1.4,0,1.8,0.8c0.4,0.6,0.3,1.4-0.3,1.9l-0.1,0.1l-0.5-0.9c0.3-0.1,0.3-0.4,0.1-0.7&#10;&#9;&#9;&#9;&#9;c-0.1-0.3-0.4-0.4-0.6-0.3s-0.1,0.4,0,0.8c0.2,0.6,0.4,1.4-0.4,1.8c-0.7,0.4-1.4,0-1.9-0.8c-0.5-0.6-0.3-1.5,0.4-2&#10;&#9;&#9;&#9;&#9;C251.1,299.2,251.2,299.1,251.2,299.1z" id="el_kzgCE-vAFfV"/>
			<path d="M255.1,305.8l-1.3-2.6c-0.4,0.3-0.5,0.8-0.3,1.2c0.1,0.3,0.4,0.5,0.8,0.5l0.5,1c-1.1,0.2-2.2-0.5-2.5-1.6&#10;&#9;&#9;&#9;&#9;c-0.2-1.1,0.5-2.2,1.6-2.5c1.1-0.2,2.2,0.5,2.5,1.6c0.2,0.9-0.2,1.8-1,2.2C255.3,305.7,255.2,305.7,255.1,305.8z M254.4,302.9&#10;&#9;&#9;&#9;&#9;l0.9,1.6c0.3-0.3,0.4-0.8,0.2-1.2C255.3,303,254.8,302.8,254.4,302.9L254.4,302.9z" id="el_aX6LN9FNkcp"/>
		</g>
	</g>
	<path id="el_z7kim7IgISh" d="M245.6,369.6l-6.5-57.6c-1.2-4.7-6.5-7.9-11.8-7c-5.3,0.8-7.4,2.8-7.4,10l0.1,15.2l0.8,9.6&#10;&#9;&#9;c-0.2,3.6,0.2,7.3,1.4,10.8c1.9,5.7,0.1-4-1.9,1.6l-0.6,1.8c-4,14-0.8,29.4,3.4,35.8c2.1,3.2,3.1,6,6.5,8.1&#10;&#9;&#9;c5.2,3.3,7.8,19.2,10.8,29.2c4.2,14.1,7.1,39.2,7.1,39.2l15,117.7h68.6l-67.9-212.9"/>
</g></g>
</svg>