<svg version="1.1" id="el_hl32nvw0p" xmlns="http://www.w3.org/2000/svg" xmlns:xlink="http://www.w3.org/1999/xlink" x="0px" y="0px" viewBox="0 0 360 584" style="enable-background:new 0 0 360 584;" xml:space="preserve"><style>@-webkit-keyframes kf_el_1iH5T8U0gzm_an_tP1_De58K{0%{-webkit-transform: translate(193.6104736328125px, 201.9999237060547px) translate(-193.6104736328125px, -201.9999237060547px) translate(50px, 380px);transform: translate(193.6104736328125px, 201.9999237060547px) translate(-193.6104736328125px, -201.9999237060547px) translate(50px, 380px);}16.67%{-webkit-transform: translate(193.6104736328125px, 201.9999237060547px) translate(-193.6104736328125px, -201.9999237060547px) translate(50px, 380px);transform: translate(193.6104736328125px, 201.9999237060547px) translate(-193.6104736328125px, -201.9999237060547px) translate(50px, 380px);}42.22%{-webkit-transform: translate(193.6104736328125px, 201.9999237060547px) translate(-193.6104736328125px, -201.9999237060547px) translate(0px, 0px);transform: translate(193.6104736328125px, 201.9999237060547px) translate(-193.6104736328125px, -201.9999237060547px) translate(0px, 0px);}44.44%{-webkit-transform: translate(193.6104736328125px, 201.9999237060547px) translate(-193.6104736328125px, -201.9999237060547px) translate(0px, 5px);transform: translate(193.6104736328125px, 201.9999237060547px) translate(-193.6104736328125px, -201.9999237060547px) translate(0px, 5px);}65.56%{-webkit-transform: translate(193.6104736328125px, 201.9999237060547px) translate(-193.6104736328125px, -201.9999237060547px) translate(0px, 5px);transform: translate(193.6104736328125px, 201.9999237060547px) translate(-193.6104736328125px, -201.9999237060547px) translate(0px, 5px);}82.22%{-webkit-transform: translate(193.6104736328125px, 201.9999237060547px) translate(-193.6104736328125px, -201.9999237060547px) translate(-100px, 380px);transform: translate(193.6104736328125px, 201.9999237060547px) translate(-193.6104736328125px, -201.9999237060547px) translate(-100px, 380px);}100%{-webkit-transform: translate(193.6104736328125px, 201.9999237060547px) translate(-193.6104736328125px, -201.9999237060547px) translate(-100px, 380px);transform: translate(193.6104736328125px, 201.9999237060547px) translate(-193.6104736328125px, -201.9999237060547px) translate(-100px, 380px);}}@keyframes kf_el_1iH5T8U0gzm_an_tP1_De58K{0%{-webkit-transform: translate(193.6104736328125px, 201.9999237060547px) translate(-193.6104736328125px, -201.9999237060547px) translate(50px, 380px);transform: translate(193.6104736328125px, 201.9999237060547px) translate(-193.6104736328125px, -201.9999237060547px) translate(50px, 380px);}16.67%{-webkit-transform: translate(193.6104736328125px, 201.9999237060547px) translate(-193.6104736328125px, -201.9999237060547px) translate(50px, 380px);transform: translate(193.6104736328125px, 201.9999237060547px) translate(-193.6104736328125px, -201.9999237060547px) translate(50px, 380px);}42.22%{-webkit-transform: translate(193.6104736328125px, 201.9999237060547px) translate(-193.6104736328125px, -201.9999237060547px) translate(0px, 0px);transform: translate(193.6104736328125px, 201.9999237060547px) translate(-193.6104736328125px, -201.9999237060547px) translate(0px, 0px);}44.44%{-webkit-transform: translate(193.6104736328125px, 201.9999237060547px) translate(-193.6104736328125px, -201.9999237060547px) translate(0px, 5px);transform: translate(193.6104736328125px, 201.9999237060547px) translate(-193.6104736328125px, -201.9999237060547px) translate(0px, 5px);}65.56%{-webkit-transform: translate(193.6104736328125px, 201.9999237060547px) translate(-193.6104736328125px, -201.9999237060547px) translate(0px, 5px);transform: translate(193.6104736328125px, 201.9999237060547px) translate(-193.6104736328125px, -201.9999237060547px) translate(0px, 5px);}82.22%{-webkit-transform: translate(193.6104736328125px, 201.9999237060547px) translate(-193.6104736328125px, -201.9999237060547px) translate(-100px, 380px);transform: translate(193.6104736328125px, 201.9999237060547px) translate(-193.6104736328125px, -201.9999237060547px) translate(-100px, 380px);}100%{-webkit-transform: translate(193.6104736328125px, 201.9999237060547px) translate(-193.6104736328125px, -201.9999237060547px) translate(-100px, 380px);transform: translate(193.6104736328125px, 201.9999237060547px) translate(-193.6104736328125px, -201.9999237060547px) translate(-100px, 380px);}}#el_hl32nvw0p *{-webkit-animation-duration: 3s;animation-duration: 3s;-webkit-animation-iteration-count: infinite;animation-iteration-count: infinite;-webkit-animation-timing-function: cubic-bezier(0, 0, 1, 1);animation-timing-function: cubic-bezier(0, 0, 1, 1);}#el_EHhiVOeZO_{fill: #161B1E;}#el_DldmV6qegt{fill: #252D33;}#el_I9Bsl5wJwy{fill: #252D33;}#el_k6ZKrtywFO{fill: #161B1E;}#el_BLXDgS5ui8{fill: #252D33;}#el_6cK7kTGtTj{fill: #FFFFFF;}#el_ljoT5qqebN{fill: #2A353F;}#el_Nz0ulQ3NE6{fill: #E6E7E8;}#el_fpHiPIHBTA{fill: #FFFFFF;}#el_mCigUc7g_I{fill: #E6E7E8;}#el_r1aym-8nN0{fill: #161B1E;}#el_pPYFggOlDi{fill: #161B1E;}#el_f8ybDiPtyGy{fill: #37E8D7;}#el_wghS2TJ_WGh{fill: #D0D2D3;}#el_mw2Kie_jyNu{fill: #D0D2D3;}#el_rvJt5JyL2h0{fill: #161B1E;}#el_qDu-_dMC3on{fill: #E6E7E8;}#el_ZMquihlhcO1{fill: #252D33;}#el_J2JTYx-9IVj{fill: #404041;}#el_lDa8BcVuGy5{fill: #F2F2F2;}#el_qm7eqbfQw8Y{fill: #FFFFFF;}#el_UFAGvOG-9RZ{fill: #0E4160;}#el_kuS_fUMAS8K{fill: #0E4160;}#el__gNovcjZn95{fill: #0E4160;}#el_xRpViFI9JMw{fill: #0E4160;}#el_XdCkTfenORq{fill: #0E4160;}#el_DdKtuZzqx7x{fill: #0E4160;}#el_4y8LRvt7IQP{fill: #0E4160;}#el_HQ1LNtMk9eS{fill: #0E4160;}#el_4Q0zOWPyb73{fill: #0E4160;}#el_6T_Tn2JQR2i{fill: #0E4160;}#el_pc5sJdFrndb{fill: #0E4160;}#el_5i2lgNPYNz_{fill: #0E4160;}#el_WugROI2Yvs1{fill: #FFFFFF;}#el_Nhu49xfTqBJ{fill: #FFFFFF;}#el_eBEjgrWzyzr{fill: #0E4160;}#el_ItSLOok2uWj{fill: #0E4160;}#el_8R6rjzIGWkn{fill: #FFFFFF;}#el_2r0qpN-GDht{fill: #0E4160;}#el_c31nV9Q-7Y1{fill: #0E4160;}#el_5_0GkSdU-BP{fill: #0E4160;}#el_gKmBXRN58Bd{fill: #0E4160;}#el_6o067CYVjie{fill: #0E4160;}#el_Xs90mlGhdTH{fill: none;stroke: #000000;stroke-width: 0.5077;stroke-miterlimit: 10;}#el_OrPAvGO9Wn9{display: none;fill: #B3B3B3;}#el_rRFoDc97hNc{fill: #B3B3B3;}#el_STsYSFK2g0q{fill: #B3B3B3;}#el_2crIW1jDaTG{fill: #B3B3B3;}#el_x3IsLXlBgmL{fill: #B3B3B3;}#el_8rsvWVPMfSa{fill: #FFFFFF;}#el_lPl1-LnDnZr{fill: #B3B3B3;}#el_1iH5T8U0gzm_an_tP1_De58K{-webkit-animation-fill-mode: backwards;animation-fill-mode: backwards;-webkit-transform: translate(193.6104736328125px, 201.9999237060547px) translate(-193.6104736328125px, -201.9999237060547px) translate(50px, 380px);transform: translate(193.6104736328125px, 201.9999237060547px) translate(-193.6104736328125px, -201.9999237060547px) translate(50px, 380px);-webkit-animation-name: kf_el_1iH5T8U0gzm_an_tP1_De58K;animation-name: kf_el_1iH5T8U0gzm_an_tP1_De58K;-webkit-animation-timing-function: cubic-bezier(0.42, 0, 0.58, 1);animation-timing-function: cubic-bezier(0.42, 0, 0.58, 1);}</style>
<style>svg { cursor: none; }</style>
<title>Artboard 1</title>
<g id="el_r1JjYam0GF">
	<path d="M294.4,61.2v123.6c-0.1,4.4-3.8,8-8.2,7.9H73.8c-4.4,0.1-8.1-3.4-8.2-7.9V61.2c0.1-4.4,3.8-8,8.2-7.9h212.4&#xA;&#9;&#9;C290.7,53.2,294.3,56.7,294.4,61.2L294.4,61.2z" id="el_EHhiVOeZO_"/>
	<path d="M56.4,150.2V457h-51H1.3l-0.2-0.2L1,456.3l-0.2-0.8l-0.1-1.1L0.6,453l-0.1-1.7l-0.1-1.9l-0.1-2.1l-0.1-2.2&#xA;&#9;&#9;v-2.3v-2.4v-87.3c0-6.3,0.1-12.5,0.2-18.5l4.4-184.5h51.6V150.2z" id="el_DldmV6qegt"/>
	<path d="M336.6,457V150.2h18.6l4.4,184.5c0.1,5.9,0.2,12.2,0.2,18.5v87.3v2.4v2.3l-0.1,2.2l-0.1,2.1l-0.1,1.9l-0.1,1.7&#xA;&#9;&#9;l-0.1,1.4l-0.1,1.1l-0.1,0.8l-0.2,0.5l-0.1,0.2h-4.2h-18V457z" id="el_I9Bsl5wJwy"/>
	<path d="M187.7,30.6c0.2-4.3-3.1-7.9-7.4-8c-4.3-0.2-7.9,3.1-8,7.4s3.1,7.9,7.4,8c0.1,0,0.2,0,0.3,0&#xA;&#9;&#9;C184.2,38.1,187.6,34.8,187.7,30.6z" id="el_k6ZKrtywFO"/>
	<g id="el_oe67JaKr2k">
		<g id="el_177iucisiB">
			<path d="M359.9,440.5v2.4v2.3l-0.1,2.2l-0.1,2.1l-0.1,1.9l-0.1,1.7l-0.1,1.4l-0.1,1.1l-0.1,0.8l-0.2,0.5l-0.1,0.2&#xA;&#9;&#9;&#9;&#9;h-4.2c0.5-5,0.7-10.1,0.7-15.1V150.2l4.4,184.5c0.1,5.9,0.2,12.2,0.2,18.5L359.9,440.5L359.9,440.5z" id="el_BLXDgS5ui8"/>
			<path d="M355.2,413.5v28.3c0.1,5-0.1,10.1-0.7,15.1c-0.1,0.6-0.2,0.9-0.3,0.9H5.8c-0.1,0-0.2-0.3-0.3-0.9&#xA;&#9;&#9;&#9;&#9;c-0.5-5-0.8-10.1-0.7-15.1v-28.3c0,10.4,8.5,18.9,18.9,18.9l0,0h312.6C346.8,432.4,355.2,424,355.2,413.5L355.2,413.5z" id="el_6cK7kTGtTj"/>
			<path d="M11.5,18.5c3.4-2.8,7.7-4.3,12.2-4.2h312.6c4.4-0.1,8.8,1.4,12.2,4.3c4.1,3.4,6.6,8.5,6.7,13.8v381.1&#xA;&#9;&#9;&#9;&#9;c0,10.4-8.4,18.9-18.9,18.9l0,0H23.7c-10.4,0-18.9-8.5-18.9-18.9l0,0V32.4l0,0C4.9,27,7.4,21.9,11.5,18.5z M294.8,309.6v-74.3&#xA;&#9;&#9;&#9;&#9;c-0.1-2.5-2.2-4.6-4.7-4.5l0,0H180.2c-2.5-0.1-4.6,1.9-4.7,4.5l0,0v74.3c0.1,2.5,2.2,4.6,4.7,4.5H290&#xA;&#9;&#9;&#9;&#9;C292.6,314.1,294.7,312.1,294.8,309.6L294.8,309.6z M285.3,179.9V66.1c-0.1-4.1-3.5-7.3-7.5-7.2H82.2c-4.1-0.1-7.5,3.2-7.5,7.2&#xA;&#9;&#9;&#9;&#9;v113.8c0.1,4.1,3.5,7.3,7.5,7.2h195.5C281.8,187.2,285.2,183.9,285.3,179.9L285.3,179.9z M276.7,375.2v-3.8c0-0.5-0.4-0.9-1-0.9&#xA;&#9;&#9;&#9;&#9;l0,0h-81.2c-0.5,0-0.9,0.4-0.9,0.9l0,0v3.8c0,0.5,0.4,0.9,0.9,0.9h81.2C276.2,376.2,276.7,375.8,276.7,375.2z M186.6,30.6&#xA;&#9;&#9;&#9;&#9;c0.2-3.7-2.7-6.7-6.3-6.9c-3.7-0.2-6.7,2.7-6.9,6.3s2.7,6.7,6.3,6.9c0.1,0,0.2,0,0.3,0C183.6,37,186.5,34.2,186.6,30.6z&#xA;&#9;&#9;&#9;&#9; M120.7,304.3v-14.5c0-1.5-1.3-2.8-2.8-2.7l0,0H48c-1.5,0-2.8,1.2-2.8,2.7v14.5c0,1.5,1.3,2.7,2.8,2.7h69.9&#xA;&#9;&#9;&#9;&#9;C119.4,307,120.7,305.8,120.7,304.3L120.7,304.3z M97.5,315.9c0.1-1.5-1.1-2.8-2.6-2.8l0,0H71.1c-1.5-0.1-2.8,1.1-2.8,2.6&#xA;&#9;&#9;&#9;&#9;c-0.1,1.5,1.1,2.8,2.6,2.8h23.8C96.2,318.6,97.5,317.4,97.5,315.9z" id="el_ljoT5qqebN"/>
			<path d="M7.6,457.9h344.9c-0.1,0.3-0.4,0.7-0.7,0.9l-28.6,23c-0.4,0.3-1,0.5-1.5,0.5H38.3c-0.5,0-1.1-0.2-1.5-0.5&#xA;&#9;&#9;&#9;&#9;l-28.6-23C7.9,458.6,7.7,458.3,7.6,457.9z" id="el_Nz0ulQ3NE6"/>
			<path d="M348.4,11.5l0.1,7.1c-3.4-2.9-7.7-4.4-12.2-4.3H23.7c-4.4-0.1-8.8,1.4-12.2,4.2l0.1-7&#xA;&#9;&#9;&#9;&#9;C11.8,4.7,12.2,0,12.6,0h334.8C347.8,0,348.2,4.7,348.4,11.5z" id="el_fpHiPIHBTA"/>
			<path d="M294.8,236.4v73.2c-0.1,2.6-2.2,4.6-4.7,4.5H180.2c-2.5,0-4.7-2-4.7-4.5v-73.2c0.1-2.5,2.2-4.6,4.7-4.5H290&#xA;&#9;&#9;&#9;&#9;C292.6,231.8,294.7,233.8,294.8,236.4z" id="el_mCigUc7g_I"/>
			<path d="M294.8,235.3v1.1c-0.1-2.6-2.2-4.6-4.7-4.5H180.2c-2.5,0-4.7,2-4.7,4.5v-1.1c0-2.5,2.1-4.6,4.7-4.5l0,0H290&#xA;&#9;&#9;&#9;&#9;C292.6,230.7,294.7,232.7,294.8,235.3L294.8,235.3z" id="el_r1aym-8nN0"/>
			<path d="M282.5,67.2c-0.1-2.5-2.2-4.6-4.7-4.5H82.2c-2.6,0-4.7,2-4.7,4.5v113.5c0.1,2.6,2.2,4.6,4.7,4.5h195.5&#xA;&#9;&#9;&#9;&#9;c2.5,0,4.7-2,4.7-4.5L282.5,67.2z M285.3,66.1v113.8c-0.1,4.1-3.5,7.3-7.5,7.2H82.2c-4.1,0.1-7.5-3.2-7.5-7.2V66.1&#xA;&#9;&#9;&#9;&#9;c0.1-4.1,3.5-7.3,7.5-7.2h195.5C281.8,58.8,285.2,62,285.3,66.1L285.3,66.1z" id="el_pPYFggOlDi"/>
			<path d="M282.5,67.2v113.5c-0.1,2.5-2.2,4.6-4.7,4.5H82.2c-2.6,0-4.7-2-4.7-4.5V67.2c0.1-2.6,2.2-4.6,4.7-4.5h195.5&#xA;&#9;&#9;&#9;&#9;C280.3,62.6,282.4,64.6,282.5,67.2z" id="el_f8ybDiPtyGy"/>
			<path d="M276.7,371.5v3.8c0,0.5-0.4,0.9-1,0.9h-81.2c-0.5,0-0.9-0.4-0.9-0.9v-3.8c0-0.5,0.4-0.9,0.9-0.9l0,0h81.2&#xA;&#9;&#9;&#9;&#9;C276.2,370.5,276.7,370.9,276.7,371.5C276.7,371.4,276.7,371.4,276.7,371.5z" id="el_KnTOcnVFlyu"/>
			<path d="M180.2,27.4c2,0.1,3.5,1.8,3.4,3.8s-1.8,3.5-3.8,3.4c-1.9-0.1-3.4-1.7-3.4-3.6C176.5,29,178.1,27.4,180.2,27.4z" id="el_-7ixsvAEZIB"/>
			<path d="M120.7,301.7v2.5c0,1.5-1.3,2.8-2.8,2.7H48c-1.5,0-2.8-1.2-2.8-2.7v-2.5H120.7z" id="el_wghS2TJ_WGh"/>
			<rect x="45.1" y="295.9" width="75.6" height="5.8" id="el_ACRN2eullZK"/>
			<path d="M120.7,290.8v5.1H45.1v-5.1c0-1.5,1.3-2.7,2.8-2.7h69.9C119.4,288.1,120.7,289.3,120.7,290.8z" id="el_mw2Kie_jyNu"/>
			<path d="M120.7,289.8v1.1c0-1.5-1.3-2.7-2.8-2.7H48c-1.5,0-2.8,1.2-2.8,2.7v-1.1c0-1.5,1.3-2.8,2.8-2.7h69.9&#xA;&#9;&#9;&#9;&#9;C119.4,287,120.7,288.2,120.7,289.8L120.7,289.8z" id="el_rvJt5JyL2h0"/>
			<path d="M94.9,313.1c1.5,0.1,2.7,1.3,2.6,2.8s-1.3,2.7-2.8,2.6H70.9c-1.5-0.1-2.7-1.3-2.6-2.8s1.3-2.7,2.8-2.6H94.9z&#xA;&#9;&#9;&#9;&#9;" id="el_qDu-_dMC3on"/>
			<path d="M5.4,457H1.3l-0.2-0.2L1,456.3l-0.2-0.8l-0.1-1.1L0.6,453l-0.1-1.7l-0.1-1.9l-0.1-2.1l-0.1-2.2v-2.3v-2.4&#xA;&#9;&#9;&#9;&#9;v-87.3c0-6.3,0.1-12.5,0.2-18.5l4.4-184.5v291.7C4.7,446.9,4.9,452,5.4,457z" id="el_ZMquihlhcO1"/>
		</g>
		<circle cx="235.1" cy="278.4" r="3" id="el_J2JTYx-9IVj"/>
		<g id="el_NJNR3vPE-oe">
			<g id="el_VRpSqcW2kJ5">
				<polygon points="248.2,153.6 245.2,150.5 242.1,153.6 239.1,150.5 236.1,153.6 233,150.5 230,153.6 227,150.5 &#xA;&#9;&#9;&#9;&#9;&#9;223.9,153.6 220.9,150.5 217.9,153.6 214.8,150.5 211.8,153.6 211.8,83.8 214.8,86.9 217.9,83.8 220.9,86.9 223.9,83.8 &#xA;&#9;&#9;&#9;&#9;&#9;227,86.9 230,83.8 233,86.9 236.1,83.8 239.1,86.9 242.1,83.8 245.2,86.9 248.2,83.8 &#9;&#9;&#9;&#9;" id="el_lDa8BcVuGy5"/>
			</g>
			<g id="el_AQCnEQ8md2i">
				<rect x="217.5" y="95.8" width="25.1" height="25.5" id="el_qm7eqbfQw8Y"/>
				<g id="el_4yv7WZIoFQt">
					<rect x="217.5" y="95.8" width="8.4" height="8.5" id="el_UFAGvOG-9RZ"/>
					<rect x="225.8" y="95.8" width="4.2" height="4.3" id="el_kuS_fUMAS8K"/>
					<rect x="230" y="100.1" width="4.2" height="4.3" id="el__gNovcjZn95"/>
					<rect x="234.2" y="95.8" width="4.2" height="4.3" id="el_xRpViFI9JMw"/>
					<rect x="238.4" y="100.1" width="4.2" height="8.5" id="el_XdCkTfenORq"/>
					<rect x="230" y="108.6" width="4.2" height="4.3" id="el_DdKtuZzqx7x"/>
					<polygon points="234.2,112.8 234.2,117.1 238.4,117.1 238.4,121.3 242.5,121.3 242.5,112.8 &#9;&#9;&#9;&#9;&#9;" id="el_4y8LRvt7IQP"/>
					<rect x="225.8" y="112.8" width="4.2" height="4.3" id="el_HQ1LNtMk9eS"/>
					<rect x="221.6" y="104.3" width="4.2" height="4.3" id="el_4Q0zOWPyb73"/>
					<rect x="217.5" y="112.8" width="4.2" height="4.3" id="el_6T_Tn2JQR2i"/>
					<rect x="221.6" y="117.1" width="4.2" height="4.3" id="el_pc5sJdFrndb"/>
					<rect x="217.5" y="117.1" width="4.2" height="4.3" id="el_5i2lgNPYNz_"/>
				</g>
			</g>
			<g id="el_QLmJRIwtWRC">
				<path d="M173.7,99.8H99.8c-1.2,0-2.2-1-2.2-2.2s1-2.2,2.2-2.2h73.9c1.2,0,2.2,1,2.2,2.2S175,99.8,173.7,99.8z" id="el_WugROI2Yvs1"/>
				<path d="M151.5,110.9H99.8c-1.2,0-2.2-1-2.2-2.2s1-2.2,2.2-2.2h51.7c1.2,0,2.2,1,2.2,2.2S152.7,110.9,151.5,110.9z" id="el_Nhu49xfTqBJ"/>
				<path d="M151.5,127.2H99.8c-0.6,0-1.1-0.5-1.1-1.1s0.5-1.1,1.1-1.1h51.7c0.6,0,1.1,0.5,1.1,1.1&#xA;&#9;&#9;&#9;&#9;&#9;S152.1,127.2,151.5,127.2z" id="el_eBEjgrWzyzr"/>
				<path d="M139.8,135.6h-40c-0.6,0-1.1-0.5-1.1-1.1s0.5-1.1,1.1-1.1h40c0.6,0,1.1,0.5,1.1,1.1&#xA;&#9;&#9;&#9;&#9;&#9;S140.4,135.6,139.8,135.6z" id="el_ItSLOok2uWj"/>
				<path d="M139.8,150.5h-40c-0.6,0-1.1-0.5-1.1-1.1s0.5-1.1,1.1-1.1h40c0.6,0,1.1,0.5,1.1,1.1&#xA;&#9;&#9;&#9;&#9;&#9;S140.4,150.5,139.8,150.5z" id="el_8R6rjzIGWkn"/>
			</g>
			<path d="M240.3,126.7h-22.7c-0.2,0-0.3-0.1-0.3-0.3s0.1-0.3,0.3-0.3h22.7c0.2,0,0.3,0.1,0.3,0.3&#xA;&#9;&#9;&#9;&#9;C240.6,126.5,240.5,126.7,240.3,126.7z" id="el_2r0qpN-GDht"/>
			<path d="M240.3,128.4h-22.7c-0.2,0-0.3-0.1-0.3-0.3s0.1-0.3,0.3-0.3h22.7c0.2,0,0.3,0.1,0.3,0.3&#xA;&#9;&#9;&#9;&#9;S240.5,128.4,240.3,128.4z" id="el_c31nV9Q-7Y1"/>
			<path d="M240.3,130.4h-22.7c-0.2,0-0.3-0.1-0.3-0.3s0.1-0.3,0.3-0.3h22.7c0.2,0,0.3,0.1,0.3,0.3&#xA;&#9;&#9;&#9;&#9;C240.6,130.3,240.5,130.4,240.3,130.4z" id="el_5_0GkSdU-BP"/>
			<path d="M227.8,134.9h-10.2c-0.2,0-0.3-0.1-0.3-0.3s0.1-0.3,0.3-0.3h10.2c0.2,0,0.3,0.1,0.3,0.3&#xA;&#9;&#9;&#9;&#9;C228.1,134.8,227.9,134.9,227.8,134.9z" id="el_gKmBXRN58Bd"/>
			<path d="M240.5,134.9h-10.2c-0.2,0-0.3-0.1-0.3-0.3s0.1-0.3,0.3-0.3h10.2c0.2,0,0.3,0.1,0.3,0.3&#xA;&#9;&#9;&#9;&#9;C240.8,134.8,240.7,134.9,240.5,134.9z" id="el_6o067CYVjie"/>
		</g>
	</g>
	<g id="el_NUylqjnhvny">
		<path d="M276.8,370.5h11.5c3.6,0,6.5,2.9,6.5,6.4c0,0,0,0,0,0.1v24.2c0,3.6-2.9,6.5-6.4,6.5c0,0,0,0-0.1,0H182.9&#xA;&#9;&#9;&#9;c-3.6,0-6.5-2.9-6.5-6.4c0,0,0,0,0-0.1V377c0-3.6,2.9-6.5,6.4-6.5c0,0,0,0,0.1,0H276.8L276.8,370.5z" id="el_Xs90mlGhdTH"/>
	</g>
</g>
<g id="el_1iH5T8U0gzm_an_tP1_De58K" data-animator-group="true" data-animator-type="0"><g id="el_1iH5T8U0gzm">
	<polygon points="215,334.1 242.8,350.7 260.7,323.6 233.6,308.8 &#9;" id="el_OrPAvGO9Wn9"/>
	<path id="el_rRFoDc97hNc" d="M208.4,307.9C208.5,307.9,208.5,307.9,208.4,307.9L208.4,307.9l37.3,8.3l-3.5,8.3&#xA;&#9;&#9;l-34.8-0.2l0,0c0,0,0,0-0.1,0c-4.9,0-8.6-3.7-8.3-8.3S202.9,306.5,208.4,307.9z"/>
	<path id="el_STsYSFK2g0q" d="M211.2,320.3L211.2,320.3L211.2,320.3l33-1.9l2.1,15.1l-33,1.8l0,0c0,0,0,0-0.1,0&#xA;&#9;&#9;c-4.6,0.3-8.9-2.9-9.4-7.1S206.6,320.5,211.2,320.3z"/>
	<path id="el_2crIW1jDaTG" d="M213.7,333.1L213.7,333.1L213.7,333.1l30,1.3l-0.1,13.6l-29.9-1.3l0,0c0,0,0,0-0.1,0&#xA;&#9;&#9;c-4.2-0.2-7.6-3.4-7.6-7.2S209.4,332.9,213.7,333.1z"/>
	<path id="el_x3IsLXlBgmL" d="M244.5,297c1.8-0.1,3.6,0.5,4.9,1.7l14.7,12.4c2.1,1.9,3.3,4.5,3.3,7.3l0.5,54.3&#xA;&#9;&#9;c0,3.2-2.9,5.6-6.5,5.4l-13-0.6c-3.6-0.2-6.5-2.9-6.5-6l2.6-45.4l-11.4-9.6l-24.5-0.3c-10.5,0.2-16.4-4.5-14.7-10.6&#xA;&#9;&#9;c1-3.6,3.1-6.2,11.1-6.1L244.5,297z"/>
	<g id="el_jRHPFqWHtMu">
		<g id="el_PxyIK85anjO">
			<path d="M204.2,209.2l1.8,35.2c1.4,27.1,5.4,54,11.9,80.4l0,0l4.4-5.6l5.6,4.4l4.4-5.6l5.6,4.4l4.4-5.6l5.6,4.4&#xA;&#9;&#9;&#9;&#9;l4.4-5.6l5.6,4.4l4.4-5.6l5.6,4.4l4.4-5.6l5.6,4.4l0,0c-6.5-26.3-10.5-53.2-11.9-80.4l-1.8-35.2l-4.4,5.6l-5.6-4.4l-4.4,5.6&#xA;&#9;&#9;&#9;&#9;l-5.6-4.4l-4.4,5.6l-5.6-4.4l-4.4,5.6l-5.6-4.4l-4.4,5.6l-5.6-4.4l-4.4,5.6L204.2,209.2z" id="el_8rsvWVPMfSa"/>
		</g>
	</g>
	<path id="el_lPl1-LnDnZr" d="M250.3,357l-6.5-57.6c-1.2-4.7-6.5-7.9-11.8-7c-5.3,0.8-7.4,2.8-7.4,10l0.1,15.2l0.8,9.6&#xA;&#9;&#9;c-0.2,3.6,0.2,7.3,1.4,10.8c1.9,5.7,0.1-4-1.9,1.6l-0.6,1.8c-4,14-0.8,29.4,3.4,35.8c2.1,3.2,3.1,6,6.5,8.1&#xA;&#9;&#9;c5.2,3.3,7.8,19.2,10.8,29.2c4.2,14.1,7.1,39.2,7.1,39.2L268.8,584h71l-71.9-225.5"/>
</g></g>
</svg>