<svg version="1.1" id="el_hqrj8qcBY" xmlns="http://www.w3.org/2000/svg" xmlns:xlink="http://www.w3.org/1999/xlink" x="0px" y="0px" viewBox="0 0 360 584" style="enable-background:new 0 0 360 584;" xml:space="preserve"> <style>svg {cursor : none;}</style><style>@-webkit-keyframes kf_el_-94n8RkDMHR_an_0srVH0Jw8{0%{-webkit-transform: translate(187.2067108154297px, 233.6031036376953px) translate(-187.2067108154297px, -233.6031036376953px) translate(50px, 355px);transform: translate(187.2067108154297px, 233.6031036376953px) translate(-187.2067108154297px, -233.6031036376953px) translate(50px, 355px);}16.67%{-webkit-transform: translate(187.2067108154297px, 233.6031036376953px) translate(-187.2067108154297px, -233.6031036376953px) translate(50px, 355px);transform: translate(187.2067108154297px, 233.6031036376953px) translate(-187.2067108154297px, -233.6031036376953px) translate(50px, 355px);}41.11%{-webkit-transform: translate(187.2067108154297px, 233.6031036376953px) translate(-187.2067108154297px, -233.6031036376953px) translate(0px, 0px);transform: translate(187.2067108154297px, 233.6031036376953px) translate(-187.2067108154297px, -233.6031036376953px) translate(0px, 0px);}43.33%{-webkit-transform: translate(187.2067108154297px, 233.6031036376953px) translate(-187.2067108154297px, -233.6031036376953px) translate(0px, 5px);transform: translate(187.2067108154297px, 233.6031036376953px) translate(-187.2067108154297px, -233.6031036376953px) translate(0px, 5px);}65.56%{-webkit-transform: translate(187.2067108154297px, 233.6031036376953px) translate(-187.2067108154297px, -233.6031036376953px) translate(0px, 5px);transform: translate(187.2067108154297px, 233.6031036376953px) translate(-187.2067108154297px, -233.6031036376953px) translate(0px, 5px);}80%{-webkit-transform: translate(187.2067108154297px, 233.6031036376953px) translate(-187.2067108154297px, -233.6031036376953px) translate(-100px, 355px);transform: translate(187.2067108154297px, 233.6031036376953px) translate(-187.2067108154297px, -233.6031036376953px) translate(-100px, 355px);}100%{-webkit-transform: translate(187.2067108154297px, 233.6031036376953px) translate(-187.2067108154297px, -233.6031036376953px) translate(-100px, 355px);transform: translate(187.2067108154297px, 233.6031036376953px) translate(-187.2067108154297px, -233.6031036376953px) translate(-100px, 355px);}}@keyframes kf_el_-94n8RkDMHR_an_0srVH0Jw8{0%{-webkit-transform: translate(187.2067108154297px, 233.6031036376953px) translate(-187.2067108154297px, -233.6031036376953px) translate(50px, 355px);transform: translate(187.2067108154297px, 233.6031036376953px) translate(-187.2067108154297px, -233.6031036376953px) translate(50px, 355px);}16.67%{-webkit-transform: translate(187.2067108154297px, 233.6031036376953px) translate(-187.2067108154297px, -233.6031036376953px) translate(50px, 355px);transform: translate(187.2067108154297px, 233.6031036376953px) translate(-187.2067108154297px, -233.6031036376953px) translate(50px, 355px);}41.11%{-webkit-transform: translate(187.2067108154297px, 233.6031036376953px) translate(-187.2067108154297px, -233.6031036376953px) translate(0px, 0px);transform: translate(187.2067108154297px, 233.6031036376953px) translate(-187.2067108154297px, -233.6031036376953px) translate(0px, 0px);}43.33%{-webkit-transform: translate(187.2067108154297px, 233.6031036376953px) translate(-187.2067108154297px, -233.6031036376953px) translate(0px, 5px);transform: translate(187.2067108154297px, 233.6031036376953px) translate(-187.2067108154297px, -233.6031036376953px) translate(0px, 5px);}65.56%{-webkit-transform: translate(187.2067108154297px, 233.6031036376953px) translate(-187.2067108154297px, -233.6031036376953px) translate(0px, 5px);transform: translate(187.2067108154297px, 233.6031036376953px) translate(-187.2067108154297px, -233.6031036376953px) translate(0px, 5px);}80%{-webkit-transform: translate(187.2067108154297px, 233.6031036376953px) translate(-187.2067108154297px, -233.6031036376953px) translate(-100px, 355px);transform: translate(187.2067108154297px, 233.6031036376953px) translate(-187.2067108154297px, -233.6031036376953px) translate(-100px, 355px);}100%{-webkit-transform: translate(187.2067108154297px, 233.6031036376953px) translate(-187.2067108154297px, -233.6031036376953px) translate(-100px, 355px);transform: translate(187.2067108154297px, 233.6031036376953px) translate(-187.2067108154297px, -233.6031036376953px) translate(-100px, 355px);}}#el_hqrj8qcBY *{-webkit-animation-duration: 3s;animation-duration: 3s;-webkit-animation-iteration-count: infinite;animation-iteration-count: infinite;-webkit-animation-timing-function: cubic-bezier(0, 0, 1, 1);animation-timing-function: cubic-bezier(0, 0, 1, 1);}#el__vLvSf2KAt{fill: #161B1E;}#el_lORMpd188x{fill: #252D33;}#el_wJ5E8ObWB1{fill: #252D33;}#el_GDVB9YQrHb{fill: #161B1E;}#el_jiSfEVx1EX{fill: #252D33;}#el_TrvyQXCAxr{fill: #FFFFFF;}#el_fSB-gesaWm{fill: #2A353F;}#el_A45u0jgwJE{fill: #E6E7E8;}#el_6iKdCoFbtE{fill: #FFFFFF;}#el__bTJKdsWRM{fill: #E6E7E8;}#el_LdBMvYasDQ{fill: #161B1E;}#el_ZH9sYJgjU8{fill: #161B1E;}#el_F-6bt52zUHd{fill: #37E8D7;}#el_GqAXEU1LAgo{fill: #D0D2D3;}#el_XgINxl3IHVz{fill: #D0D2D3;}#el_vjWX-gI-Ylh{fill: #161B1E;}#el_OHF4bewd9Xm{fill: #E6E7E8;}#el_G3UKLVqefWH{fill: #252D33;}#el_SVaVS0X3my5{fill: #404041;}#el_DUrf8sJ-9DV{fill: #FFFFFF;}#el_mPilzkYR3Er{fill: #FFFFFF;}#el_18FMQIOS6BS{fill: #0E4160;}#el_yUVsKjE-PHo{fill: #0E4160;}#el_xhCn7bdrm-_{fill: #FFFFFF;}#el_ptmwit89i4b{fill: #FFFFFF;}#el_ydePBrZKN0W{fill: #F2F2F2;}#el_ctV475L94tq{fill: #414042;}#el_2F8pARDguZM{fill: #414042;}#el_JvnSge-hiK9{fill: #414042;}#el_ouhyNraLNwK{fill: #414042;}#el_RqsDNvWAucE{fill: #414042;}#el_yqm9Gd8K3v8{fill: #414042;}#el_wjdOJw222uO{fill: none;stroke: #000000;stroke-width: 0.5077;stroke-miterlimit: 10;}#el_YuxF-92PN6C{display: none;fill: #B3B3B3;}#el_Eh4Ip2NFjbo{fill: #B3B3B3;}#el_YpaCcjw8qu2{fill: #B3B3B3;}#el_wgF6a5_BEk2{fill: #B3B3B3;}#el_jKdllEgobE9{fill: #B3B3B3;}#el_z3JdfB8KW11{fill: #CB6560;}#el_5DDVh6xIxRS{fill: #2CB9AC;}#el_JpLfdaw5sVw{fill: #FE7F78;}#el__qZUq7SavVb{fill: #37E8D7;}#el_j59P0grqMJb{fill: #4A4A4A;-webkit-transform: matrix(0.8872, -0.4614, 0.4614, 0.8872, -100.7773, 143.1752);transform: matrix(0.8872, -0.4614, 0.4614, 0.8872, -100.7773, 143.1752);}#el_ZRne4o9FfrZ{fill: none;stroke: #4A4A4A;stroke-width: 0.8792;stroke-miterlimit: 10;}#el_atQRz6Rmp5I{fill: none;stroke: #4A4A4A;stroke-width: 0.8792;stroke-miterlimit: 10;}#el_qcmB-oB6Wif{fill: none;stroke: #4A4A4A;stroke-width: 0.8792;stroke-miterlimit: 10;}#el_QJT1SWNn6QN{fill: none;stroke: #4A4A4A;stroke-width: 0.8792;stroke-miterlimit: 10;}#el_Isr8iUi6UFR{fill: #4A4A4A;}#el_LUG2pfP9uSS{fill: #4A4A4A;-webkit-transform: matrix(0.8872, -0.4614, 0.4614, 0.8872, -98.0813, 121.565);transform: matrix(0.8872, -0.4614, 0.4614, 0.8872, -98.0813, 121.565);}#el_UAi74q6UCL_{fill: #4A4A4A;-webkit-transform: matrix(0.8872, -0.4614, 0.4614, 0.8872, -98.4073, 121.8409);transform: matrix(0.8872, -0.4614, 0.4614, 0.8872, -98.4073, 121.8409);}#el__CCSp2YjvUn{fill: #4A4A4A;-webkit-transform: matrix(0.8872, -0.4614, 0.4614, 0.8872, -98.7333, 122.1165);transform: matrix(0.8872, -0.4614, 0.4614, 0.8872, -98.7333, 122.1165);}#el_VU3ASJMtdzC{fill: #4A4A4A;-webkit-transform: matrix(0.8872, -0.4614, 0.4614, 0.8872, -99.0593, 122.3924);transform: matrix(0.8872, -0.4614, 0.4614, 0.8872, -99.0593, 122.3924);}#el_i6mOXyHLeHk{fill: #4A4A4A;-webkit-transform: matrix(0.8867, -0.4623, 0.4623, 0.8867, -99.5275, 122.982);transform: matrix(0.8867, -0.4623, 0.4623, 0.8867, -99.5275, 122.982);}#el_QR5pI0F8ArV{fill: #4A4A4A;-webkit-transform: matrix(0.8872, -0.4614, 0.4614, 0.8872, -99.5484, 122.8061);transform: matrix(0.8872, -0.4614, 0.4614, 0.8872, -99.5484, 122.8061);}#el_LconbU1jZ4s{fill: #4A4A4A;-webkit-transform: matrix(0.8872, -0.4614, 0.4614, 0.8872, -99.8202, 123.0633);transform: matrix(0.8872, -0.4614, 0.4614, 0.8872, -99.8202, 123.0633);}#el_A_5vwRB2fXF{fill: #4A4A4A;-webkit-transform: matrix(0.8872, -0.4614, 0.4614, 0.8872, -100.146, 123.3434);transform: matrix(0.8872, -0.4614, 0.4614, 0.8872, -100.146, 123.3434);}#el_I4hUcEOyPya{fill: #4A4A4A;-webkit-transform: matrix(0.8872, -0.4614, 0.4614, 0.8872, -100.4722, 123.615);transform: matrix(0.8872, -0.4614, 0.4614, 0.8872, -100.4722, 123.615);}#el_JW7C6PKhFmP{fill: #4A4A4A;}#el_CoiGsZQVupA{fill: #4A4A4A;-webkit-transform: matrix(0.8867, -0.4623, 0.4623, 0.8867, -101.3782, 124.6042);transform: matrix(0.8867, -0.4623, 0.4623, 0.8867, -101.3782, 124.6042);}#el_tmD4-_eGRaO{fill: #4A4A4A;-webkit-transform: matrix(0.8871, -0.4615, 0.4615, 0.8871, -101.4103, 124.4646);transform: matrix(0.8871, -0.4615, 0.4615, 0.8871, -101.4103, 124.4646);}#el_eakvVhkm4VZ{fill: #4A4A4A;}#el_4AvhsrAh9Zf{fill: #4A4A4A;-webkit-transform: matrix(0.8872, -0.4614, 0.4614, 0.8872, -102.2108, 125.1175);transform: matrix(0.8872, -0.4614, 0.4614, 0.8872, -102.2108, 125.1175);}#el_bgOkztA4_z-{fill: #4A4A4A;-webkit-transform: matrix(0.8871, -0.4615, 0.4615, 0.8871, -102.5515, 125.43);transform: matrix(0.8871, -0.4615, 0.4615, 0.8871, -102.5515, 125.43);}#el_M6k82Hq1zpZ{fill: #4A4A4A;-webkit-transform: matrix(0.8872, -0.4614, 0.4614, 0.8872, -102.7903, 125.7048);transform: matrix(0.8872, -0.4614, 0.4614, 0.8872, -102.7903, 125.7048);}#el_RDnFHljdTsw{fill: #4A4A4A;-webkit-transform: matrix(0.8872, -0.4614, 0.4614, 0.8872, -103.1163, 125.9807);transform: matrix(0.8872, -0.4614, 0.4614, 0.8872, -103.1163, 125.9807);}#el_7fkmPTIDmij{fill: #4A4A4A;}#el_xLqCJsLVXpk{fill: #4A4A4A;-webkit-transform: matrix(0.8871, -0.4615, 0.4615, 0.8871, -103.9463, 126.7073);transform: matrix(0.8871, -0.4615, 0.4615, 0.8871, -103.9463, 126.7073);}#el_sxsZgtBMf7d{fill: #4A4A4A;-webkit-transform: matrix(0.8867, -0.4623, 0.4623, 0.8867, -104.3193, 127.2215);transform: matrix(0.8867, -0.4623, 0.4623, 0.8867, -104.3193, 127.2215);}#el_0j8pYLXJRJ7{fill: #4A4A4A;-webkit-transform: matrix(0.8872, -0.4614, 0.4614, 0.8872, -104.3681, 127.0652);transform: matrix(0.8872, -0.4614, 0.4614, 0.8872, -104.3681, 127.0652);}#el_JWyM5bDuawW{fill: #4A4A4A;-webkit-transform: matrix(0.8872, -0.4614, 0.4614, 0.8872, -104.6939, 127.3454);transform: matrix(0.8872, -0.4614, 0.4614, 0.8872, -104.6939, 127.3454);}#el_Bg9nwpUsj5S{fill: #4A4A4A;-webkit-transform: matrix(0.8872, -0.4614, 0.4614, 0.8872, -105.0201, 127.6169);transform: matrix(0.8872, -0.4614, 0.4614, 0.8872, -105.0201, 127.6169);}#el_Nm6iOIPJOBi{fill: #4A4A4A;-webkit-transform: matrix(0.8872, -0.4614, 0.4614, 0.8872, -105.2919, 127.8741);transform: matrix(0.8872, -0.4614, 0.4614, 0.8872, -105.2919, 127.8741);}#el_sKZze3uDJ0c{fill: #4A4A4A;-webkit-transform: matrix(0.8872, -0.4614, 0.4614, 0.8872, -105.6177, 128.1544);transform: matrix(0.8872, -0.4614, 0.4614, 0.8872, -105.6177, 128.1544);}#el_wRWpZ4ioqyT{fill: #4A4A4A;}#el_r8SPlsWkrSj{fill: #4A4A4A;}#el_lXVJzzjiKaY{fill: #4A4A4A;-webkit-transform: matrix(0.8872, -0.4614, 0.4614, 0.8872, -117.7032, 138.7388);transform: matrix(0.8872, -0.4614, 0.4614, 0.8872, -117.7032, 138.7388);}#el_B1BcxI-J85y{fill: #4A4A4A;-webkit-transform: matrix(0.8871, -0.4615, 0.4615, 0.8871, -117.9923, 139.0421);transform: matrix(0.8871, -0.4615, 0.4615, 0.8871, -117.9923, 139.0421);}#el_mq2NgAkzAWA{fill: #4A4A4A;-webkit-transform: matrix(0.8872, -0.4614, 0.4614, 0.8872, -118.3008, 139.2814);transform: matrix(0.8872, -0.4614, 0.4614, 0.8872, -118.3008, 139.2814);}#el_7UDLt_0dPLq{fill: #4A4A4A;-webkit-transform: matrix(0.8872, -0.4614, 0.4614, 0.8872, -118.6271, 139.5478);transform: matrix(0.8872, -0.4614, 0.4614, 0.8872, -118.6271, 139.5478);}#el_KYnG9s8UD-W{fill: #4A4A4A;}#el_p3EF_ncqrim{fill: #4A4A4A;-webkit-transform: matrix(0.8872, -0.4614, 0.4614, 0.8872, -119.3879, 140.2187);transform: matrix(0.8872, -0.4614, 0.4614, 0.8872, -119.3879, 140.2187);}#el_7sG791fel4r{fill: #4A4A4A;-webkit-transform: matrix(0.8872, -0.4614, 0.4614, 0.8872, -119.7136, 140.5041);transform: matrix(0.8872, -0.4614, 0.4614, 0.8872, -119.7136, 140.5041);}#el_7ndGRGoyp2h{fill: #4A4A4A;-webkit-transform: matrix(0.8871, -0.4615, 0.4615, 0.8871, -120.0575, 140.8168);transform: matrix(0.8871, -0.4615, 0.4615, 0.8871, -120.0575, 140.8168);}#el_HyFx9DPXQek{fill: #4A4A4A;}#el_bKErUYvCfs7{fill: #4A4A4A;}#el_vfKwi0ATIcl{fill: #4A4A4A;}#el_EamaJU2oiWm{fill: #4A4A4A;-webkit-transform: matrix(0.8871, -0.4615, 0.4615, 0.8871, -121.7967, 142.3156);transform: matrix(0.8871, -0.4615, 0.4615, 0.8871, -121.7967, 142.3156);}#el_EVkd59gHhVs{fill: #4A4A4A;-webkit-transform: matrix(0.8872, -0.4614, 0.4614, 0.8872, -122.1048, 142.5443);transform: matrix(0.8872, -0.4614, 0.4614, 0.8872, -122.1048, 142.5443);}#el_bEJMAfi8oZq{fill: #4A4A4A;-webkit-transform: matrix(0.8872, -0.4614, 0.4614, 0.8872, -122.4305, 142.8298);transform: matrix(0.8872, -0.4614, 0.4614, 0.8872, -122.4305, 142.8298);}#el_re6kOK5UgSB{fill: #4A4A4A;-webkit-transform: matrix(0.8871, -0.4615, 0.4615, 0.8871, -122.7207, 143.1248);transform: matrix(0.8871, -0.4615, 0.4615, 0.8871, -122.7207, 143.1248);}#el_-304UwnsqLz{fill: #4A4A4A;-webkit-transform: matrix(0.8872, -0.4614, 0.4614, 0.8872, -123.0286, 143.3533);transform: matrix(0.8872, -0.4614, 0.4614, 0.8872, -123.0286, 143.3533);}#el_5JZzwqFABmE{fill: #4A4A4A;-webkit-transform: matrix(0.8872, -0.4614, 0.4614, 0.8872, -106.4325, 128.848);transform: matrix(0.8872, -0.4614, 0.4614, 0.8872, -106.4325, 128.848);}#el_rE5ot0xVjTP{fill: #4A4A4A;-webkit-transform: matrix(0.8872, -0.4614, 0.4614, 0.8872, -106.7585, 129.1239);transform: matrix(0.8872, -0.4614, 0.4614, 0.8872, -106.7585, 129.1239);}#el_RSdei9tyeHG{fill: #4A4A4A;-webkit-transform: matrix(0.8872, -0.4614, 0.4614, 0.8872, -107.0308, 129.3724);transform: matrix(0.8872, -0.4614, 0.4614, 0.8872, -107.0308, 129.3724);}#el_bFLvjEFQZcE{fill: #4A4A4A;}#el_LIsqaxpe1bX{fill: #4A4A4A;}#el_5UyqXBiicWS{fill: #4A4A4A;}#el_5bNghg7sgdV{fill: #4A4A4A;-webkit-transform: matrix(0.8872, -0.4614, 0.4614, 0.8872, -108.7696, 130.8709);transform: matrix(0.8872, -0.4614, 0.4614, 0.8872, -108.7696, 130.8709);}#el_LCs8w0fSKV_{fill: #4A4A4A;-webkit-transform: matrix(0.8872, -0.4614, 0.4614, 0.8872, -109.0954, 131.1509);transform: matrix(0.8872, -0.4614, 0.4614, 0.8872, -109.0954, 131.1509);}#el_H73C_1j-FHe{fill: #4A4A4A;-webkit-transform: matrix(0.8872, -0.4614, 0.4614, 0.8872, -109.4217, 131.4224);transform: matrix(0.8872, -0.4614, 0.4614, 0.8872, -109.4217, 131.4224);}#el_jI0EUwEpjWH{fill: #4A4A4A;-webkit-transform: matrix(0.8871, -0.4615, 0.4615, 0.8871, -109.7093, 131.7643);transform: matrix(0.8871, -0.4615, 0.4615, 0.8871, -109.7093, 131.7643);}#el_OlfUfSzTXTr{fill: #4A4A4A;}#el_2BzA5e-4pgk{fill: #4A4A4A;-webkit-transform: matrix(0.8872, -0.4614, 0.4614, 0.8872, -110.4898, 132.4324);transform: matrix(0.8872, -0.4614, 0.4614, 0.8872, -110.4898, 132.4324);}#el_8RcW7l9t8K5{fill: #4A4A4A;}#el_VUlEZDDBV13{fill: #4A4A4A;-webkit-transform: matrix(0.8872, -0.4614, 0.4614, 0.8872, -111.3551, 133.1202);transform: matrix(0.8872, -0.4614, 0.4614, 0.8872, -111.3551, 133.1202);}#el_7JHpm_C2Mtk{fill: #4A4A4A;-webkit-transform: matrix(0.8871, -0.4615, 0.4615, 0.8871, -111.6431, 133.4215);transform: matrix(0.8871, -0.4615, 0.4615, 0.8871, -111.6431, 133.4215);}#el_PlI-mhDed33{fill: #4A4A4A;-webkit-transform: matrix(0.8872, -0.4614, 0.4614, 0.8872, -111.9529, 133.6533);transform: matrix(0.8872, -0.4614, 0.4614, 0.8872, -111.9529, 133.6533);}#el_C9U7xoiBaBl{fill: #4A4A4A;-webkit-transform: matrix(0.8872, -0.4614, 0.4614, 0.8872, -112.2603, 133.9924);transform: matrix(0.8872, -0.4614, 0.4614, 0.8872, -112.2603, 133.9924);}#el_FsT1pSvrpFr{fill: #4A4A4A;}#el_waMhfOjdJRw{fill: #4A4A4A;-webkit-transform: matrix(0.8872, -0.4614, 0.4614, 0.8872, -113.0215, 134.6543);transform: matrix(0.8872, -0.4614, 0.4614, 0.8872, -113.0215, 134.6543);}#el_LaCqG0G01_S{fill: #4A4A4A;-webkit-transform: matrix(0.8872, -0.4614, 0.4614, 0.8872, -113.3474, 134.9301);transform: matrix(0.8872, -0.4614, 0.4614, 0.8872, -113.3474, 134.9301);}#el_GwlEmIEdcFb{fill: #4A4A4A;-webkit-transform: matrix(0.8872, -0.4614, 0.4614, 0.8872, -113.6733, 135.2103);transform: matrix(0.8872, -0.4614, 0.4614, 0.8872, -113.6733, 135.2103);}#el_FkSru3e-bNF{fill: #4A4A4A;}#el_AbvXbISJT2H{fill: #4A4A4A;}#el_tSGwpo6_PHh{fill: #4A4A4A;}#el_FUYWIk7eO5_{fill: #4A4A4A;-webkit-transform: matrix(0.8871, -0.4615, 0.4615, 0.8871, -115.4291, 136.7492);transform: matrix(0.8871, -0.4615, 0.4615, 0.8871, -115.4291, 136.7492);}#el_DvasIxs9wdb{fill: #4A4A4A;-webkit-transform: matrix(0.8872, -0.4614, 0.4614, 0.8872, -115.7383, 136.9799);transform: matrix(0.8872, -0.4614, 0.4614, 0.8872, -115.7383, 136.9799);}#el_Qvlf_ILS-w2{fill: #4A4A4A;-webkit-transform: matrix(0.8872, -0.4614, 0.4614, 0.8872, -116.064, 137.265);transform: matrix(0.8872, -0.4614, 0.4614, 0.8872, -116.064, 137.265);}#el_JrTNMSfAA76{fill: #4A4A4A;-webkit-transform: matrix(0.8871, -0.4615, 0.4615, 0.8871, -116.3531, 137.5584);transform: matrix(0.8871, -0.4615, 0.4615, 0.8871, -116.3531, 137.5584);}#el_qM-TnXxNZz9{fill: #4A4A4A;}#el_tMJrQdoLtMy{fill: #B3B3B3;}#el_-94n8RkDMHR_an_0srVH0Jw8{-webkit-animation-fill-mode: backwards;animation-fill-mode: backwards;-webkit-transform: translate(187.2067108154297px, 233.6031036376953px) translate(-187.2067108154297px, -233.6031036376953px) translate(50px, 355px);transform: translate(187.2067108154297px, 233.6031036376953px) translate(-187.2067108154297px, -233.6031036376953px) translate(50px, 355px);-webkit-animation-name: kf_el_-94n8RkDMHR_an_0srVH0Jw8;animation-name: kf_el_-94n8RkDMHR_an_0srVH0Jw8;-webkit-animation-timing-function: cubic-bezier(0.42, 0, 0.58, 1);animation-timing-function: cubic-bezier(0.42, 0, 0.58, 1);}</style>

<title>Artboard 1</title>
<g id="el_Ah9DRGn6KL">
	<path d="M294.4,61.2v123.6c-0.1,4.4-3.8,8-8.2,7.9H73.8c-4.4,0.1-8.1-3.4-8.2-7.9V61.2c0.1-4.4,3.8-8,8.2-7.9h212.4&#10;&#9;&#9;C290.7,53.2,294.3,56.7,294.4,61.2L294.4,61.2z" id="el__vLvSf2KAt"/>
	<path d="M56.4,150.2V457h-51H1.3l-0.2-0.2L1,456.3l-0.2-0.8l-0.1-1.1l-0.1-1.4l-0.1-1.7l-0.1-1.9l-0.1-2.1l-0.1-2.2&#10;&#9;&#9;l0-2.3l0-2.4v-87.3c0-6.3,0.1-12.5,0.2-18.5l4.4-184.5H56.4z" id="el_lORMpd188x"/>
	<path d="M336.6,457V150.2h18.6l4.4,184.5c0.1,5.9,0.2,12.2,0.2,18.5v87.3v2.4l0,2.3l-0.1,2.2l-0.1,2.1l-0.1,1.9&#10;&#9;&#9;l-0.1,1.7l-0.1,1.4l-0.1,1.1l-0.1,0.8l-0.2,0.5l-0.1,0.2h-4.2H336.6z" id="el_wJ5E8ObWB1"/>
	<path d="M187.7,30.6c0.2-4.3-3.1-7.9-7.4-8c-4.3-0.2-7.9,3.1-8,7.4s3.1,7.9,7.4,8c0.1,0,0.2,0,0.3,0&#10;&#9;&#9;C184.2,38.1,187.6,34.8,187.7,30.6z" id="el_GDVB9YQrHb"/>
	<g id="el_Dj9jJuOmS5">
		<g id="el_1RdrZtLvec">
			<path d="M359.9,440.5v2.4l0,2.3l-0.1,2.2l-0.1,2.1l-0.1,1.9l-0.1,1.7l-0.1,1.4l-0.1,1.1l-0.1,0.8l-0.2,0.5l-0.1,0.2&#10;&#9;&#9;&#9;&#9;h-4.2c0.5-5,0.7-10.1,0.7-15.1V150.2l4.4,184.5c0.1,5.9,0.2,12.2,0.2,18.5V440.5z" id="el_jiSfEVx1EX"/>
			<path d="M355.2,413.5v28.3c0.1,5-0.1,10.1-0.7,15.1c-0.1,0.6-0.2,0.9-0.3,0.9H5.8c-0.1,0-0.2-0.3-0.3-0.9&#10;&#9;&#9;&#9;&#9;c-0.5-5-0.8-10.1-0.7-15.1v-28.3c0,10.4,8.5,18.9,18.9,18.9c0,0,0,0,0,0h312.6C346.8,432.4,355.2,424,355.2,413.5&#10;&#9;&#9;&#9;&#9;C355.2,413.5,355.2,413.5,355.2,413.5z" id="el_TrvyQXCAxr"/>
			<path d="M11.5,18.5c3.4-2.8,7.7-4.3,12.2-4.2h312.6c4.4-0.1,8.8,1.4,12.2,4.3c4.1,3.4,6.6,8.5,6.7,13.8v381.1&#10;&#9;&#9;&#9;&#9;c0,10.4-8.4,18.9-18.9,18.9c0,0,0,0,0,0H23.7c-10.4,0-18.9-8.5-18.9-18.9c0,0,0,0,0,0V32.4c0,0,0,0,0,0&#10;&#9;&#9;&#9;&#9;C4.9,27,7.4,21.9,11.5,18.5z M294.8,309.6v-74.3c-0.1-2.5-2.2-4.6-4.7-4.5c0,0,0,0,0,0H180.2c-2.5-0.1-4.6,1.9-4.7,4.5&#10;&#9;&#9;&#9;&#9;c0,0,0,0,0,0v74.3c0.1,2.5,2.2,4.6,4.7,4.5H290C292.6,314.1,294.7,312.1,294.8,309.6L294.8,309.6z M285.3,179.9V66.1&#10;&#9;&#9;&#9;&#9;c-0.1-4.1-3.5-7.3-7.5-7.2H82.2c-4.1-0.1-7.5,3.2-7.5,7.2v113.8c0.1,4.1,3.5,7.3,7.5,7.2h195.5&#10;&#9;&#9;&#9;&#9;C281.8,187.2,285.2,183.9,285.3,179.9L285.3,179.9z M276.7,375.2v-3.8c0-0.5-0.4-0.9-1-0.9c0,0,0,0,0,0h-81.2&#10;&#9;&#9;&#9;&#9;c-0.5,0-0.9,0.4-0.9,0.9c0,0,0,0,0,0v3.8c0,0.5,0.4,0.9,0.9,0.9h81.2C276.2,376.2,276.7,375.8,276.7,375.2z M186.6,30.6&#10;&#9;&#9;&#9;&#9;c0.2-3.7-2.7-6.7-6.3-6.9c-3.7-0.2-6.7,2.7-6.9,6.3s2.7,6.7,6.3,6.9c0.1,0,0.2,0,0.3,0C183.6,37,186.5,34.2,186.6,30.6z&#10;&#9;&#9;&#9;&#9; M120.7,304.3v-14.5c0-1.5-1.3-2.8-2.8-2.7c0,0,0,0,0,0H48c-1.5,0-2.8,1.2-2.8,2.7v14.5c0,1.5,1.3,2.7,2.8,2.7h69.9&#10;&#9;&#9;&#9;&#9;C119.4,307,120.7,305.8,120.7,304.3L120.7,304.3z M97.5,315.9c0.1-1.5-1.1-2.8-2.6-2.8c0,0,0,0,0,0H71.1&#10;&#9;&#9;&#9;&#9;c-1.5-0.1-2.8,1.1-2.8,2.6c-0.1,1.5,1.1,2.8,2.6,2.8h23.8C96.2,318.6,97.5,317.4,97.5,315.9z" id="el_fSB-gesaWm"/>
			<path d="M7.6,457.9h344.9c-0.1,0.3-0.4,0.7-0.7,0.9l-28.6,23c-0.4,0.3-1,0.5-1.5,0.5H38.3c-0.5,0-1.1-0.2-1.5-0.5&#10;&#9;&#9;&#9;&#9;l-28.6-23C7.9,458.6,7.7,458.3,7.6,457.9z" id="el_A45u0jgwJE"/>
			<path d="M348.4,11.5l0.1,7.1c-3.4-2.9-7.7-4.4-12.2-4.3H23.7c-4.4-0.1-8.8,1.4-12.2,4.2l0.1-7&#10;&#9;&#9;&#9;&#9;C11.8,4.7,12.2,0,12.6,0h334.8C347.8,0,348.2,4.7,348.4,11.5z" id="el_6iKdCoFbtE"/>
			<path d="M294.8,236.4v73.2c-0.1,2.6-2.2,4.6-4.7,4.5H180.2c-2.5,0-4.7-2-4.7-4.5v-73.2c0.1-2.5,2.2-4.6,4.7-4.5H290&#10;&#9;&#9;&#9;&#9;C292.6,231.8,294.7,233.8,294.8,236.4z" id="el__bTJKdsWRM"/>
			<path d="M294.8,235.3v1.1c-0.1-2.6-2.2-4.6-4.7-4.5H180.2c-2.5,0-4.7,2-4.7,4.5v-1.1c0-2.5,2.1-4.6,4.7-4.5&#10;&#9;&#9;&#9;&#9;c0,0,0,0,0,0H290C292.6,230.7,294.7,232.7,294.8,235.3C294.8,235.3,294.8,235.3,294.8,235.3z" id="el_LdBMvYasDQ"/>
			<path d="M282.5,67.2c-0.1-2.5-2.2-4.6-4.7-4.5H82.2c-2.6,0-4.7,2-4.7,4.5v113.5c0.1,2.6,2.2,4.6,4.7,4.5h195.5&#10;&#9;&#9;&#9;&#9;c2.5,0,4.7-2,4.7-4.5L282.5,67.2z M285.3,66.1v113.8c-0.1,4.1-3.5,7.3-7.5,7.2H82.2c-4.1,0.1-7.5-3.2-7.5-7.2V66.1&#10;&#9;&#9;&#9;&#9;c0.1-4.1,3.5-7.3,7.5-7.2h195.5C281.8,58.8,285.2,62,285.3,66.1L285.3,66.1z" id="el_ZH9sYJgjU8"/>
			<path d="M282.5,67.2v113.5c-0.1,2.5-2.2,4.6-4.7,4.5H82.2c-2.6,0-4.7-2-4.7-4.5V67.2c0.1-2.6,2.2-4.6,4.7-4.5h195.5&#10;&#9;&#9;&#9;&#9;C280.3,62.6,282.4,64.6,282.5,67.2z" id="el_F-6bt52zUHd"/>
			<path d="M276.7,371.5v3.8c0,0.5-0.4,0.9-1,0.9h-81.2c-0.5,0-0.9-0.4-0.9-0.9v-3.8c0-0.5,0.4-0.9,0.9-0.9c0,0,0,0,0,0h81.2&#10;&#9;&#9;&#9;&#9;C276.2,370.5,276.7,370.9,276.7,371.5C276.7,371.4,276.7,371.4,276.7,371.5z" id="el_VXZOEkvfbP4"/>
			<path d="M180.2,27.4c2,0.1,3.5,1.8,3.4,3.8c-0.1,2-1.8,3.5-3.8,3.4c-1.9-0.1-3.4-1.7-3.4-3.6C176.5,29,178.1,27.4,180.2,27.4z" id="el_SKP7Q3NisEK"/>
			<path d="M120.7,301.7v2.5c0,1.5-1.3,2.8-2.8,2.7H48c-1.5,0-2.8-1.2-2.8-2.7v-2.5H120.7z" id="el_GqAXEU1LAgo"/>
			<rect x="45.1" y="295.9" width="75.6" height="5.8" id="el_P7yCsggoBKG"/>
			<path d="M120.7,290.8v5.1H45.1v-5.1c0-1.5,1.3-2.7,2.8-2.7h69.9C119.4,288.1,120.7,289.3,120.7,290.8z" id="el_XgINxl3IHVz"/>
			<path d="M120.7,289.8v1.1c0-1.5-1.3-2.7-2.8-2.7H48c-1.5,0-2.8,1.2-2.8,2.7v-1.1c0-1.5,1.3-2.8,2.8-2.7h69.9&#10;&#9;&#9;&#9;&#9;C119.4,287,120.7,288.2,120.7,289.8C120.7,289.8,120.7,289.8,120.7,289.8z" id="el_vjWX-gI-Ylh"/>
			<path d="M94.9,313.1c1.5,0.1,2.7,1.3,2.6,2.8c-0.1,1.5-1.3,2.7-2.8,2.6H70.9c-1.5-0.1-2.7-1.3-2.6-2.8&#10;&#9;&#9;&#9;&#9;c0.1-1.5,1.3-2.7,2.8-2.6H94.9z" id="el_OHF4bewd9Xm"/>
			<path d="M5.4,457H1.3l-0.2-0.2L1,456.3l-0.2-0.8l-0.1-1.1l-0.1-1.4l-0.1-1.7l-0.1-1.9l-0.1-2.1l-0.1-2.2l0-2.3l0-2.4&#10;&#9;&#9;&#9;&#9;v-87.3c0-6.3,0.1-12.5,0.2-18.5l4.4-184.5v291.7C4.7,446.9,4.9,452,5.4,457z" id="el_G3UKLVqefWH"/>
		</g>
		<circle cx="235.1" cy="278.4" r="3" id="el_SVaVS0X3my5"/>
		<g id="el_jIhPtfEOBFd">
			<path d="M172.1,99.8H99.8c-1.2,0-2.2-1-2.2-2.2c0-1.2,1-2.2,2.2-2.2h72.3c1.2,0,2.2,1,2.2,2.2&#10;&#9;&#9;&#9;&#9;C174.3,98.8,173.4,99.8,172.1,99.8z" id="el_DUrf8sJ-9DV"/>
			<path d="M149.8,111H99.9c-1.2,0-2.2-1-2.2-2.2s1-2.2,2.2-2.2h49.9c1.2,0,2.2,1,2.2,2.2C152,110,151,111,149.8,111z" id="el_mPilzkYR3Er"/>
			<path d="M149.8,127.4H99.9c-0.6,0-1.1-0.5-1.1-1.1c0-0.6,0.5-1.1,1.1-1.1h49.9c0.6,0,1.1,0.5,1.1,1.1&#10;&#9;&#9;&#9;&#9;C150.9,126.9,150.4,127.4,149.8,127.4z" id="el_18FMQIOS6BS"/>
			<path d="M138.1,135.8H99.9c-0.6,0-1.1-0.5-1.1-1.1s0.5-1.1,1.1-1.1h38.2c0.6,0,1.1,0.5,1.1,1.1&#10;&#9;&#9;&#9;&#9;S138.7,135.8,138.1,135.8z" id="el_yUVsKjE-PHo"/>
			<path d="M138.1,150.8H99.9c-0.6,0-1.1-0.5-1.1-1.1s0.5-1.1,1.1-1.1h38.2c0.6,0,1.1,0.5,1.1,1.1&#10;&#9;&#9;&#9;&#9;C139.2,150.3,138.7,150.8,138.1,150.8z" id="el_xhCn7bdrm-_"/>
			<path d="M202.3,95.2h49.4c3.2,0,5.9,2.6,5.9,5.9v27.8c0,3.2-2.6,5.9-5.9,5.9h-49.4c-3.2,0-5.9-2.6-5.9-5.9V101&#10;&#9;&#9;&#9;&#9;C196.6,97.7,199.1,95.2,202.3,95.2z" id="el_ptmwit89i4b"/>
			<rect x="202.1" y="99.8" width="18.1" height="28.2" id="el_ydePBrZKN0W"/>
			<rect x="227.1" y="100.5" width="15.5" height="2.2" id="el_ctV475L94tq"/>
			<rect x="227.1" y="104.9" width="17.6" height="2.2" id="el_2F8pARDguZM"/>
			<rect x="227.1" y="113.2" width="17.6" height="0.9" id="el_JvnSge-hiK9"/>
			<rect x="227.1" y="115.3" width="17.6" height="0.9" id="el_ouhyNraLNwK"/>
			<rect x="227.1" y="117.9" width="17.6" height="0.9" id="el_RqsDNvWAucE"/>
			<rect x="227.1" y="120.2" width="17.6" height="0.9" id="el_yqm9Gd8K3v8"/>
		</g>
	</g>
	<g id="el_sjKB0yqxQZ-">
		<path d="M276.8,370.5h11.5c3.6,0,6.5,2.9,6.5,6.4c0,0,0,0,0,0.1v24.2c0,3.6-2.9,6.5-6.4,6.5c0,0,0,0-0.1,0H182.9&#10;&#9;&#9;&#9;c-3.6,0-6.5-2.9-6.5-6.4c0,0,0,0,0-0.1V377c0-3.6,2.9-6.5,6.4-6.5c0,0,0,0,0.1,0L276.8,370.5L276.8,370.5z" id="el_wjdOJw222uO"/>
	</g>
</g>
<g id="el_-94n8RkDMHR_an_0srVH0Jw8" data-animator-group="true" data-animator-type="0"><g id="el_-94n8RkDMHR">
	<polygon points="210.3,346.4 238.1,363 256,335.9 228.9,321.1 &#9;" id="el_YuxF-92PN6C"/>
	<path id="el_Eh4Ip2NFjbo" d="M203.7,320.2C203.8,320.2,203.8,320.2,203.7,320.2L203.7,320.2l37.3,8.3l-3.5,8.3&#10;&#9;&#9;l-34.8-0.2l0,0c0,0,0,0-0.1,0c-4.9,0-8.6-3.7-8.3-8.3S198.2,318.8,203.7,320.2z"/>
	<path id="el_YpaCcjw8qu2" d="M206.5,332.6L206.5,332.6L206.5,332.6l33-1.9l2.1,15.1l-33,1.8l0,0c0,0,0,0-0.1,0&#10;&#9;&#9;c-4.6,0.3-8.9-2.9-9.4-7.1S201.9,332.8,206.5,332.6z"/>
	<path id="el_wgF6a5_BEk2" d="M209,345.4L209,345.4L209,345.4l30,1.3l-0.1,13.6L209,359l0,0c0,0,0,0-0.1,0&#10;&#9;&#9;c-4.2-0.2-7.6-3.4-7.6-7.2S204.7,345.2,209,345.4z"/>
	<path id="el_jKdllEgobE9" d="M239.8,309.3c1.8-0.1,3.6,0.5,4.9,1.7l14.7,12.4c2.1,1.9,3.3,4.5,3.3,7.3l0.5,54.3&#10;&#9;&#9;c0,3.2-2.9,5.6-6.5,5.4l-13-0.6c-3.6-0.2-6.5-2.9-6.5-6l2.6-45.4l-11.4-9.6l-24.5-0.3c-10.5,0.2-16.4-4.5-14.7-10.6&#10;&#9;&#9;c1-3.6,3.1-6.2,11.1-6.1L239.8,309.3z"/>
	<path id="el_z3JdfB8KW11" d="M238.1,236.2l36.3,69.8c1.1,2.1,0.3,4.7-1.8,5.8L229.8,334c-2.1,1.1-4.7,0.3-5.8-1.8&#10;&#9;&#9;l-36.3-69.8c-1.1-2.1-0.3-4.7,1.8-5.8l42.8-22.2C234.4,233.3,237,234.1,238.1,236.2z"/>
	<path id="el_5DDVh6xIxRS" d="M238.1,236.2l36.3,69.8c1.1,2.1,0.3,4.7-1.8,5.8L229.8,334c-2.1,1.1-4.7,0.3-5.8-1.8l-36.3-69.8&#10;&#9;&#9;c-1.1-2.1-0.3-4.7,1.8-5.8l42.8-22.2C234.4,233.3,237,234.1,238.1,236.2z"/>
	<g id="el_kPG6y4bRmkO">
		<path id="el_JpLfdaw5sVw" d="M237.6,235.4l36.7,70.5c0.9,1.7,0.2,3.7-1.4,4.6l-43.5,22.6c-1.7,0.9-3.7,0.2-4.6-1.4&#10;&#9;&#9;&#9;l-36.7-70.5c-0.9-1.7-0.2-3.7,1.4-4.6L233,234C234.7,233.1,236.8,233.8,237.6,235.4z"/>
		<path id="el__qZUq7SavVb" d="M237.6,235.4l36.7,70.5c0.9,1.7,0.2,3.7-1.4,4.6l-43.5,22.6c-1.7,0.9-3.7,0.2-4.6-1.4l-36.7-70.5&#10;&#9;&#9;&#9;c-0.9-1.7-0.2-3.7,1.4-4.6L233,234C234.7,233.1,236.8,233.8,237.6,235.4z"/>
		
			<rect x="236.1" y="234.6" width="12.7" height="86.2" id="el_j59P0grqMJb"/>
		<line x1="217" y1="250.9" x2="250.1" y2="314.6" id="el_ZRne4o9FfrZ"/>
		<line x1="214.3" y1="252.3" x2="240.3" y2="302.3" id="el_atQRz6Rmp5I"/>
		<line x1="208.7" y1="255.2" x2="218.5" y2="274" id="el_qcmB-oB6Wif"/>
		<line x1="206" y1="256.7" x2="223.5" y2="290.4" id="el_QJT1SWNn6QN"/>
		<g id="el_n9xIQx8Y7tU">
			<polygon points="203,258.4 195.5,262.4 203,258.4 202.8,258.1 195,262.1 195.2,262.5 195.2,262.5 195.4,262.9 &#10;&#9;&#9;&#9;&#9;203.2,258.8 &#9;&#9;&#9;" id="el_Isr8iUi6UFR"/>
			
				<rect x="195.2" y="261.2" width="8.8" height="0.4" id="el_LUG2pfP9uSS"/>
			
				<rect x="195.6" y="262" width="8.8" height="0.4" id="el_UAi74q6UCL_"/>
			
				<rect x="196" y="262.8" width="8.8" height="0.4" id="el__CCSp2YjvUn"/>
			
				<rect x="196.4" y="263.6" width="8.8" height="0.4" id="el_VU3ASJMtdzC"/>
			
				<rect x="196.8" y="264.4" width="8.8" height="0.4" id="el_i6mOXyHLeHk"/>
			
				<rect x="197" y="264.8" width="8.8" height="0.4" id="el_QR5pI0F8ArV"/>
			
				<rect x="197.4" y="265.5" width="8.8" height="0.4" id="el_LconbU1jZ4s"/>
			
				<rect x="197.8" y="266.3" width="8.8" height="0.4" id="el_A_5vwRB2fXF"/>
			
				<rect x="198.2" y="267.1" width="8.8" height="0.4" id="el_I4hUcEOyPya"/>
			<polygon points="206.8,265.9 199,269.9 199.2,270.3 199.2,270.3 199.4,270.7 207.2,266.6 &#9;&#9;&#9;" id="el_JW7C6PKhFmP"/>
			
				<rect x="199.2" y="269" width="8.8" height="0.4" id="el_CoiGsZQVupA"/>
			
				<rect x="199.4" y="269.4" width="8.8" height="0.4" id="el_tmD4-_eGRaO"/>
			<polygon points="208.3,268.6 208.3,268.6 208.1,268.2 200.2,272.3 200.4,272.7 204.3,270.7 200.4,272.7 &#10;&#9;&#9;&#9;&#9;200.6,273.1 208.5,269 &#9;&#9;&#9;" id="el_eakvVhkm4VZ"/>
			
				<rect x="200.4" y="271.4" width="8.8" height="0.4" id="el_4AvhsrAh9Zf"/>
			
				<rect x="200.8" y="272.2" width="8.8" height="0.4" id="el_bgOkztA4_z-"/>
			
				<rect x="201.3" y="272.9" width="8.8" height="0.4" id="el_M6k82Hq1zpZ"/>
			
				<rect x="201.7" y="273.7" width="8.8" height="0.4" id="el_RDnFHljdTsw"/>
			<polygon points="210.5,272.9 206.7,274.9 210.5,272.9 210.3,272.5 202.5,276.6 202.7,277 202.7,277 202.9,277.3 &#10;&#9;&#9;&#9;&#9;210.7,273.3 &#9;&#9;&#9;" id="el_7fkmPTIDmij"/>
			
				<rect x="202.7" y="275.7" width="8.8" height="0.4" id="el_xLqCJsLVXpk"/>
			
				<rect x="203" y="276.3" width="8.8" height="0.4" id="el_sxsZgtBMf7d"/>
			
				<rect x="203.3" y="276.8" width="8.8" height="0.4" id="el_0j8pYLXJRJ7"/>
			
				<rect x="203.7" y="277.6" width="8.8" height="0.4" id="el_JWyM5bDuawW"/>
			
				<rect x="204.1" y="278.4" width="8.8" height="0.4" id="el_Bg9nwpUsj5S"/>
			
				<rect x="204.5" y="279.1" width="8.8" height="0.4" id="el_Nm6iOIPJOBi"/>
			
				<rect x="204.9" y="279.9" width="8.8" height="0.4" id="el_sKZze3uDJ0c"/>
			<polygon points="213.7,279.1 209.9,281.1 213.7,279.1 213.5,278.7 205.7,282.8 205.9,283.2 205.9,283.2 &#10;&#9;&#9;&#9;&#9;206.1,283.5 213.9,279.5 &#9;&#9;&#9;" id="el_wRWpZ4ioqyT"/>
			<polygon points="228.3,307.1 228.3,307.1 228.1,306.7 228.1,306.7 228,306.5 220.1,310.5 220.3,310.9 220.3,310.9 &#10;&#9;&#9;&#9;&#9;220.4,311.1 220.4,311.1 220.6,311.5 228.5,307.5 &#9;&#9;&#9;" id="el_r8SPlsWkrSj"/>
			
				<rect x="220.5" y="309.9" width="8.8" height="0.4" id="el_lXVJzzjiKaY"/>
			
				<rect x="220.9" y="310.6" width="8.8" height="0.4" id="el_B1BcxI-J85y"/>
			
				<rect x="221.3" y="311.4" width="8.8" height="0.4" id="el_mq2NgAkzAWA"/>
			
				<rect x="221.7" y="312.2" width="8.8" height="0.4" id="el_7UDLt_0dPLq"/>
			<polygon points="230.5,311.4 230.5,311.4 230.3,311 222.5,315 222.7,315.4 222.7,315.4 222.9,315.8 230.7,311.7 &#9;&#9;&#9;&#10;&#9;&#9;&#9;&#9;" id="el_KYnG9s8UD-W"/>
			
				<rect x="222.7" y="314.1" width="8.8" height="0.4" id="el_p3EF_ncqrim"/>
			
				<rect x="223.1" y="314.9" width="8.8" height="0.4" id="el_7sG791fel4r"/>
			
				<rect x="223.5" y="315.7" width="8.8" height="0.4" id="el_7ndGRGoyp2h"/>
			<polygon points="232.3,314.9 232.3,314.9 232.1,314.5 224.3,318.5 224.5,318.9 224.5,318.9 224.7,319.3 &#10;&#9;&#9;&#9;&#9;232.5,315.3 &#9;&#9;&#9;" id="el_HyFx9DPXQek"/>
			<polygon points="232.7,315.6 224.9,319.7 225.1,320.1 225.1,320.1 225.3,320.5 233.1,316.4 &#9;&#9;&#9;" id="el_bKErUYvCfs7"/>
			<polygon points="233.3,316.8 225.5,320.9 225.7,321.3 225.7,321.3 225.9,321.7 233.8,317.6 &#9;&#9;&#9;" id="el_vfKwi0ATIcl"/>
			
				<rect x="225.7" y="320" width="8.8" height="0.4" id="el_EamaJU2oiWm"/>
			
				<rect x="226.1" y="320.8" width="8.8" height="0.4" id="el_EVkd59gHhVs"/>
			
				<rect x="226.5" y="321.6" width="8.8" height="0.4" id="el_bEJMAfi8oZq"/>
			
				<rect x="226.9" y="322.3" width="8.8" height="0.4" id="el_re6kOK5UgSB"/>
			
				<rect x="227.3" y="323.1" width="8.8" height="0.4" id="el_-304UwnsqLz"/>
			
				<rect x="205.9" y="281.9" width="8.8" height="0.4" id="el_5JZzwqFABmE"/>
			
				<rect x="206.3" y="282.7" width="8.8" height="0.4" id="el_rE5ot0xVjTP"/>
			
				<rect x="206.7" y="283.4" width="8.8" height="0.4" id="el_RSdei9tyeHG"/>
			<polygon points="215.5,282.6 215.5,282.6 215.3,282.2 207.5,286.3 207.7,286.7 207.7,286.7 207.9,287.1 215.7,283 &#10;&#9;&#9;&#9;&#9;&#9;&#9;&#9;" id="el_bFLvjEFQZcE"/>
			<polygon points="216.2,283.8 216.2,283.8 216,283.4 208.1,287.4 208.3,287.8 208.3,287.8 208.5,288.2 216.4,284.1 &#10;&#9;&#9;&#9;&#9;&#9;&#9;&#9;" id="el_LIsqaxpe1bX"/>
			<polygon points="216.8,284.9 216.8,284.9 216.6,284.5 208.7,288.6 208.9,289 208.9,289 209.1,289.4 217,285.3 &#9;&#9;&#9;&#10;&#9;&#9;&#9;&#9;" id="el_5UyqXBiicWS"/>
			
				<rect x="208.9" y="287.7" width="8.8" height="0.4" id="el_5bNghg7sgdV"/>
			
				<rect x="209.3" y="288.5" width="8.8" height="0.4" id="el_LCs8w0fSKV_"/>
			
				<rect x="209.7" y="289.3" width="8.8" height="0.4" id="el_H73C_1j-FHe"/>
			
				<rect x="210.1" y="290" width="8.8" height="0.4" id="el_jI0EUwEpjWH"/>
			<polygon points="219,289.2 219,289.2 218.8,288.8 211,292.9 211.4,293.7 219.2,289.6 &#9;&#9;&#9;" id="el_OlfUfSzTXTr"/>
			
				<rect x="211.2" y="292" width="8.8" height="0.4" id="el_2BzA5e-4pgk"/>
			<polygon points="220.1,291.3 220.1,291.3 219.9,290.9 212,294.9 212.2,295.3 212.2,295.3 212.4,295.7 220.3,291.7 &#10;&#9;&#9;&#9;&#9;&#9;&#9;&#9;" id="el_8RcW7l9t8K5"/>
			
				<rect x="212.2" y="294.1" width="8.8" height="0.4" id="el_VUlEZDDBV13"/>
			
				<rect x="212.6" y="294.8" width="8.8" height="0.4" id="el_7JHpm_C2Mtk"/>
			
				<rect x="213" y="295.6" width="8.8" height="0.4" id="el_PlI-mhDed33"/>
			
				<rect x="213.5" y="296.4" width="8.8" height="0.4" id="el_C9U7xoiBaBl"/>
			<polygon points="222.1,295.2 214.3,299.2 214.5,299.6 214.5,299.6 214.7,300 222.5,295.9 &#9;&#9;&#9;" id="el_FsT1pSvrpFr"/>
			
				<rect x="214.5" y="298.3" width="8.8" height="0.4" id="el_waMhfOjdJRw"/>
			
				<rect x="214.9" y="299.1" width="8.8" height="0.4" id="el_LaCqG0G01_S"/>
			
				<rect x="215.3" y="299.9" width="8.8" height="0.4" id="el_GwlEmIEdcFb"/>
			<polygon points="223.9,298.7 216.1,302.7 216.3,303.1 216.3,303.1 216.5,303.5 224.3,299.5 &#9;&#9;&#9;" id="el_FkSru3e-bNF"/>
			<polygon points="224.5,299.8 216.7,303.9 216.9,304.3 216.9,304.3 217.1,304.7 224.9,300.6 &#9;&#9;&#9;" id="el_AbvXbISJT2H"/>
			<polygon points="225.1,301 217.3,305.1 217.5,305.5 217.5,305.5 217.7,305.9 225.5,301.8 &#9;&#9;&#9;" id="el_tSGwpo6_PHh"/>
			
				<rect x="217.5" y="304.2" width="8.8" height="0.4" id="el_FUYWIk7eO5_"/>
			
				<rect x="217.9" y="305" width="8.8" height="0.4" id="el_DvasIxs9wdb"/>
			
				<rect x="218.3" y="305.8" width="8.8" height="0.4" id="el_Qvlf_ILS-w2"/>
			
				<rect x="218.7" y="306.5" width="8.8" height="0.4" id="el_JrTNMSfAA76"/>
			<polygon points="227.6,305.7 227.6,305.7 227.4,305.3 219.5,309.4 219.7,309.8 219.7,309.8 219.9,310.2 &#10;&#9;&#9;&#9;&#9;227.8,306.1 &#9;&#9;&#9;" id="el_qM-TnXxNZz9"/>
		</g>
	</g>
	<path id="el_tMJrQdoLtMy" d="M245.6,369.3l-6.5-57.6c-1.2-4.7-6.5-7.9-11.8-7c-5.3,0.8-7.4,2.8-7.4,10l0.1,15.2l0.8,9.6&#10;&#9;&#9;c-0.2,3.6,0.2,7.3,1.4,10.8c1.9,5.7,0.1-4-1.9,1.6l-0.6,1.8c-4,14-0.8,29.4,3.4,35.8c2.1,3.2,3.1,6,6.5,8.1&#10;&#9;&#9;c5.2,3.3,7.8,19.2,10.8,29.2c4.2,14.1,7.1,39.2,7.1,39.2l15,118h68.6l-68-213.2"/>
</g></g>
</svg>