<svg id="e2pLfjK5BOx1" xmlns="http://www.w3.org/2000/svg" xmlns:xlink="http://www.w3.org/1999/xlink" viewBox="160 0 341.1 626.6" shape-rendering="geometricPrecision" text-rendering="geometricPrecision">
<style><![CDATA[
#e2pLfjK5BOx222_to {animation: e2pLfjK5BOx222_to__to 4700ms linear infinite normal forwards}@keyframes e2pLfjK5BOx222_to__to { 0% {transform: translate(263.16966px,778.537294px)} 46.170213% {transform: translate(263.16966px,778.537294px)} 65.957447% {transform: translate(281.400001px,490.346832px)} 67.446809% {transform: translate(281.400001px,497.346832px)} 76.595745% {transform: translate(281.400001px,497.346832px)} 93.617021% {transform: translate(244.230341px,771.292621px)} 100% {transform: translate(244.230341px,771.292621px)}} #e2pLfjK5BOx235_to {animation: e2pLfjK5BOx235_to__to 4700ms linear infinite normal forwards}@keyframes e2pLfjK5BOx235_to__to { 0% {transform: translate(458.000017px,822.085836px)} 17.021277% {transform: translate(315.300038px,469.000031px)} 18.510638% {transform: translate(315.300038px,475.000031px)} 27.87234% {transform: translate(315.300038px,475.000031px)} 46.170213% {transform: translate(268.600038px,820.891163px)} 100% {transform: translate(268.600038px,820.891163px)}}
]]></style>
<defs><rect id="e2pLfjK5BOx2" width="81.6" height="107.8" rx="0" ry="0"/><path id="e2pLfjK5BOx3" d="M363.1,232.8h-.5-81.2-.4c0-4.6,3.7-8.3,8.3-8.3h65.6c4.5,0,8.2,3.7,8.2,8.3"/><rect id="e2pLfjK5BOx4" width="111" height="145.1" rx="0" ry="0"/><rect id="e2pLfjK5BOx5" width="228.8" height="123.9" rx="0" ry="0"/><rect id="e2pLfjK5BOx6" width="54.7" height="54.7" rx="0" ry="0"/><rect id="e2pLfjK5BOx7" width="54.3" height="54.4" rx="0" ry="0"/><rect id="e2pLfjK5BOx8" width="18.1" height="18.1" rx="0" ry="0"/><rect id="e2pLfjK5BOx9" width="9.1" height="9.1" rx="0" ry="0"/><rect id="e2pLfjK5BOx10" width="9.1" height="9.1" rx="0" ry="0"/><rect id="e2pLfjK5BOx11" width="9.1" height="9.1" rx="0" ry="0"/><rect id="e2pLfjK5BOx12" width="9.1" height="18.1" rx="0" ry="0"/><rect id="e2pLfjK5BOx13" width="9.1" height="9.1" rx="0" ry="0"/><polygon id="e2pLfjK5BOx14" points="332.4,288.3 332.4,297.4 341.4,297.4 341.4,306.5 350.5,306.5 350.5,288.3"/><rect id="e2pLfjK5BOx15" width="229.5" height="124.8" rx="0" ry="0"/><rect id="e2pLfjK5BOx16" width="9.1" height="9.1" rx="0" ry="0"/><rect id="e2pLfjK5BOx17" width="9.1" height="9.1" rx="0" ry="0"/><rect id="e2pLfjK5BOx18" width="9.1" height="9.1" rx="0" ry="0"/><rect id="e2pLfjK5BOx19" width="9.1" height="9.1" rx="0" ry="0"/><rect id="e2pLfjK5BOx20" width="9.1" height="9.1" rx="0" ry="0"/></defs><g><g><rect width="216.2" height="434.4" rx="0" ry="0" transform="translate(212.4 28.8)" fill="none" stroke="#dadada" stroke-width="2.3367" stroke-miterlimit="10"/><rect width="215.8" height="32.9" rx="0" ry="0" transform="translate(212.9 28.8)" fill="#959595"/><rect width="161.7" height="18.5" rx="0" ry="0" transform="translate(239.2 36)" fill="#292b2b"/><circle r="7.3" transform="translate(320 45.3)" fill="#444"/><path d="M187.7,1.9v473.9h265.8v-473.9h-265.8Zm241,461.3h-216.3v-434.4h216.2v434.4Z" fill="#e5e5e5"/><rect width="216.2" height="401.5" rx="0" ry="0" transform="translate(212.4 61.7)" fill="#d0d0d1"/><rect width="161.7" height="271.9" rx="0" ry="0" transform="translate(239.2 70.3)" fill="#00ebd5"/><rect width="265.8" height="150.9" rx="0" ry="0" transform="translate(187.7 475.7)" fill="#d2d2d2"/><g><g><path d="M400.9,388.3c-.1,1.9-1.6,3.5-3.3,3.4h-54.4c-1.7.1-3.3-1.4-3.3-3.4v-13c.1-1.9,1.6-3.5,3.3-3.4h54.4c1.7-.1,3.3,1.4,3.3,3.4v13v0Z" fill="#e3e3e3" stroke="#4a4a4a" stroke-width="0.2161" stroke-miterlimit="10"/></g><g><path d="M400.9,434.7c-.1,1.9-1.6,3.5-3.3,3.4h-54.4c-1.7.1-3.3-1.4-3.3-3.4v-23.6c.1-1.9,1.6-3.5,3.3-3.4h54.4c1.7-.1,3.3,1.4,3.3,3.4v23.6v0Z" fill="#959595"/></g><g><path d="M407.7,395.1c-1.5-.1-2.7-1.3-2.6-2.5v-35.8c-.1-1.3,1.1-2.5,2.6-2.5h13.1c1.5.1,2.7,1.3,2.6,2.5v35.8c.1,1.3-1.1,2.5-2.6,2.5h-13.1v0Z" fill="#959595"/></g><g><path d="M400.9,401.6c-.1,1.9-1.6,3.5-3.3,3.4h-54.4c-1.7.1-3.3-1.4-3.3-3.4v-4.4c.1-1.9,1.6-3.5,3.3-3.4h54.4c1.7-.1,3.3,1.4,3.3,3.4v4.4v0Z" fill="#808080"/></g><g><path d="M400.9,362c-.1,1.9-1.6,3.5-3.3,3.4h-54.4c-1.7.1-3.3-1.4-3.3-3.4v-4.4c.1-1.9,1.6-3.5,3.3-3.4h54.4c1.7-.1,3.3,1.4,3.3,3.4v4.4v0Z" fill="#808080"/></g><path d="M397.6,382.5c0,.6-.6,1.1-1,1.1h-52.2c-.6,0-1-.6-1-1.1v-1.5c0-.6.6-1.1,1-1.1h52.2c.6,0,1,.6,1,1.1v1.5v0Z" fill="#2a353f" stroke="#000" stroke-width="0.6248" stroke-linecap="round" stroke-linejoin="round"/><rect width="54.3" height="1.1" rx="0" ry="0" transform="translate(343.3 381.2)" fill="none" stroke="#000" stroke-width="0.125" stroke-linecap="round" stroke-linejoin="round"/><path d="M397.6,382.4v.2c0,.6-.6,1.1-1,1.1h-52.2c-.6,0-1-.6-1-1.1v-.2h54.2Z" fill="#161b1e" stroke="#000" stroke-width="0.125" stroke-linecap="round" stroke-linejoin="round"/><path d="M397.6,381v.2h-54.3v-.2c0-.6.6-1.1,1-1.1h52.2c.6,0,1.1.4,1.1,1.1Z" fill="#161b1e" stroke="#000" stroke-width="0.125" stroke-linecap="round" stroke-linejoin="round"/><rect width="54.3" height="1.1" rx="0" ry="0" transform="translate(343.3 381.2)" fill="none" stroke="#000" stroke-width="0.125" stroke-linecap="round" stroke-linejoin="round"/><rect width="54.3" height="1.1" rx="0" ry="0" transform="translate(343.3 381.2)" stroke="#000" stroke-width="0.125" stroke-linecap="round" stroke-linejoin="round"/><circle r="0.8" transform="translate(226.1 358.2)"/><circle r="0.8" transform="translate(226.1 360.6)"/><circle r="0.8" transform="translate(226.1 363.1)"/><circle r="0.8" transform="translate(228.2 359.2)"/><circle r="0.8" transform="translate(224 362)"/><circle r="0.8" transform="translate(228.3 361.8)"/><circle r="0.8" transform="translate(223.9 359.5)"/><g><g><path d="M237.3,359.8v-2.9c0-1.5,1.1-2.7,2.4-2.5h89.7c1.2-.1,2.4,1.2,2.4,2.5v2.9h-94.5Z" fill="#808080"/><rect width="94.4" height="8" rx="0" ry="0" transform="translate(237.4 359.8)" fill="#959595"/><path d="M237.3,435.5v-67.8h94.4v67.8c0,1.5-1.1,2.7-2.4,2.5h-89.6c-1.2.2-2.3-1-2.4-2.5Z" fill="#959595"/></g><g><path d="M210.1,500.7v-2.9c0-1.5,1.1-2.7,2.4-2.5h61.6c1.2-.1,2.4,1.2,2.4,2.5v2.9h-66.4Z" fill="#959595"/><rect width="66.3" height="8" rx="0" ry="0" transform="translate(210.3 500.7)" fill="#959595"/><path d="M210.1,591.8v-83.1h66.3v83.1c0,1.5-1.1,2.7-2.4,2.5h-61.5c-1.2.1-2.2-1.1-2.4-2.5Z" fill="#959595"/></g><path d="M237.3,435.5v-39.1h94.4v39.1c0,1.5-1.1,2.7-2.4,2.5h-89.6c-1.2.2-2.3-1-2.4-2.5Z" opacity="0.32" fill="#fff"/></g><rect width="23.9" height="8.6" rx="0" ry="0" transform="translate(272.6 369)"/><g><path d="M322.8,424.2c-.1,1.9-1.6,3.5-3.3,3.4h-70.1c-1.7.1-3.3-1.4-3.3-3.4v-17.3c.1-1.9,1.6-3.5,3.3-3.4h70.1c1.7-.1,3.3,1.4,3.3,3.4v17.3v0Z" fill="#808080"/></g><g><path d="" fill="#808080"/></g><g><rect width="10.8" height="3.7" rx="0" ry="0" transform="translate(254.7 406.2)" fill="#959595"/><rect width="10.8" height="3.7" rx="0" ry="0" transform="translate(254.7 411.2)" fill="#959595"/><rect width="10.8" height="3.7" rx="0" ry="0" transform="translate(254.7 416.2)" fill="#959595"/><rect width="10.8" height="3.7" rx="0" ry="0" transform="translate(254.7 421.1)" fill="#959595"/><rect width="10.8" height="3.7" rx="0" ry="0" transform="translate(268.6 406.2)" fill="#959595"/><rect width="10.8" height="3.7" rx="0" ry="0" transform="translate(268.6 411.2)" fill="#959595"/><rect width="10.8" height="3.7" rx="0" ry="0" transform="translate(268.6 416.2)" fill="#959595"/><rect width="10.8" height="3.7" rx="0" ry="0" transform="translate(268.6 421.1)" fill="#959595"/><rect width="10.8" height="3.7" rx="0" ry="0" transform="translate(282.6 406.2)" fill="#959595"/><rect width="10.8" height="3.7" rx="0" ry="0" transform="translate(282.6 411.2)" fill="#959595"/><rect width="10.8" height="3.7" rx="0" ry="0" transform="translate(282.6 416.2)" fill="#959595"/><rect width="10.8" height="3.7" rx="0" ry="0" transform="translate(282.6 421.1)" fill="#959595"/><rect width="13.1" height="3.7" rx="0" ry="0" transform="translate(301.2 406.2)" fill="#959595"/><rect width="13.1" height="3.7" rx="0" ry="0" transform="translate(301.2 411.2)" fill="#959595"/><rect width="13.1" height="3.7" rx="0" ry="0" transform="translate(301.2 416.2)" fill="#959595"/><rect width="13.1" height="3.7" rx="0" ry="0" transform="translate(301.2 421.1)" fill="#959595"/></g><g><path d="M311.7,387.5v.2c0,.6-.6,1.1-1,1.1h-52.2c-.6,0-1-.6-1-1.1v-.2h54.2Z" opacity="0.67" fill="#161b1e" stroke="#000" stroke-width="0.125" stroke-linecap="round" stroke-linejoin="round"/><path d="M311.7,386.2v.2h-54.3v-.2c0-.6.6-1.1,1-1.1h52.2c.5,0,1.1.3,1.1,1.1Z" opacity="0.67" fill="#161b1e" stroke="#000" stroke-width="0.125" stroke-linecap="round" stroke-linejoin="round"/><rect width="54.3" height="1.1" rx="0" ry="0" transform="translate(257.4 386.4)" opacity="0.67" stroke="#000" stroke-width="0.125" stroke-linecap="round" stroke-linejoin="round"/></g></g><rect width="265.8" height="6.5" rx="0" ry="0" transform="translate(187.7 471.3)" opacity="0.21" fill="#555b5f"/><ellipse rx="7" ry="6.5" transform="translate(320.8 449.8)" fill="#959595"/><ellipse rx="5.5" ry="5.2" transform="translate(320.8 449.8)" fill="#808080"/><ellipse rx="2.1" ry="1.9" transform="translate(320.8 449.8)" fill="#2e2e2e"/><circle r="1.8" transform="translate(414.3 387.5)"/><rect width="50.7" height="19.6" rx="0" ry="0" transform="translate(217.9 541.7)"/><rect width="50.7" height="4.4" rx="0" ry="0" transform="translate(217.9 549)" fill="#34393d" stroke="#000" stroke-width="0.090999" stroke-linecap="round" stroke-linejoin="round"/><rect width="66.4" height="7.9" rx="0" ry="0" transform="translate(210.1 512.6)" fill="#858585"/><g><path d="M269.7,506.6c-.1,1.6-1.4,2.9-2.8,2.9h-46.2c-1.5.1-2.8-1.2-2.8-2.9v-3.7c.1-1.6,1.4-2.9,2.8-2.9h46.2c1.5-.1,2.8,1.2,2.8,2.9v3.7v0Z" fill="#808080"/></g><path d="M210.1,497.8v0c0-1.5,1.1-2.7,2.4-2.5h61.6c1.2-.1,2.4,1.2,2.4,2.5v0h-66.4Z" transform="translate(0 0.000001)" fill="#959595"/><g><path d="M335.2,576.1v-75.4h52.7v75.4c0,1.3-1.1,2.4-2.4,2.3h-47.9c-1.2.1-2.2-1-2.4-2.3Z" fill="#aeaeae"/><g><path d="M296.3,500.7v-2.9c0-1.5,1.1-2.7,2.4-2.5h125.8c1.2-.1,2.4,1.2,2.4,2.5v2.9h-130.6Z" fill="#959595"/><rect width="130.5" height="15.9" rx="0" ry="0" transform="translate(296.4 500.7)" fill="#959595"/></g><path d="M296.3,521.3v-.7c0-.4,1.1-.7,2.4-.6h125.8c1.2,0,2.4.3,2.4.6v.7h-130.6Z" fill="#5c5c5c"/><rect width="130.6" height="8.7" rx="0" ry="0" transform="translate(296.3 512.6)" fill="#4a4847"/><rect width="130.6" height="7.9" rx="0" ry="0" transform="translate(296.3 521.3)" fill="#4c4c4c"/><path d="M426.9,521.3h-130.6v17.9c0,1.4,1.1,2.5,2.5,2.5h125.7c1.4,0,2.5-1.1,2.5-2.5v-17.9Z" fill="#353535"/><g><path d="M387.5,506.6c-.1,1.6-1.4,2.9-2.8,2.9h-46.2c-1.5.1-2.8-1.2-2.8-2.9v-3.7c.1-1.6,1.4-2.9,2.8-2.9h46.2c1.5-.1,2.8,1.2,2.8,2.9v3.7v0Z" fill="#808080"/></g><path d="M296.3,497.8v0c0-1.5,1.1-2.7,2.4-2.5h125.8c1.2-.1,2.4,1.2,2.4,2.5v0h-130.6Z" transform="translate(0 0.000001)" fill="#959595"/></g><rect width="52.7" height="9.5" rx="0" ry="0" transform="translate(335.2 541.7)" fill="#4a4847"/><path d="M338.7,541.7c0,0,3.5-12.5,23-12.5c17.6,0,22.2,12.5,22.2,12.5h-45.2Z"/><path d="" fill="none" stroke="#000" stroke-width="2.3367" stroke-miterlimit="10"/><rect width="22.3" height="15.6" rx="0" ry="0" transform="translate(356.7 417.1)" fill="#808080"/><path d="M356.7,434.1h-8.5c-1.6.1-3-1.3-3-3.1v-16c.1-1.8,1.5-3.2,3-3.1h8.5" fill="#a4a3a3"/><path d="M374.8,434.1h18.1c1.6.1,3-1.3,3-3.1v-16c-.1-1.8-1.5-3.2-3-3.1h-18.1" fill="#a4a3a3"/><line x1="351.6" y1="419.9" x2="356.7" y2="419.9" fill="none" stroke="#2c2c2c" stroke-width="2.3367" stroke-miterlimit="10"/><line x1="374.8" y1="419.9" x2="387.8" y2="419.9" fill="none" stroke="#2c2c2c" stroke-width="2.3367" stroke-miterlimit="10"/><line x1="356.7" y1="422.1" x2="374.8" y2="422.1" fill="none" stroke="#2c2c2c" stroke-width="2.3367" stroke-miterlimit="10"/></g><g><line x1="277.8" y1="118.8" x2="363.7" y2="118.8" fill="none" stroke="#fff" stroke-width="5.4719" stroke-linecap="round" stroke-linejoin="round" stroke-miterlimit="10"/><line x1="277.8" y1="131.6" x2="337.9" y2="131.6" fill="none" stroke="#fff" stroke-width="5.4719" stroke-linecap="round" stroke-linejoin="round" stroke-miterlimit="10"/><line x1="277.8" y1="151.6" x2="337.9" y2="151.6" fill="none" stroke="#004263" stroke-width="2.7359" stroke-linecap="round" stroke-linejoin="round" stroke-miterlimit="10"/><line x1="277.8" y1="161.2" x2="324.3" y2="161.2" fill="none" stroke="#004263" stroke-width="2.7359" stroke-linecap="round" stroke-linejoin="round" stroke-miterlimit="10"/><g><g clip-path="url(#e2pLfjK5BOx131)"><rect width="84.7" height="112.4" rx="0" ry="0" transform="translate(279.3 232.7)" fill="#f0f0f0"/><clipPath id="e2pLfjK5BOx131"><use width="81.599998" height="107.799995" xlink:href="#e2pLfjK5BOx2" transform="translate(280.8 234.2)"/></clipPath></g></g><g><g clip-path="url(#e2pLfjK5BOx136)"><rect width="85.2" height="11.4" rx="0" ry="0" transform="translate(279.4 223)" fill="#1a1a1a"/><clipPath id="e2pLfjK5BOx136"><use width="82.100006" height="8.300003" xlink:href="#e2pLfjK5BOx3"/></clipPath></g></g><path d="M281,342v-109.2c0-4.6,3.7-8.3,8.3-8.3h65.6c4.6,0,8.3,3.8,8.3,8.3v109.2" fill="none" stroke="#241f20" stroke-width="1.3831" stroke-miterlimit="10"/><line x1="281.4" y1="232.8" x2="362.6" y2="232.8" fill="none" stroke="#241f20" stroke-width="1.3831" stroke-miterlimit="10"/><g><g clip-path="url(#e2pLfjK5BOx220)"><g><g clip-path="url(#e2pLfjK5BOx218)"><g><g><g clip-path="url(#e2pLfjK5BOx216)"><g><g clip-path="url(#e2pLfjK5BOx150)"><rect width="57.4" height="57.4" rx="0" ry="0" transform="translate(294.6 250.6)" fill="#fff"/><clipPath id="e2pLfjK5BOx150"><use width="54.299999" height="54.399998" xlink:href="#e2pLfjK5BOx7" transform="translate(296.2 252.1)"/></clipPath></g></g><g><g clip-path="url(#e2pLfjK5BOx155)"><rect width="21.2" height="21.2" rx="0" ry="0" transform="translate(294.6 250.6)" fill="#241f20"/><clipPath id="e2pLfjK5BOx155"><use width="18.1" height="18.1" xlink:href="#e2pLfjK5BOx8" transform="translate(296.2 252.1)"/></clipPath></g></g><g><g clip-path="url(#e2pLfjK5BOx160)"><rect width="12.1" height="12.1" rx="0" ry="0" transform="translate(312.7 250.6)" fill="#241f20"/><clipPath id="e2pLfjK5BOx160"><use width="9.099999" height="9.099999" xlink:href="#e2pLfjK5BOx9" transform="translate(314.3 252.1)"/></clipPath></g></g><g><g clip-path="url(#e2pLfjK5BOx165)"><rect width="12.1" height="12.1" rx="0" ry="0" transform="translate(321.8 259.6)" fill="#241f20"/><clipPath id="e2pLfjK5BOx165"><use width="9.099999" height="9.099999" xlink:href="#e2pLfjK5BOx10" transform="translate(323.3 261.2)"/></clipPath></g></g><g><g clip-path="url(#e2pLfjK5BOx170)"><rect width="12.1" height="12.1" rx="0" ry="0" transform="translate(330.8 250.6)" fill="#241f20"/><clipPath id="e2pLfjK5BOx170"><use width="9.099999" height="9.099999" xlink:href="#e2pLfjK5BOx11" transform="translate(332.4 252.1)"/></clipPath></g></g><g><g clip-path="url(#e2pLfjK5BOx175)"><rect width="12.1" height="21.2" rx="0" ry="0" transform="translate(339.9 259.6)" fill="#241f20"/><clipPath id="e2pLfjK5BOx175"><use width="9.099999" height="18.1" xlink:href="#e2pLfjK5BOx12" transform="translate(341.4 261.2)"/></clipPath></g></g><g><g clip-path="url(#e2pLfjK5BOx180)"><rect width="12.1" height="12.1" rx="0" ry="0" transform="translate(321.8 277.7)" fill="#241f20"/><clipPath id="e2pLfjK5BOx180"><use width="9.099999" height="9.099999" xlink:href="#e2pLfjK5BOx13" transform="translate(323.3 279.3)"/></clipPath></g></g><g><g clip-path="url(#e2pLfjK5BOx189)"><g><g clip-path="url(#e2pLfjK5BOx187)"><rect width="21.2" height="21.2" rx="0" ry="0" transform="translate(330.8 286.8)" fill="#241f20"/><clipPath id="e2pLfjK5BOx187"><use width="229.5" height="124.799995" xlink:href="#e2pLfjK5BOx15" transform="translate(137.4 221.1)"/></clipPath></g></g><clipPath id="e2pLfjK5BOx189"><use width="18.100006" height="18.200012" xlink:href="#e2pLfjK5BOx14"/></clipPath></g></g><g><g clip-path="url(#e2pLfjK5BOx194)"><rect width="12.1" height="12.1" rx="0" ry="0" transform="translate(312.7 286.8)" fill="#241f20"/><clipPath id="e2pLfjK5BOx194"><use width="9.099999" height="9.099999" xlink:href="#e2pLfjK5BOx16" transform="translate(314.3 288.3)"/></clipPath></g></g><g><g clip-path="url(#e2pLfjK5BOx199)"><rect width="12.1" height="12.1" rx="0" ry="0" transform="translate(303.7 268.7)" fill="#241f20"/><clipPath id="e2pLfjK5BOx199"><use width="9.099999" height="9.099999" xlink:href="#e2pLfjK5BOx17" transform="translate(305.2 270.2)"/></clipPath></g></g><g><g clip-path="url(#e2pLfjK5BOx204)"><rect width="12.1" height="12.1" rx="0" ry="0" transform="translate(294.6 286.8)" fill="#241f20"/><clipPath id="e2pLfjK5BOx204"><use width="9.099999" height="9.099999" xlink:href="#e2pLfjK5BOx18" transform="translate(296.2 288.3)"/></clipPath></g></g><g><g clip-path="url(#e2pLfjK5BOx209)"><rect width="12.1" height="12.1" rx="0" ry="0" transform="translate(303.7 295.9)" fill="#241f20"/><clipPath id="e2pLfjK5BOx209"><use width="9.099999" height="9.099999" xlink:href="#e2pLfjK5BOx19" transform="translate(305.2 297.4)"/></clipPath></g></g><g><g clip-path="url(#e2pLfjK5BOx214)"><rect width="12.1" height="12.1" rx="0" ry="0" transform="translate(294.6 295.9)" fill="#241f20"/><clipPath id="e2pLfjK5BOx214"><use width="9.099999" height="9.099999" xlink:href="#e2pLfjK5BOx20" transform="translate(296.2 297.4)"/></clipPath></g></g><clipPath id="e2pLfjK5BOx216"><use width="54.700001" height="54.700001" xlink:href="#e2pLfjK5BOx6" transform="translate(296 251.9)"/></clipPath></g></g></g><clipPath id="e2pLfjK5BOx218"><use width="228.800003" height="123.900002" xlink:href="#e2pLfjK5BOx5" transform="translate(137.6 221.3)"/></clipPath></g></g><clipPath id="e2pLfjK5BOx220"><use width="111" height="145.099991" xlink:href="#e2pLfjK5BOx4" transform="translate(262.8 196.8)"/></clipPath></g></g></g></g><g id="e2pLfjK5BOx222_to" transform="translate(263.16966,778.537294)"><g transform="translate(-282.932068,-490.34848)"><g><g><g><path d="M313.4,362.2v107.6c0,.9-.2,1.8-.4,2.6h-56.6c-.3-.8-.5-1.7-.4-2.6v-107.6c0-.8.2-1.6.4-2.3h56.7c.2.8.3,1.6.3,2.3Z" fill="#1a1a1a"/><path d="M313,359.9h-56.7c1-3.4,4.2-5.7,7.7-5.7h41.3c3.6-.1,6.7,2.3,7.7,5.7Z" fill="#1a1a1a"/><path d="M256.3,472.3h56.6c-1,3.3-4.2,5.6-7.7,5.6h-41.2c-3.5,0-6.6-2.3-7.7-5.6Z" fill="#1a1a1a"/></g><g><path d="M312.9,472.3c-1,3.3-4.2,5.6-7.7,5.6h-41.2c-3.5,0-6.6-2.3-7.7-5.6-.3-.8-.5-1.7-.4-2.6v-107.5c0-.8.2-1.6.4-2.3c1-3.4,4.2-5.7,7.7-5.7h41.3c3.5,0,6.7,2.3,7.7,5.7.2.7.4,1.5.4,2.3v107.6c.1.8-.2,1.6-.5,2.5Z" fill="none" stroke="#231f20" stroke-width="0.3615" stroke-miterlimit="10"/><polyline points="256.2,359.9 256.2,359.9 313,359.9" fill="none" stroke="#231f20" stroke-width="0.3615" stroke-miterlimit="10"/><polyline points="256.2,472.3 256.3,472.3 312.9,472.3" fill="none" stroke="#231f20" stroke-width="0.3615" stroke-miterlimit="10"/></g></g><circle r="3.9" transform="translate(269.9 369.9)" fill="#b1b1b1"/></g><path d="M320.9,419.6c0,0-1.3-6.5-7.8-4.9l3.4-1.1c3.6-1.4,5.6-5.3,4.5-9c0,0-1.4-7-8.5-4.8l-49.9,16-3.5-12.1c-1-3.7-4.8-6-8.5-5.1h-.1c-.1,0-.2.1-.3.1l-.6.2c-3.8,1.4-5.9,5.6-4.7,9.4l6.8,23.6-.2,194.6h47l.2-167.6l12.7-4c3.5-1.2,5.6-4.9,4.6-8.5-.3-1.3-1-2.5-1.9-3.5l.9-.2c3.5-1.2,5.6-4.9,4.6-8.5c0,0-.9-4.7-5.4-4.8l2.2-.7c3.7-1.4,5.7-5.4,4.5-9.1Z" fill="#b1b1b1"/></g></g><g id="e2pLfjK5BOx235_to" transform="translate(458.000017,822.085836)"><g transform="translate(-300.500015,-440.750031)"><ellipse rx="15.5" ry="15.5" transform="translate(124.3 375.1)" fill="#acacac"/><g><path d="M498.4,626.4l-64-.3-65.4.4-103.8-96.8c-23.2,5.3-85.7-9.6-92.4-29.9l20.8-29.5.2-.2c26.9-30.2,75.3-57.4,75.3-57.4l3.7-10h23.2c1.2,1.1,2.3,2.8,2.5,4.7l5.6,36.2c.9,6.7,4.5,12.8,10,16.9L498.4,626.4Z" fill="#acacac"/><path d="M269.1,412.8c0,0-48.2,27.2-75.3,57.4L239,406.1c10.3,0,20.7,2.3,30.1,6.7Z" fill="#808080"/></g><g><g><path d="M245.9,267.1v234.9h-.2l-.6-.2h-119.3v-234.7l.8-.2h118.5l.8.2Z" fill="#cfd0d0"/><path d="M245.9,267.1l-.6-.2h-118.7l-.8.2c0-6.7,5.3-12.1,12.1-12.1v0h95.8c6.7,0,12.1,5.3,12.1,12c.1-.1.1-.1.1.1Z" fill="#333"/><path d="M245,501.9l.6.2c-.2,6.5-5.6,11.5-12.1,11.5h-95.8c-6.5-.2-11.7-5.1-12.1-11.5l.8-.2h118.6v0Z" fill="#333"/></g><g><path d="M245.7,501.9c-.2,6.5-5.6,11.5-12.1,11.5h-95.8c-6.5-.2-11.7-5.1-12.1-11.5h-.2v-234.8c0-6.7,5.3-12.1,12.1-12.1v0h95.8c6.7,0,12.1,5.3,12.1,12c0,.2,0,.2,0,.2v234.8l.2-.1v0v0Z" fill="none" stroke="#333" stroke-width="0.6683" stroke-miterlimit="10"/><line x1="126.5" y1="266.9" x2="245.1" y2="266.9" fill="none" stroke="#231f20" stroke-width="0.6683" stroke-miterlimit="10"/><line x1="126.8" y1="501.9" x2="245" y2="501.9" fill="none" stroke="#231f20" stroke-width="0.6683" stroke-miterlimit="10"/></g><rect width="79.3" height="79.3" rx="0" ry="0" transform="translate(145.8 344.5)" fill="#fff"/><g><polygon points="145.8,344.5 145.8,370.9 159,370.9 159,384.1 172.2,384.1 172.2,357.7 185.4,357.7 185.4,344.5" fill="#231f20"/><rect width="13.1" height="13.1" rx="0" ry="0" transform="translate(185.4 357.7)" fill="#231f20"/><rect width="13.1" height="13.1" rx="0" ry="0" transform="translate(198.6 344.5)" fill="#231f20"/><rect width="13.1" height="26.4" rx="0" ry="0" transform="translate(211.8 357.7)" fill="#231f20"/><polygon points="198.6,384.1 185.4,384.1 185.4,397.4 198.6,397.4 198.6,410.7 211.8,410.7 211.8,423.8 225.1,423.8 225.1,397.4 198.6,397.4" fill="#231f20"/><rect width="13.1" height="13.1" rx="0" ry="0" transform="translate(172.2 397.4)" fill="#231f20"/><polygon points="159,397.4 145.8,397.4 145.8,423.8 172.2,423.8 172.2,410.7 159,410.7" fill="#231f20"/></g></g><g><g><path d="M124.8,437.5c8.1,0,14.9,6.7,14.9,14.9v.2c0,3.9-1.6,7.8-4.4,10.6s-6.5,4.4-10.6,4.4h-7c-8.1,0-14.9-6.7-14.9-14.9v-.2c0-3.9,1.6-7.8,4.4-10.6s6.5-4.4,10.6-4.4h7Z" fill="#acacac"/><path d="M124.8,470.3c8.1,0,14.9,6.7,14.9,14.9v.2c0,3.9-1.6,7.8-4.4,10.6s-6.5,4.4-10.6,4.4h-7c-8.1,0-14.9-6.5-14.9-14.8c0,0,0,0,0-.2c0-3.9,1.6-7.8,4.4-10.6s6.5-4.4,10.6-4.4l7-.1v0Z" fill="#acacac"/><path d="M118.5,403c8.7,0,15.9,7.2,15.9,15.9s-7.2,15.9-15.9,15.9-15.9-7.2-15.9-15.9v0c.1-8.8,7.1-15.9,15.9-15.9-.1,0,0,0,0,0Z" fill="#acacac"/></g></g><path d="M253.2,346.7l42.9,56-26.9,10-33.3-48.5c-3.9-3.9-6.7-13.1-3-16.9l3.3-3.3c3.8-4.2,13-1.2,17,2.7Z" fill="#acacac"/></g></g></svg>
