<svg id="evnClc4RLPp1" xmlns="http://www.w3.org/2000/svg" xmlns:xlink="http://www.w3.org/1999/xlink" viewBox="140 0 341.1 626.6" shape-rendering="geometricPrecision" text-rendering="geometricPrecision">
<style><![CDATA[
#evnClc4RLPp116_to {animation: evnClc4RLPp116_to__to 2600ms linear infinite normal forwards}@keyframes evnClc4RLPp116_to__to { 0% {transform: translate(447.075974px,797.847191px)} 34.615385% {transform: translate(321.500016px,504.75px)} 38.076923% {transform: translate(321.500016px,510.75px)} 57.692308% {transform: translate(321.500016px,510.75px)} 96.923077% {transform: translate(260.100016px,797.638757px)} 100% {transform: translate(260.100016px,797.638757px)}}
]]></style>
<defs><rect id="evnClc4RLPp2" width="641.1" height="626.6" rx="0" ry="0"/><path id="evnClc4RLPp3" d="M403.8,374.7l-33.9,17.6c-1.2.7-2.7.2-3.4-1l-13.2-25.4c-.7-1.2-.2-2.7,1-3.4l33.9-17.6c1.2-.7,2.7-.2,3.4,1l13.2,25.4c.7,1.2.2,2.7-1,3.4Z"/></defs><g><g><rect width="216.2" height="434.4" rx="0" ry="0" transform="translate(212.4 28.8)" fill="none" stroke="#dadada" stroke-width="2.3367" stroke-miterlimit="10"/><rect width="215.8" height="32.9" rx="0" ry="0" transform="translate(212.9 28.8)" fill="#959595"/><rect width="161.7" height="18.5" rx="0" ry="0" transform="translate(239.2 36)" fill="#292b2b"/><circle r="7.3" transform="translate(320 45.3)" fill="#444"/><path d="M187.7,1.9v473.9h265.8v-473.9h-265.8Zm241,461.3h-216.3v-434.4h216.2v434.4Z" fill="#e5e5e5"/><rect width="216.2" height="401.5" rx="0" ry="0" transform="translate(212.4 61.7)" fill="#d0d0d1"/><rect width="161.7" height="271.9" rx="0" ry="0" transform="translate(239.2 70.3)" fill="#fe7f78"/><rect width="265.8" height="150.9" rx="0" ry="0" transform="translate(187.7 475.7)" fill="#d2d2d2"/><g><g><path d="M400.9,388.3c-.1,1.9-1.6,3.5-3.3,3.4h-54.4c-1.7.1-3.3-1.4-3.3-3.4v-13c.1-1.9,1.6-3.5,3.3-3.4h54.4c1.7-.1,3.3,1.4,3.3,3.4v13v0Z" fill="#e3e3e3" stroke="#4a4a4a" stroke-width="0.2161" stroke-miterlimit="10"/></g><g><path d="M400.9,434.7c-.1,1.9-1.6,3.5-3.3,3.4h-54.4c-1.7.1-3.3-1.4-3.3-3.4v-23.6c.1-1.9,1.6-3.5,3.3-3.4h54.4c1.7-.1,3.3,1.4,3.3,3.4v23.6v0Z" fill="#959595"/></g><g><path d="M407.7,395.1c-1.5-.1-2.7-1.3-2.6-2.5v-35.8c-.1-1.3,1.1-2.5,2.6-2.5h13.1c1.5.1,2.7,1.3,2.6,2.5v35.8c.1,1.3-1.1,2.5-2.6,2.5h-13.1v0Z" fill="#959595"/></g><g><path d="M400.9,401.6c-.1,1.9-1.6,3.5-3.3,3.4h-54.4c-1.7.1-3.3-1.4-3.3-3.4v-4.4c.1-1.9,1.6-3.5,3.3-3.4h54.4c1.7-.1,3.3,1.4,3.3,3.4v4.4v0Z" fill="#808080"/></g><g><path d="M400.9,362c-.1,1.9-1.6,3.5-3.3,3.4h-54.4c-1.7.1-3.3-1.4-3.3-3.4v-4.4c.1-1.9,1.6-3.5,3.3-3.4h54.4c1.7-.1,3.3,1.4,3.3,3.4v4.4v0Z" fill="#808080"/></g><path d="M397.6,382.5c0,.6-.6,1.1-1,1.1h-52.2c-.6,0-1-.6-1-1.1v-1.5c0-.6.6-1.1,1-1.1h52.2c.6,0,1,.6,1,1.1v1.5v0Z" fill="#2a353f" stroke="#000" stroke-width="0.6248" stroke-linecap="round" stroke-linejoin="round"/><rect width="54.3" height="1.1" rx="0" ry="0" transform="translate(343.3 381.2)" fill="none" stroke="#000" stroke-width="0.125" stroke-linecap="round" stroke-linejoin="round"/><path d="M397.6,382.4v.2c0,.6-.6,1.1-1,1.1h-52.2c-.6,0-1-.6-1-1.1v-.2h54.2Z" fill="#161b1e" stroke="#000" stroke-width="0.125" stroke-linecap="round" stroke-linejoin="round"/><path d="M397.6,381v.2h-54.3v-.2c0-.6.6-1.1,1-1.1h52.2c.6,0,1.1.4,1.1,1.1Z" fill="#161b1e" stroke="#000" stroke-width="0.125" stroke-linecap="round" stroke-linejoin="round"/><rect width="54.3" height="1.1" rx="0" ry="0" transform="translate(343.3 381.2)" fill="none" stroke="#000" stroke-width="0.125" stroke-linecap="round" stroke-linejoin="round"/><rect width="54.3" height="1.1" rx="0" ry="0" transform="translate(343.3 381.2)" stroke="#000" stroke-width="0.125" stroke-linecap="round" stroke-linejoin="round"/><circle r="0.8" transform="translate(226.1 358.2)"/><circle r="0.8" transform="translate(226.1 360.6)"/><circle r="0.8" transform="translate(226.1 363.1)"/><circle r="0.8" transform="translate(228.2 359.2)"/><circle r="0.8" transform="translate(224 362)"/><circle r="0.8" transform="translate(228.3 361.8)"/><circle r="0.8" transform="translate(223.9 359.5)"/><g><g><path d="M237.3,359.8v-2.9c0-1.5,1.1-2.7,2.4-2.5h89.7c1.2-.1,2.4,1.2,2.4,2.5v2.9h-94.5Z" fill="#808080"/><rect width="94.4" height="8" rx="0" ry="0" transform="translate(237.4 359.8)" fill="#959595"/><path d="M237.3,435.5v-67.8h94.4v67.8c0,1.5-1.1,2.7-2.4,2.5h-89.6c-1.2.2-2.3-1-2.4-2.5Z" fill="#959595"/></g><g><path d="M210.1,500.7v-2.9c0-1.5,1.1-2.7,2.4-2.5h61.6c1.2-.1,2.4,1.2,2.4,2.5v2.9h-66.4Z" fill="#959595"/><rect width="66.3" height="8" rx="0" ry="0" transform="translate(210.3 500.7)" fill="#959595"/><path d="M210.1,591.8v-83.1h66.3v83.1c0,1.5-1.1,2.7-2.4,2.5h-61.5c-1.2.1-2.2-1.1-2.4-2.5Z" fill="#959595"/></g><path d="M237.3,435.5v-39.1h94.4v39.1c0,1.5-1.1,2.7-2.4,2.5h-89.6c-1.2.2-2.3-1-2.4-2.5Z" opacity="0.32" fill="#fff"/></g><rect width="23.9" height="8.6" rx="0" ry="0" transform="translate(272.6 369)"/><g><path d="M322.8,424.2c-.1,1.9-1.6,3.5-3.3,3.4h-70.1c-1.7.1-3.3-1.4-3.3-3.4v-17.3c.1-1.9,1.6-3.5,3.3-3.4h70.1c1.7-.1,3.3,1.4,3.3,3.4v17.3v0Z" fill="#808080"/></g><g><rect width="10.8" height="3.7" rx="0" ry="0" transform="translate(254.7 406.2)" fill="#959595"/><rect width="10.8" height="3.7" rx="0" ry="0" transform="translate(254.7 411.2)" fill="#959595"/><rect width="10.8" height="3.7" rx="0" ry="0" transform="translate(254.7 416.2)" fill="#959595"/><rect width="10.8" height="3.7" rx="0" ry="0" transform="translate(254.7 421.1)" fill="#959595"/><rect width="10.8" height="3.7" rx="0" ry="0" transform="translate(268.6 406.2)" fill="#959595"/><rect width="10.8" height="3.7" rx="0" ry="0" transform="translate(268.6 411.2)" fill="#959595"/><rect width="10.8" height="3.7" rx="0" ry="0" transform="translate(268.6 416.2)" fill="#959595"/><rect width="10.8" height="3.7" rx="0" ry="0" transform="translate(268.6 421.1)" fill="#959595"/><rect width="10.8" height="3.7" rx="0" ry="0" transform="translate(282.6 406.2)" fill="#959595"/><rect width="10.8" height="3.7" rx="0" ry="0" transform="translate(282.6 411.2)" fill="#959595"/><rect width="10.8" height="3.7" rx="0" ry="0" transform="translate(282.6 416.2)" fill="#959595"/><rect width="10.8" height="3.7" rx="0" ry="0" transform="translate(282.6 421.1)" fill="#959595"/><rect width="13.1" height="3.7" rx="0" ry="0" transform="translate(301.2 406.2)" fill="#959595"/><rect width="13.1" height="3.7" rx="0" ry="0" transform="translate(301.2 411.2)" fill="#959595"/><rect width="13.1" height="3.7" rx="0" ry="0" transform="translate(301.2 416.2)" fill="#959595"/><rect width="13.1" height="3.7" rx="0" ry="0" transform="translate(301.2 421.1)" fill="#959595"/></g><g><path d="M311.7,387.5v.2c0,.6-.6,1.1-1,1.1h-52.2c-.6,0-1-.6-1-1.1v-.2h54.2Z" opacity="0.67" fill="#161b1e" stroke="#000" stroke-width="0.125" stroke-linecap="round" stroke-linejoin="round"/><path d="M311.7,386.2v.2h-54.3v-.2c0-.6.6-1.1,1-1.1h52.2c.5,0,1.1.3,1.1,1.1Z" opacity="0.67" fill="#161b1e" stroke="#000" stroke-width="0.125" stroke-linecap="round" stroke-linejoin="round"/><rect width="54.3" height="1.1" rx="0" ry="0" transform="translate(257.4 386.4)" opacity="0.67" stroke="#000" stroke-width="0.125" stroke-linecap="round" stroke-linejoin="round"/></g></g><rect width="265.8" height="6.5" rx="0" ry="0" transform="translate(187.7 471.3)" opacity="0.21" fill="#555b5f"/><ellipse rx="7" ry="6.5" transform="translate(320.8 449.8)" fill="#959595"/><ellipse rx="5.5" ry="5.2" transform="translate(320.8 449.8)" fill="#808080"/><ellipse rx="2.1" ry="1.9" transform="translate(320.8 449.8)" fill="#2e2e2e"/><circle r="1.8" transform="translate(414.3 387.5)"/><rect width="50.7" height="19.6" rx="0" ry="0" transform="translate(217.9 541.7)"/><rect width="50.7" height="4.4" rx="0" ry="0" transform="translate(217.9 549)" fill="#34393d" stroke="#000" stroke-width="0.090999" stroke-linecap="round" stroke-linejoin="round"/><rect width="66.4" height="7.9" rx="0" ry="0" transform="translate(210.1 512.6)" fill="#858585"/><g><path d="M269.7,506.6c-.1,1.6-1.4,2.9-2.8,2.9h-46.2c-1.5.1-2.8-1.2-2.8-2.9v-3.7c.1-1.6,1.4-2.9,2.8-2.9h46.2c1.5-.1,2.8,1.2,2.8,2.9v3.7v0Z" fill="#808080"/></g><path d="M210.1,497.8v0c0-1.5,1.1-2.7,2.4-2.5h61.6c1.2-.1,2.4,1.2,2.4,2.5v0h-66.4Z" transform="translate(0 0.000001)" fill="#959595"/><g><path d="M335.2,576.1v-75.4h52.7v75.4c0,1.3-1.1,2.4-2.4,2.3h-47.9c-1.2.1-2.2-1-2.4-2.3Z" fill="#aeaeae"/><g><path d="M296.3,500.7v-2.9c0-1.5,1.1-2.7,2.4-2.5h125.8c1.2-.1,2.4,1.2,2.4,2.5v2.9h-130.6Z" fill="#959595"/><rect width="130.5" height="15.9" rx="0" ry="0" transform="translate(296.4 500.7)" fill="#959595"/></g><path d="M296.3,521.3v-.7c0-.4,1.1-.7,2.4-.6h125.8c1.2,0,2.4.3,2.4.6v.7h-130.6Z" fill="#5c5c5c"/><rect width="130.6" height="8.7" rx="0" ry="0" transform="translate(296.3 512.6)" fill="#4a4847"/><rect width="130.6" height="7.9" rx="0" ry="0" transform="translate(296.3 521.3)" fill="#4c4c4c"/><path d="M426.9,521.3h-130.6v17.9c0,1.4,1.1,2.5,2.5,2.5h125.7c1.4,0,2.5-1.1,2.5-2.5v-17.9Z" fill="#353535"/><g><path d="M387.5,506.6c-.1,1.6-1.4,2.9-2.8,2.9h-46.2c-1.5.1-2.8-1.2-2.8-2.9v-3.7c.1-1.6,1.4-2.9,2.8-2.9h46.2c1.5-.1,2.8,1.2,2.8,2.9v3.7v0Z" fill="#808080"/></g><path d="M296.3,497.8v0c0-1.5,1.1-2.7,2.4-2.5h125.8c1.2-.1,2.4,1.2,2.4,2.5v0h-130.6Z" transform="translate(0 0.000001)" fill="#959595"/></g><rect width="52.7" height="9.5" rx="0" ry="0" transform="translate(335.2 541.7)" fill="#4a4847"/><path d="M338.7,541.7c0,0,3.5-12.5,23-12.5c17.6,0,22.2,12.5,22.2,12.5h-45.2Z"/><rect width="22.3" height="15.6" rx="0" ry="0" transform="translate(356.7 417.1)" fill="#808080"/><path d="M356.7,434.1h-8.5c-1.6.1-3-1.3-3-3.1v-16c.1-1.8,1.5-3.2,3-3.1h8.5" fill="#a4a3a3"/><path d="M374.8,434.1h18.1c1.6.1,3-1.3,3-3.1v-16c-.1-1.8-1.5-3.2-3-3.1h-18.1" fill="#a4a3a3"/><line x1="351.6" y1="419.9" x2="356.7" y2="419.9" fill="none" stroke="#2c2c2c" stroke-width="2.3367" stroke-miterlimit="10"/><line x1="374.8" y1="419.9" x2="387.8" y2="419.9" fill="none" stroke="#2c2c2c" stroke-width="2.3367" stroke-miterlimit="10"/><line x1="356.7" y1="422.1" x2="374.8" y2="422.1" fill="none" stroke="#2c2c2c" stroke-width="2.3367" stroke-miterlimit="10"/></g><g><line x1="277.8" y1="118.8" x2="363.7" y2="118.8" fill="none" stroke="#fff" stroke-width="5.4719" stroke-linecap="round" stroke-linejoin="round" stroke-miterlimit="10"/><line x1="277.8" y1="131.6" x2="337.9" y2="131.6" fill="none" stroke="#fff" stroke-width="5.4719" stroke-linecap="round" stroke-linejoin="round" stroke-miterlimit="10"/><line x1="277.8" y1="151.6" x2="337.9" y2="151.6" fill="none" stroke="#004263" stroke-width="2.7359" stroke-linecap="round" stroke-linejoin="round" stroke-miterlimit="10"/><line x1="277.8" y1="161.2" x2="324.3" y2="161.2" fill="none" stroke="#004263" stroke-width="2.7359" stroke-linecap="round" stroke-linejoin="round" stroke-miterlimit="10"/></g></g><g><g><g><g><g><g><path d="M288.5,236h66c4.2,0,7.9,3.4,7.9,7.9v37.1c0,4.2-3.4,7.9-7.9,7.9h-66c-4.2,0-7.9-3.4-7.9-7.9v-37.1c.1-4.4,3.6-7.9,7.9-7.9Z" fill="#fff"/><rect width="81.5" height="11.1" rx="0" ry="0" transform="translate(280.7 246.2)" fill="#414042"/></g></g></g></g></g></g><g id="evnClc4RLPp116_to" transform="translate(447.075974,797.847191)"><g transform="translate(-414.324051,-504.312363)"><g><g><g clip-path="url(#evnClc4RLPp290)"><g><path d="M361.9,420.6c.1,0,.1,0,0,0v0l35.3,7.9-3.3,7.9-33-.2v0c0,0,0,0-.1,0-4.6,0-8.1-3.5-7.9-7.9.3-4.4,3.8-9,9-7.7Z" fill="#b1b1b1"/><path d="M364.5,432.4v0v0l31.2-1.8l2,14.3-31.2,1.7v0c0,0,0,0-.1,0-4.4.3-8.4-2.7-8.9-6.7s2.7-7.3,7-7.5Z" fill="#b1b1b1"/><path d="M366.9,444.5v0v0l28.4,1.2-.1,12.9-28.3-1.2v0c0,0,0,0-.1,0-4-.2-7.2-3.2-7.2-6.8s3.2-6.3,7.3-6.1Z" fill="#b1b1b1"/><path d="M396.1,410.3c1.7-.1,3.4.5,4.6,1.6l13.9,11.7c2,1.8,3.1,4.3,3.1,6.9l.5,51.4c0,3-2.7,5.3-6.2,5.1l-12.3-.6c-3.4-.2-6.2-2.7-6.2-5.7l2.5-43-10.8-9.1-23.2-.3c-9.9.2-15.5-4.3-13.9-10c.9-3.4,2.9-5.9,10.5-5.8l37.5-2.2Z" fill="#b1b1b1"/><g><path d="M394.4,340.8l34.4,66.1c1,2,.3,4.5-1.7,5.5l-40.5,21c-2,1-4.5.3-5.5-1.7l-34.4-66.1c-1-2-.3-4.5,1.7-5.5l40.5-21c2-1.1,4.5-.3,5.5,1.7Z" fill="#c96561"/><path d="M394.4,340.8l34.4,66.1c1,2,.3,4.5-1.7,5.5l-40.5,21c-2,1-4.5.3-5.5-1.7l-34.4-66.1c-1-2-.3-4.5,1.7-5.5l40.5-21c2-1.1,4.5-.3,5.5,1.7Z" fill="#2eb7aa"/><path d="M394.1,340l34.8,66.8c.9,1.6.2,3.5-1.3,4.4l-41.2,21.4c-1.6.9-3.5.2-4.4-1.3l-34.8-66.8c-.9-1.6-.2-3.5,1.3-4.4l41.2-21.4c1.6-.8,3.5-.3,4.4,1.3Z" fill="#fc7e79"/><path d="M394.1,340l34.8,66.8c.9,1.6.2,3.5-1.3,4.4l-41.2,21.4c-1.6.9-3.5.2-4.4-1.3l-34.8-66.8c-.9-1.6-.2-3.5,1.3-4.4l41.2-21.4c1.6-.8,3.5-.3,4.4,1.3Z" fill="#fe7f78"/><g><path d="M403.8,374.7l-33.9,17.6c-1.2.7-2.7.2-3.4-1l-13.2-25.4c-.7-1.2-.2-2.7,1-3.4l33.9-17.6c1.2-.7,2.7-.2,3.4,1l13.2,25.4c.7,1.2.2,2.7-1,3.4Z" fill="#c96561"/><polygon points="365.2,388.8 361,380.9 377.7,368.5 384.3,364.8 387.9,366.8 388.4,370.1 368.4,383.1" fill="#d7effd"/><g><g><g><g><g><g><g><g><g clip-path="url(#evnClc4RLPp263)"><g><g><g><path d="M380.5,367.9c0,.1,0,.2-.1.2c0-.1,0-.1.1-.2Z" fill="#d1e0e7"/><path d="M381.7,366.8c0,0,.1,0,0,0-.1.1-.2.2-.4.3-.1.1-.1.1-.2.2c0,0,0,0,0-.1.2-.1.4-.3.6-.4Z" fill="#d1e0e7"/><path d="M381.8,366.7c.2-.1.3-.2.5-.3-.2.2-.4.2-.5.3Z" fill="#d1e0e7"/><path d="M382.9,366.2c0,.1,0,.1,0,0-.2.1-.3.2-.4.2s-.2.1-.3.1c.1-.1.3-.2.4-.3s.2,0,.3,0Z" fill="#d1e0e7"/><path d="M393.6,368.4c.1.1.1.1,0,0-.1,0-.2.1-.4.1-.1,0-.1,0,0,.1.1.2.2.3.4.3c0,.9,0,1.8,0,2.7-.4-.1-.7-.2-1-.3-.4-.1-.7-.2-1-.3-.2,0-.2-.1-.2-.3.1-.8.1-1.5.2-2.3v-.1h.1c.2,0,.4.1.6.1c0,0,0,0,.1,0c0,.1.1.2.2.1s.2-.1.1-.3c0-.1,0-.1,0-.2.1-.1.2-.2,0-.4.1,0,.1.1.2.1h.1c0-.1,0-.1,0-.1-.1,0-.1-.1,0-.1c0,0,.1-.1,0-.1-.2-.1-.1-.2-.1-.3c0,0,.1,0,.1-.1v0c.3,0,.3,0,.4.2c0,.1.1.3.2.4c0,.1.1.2-.1.3c0,0-.1,0-.1.1l.1.1c0,.2.1.2.1.3Z" fill="#0e3e5a"/><path d="M388.2,375.7c-.1,0-.1,0-.2-.1.1.3.1.3.2.1.1.1.1.1,0,0c.1.1,0,.1,0,0Zm.1-.2c-.1,0-.1,0,0,0l-.1-.3c-.1-.1-.1-.2-.2-.1c0,.1,0,.1,0,.2v0c0,0-.1,0-.1.1v0c.2,0,.3.1.4.1c0,.1.1,0,0,0c.1,0,.1,0,0,0Zm.6,0c-.1.1-.2.1-.2.1-.1-.1-.2,0-.3.1c0,0,.1,0,.2,0s.2,0,.3-.2c-.1.1,0,0,0,0c0,.1,0,.1,0,0v0Zm0,.5v0c-.2-.1-.3-.2-.2-.3-.2.1-.2.3,0,.4.2,0,.2,0,.2-.1v0v0c.1.1.2-.1,0,0Zm.1-.5v0c.1.1.1.1,0,0c.1,0,0,0,0,0Zm.3.9v0c0,.1,0,.2.1.2c0,0-.1-.1-.1-.2Zm0-1.8v0c-.1,0-.1.1-.1.2.1,0,.1-.1.1-.2v0Zm.2,2.2v0v0v0Zm.2-1.6v0v0Zm1,.4c-.1,0-.2.2-.3.3c0,.1-.1.2-.1.3s0,.1,0,.2c.1,0,.2-.1.3-.1-.1-.1,0-.2.1-.3s.2-.2.2-.3c-.1,0-.2,0-.2-.1Zm.7-.1c-.1,0-.2.1-.3.2v.1v0c0,0,0,0,.1,0v0c.1,0,.1-.1.2-.1c0,0,.1,0,0-.2.1,0,.1,0,0,0Zm.1.4c0,0,0,.1,0,0c0,.1.1.1,0,0v0Zm.2-.9v0c.2-.2.3-.2.4-.3-.1,0-.1-.1-.2-.1s-.2.1-.2.2-.1.1,0,.2h-.2c-.1.1-.1.2,0,.3l.1.1c0,.1,0,.1.1.1c0,0,0,0,0-.1l-.1-.1c-.1,0-.1-.1-.1-.1c0-.1.1-.2.2-.2Zm.4.2v0c0,0-.1,0,0,0-.1,0-.2,0-.2,0h.2c-.1,0-.1.1,0,0v0Zm.5-.2v0c0,.1.1.1,0,0Zm1.1.3c-.7.2-1.2.4-1.9.5v0c-.1.1-.1.1-.2.1l-.1.1c0,0,.1,0,.1.1v0h.1v0c0-.2.1-.3.3-.3.7-.2,1.2-.3,1.9-.5c0,0-.1,0-.2,0Z" fill="#379596"/><path d="M389.3,373.5c-.3-.2-.7-.3-.8-.7-.1-.1-.1-.1-.1-.2c0-.3-.2-.5-.3-.7-.1-.1-.1-.1-.1-.2s-.1-.1-.1-.1c-.1,0-.1.1-.1.1c0,.1,0,.2-.1.2c0,.1.1.2-.1.2-.1,0-.1,0-.2,0v0c0,0,0-.1.1-.1l-.1-.1c-.2,0-.3,0-.2.2c0,.1.1.1,0,.1-.2.1-.3.2-.3.4c0,.1,0,.2-.1.2-.2.1-.3.2-.3.4.1,0,.1.1.1.1-.1.1,0,.2.1.3s.1.2.1.3.1.1.2.1c.2-.1.2-.4.2-.5c0,0,0-.1.1-.2l.3.2h.2c.4.2.8.3,1.1.4h.1v0v0v0v0v0v0v0h.1c0,0,0,0,0,.1h.1c0-.1,0-.2.1-.3.2-.1.1-.1,0-.2Zm-1.9-1.1v0c0-.1,0-.1,0,0v0Z" fill="#dbe5ea"/><path d="M391.8,375.1v0c-.1,0-.1.1,0,0c.1.1.1.1,0,0v0v0v0c.1.1.1.1.2.1v0v0c0,.1.1.1,0,.2s-.2.1-.3.1h-.1c-.1,0-.1,0-.1-.1l-.1-.1c-.1-.1-.1-.2,0-.3l.1-.1c0,0,.1,0,.1-.1s.1-.1.2-.2h.1c.2,0,.4,0,.6.1-.1,0-.1.1-.2.1c0,.2-.2.3-.5.3Z" fill="#318586"/><path d="M390,372.4c-.1.1-.2-.1-.3,0c0,0,0,0,0-.1s0-.3-.1-.4c0,0-.1-.1,0-.1h.1c.1,0,.2,0,.2.2v0c.1.1,0,.3.1.4v0Z" fill="#e1e9ee"/><path d="M389.5,371.7v0c-.1,0-.2.1-.2.1c0-.1,0-.2.1-.3h.1c0,0,0-.2.1-.1.1,0,.1.1.1.2.1,0,0,0-.2.1.1-.1.1,0,0,0Z" fill="#e1e9ee"/><path d="M394.1,367.6c0-.1-.1-.1-.2,0s-.2,0-.1-.1c0-.1,0-.1,0-.2c0,0,.1-.1.1,0c.1.1.2.1.2.3v0v0v0Z" fill="#0c3047"/><path d="M387.7,372.1c0,.1.1.2-.1.2-.1,0-.1,0-.2,0c0-.1,0-.1.1-.2v0h.2Z" fill="#e1e9ee"/><path d="M389.9,374c-.1,0-.3,0-.4-.1.1-.1.3-.1.4.1v0Z" fill="#e0f3fb"/><path d="M390,372.4c0-.1,0-.1,0,0c.1-.1.1-.1,0,0c.1-.1.1-.1,0,0v0Z" fill="#e1e9ee"/><path d="M389.1,377.7c0,.1-.2.3-.3.3-.6.2-1.1.4-1.8.6-.1,0-.2,0-.2-.1-.1-.1-.1-.3-.1-.4.1-.1.2-.2.1-.4c0-.2,0-.4.1-.5c0-.1.1-.1.1-.1.1,0,.1.1,0,.1c0,.1,0,.2-.1.2v.1h.1c.1-.1.1-.3.2-.4c0-.1-.1-.1-.2-.2s-.2-.2-.2-.3c.1-.1.1-.2.2-.3.1,0,0,.2.1.1.1,0,0-.1,0-.2s.1-.2.2-.2.1,0,.2.1c.1,0,.2.1.2-.1c0-.1.1-.1.2,0c0,0,.1,0,.2.1c0,.1.1.1.1.1v0c-.1.1-.1.1.1.2v.1c.1.2.1.2.2.1c0,0,0,0,.1,0c0,.1.2.1.1.2-.1,0-.1.1-.1.2c0,0,0,.1.1.1.2.1.1.2.2.4c0,.2.1.3.2.2Zm-.4.3c0,0,.1,0,0,0c.1-.4.1-.6-.1-.9-.1-.1-.3-.1-.4,0s-.1.2-.1.3.1.2,0,.4c0,.2,0,.3.2.3.1,0,.3,0,.4-.1v0Z" fill="#50bcbd"/><path d="M388,376.2c0,0-.1,0,0,0-.1.2-.2.2-.3.2s-.1-.1-.2-.1-.2,0-.2.2c0,.1.1.1,0,.2-.1,0-.1-.1-.1-.1-.1.1-.1.2-.2.3c0,0,0,0,0,.1v0c0,.1.2.1.2.2.1,0,.2.1.2.2c0,.2-.1.3-.2.4h-.1c0,0-.1-.1,0-.1c0-.1,0-.2.1-.2v-.1c-.1,0-.1,0-.1.1-.1.2-.1.3-.1.5c0,.1,0,.3-.1.4-.1-.1-.1-.2-.1-.3v0c-.1-.2-.1-.4-.3-.6c0-.1,0-.1,0-.2s0-.1,0-.2c.1-.2,0-.3.2-.5c0,0,.2-.1.1-.2c0-.1-.1-.2-.1-.3c0,0,0,0-.1,0h-.1v-.2c.1.1.3.1.4.2s.1.1.2,0s.1-.1.1-.2c0,0,0,0,0-.1c0,0,0,0-.1,0s-.1.1-.2,0c0,0,0,0,0-.1v0c0-.1,0-.2,0-.3c0,0,0-.1,0-.2h.1c.1.1.1.1.2,0c.1,0,.2,0,.2,0c.1,0,.2.1.3.1c0,.1-.1.3.1.4c0,0,0,0,0,.1s0,.1,0,.2c.2.2.2.2.2.2Z" fill="#44aeaf"/><path d="M389.5,376.8v0c0,.1,0,.1,0,0v0c0,.5-.2.8-.4.9h-.1v0c-.1,0-.1-.1-.2-.2v0v0-.1-.1c0,0,0,0,0-.1v0c0,0,0-.1-.1-.1c0,0,0,0-.1,0v-.1v0c0,0,0,0,0-.1c0,0,0,0,.1-.1v0v0l-.1-.1c.2-.1.3-.3.5-.4.1.1.1.1.2.2.1.2.1.2.2.3-.1-.1-.1-.1,0,0-.1,0,0,0,0,0v0Z" fill="#44aeaf"/><path d="M391.1,376.1c-.2.2-.4.4-.7.6-.1.1-.1.1-.2,0c0-.1-.1-.2-.1-.3v0h.1v0c0,0,0-.1,0-.2s.1-.2.1-.3c.1-.1.2-.3.3-.3.1.1.2.1.2.1.1,0,.1,0,.1.1.2.1.2.2.2.3Z" fill="#3fa4a5"/><path d="M393.9,375.3c-.1.2-.3.3-.4.5-.1.1-.4.2-.6.1-.3-.1-.7-.1-1,.1-.1,0-.1,0-.2.1h-.1v0v0h-.1v-.1v0v0c0-.1,0-.1.1-.1.1-.1.1-.1.2-.1v0c.7-.1,1.2-.3,1.9-.5.1,0,.2,0,.2,0Z" fill="#3fa4a5"/><path d="M386.5,376c.1.1.2,0,.2,0c0,.1.1.2.1.3s-.1.2-.1.2c-.2.1-.1.3-.2.5c0,.1,0,.1,0,.2-.1,0-.1-.1-.1-.1v0c0-.4,0-.8.1-1.1Z" fill="#50bcbd"/><path d="M391.2,375.9v0c-.2-.1-.1-.1,0,0v0c-.1,0-.1,0,0,0Z" fill="#318586"/><path d="M391.5,375.6c0,.1-.1.1,0,0-.2.2-.2.2-.3.2v0c0,0,0,0-.1,0v0-.1c.1-.1.2-.2.4-.1c0-.1,0-.1,0,0Z" fill="#318586"/><path d="M395.3,365.9c-.1-.2.1-.2.2-.2-.1.1-.1.1-.2.2Z" fill="#0c3047"/><path d="M392.7,367.5c-.1,0-.1-.1,0,0-.2-.1-.1-.2-.1-.2.1-.1.1,0,.1.2c0-.2,0-.1,0,0c0-.1,0,0,0,0Z" fill="#0f3a54"/><path d="M387.7,374.8c0,0,0,.1,0,0c0,.1-.1.1,0,0l-.2.1v0c0,0,0,0-.1,0h-.1c0-.1,0-.2.1-.2s.2,0,.3.1c-.1,0-.1,0,0,0v0Z" fill="#2d7b7c"/><path d="M388.2,375.4v0c-.1,0-.1.1-.2,0v0c0-.1,0-.1,0-.2.1-.1.1,0,.2.2v0v0Z" fill="#2d7b7c"/><path d="M394.2,375.1l-1.5-.3c-.1,0-.2.1-.2.1-.1.1-.3.2-.4.3v0c0,0,.1-.1.1,0s.1.1,0,.2-.2.1-.3.1-.2.1-.2,0c-.1,0-.1,0-.1-.1l-.1-.1c-.1-.1-.1-.2,0-.3l.1-.1c0,0,.1,0,.1-.1s.1-.1.2-.2h-.1c-.6-.1-1.1-.3-1.7-.4-.1,0-.3,0-.4-.1h-.1c-.1,0-.1,0-.2,0l-.3-.1c.1.2.1.3.2.4c0,.1.1.1,0,.2v0c-.1,0-.2,0-.3.1c0,0,.1-.1.1-.2.1-.1.1-.2,0-.2-.1-.1-.2-.3-.2-.4l-.7-.2v0h-.2v0v0v0v0v0h-.1v0c0,0,0,0-.1,0v0c-.1,0-.1-.1-.2,0l-.1-.1c0-.1.1,0,.2,0c0,0,.1,0,.1.1v-.1l-.3-.2c0,.1,0,.1-.1.2c0,.2-.1.4-.2.5.1.1,0,.1,0,.2-.1.3-.2.7-.3.9v0c0,.1-.1.2-.1.3v0c0,0,0,.1,0,.2v.1c0,.1,0,.1-.1.1s-.1-.1-.1-.1c0,.1,0,.1,0,.2.2,0,.3.1.4.2s.1.1.2,0c0,0,0-.1.1-.2c0,0,0,0-.1,0s-.1.1-.2,0c0,0,0,0,0-.1v0c0-.1.1-.2.1-.2s0-.1,0-.2h.1c0,0,.1.1.2,0c.1,0,.2,0,.2,0c.1,0,.2.1.3.1l.1-.1v0l.1-.1v0c0-.1,0-.1,0-.2.1-.1.1,0,.2.1v.2v0l.1.1c0,0,0,.1.1.1l-.1.1v0l-.1.1c0,.1.1.1.2.1v0v0v0c.1-.1.2-.2.3-.1c0,0,.1,0,.2-.1c0,0,.1-.1.1,0s0,.1-.1.1c0,.1-.1.1-.1.1v0c-.1.1,0,.2.1.3h.1c.2-.1.1.1.1.1h-.2v.1c.3,0,.6-.1.9-.1l-.5.3c.1.1.1.1.1.2l.1.1v0c0,0,0,0,0,.1v0v0v0c0,.1,0,.1.1.1.2-.1.3-.3.4-.5.1-.1.1-.2.2-.1v0c0,0,0,0,.1,0v0c0,0,0-.1,0-.2s.1-.2.1-.3c.1-.1.2-.3.3-.3.1.1.2.1.2.1v0c0,0,.1.1.2.1v0-.1c.1-.1.2-.2.3-.2s.1,0,.1.1-.1.1-.1.1c-.1.1-.1.2-.2.1c0,0,.1,0,.1.1v0v0c.1.1.1.2.1.3.1-.1.1-.1.2-.2v0h-.1v-.1v0v0c0-.1,0-.1.1-.1h-.1c0,0,0,0,0,.1-.1-.1,0-.2,0-.2.1-.1.2-.2.3-.2c0,0,.1,0,.1.1v.1c.7-.1,1.2-.3,1.9-.5.1,0,.2,0,.2,0s.1,0,.2,0l.4-.1-.5-.2Zm-7-.1v0c-.1,0-.1,0,0,0-.1-.1-.2-.1-.1-.2v0v0v0c0,0,0,0,0-.1c0,0,0,0,.1,0c0,0-.1,0-.1.1v0c0,0,.1,0,.1.2.1-.1.1,0,0,0v0Zm.5-.2c0,0,0,.1,0,0c0,.1-.1.1,0,0l-.2.1v0h-.1c0,0,0,0-.1,0v0v0c0-.1,0-.2.1-.2s.2,0,.3.1c-.1,0-.1,0,0,0v0c0-.1,0-.1,0,0c.1-.1.1,0,0,0Zm2,.4v0v0v0v0Zm-.4-.6v0c0,.1,0,.2-.1.2c0-.1,0-.2.1-.2v0Zm-.1.4c-.1.1-.2,0-.2,0h.2Zm-.2.2c0,.1,0,.1,0,0-.1.1-.2.1-.2,0v0-.1v0l.2.1v0v0c0-.1,0-.1,0,0v0Zm-.2-.1v0c0,.1,0,.1,0,0v0v0Zm-.4.2v0c.1,0,.1,0,0,0v0v0c.1,0,.1,0,0,0v0v0Zm.6.2v0c0,0,.1,0,0,0v0Zm3.6-.4c0,.1-.1.1,0,0-.1.1-.1.1,0,0v0v0v0c-.3.1-.3,0-.2,0h.2c-.1-.1-.1-.1,0,0c.1-.2.1-.2,0,0c.1,0,0,0,0,0Z" fill="#2d7b7c"/><path d="M388.9,375.3v0v0c0-.1,0-.1,0,0c.1-.1.1-.1,0,0c.1,0,.1,0,0,0Z" fill="#318586"/><path d="M389.3,374.6v0c0,.1,0,.2-.1.2c0-.1,0-.2.1-.2v0Z" fill="#318586"/><path d="M389,376.1c0,0-.1,0,0,0-.3,0-.4.1-.5.1s-.2,0-.2.1c0,0,0,.1.1.1-.1,0-.1,0-.1.1-.1,0-.1,0-.1-.1c0,0,0,0,0-.1l-.1-.1c-.1-.1-.2-.2-.2-.4v-.1c-.2-.1-.1-.3-.1-.4v0l.1-.1c.1,0,.1,0,.2,0v0l.1.1c0,0,0,.1.1.1l-.1.1h-.1v.1c0,.1.1.1.2.1v0v0v0c.1-.1.2-.2.3-.1c0,0,.1,0,.2-.1c0,0,.1-.1.1,0s0,.1-.1.1-.1.1-.1.1c-.1.1,0,.2.1.3l.2.1c.1-.2,0,0,0,0Z" fill="#3fa4a5"/><path d="M389.8,376.1l-.5.3h-.1c-.2.1-.4.2-.5.3v0v0c0,0,0,0-.1,0c0,0,0,0-.1,0v0c-.1.1-.1,0-.1-.1v-.1l-.1-.2v0c0-.1,0-.1.1-.2c0,0,0,0,.1,0c.2,0,.4-.1.5-.1.2.2.5.1.8.1Z" fill="#e0f3fb"/><path d="M389.3,373.9v0v0l-.4-.1-.7-.2h-.2c-.1,0-.1,0-.2-.1v0h-.1v-.1h.2c.4.1.8.3,1.1.4v0v0v0c.2,0,.2,0,.3.1-.1-.1-.1-.1,0,0v0v0v0Z" fill="#e0f3fb"/><path d="M386.8,375.4v0c0,0,0,.1,0,.2v.1c0,0,0,0-.1.1-.1,0-.1-.1-.1-.1s0,0,0-.1c0,0,0,0,0-.1c0,0,0,0,0-.1s0-.1.1-.2c0-.1.1-.1.2-.1c0,.1-.1.2-.1.3Z" fill="#318586"/><path d="M387.6,374.9v0v0h-.2v0v0c.1-.1.1-.1.2,0Z" fill="#318586"/><path d="M392.6,375.1c0,0-.1.1,0,0-.1.1-.1.1,0,0v0v0v0c-.2.1-.2,0-.2,0h.2c-.1-.1-.1-.1,0,0v0c.1,0,0,0,0,0Z" fill="#318586"/><path d="M387.1,374.8v0v0v0v0v0c0,0,0-.1,0,0c0-.1,0-.1,0,0c.1-.1,0,0,0,0Z" fill="#2d7b7c"/><path d="M389.2,373.8c.1-.1.2-.1.2,0-.1.1-.2.1-.2,0Z" fill="#e0f3fb"/><path d="M387.2,374.7c0,0-.1.1,0,0-.1.1-.1.1,0,0v0v0c-.1.1-.1,0,0,0-.1,0-.1,0,0,0Z" fill="#2a7072"/><path d="M387.3,373.5c0,.2-.1.4-.2.5.1-.3.2-.3.2-.5Z" fill="#2a7072"/><path d="M387.7,374.8c0,0,0,.1,0,0c0,.1-.1.1,0,0l-.2.1v0h-.1c0,0,0,0-.1,0v0c0-.1,0-.2.1-.2s.2,0,.3.1c-.1,0-.1,0,0,0v0Z" fill="#2a7072"/><path d="M387.7,373.6c.1,0,0,0,0,0-.1,0-.1-.1-.2,0l-.1-.1c0-.1.1,0,.3.1-.1-.1,0-.1,0,0v0Z" fill="#2a7072"/><path d="M387.4,372.3v0v0c-.1.1-.1.1,0,0Z" fill="#e0f3fb"/><path d="M387.2,375.8v0c0,0-.1,0,0,0-.2,0-.2.1-.3,0c0,0,0,0,0-.1v0c.2.1.2,0,.3.1-.1-.1,0-.1,0,0Z" fill="#379596"/><path d="M388.7,378c-.1.1-.2.1-.3,0-.2,0-.2-.1-.2-.3c0-.1,0-.2,0-.4c0-.1-.1-.2.1-.3.1-.1.3-.1.4,0c.2.2.2.5.2.8-.1.2-.2.2-.2.2Z" fill="#bfe6fb"/><path d="M388.4,376.5l.1.2c-.2,0-.2-.1-.1-.2Z" fill="#44aeaf"/><path d="M389,375.2c0,.1,0,.1,0,0-.1.1-.2.1-.2,0v0-.1v0l.2.1v0v0c-.1-.1-.1-.1,0,0v0Z" fill="#2d7b7c"/><path d="M387.7,373.6v0c.1,0,0,0,0,0-.1,0-.1-.1-.2,0l-.1-.1c0-.1.1,0,.3.1-.1-.1,0-.1,0,0Z" fill="#318586"/><path d="M380.5,367.9c0,0-.1.1-.1.2s-.1.1-.2.1c-.2.1-.3.2-.5.3s-.3.2-.4.3-.3.1-.4.3h-.1c-.1.1-.3.1-.4.2-.3.3-.7.5-1,.7-.2.1-.5.3-.7.4-.4.3-.9.5-1.2.8s-.8.6-1.1.8c-.2.1-.3.2-.4.3l-.3.1c-.2.1-.3.2-.5.3-.4.2-.8.5-1.1.7-.1,0-.2.2-.3.2-.3.2-.6.4-.9.6-.5.3-.9.6-1.2.9-.5.3-.9.6-1.3.9-.2.1-.3.2-.4.3l-.2.1c-.3.2-.6.4-.9.6-.1.1-.2.1-.3.2-.5.3-.9.7-1.4.9-.6.4-1.2.8-1.8,1.1-.5.3-.9.6-1.4.9-.2.1-.4.2-.6.3-.3.2-.6.4-.9.6l.2-.2c.4-.2.8-.5,1.1-.7s.6-.4.9-.6.6-.4.9-.6.6-.4.9-.6.7-.4.9-.6c.2-.1.4-.2.6-.4.3-.2.7-.4.9-.6.3-.2.6-.4.9-.6.5-.3.9-.6,1.3-.9.3-.2.6-.4.9-.6.5-.3.9-.6,1.3-.9.3-.2.6-.4.9-.6.4-.2.7-.5,1-.7s.6-.4.9-.6.6-.4.9-.6.6-.4.9-.6c.5-.3.9-.6,1.3-.9.3-.2.6-.4.9-.6s.7-.5.9-.7c.3-.2.6-.4.9-.6s.7-.4.9-.7c.1,0,.2-.1.3-.1-.1.1-.2.2-.4.3-.1.3-.2.4-.2.6v0Z" fill="#d7effd"/><path d="M386.2,368.1v0c-.1.3-.2.3-.3.3v-.2h.1c.1-.1.1-.2.2-.1c0-.1,0,0,0,0c.2-.1.2-.2.2-.4c0-.1,0-.2-.1-.3s-.1-.2.1-.3l-.1-.1c-.1,0-.1,0-.2.1-.2.1-.2.1-.2-.1s-.1-.3-.3-.2l.1.1c0,0,.1,0,.1.1-.1.1-.2.2-.3,0h-.1v.1c.1.1,0,.2.1.3-.1.1-.2.1-.3.3c0,.1-.1,0-.1-.1s-.1-.1-.2,0-.2.1-.3,0c-.1,0-.2,0-.3.1l-.1.1c-.1,0-.1.1-.2,0c0-.1,0-.1.1-.1.1-.2.1-.4,0-.6l-.1.1c.1.3.1.3-.2.5s-.7.4-1,.5c-.1,0-.2.1-.3,0c.1-.2.4-.3.5-.4l.1-.1c0-.2-.1-.3,0-.5c0,0,0,0,0-.1s-.1-.1,0-.2c.1,0,.2-.2.3-.1.1,0,.1.1.2,0c0-.1-.1-.1-.1-.2c0,0,0,0-.1,0v-.1c-.3,0-.5,0-.8.1-.1.1-.2.1-.3,0-.1,0-.2.1-.3.1-.2.2-.4.3-.6.4s-.4.3-.6.4c-.1.2-.2.3-.4.4h-.1c0,.1,0,.2-.1.2v0c0,.2-.1.3-.3.4s-.3.2-.5.3-.3.2-.4.3c.1.2.1.2-.1.2-.1,0-.1,0-.1.1s-.1.1-.2,0h-.1c-.1.1-.3.1-.4.2-.3.3-.7.5-1,.7-.2.1-.5.3-.7.4-.4.3-.9.5-1.2.8-.4.3-.8.6-1.1.8-.2.1-.3.2-.4.3.2.3.1.5-.3.6.1-.1.1-.3,0-.4-.2.1-.3.2-.5.3-.4.2-.8.5-1.1.7c0,.1.1.1.2.1.2-.1.2-.1.2.1c0,0,0,.1.1.1.2.1.1.1,0,.2.1.1.1.3,0,.4-.1,0-.1.2-.2.1s-.3-.1-.3-.2l.2-.6c-.1.1-.1.2-.1.2-.1-.1,0-.2.1-.2-.1-.1.1-.2,0-.3c0-.1-.2,0-.2-.1-.3.2-.6.4-.9.6-.5.3-.9.6-1.2.9-.5.3-.9.6-1.3.9-.2.1-.3.2-.4.3c0,0,0,0,.1,0c0,.1-.1.1-.1,0l-.2.1c-.3.2-.6.4-.9.6-.1.1-.2.1-.3.2-.5.3-.9.7-1.4.9-.6.4-1.2.8-1.8,1.1l-1.4.8c-.2.1-.4.2-.6.3-.3.2-.6.4-.9.6l.4.8c.1,0,.1,0,.1,0c0,.1,0,.1-.1.1v.1c.1,0,.2.1.2.1h.1c-.1.1-.2.2-.3.3l.4.7c.2-.2.4-.4.7-.6.2-.1.3-.1.4.1c0,.1,0,.2,0,.2-.1.1-.3.2-.5.3-.1.1-.2.2-.4.2l.2.3l2.7,5c.1,0,.1-.1.1-.2s.1-.1.1-.1c.2,0,.3-.1.4-.2c0,0,0-.1.1-.1.2,0,.3-.1.4-.2s.2-.1.1-.3v-.1c.1.1.2.1.2.1s.1,0,.2-.1c0,0,.1,0,.1-.1.1,0,.1-.2.1-.3c0,0,0-.1-.1-.1s-.1-.1-.2-.1c.1-.1.2-.1.3,0s.1.1.2.1.1,0,.2-.1c.1,0,.1-.1.1-.1.1-.1.1-.1.2-.2.3-.2.5-.4.8-.6.2-.1.4-.3.6-.4.3-.3.7-.5.9-.8.2-.1.3-.2.4-.3l.1-.1c.1-.1.2-.1.3-.2.1,0,.1-.1.2-.1s.2-.2.3-.2c.4-.3.9-.6,1.2-.9.3-.2.5-.3.7-.6.1,0,.2-.1.2-.2.1-.1.2-.1.3-.2.3-.3.7-.5.9-.8.3-.2.5-.4.8-.6.2-.2.5-.4.7-.5l.1-.1c.1-.1.2-.2.4-.3s.4-.2.6-.4c.1,0,.1-.1.2-.1.3-.2.6-.5.9-.7.2-.1.4-.3.6-.4.5-.4,1-.8,1.5-1.1.6-.4,1.1-.8,1.6-1.2.4-.3.9-.6,1.2-.9.2-.2.5-.3.7-.5s.4-.4.7-.5c.4.3.8.5,1.2.8.3.1.6.3.9.5c0-.1,0-.1.1-.2c0,0,0,0,0-.1c0,0,0,0,0-.1v-.1c0-.1,0-.1.1-.2.1-.4.3-.9.4-1.2c0-.1.1-.1,0-.2-.1,0-.2,0-.2-.1s0-.2-.1-.3-.2-.2-.1-.3c0,0,0-.1-.1-.1c0-.2.1-.3.3-.4.1,0,.1-.1.1-.2c0-.2.1-.3.3-.4.1,0,0,0,0-.1-.1-.2,0-.2.2-.2.1-.1,0-.2.1-.3v-.1c-.1-.1,0-.2.1-.2.1-.1.2-.3.2-.5s.1-.4.1-.7c-.8,0-1-.4-1.2-.9Zm-24.8,13.7c-.1.1-.1.1,0,0-.1,0-.1.1-.2.1c0,0,0,0-.1.1c0,0,0,0,0-.1s0-.1,0-.2c0,0,0-.1.1-.1s.1,0,.2.2c-.1-.1-.1,0,0,0v0v0Zm1-.7c0,0-.1,0,0,0-.1.3-.1.3-.2.3c0,0,.1.1,0,.1h-.1c-.1-.1-.1-.1-.2-.1v0c-.1,0-.2.2-.4.2l.1-.1c.1-.1.2-.1.3-.1l.2-.1c.1,0,.1,0,.1,0v0-.1c.1-.1.1-.2.2-.1c0-.1,0,0,0,0v0Zm2.9-1.8c-.3.2-.6.4-.9.6-.1.1-.2.1-.2.2s0,.2.1.2.1.1,0,.1l-.1.1c.1,0,.2,0,.2-.1.1-.1.2-.1.3-.2.1,0,.1,0,.1.1-.1.1-.1.2-.2.2c0,0,0,0-.1,0c0,.3-.3.3-.5.3-.1,0-.1.2-.1.3s0,.1-.1.1c-.1-.1-.2-.2-.1-.3c0,0,0-.1.1-.1.1-.1,0-.2,0-.3-.3.2-.7.4-.9.6-.1.1-.2.1-.4.1.2-.1.3-.2.5-.3s.3-.3.5-.3c-.1-.1,0-.2.2-.3s.3-.2.4-.4l.1-.1c.2,0,.4-.2.5-.3c0,0,0-.1.1-.1s.2-.1.5-.1c0-.1,0-.1,0,0c.1,0,.1,0,0,0Zm2.1-2.2c.2-.1.3-.3.5-.3-.3.1-.4.2-.5.3Zm.8-.8v0v0Zm.1-.1c.1-.1.1-.1.2-.1-.1,0-.1.1-.2.1ZM372,375c0,0-.1,0,0,0c0-.1,0-.1,0,0c0-.1,0,0,0,0Zm10.1-6.5c0,0-.1,0-.2-.1.2,0,.3,0,.2.1.1,0,.1,0,0,0Zm.2-.1c0-.1.1-.2.2-.2-.1.1-.1.1-.2.2Z" fill="#d7effd"/><path d="M361.4,381.8v0c-.1.1-.1.1,0,0v0Z" fill="#d7effd"/><path d="M362.2,381.5v0c-.2-.1-.2-.1-.3-.1l.2-.1c.1,0,.1,0,.1,0c0,.1.1.1,0,.2Z" fill="#d7effd"/><path d="M368.1,376.3c0,.1-.1.1,0,0-.1,0-.1,0,0,0Z" fill="#d7effd"/><path d="M372,374.1c-.1.1-.1.2-.1.2-.1-.1,0-.1.1-.2Z" fill="#d7effd"/><path d="M372.1,374.9c-.1,0-.1.1,0,0-.1,0-.1,0-.2,0c.1,0,.1,0,.2,0Z" fill="#d7effd"/><path d="M380.5,367.9c0,.1,0,.2-.1.2c0-.1,0-.1.1-.2Z" fill="#d7effd"/><path d="M382.2,368.4c0,.1,0,.1,0,0-.1,0-.2,0-.2,0c.1,0,.2,0,.2,0Z" fill="#d7effd"/><path d="M382.5,368.3c-.1.1-.1.1-.2.2c0-.2.1-.2.2-.2Z" fill="#d7effd"/><path d="M386.2,368.1v0c-.1.3-.2.3-.3.3v-.2h.1c.1-.1.1-.2.2-.1c0-.1,0,0,0,0Z" fill="#d7effd"/><path d="M396.4,364.1c-.2,0-.4,0-.5.1-.4.2-.8.5-1.2.7-.2.1-.5.3-.7.4v0c0,0-.1.1-.5.3s-.6.4-.8.5-1.1,1.2-1.1,1.2-.2.1-.2.6c0,.4-.2,2.9-.2,2.9s-.1.3.1.4l1.6.4.6.2v-2.7-.8l.2-.3l2-2.7c.4-.5.5-.8.7-1.2.2,0,.1,0,0,0Z" fill="#0f3a54"/></g><path d="M360.7,380.4c-1.5-2.8-2.9-5.7-4.5-8.5.2-.3.4-.6.6-.9.1,0,0-.1,0-.2-.1-.2-.2-.2-.4,0s-.3.4-.4.6c-.2-.4-.5-.9-.7-1.2-.1-.1-.1-.2,0-.3l.1-.1c0-.1,0-.1.1-.1s.1,0,.1-.1c0-.2.2-.5.4-.6.1-.1.2-.3.4-.4v-.1c0-.1,0-.2.1-.2c0,0,0,0,.1,0c.2,0,.2-.1.3-.2s.2-.2.4-.3c.2,0,.3-.2.3-.4v-.1c.2,0,.2-.2.3-.3.1,0,.1-.1.1-.1c0-.1.1-.2.2-.2.2,0,.2-.2.4-.3.1,0,0-.1,0-.1-.1-.1-.1-.2.1-.3.1,0,.2-.1.2-.1c0-.1.1-.2.2-.2h.1c.1-.3.5-.3.6-.5h.1c.2,0,.2,0,.1-.2-.1-.1,0-.1.1-.2.3-.1.5-.3.8-.4.1-.1.2-.1.1-.2s0-.1,0-.1c.1-.1.3-.2.4-.3s.1-.1.2,0c.2.1.3-.1.5-.1c0,0,0,0,0-.1c0-.2.2-.3.3-.3.2-.1.3-.1.5-.1.1,0,.1,0,.2-.1c0-.3.3-.3.5-.4.1,0,.2-.1.3-.1.1-.1.2-.2.4-.1.1,0,.3,0,.3-.2v0c0-.1.1-.1.2-.1s.3,0,.4,0c0,0,.1-.1,0-.1c0-.1,0-.2.1-.1.1,0,.1,0,.1-.1s.1-.2.2-.1c.2,0,.4-.1.5-.2s.3-.1.4-.2c0,.1,0,0,.1,0c.1-.1.2-.2.3-.1.1,0,.2,0,.2-.1.1,0,.1,0,.2,0c0-.3,0-.3.4-.3.2,0,.4.1.4-.2c0,0,0-.1.1-.1.1.1.2.3.2,0c0-.1.2-.1.3-.1h.1c.1-.3.3-.1.4-.2.2,0,.3-.1.4-.2.1-.2.3-.1.5-.2.1-.1.3-.1.4-.2h.1c.2.1.2,0,.3-.2c0,.2.1.2.2.2.1-.1.2-.2.4-.2.3-.1.6-.4.9-.4s.5,0,.8.1c.1.1.1,0,.1,0c.1,0,.2-.2.4-.1.1.1.1-.1.2,0c.2,0,.5.1.7.1.2.1.5.2.7-.1.1-.1.3-.1.4-.1h.1c.1-.3.4,0,.6-.1.1.2.2,0,.3,0c.2,0,.3-.1.5,0c.2,0,.4,0,.5,0h.1c.3.1.7.2.9.1.1,0,.1,0,.2,0c.1-.1.2-.1.3,0s.4.1.4.1c.1-.1.3-.1.4-.1s.3,0,.4,0h.1c.4-.2.8,0,1.1-.1s.7,0,.9.2c.1.1.3,0,.3.2v0c.2-.1.3,0,.5,0s.4.1.7.2h.1c.2,0,.5.1.7.3.1.1.1.1.2.1.3-.1.4,0,.5.3c0,.1.1.1.1,0s.1-.1.2-.1c.1.1,0,.1,0,.2.2-.2.3-.1.5,0c.3.2.5.3.8.4.1,0,.2,0,.1.2c0,.1.1.1.1,0c.2,0,.3,0,.3.2c0,.1.1.2.2.2v0c.2,0,.3,0,.3.2c0,.1,0,.2.2.1h.1v0v.1c0,.1,0,.1-.1.2s0,.2,0,.2v0c.1.1.1-.1.2-.1s.2-.1.3,0c.2.2.4.4.6.6.1.1.2.2,0,.3.1.1.1,0,.2,0c.1-.1.2-.1.3.1s.3.3.5.4c.1,0,.1,0,.2.1c0,.1.1.1.2.1s.3,0,.2.2v.1v0l.1-.1c0-.2,0-.4,0-.6c0-.4,0-.7-.1-1.1.3.3.5.6.7.8.5.6,1,1.2,1.5,1.8.1.1.2.1.3,0c.3-.2.6-.4.9-.6.1-.1.1-.1.2,0c.3.3.6.6.8.9.1.1.1.1.2.2-.1.1-.3.2-.5.3s-.4.2-.6.4l-.2.2c-.1-.2-.2-.3-.3-.5-.1-.1-.1-.2-.2-.1-.1,0-.2.1-.1.2v0c.1.2.2.5.5.6v.1v0c-.1,0-.1.1-.2.2-.3.3-.6.7-.9.9l-.1.1c0,.3,0,.5,0,.8c0,.1,0,.2,0,.2c0,.1-.1.3,0,.4-.1.7-.1,1.3-.2,2c0,.2.1.3.3.4c0,.1,0,.3.1.3.2.1.4.1.4.3c0,0,0,0,.1,0c.3-.1.6.1.9.1.1,0,.3,0,.2.2c0,.1,0,.2,0,.2.1,0,.2,0,.3,0s0-.1,0-.2s0-.2.1-.3c.1,0,.2,0,.2.1.1.3.1.3.4.2.2-.1.4,0,.6.1.1.1.2.1.3.1.2,0,.3.1.4.2.1.2.2.1.3.1s.1-.1.2-.1c.1.1,0,.2,0,.2s0,.1-.1.1c-.1.1,0,.2.1.2s.1,0,.2,0s.3,0,.2.2c.1-.1.2-.2.3-.1-.1.2-.3.4-.6.5-.5.4-1,.7-1.5,1-.1.1-.3.1-.3.3l-1.5-.3c-.2-.1-.4-.1-.6-.1-.2-.1-.5-.1-.8-.2l-1.5-.4c0-.1-.2-.1-.2-.1-.1-.2-.3-.3-.5-.3-.4-.1-.8-.5-.9-.9c0-.2-.2-.4-.3-.6v-.1c-.1,0,.1-.1,0-.2-.1,0-.1.1-.1.2v0c-.1,0-.3,0-.2-.2-.1-.1.2-.1.1-.2-.2-.2,0-.3.1-.4s.2-.3.2-.5v.2c.1-.1,0-.3,0-.5-.1-.3-.2-.6-.3-.9s-.2-.6-.3-.8v-.1c0-.2-.1-.4-.2-.6-.1-.1-.2-.3-.3-.5s-.2-.4-.3-.5v0c-.1-.2-.2-.4-.4-.5-.3-.2-.7-.4-.9-.6-.1,0-.2-.1-.2-.1-.2.1-.4.1-.5,0-.1,0-.2,0-.3,0h-.1c-.3.1-.6-.1-.8.2-.1.1-.3,0-.4,0s-.2-.1-.3,0-.3.2-.4.2c-.5.3-.9.6-1.4.9-.3.2-.6.4-.9.6-.5.3-.9.6-1.3.9-.3.2-.6.4-.9.6-.5.3-.9.6-1.3.9-.3.2-.6.4-.9.6-.4.3-.9.6-1.2.9-.4.3-.9.6-1.2.9-.5.3-.9.6-1.4.9-.3.2-.6.4-.9.6-.4.3-.9.6-1.2.9-.3.2-.6.4-.9.6-.5.3-.9.6-1.4.9-.3.2-.6.4-.9.6-.4.3-.9.6-1.2.9-.3.2-.6.4-.9.6-.5.3-.9.6-1.4.9-.3.2-.6.4-.9.6-2.1-.4-2.6,0-3.1.3Z" fill="#f1f9fc"/><path d="M396.4,373.3c-.1-.1-.2,0-.3.1c0-.2-.1-.2-.2-.2s-.1,0-.2,0-.2-.1-.1-.2l.1-.1c0-.1.1-.2,0-.2-.1-.1-.1.1-.2.1s-.2.1-.3-.1c-.1-.1-.2-.2-.4-.2-.1,0-.2,0-.3-.1-.2-.1-.4-.1-.6-.1-.3.1-.3.1-.4-.2c0-.1-.1-.2-.2-.1-.1,0-.1.2-.1.3s.1.1,0,.2c-.1,0-.2,0-.3,0-.1-.1-.1-.1,0-.2.1-.2-.1-.2-.2-.2-.3,0-.6-.2-.9-.1h.2c0-.3-.3-.3-.4-.3-.1-.1-.1-.2-.1-.3l.4.1c0,.1-.1.1,0,.2.1,0,.1.1.2,0c.1,0,0-.1,0-.1.4.1.8.2,1.1.3.2,0,.2,0,.2-.1c0-.8,0-1.5,0-2.3c0-.1,0-.3,0-.4v-.3c0,0,0-.1,0-.2c0-.2.1-.4.2-.5s.2-.3.3-.4l.1-.1c.3-.4.6-.8.9-1.1v0c.2.2.4.5.6.7.1.1.1,0,.1-.1.1-.3.1-.6.2-.9c0-.3.1-.5.2-.8.1.4.2.9.3,1.2.2.8.3,1.5.5,2.3.1.3.1.5.1.8c0,.1,0,.2.2.2.4-.1.9-.2,1.3-.3l-1.9,2.2c.3.1.6.1.9.1.1,0,.2.1.1.2-.4.2-.8.7-1.1,1.2Zm-.9-3c0,.1.2.1.3.1s.1-.1.1-.1c0-.3-.1-.7-.3-.9c0-.1-.1-.1-.2,0-.1,0-.1.1-.1.2.1.2.1.5.2.7v0Zm.2,1.6c.3-.2.4-.5.2-.8c0-.1-.1-.1-.1-.1-.1,0-.1.1-.1.1c0,.2-.1.3-.3.5-.1.1-.2.2-.1.3.2,0,.3.1.4,0v0Zm-.2-3.6c0,.1.1.1.1.2c0,0,.1.1.2.1s0-.1,0-.2s0-.3,0-.4s0-.3-.1-.4-.2-.1-.3-.1-.1.1-.1.2v0c.1.3.1.5.2.6v0Zm-1.3,2.9c0,.1.1.1,0,0c.1.1.2.1.2,0c0-.2.1-.3.1-.5c0-.1,0-.2-.1-.2s-.2.1-.2.2v0c-.1.2,0,.4,0,.5Z" fill="#f4fafc"/><path d="M395.5,370.3c-.1-.3-.2-.5-.3-.8c0-.1,0-.1.1-.2.1,0,.2,0,.2,0c.2.2.3.6.3.9c0,.1,0,.1-.1.1c0,0-.1.1-.2,0Z" fill="#e2eaef"/><path d="M395.5,368.3c-.1-.2-.1-.4-.2-.5c0-.1,0-.2.1-.2v0c.1,0,.2,0,.3.1s.1.3.1.4s0,.3,0,.4s0,.1,0,.2c-.1,0-.1,0-.2-.1c0-.2,0-.2-.1-.3Z" fill="#e2eaef"/><path d="M394.2,371.2c0-.1,0-.3,0-.4s.1-.2.2-.2v0c.1,0,.1.1.1.2c0,.2-.1.3-.1.5c0,.1-.1.1-.1.1-.1-.1-.1-.1-.1-.2Z" fill="#e2eaef"/><g opacity="0.3"><path d="M378.8,361c.1.1.3.1.4,0c.1,0,.1-.1.1-.1c0-.2,0-.3-.3-.3l-.8-.1c-.1-.1-.2,0-.3,0s-.1,0-.2.1c0,.1,0,.1.1.2.4.2.7.3,1,.2v0Z" fill="#0d4160"/><path d="M363.6,366.5c-.1.1-.3.2-.4.3-.1,0-.2.2-.3.3s-.1.1,0,.2.1,0,.2,0c.2-.1.4-.2.7-.3.1,0,.2-.2.1-.3v0c-.1-.2-.2-.2-.3-.2Z" fill="#0d4160"/><path d="M385.7,363.2c-.2-.2-.4-.3-.7-.4-.1,0-.2,0-.2,0-.1.1,0,.1.1.2c0,.1.1.1.2.2.3.2.6.4.9.6.1.1.3.1.3,0c.1-.1.1-.2-.1-.3v0c-.1-.2-.3-.3-.5-.3v0Z" fill="#0d4160"/><path d="M381.7,361.3c-.1,0-.2,0-.2.1s0,.2.1.2c.3.1.7.1.9.2.1,0,.2,0,.2-.1s0-.1,0-.2c-.1-.1-.2-.1-.3-.1-.2-.1-.5-.1-.7-.1Z" fill="#0d4160"/><path d="M384,360.9c-.2-.1-.4-.2-.6-.2c0,0-.1-.1-.2-.1s-.2-.1-.3.1c0,.1,0,.2.1.3.2.1.4.3.6.3s.3.1.4,0c.2-.1.1-.2,0-.4v0Z" fill="#0d4160"/><path d="M372.9,360.8c-.1,0-.2,0-.2,0-.1,0-.1.1-.1.1c0,.1,0,.1.1.1.4.2.8.2,1.2.2.1,0,.2,0,.2-.1s.1-.3-.1-.3c-.4,0-.8,0-1.1,0Z" fill="#0d4160"/><path d="M373.6,369.2c-.2.1-.3.4-.5.5-.1,0-.1.1-.1.2v0c.1.1.1,0,.2,0c.5-.4.9-.8,1.4-1.1.1,0,.1-.1.1-.2s0-.2-.2-.2c-.1,0-.3,0-.3.2-.1.1-.3.3-.6.6Z" fill="#0d4160"/><path d="M363.4,373.8c-.2.2-.5.5-.8.6-.1.1-.2.2-.4.3-.1,0-.1.1,0,.2v0c0,0,.1.1.2.1.2-.1.4-.1.5-.2.3-.2.6-.5.9-.8.1-.1,0-.2,0-.3s-.1-.1-.2-.1c-.1.1-.2.1-.2.2Z" fill="#0d4160"/><path d="M380,359.8c-.1,0-.2-.1-.3.1c0,.1,0,.3.1.3.3.2.6.3.9.4.1,0,.2,0,.3-.1-.1-.1.1-.3-.2-.3-.3-.2-.6-.3-.8-.4Z" fill="#0d4160"/><path d="M360.8,373c0,0,.1,0,0,0c.2-.2.2-.3.2-.4v0c-.1-.1-.2-.1-.2,0-.1,0-.2,0-.2.1-.3.2-.6.5-.8.9-.1.1-.2.2,0,.3.1.1.2,0,.3-.1.2-.3.3-.7.7-.8Z" fill="#0d4160"/><path d="M365.5,367.9c.1,0,.1-.1.2-.1.3-.1.5-.2.8-.4.1-.1.1-.2,0-.4-.1-.1-.2-.1-.3,0-.4.2-.8.4-1,.6h-.2c-.1.1-.2.1-.1.2c0,.1.2.1.2.1v0c.2.1.3,0,.4,0Z" fill="#0d4160"/><path d="M380.9,363.8c.1,0,.1-.1.1-.2s0-.2-.1-.2c-.4-.1-.8-.1-1.1-.1-.1,0-.1.1-.1.1c0,.1,0,.1.1.2s.2.1.3.1c.1.1.5.1.8.1Z" fill="#0d4160"/><path d="M378.3,366.5v0c-.2.1-.4.2-.6.3-.1,0-.1.1-.1.1c0,.1.1.1.1.1v0c.1,0,.2,0,.3,0c.4-.1.7-.3,1-.5.1-.1.2-.1.1-.3c0-.1-.2-.2-.3-.1v0c-.1.2-.3.3-.5.4Z" fill="#0d4160"/><path d="M361.2,366.8v0c.3-.3.5-.5.7-.6.1-.1.2-.2.1-.3v0c-.1-.1-.2-.1-.3,0-.3.2-.5.5-.7.8-.1.1-.1.2,0,.2v0c0,0,.1-.1.2-.1Z" fill="#0d4160"/><path d="M371.1,367.7c.1-.1.3-.1.4-.2.1,0,.1-.2.1-.3v0c-.1-.1-.2-.1-.3,0-.4.2-.8.4-1.1.6-.1,0-.1.1-.1.1c0,.1.1.1.1.1.2,0,.6-.1.9-.3Z" fill="#0d4160"/><path d="M391.8,373c0,.1.1.1.3.1.1,0,.1-.1.1-.2c0-.2,0-.3-.1-.5s-.3-.4-.4-.7c0-.1-.1-.1-.2-.1s-.1.1-.1.2c.2.5.3.8.4,1.2Z" fill="#0d4160"/><path d="M370.1,362.6c.1,0,.2-.1.1-.2c0-.1-.1-.2-.2-.2-.3.1-.6.1-.9.1-.1,0-.1,0-.2.1c0,.1,0,.2.1.2.3.1.7.1,1.1,0Z" fill="#0d4160"/><path d="M395.3,373.8c.1-.1.2-.1.3-.2l.1-.1c0-.1-.1-.1-.1,0-.3,0-.7.1-.9.1s-.2.2-.2.3.1.1.2.1c.1-.1.4-.1.6-.2Z" fill="#0d4160"/><path d="M369.7,361.2c-.1.1-.3.1-.2.3c0,.1.2.1.3.1.3,0,.6-.1.8-.1.1,0,.2,0,.1-.1c0-.1,0-.2-.1-.2-.3-.2-.6-.2-.9,0Z" fill="#0d4160"/><path d="M360.9,369.2c-.2,0-.4.3-.5.5c0,.1-.1.1,0,.2s.1.1.2,0v0c.2-.2.5-.4.8-.6.1-.1.1-.2.1-.3s-.1-.1-.2,0c-.2.1-.3.2-.4.2Z" fill="#0d4160"/><path d="M370.8,365.4c-.2.1-.3.2-.5.3-.1,0-.1.1-.1.2s.1,0,.2,0c.4-.1.7-.2.9-.4.1,0,.2-.1.1-.2c0-.1-.1-.2-.2-.1v0c-.1,0-.2.1-.4.2Z" fill="#0d4160"/><path d="M367,365.6c.2-.1.3-.2.5-.2.1-.1.1-.2.1-.3v0c-.1-.1-.2-.1-.3,0-.3.1-.6.4-.9.6c0,0-.1,0-.1.1s.1.1.1,0c.2-.1.4-.2.6-.2Z" fill="#0d4160"/><path d="M370.7,364c-.2.1-.4.2-.5.3-.1,0-.1.1-.1.1s0,.1.1.1c.4,0,.7-.1.9-.3.1-.1.1-.2,0-.3s-.2-.1-.3,0c0,0,0,.1-.1.1Z" fill="#0d4160"/><path d="M358.5,370.2c.1,0,.1-.1,0,0c.2-.3.3-.4.5-.6.1-.1.2-.3,0-.4-.1-.1-.3,0-.4.1-.2.2-.3.5-.4.7c0,.1-.1.1,0,.2.2.1.3,0,.3,0Z" fill="#0d4160"/><path d="M394.8,373.3c.1-.1.3-.1.4-.2s.1-.2,0-.2c-.1-.1-.1-.1-.2,0s-.2.1-.3.1-.3.1-.4.2c-.1,0-.2.1-.2.3c0,.1.2.1.3.1.2-.2.3-.2.4-.3Z" fill="#0d4160"/><path d="M359.4,366.8c-.2.1-.4.3-.6.5c0,.1-.1.1,0,.2c0,0,.1.1.2,0c.1,0,.1-.1.2-.1.2-.1.4-.3.6-.4.1,0,.2-.1.1-.2c0-.1-.2-.2-.3-.1-.1,0-.1.1-.2.1Z" fill="#0d4160"/><path d="M366.4,362.9c-.1.1-.3.1-.2.2c0,.1.2.1.3.1.3,0,.5-.1.8-.2.1,0,.2-.1.2-.2v0c0-.1-.2-.1-.3-.1-.3,0-.5.1-.8.2Z" fill="#0d4160"/><path d="M393.5,374.3v0c.2-.4.3-.8.2-1.1c0-.1-.1-.1-.1-.1-.1,0-.1,0-.1.1c0,.3-.1.5-.2.8c0,.1,0,.1,0,.2-.1.1,0,.1.2.1v0Z" fill="#0d4160"/><path d="M375.4,361.8c0,0,0,.1,0,0c.3.2.6.1.9,0c.1-.1.1-.2.1-.3s-.1-.1-.3-.1c-.2.1-.4.1-.6.2-.2,0-.2.1-.1.2Z" fill="#0d4160"/><path d="M364.8,364.1c-.2.1-.4.3-.5.3s-.1.1-.1.2.1.1.1.1c.3,0,.6-.1.9-.3.1-.1,0-.1,0-.2s-.1-.1-.2-.1v0c0-.1-.1-.1-.2,0Z" fill="#0d4160"/><path d="M385.6,362c0,0,0,.1,0,0c.4.3.6.7.9.9.1.1.2.2.4.1v0c.1,0,0-.2,0-.3-.2-.5-.6-.7-.9-.9-.1,0-.2,0-.2,0-.3.1-.3.1-.2.2Z" fill="#0d4160"/><path d="M374.6,362.9c.1,0,.2-.1.1-.2c0-.1-.1-.1-.2-.1v0c-.2,0-.4,0-.5,0s-.2,0-.3.1c-.1,0-.1.1-.1.1c0,.1.1.1.2.1.3.1.6,0,.8,0c0,.1,0,0,0,0Z" fill="#0d4160"/><path d="M362.8,369c.1,0,.2-.2.3-.3s.1-.2.1-.3c-.1-.1-.2-.1-.3-.1v0c-.2.1-.3.2-.4.4c0,.1-.1.1-.1.2.1.1.2.1.4.1-.1,0-.1,0,0,0Z" fill="#0d4160"/><path d="M390,365.4c.1,0,.1.1,0,0c.2.2.3.3.5.2.1-.1.1-.3,0-.4-.1-.3-.3-.5-.5-.8-.1-.1-.2-.1-.3-.1s-.1.1-.1.2c.2.4.3.6.4.9Z" fill="#0d4160"/><path d="M358.7,371.9c.1,0,.1-.1.2-.2s.1-.2.2-.3.1-.2,0-.3-.2-.1-.3,0c-.2.1-.3.3-.4.6c0,.1-.1.1,0,.2.2,0,.2,0,.3,0Z" fill="#0d4160"/><path d="M388.1,365.9c.2.2.4.5.8.5.1,0,.2,0,.3-.1c0-.1.1-.3-.1-.4-.3-.1-.5-.2-.8-.4-.1,0-.1,0-.2,0-.1.2-.1.3,0,.4Z" fill="#0d4160"/><path d="M360.9,367.7c-.1.1-.2.2-.3.3c0,.1-.1.1,0,.2s.2.1.3,0v0c.1-.1.1-.2.2-.2.1-.1.1-.2,0-.3c0-.1-.1-.1-.2,0Z" fill="#0d4160"/><path d="M362.3,364.6c-.2.1-.3.2-.4.4c0,.1-.1.1,0,.2s.1,0,.2,0c.1-.1.3-.2.4-.3s.1-.2.1-.3c-.2,0-.3,0-.3,0Z" fill="#0d4160"/><path d="M390.9,366.6c.2.1.3.2.5.3c0,0,.1.1.1,0c0,0,.1-.1,0-.1-.1-.2-.2-.3-.4-.5-.1-.1-.2,0-.2,0c0,.1,0,.2,0,.3Z" fill="#0d4160"/><path d="M390,372.3c-.1,0-.1.1,0,0-.2.1-.1,0,0,0-.1-.1-.1-.2-.1-.2-.1,0-.1,0-.1-.1c0-.2-.1-.1-.2-.1h-.1c0,.1,0,.1.1.2l.1.1c0,.1.1.2.3.3c0,0,0-.1,0-.2Z" fill="#0d4160"/><path d="M369.6,369.9c.1-.1.2-.1.2-.2s-.1-.1-.2-.1-.1,0-.2.1-.4.1-.3.3c.2.1.4-.1.5-.1Z" fill="#0d4160"/><path d="M389.5,371.7c0-.1.1-.1,0,0c.1-.1.2-.1.2-.2s-.1-.2-.2-.2s0,.1,0,.1s0,0-.1,0-.1.1-.1.2v.1c.1.1.1,0,.2,0v0Z" fill="#0d4160"/><path d="M388.4,372.3c-.1,0-.1-.1-.2-.1c0,.1,0,.2,0,.2.1.1.1,0,.2-.1c0,0,0-.2.1-.2c0,0,.1-.1,0-.1v0c0,0-.1,0-.1.1s0,.1,0,.2Z" fill="#0d4160"/><path d="M388.9,371.9c-.3,0-.2.2-.2.3s.1.1.1.2c0-.1.1-.2.1-.3c0-.2-.2-.2,0-.2Z" fill="#0d4160"/><path d="M390.4,373c0-.1-.2-.1-.2-.2s-.1-.2-.2-.2c0,0-.1-.1-.1,0s0,.1.1.1c.2,0,.2.1.1.2c0,0,0,.2.1.1.1,0,.2,0,.2,0Z" fill="#0d4160"/><path d="M388.9,371.6c0-.1.2-.1.1-.2c0-.1-.1-.1-.1-.1v0c0,.1,0,.2,0,.3-.1.1,0,0,0,0Z" fill="#0d4160"/><path d="M390.8,373c-.1-.1-.3-.2-.2-.3v-.1c-.1,0-.1.1-.1.1c0,.2.2.3.3.3Z" fill="#0d4160"/><path d="M389.5,373.7c.1-.1.1-.2.1-.3s-.1-.1-.2-.1c.1.1,0,.3.1.4Z" fill="#0d4160"/><path d="M389.9,372.9c0-.1-.1-.1,0,0-.2-.1-.1,0,0,0-.1.1,0,.1,0,0c.1.1,0,.1,0,0Z" fill="#0d4160"/><path d="M391.1,371.4c0,.1.1.1,0,0c.1.1.2,0,0,0v0v0c0-.1,0-.1,0,0Z" fill="#0d4160"/><path d="M388.9,371.3c0,0,0-.1,0,0c0-.1-.1-.2-.2-.1c0,0-.1,0-.1.1.2,0,.3,0,.3,0Z" fill="#0d4160"/><path d="M390.6,371.3c0,0,.1.1,0,0v0c.1-.2,0-.2,0-.2c0,.1,0,.1,0,.2c0-.1,0,0,0,0Z" fill="#0d4160"/></g></g></g><clipPath id="evnClc4RLPp263"><use width="52.139893" height="48.039886" xlink:href="#evnClc4RLPp3"/></clipPath></g></g></g></g></g></g></g></g></g></g><line x1="393.4" y1="387.6" x2="407.1" y2="413.9" fill="none" stroke="#000" stroke-width="0.4804" stroke-miterlimit="10"/><line x1="390.8" y1="388.9" x2="404.5" y2="415.2" fill="none" stroke="#000" stroke-width="0.4804" stroke-miterlimit="10"/><line x1="388.3" y1="390.2" x2="401.9" y2="416.6" fill="none" stroke="#000" stroke-width="0.4804" stroke-miterlimit="10"/><line x1="385.7" y1="391.6" x2="399.4" y2="417.9" fill="none" stroke="#000" stroke-width="0.4804" stroke-miterlimit="10"/><line x1="383.2" y1="392.9" x2="396.8" y2="419.2" fill="none" stroke="#000" stroke-width="0.4804" stroke-miterlimit="10"/><g><path d="M373.6,398.5c.5,0,1-.1,1.7-.1.6-.7,1.1-1.3,1.4-1.7c0-.1-.1-.1-.1-.2.2-.2.4-.4.6-.5.2,0,.4.1.2.3-.2.3-.9,1.3-1.4,2c1.4-.1,2.8-.2,2.9.1.1.1.1.4,0,.5-.9-.3-5.6.4-6.2.4-.1-.1-.1-.6,0-.7.3-.1.5-.2.8-.3.1,0,0,.2.1.2Z" fill="#fff"/><path d="M378.1,399.3c.1.2.1.6-.5.9-.8.4-1.6.6-1.8.1-.1-.2,0-.4.1-.5-.3.1-.6.2-.9.3-.3.2-.5.4-.3.7.3.5,1.1.5,1.6.2c0,0,.1,0,.1.1.1.1,0,.2-.2.3-.5.3-1.6.4-1.9-.3-.3-.5,0-1.1.7-1.5c1-.5,2.8-.8,3.1-.3Zm-2.1.7c.1.2.9,0,1.4-.3.3-.1.3-.2.3-.2s-.1,0-.2,0c-.5,0-.9.1-1.4.3c0,0-.1.1-.1.2v0Z" fill="#fff"/><path d="M377.9,400.2c.2.2.4.4.5.6.3-.1.6-.1.9-.1.1.1.1.5,0,.5l-.5.1c.1.1.1.2.2.3s.2.2.1.3s0,.1,0,.2-.1.2-.1.2h-.1v0c-.2-.3-.4-.6-.6-.9-.9.2-1.6.4-2.4.8-.2.1-.2.2-.2.3.3.4.8.6,1.2.5c0,0,.2.2-.2.4-.5.2-1-.1-1.3-.5-.2-.4,0-.9.7-1.3.6-.3,1.2-.5,1.9-.7l-.2-.3c-.2-.1,0-.5.1-.4Z" fill="#fff"/><path d="M379.1,402.3c.1,0,.1,0,0,0c.1.1.3.6.1.7-.9.2-1.7.4-2.6.8-.2.1-.3.3-.2.4.2.4.9.1,1.1,0c.1.1.1.2,0,.3c0,0,0,0-.1.1-.5.3-1.2.2-1.5-.3-.2-.4,0-.7.5-.9c1-.6,1.8-.9,2.7-1.1Zm.9-.3c.2-.1.7-.3.9,0c.1.2.1.3-.1.3c0,.1-.1.3-.2.3-.3.2-.7.1-.8-.2v0c0-.1.1-.2.2-.4v0Z" fill="#fff"/></g><g><path d="M407.5,384.5c-1.1.7-2.5.2-3.1-.9l-.1-.1-.9-1.6l4.2-2.2.9,1.6c.6,1.3.2,2.6-1,3.2.1,0,.1,0,0,0Zm-.5-.8c.7-.3.9-1,.7-1.7c0,0,0-.1-.1-.1l-.4-.7-2.5,1.3.4.7c.3.7,1.1.9,1.8.7.1-.2.1-.2.1-.2v0Z" fill="#fff"/><path d="M410.1,386.5l-.9.5-.2-.4c-.3-.5-.6-.6-1.1-.3l-1.7.9-.5-.9l3.2-1.7.3.6-.3.4c.4.1.8.4.9.8l.3.1Z" fill="#fff"/><path d="M410.3,387.1l.5.9-3.2,1.7-.5-.9l3.2-1.7Zm1.2-.7l.5.9-.9.4-.5-.9.9-.4Z" fill="#fff"/><path d="M412.7,391.7l-3.9.4-.4-.8l2.6-3l.5.9-1.7,1.9l2.6-.4.3,1Z" fill="#fff"/><path d="M412.6,396.2l-1.2-2.5c-.4.3-.5.8-.3,1.1.1.3.4.5.8.5l.5.9c-1,.2-2.1-.5-2.4-1.5s.5-2.1,1.5-2.4s2.1.5,2.4,1.5c.2.9-.2,1.7-.9,2.1-.2.2-.3.3-.4.3Zm-.6-2.8l.9,1.5c.3-.3.4-.8.2-1.1-.3-.3-.7-.5-1.1-.4v0Z" fill="#fff"/><path d="M415.8,397.8l-.9.5-.2-.4c-.3-.5-.6-.6-1.1-.3l-1.7.9-.5-.9l3.2-1.7.3.6-.3.4c.4.1.8.4.9.8l.3.1Z" fill="#fff"/><path d="M399.7,387.2l-.9.5-1.3-2.5l4.2-2.2.5.9-3.3,1.7.8,1.6Z" fill="#fff"/><path d="M402.4,386.4l.5.9-3.2,1.7-.5-.9l3.2-1.7Zm1.2-.6l.5.9-.9.4-.5-.9.9-.4Z" fill="#fff"/><path d="M401.5,388.8c.9-.5,2.1-.2,2.6.8v.1c.5.8.3,1.8-.5,2.4l-.5-.9c.3-.4.3-1-.1-1.3-.3-.3-.8-.3-1-.1-.5.2-.7.8-.5,1.2v0c.2.4.6.6.9.5l.5.9c-.9.3-1.8-.1-2.2-.9-.5-1-.1-2.2.8-2.7v0Z" fill="#fff"/><path d="M405,396l-1.2-2.5c-.4.3-.5.8-.3,1.1.1.3.4.5.8.5l.5.9c-1,.2-2.1-.5-2.4-1.5-.2-1,.5-2.1,1.6-2.4c1-.2,2.1.5,2.4,1.5.2.9-.2,1.7-.9,2.1-.4.2-.5.2-.5.3Zm-.7-2.7l.9,1.5c.3-.3.4-.8.2-1.1-.3-.4-.7-.5-1.1-.4v0Z" fill="#fff"/><path d="M407.4,399.3l-2,1-.5-.9l1.8-.9c.5-.3.7-.6.5-.9s-.7-.6-1.1-.4c0,0-.1,0-.1.1l-1.7.9-.5-.9l3.2-1.7.3.6-.3.4c.5.1.9.4,1,.9.5.6.2,1.3-.6,1.8.2,0,.1,0,0,0Z" fill="#fff"/><path d="M406.8,400.4l.5.9c-.3.2-.3.5-.2.8s.4.4.6.3.1-.5,0-.8c-.2-.6-.4-1.3.4-1.7.6-.3,1.3,0,1.7.8.4.6.3,1.3-.3,1.8l-.1.1-.5-.9c.3-.1.3-.4.1-.7-.1-.3-.4-.4-.6-.3s-.1.4,0,.8c.2.6.4,1.3-.4,1.7-.7.4-1.3,0-1.8-.8-.5-.6-.3-1.4.4-1.9.2,0,.2-.1.2-.1Z" fill="#fff"/><path d="M410.5,406.7l-1.2-2.5c-.4.3-.5.8-.3,1.1.1.3.4.5.8.5l.5.9c-1,.2-2.1-.5-2.4-1.5-.2-1,.5-2.1,1.5-2.4c1-.2,2.1.5,2.4,1.5.2.9-.2,1.7-.9,2.1-.2.2-.3.2-.4.3Zm-.6-2.7l.9,1.5c.3-.3.4-.8.2-1.1-.3-.3-.7-.5-1.1-.4v0Z" fill="#fff"/></g></g><path d="M401.5,467.1l-6.2-54.5c-1.1-4.5-6.2-7.5-11.2-6.6-5,.8-7,2.7-7,9.5l.1,14.4.8,9.1c-.2,3.4.2,6.9,1.3,10.2c1.8,5.4.1-3.8-1.8,1.5l-.6,1.7c-3.8,13.3-.8,27.8,3.2,33.9c2,3,2.9,5.7,6.2,7.7c4.9,3.1,7.4,18.2,10.2,27.7c4,13.4,6.7,37.1,6.7,37.1l14.2,111.5h65L418.1,468.7" fill="#b1b1b1"/></g><clipPath id="evnClc4RLPp290"><use width="641.100037" height="626.600037" xlink:href="#evnClc4RLPp2"/></clipPath></g></g></g></g></g><g><g><g><g><path d="M330.6,178.9h-51.4c-.8,0-1.4-.6-1.4-1.4s.6-1.4,1.4-1.4h51.4c.8,0,1.4.6,1.4,1.4.1.8-.6,1.4-1.4,1.4Z" fill="#fff"/></g></g></g></g></svg>
