<svg id="eBXTNFLkhpm1" xmlns="http://www.w3.org/2000/svg" xmlns:xlink="http://www.w3.org/1999/xlink" viewBox="140 0 341.1 626.6" shape-rendering="geometricPrecision" text-rendering="geometricPrecision">
<style><![CDATA[
#eBXTNFLkhpm141_to {animation: eBXTNFLkhpm141_to__to 2700ms linear infinite normal forwards}@keyframes eBXTNFLkhpm141_to__to { 0% {transform: translate(359px,812.984895px)} 37.037037% {transform: translate(308.4px,500.699985px)} 40% {transform: translate(308.4px,509.699985px)} 59.259259% {transform: translate(308.4px,509.699985px)} 96.296296% {transform: translate(251.79997px,814.642729px)} 100% {transform: translate(251.79997px,814.642729px)}}
]]></style>
<defs><rect id="eBXTNFLkhpm2" width="641.1" height="626.6" rx="0" ry="0"/><circle id="eBXTNFLkhpm3" r="2.2"/><path id="eBXTNFLkhpm4" d="M381.6,373.8c1.2,0,2.2.9,2.2,2.2c0,1.2-.9,2.2-2.2,2.2-1.2,0-2.2-.9-2.2-2.2c0-1.2,1-2.1,2.2-2.2Z"/><circle id="eBXTNFLkhpm5" r="2.2"/><path id="eBXTNFLkhpm6" d="M359.8,403.3c.1,0,.1,0,0,0l35.1,7.8-3.3,7.8-32.8-.2c0,0,0,0-.1,0-4.6,0-8.1-3.5-7.8-7.8s3.7-9,8.9-7.6Z"/><path id="eBXTNFLkhpm7" d="M362.4,414.9v0l31.1-1.8l2,14.2-31.1,1.7c0,0,0,0-.1,0-4.3.3-8.4-2.7-8.9-6.7s2.7-7.2,7-7.4Z"/><path id="eBXTNFLkhpm8" d="M364.7,427v0l28.3,1.2-.1,12.8-28.2-1.2c0,0,0,0-.1,0-4-.2-7.2-3.2-7.2-6.8.1-3.6,3.3-6.2,7.3-6Z"/><path id="eBXTNFLkhpm9" d="M393.8,393c1.7-.1,3.4.5,4.6,1.6l13.8,11.7c2,1.8,3.1,4.2,3.1,6.9l.5,51.1c0,3-2.7,5.3-6.1,5.1l-12.2-.6c-3.4-.2-6.1-2.7-6.1-5.7l2.4-42.8-10.7-9L360,411c-9.9.2-15.4-4.2-13.8-10c.9-3.4,2.9-5.8,10.5-5.7l37.1-2.3Z"/><path id="eBXTNFLkhpm10" d="M355.8,310.3l1.7,33.2c1.3,25.5,5.1,50.9,11.2,75.7l4.1-5.3l5.3,4.1l4.1-5.3l5.3,4.1l4.1-5.3l5.3,4.1l4.1-5.3l5.3,4.1l4.1-5.3l5.3,4.1l4.1-5.3l5.3,4.1c-6.1-24.8-9.9-50.1-11.2-75.7l-1.7-33.2-4.1,5.3-5.3-4.1-4.1,5.3-5.3-4.1-4.1,5.3-5.3-4.1-4.1,5.3-5.3-4.1-4.1,5.3-5.3-4.1-4.1,5.3-5.3-4.1Z"/><path id="eBXTNFLkhpm11" d="M399.2,449.5l-6.1-54.2c-1.1-4.4-6.1-7.4-11.1-6.6s-7,2.6-7,9.4l.1,14.3.8,9c-.2,3.4.2,6.9,1.3,10.2c1.8,5.4.1-3.8-1.8,1.5l-.6,1.7c-3.8,13.2-.8,27.7,3.2,33.7c2,3,2.9,5.7,6.1,7.6c4.9,3.1,7.3,18.1,10.2,27.5c4,13.3,6.7,36.9,6.7,36.9l15.6,122.7h66.9L415.8,450.8"/><polygon id="eBXTNFLkhpm12" points="348.5,302.8 344.3,298.4 339.8,302.8 335.4,298.4 331.2,302.8 326.7,298.4 322.5,302.8 318.1,298.4 313.8,302.8 309.4,298.4 305.2,302.8 300.7,298.4 296.5,302.8 296.5,203 300.7,207.4 305.2,203 309.4,207.4 313.8,203 318.1,207.4 322.5,203 326.7,207.4 331.2,203 335.4,207.4 339.8,203 344.3,207.4 348.5,203"/><rect id="eBXTNFLkhpm13" width="35.9" height="36.4" rx="0" ry="0"/><rect id="eBXTNFLkhpm14" width="12" height="12.1" rx="0" ry="0"/><rect id="eBXTNFLkhpm15" width="6.1" height="6.2" rx="0" ry="0"/><rect id="eBXTNFLkhpm16" width="6.1" height="6.2" rx="0" ry="0"/><rect id="eBXTNFLkhpm17" width="6.1" height="6.2" rx="0" ry="0"/><rect id="eBXTNFLkhpm18" width="6.1" height="12.1" rx="0" ry="0"/><rect id="eBXTNFLkhpm19" width="6.1" height="6.2" rx="0" ry="0"/><polygon id="eBXTNFLkhpm20" points="328.4,244.5 328.4,250.5 334.5,250.5 334.5,256.6 340.3,256.6 340.3,244.5"/><rect id="eBXTNFLkhpm21" width="6.1" height="6.2" rx="0" ry="0"/><rect id="eBXTNFLkhpm22" width="6.1" height="6.2" rx="0" ry="0"/><rect id="eBXTNFLkhpm23" width="6.1" height="6.2" rx="0" ry="0"/><rect id="eBXTNFLkhpm24" width="6.1" height="6.2" rx="0" ry="0"/><rect id="eBXTNFLkhpm25" width="6.1" height="6.2" rx="0" ry="0"/><path id="eBXTNFLkhpm26" d="M337.2,264.4h-32.5c-.3,0-.4-.1-.4-.4s.1-.4.4-.4h32.5c.3,0,.4.1.4.4.1,0-.1.4-.4.4Z"/><path id="eBXTNFLkhpm27" d="M337.2,266.8h-32.5c-.3,0-.4-.1-.4-.4s.1-.4.4-.4h32.5c.3,0,.4.1.4.4.1.2-.1.4-.4.4Z"/><path id="eBXTNFLkhpm28" d="M337.2,269.7h-32.5c-.3,0-.4-.1-.4-.4s.1-.4.4-.4h32.5c.3,0,.4.1.4.4.1.2-.1.4-.4.4Z"/><path id="eBXTNFLkhpm29" d="M319.3,276h-14.7c-.3,0-.4-.1-.4-.4s.1-.4.4-.4h14.7c.3,0,.4.1.4.4s-.2.4-.4.4Z"/><path id="eBXTNFLkhpm30" d="M337.5,276h-14.7c-.3,0-.4-.1-.4-.4s.1-.4.4-.4h14.7c.3,0,.4.1.4.4s-.1.4-.4.4Z"/></defs><g><g><g><rect width="216.2" height="434.4" rx="0" ry="0" transform="translate(212.4 28.8)" fill="none" stroke="#dadada" stroke-width="2.3367" stroke-miterlimit="10"/><rect width="215.8" height="32.9" rx="0" ry="0" transform="translate(212.9 28.8)" fill="#959595"/><rect width="161.7" height="18.5" rx="0" ry="0" transform="translate(239.2 36)" fill="#292b2b"/><circle r="7.3" transform="translate(320 45.3)" fill="#444"/><path d="M187.7,1.9v473.9h265.8v-473.9h-265.8Zm241,461.3h-216.3v-434.4h216.2v434.4Z" fill="#e5e5e5"/><rect width="216.2" height="401.5" rx="0" ry="0" transform="translate(212.4 61.7)" fill="#d0d0d1"/><rect width="161.7" height="271.9" rx="0" ry="0" transform="translate(239.2 70.3)" fill="#fe7f78"/><rect width="265.8" height="150.9" rx="0" ry="0" transform="translate(187.7 475.7)" fill="#d2d2d2"/><g><g><path d="M400.9,388.3c-.1,1.9-1.6,3.5-3.3,3.4h-54.4c-1.7.1-3.3-1.4-3.3-3.4v-13c.1-1.9,1.6-3.5,3.3-3.4h54.4c1.7-.1,3.3,1.4,3.3,3.4v13v0Z" fill="#e3e3e3" stroke="#4a4a4a" stroke-width="0.2161" stroke-miterlimit="10"/></g><g><path d="M400.9,434.7c-.1,1.9-1.6,3.5-3.3,3.4h-54.4c-1.7.1-3.3-1.4-3.3-3.4v-23.6c.1-1.9,1.6-3.5,3.3-3.4h54.4c1.7-.1,3.3,1.4,3.3,3.4v23.6v0Z" fill="#959595"/></g><g><path d="M407.7,395.1c-1.5-.1-2.7-1.3-2.6-2.5v-35.8c-.1-1.3,1.1-2.5,2.6-2.5h13.1c1.5.1,2.7,1.3,2.6,2.5v35.8c.1,1.3-1.1,2.5-2.6,2.5h-13.1v0Z" fill="#959595"/></g><g><path d="M400.9,401.6c-.1,1.9-1.6,3.5-3.3,3.4h-54.4c-1.7.1-3.3-1.4-3.3-3.4v-4.4c.1-1.9,1.6-3.5,3.3-3.4h54.4c1.7-.1,3.3,1.4,3.3,3.4v4.4v0Z" fill="#808080"/></g><g><path d="M400.9,362c-.1,1.9-1.6,3.5-3.3,3.4h-54.4c-1.7.1-3.3-1.4-3.3-3.4v-4.4c.1-1.9,1.6-3.5,3.3-3.4h54.4c1.7-.1,3.3,1.4,3.3,3.4v4.4v0Z" fill="#808080"/></g><path d="M397.6,382.5c0,.6-.6,1.1-1,1.1h-52.2c-.6,0-1-.6-1-1.1v-1.5c0-.6.6-1.1,1-1.1h52.2c.6,0,1,.6,1,1.1v1.5v0Z" fill="#2a353f" stroke="#000" stroke-width="0.6248" stroke-linecap="round" stroke-linejoin="round"/><rect width="54.3" height="1.1" rx="0" ry="0" transform="translate(343.3 381.2)" fill="none" stroke="#000" stroke-width="0.125" stroke-linecap="round" stroke-linejoin="round"/><path d="M397.6,382.4v.2c0,.6-.6,1.1-1,1.1h-52.2c-.6,0-1-.6-1-1.1v-.2h54.2Z" fill="#161b1e" stroke="#000" stroke-width="0.125" stroke-linecap="round" stroke-linejoin="round"/><path d="M397.6,381v.2h-54.3v-.2c0-.6.6-1.1,1-1.1h52.2c.6,0,1.1.4,1.1,1.1Z" fill="#161b1e" stroke="#000" stroke-width="0.125" stroke-linecap="round" stroke-linejoin="round"/><rect width="54.3" height="1.1" rx="0" ry="0" transform="translate(343.3 381.2)" fill="none" stroke="#000" stroke-width="0.125" stroke-linecap="round" stroke-linejoin="round"/><rect width="54.3" height="1.1" rx="0" ry="0" transform="translate(343.3 381.2)" stroke="#000" stroke-width="0.125" stroke-linecap="round" stroke-linejoin="round"/><circle r="0.8" transform="translate(226.1 358.2)"/><circle r="0.8" transform="translate(226.1 360.6)"/><circle r="0.8" transform="translate(226.1 363.1)"/><circle r="0.8" transform="translate(228.2 359.2)"/><circle r="0.8" transform="translate(224 362)"/><circle r="0.8" transform="translate(228.3 361.8)"/><circle r="0.8" transform="translate(223.9 359.5)"/><g><g><path d="M237.3,359.8v-2.9c0-1.5,1.1-2.7,2.4-2.5h89.7c1.2-.1,2.4,1.2,2.4,2.5v2.9h-94.5Z" fill="#808080"/><rect width="94.4" height="8" rx="0" ry="0" transform="translate(237.4 359.8)" fill="#959595"/><path d="M237.3,435.5v-67.8h94.4v67.8c0,1.5-1.1,2.7-2.4,2.5h-89.6c-1.2.2-2.3-1-2.4-2.5Z" fill="#959595"/></g><g><path d="M210.1,500.7v-2.9c0-1.5,1.1-2.7,2.4-2.5h61.6c1.2-.1,2.4,1.2,2.4,2.5v2.9h-66.4Z" fill="#959595"/><rect width="66.3" height="8" rx="0" ry="0" transform="translate(210.3 500.7)" fill="#959595"/><path d="M210.1,591.8v-83.1h66.3v83.1c0,1.5-1.1,2.7-2.4,2.5h-61.5c-1.2.1-2.2-1.1-2.4-2.5Z" fill="#959595"/></g><path d="M237.3,435.5v-39.1h94.4v39.1c0,1.5-1.1,2.7-2.4,2.5h-89.6c-1.2.2-2.3-1-2.4-2.5Z" opacity="0.32" fill="#fff"/></g><rect width="23.9" height="8.6" rx="0" ry="0" transform="translate(272.6 369)"/><g><path d="M322.8,424.2c-.1,1.9-1.6,3.5-3.3,3.4h-70.1c-1.7.1-3.3-1.4-3.3-3.4v-17.3c.1-1.9,1.6-3.5,3.3-3.4h70.1c1.7-.1,3.3,1.4,3.3,3.4v17.3v0Z" fill="#808080"/></g><g><rect width="10.8" height="3.7" rx="0" ry="0" transform="translate(254.7 406.2)" fill="#959595"/><rect width="10.8" height="3.7" rx="0" ry="0" transform="translate(254.7 411.2)" fill="#959595"/><rect width="10.8" height="3.7" rx="0" ry="0" transform="translate(254.7 416.2)" fill="#959595"/><rect width="10.8" height="3.7" rx="0" ry="0" transform="translate(254.7 421.1)" fill="#959595"/><rect width="10.8" height="3.7" rx="0" ry="0" transform="translate(268.6 406.2)" fill="#959595"/><rect width="10.8" height="3.7" rx="0" ry="0" transform="translate(268.6 411.2)" fill="#959595"/><rect width="10.8" height="3.7" rx="0" ry="0" transform="translate(268.6 416.2)" fill="#959595"/><rect width="10.8" height="3.7" rx="0" ry="0" transform="translate(268.6 421.1)" fill="#959595"/><rect width="10.8" height="3.7" rx="0" ry="0" transform="translate(282.6 406.2)" fill="#959595"/><rect width="10.8" height="3.7" rx="0" ry="0" transform="translate(282.6 411.2)" fill="#959595"/><rect width="10.8" height="3.7" rx="0" ry="0" transform="translate(282.6 416.2)" fill="#959595"/><rect width="10.8" height="3.7" rx="0" ry="0" transform="translate(282.6 421.1)" fill="#959595"/><rect width="13.1" height="3.7" rx="0" ry="0" transform="translate(301.2 406.2)" fill="#959595"/><rect width="13.1" height="3.7" rx="0" ry="0" transform="translate(301.2 411.2)" fill="#959595"/><rect width="13.1" height="3.7" rx="0" ry="0" transform="translate(301.2 416.2)" fill="#959595"/><rect width="13.1" height="3.7" rx="0" ry="0" transform="translate(301.2 421.1)" fill="#959595"/></g><g><path d="M311.7,387.5v.2c0,.6-.6,1.1-1,1.1h-52.2c-.6,0-1-.6-1-1.1v-.2h54.2Z" opacity="0.67" fill="#161b1e" stroke="#000" stroke-width="0.125" stroke-linecap="round" stroke-linejoin="round"/><path d="M311.7,386.2v.2h-54.3v-.2c0-.6.6-1.1,1-1.1h52.2c.5,0,1.1.3,1.1,1.1Z" opacity="0.67" fill="#161b1e" stroke="#000" stroke-width="0.125" stroke-linecap="round" stroke-linejoin="round"/><rect width="54.3" height="1.1" rx="0" ry="0" transform="translate(257.4 386.4)" opacity="0.67" stroke="#000" stroke-width="0.125" stroke-linecap="round" stroke-linejoin="round"/></g></g><rect width="265.8" height="6.5" rx="0" ry="0" transform="translate(187.7 471.3)" opacity="0.21" fill="#555b5f"/><ellipse rx="7" ry="6.5" transform="translate(320.8 449.8)" fill="#959595"/><ellipse rx="5.5" ry="5.2" transform="translate(320.8 449.8)" fill="#808080"/><ellipse rx="2.1" ry="1.9" transform="translate(320.8 449.8)" fill="#2e2e2e"/><circle r="1.8" transform="translate(414.3 387.5)"/><rect width="50.7" height="19.6" rx="0" ry="0" transform="translate(217.9 541.7)"/><rect width="50.7" height="4.4" rx="0" ry="0" transform="translate(217.9 549)" fill="#34393d" stroke="#000" stroke-width="0.090999" stroke-linecap="round" stroke-linejoin="round"/><rect width="66.4" height="7.9" rx="0" ry="0" transform="translate(210.1 512.6)" fill="#858585"/><g><path d="M269.7,506.6c-.1,1.6-1.4,2.9-2.8,2.9h-46.2c-1.5.1-2.8-1.2-2.8-2.9v-3.7c.1-1.6,1.4-2.9,2.8-2.9h46.2c1.5-.1,2.8,1.2,2.8,2.9v3.7v0Z" fill="#808080"/></g><path d="M210.1,497.8v0c0-1.5,1.1-2.7,2.4-2.5h61.6c1.2-.1,2.4,1.2,2.4,2.5v0h-66.4Z" transform="translate(0 0.000001)" fill="#959595"/><g><path d="M335.2,576.1v-75.4h52.7v75.4c0,1.3-1.1,2.4-2.4,2.3h-47.9c-1.2.1-2.2-1-2.4-2.3Z" fill="#aeaeae"/><g><path d="M296.3,500.7v-2.9c0-1.5,1.1-2.7,2.4-2.5h125.8c1.2-.1,2.4,1.2,2.4,2.5v2.9h-130.6Z" fill="#959595"/><rect width="130.5" height="15.9" rx="0" ry="0" transform="translate(296.4 500.7)" fill="#959595"/></g><path d="M296.3,521.3v-.7c0-.4,1.1-.7,2.4-.6h125.8c1.2,0,2.4.3,2.4.6v.7h-130.6Z" fill="#5c5c5c"/><rect width="130.6" height="8.7" rx="0" ry="0" transform="translate(296.3 512.6)" fill="#4a4847"/><rect width="130.6" height="7.9" rx="0" ry="0" transform="translate(296.3 521.3)" fill="#4c4c4c"/><path d="M426.9,521.3h-130.6v17.9c0,1.4,1.1,2.5,2.5,2.5h125.7c1.4,0,2.5-1.1,2.5-2.5v-17.9Z" fill="#353535"/><g><path d="M387.5,506.6c-.1,1.6-1.4,2.9-2.8,2.9h-46.2c-1.5.1-2.8-1.2-2.8-2.9v-3.7c.1-1.6,1.4-2.9,2.8-2.9h46.2c1.5-.1,2.8,1.2,2.8,2.9v3.7v0Z" fill="#808080"/></g><path d="M296.3,497.8v0c0-1.5,1.1-2.7,2.4-2.5h125.8c1.2-.1,2.4,1.2,2.4,2.5v0h-130.6Z" transform="translate(0 0.000001)" fill="#959595"/></g><rect width="52.7" height="9.5" rx="0" ry="0" transform="translate(335.2 541.7)" fill="#4a4847"/><path d="M338.7,541.7c0,0,3.5-12.5,23-12.5c17.6,0,22.2,12.5,22.2,12.5h-45.2Z"/><rect width="22.3" height="15.6" rx="0" ry="0" transform="translate(356.7 417.1)" fill="#808080"/><path d="M356.7,434.1h-8.5c-1.6.1-3-1.3-3-3.1v-16c.1-1.8,1.5-3.2,3-3.1h8.5" fill="#a4a3a3"/><path d="M374.8,434.1h18.1c1.6.1,3-1.3,3-3.1v-16c-.1-1.8-1.5-3.2-3-3.1h-18.1" fill="#a4a3a3"/><line x1="351.6" y1="419.9" x2="356.7" y2="419.9" fill="none" stroke="#2c2c2c" stroke-width="2.3367" stroke-miterlimit="10"/><line x1="374.8" y1="419.9" x2="387.8" y2="419.9" fill="none" stroke="#2c2c2c" stroke-width="2.3367" stroke-miterlimit="10"/><line x1="356.7" y1="422.1" x2="374.8" y2="422.1" fill="none" stroke="#2c2c2c" stroke-width="2.3367" stroke-miterlimit="10"/></g><g><line x1="277.8" y1="118.8" x2="363.7" y2="118.8" fill="none" stroke="#fff" stroke-width="5.4719" stroke-linecap="round" stroke-linejoin="round" stroke-miterlimit="10"/><line x1="277.8" y1="131.6" x2="337.9" y2="131.6" fill="none" stroke="#fff" stroke-width="5.4719" stroke-linecap="round" stroke-linejoin="round" stroke-miterlimit="10"/><line x1="277.8" y1="151.6" x2="337.9" y2="151.6" fill="none" stroke="#004263" stroke-width="2.7359" stroke-linecap="round" stroke-linejoin="round" stroke-miterlimit="10"/><line x1="277.8" y1="161.2" x2="324.3" y2="161.2" fill="none" stroke="#004263" stroke-width="2.7359" stroke-linecap="round" stroke-linejoin="round" stroke-miterlimit="10"/></g></g><g><g><g><g><path d="M330.6,178.9h-51.4c-.8,0-1.4-.6-1.4-1.4s.6-1.4,1.4-1.4h51.4c.8,0,1.4.6,1.4,1.4.1.8-.6,1.4-1.4,1.4Z" fill="#fff"/></g></g></g></g></g><g id="eBXTNFLkhpm141_to" transform="translate(359,812.984895)"><g transform="translate(-413.399994,-483.449997)"><g><g><g clip-path="url(#eBXTNFLkhpm218)"><g><g><g><g><g><g clip-path="url(#eBXTNFLkhpm152)"><rect width="78.1" height="102.8" rx="0" ry="0" transform="translate(342.4 317.5)" fill="#d4d4d4"/><clipPath id="eBXTNFLkhpm152"><use width="4.4" height="4.4" xlink:href="#eBXTNFLkhpm3" transform="translate(381.6 376)"/></clipPath></g></g></g></g></g><g><g><g><g><g clip-path="url(#eBXTNFLkhpm160)"><rect width="6.2" height="6.2" rx="0" ry="0" transform="translate(378.5 372.8)" fill="#241f20"/><clipPath id="eBXTNFLkhpm160"><use width="4.400024" height="4.400024" xlink:href="#eBXTNFLkhpm4"/></clipPath></g></g></g></g></g><g><g><g><g><g clip-path="url(#eBXTNFLkhpm168)"><rect width="6.2" height="6.2" rx="0" ry="0" transform="translate(378.5 372.9)"/><clipPath id="eBXTNFLkhpm168"><use width="4.4" height="4.4" xlink:href="#eBXTNFLkhpm5" transform="translate(381.6 376)"/></clipPath></g></g></g></g></g><g><g><g><g><g clip-path="url(#eBXTNFLkhpm176)"><rect width="46.2" height="18.8" rx="0" ry="0" transform="translate(349.7 401)" fill="#b1b1b1"/><clipPath id="eBXTNFLkhpm176"><use width="44.017914" height="15.851807" xlink:href="#eBXTNFLkhpm6"/></clipPath></g></g></g></g></g><g><g><g><g><g clip-path="url(#eBXTNFLkhpm184)"><rect width="42.4" height="18.1" rx="0" ry="0" transform="translate(354 412.2)" fill="#b1b1b1"/><clipPath id="eBXTNFLkhpm184"><use width="40.15152" height="15.920685" xlink:href="#eBXTNFLkhpm7"/></clipPath></g></g></g></g></g><g><g><g><g><g clip-path="url(#eBXTNFLkhpm192)"><rect width="37.4" height="16.1" rx="0" ry="0" transform="translate(356.6 425.9)" fill="#b1b1b1"/><clipPath id="eBXTNFLkhpm192"><use width="35.600037" height="14.010803" xlink:href="#eBXTNFLkhpm8"/></clipPath></g></g></g></g></g><g><g><g><g><g clip-path="url(#eBXTNFLkhpm200)"><rect width="73.2" height="78.5" rx="0" ry="0" transform="translate(343.6 392)" fill="#b1b1b1"/><clipPath id="eBXTNFLkhpm200"><use width="69.87439" height="76.422943" xlink:href="#eBXTNFLkhpm9"/></clipPath></g></g></g></g></g><g><g><g><g><g clip-path="url(#eBXTNFLkhpm208)"><rect width="71.3" height="117.5" rx="0" ry="0" transform="translate(354.9 302.6)" fill="#fff"/><clipPath id="eBXTNFLkhpm208"><use width="69.299988" height="116.099915" xlink:href="#eBXTNFLkhpm10"/></clipPath></g></g></g></g></g><g><g><g><g><g clip-path="url(#eBXTNFLkhpm216)"><rect width="114.3" height="277.4" rx="0" ry="0" transform="translate(370.1 386.9)" fill="#b1b1b1"/><clipPath id="eBXTNFLkhpm216"><use width="110.449402" height="274.629303" xlink:href="#eBXTNFLkhpm11"/></clipPath></g></g></g></g></g></g><clipPath id="eBXTNFLkhpm218"><use width="641.100037" height="626.600037" xlink:href="#eBXTNFLkhpm2"/></clipPath></g></g></g></g></g><g><g><g><g><g><g clip-path="url(#eBXTNFLkhpm227)"><rect width="54.9" height="102.7" rx="0" ry="0" transform="translate(295 201.6)" fill="#f0f0f0"/><clipPath id="eBXTNFLkhpm227"><use width="52" height="99.799988" xlink:href="#eBXTNFLkhpm12"/></clipPath></g></g></g></g></g><g><g><g><g><g clip-path="url(#eBXTNFLkhpm235)"><rect width="38.8" height="39.3" rx="0" ry="0" transform="translate(303.2 218.7)" fill="#fff"/><clipPath id="eBXTNFLkhpm235"><use width="35.899998" height="36.399998" xlink:href="#eBXTNFLkhpm13" transform="translate(304.5 220.2)"/></clipPath></g></g></g></g></g><g><g><g><g><g clip-path="url(#eBXTNFLkhpm243)"><rect width="14.9" height="15" rx="0" ry="0" transform="translate(303.2 218.7)" fill="#004263"/><clipPath id="eBXTNFLkhpm243"><use width="12" height="12.099999" xlink:href="#eBXTNFLkhpm14" transform="translate(304.5 220.2)"/></clipPath></g></g></g></g></g><g><g><g><g><g clip-path="url(#eBXTNFLkhpm251)"><rect width="8.8" height="9" rx="0" ry="0" transform="translate(315 218.7)" fill="#004263"/><clipPath id="eBXTNFLkhpm251"><use width="6.1" height="6.2" xlink:href="#eBXTNFLkhpm15" transform="translate(316.4 220.2)"/></clipPath></g></g></g></g></g><g><g><g><g><g clip-path="url(#eBXTNFLkhpm259)"><rect width="8.8" height="9" rx="0" ry="0" transform="translate(321 224.8)" fill="#004263"/><clipPath id="eBXTNFLkhpm259"><use width="6.1" height="6.2" xlink:href="#eBXTNFLkhpm16" transform="translate(322.5 226.2)"/></clipPath></g></g></g></g></g><g><g><g><g><g clip-path="url(#eBXTNFLkhpm267)"><rect width="8.8" height="9" rx="0" ry="0" transform="translate(327.1 218.7)" fill="#004263"/><clipPath id="eBXTNFLkhpm267"><use width="6.1" height="6.2" xlink:href="#eBXTNFLkhpm17" transform="translate(328.4 220.2)"/></clipPath></g></g></g></g></g><g><g><g><g><g clip-path="url(#eBXTNFLkhpm275)"><rect width="8.8" height="15" rx="0" ry="0" transform="translate(333.1 224.8)" fill="#004263"/><clipPath id="eBXTNFLkhpm275"><use width="6.1" height="12.099999" xlink:href="#eBXTNFLkhpm18" transform="translate(334.5 226.2)"/></clipPath></g></g></g></g></g><g><g><g><g><g clip-path="url(#eBXTNFLkhpm283)"><rect width="8.8" height="9" rx="0" ry="0" transform="translate(321 237.1)" fill="#004263"/><clipPath id="eBXTNFLkhpm283"><use width="6.1" height="6.2" xlink:href="#eBXTNFLkhpm19" transform="translate(322.5 238.4)"/></clipPath></g></g></g></g></g><g><g><g><g><g clip-path="url(#eBXTNFLkhpm291)"><rect width="14.8" height="15" rx="0" ry="0" transform="translate(327.1 243)" fill="#004263"/><clipPath id="eBXTNFLkhpm291"><use width="11.899994" height="12.100006" xlink:href="#eBXTNFLkhpm20"/></clipPath></g></g></g></g></g><g><g><g><g><g clip-path="url(#eBXTNFLkhpm299)"><rect width="8.8" height="9" rx="0" ry="0" transform="translate(315 243)" fill="#004263"/><clipPath id="eBXTNFLkhpm299"><use width="6.1" height="6.2" xlink:href="#eBXTNFLkhpm21" transform="translate(316.4 244.5)"/></clipPath></g></g></g></g></g><g><g><g><g><g clip-path="url(#eBXTNFLkhpm307)"><rect width="8.8" height="9" rx="0" ry="0" transform="translate(309 230.9)" fill="#004263"/><clipPath id="eBXTNFLkhpm307"><use width="6.1" height="6.2" xlink:href="#eBXTNFLkhpm22" transform="translate(310.5 232.3)"/></clipPath></g></g></g></g></g><g><g><g><g><g clip-path="url(#eBXTNFLkhpm315)"><rect width="8.8" height="9" rx="0" ry="0" transform="translate(303.2 243)" fill="#004263"/><clipPath id="eBXTNFLkhpm315"><use width="6.1" height="6.2" xlink:href="#eBXTNFLkhpm23" transform="translate(304.5 244.5)"/></clipPath></g></g></g></g></g><g><g><g><g><g clip-path="url(#eBXTNFLkhpm323)"><rect width="8.8" height="9" rx="0" ry="0" transform="translate(309 249.2)" fill="#004263"/><clipPath id="eBXTNFLkhpm323"><use width="6.1" height="6.2" xlink:href="#eBXTNFLkhpm24" transform="translate(310.5 250.5)"/></clipPath></g></g></g></g></g><g><g><g><g><g clip-path="url(#eBXTNFLkhpm331)"><rect width="8.8" height="9" rx="0" ry="0" transform="translate(303.2 249.2)" fill="#004263"/><clipPath id="eBXTNFLkhpm331"><use width="6.1" height="6.2" xlink:href="#eBXTNFLkhpm25" transform="translate(304.5 250.5)"/></clipPath></g></g></g></g></g><g><g><g><g><g clip-path="url(#eBXTNFLkhpm339)"><rect width="36.2" height="3.7" rx="0" ry="0" transform="translate(302.8 262)" fill="#004263"/><clipPath id="eBXTNFLkhpm339"><use width="33.325989" height="0.799988" xlink:href="#eBXTNFLkhpm26"/></clipPath></g></g></g></g></g><g><g><g><g><g clip-path="url(#eBXTNFLkhpm347)"><rect width="36.2" height="3.7" rx="0" ry="0" transform="translate(302.8 264.5)" fill="#004263"/><clipPath id="eBXTNFLkhpm347"><use width="33.325989" height="0.799988" xlink:href="#eBXTNFLkhpm27"/></clipPath></g></g></g></g></g><g><g><g><g><g clip-path="url(#eBXTNFLkhpm355)"><rect width="36.2" height="3.7" rx="0" ry="0" transform="translate(302.8 267.3)" fill="#004263"/><clipPath id="eBXTNFLkhpm355"><use width="33.325989" height="0.799988" xlink:href="#eBXTNFLkhpm28"/></clipPath></g></g></g></g></g><g><g><g><g><g clip-path="url(#eBXTNFLkhpm363)"><rect width="18.3" height="3.7" rx="0" ry="0" transform="translate(302.8 273.8)" fill="#004263"/><clipPath id="eBXTNFLkhpm363"><use width="15.5" height="0.799988" xlink:href="#eBXTNFLkhpm29"/></clipPath></g></g></g></g></g><g><g><g><g><g clip-path="url(#eBXTNFLkhpm371)"><rect width="18.3" height="3.7" rx="0" ry="0" transform="translate(321 273.8)" fill="#004263"/><clipPath id="eBXTNFLkhpm371"><use width="15.5" height="0.799988" xlink:href="#eBXTNFLkhpm30"/></clipPath></g></g></g></g></g></g></svg>
