<svg id="ervXnHJ2GkL1" xmlns="http://www.w3.org/2000/svg" xmlns:xlink="http://www.w3.org/1999/xlink" viewBox="140 0 341.1 626.6" shape-rendering="geometricPrecision" text-rendering="geometricPrecision">
<style><![CDATA[
#ervXnHJ2GkL121_to {animation: ervXnHJ2GkL121_to__to 2800ms linear infinite normal forwards}@keyframes ervXnHJ2GkL121_to__to { 0% {transform: translate(849.593276px,309.927423px)} 35.714286% {transform: translate(492.194321px,212.877426px)} 38.571429% {transform: translate(496.194321px,220.877426px)} 60.714286% {transform: translate(496.194321px,220.877426px)} 96.428571% {transform: translate(850.382327px,531.500016px)} 100% {transform: translate(850.382327px,531.500016px)}}
]]></style>
<defs><rect id="ervXnHJ2GkL2" width="641.1" height="626.3" rx="0" ry="0"/></defs><g><g><rect width="216.2" height="434.4" rx="0" ry="0" transform="translate(212.4 28.8)" fill="none" stroke="#dadada" stroke-width="2.3367" stroke-miterlimit="10"/><rect width="215.8" height="32.9" rx="0" ry="0" transform="translate(212.9 28.8)" fill="#959595"/><rect width="161.7" height="18.5" rx="0" ry="0" transform="translate(239.2 36)" fill="#292b2b"/><circle r="7.3" transform="translate(320 45.3)" fill="#444"/><path d="M187.7,1.9v473.9h265.8v-473.9h-265.8Zm241,461.3h-216.3v-434.4h216.2v434.4Z" fill="#e5e5e5"/><rect width="216.2" height="401.5" rx="0" ry="0" transform="translate(212.4 61.7)" fill="#d0d0d1"/><rect width="161.7" height="271.9" rx="0" ry="0" transform="translate(239.2 70.3)" fill="#fe7f78"/><rect width="265.8" height="150.9" rx="0" ry="0" transform="translate(187.7 475.7)" fill="#d2d2d2"/><g><g><path d="M400.9,388.3c-.1,1.9-1.6,3.5-3.3,3.4h-54.4c-1.7.1-3.3-1.4-3.3-3.4v-13c.1-1.9,1.6-3.5,3.3-3.4h54.4c1.7-.1,3.3,1.4,3.3,3.4v13v0Z" fill="#e3e3e3" stroke="#4a4a4a" stroke-width="0.2161" stroke-miterlimit="10"/></g><g><path d="M400.9,434.7c-.1,1.9-1.6,3.5-3.3,3.4h-54.4c-1.7.1-3.3-1.4-3.3-3.4v-23.6c.1-1.9,1.6-3.5,3.3-3.4h54.4c1.7-.1,3.3,1.4,3.3,3.4v23.6v0Z" fill="#959595"/></g><g><path d="M407.7,395.1c-1.5-.1-2.7-1.3-2.6-2.5v-35.8c-.1-1.3,1.1-2.5,2.6-2.5h13.1c1.5.1,2.7,1.3,2.6,2.5v35.8c.1,1.3-1.1,2.5-2.6,2.5h-13.1v0Z" fill="#959595"/></g><g><path d="M400.9,401.6c-.1,1.9-1.6,3.5-3.3,3.4h-54.4c-1.7.1-3.3-1.4-3.3-3.4v-4.4c.1-1.9,1.6-3.5,3.3-3.4h54.4c1.7-.1,3.3,1.4,3.3,3.4v4.4v0Z" fill="#808080"/></g><g><path d="M400.9,362c-.1,1.9-1.6,3.5-3.3,3.4h-54.4c-1.7.1-3.3-1.4-3.3-3.4v-4.4c.1-1.9,1.6-3.5,3.3-3.4h54.4c1.7-.1,3.3,1.4,3.3,3.4v4.4v0Z" fill="#808080"/></g><path d="M397.6,382.5c0,.6-.6,1.1-1,1.1h-52.2c-.6,0-1-.6-1-1.1v-1.5c0-.6.6-1.1,1-1.1h52.2c.6,0,1,.6,1,1.1v1.5v0Z" fill="#2a353f" stroke="#000" stroke-width="0.6248" stroke-linecap="round" stroke-linejoin="round"/><rect width="54.3" height="1.1" rx="0" ry="0" transform="translate(343.3 381.2)" fill="none" stroke="#000" stroke-width="0.125" stroke-linecap="round" stroke-linejoin="round"/><path d="M397.6,382.4v.2c0,.6-.6,1.1-1,1.1h-52.2c-.6,0-1-.6-1-1.1v-.2h54.2Z" fill="#161b1e" stroke="#000" stroke-width="0.125" stroke-linecap="round" stroke-linejoin="round"/><path d="M397.6,381v.2h-54.3v-.2c0-.6.6-1.1,1-1.1h52.2c.6,0,1.1.4,1.1,1.1Z" fill="#161b1e" stroke="#000" stroke-width="0.125" stroke-linecap="round" stroke-linejoin="round"/><rect width="54.3" height="1.1" rx="0" ry="0" transform="translate(343.3 381.2)" fill="none" stroke="#000" stroke-width="0.125" stroke-linecap="round" stroke-linejoin="round"/><rect width="54.3" height="1.1" rx="0" ry="0" transform="translate(343.3 381.2)" stroke="#000" stroke-width="0.125" stroke-linecap="round" stroke-linejoin="round"/><circle r="0.8" transform="translate(226.1 358.2)"/><circle r="0.8" transform="translate(226.1 360.6)"/><circle r="0.8" transform="translate(226.1 363.1)"/><circle r="0.8" transform="translate(228.2 359.2)"/><circle r="0.8" transform="translate(224 362)"/><circle r="0.8" transform="translate(228.3 361.8)"/><circle r="0.8" transform="translate(223.9 359.5)"/><g><g><path d="M237.3,359.8v-2.9c0-1.5,1.1-2.7,2.4-2.5h89.7c1.2-.1,2.4,1.2,2.4,2.5v2.9h-94.5Z" fill="#808080"/><rect width="94.4" height="8" rx="0" ry="0" transform="translate(237.4 359.8)" fill="#959595"/><path d="M237.3,435.5v-67.8h94.4v67.8c0,1.5-1.1,2.7-2.4,2.5h-89.6c-1.2.2-2.3-1-2.4-2.5Z" fill="#959595"/></g><g><path d="M210.1,500.7v-2.9c0-1.5,1.1-2.7,2.4-2.5h61.6c1.2-.1,2.4,1.2,2.4,2.5v2.9h-66.4Z" fill="#959595"/><rect width="66.3" height="8" rx="0" ry="0" transform="translate(210.3 500.7)" fill="#959595"/><path d="M210.1,591.8v-83.1h66.3v83.1c0,1.5-1.1,2.7-2.4,2.5h-61.5c-1.2.1-2.2-1.1-2.4-2.5Z" fill="#959595"/></g><path d="M237.3,435.5v-39.1h94.4v39.1c0,1.5-1.1,2.7-2.4,2.5h-89.6c-1.2.2-2.3-1-2.4-2.5Z" opacity="0.32" fill="#fff"/></g><rect width="23.9" height="8.6" rx="0" ry="0" transform="translate(272.6 369)"/><g><path d="M322.8,424.2c-.1,1.9-1.6,3.5-3.3,3.4h-70.1c-1.7.1-3.3-1.4-3.3-3.4v-17.3c.1-1.9,1.6-3.5,3.3-3.4h70.1c1.7-.1,3.3,1.4,3.3,3.4v17.3v0Z" fill="#808080"/></g><g><rect width="10.8" height="3.7" rx="0" ry="0" transform="translate(254.7 406.2)" fill="#959595"/><rect width="10.8" height="3.7" rx="0" ry="0" transform="translate(254.7 411.2)" fill="#959595"/><rect width="10.8" height="3.7" rx="0" ry="0" transform="translate(254.7 416.2)" fill="#959595"/><rect width="10.8" height="3.7" rx="0" ry="0" transform="translate(254.7 421.1)" fill="#959595"/><rect width="10.8" height="3.7" rx="0" ry="0" transform="translate(268.6 406.2)" fill="#959595"/><rect width="10.8" height="3.7" rx="0" ry="0" transform="translate(268.6 411.2)" fill="#959595"/><rect width="10.8" height="3.7" rx="0" ry="0" transform="translate(268.6 416.2)" fill="#959595"/><rect width="10.8" height="3.7" rx="0" ry="0" transform="translate(268.6 421.1)" fill="#959595"/><rect width="10.8" height="3.7" rx="0" ry="0" transform="translate(282.6 406.2)" fill="#959595"/><rect width="10.8" height="3.7" rx="0" ry="0" transform="translate(282.6 411.2)" fill="#959595"/><rect width="10.8" height="3.7" rx="0" ry="0" transform="translate(282.6 416.2)" fill="#959595"/><rect width="10.8" height="3.7" rx="0" ry="0" transform="translate(282.6 421.1)" fill="#959595"/><rect width="13.1" height="3.7" rx="0" ry="0" transform="translate(301.2 406.2)" fill="#959595"/><rect width="13.1" height="3.7" rx="0" ry="0" transform="translate(301.2 411.2)" fill="#959595"/><rect width="13.1" height="3.7" rx="0" ry="0" transform="translate(301.2 416.2)" fill="#959595"/><rect width="13.1" height="3.7" rx="0" ry="0" transform="translate(301.2 421.1)" fill="#959595"/></g><g><path d="M311.7,387.5v.2c0,.6-.6,1.1-1,1.1h-52.2c-.6,0-1-.6-1-1.1v-.2h54.2Z" opacity="0.67" fill="#161b1e" stroke="#000" stroke-width="0.125" stroke-linecap="round" stroke-linejoin="round"/><path d="M311.7,386.2v.2h-54.3v-.2c0-.6.6-1.1,1-1.1h52.2c.5,0,1.1.3,1.1,1.1Z" opacity="0.67" fill="#161b1e" stroke="#000" stroke-width="0.125" stroke-linecap="round" stroke-linejoin="round"/><rect width="54.3" height="1.1" rx="0" ry="0" transform="translate(257.4 386.4)" opacity="0.67" stroke="#000" stroke-width="0.125" stroke-linecap="round" stroke-linejoin="round"/></g></g><rect width="265.8" height="6.5" rx="0" ry="0" transform="translate(187.7 471.3)" opacity="0.21" fill="#555b5f"/><ellipse rx="7" ry="6.5" transform="translate(320.8 449.8)" fill="#959595"/><ellipse rx="5.5" ry="5.2" transform="translate(320.8 449.8)" fill="#808080"/><ellipse rx="2.1" ry="1.9" transform="translate(320.8 449.8)" fill="#2e2e2e"/><circle r="1.8" transform="translate(414.3 387.5)"/><rect width="50.7" height="19.6" rx="0" ry="0" transform="translate(217.9 541.7)"/><rect width="50.7" height="4.4" rx="0" ry="0" transform="translate(217.9 549)" fill="#34393d" stroke="#000" stroke-width="0.090999" stroke-linecap="round" stroke-linejoin="round"/><rect width="66.4" height="7.9" rx="0" ry="0" transform="translate(210.1 512.6)" fill="#858585"/><g><path d="M269.7,506.6c-.1,1.6-1.4,2.9-2.8,2.9h-46.2c-1.5.1-2.8-1.2-2.8-2.9v-3.7c.1-1.6,1.4-2.9,2.8-2.9h46.2c1.5-.1,2.8,1.2,2.8,2.9v3.7v0Z" fill="#808080"/></g><path d="M210.1,497.8v0c0-1.5,1.1-2.7,2.4-2.5h61.6c1.2-.1,2.4,1.2,2.4,2.5v0h-66.4Z" transform="translate(0 0.000001)" fill="#959595"/><g><path d="M335.2,576.1v-75.4h52.7v75.4c0,1.3-1.1,2.4-2.4,2.3h-47.9c-1.2.1-2.2-1-2.4-2.3Z" fill="#aeaeae"/><g><path d="M296.3,500.7v-2.9c0-1.5,1.1-2.7,2.4-2.5h125.8c1.2-.1,2.4,1.2,2.4,2.5v2.9h-130.6Z" fill="#959595"/><rect width="130.5" height="15.9" rx="0" ry="0" transform="translate(296.4 500.7)" fill="#959595"/></g><path d="M296.3,521.3v-.7c0-.4,1.1-.7,2.4-.6h125.8c1.2,0,2.4.3,2.4.6v.7h-130.6Z" fill="#5c5c5c"/><rect width="130.6" height="8.7" rx="0" ry="0" transform="translate(296.3 512.6)" fill="#4a4847"/><rect width="130.6" height="7.9" rx="0" ry="0" transform="translate(296.3 521.3)" fill="#4c4c4c"/><path d="M426.9,521.3h-130.6v17.9c0,1.4,1.1,2.5,2.5,2.5h125.7c1.4,0,2.5-1.1,2.5-2.5v-17.9Z" fill="#353535"/><g><path d="M387.5,506.6c-.1,1.6-1.4,2.9-2.8,2.9h-46.2c-1.5.1-2.8-1.2-2.8-2.9v-3.7c.1-1.6,1.4-2.9,2.8-2.9h46.2c1.5-.1,2.8,1.2,2.8,2.9v3.7v0Z" fill="#808080"/></g><path d="M296.3,497.8v0c0-1.5,1.1-2.7,2.4-2.5h125.8c1.2-.1,2.4,1.2,2.4,2.5v0h-130.6Z" transform="translate(0 0.000001)" fill="#959595"/></g><rect width="52.7" height="9.5" rx="0" ry="0" transform="translate(335.2 541.7)" fill="#4a4847"/><path d="M338.7,541.7c0,0,3.5-12.5,23-12.5c17.6,0,22.2,12.5,22.2,12.5h-45.2Z"/><rect width="22.3" height="15.6" rx="0" ry="0" transform="translate(356.7 417.1)" fill="#808080"/><path d="M356.7,434.1h-8.5c-1.6.1-3-1.3-3-3.1v-16c.1-1.8,1.5-3.2,3-3.1h8.5" fill="#a4a3a3"/><path d="M374.8,434.1h18.1c1.6.1,3-1.3,3-3.1v-16c-.1-1.8-1.5-3.2-3-3.1h-18.1" fill="#a4a3a3"/><line x1="351.6" y1="419.9" x2="356.7" y2="419.9" fill="none" stroke="#2c2c2c" stroke-width="2.3367" stroke-miterlimit="10"/><line x1="374.8" y1="419.9" x2="387.8" y2="419.9" fill="none" stroke="#2c2c2c" stroke-width="2.3367" stroke-miterlimit="10"/><line x1="356.7" y1="422.1" x2="374.8" y2="422.1" fill="none" stroke="#2c2c2c" stroke-width="2.3367" stroke-miterlimit="10"/></g><g><line x1="277.8" y1="118.8" x2="363.7" y2="118.8" fill="none" stroke="#fff" stroke-width="5.4719" stroke-linecap="round" stroke-linejoin="round" stroke-miterlimit="10"/><line x1="277.8" y1="131.6" x2="337.9" y2="131.6" fill="none" stroke="#fff" stroke-width="5.4719" stroke-linecap="round" stroke-linejoin="round" stroke-miterlimit="10"/><line x1="277.8" y1="151.6" x2="337.9" y2="151.6" fill="none" stroke="#004263" stroke-width="2.7359" stroke-linecap="round" stroke-linejoin="round" stroke-miterlimit="10"/><line x1="277.8" y1="161.2" x2="324.3" y2="161.2" fill="none" stroke="#004263" stroke-width="2.7359" stroke-linecap="round" stroke-linejoin="round" stroke-miterlimit="10"/></g></g><g><g><g><g><path d="M330.6,178.9h-51.4c-.8,0-1.4-.6-1.4-1.4s.6-1.4,1.4-1.4h51.4c.8,0,1.4.6,1.4,1.4.1.8-.6,1.4-1.4,1.4Z" fill="#fff"/></g></g></g></g><g><path d="M288.7,227.8h65.5c4.2,0,7.8,3.4,7.8,7.8v36.9c0,4.2-3.4,7.8-7.8,7.8h-65.5c-4.2,0-7.8-3.4-7.8-7.8v-37c.2-4.4,3.5-7.7,7.8-7.7Z" fill="#fff"/><rect width="24" height="37.4" rx="0" ry="0" transform="translate(288.4 233.9)" fill="#f0f0f0"/><rect width="20.6" height="2.9" rx="0" ry="0" transform="translate(321.6 234.8)" fill="#414042"/><rect width="23.4" height="2.9" rx="0" ry="0" transform="translate(321.6 240.6)" fill="#414042"/><rect width="23.4" height="1.2" rx="0" ry="0" transform="translate(321.6 251.6)" fill="#414042"/><rect width="23.4" height="1.2" rx="0" ry="0" transform="translate(321.6 254.4)" fill="#414042"/><rect width="23.4" height="1.2" rx="0" ry="0" transform="translate(321.6 257.9)" fill="#414042"/><rect width="23.4" height="1.2" rx="0" ry="0" transform="translate(321.6 260.9)" fill="#414042"/></g><g id="ervXnHJ2GkL121_to" transform="translate(849.593276,309.927423)"><g transform="translate(-490.105698,-206.727415)"><g><g clip-path="url(#ervXnHJ2GkL215)"><g><path d="M330,94.9c.1-.1.1-.1,0,0v0l36.5-11l1,8.9-30.4,16.8v0c0,0,0,0-.1,0-4.3,2.4-9.3,1-11.3-3.2s-1.2-10.1,4.3-11.5Z" fill="#b1b1b1"/><path d="M338.5,104.3v0v0l27.8-17.8l9.2,12.1-27.8,17.7v0c0,0,0,0-.1,0-3.9,2.5-9.2,1.8-11.6-1.6s-1.4-8,2.5-10.4Z" fill="#b1b1b1"/><path d="M346.9,114.2v0v0l26.7-13.5l6.6,11.9L353.6,126v0c0,0,0,0-.1,0-3.7,1.9-8.3.8-10.1-2.5-1.9-3.3-.3-7.4,3.5-9.3Z" fill="#b1b1b1"/><path d="M356,67.7c1.5-1,3.4-1.3,5.1-.9l18.8,3.6c2.8.6,5.1,2.3,6.4,4.7l27,47c1.6,2.8.2,6.3-3,7.9l-11.6,5.8c-3.2,1.6-7.1.7-8.6-2L370.3,93l-14.6-2.8L334.2,102c-9,5.3-16.5,4.1-18-2-.9-3.6-.3-6.9,6.7-10.7L356,67.7Z" fill="#b1b1b1"/><path d="M318.8,5l65.7,42.9c2,1.3,2.6,3.9,1.3,5.9L359.5,94c-1.3,2-3.9,2.6-5.9,1.3L287.9,52.4c-2-1.3-2.6-3.9-1.3-5.9L312.9,6.3c1.3-2,3.9-2.6,5.9-1.3Z" fill="#c96561"/><path d="M318.8,5l65.7,42.9c2,1.3,2.6,3.9,1.3,5.9L359.5,94c-1.3,2-3.9,2.6-5.9,1.3L287.9,52.4c-2-1.3-2.6-3.9-1.3-5.9L312.9,6.3c1.3-2,3.9-2.6,5.9-1.3Z" fill="#2eb7aa"/><g><path d="M318,4.6l66.4,43.3c1.6,1,2,3.1,1,4.7L358.6,93.5c-1,1.6-3.1,2-4.7,1L287.5,51.2c-1.6-1-2-3.1-1-4.7L313.3,5.6c1-1.6,3.2-2,4.7-1Z" fill="#fc7e79"/><path d="M318,4.6l66.4,43.3c1.6,1,2,3.1,1,4.7L358.6,93.5c-1,1.6-3.1,2-4.7,1L287.5,51.2c-1.6-1-2-3.1-1-4.7L313.3,5.6c1-1.6,3.2-2,4.7-1Z" fill="#fe7f78"/><rect width="12.7" height="86" rx="0" ry="0" transform="matrix(.5469-.8372 0.8372 0.5469 303.466068 20.717111)" fill="#4a4a4a"/><line x1="307.7" y1="28.1" x2="367.6" y2="67.3" fill="none" stroke="#4a4a4a" stroke-width="0.877" stroke-miterlimit="10"/><line x1="306" y1="30.7" x2="353.1" y2="61.4" fill="none" stroke="#4a4a4a" stroke-width="0.877" stroke-miterlimit="10"/><line x1="302.5" y1="35.9" x2="320.3" y2="47.5" fill="none" stroke="#4a4a4a" stroke-width="0.877" stroke-miterlimit="10"/><line x1="300.9" y1="38.5" x2="332.6" y2="59.3" fill="none" stroke="#4a4a4a" stroke-width="0.877" stroke-miterlimit="10"/><g><polygon points="299.2,41.5 294.6,48.6 299.2,41.5 298.8,41.3 294,48.6 294.4,48.9 294.4,48.9 294.7,49.1 299.5,41.7" fill="#4a4a4a"/><rect width="8.8" height="0.4" rx="0" ry="0" transform="matrix(.5469-.8372 0.8372 0.5469 295.116123 49.228128)" fill="#4a4a4a"/><rect width="8.8" height="0.4" rx="0" ry="0" transform="matrix(.5469-.8372 0.8372 0.5469 295.796054 49.756538)" fill="#4a4a4a"/><rect width="8.8" height="0.4" rx="0" ry="0" transform="matrix(.5469-.8372 0.8372 0.5469 296.571184 50.291948)" fill="#4a4a4a"/><rect width="8.8" height="0.4" rx="0" ry="0" transform="matrix(.5469-.8372 0.8372 0.5469 297.305804 50.736638)" fill="#4a4a4a"/><rect width="8.8" height="0.4" rx="0" ry="0" transform="matrix(.546-.8378 0.8378 0.546 297.998116 51.246734)" fill="#4a4a4a"/><rect width="8.8" height="0.4" rx="0" ry="0" transform="matrix(.5469-.8372 0.8372 0.5469 298.438555 51.565238)" fill="#4a4a4a"/><rect width="8.8" height="0.4" rx="0" ry="0" transform="matrix(.5469-.8372 0.8372 0.5469 299.138965 51.956958)" fill="#4a4a4a"/><rect width="8.8" height="0.4" rx="0" ry="0" transform="matrix(.5469-.8372 0.8372 0.5469 299.815195 52.484368)" fill="#4a4a4a"/><rect width="8.8" height="0.4" rx="0" ry="0" transform="matrix(.5469-.8372 0.8372 0.5469 300.648515 52.937058)" fill="#4a4a4a"/><polygon points="306.1,46.1 301.3,53.4 301.7,53.7 301.7,53.7 302,53.9 306.8,46.6" fill="#4a4a4a"/><rect width="8.8" height="0.4" rx="0" ry="0" transform="matrix(.546-.8378 0.8378 0.546 302.410754 54.085215)" fill="#4a4a4a"/><rect width="8.8" height="0.4" rx="0" ry="0" transform="matrix(.5468-.8373 0.8373 0.5468 302.730448 54.373456)" fill="#4a4a4a"/><polygon points="308.8,47.8 308.8,47.8 308.4,47.5 303.5,54.9 303.9,55.2 306.3,51.5 303.9,55.2 304.3,55.4 309.1,48" fill="#4a4a4a"/><rect width="8.8" height="0.4" rx="0" ry="0" transform="matrix(.5469-.8372 0.8372 0.5469 304.667556 55.664887)" fill="#4a4a4a"/><rect width="8.8" height="0.4" rx="0" ry="0" transform="matrix(.5468-.8373 0.8373 0.5468 305.373268 56.181716)" fill="#4a4a4a"/><rect width="8.8" height="0.4" rx="0" ry="0" transform="matrix(.5469-.8372 0.8372 0.5469 306.107967 56.455607)" fill="#4a4a4a"/><rect width="8.8" height="0.4" rx="0" ry="0" transform="matrix(.5469-.8372 0.8372 0.5469 306.787897 56.984017)" fill="#4a4a4a"/><polygon points="312.8,50.4 310.4,54 312.8,50.4 312.4,50.2 307.6,57.6 308,57.8 308,57.8 308.3,58 313.1,50.7" fill="#4a4a4a"/><rect width="8.8" height="0.4" rx="0" ry="0" transform="matrix(.5468-.8373 0.8373 0.5468 308.776319 58.252176)" fill="#4a4a4a"/><rect width="8.8" height="0.4" rx="0" ry="0" transform="matrix(.546-.8378 0.8378 0.546 309.303151 58.572396)" fill="#4a4a4a"/><rect width="8.8" height="0.4" rx="0" ry="0" transform="matrix(.5469-.8372 0.8372 0.5469 309.773088 58.889246)" fill="#4a4a4a"/><rect width="8.8" height="0.4" rx="0" ry="0" transform="matrix(.5469-.8372 0.8372 0.5469 310.503808 59.333936)" fill="#4a4a4a"/><rect width="8.8" height="0.4" rx="0" ry="0" transform="matrix(.5469-.8372 0.8372 0.5469 311.187738 59.861346)" fill="#4a4a4a"/><rect width="8.8" height="0.4" rx="0" ry="0" transform="matrix(.5469-.8372 0.8372 0.5469 311.888249 60.253066)" fill="#4a4a4a"/><rect width="8.8" height="0.4" rx="0" ry="0" transform="matrix(.5469-.8372 0.8372 0.5469 312.705869 60.800756)" fill="#4a4a4a"/><polygon points="318.6,54.2 316.3,57.8 318.6,54.2 318.2,54 313.4,61.4 313.8,61.6 313.8,61.6 314.1,61.8 319,54.5" fill="#4a4a4a"/><polygon points="345,71.4 345,71.4 344.6,71.2 344.6,71.2 344.4,71.1 339.5,78.4 339.9,78.7 339.9,78.7 340.1,78.8 340.1,78.8 340.4,79 345.3,71.7" fill="#4a4a4a"/><rect width="8.8" height="0.4" rx="0" ry="0" transform="matrix(.5469-.8372 0.8372 0.5469 340.932757 79.255362)" fill="#4a4a4a"/><rect width="8.8" height="0.4" rx="0" ry="0" transform="matrix(.5468-.8373 0.8373 0.5468 341.657868 79.635522)" fill="#4a4a4a"/><rect width="8.8" height="0.4" rx="0" ry="0" transform="matrix(.5469-.8372 0.8372 0.5469 342.304598 80.175492)" fill="#4a4a4a"/><rect width="8.8" height="0.4" rx="0" ry="0" transform="matrix(.5469-.8372 0.8372 0.5469 343.142618 80.627182)" fill="#4a4a4a"/><polygon points="349,74.1 349,74.1 348.6,73.9 343.8,81.2 344.2,81.4 344.2,81.4 344.5,81.7 349.3,74.3" fill="#4a4a4a"/><rect width="8.8" height="0.4" rx="0" ry="0" transform="matrix(.5469-.8372 0.8372 0.5469 344.892158 81.793811)" fill="#4a4a4a"/><rect width="8.8" height="0.4" rx="0" ry="0" transform="matrix(.5469-.8372 0.8372 0.5469 345.647209 82.375911)" fill="#4a4a4a"/><rect width="8.8" height="0.4" rx="0" ry="0" transform="matrix(.5468-.8373 0.8373 0.5468 346.361189 82.891971)" fill="#4a4a4a"/><polygon points="352.3,76.3 352.3,76.3 351.9,76 347.1,83.3 347.4,83.6 347.4,83.6 347.8,83.8 352.6,76.5" fill="#4a4a4a"/><polygon points="353,76.7 348.2,84.1 348.5,84.3 348.5,84.3 348.9,84.6 353.7,77.2" fill="#4a4a4a"/><polygon points="354.1,77.4 349.3,84.8 349.7,85.1 349.7,85.1 350,85.3 354.9,77.9" fill="#4a4a4a"/><rect width="8.8" height="0.4" rx="0" ry="0" transform="matrix(.5468-.8373 0.8373 0.5468 350.30857 85.470451)" fill="#4a4a4a"/><rect width="8.8" height="0.4" rx="0" ry="0" transform="matrix(.5469-.8372 0.8372 0.5469 351.11258 85.935151)" fill="#4a4a4a"/><rect width="8.8" height="0.4" rx="0" ry="0" transform="matrix(.5469-.8372 0.8372 0.5469 351.78381 86.462561)" fill="#4a4a4a"/><rect width="8.8" height="0.4" rx="0" ry="0" transform="matrix(.5468-.8373 0.8373 0.5468 352.518751 86.84191)" fill="#4a4a4a"/><rect width="8.8" height="0.4" rx="0" ry="0" transform="matrix(.5469-.8372 0.8372 0.5469 353.267751 87.39069)" fill="#4a4a4a"/><rect width="8.8" height="0.4" rx="0" ry="0" transform="matrix(.5469-.8372 0.8372 0.5469 314.522849 62.061766)" fill="#4a4a4a"/><rect width="8.8" height="0.4" rx="0" ry="0" transform="matrix(.5469-.8372 0.8372 0.5469 315.20278 62.590176)" fill="#4a4a4a"/><rect width="8.8" height="0.4" rx="0" ry="0" transform="matrix(.5469-.8372 0.8372 0.5469 315.91109 62.981895)" fill="#4a4a4a"/><polygon points="321.9,56.4 321.9,56.4 321.5,56.2 316.7,63.5 317.1,63.8 317.1,63.8 317.5,64 322.2,56.7" fill="#4a4a4a"/><polygon points="323.1,57.1 323.1,57.1 322.7,56.9 317.8,64.2 318.1,64.5 318.1,64.5 318.5,64.7 323.4,57.3" fill="#4a4a4a"/><polygon points="324.1,57.8 324.1,57.8 323.7,57.5 318.9,65 319.3,65.2 319.3,65.2 319.6,65.5 324.5,58" fill="#4a4a4a"/><rect width="8.8" height="0.4" rx="0" ry="0" transform="matrix(.5469-.8372 0.8372 0.5469 319.933731 65.710725)" fill="#4a4a4a"/><rect width="8.8" height="0.4" rx="0" ry="0" transform="matrix(.5469-.8372 0.8372 0.5469 320.759551 66.162415)" fill="#4a4a4a"/><rect width="8.8" height="0.4" rx="0" ry="0" transform="matrix(.5469-.8372 0.8372 0.5469 321.443481 66.689825)" fill="#4a4a4a"/><rect width="8.8" height="0.4" rx="0" ry="0" transform="matrix(.5468-.8373 0.8373 0.5468 322.129783 67.067194)" fill="#4a4a4a"/><polygon points="328.1,60.4 328.1,60.4 327.8,60.2 323,67.6 323.7,68.1 328.5,60.7" fill="#4a4a4a"/><rect width="8.8" height="0.4" rx="0" ry="0" transform="matrix(.5469-.8372 0.8372 0.5469 324.158032 68.233424)" fill="#4a4a4a"/><polygon points="330.1,61.7 330.1,61.7 329.7,61.5 324.8,68.8 325.2,69.1 325.2,69.1 325.6,69.3 330.5,62" fill="#4a4a4a"/><rect width="8.8" height="0.4" rx="0" ry="0" transform="matrix(.5469-.8372 0.8372 0.5469 325.892613 69.580434)" fill="#4a4a4a"/><rect width="8.8" height="0.4" rx="0" ry="0" transform="matrix(.5468-.8373 0.8373 0.5468 326.616554 69.961064)" fill="#4a4a4a"/><rect width="8.8" height="0.4" rx="0" ry="0" transform="matrix(.5469-.8372 0.8372 0.5469 327.422543 70.424844)" fill="#4a4a4a"/><rect width="8.8" height="0.4" rx="0" ry="0" transform="matrix(.5469-.8372 0.8372 0.5469 328.230263 70.972534)" fill="#4a4a4a"/><polygon points="333.8,64.1 328.9,71.4 329.3,71.7 329.3,71.7 329.7,71.9 334.4,64.5" fill="#4a4a4a"/><rect width="8.8" height="0.4" rx="0" ry="0" transform="matrix(.5469-.8372 0.8372 0.5469 329.995804 72.044164)" fill="#4a4a4a"/><rect width="8.8" height="0.4" rx="0" ry="0" transform="matrix(.5469-.8372 0.8372 0.5469 330.675734 72.571573)" fill="#4a4a4a"/><rect width="8.8" height="0.4" rx="0" ry="0" transform="matrix(.5469-.8372 0.8372 0.5469 331.577274 73.172953)" fill="#4a4a4a"/><polygon points="337,66.3 332.2,73.6 332.6,73.8 332.6,73.8 333,74.1 337.8,66.8" fill="#4a4a4a"/><polygon points="338.1,67 333.3,74.3 333.7,74.6 333.7,74.6 334.1,74.8 338.8,67.5" fill="#4a4a4a"/><polygon points="339.2,67.7 334.4,75.1 334.8,75.3 334.8,75.3 335.2,75.6 339.9,68.2" fill="#4a4a4a"/><rect width="8.8" height="0.4" rx="0" ry="0" transform="matrix(.5468-.8373 0.8373 0.5468 335.552616 75.740532)" fill="#4a4a4a"/><rect width="8.8" height="0.4" rx="0" ry="0" transform="matrix(.5469-.8372 0.8372 0.5469 336.208226 76.280503)" fill="#4a4a4a"/><rect width="8.8" height="0.4" rx="0" ry="0" transform="matrix(.5469-.8372 0.8372 0.5469 337.029446 76.732193)" fill="#4a4a4a"/><rect width="8.8" height="0.4" rx="0" ry="0" transform="matrix(.5468-.8373 0.8373 0.5468 337.679067 77.057312)" fill="#4a4a4a"/><polygon points="343.7,70.6 343.7,70.6 343.3,70.3 338.4,77.7 338.8,78 338.8,78 339.2,78.2 344,70.8" fill="#4a4a4a"/></g></g><path d="M390.4,117.1L356.6,70.2c-3.3-3.5-9.5-3.7-13.7-.3-4.2,3.3-5.1,6.1-1.5,12.3l7.5,13.2l5.4,8c1.6,3.2,3.7,6.2,6.5,8.7c4.4,4-1.9-3.5-.9,2.3l.4,1.9c3.4,14.1,13.7,25.9,20.5,29.5c3.4,1.8,5.6,3.7,9.6,3.9c6.1.3,16.2,12.9,23.7,20.1C424.6,180,645.7,409.4,645.7,409.4L694.3,382L406.4,110" fill="#b1b1b1"/></g><clipPath id="ervXnHJ2GkL215"><use width="641.100037" height="626.299988" xlink:href="#ervXnHJ2GkL2"/></clipPath></g></g></g></g></svg>
