<svg xmlns="http://www.w3.org/2000/svg" width="1280" height="800" viewBox="0 0 1280 800">
  <g fill="none" fill-rule="evenodd">
    <rect width="1280" height="800" fill="#37E8D7"/>
    <g transform="matrix(-1 0 0 1 1280 0)">
      <g transform="translate(615.48)">
        <path stroke="#FFF" stroke-width="8" d="M156.897612,-10.4510271 L156.904673,809.458881 L149.92678,801.678631 C51.4120296,691.836093 -4,549.964891 -4,399.500124 C-4,249.08006 51.3661143,107.219127 149.919853,-2.67065868 L156.897612,-10.4510271 Z"/>
        <path fill="#FE7F78" d="M664.513606,799.001248 L664.513606,0 L152.896425,0 C57.6768419,106.353131 0,246.20305 0,399.496788 C0,552.978006 57.8180073,692.982501 152.903306,799.001248 L664.513606,799.001248 Z"/>
      </g>
      <path fill="#37E8D7" fill-rule="nonzero" d="M757.591869,0 C661.92781,109.971294 608.475371,250.765104 608.475371,399.500124 C608.475371,548.424224 661.788073,689.026817 757.591869,799.001248 L5.68434189e-14,799.001248 L5.68434189e-14,0 L757.591869,0 Z"/>
    </g>
  </g>
</svg>
