<svg xmlns="http://www.w3.org/2000/svg" width="1920" height="1080" viewBox="0 0 1920 1080">
  <g fill="none" fill-rule="evenodd">
    <rect width="1920" height="1080" fill="#37E8D7"/>
    <g transform="matrix(-1 0 0 1 1020 0)">
      <path stroke="#FFF" stroke-width="15" d="M188.557461,1084.85027 C62.7328261,936.448793 -7.5,748.63227 -7.5,550 C-7.5,342.036083 69.5217448,146.056149 206.236092,-5.03216161 L219.619877,-19.8230998 L201.4536,1100.06038 L188.557461,1084.85027 Z"/>
      <path fill="#FE7F78" d="M0,550 C0,338.370636 80.1703513,145.466061 211.797328,0 L1020,0 L1020,1080 L194.278024,1080 C73.0912777,937.068589 0,752.069986 0,550 Z"/>
    </g>
    <path fill="#37E8D7" fill-rule="nonzero" stroke="#FFF" stroke-width="15" d="M1925.56124,5.03216161 C1791.31884,153.388625 1715.70267,345.7921 1715.70267,550 C1715.70267,745.045714 1784.65333,929.43346 1908.20126,1075.14973 L1918.67264,1087.5 L820.5,1087.5 L820.5,-7.5 L1936.90114,-7.5 L1925.56124,5.03216161 Z" transform="matrix(-1 0 0 1 2748 0)"/>
  </g>
</svg>
