<svg xmlns="http://www.w3.org/2000/svg" width="1280" height="800" viewBox="0 0 1280 800">
  <g fill="none" fill-rule="evenodd">
    <rect width="1280" height="800" fill="#37E8D7"/>
    <g transform="translate(615)">
      <path stroke="#FFF" stroke-width="10" d="M157.778138,-13.083558 L157.785239,813.090155 L149.059505,803.341309 C50.4601219,693.180924 -5,550.897939 -5,399.999499 C-5,249.145914 50.4141817,106.87319 149.052572,-3.33456478 L157.778138,-13.083558 Z"/>
      <path fill="#FE7F78" d="M665,800.006681 L665,0 L152.77825,0 C57.6322632,106.486962 0,246.512862 0,399.999499 C0,553.673852 57.7733195,693.854523 152.785127,800.006681 L665,800.006681 Z"/>
    </g>
    <path fill="#37E8D7" fill-rule="nonzero" stroke="#FFF" stroke-width="10" d="M758.22049,3.27781859 C662.644319,113.371429 610,253.454676 610,399.999499 C610,546.799354 662.549377,686.676805 758.218167,796.719507 L765.417052,805 L-5,805 L-5,-5 L765.406759,-5 L758.22049,3.27781859 Z"/>
  </g>
</svg>
