<svg xmlns="http://www.w3.org/2000/svg" width="480" height="221" viewBox="0 0 480 221">
  <defs>
    <filter id="all-set-a" width="101.7%" height="103.4%" x="-.7%" y="-.7%" filterUnits="objectBoundingBox">
      <feOffset dy="1" in="SourceAlpha" result="shadowOffsetOuter1"/>
      <feGaussianBlur in="shadowOffsetOuter1" result="shadowBlurOuter1" stdDeviation=".5"/>
      <feColorMatrix in="shadowBlurOuter1" result="shadowMatrixOuter1" values="0 0 0 0 0   0 0 0 0 0   0 0 0 0 0  0 0 0 0.141276042 0"/>
      <feMerge>
        <feMergeNode in="shadowMatrixOuter1"/>
        <feMergeNode in="SourceGraphic"/>
      </feMerge>
    </filter>
    <filter id="all-set-b" width="101.7%" height="103.4%" x="-.7%" y="-.7%" filterUnits="objectBoundingBox">
      <feOffset dy="1" in="SourceAlpha" result="shadowOffsetOuter1"/>
      <feGaussianBlur in="shadowOffsetOuter1" result="shadowBlurOuter1" stdDeviation=".5"/>
      <feColorMatrix in="shadowBlurOuter1" result="shadowMatrixOuter1" values="0 0 0 0 0   0 0 0 0 0   0 0 0 0 0  0 0 0 0.141276042 0"/>
      <feMerge>
        <feMergeNode in="shadowMatrixOuter1"/>
        <feMergeNode in="SourceGraphic"/>
      </feMerge>
    </filter>
    <filter id="all-set-c" width="101.7%" height="103.4%" x="-.7%" y="-.7%" filterUnits="objectBoundingBox">
      <feOffset dy="1" in="SourceAlpha" result="shadowOffsetOuter1"/>
      <feGaussianBlur in="shadowOffsetOuter1" result="shadowBlurOuter1" stdDeviation=".5"/>
      <feColorMatrix in="shadowBlurOuter1" result="shadowMatrixOuter1" values="0 0 0 0 0   0 0 0 0 0   0 0 0 0 0  0 0 0 0.141276042 0"/>
      <feMerge>
        <feMergeNode in="shadowMatrixOuter1"/>
        <feMergeNode in="SourceGraphic"/>
      </feMerge>
    </filter>
    <filter id="all-set-d" width="101.7%" height="103.4%" x="-.7%" y="-.7%" filterUnits="objectBoundingBox">
      <feOffset dy="1" in="SourceAlpha" result="shadowOffsetOuter1"/>
      <feGaussianBlur in="shadowOffsetOuter1" result="shadowBlurOuter1" stdDeviation=".5"/>
      <feColorMatrix in="shadowBlurOuter1" result="shadowMatrixOuter1" values="0 0 0 0 0   0 0 0 0 0   0 0 0 0 0  0 0 0 0.141276042 0"/>
      <feMerge>
        <feMergeNode in="shadowMatrixOuter1"/>
        <feMergeNode in="SourceGraphic"/>
      </feMerge>
    </filter>
    <filter id="all-set-e" width="101.7%" height="103.4%" x="-.7%" y="-.7%" filterUnits="objectBoundingBox">
      <feOffset dy="1" in="SourceAlpha" result="shadowOffsetOuter1"/>
      <feGaussianBlur in="shadowOffsetOuter1" result="shadowBlurOuter1" stdDeviation=".5"/>
      <feColorMatrix in="shadowBlurOuter1" result="shadowMatrixOuter1" values="0 0 0 0 0   0 0 0 0 0   0 0 0 0 0  0 0 0 0.141276042 0"/>
      <feMerge>
        <feMergeNode in="shadowMatrixOuter1"/>
        <feMergeNode in="SourceGraphic"/>
      </feMerge>
    </filter>
  </defs>
  <g fill="none" fill-rule="evenodd">
    <rect width="480" height="130.8" fill="#55506C" opacity=".8" rx="10"/>
    <rect width="414" height="80.4" x="33.6" y="27.6" fill="#403C51" rx="10"/>
    <rect width="361.2" height="30" x="61.2" y="48" fill="#4A4A4A"/>
    <rect width="361.2" height="30" x="61.2" y="48" fill="#4A4A4A" opacity=".2"/>
    <path fill="#55506C" d="M61.2,69.6 L61.2,192.3408 C61.2,208.0488 76.4306,220.8 95.1929333,220.8 L140.523533,220.8 C153.406333,220.8 165.185467,214.7184 170.924533,205.0584 L192.275467,169.3416 C198.014533,159.6816 209.793667,153.6 222.676467,153.6 L260.923533,153.6 C273.806333,153.6 285.585467,159.6816 291.324533,169.3416 L312.675467,205.0584 C318.414533,214.7184 330.193667,220.8 343.076467,220.8 L388.407067,220.8 C407.1694,220.8 422.4,208.0488 422.4,192.3408 L422.4,69.6 L61.2,69.6 Z"/>
    <g filter="url(#all-set-a)" transform="translate(97.2 70.8)">
      <path fill="#F2F2F2" d="M0,0 L289.2,0 L289.2,124.4 C289.2,129.922847 284.722847,134.4 279.2,134.4 L10,134.4 C4.4771525,134.4 6.76353751e-16,129.922847 0,124.4 L0,0 Z"/>
      <path fill="#D8D8D8" d="M145.914545,48.3368421 C175.680685,48.3368421 199.810909,26.6957007 199.810909,0 L92.0181818,0 C92.0181818,26.6957007 116.148406,48.3368421 145.914545,48.3368421 Z"/>
      <path fill="#D8D8D8" d="M254.449416,0 L254.449416,52.7964351 C224.126754,52.7964351 199.53924,74.8459672 199.53924,102.038653 L89.6801357,102.038653 C89.6801357,74.8459672 65.0926219,52.7964351 34.7699592,52.7964351 L34.7699592,0 L21.0327273,0 L21.0327273,104.357895 C21.0327273,109.880742 25.5098798,114.357895 31.0327273,114.357895 L258.167273,114.357895 C263.69012,114.357895 268.167273,109.880742 268.167273,104.357895 L268.167273,0 L254.449416,0 Z"/>
      <polygon fill="#D8D8D8" points="127.511 59.913 137.548 59.913 137.548 81.347 150.932 81.347 150.932 59.913 160.976 59.913 144.247 34.189" transform="matrix(1 0 0 -1 0 115.537)"/>
    </g>
    <g filter="url(#all-set-b)" transform="translate(97.2 64.8)">
      <path fill="#FFF" d="M0,0 L289.2,0 L289.2,124.4 C289.2,129.922847 284.722847,134.4 279.2,134.4 L10,134.4 C4.4771525,134.4 6.76353751e-16,129.922847 0,124.4 L0,0 Z"/>
      <path fill="#D8D8D8" d="M145.914545,48.3368421 C175.680685,48.3368421 199.810909,26.6957007 199.810909,0 L92.0181818,0 C92.0181818,26.6957007 116.148406,48.3368421 145.914545,48.3368421 Z"/>
      <path fill="#D8D8D8" d="M254.449416,0 L254.449416,52.7964351 C224.126754,52.7964351 199.53924,74.8459672 199.53924,102.038653 L89.6801357,102.038653 C89.6801357,74.8459672 65.0926219,52.7964351 34.7699592,52.7964351 L34.7699592,0 L21.0327273,0 L21.0327273,104.357895 C21.0327273,109.880742 25.5098798,114.357895 31.0327273,114.357895 L258.167273,114.357895 C263.69012,114.357895 268.167273,109.880742 268.167273,104.357895 L268.167273,0 L254.449416,0 Z"/>
      <polygon fill="#D8D8D8" points="127.511 59.913 137.548 59.913 137.548 81.347 150.932 81.347 150.932 59.913 160.976 59.913 144.247 34.189" transform="matrix(1 0 0 -1 0 115.537)"/>
    </g>
    <g filter="url(#all-set-c)" transform="translate(97.2 58.8)">
      <path fill="#FFF" d="M0,0 L289.2,0 L289.2,124.4 C289.2,129.922847 284.722847,134.4 279.2,134.4 L10,134.4 C4.4771525,134.4 6.76353751e-16,129.922847 0,124.4 L0,0 Z"/>
      <path fill="#D8D8D8" d="M145.914545,48.3368421 C175.680685,48.3368421 199.810909,26.6957007 199.810909,0 L92.0181818,0 C92.0181818,26.6957007 116.148406,48.3368421 145.914545,48.3368421 Z"/>
      <path fill="#D8D8D8" d="M254.449416,0 L254.449416,52.7964351 C224.126754,52.7964351 199.53924,74.8459672 199.53924,102.038653 L89.6801357,102.038653 C89.6801357,74.8459672 65.0926219,52.7964351 34.7699592,52.7964351 L34.7699592,0 L21.0327273,0 L21.0327273,104.357895 C21.0327273,109.880742 25.5098798,114.357895 31.0327273,114.357895 L258.167273,114.357895 C263.69012,114.357895 268.167273,109.880742 268.167273,104.357895 L268.167273,0 L254.449416,0 Z"/>
      <polygon fill="#D8D8D8" points="127.511 59.913 137.548 59.913 137.548 81.347 150.932 81.347 150.932 59.913 160.976 59.913 144.247 34.189" transform="matrix(1 0 0 -1 0 115.537)"/>
    </g>
    <g filter="url(#all-set-d)" transform="translate(97.2 54)">
      <path fill="#FFF" d="M0,0 L289.2,0 L289.2,124.4 C289.2,129.922847 284.722847,134.4 279.2,134.4 L10,134.4 C4.4771525,134.4 6.76353751e-16,129.922847 0,124.4 L0,0 Z"/>
      <path fill="#D8D8D8" d="M145.914545,48.3368421 C175.680685,48.3368421 199.810909,26.6957007 199.810909,0 L92.0181818,0 C92.0181818,26.6957007 116.148406,48.3368421 145.914545,48.3368421 Z"/>
      <path fill="#D8D8D8" d="M254.449416,0 L254.449416,52.7964351 C224.126754,52.7964351 199.53924,74.8459672 199.53924,102.038653 L89.6801357,102.038653 C89.6801357,74.8459672 65.0926219,52.7964351 34.7699592,52.7964351 L34.7699592,0 L21.0327273,0 L21.0327273,104.357895 C21.0327273,109.880742 25.5098798,114.357895 31.0327273,114.357895 L258.167273,114.357895 C263.69012,114.357895 268.167273,109.880742 268.167273,104.357895 L268.167273,0 L254.449416,0 Z"/>
      <polygon fill="#D8D8D8" points="127.511 59.913 137.548 59.913 137.548 81.347 150.932 81.347 150.932 59.913 160.976 59.913 144.247 34.189" transform="matrix(1 0 0 -1 0 115.537)"/>
    </g>
    <g filter="url(#all-set-e)" transform="translate(97.2 48)">
      <path fill="#FFF" d="M0,0 L289.2,0 L289.2,124.4 C289.2,129.922847 284.722847,134.4 279.2,134.4 L10,134.4 C4.4771525,134.4 6.76353751e-16,129.922847 0,124.4 L0,0 Z"/>
      <path fill="#D8D8D8" d="M145.914545,48.3368421 C175.680685,48.3368421 199.810909,26.6957007 199.810909,0 L92.0181818,0 C92.0181818,26.6957007 116.148406,48.3368421 145.914545,48.3368421 Z"/>
      <path fill="#D8D8D8" d="M254.449416,0 L254.449416,52.7964351 C224.126754,52.7964351 199.53924,74.8459672 199.53924,102.038653 L89.6801357,102.038653 C89.6801357,74.8459672 65.0926219,52.7964351 34.7699592,52.7964351 L34.7699592,0 L21.0327273,0 L21.0327273,104.357895 C21.0327273,109.880742 25.5098798,114.357895 31.0327273,114.357895 L258.167273,114.357895 C263.69012,114.357895 268.167273,109.880742 268.167273,104.357895 L268.167273,0 L254.449416,0 Z"/>
    </g>
    <rect width="361.2" height="20.4" x="61.2" y="48" fill="#000" opacity=".2"/>
  </g>
</svg>
