<svg xmlns="http://www.w3.org/2000/svg" xmlns:xlink="http://www.w3.org/1999/xlink" width="28" height="28" viewBox="0 0 28 28">
  <defs>
    <path id="close-icon-a" d="M17.2754867,13.9991741 L27.3181775,24.0427074 C28.2261769,24.9463744 28.2267226,26.4146148 27.320649,27.3207639 C26.884181,27.7572682 26.2956604,27.9990742 25.6811458,27.9990742 C25.0678458,27.9990742 24.4794292,27.7569116 24.043241,27.320687 L13.9999223,17.2750097 L3.95994393,27.3158023 C3.52455792,27.7554934 2.93401103,27.9990742 2.31717896,27.9990742 C1.70292628,27.9990742 1.11592559,27.7573748 0.679350985,27.3207639 C-0.226450328,26.4148871 -0.226450328,24.9466451 0.679350985,24.0451731 L10.7245133,13.9991737 L0.681822522,3.95564035 C-0.226176944,3.05197334 -0.226722556,1.58373293 0.679350985,0.677583885 C1.58272029,-0.225860702 3.04723834,-0.225860702 3.95500694,0.677583885 L13.9999234,10.7233374 L24.0457894,0.675118149 C24.9509476,-0.22572113 26.4135661,-0.225178294 27.320649,0.677583885 C28.2264503,1.58346068 28.2264503,3.05170263 27.320649,3.95317461 L17.2754867,13.9991741 Z"/>
  </defs>
  <g fill="none" fill-rule="evenodd">
    <use fill="#FFF" xlink:href="#close-icon-a"/>
  </g>
</svg>
