<svg id="ab57b7e0-d36c-4670-83bc-1b22a5683bed" data-name="Layer 1" xmlns="http://www.w3.org/2000/svg" xmlns:xlink="http://www.w3.org/1999/xlink" viewBox="0 0 223.99998 176.02441">
  <defs>
    <clipPath id="efb4285f-7ebf-4575-bed3-bc3846cfa180">
      <path d="M214.36012-34.3114c5.17129,8.457-2.51531,18.3236-14.27752,18.3236H15.91916c-11.76228,0-19.45316-9.86655-14.27759-18.3236l19.4997-31.85469,72.58627-118.577c2.74377-4.48311,7.95907-6.85091,13.31357-7.10341a77.79466,77.79466,0,0,1,9.4581,0Z" fill="none" clip-rule="evenodd"/>
    </clipPath>
    <clipPath id="bb2e4f9a-8757-474f-8f1f-3da404f96445">
      <path d="M222.36012-34.32377c5.17129,8.46276-2.51531,18.336-14.27752,18.336H23.91916c-11.76227,0-19.45316-9.87321-14.27759-18.336Q22.64138-55.57457,29.14127-66.2q24.19542-39.55235,72.58624-118.657c5.8151-9.5077,22.7316-9.5077,28.5467,0Z" fill="none" clip-rule="evenodd"/>
    </clipPath>
    <clipPath id="bbabd430-d873-407c-abf7-574b3f9f390e">
      <path d="M115.86281-69.9878A11.159,11.159,0,0,1,127-58.92222a11.0479,11.0479,0,0,1-11.1372,10.93442A10.987,10.987,0,0,1,105-58.92222a11.10173,11.10173,0,0,1,10.8628-11.06558M111.744-83.76273,107-119.1285v-14.45079a2.44622,2.44622,0,0,1,2.3137-2.40851h13.3757A2.44579,2.44579,0,0,1,125-133.57929v14.19809l-4.744,35.61847a2.50011,2.50011,0,0,1-2.30739,2.02784h-3.894a2.50648,2.50648,0,0,1-2.3106-2.02784" fill="none" clip-rule="evenodd"/>
    </clipPath>
  </defs>
  <title>error-signal</title>
  <g>
    <path d="M214.36011,157.68844c5.17129,8.46276-2.51531,18.336-14.27751,18.336H15.91915c-11.76227,0-19.45316-9.87321-14.27759-18.336q12.99981-21.2508,19.4997-31.8762Q45.33668,86.25991,93.7275,7.15521C96.351,2.86574,101.23416.51149,106.338.09247c1.89162-.1553,9.66284-.068,9.66284-.068a36.826,36.826,0,0,1,6.27333,7.13078Z" fill="#403c51" fill-rule="evenodd"/>
    <path d="M222.36012,157.68844c5.1713,8.46276-2.5153,18.336-14.27751,18.336H23.91917c-11.76227,0-19.45316-9.87321-14.27759-18.336q12.99981-21.2508,19.4997-31.8762Q53.3367,86.25991,101.72752,7.15521c5.8151-9.50771,22.73159-9.50771,28.5467,0Z" fill="#cb6560" fill-rule="evenodd"/>
    <path d="M115.8628,122.449A11.159,11.159,0,0,1,127,133.51455,11.0002,11.0002,0,1,1,115.8628,122.449M111.744,108.674,107,73.30827V58.85747a2.44622,2.44622,0,0,1,2.3137-2.4085h13.3757A2.44579,2.44579,0,0,1,125,58.85747v14.1981L120.256,108.674a2.50014,2.50014,0,0,1-2.3074,2.02784h-3.894a2.5065,2.5065,0,0,1-2.3106-2.02784" fill="#fbcb40" fill-rule="evenodd"/>
  </g>
</svg>
