<svg id="ab568f5c-99e4-4b4a-a0d3-782616a9580e" data-name="Layer 1" xmlns="http://www.w3.org/2000/svg" xmlns:xlink="http://www.w3.org/1999/xlink" viewBox="0 0 192 176">
  <defs>
    <clipPath id="b0020c7a-a872-4567-8150-c208018fa6b7">
      <path d="M87.44651,176C39.15114,176,0,136.60106,0,88S39.15114,0,87.44651,0H104V176Z" fill="#ce9912"/>
    </clipPath>
  </defs>
  <title>funds-received</title>
  <g>
    <g>
      <path d="M87.44651,176C39.15114,176,0,136.60106,0,88S39.15114,0,87.44651,0H104V176Z" fill="#ce9912"/>
      <g clip-path="url(#b0020c7a-a872-4567-8150-c208018fa6b7)">
        <path d="M171.49258,170.122H-4.83847v-3H171.49258Zm0-20.15527H-4.83847v-3H171.49258Zm0-20.15625H-4.83847v-3H171.49258Zm0-20.15528H-4.83847v-3H171.49258Zm0-20.15527H-4.83847v-3H171.49258Zm0-20.15528H-4.83847v-3H171.49258Zm0-20.15527H-4.83847v-3H171.49258Zm0-20.15625H-4.83847v-3H171.49258Zm0-20.15527H-4.83847v-3H171.49258Z" fill="#ffe47d"/>
      </g>
    </g>
    <circle cx="104" cy="88" r="88" fill="#fbcb40"/>
    <path d="M111.91739,162.94134l-.39453-3.98046a74.64255,74.64255,0,0,0,11.17382-1.97657l.9961,3.875A78.80543,78.80543,0,0,1,111.91739,162.94134Zm-19.87988-.50585a78.53518,78.53518,0,0,1-11.65137-2.69141l1.19531-3.81641a74.53965,74.53965,0,0,0,11.05566,2.55274Zm50.14648-8.94434-1.94336-3.49609a73.79746,73.79746,0,0,0,9.46289-6.26465l2.459,3.15429A77.65873,77.65873,0,0,1,142.184,153.49115ZM62.31,151.41888a77.52645,77.52645,0,0,1-9.61133-7.11523l2.623-3.02149a73.4622,73.4622,0,0,0,9.11329,6.74805Zm103.83691-18.7041-3.18945-2.41406a71.24609,71.24609,0,0,0,6.09961-9.54883l3.5332,1.87695A75.45063,75.45063,0,0,1,166.14688,132.71478Zm-126.6582-3.30566A74.81535,74.81535,0,0,1,33.6,118.98334l3.6289-1.68164a70.96391,70.96391,0,0,0,5.57422,9.86914Zm139.99316-25.47071-3.90625-.86328a69.8312,69.8312,0,0,0,1.5332-11.21972l3.99414.21875A73.82623,73.82623,0,0,1,179.48184,103.93841ZM27.7504,99.93451a74.30462,74.30462,0,0,1-.96387-11.93457l.001-.15137h4l-.001.19043a70.22773,70.22773,0,0,0,.91113,11.251ZM175.60782,73.07123a69.54487,69.54487,0,0,0-3.31543-10.835l3.71679-1.47852a73.59906,73.59906,0,0,1,3.50684,11.46Zm-142.25-3.88184-3.85156-1.08008a73.98925,73.98925,0,0,1,4.15625-11.23047l3.627,1.6875A70.01265,70.01265,0,0,0,33.35782,69.18939Zm129.68457-23.3789a72.46581,72.46581,0,0,0-7.51758-8.48731l2.77734-2.87891a76.51784,76.51784,0,0,1,7.9336,8.958Zm-115.59082-3.123-3.05469-2.582a76.82032,76.82032,0,0,1,8.416-8.50684L55.42813,34.624A72.98324,72.98324,0,0,0,47.45157,42.68744Zm92.9209-16.61035a73.90288,73.90288,0,0,0-10.30079-4.75586l1.39258-3.75a78.08651,78.08651,0,0,1,10.85938,5.01367ZM71.17911,24.21771,69.42129,20.624a78.29206,78.29206,0,0,1,11.12305-4.418l1.1875,3.82032A74.0297,74.0297,0,0,0,71.17911,24.21771Zm40.5-7.16308a75.8842,75.8842,0,0,0-11.35157-.29981l-.1914-3.99609a81.10378,81.10378,0,0,1,11.94726.31543Z" fill="#ffe47d"/>
    <g>
      <rect x="93.36699" y="57.28382" width="21.26602" height="61.43236" transform="translate(92.68629 -47.7645) rotate(45)" fill="#ce9912"/>
      <rect x="72.65458" y="78.88612" width="58.3941" height="18.22776" transform="translate(-32.39375 97.79458) rotate(-45)" fill="#ffe47d"/>
    </g>
  </g>
</svg>
