<svg xmlns="http://www.w3.org/2000/svg" width="10" height="20" viewBox="0 0 10 20">
  <path fill="#403C51" fill-rule="evenodd" d="M3.09434596,0 L6.85756222,0 C7.19558165,0 7.44059573,0.354736944 7.34759038,0.710526519 L5.79150096,6.65789664 C5.69849561,7.01368622 5.94350969,7.36842316 6.28252918,7.36842316 L9.48971349,7.36842316 C9.89273665,7.36842316 10.1367507,7.85579172 9.91773809,8.22631814 L3.14234872,19.7421109 C2.84033136,20.2547426 2.11228952,19.9410583 2.21129521,19.3421108 L3.56937326,11.1831611 C3.62637653,10.8410557 3.38536268,10.5263188 3.06834446,10.5263188 L0.510197451,10.5263188 C0.168177795,10.5263188 -0.0768362853,10.1663187 0.0221694044,9.80947649 L2.60631791,0.396842219 C2.67032159,0.161052678 2.86933303,0 3.09434596,0"/>
</svg>