<svg xmlns="http://www.w3.org/2000/svg" width="152" height="152" viewBox="0 0 152 152">
  <path fill="#0E4160" d="M707.791648,173.476415 C709.961663,171.307319 713.665125,172.288233 714.476926,175.247105 C718.509283,189.944341 714.462245,205.809848 703.467947,216.800135 C690.365888,229.896639 670.553057,232.934403 654.382289,224.963671 L587.316148,292.00138 C581.982393,297.332873 573.334773,297.332873 568.001019,292.00138 C562.666327,286.66895 562.666327,278.022073 568.001006,272.689655 L635.044824,205.673675 C627.022175,189.497684 630.047563,169.646199 643.173187,156.526139 C654.036966,145.667615 669.666909,141.582898 684.239968,145.388542 C687.230576,146.169517 688.243178,149.902648 686.057119,152.08778 L664.429632,173.706098 L664.399985,195.291013 L685.997449,195.261374 L707.791648,173.476415 Z M707.949793,184.629647 L690.483907,202.088129 C689.735155,202.836563 688.720238,203.257645 687.661569,203.259098 L660.399969,203.29651 C658.186542,203.299548 656.391444,201.504447 656.394484,199.29102 L656.431912,172.040978 C656.433367,170.981723 656.854915,169.966294 657.604081,169.217445 L674.80485,152.023968 C665.282356,151.640672 655.838634,155.177791 648.828758,162.184277 C637.544064,173.464187 635.443383,190.861436 643.426189,204.356241 C644.356116,205.928268 644.10307,207.93055 642.811285,209.221799 L573.656673,278.347696 C571.447776,280.555658 571.447776,284.135365 573.656673,286.343327 C575.866508,288.552224 579.450658,288.552224 581.660493,286.343327 L650.830788,217.202356 C652.11924,215.914451 654.115174,215.659843 655.685682,216.58305 C669.182085,224.516773 686.547282,222.402278 697.812167,211.142207 C704.959093,203.997865 708.49408,194.326988 707.949793,184.629647 Z" transform="translate(-564 -144)"/>
</svg>