<svg xmlns="http://www.w3.org/2000/svg" xmlns:xlink="http://www.w3.org/1999/xlink" width="269" height="176" viewBox="0 0 269 176">
  <defs>
    <polygon id="asset-more-please-a" points=".353 0 255.973 0 255.973 173.6 .353 173.6"/>
  </defs>
  <g fill="none" fill-rule="evenodd">
    <path fill="#0E4160" d="M0.0002,77.5065 C10.0432,110.9365 20.1482,143.4745 30.2992,175.3755 C105.6872,154.0575 182.6602,110.0645 257.4102,97.8705 C247.3642,64.4415 237.2582,31.9025 227.1062,0.0015 C151.7202,21.3225 74.7482,65.3145 0.0002,77.5065"/>
    <path fill="#2CB9AC" d="M123.9777,71.4098 C114.8857,75.0808 109.8377,84.8998 112.7057,93.3888 C115.5707,101.8788 125.2687,105.7698 134.3597,102.0908 C143.4527,98.4158 148.4937,88.6018 145.6307,80.1128 C142.7667,71.6228 133.0727,67.7268 123.9777,71.4098"/>
    <g transform="translate(1)">
      <mask id="asset-more-please-b" fill="#fff">
        <use xlink:href="#asset-more-please-a"/>
      </mask>
      <path fill="#2CB9AC" d="M221.631,88.6686 C166.709,103.9466 110.931,131.4896 55.77,150.2176 C51.429,142.5966 42.442,138.5276 33.427,139.7866 C29.695,128.0836 25.969,116.2946 22.25,104.4096 C30.06,101.1996 34.772,93.3846 34.357,85.0306 C89.51,69.6186 145.526,41.8996 200.908,23.2206 C205.464,30.1216 213.95,33.7696 222.509,32.5816 C226.239,44.2896 229.965,56.0826 233.685,67.9726 C225.465,71.3496 220.609,79.8276 221.631,88.6686 M226.11,-0.0004 C151.178,21.1916 74.678,64.7826 0.353,77.2816 C10.255,110.1636 20.216,142.1886 30.222,173.5996 C105.166,152.2456 181.663,108.6876 255.973,96.4146 C246.073,63.4936 236.114,31.4396 226.11,-0.0004" mask="url(#asset-more-please-b)"/>
    </g>
    <path fill="#0E4160" d="M220.5968,24.987 C215.6818,25.174 211.0148,22.888 208.4328,18.926 C207.5298,17.542 206.6258,16.16 205.7228,14.782 C211.1968,12.97 216.6638,11.254 222.1218,9.648 C223.6708,14.485 225.2168,19.336 226.7628,24.202 C225.2218,24.406 223.6798,24.621 222.1368,24.845 C221.6248,24.918 221.1128,24.966 220.5968,24.987 M11.0628,83.738 C16.4868,82.628 21.9198,81.366 27.3628,79.973 C27.4458,81.638 27.5288,83.303 27.6108,84.967 C27.8708,90.285 24.8368,95.095 19.8848,97.067 C18.4798,97.625 17.0758,98.175 15.6718,98.714 C14.1338,93.741 12.5978,88.749 11.0628,83.738 M230.3318,88.225 C229.6938,82.663 232.8038,77.409 238.0518,75.318 C239.4578,74.761 240.8638,74.213 242.2668,73.675 C243.9348,79.069 245.5998,84.487 247.2648,89.927 C241.8378,91.024 236.3988,92.273 230.9518,93.654 C230.7458,91.844 230.5388,90.035 230.3318,88.225 M31.1788,148.17 C32.7188,147.963 34.2588,147.747 35.7988,147.522 C36.3168,147.448 36.8388,147.394 37.3588,147.378 C42.5848,147.175 47.5438,149.762 49.9778,154.089 C50.8598,155.654 51.7398,157.215 52.6208,158.774 C47.1438,160.594 41.6728,162.325 36.2098,163.942 C34.5328,158.701 32.8548,153.444 31.1788,148.17"/>
    <path fill="#0E4160" d="M13.3009,75.4284 C18.9459,109.0464 24.6129,142.3424 30.2989,175.3754 C108.2159,167.0224 187.8509,134.1114 265.3709,131.4184 C259.7259,97.7994 254.0559,64.5044 248.3689,31.4714 C170.4529,39.8264 90.8199,72.7374 13.3009,75.4284"/>
    <path fill="#2CB9AC" d="M137.0041,86.4176 C127.5971,88.7356 121.2741,97.8066 122.8871,106.7276 C124.4971,115.6476 133.4301,121.0106 142.8381,118.6886 C152.2461,116.3716 158.5651,107.3086 156.9551,98.3836 C155.3461,89.4566 146.4151,84.0976 137.0041,86.4176"/>
    <path fill="#2CB9AC" d="M231.6554,117.9723 C174.7634,125.6223 117.0534,144.9773 60.0094,154.8333 C56.7904,146.5873 48.4704,141.1923 39.3244,141.0493 C37.2314,128.9603 35.1394,116.8383 33.0514,104.6813 C41.3144,102.6283 47.0854,95.5793 47.8234,87.3013 C104.9584,79.5233 162.9124,60.0313 220.1844,50.2923 C223.7184,57.8543 231.6034,62.7683 240.2864,62.9183 C242.3784,75.0143 244.4694,87.1413 246.5574,99.3053 C237.8584,101.4523 231.8644,109.1293 231.6554,117.9723 M248.3744,31.4703 C170.9264,39.7743 91.7814,72.3403 14.7034,75.3753 C20.2684,108.4693 25.8554,141.2523 31.4604,173.7843 C108.9234,165.2593 188.0654,132.7183 265.1264,129.9533 C259.5624,96.8313 253.9774,64.0243 248.3744,31.4703"/>
    <path fill="#0E4160" d="M238.4425,54.9889 C233.5375,54.4049 229.2335,51.4099 227.2285,47.0789 C226.5275,45.5639 225.8265,44.0539 225.1265,42.5449 C230.7865,41.6339 236.4385,40.8239 242.0825,40.1339 C242.9505,45.1469 243.8165,50.1659 244.6825,55.1889 C243.1205,55.1459 241.5565,55.1149 239.9935,55.0929 C239.4755,55.0849 238.9535,55.0489 238.4425,54.9889 M23.6425,82.8639 C29.2635,82.4729 34.8955,81.9369 40.5365,81.2769 C40.3885,82.9219 40.2415,84.5649 40.0935,86.2109 C39.6265,91.4629 35.9255,95.7749 30.6875,97.0329 C29.2025,97.3889 27.7155,97.7359 26.2315,98.0729 C25.3685,93.0099 24.5055,87.9389 23.6425,82.8639 M239.4115,118.5649 C239.5405,113.0179 243.3665,108.2809 248.9225,106.9599 C250.4105,106.6049 251.8965,106.2609 253.3825,105.9269 C254.3195,111.4219 255.2545,116.9239 256.1895,122.4339 C250.5635,122.8059 244.9285,123.3269 239.2835,123.9709 C239.3255,122.1689 239.3685,120.3669 239.4115,118.5649 M34.9335,148.7879 C36.4945,148.8259 38.0555,148.8549 39.6195,148.8749 C40.1455,148.8829 40.6715,148.9169 41.1875,148.9759 C46.4105,149.5919 50.9555,152.9239 52.7605,157.5919 C53.4145,159.2789 54.0665,160.9649 54.7205,162.6499 C49.0575,163.5749 43.4015,164.3999 37.7545,165.1039 C36.8135,159.6719 35.8725,154.2339 34.9335,148.7879"/>
    <path fill="#0E4160" d="M26.922,75.4411 C28.043,108.8021 29.17,142.1131 30.299,175.3761 C109.256,179.7661 189.949,159.3151 268.747,165.9691 C267.624,132.6081 266.498,99.2971 265.368,66.0351 C186.412,61.6461 105.719,82.0951 26.922,75.4411"/>
    <path fill="#2CB9AC" d="M147.9406,103.3581 C138.4056,104.2561 130.9286,112.3761 131.2576,121.5281 C131.5846,130.6831 139.5766,137.3921 149.1206,136.4901 C158.6586,135.5901 166.1276,127.4751 165.8026,118.3251 C165.4786,109.1681 157.4816,102.4581 147.9406,103.3581"/>
    <path fill="#2CB9AC" d="M236.7521,148.5348 C178.9931,148.4658 120.4971,158.9378 62.6711,159.8468 C60.6341,151.1918 53.1391,144.6118 44.0371,143.1098 C43.6201,130.9218 43.2021,118.7268 42.7861,106.5268 C51.3391,105.6418 58.0531,99.4978 59.9401,91.4338 C117.9461,91.3918 176.6891,80.8288 234.7451,80.0988 C237.1901,88.1238 244.3341,94.1648 252.9661,95.6148 C253.3821,107.8068 253.8001,120.0048 254.2161,132.2078 C245.2111,133.1178 238.1831,139.8448 236.7521,148.5348 M265.3731,66.0348 C186.8921,61.6698 106.6931,81.8488 28.3491,75.5588 C29.4541,108.4218 30.5651,141.2338 31.6771,174.0038 C110.1771,178.1008 190.3731,157.9338 268.6991,164.5148 C267.5941,131.6388 266.4851,98.8138 265.3731,66.0348"/>
    <path fill="#0E4160" d="M252.2228,87.5446 C247.4148,86.2196 243.5618,82.6136 242.1718,78.0236 C241.6868,76.4216 241.2018,74.8206 240.7158,73.2216 C246.4528,73.2126 252.1818,73.3066 257.9028,73.5226 C258.0758,78.5786 258.2458,83.6366 258.4188,88.6956 C256.8648,88.4156 255.3098,88.1466 253.7528,87.8846 C253.2388,87.7986 252.7288,87.6866 252.2228,87.5446 M36.3398,83.9536 C42.0518,84.2766 47.7728,84.4696 53.4998,84.5496 C53.1268,86.1466 52.7528,87.7426 52.3788,89.3396 C51.1828,94.4426 46.8938,98.1836 41.4708,98.7176 C39.9318,98.8696 38.3928,99.0126 36.8558,99.1476 C36.6848,94.0836 36.5118,89.0186 36.3398,83.9536 M244.4108,150.1466 C245.3058,144.7136 249.7848,140.5756 255.5338,140.0236 C257.0738,139.8756 258.6128,139.7366 260.1508,139.6066 C260.3368,145.1006 260.5238,150.5946 260.7088,156.0906 C254.9938,155.7476 249.2708,155.5376 243.5378,155.4396 C243.8288,153.6746 244.1198,151.9096 244.4108,150.1466 M38.5898,150.0446 C40.1428,150.3176 41.6968,150.5846 43.2508,150.8416 C43.7718,150.9256 44.2918,151.0426 44.7998,151.1796 C49.9198,152.5756 53.9638,156.5626 55.1078,161.4456 C55.5208,163.2126 55.9348,164.9786 56.3478,166.7426 C50.6088,166.7676 44.8758,166.6906 39.1508,166.4916 C38.9638,161.0106 38.7768,155.5276 38.5898,150.0446"/>
  </g>
</svg>
