<svg xmlns="http://www.w3.org/2000/svg" width="264" height="175" viewBox="0 0 264 175">
  <g fill="none" fill-rule="evenodd">
    <path fill="#0E4160" fill-rule="nonzero" d="M197.004396,167 L263.296703,167 L263.296703,174.910112 L0,174.910112 L0,167 L73,167 L73,59.3682853 C73,26.6659328 99.4796516,0.130288848 132.179907,0.130288848 C133.042319,0.130288848 133.841731,0.137870023 134.581421,0.153887103 C135.979981,0.0518844175 137.392316,0 138.8167,0 C170.979315,0 197.004396,26.4614174 197.004396,59.0389439 L197.004396,167 Z"/>
    <path fill="#F2F2F2" d="M85,60.9400749 L85,167 L130.5,167 L189,167 L189,60.9400749 C189,31.6516266 165.7144,7.91011236 137,7.91011236 C108.2804,7.91011236 85,31.6516266 85,60.9400749 Z"/>
    <g fill="#0E4160" transform="translate(110.714 69.833)">
      <path d="M53.5397838,15.0415999 C53.0351013,15.0415999 52.5143971,14.8469767 52.1218663,14.449621 C49.9108763,12.2114543 47.4034854,10.2976596 44.6958238,8.74878343 C34.3698596,2.84521337 20.9757463,2.93441566 10.7138688,8.94340662 C8.19045626,10.4274084 5.82726042,12.2520008 3.70438959,14.3766373 C2.91932793,15.1551301 1.64560543,15.1713487 0.876565425,14.3604187 C0.0995145921,13.5657074 0.0995145921,12.2763287 0.892587092,11.497836 C3.25578292,9.12992051 5.89134709,7.08637703 8.71116042,5.43207992 C20.1506304,-1.2905294 35.1148671,-1.3797317 46.6664888,5.21312883 C49.6945838,6.94040963 52.4823538,9.08937401 54.9577013,11.578929 C55.7347521,12.365531 55.7347521,13.6549097 54.9577013,14.449621 C54.5651704,14.8469767 54.0524771,15.0415999 53.5397838,15.0415999"/>
      <path d="M48.6343904,21.5806955 C48.1219237,21.5806955 47.5931882,21.3720358 47.194603,20.9460223 C45.5677245,19.2158856 43.7537551,17.7291853 41.8015009,16.5206979 C33.8541997,11.6171949 23.5479248,11.6171949 15.608758,16.5206979 C13.6565039,17.7204911 11.8588032,19.1898032 10.2644623,20.8851632 C9.4672919,21.7371903 8.17392354,21.7371903 7.39302188,20.8851632 C6.59585145,20.024442 6.59585145,18.6507656 7.39302188,17.8074327 C9.23952892,15.8425538 11.3219333,14.1384996 13.57516,12.747435 C22.74262,7.10492895 34.6513702,7.07015233 43.835099,12.747435 C46.09646,14.1558879 48.1869988,15.8686363 50.0741778,17.8682917 C50.8632139,18.7116247 50.8632139,20.085301 50.0741778,20.9460223 C49.6755926,21.3720358 49.1549915,21.5806955 48.6343904,21.5806955"/>
      <path d="M40.5308593 28.1197912C40.015561 28.1197912 39.5002626 27.9137002 39.1057373 27.4929311 38.1476045 26.4710632 37.0364924 25.560828 35.8368134 24.805161 31.0380975 21.8597771 24.7740019 21.85119 19.959183 24.8137481 18.7675555 25.5522408 17.6805981 26.4453018 16.7305167 27.4585826 15.9414661 28.3001208 14.6693233 28.3001208 13.8802727 27.4585826 13.0992737 26.6170443 13.0992737 25.2602786 13.8802727 24.4187404 15.0799517 23.1478459 16.4487129 22.0315196 17.9382472 21.1041101 23.9930029 17.3772979 31.8190966 17.385885 37.8577491 21.095523 39.371438 22.0401067 40.7482508 23.1736072 41.9559813 24.4530889 42.7369804 25.2946271 42.7369804 26.6513928 41.9559813 27.4929311 41.561456 27.9137002 41.0461577 28.1197912 40.5308593 28.1197912M29.5429719 33.932901C28.2547317 33.932901 27.1992059 34.9941983 27.1992059 36.2894825 27.1992059 37.5931233 28.2547317 38.6544206 29.5429719 38.6544206 30.831212 38.6544206 31.8867378 37.5931233 31.8867378 36.2894825 31.8867378 34.9941983 30.831212 33.932901 29.5429719 33.932901M29.5429719 42.8327565C25.9525219 42.8327565 23.0435925 39.8995647 23.0435925 36.2894825 23.0435925 32.6877569 25.9525219 29.7545651 29.5429719 29.7545651 33.1334219 29.7545651 36.0423512 32.6877569 36.0423512 36.2894825 36.0423512 39.8995647 33.1334219 42.8327565 29.5429719 42.8327565"/>
      <path d="M59.1376003,29.0039754 C59.1376003,35.5166479 53.8799596,40.796937 47.4162652,40.796937 C40.9337261,40.796937 35.69493,35.5166479 35.69493,29.0039754 C35.69493,22.4913028 40.9337261,17.2110137 47.4162652,17.2110137 C53.8799596,17.2110137 59.1376003,22.4913028 59.1376003,29.0039754 Z M46.1171478,28.8463716 L42.6897352,32.2947284 C42.3742505,32.6121409 42.3742505,33.1267682 42.6897352,33.4441807 C43.0052198,33.7615932 43.5167214,33.7615932 43.832206,33.4441807 L47.2596187,29.9958239 L50.6870313,33.4441807 C51.0025159,33.7615932 51.5140175,33.7615932 51.8295022,33.4441807 C52.1449868,33.1267682 52.1449868,32.6121409 51.8295022,32.2947284 L48.4020895,28.8463716 L51.8295022,25.3980148 C52.1449868,25.0806024 52.1449868,24.565975 51.8295022,24.2485626 C51.5140175,23.9311501 51.0025159,23.9311501 50.6870313,24.2485626 L47.2596187,27.6969194 L43.832206,24.2485626 C43.5167214,23.9311501 43.0052198,23.9311501 42.6897352,24.2485626 C42.3742505,24.565975 42.3742505,25.0806024 42.6897352,25.3980148 L46.1171478,28.8463716 Z"/>
    </g>
  </g>
</svg>
