<svg xmlns="http://www.w3.org/2000/svg" xmlns:xlink="http://www.w3.org/1999/xlink" width="164" height="225" viewBox="0 0 164 225">
  <defs>
    <polygon id="assets-nothing-yet_v1-a" points="0 .991 26.708 .991 26.708 27.035 0 27.035"/>
    <polygon id="assets-nothing-yet_v1-c" points=".238 .28 26.943 .28 26.943 26.327 .238 26.327"/>
  </defs>
  <g fill="none" fill-rule="evenodd">
    <g fill="#403C51" transform="translate(19 192.861)">
      <polygon points=".423 .282 3.983 10.516 7.472 2.432 11.683 8.209 11.683 .282"/>
      <polygon points="90.447 .282 94.008 10.516 97.496 2.432 101.707 8.209 101.707 .282"/>
      <polygon points="112.901 .282 116.462 10.516 119.953 2.432 124.165 8.209 124.165 .282"/>
      <polygon points="22.945 .282 19.384 10.516 15.896 2.432 11.682 8.209 11.682 .282"/>
      <polygon points="45.435 .282 41.874 10.516 38.386 2.432 34.172 8.209 34.172 .282"/>
    </g>
    <g fill="#403C51" transform="translate(8 9.04)">
      <polygon points=".162 184.102 146.428 184.102 146.428 .859 .162 .859"/>
      <polygon points=".162 213.97 11.425 213.97 11.425 184.102 .162 184.102"/>
      <polygon points="33.943 213.97 45.206 213.97 45.206 184.102 33.943 184.102"/>
      <polygon points="56.403 213.97 67.663 213.97 67.663 184.102 56.403 184.102"/>
      <polygon points="67.663 213.97 78.926 213.97 78.926 184.102 67.663 184.102"/>
      <polygon points="78.923 213.97 90.184 213.97 90.184 184.102 78.923 184.102"/>
      <polygon points="90.184 213.97 101.447 213.97 101.447 184.102 90.184 184.102"/>
      <polygon points="112.644 213.97 123.904 213.97 123.904 184.102 112.644 184.102"/>
      <polygon points="135.162 213.97 146.425 213.97 146.425 184.102 135.162 184.102"/>
    </g>
    <g fill="#CB6560" transform="translate(9 9.04)">
      <polygon points=".162 184.102 146.428 184.102 146.428 .859 .162 .859"/>
      <polygon points=".162 213.97 11.425 213.97 11.425 184.102 .162 184.102"/>
      <polygon points="33.943 213.97 45.206 213.97 45.206 184.102 33.943 184.102"/>
      <polygon points="56.403 213.97 67.663 213.97 67.663 184.102 56.403 184.102"/>
      <polygon points="67.663 213.97 78.926 213.97 78.926 184.102 67.663 184.102"/>
      <polygon points="78.923 213.97 90.184 213.97 90.184 184.102 78.923 184.102"/>
      <polygon points="90.184 213.97 101.447 213.97 101.447 184.102 90.184 184.102"/>
      <polygon points="112.644 213.97 123.904 213.97 123.904 184.102 112.644 184.102"/>
      <polygon points="135.162 213.97 146.425 213.97 146.425 184.102 135.162 184.102"/>
    </g>
    <polygon fill="#403C51" points="19.836 119.983 143.261 119.983 143.261 24.164 19.836 24.164"/>
    <path fill="#CE9912" d="M79.3384746,103.813448 C62.7605763,103.813448 49.3236949,89.5947912 49.3236949,72.055285 C49.3236949,54.5157788 62.7605763,40.297122 79.3384746,40.297122 L84.4363729,40.297122 L84.4363729,103.813448 L79.3384746,103.813448 Z"/>
    <path fill="#FBCB40" d="M114.450875,72.0555561 C114.450875,89.5950623 101.013993,103.813719 84.4360949,103.813719 C67.8581966,103.813719 54.4213153,89.5950623 54.4213153,72.0555561 C54.4213153,54.5160499 67.8581966,40.2973931 84.4360949,40.2973931 C101.013993,40.2973931 114.450875,54.5160499 114.450875,72.0555561"/>
    <path fill="#FFE47D" d="M86.0705356 44.9414314L82.7988746 44.9414314C82.4208407 44.9414314 82.1095186 44.6405218 82.1095186 44.2664179 82.1095186 43.895025 82.4208407 43.5941154 82.7988746 43.5941154L86.0705356 43.5941154C86.4541288 43.5941154 86.7598915 43.895025 86.7598915 44.2664179 86.7598915 44.6405218 86.4541288 44.9414314 86.0705356 44.9414314M94.9551661 47.2050307C94.8717763 47.2050307 94.7856068 47.1887653 94.7022169 47.1535237L91.6306915 45.9742833C91.2776746 45.8360275 91.1025559 45.4510801 91.241539 45.1067961 91.3833017 44.7652231 91.7696746 44.5781711 92.1338102 44.7272705L95.2081153 45.9065109C95.5611322 46.0447666 95.7362508 46.4351359 95.5944881 46.7794198 95.488861 47.039666 95.2331322 47.2050307 94.9551661 47.2050307M102.566712 52.5552578C102.397153 52.5552578 102.238712 52.4956181 102.102508 52.3817604L99.6008136 50.1534027C99.3200678 49.9012893 99.2978305 49.4756784 99.556339 49.2018777 99.8092881 48.9280771 100.245695 48.9118117 100.532 49.1585034L103.033695 51.3841502C103.314441 51.6362636 103.336678 52.0618745 103.078169 52.3356751 102.944746 52.4793527 102.752949 52.5552578 102.566712 52.5552578M107.998447 60.3330936C107.751058 60.3330936 107.514786 60.2029705 107.384142 59.977966L105.752481 56.9824244C105.580142 56.6544058 105.705227 56.2423494 106.041566 56.068852 106.383464 55.908909 106.783736 56.0227667 106.978312 56.3453635L108.609973 59.343616C108.782312 59.6716346 108.660007 60.0809801 108.323668 60.2598993 108.215261 60.3059846 108.109634 60.3330936 107.998447 60.3330936M110.582698 69.6068025C110.251919 69.6068025 109.954495 69.3709544 109.904461 69.0429358L109.34019 65.6353378C109.276258 65.2666557 109.529207 64.9223718 109.904461 64.862732 110.349207 64.8085141 110.641071 65.0552057 110.696664 65.4157551L111.260936 68.826064C111.324868 69.1920352 111.071919 69.5363192 110.696664 69.5959589 110.654969 69.6013807 110.618834 69.6068025 110.582698 69.6068025M110.018149 79.2565129C109.982014 79.2565129 109.945878 79.2510911 109.904183 79.2456693 109.528929 79.1860295 109.27598 78.8417456 109.339912 78.4757744L109.904183 75.0654655C109.956997 74.7049161 110.298895 74.4799117 110.696386 74.5151533 111.071641 74.5720822 111.32459 74.9163661 111.260658 75.2850482L110.696386 78.6926462C110.646353 79.0206648 110.348929 79.2565129 110.018149 79.2565129M106.364285 88.1197919C106.253098 88.1197919 106.147471 88.0899721 106.041844 88.038465 105.705505 87.8676785 105.58042 87.458333 105.758319 87.1303144L107.392759 84.1347727C107.573437 83.812176 107.987607 83.6874747 108.323946 83.863683 108.660285 84.0317586 108.78259 84.4438151 108.604692 84.7718336L106.973031 87.7619535C106.847946 87.986958 106.611675 88.1197919 106.364285 88.1197919M100.066685 95.1274617C99.8832271 95.1274617 99.6886508 95.0515566 99.5552271 94.907879 99.2994983 94.6340784 99.3189559 94.2084675 99.5997017 93.956354L102.101397 91.7361291C102.382142 91.4894374 102.818549 91.500281 103.077058 91.7795034 103.338346 92.0505932 103.313329 92.4789149 103.032583 92.7310284L100.530888 94.9539643C100.397464 95.067822 100.236244 95.1274617 100.066685 95.1274617M91.8822508 99.4320957C91.6070644 99.4320957 91.3513356 99.266731 91.2429288 99.0064848 91.1039458 98.6622008 91.2762847 98.2718316 91.6293017 98.1335758L94.7036068 96.9543355C95.0649627 96.8160797 95.4596746 96.9868662 95.595878 97.3338611 95.7376407 97.6781451 95.5597424 98.0630925 95.2067254 98.2013483L92.1352 99.3805886C92.0518102 99.4158303 91.9656407 99.4320957 91.8822508 99.4320957M86.0705356 100.514828L82.7988746 100.514828C82.4208407 100.514828 82.1095186 100.216629 82.1095186 99.8425256 82.1095186 99.4711326 82.4208407 99.170223 82.7988746 99.170223L86.0705356 99.170223C86.4541288 99.170223 86.7598915 99.4711326 86.7598915 99.8425256 86.7598915 100.216629 86.4541288 100.514828 86.0705356 100.514828M76.9904949 99.4320957C76.9071051 99.4320957 76.8209356 99.4158303 76.7375458 99.3805886L73.6632407 98.2013483C73.3102237 98.0630925 73.1351051 97.6781451 73.2768678 97.3338611 73.4102915 96.9868662 73.8077831 96.8160797 74.1663593 96.9543355L77.2434441 98.1335758C77.596461 98.2718316 77.7688 98.6622008 77.6270373 99.0064848 77.5214102 99.266731 77.2656814 99.4320957 76.9904949 99.4320957M68.806339 95.1274617C68.6367797 95.1274617 68.4755593 95.067822 68.3393559 94.9539643L65.8404407 92.7310284C65.5569153 92.4789149 65.534678 92.0505932 65.7931864 91.7795034 66.0461356 91.500281 66.4825424 91.4894374 66.7716271 91.7361291L69.2705424 93.956354C69.5540678 94.2084675 69.5735254 94.6340784 69.3177966 94.907879 69.1815932 95.0515566 68.9897966 95.1274617 68.806339 95.1274617M62.5059593 88.1197919C62.2585695 88.1197919 62.0222983 87.986958 61.8999932 87.7619535L60.2683322 84.7718336C60.0904339 84.4438151 60.212739 84.0317586 60.549078 83.863683 60.8854169 83.6874747 61.2995864 83.812176 61.4802644 84.1347727L63.1119254 87.1303144C63.2898237 87.458333 63.1675186 87.8676785 62.8311797 88.038465 62.7255525 88.0899721 62.6171458 88.1197919 62.5059593 88.1197919M58.8548746 79.2565129C58.5240949 79.2565129 58.2238915 79.0206648 58.1766373 78.6926462L57.6095864 75.2850482C57.5456542 74.9163661 57.7986034 74.5720822 58.1766373 74.5151533 58.5741288 74.4636463 58.9132475 74.7049161 58.966061 75.0654655L59.5331119 78.4757744C59.5970441 78.8417456 59.3440949 79.1860295 58.966061 79.2456693 58.9271458 79.2510911 58.8882305 79.2565129 58.8548746 79.2565129M58.2875458 69.6068025C58.2541898 69.6068025 58.2152746 69.6013807 58.1763593 69.5959589 57.7983254 69.5363192 57.5453763 69.1920352 57.6093085 68.826064L58.1763593 65.4157551C58.2319525 65.0552057 58.5238169 64.8193577 58.9657831 64.862732 59.3438169 64.9223718 59.5967661 65.2666557 59.5328339 65.6353378L58.9657831 69.0429358C58.9185288 69.3709544 58.6183254 69.6068025 58.2875458 69.6068025M60.8745763 60.3330936C60.7606102 60.3330936 60.6549831 60.3059846 60.5493559 60.2598993 60.2130169 60.0809801 60.0907119 59.6716346 60.2630508 59.343616L61.8947119 56.3453635C62.0865085 56.0227667 62.4951186 55.908909 62.8314576 56.068852 63.1677966 56.2423494 63.2901017 56.6544058 63.1177627 56.9824244L61.4861017 59.977966C61.3582373 60.2029705 61.1219661 60.3330936 60.8745763 60.3330936M66.3035322 52.5552578C66.1200746 52.5552578 65.928278 52.4793527 65.7920746 52.3356751 65.5363458 52.0618745 65.5558034 51.6362636 65.8393288 51.3841502L68.3382441 49.1585034C68.6217695 48.9118117 69.0526169 48.9280771 69.3166847 49.2018777 69.5751932 49.4756784 69.5529559 49.9012893 69.2694305 50.1534027L66.7705153 52.3817604C66.6343119 52.4956181 66.4730915 52.5552578 66.3035322 52.5552578M73.915078 47.2050307C73.6398915 47.2050307 73.3841627 47.039666 73.2785356 46.7794198 73.1367729 46.4351359 73.3091119 46.0447666 73.6621288 45.9065109L76.7392136 44.7272705C77.1005695 44.5781711 77.489722 44.7652231 77.6287051 45.1067961 77.7704678 45.4510801 77.5953492 45.8360275 77.2423322 45.9742833L74.1680271 47.1535237C74.0846373 47.1887653 73.9984678 47.2050307 73.915078 47.2050307M90.4518373 80.0296608C89.6957695 80.8375082 88.6561763 81.2305884 87.2774644 81.2305884L80.8870237 81.2305884 80.8842441 77.7199762 84.4755661 77.7199762C84.9675661 77.7199762 85.3706169 77.2916544 85.3706169 76.7684512 85.3706169 76.2479589 84.9675661 75.8169263 84.4755661 75.8169263L80.8842441 75.8169263 80.8842441 72.1165513C80.8842441 72.1165513 80.8425492 72.1111295 80.8842441 72.1111295L87.2774644 72.1111295C88.6561763 72.1111295 89.6957695 72.5014987 90.4518373 73.3093462 91.2190237 74.1144827 91.585939 75.215107 91.585939 76.6735698 91.585939 78.1238999 91.2190237 79.2218134 90.4518373 80.0296608M80.8842441 62.0428566L86.0877695 62.0428566C87.3441763 62.0428566 88.305939 62.4088277 89.0258712 63.1760117 89.7458034 63.9377738 90.1016 64.8865879 90.1016 66.0658283 90.1016 67.2450687 89.7430237 68.2182808 89.0036339 69.0207065 88.2725831 69.825843 87.3719729 70.2162122 86.2350915 70.2162122L80.8842441 70.2189231 80.8842441 62.0455675C80.8842441 62.0455675 80.8481085 62.0428566 80.8842441 62.0428566M89.7736 70.7150173C91.1745492 69.6631892 91.8917017 68.1288212 91.8917017 66.1281789 91.8917017 64.4311572 91.3468881 62.9943815 90.2683797 61.8585155 89.1954305 60.7199386 87.7861424 60.1452284 86.0877695 60.1452284L77.0177356 60.1452284C76.4757017 60.1452284 76.1226847 60.5166213 76.1226847 61.0940425 76.1226847 61.6687527 76.4757017 62.0428566 77.0177356 62.0428566L79.0941424 62.0374348 79.0997017 75.8169263 76.3923119 75.8169263C75.9003119 75.8169263 75.497261 76.2479589 75.497261 76.7684512 75.497261 77.2916544 75.9003119 77.7199762 76.3923119 77.7199762L79.0997017 77.7199762 79.0997017 81.2305884 77.0177356 81.2305884C76.4757017 81.2305884 76.1226847 81.6019813 76.1226847 82.1766916 76.1226847 82.7486909 76.4757017 83.1227947 77.0177356 83.1227947L87.2774644 83.1227947C89.1982102 83.1227947 90.7103458 82.53453 91.7805153 81.3742659 92.8395661 80.2140018 93.3760407 78.7175865 93.3760407 76.9229724 93.3760407 73.6888718 92.1641085 71.6069026 89.7736 70.7150173"/>
    <path fill="#403C51" d="M43.9984203 128.661534C44.0123186 128.534121 44.1096068 128.422975 44.2875051 128.422975L44.5487932 128.422975C44.6822169 128.422975 44.7795051 128.488036 44.8267593 128.582918L48.4153017 136.08126 48.4597763 136.08126 52.0483186 128.582918C52.0955729 128.488036 52.1789627 128.422975 52.3262847 128.422975L52.5875729 128.422975C52.7654712 128.422975 52.8627593 128.534121 52.8794373 128.661534L54.8029627 139.342469C54.8502169 139.562052 54.7195729 139.708441 54.5083186 139.708441L53.0267593 139.708441C52.8794373 139.708441 52.7460136 139.581028 52.7182169 139.467171L51.7536746 133.446268 51.7036407 133.446268 48.8544881 139.692175C48.8183525 139.787057 48.7210644 139.868384 48.5737424 139.868384L48.281878 139.868384C48.1345559 139.868384 48.0539458 139.787057 48.0039119 139.692175L45.1214034 133.446268 45.0741492 133.446268 44.1262847 139.467171C44.1096068 139.581028 43.9817424 139.708441 43.8316407 139.708441L42.3667593 139.708441C42.1555051 139.708441 42.024861 139.562052 42.0582169 139.342469L43.9984203 128.661534zM59.1642508 128.883827C59.1642508 128.721173 59.3115729 128.582918 59.4727932 128.582918L60.9877085 128.582918C61.1517085 128.582918 61.3018102 128.721173 61.3018102 128.883827L61.3018102 139.40482C61.3018102 139.562052 61.1517085 139.708441 60.9877085 139.708441L59.4727932 139.708441C59.3115729 139.708441 59.1642508 139.562052 59.1642508 139.40482L59.1642508 128.883827zM65.7198034 138.149675L66.3063119 137.165619C66.4369559 136.943325 66.7121424 136.943325 66.8594644 137.054472 66.9400746 137.100557 68.2631932 138.038528 69.3222441 138.038528 70.1700407 138.038528 70.8038034 137.499059 70.8038034 136.815913 70.8038034 136.002644 70.1033288 135.449621 68.7357356 134.907441 67.2013627 134.302911 65.6697695 133.348675 65.6697695 131.475445 65.6697695 130.060357 66.7454983 128.422975 69.338922 128.422975 70.9983797 128.422975 72.2714644 129.249798 72.5966847 129.488357 72.7579051 129.583239 72.8107186 129.851618 72.6967525 130.011561L72.0741085 130.917C71.9462441 131.109474 71.6988542 131.234175 71.504278 131.109474 71.3736339 131.030858 70.1366847 130.233854 69.2416339 130.233854 68.3104475 130.233854 67.8045492 130.838384 67.8045492 131.345322 67.8045492 132.09353 68.4077356 132.603178 69.7280746 133.126382 71.3124814 133.747177 73.135939 134.671593 73.135939 136.721032 73.135939 138.355703 71.6849559 139.868384 69.3861763 139.868384 67.3320068 139.868384 66.1256339 138.930413 65.8004136 138.626793 65.6558712 138.485826 65.5724814 138.40721 65.7198034 138.149675M76.678339 138.149675L77.2648475 137.165619C77.3954915 136.943325 77.670678 136.943325 77.8207797 137.054472 77.8986102 137.100557 79.2217288 138.038528 80.2807797 138.038528 81.1285763 138.038528 81.762339 137.499059 81.762339 136.815913 81.762339 136.002644 81.0618644 135.449621 79.6942712 134.907441 78.1598983 134.302911 76.6283051 133.348675 76.6283051 131.475445 76.6283051 130.060357 77.7040339 128.422975 80.2974576 128.422975 81.9569153 128.422975 83.23 129.249798 83.558 129.488357 83.7164407 129.583239 83.7692542 129.851618 83.6552881 130.011561L83.0354237 130.917C82.9047797 131.109474 82.6573898 131.234175 82.4628136 131.109474 82.3321695 131.030858 81.0952203 130.233854 80.2001695 130.233854 79.2689831 130.233854 78.7630847 130.838384 78.7630847 131.345322 78.7630847 132.09353 79.3662712 132.603178 80.6866102 133.126382 82.2710169 133.747177 84.0944746 134.671593 84.0944746 136.721032 84.0944746 138.355703 82.6434915 139.868384 80.3447119 139.868384 78.2905424 139.868384 77.0841695 138.930413 76.7589492 138.626793 76.6144068 138.485826 76.5310169 138.40721 76.678339 138.149675M88.3045492 128.883827C88.3045492 128.721173 88.4518712 128.582918 88.6130915 128.582918L90.1307864 128.582918C90.2947864 128.582918 90.4421085 128.721173 90.4421085 128.883827L90.4421085 139.40482C90.4421085 139.562052 90.2947864 139.708441 90.1307864 139.708441L88.6130915 139.708441C88.4518712 139.708441 88.3045492 139.562052 88.3045492 139.40482L88.3045492 128.883827zM95.5280542 128.709245C95.5280542 128.546592 95.6781559 128.424601 95.8393763 128.424601L96.2452068 128.424601 103.0248 135.448536 103.041478 135.448536 103.041478 128.882743C103.041478 128.7228 103.172122 128.581833 103.35002 128.581833L104.851037 128.581833C105.015037 128.581833 105.162359 128.7228 105.162359 128.882743L105.162359 139.582655C105.162359 139.737176 105.015037 139.867299 104.851037 139.867299L104.461885 139.867299 97.6489356 132.572274 97.6322576 132.572274 97.6322576 139.403736C97.6322576 139.563679 97.5016136 139.710067 97.3237153 139.710067L95.8393763 139.710067C95.6781559 139.710067 95.5280542 139.563679 95.5280542 139.403736L95.5280542 128.709245zM115.289498 128.423246C116.757159 128.423246 118.158108 128.976269 119.267193 129.900685 119.397837 130.028097 119.411736 130.21786 119.283871 130.345272L118.272075 131.380835C118.141431 131.505536 117.996888 131.505536 117.846786 131.380835 117.146312 130.776305 116.281837 130.456419 115.386786 130.456419 113.352075 130.456419 111.737092 132.158862 111.737092 134.143239 111.737092 136.116773 113.352075 137.783974 115.403464 137.783974 116.317973 137.783974 117.018447 137.515596 117.343668 137.388183L117.343668 136.038157 116.042786 136.038157C115.862108 136.038157 115.728685 135.908033 115.728685 135.748091L115.728685 134.495656C115.728685 134.319448 115.862108 134.192035 116.042786 134.192035L119.169905 134.192035C119.333905 134.192035 119.461769 134.335713 119.461769 134.495656L119.461769 138.564713C119.461769 138.689414 119.397837 138.76803 119.333905 138.816826 119.333905 138.816826 117.65499 139.852389 115.289498 139.852389 112.048414 139.852389 109.441092 137.339387 109.441092 134.159505 109.441092 130.979622 112.048414 128.423246 115.289498 128.423246"/>
    <path stroke="#403C51" stroke-linecap="round" stroke-width=".5" d="M19.8337153 153.795619L143.259003 153.795619M19.8337153 159.217414L143.259003 159.217414M19.8337153 164.639209L143.259003 164.639209"/>
    <path stroke="#403C51" stroke-linecap="round" d="M19.8337153,177.589979 L143.259003,177.589979"/>
    <g fill="#CB6560" transform="translate(20 192.861)">
      <polygon points=".423 .282 3.983 10.516 7.472 2.432 11.683 8.209 11.683 .282"/>
      <polygon points="90.447 .282 94.008 10.516 97.496 2.432 101.707 8.209 101.707 .282"/>
      <polygon points="112.901 .282 116.462 10.516 119.953 2.432 124.165 8.209 124.165 .282"/>
      <polygon points="22.945 .282 19.384 10.516 15.896 2.432 11.682 8.209 11.682 .282"/>
      <polygon points="45.435 .282 41.874 10.516 38.386 2.432 34.172 8.209 34.172 .282"/>
    </g>
    <path stroke="#FFF" stroke-linecap="round" stroke-linejoin="bevel" stroke-width=".5" d="M104.817125 198.260571L104.817125 213.474128M93.3752068 198.260571L93.3752068 213.474128M82.2918644 198.260571L82.2918644 213.474128M71.0484136 198.260571L71.0484136 213.474128M48.5751322 198.260571L48.5751322 213.474128M14.7928 198.260571L14.7928 213.474128M127.304027 198.260571L127.304027 213.474128M149.793708 198.260571L149.793708 213.474128"/>
    <g transform="translate(0 .717)">
      <mask id="assets-nothing-yet_v1-b" fill="#fff">
        <use xlink:href="#assets-nothing-yet_v1-a"/>
      </mask>
      <polygon fill="#FFF" points="6.389 27.035 -.002 20.805 20.32 .991 26.708 7.218" mask="url(#assets-nothing-yet_v1-b)"/>
    </g>
    <g transform="translate(136.203 3.428)">
      <mask id="assets-nothing-yet_v1-d" fill="#fff">
        <use xlink:href="#assets-nothing-yet_v1-c"/>
      </mask>
      <polygon fill="#FFF" points=".238 6.51 6.625 .28 26.945 20.097 20.557 26.327" mask="url(#assets-nothing-yet_v1-d)"/>
    </g>
  </g>
</svg>
