<svg xmlns="http://www.w3.org/2000/svg" width="208" height="176" viewBox="0 0 208 176">
  <g fill="none" fill-rule="evenodd">
    <path fill="#CB6560" d="M196.384731,168.116138 L65.1388426,168.116138 C58.9009543,168.116138 53.8434924,163.127735 53.8434924,156.975025 L53.8434924,27.5202557 C53.8434924,21.3675456 58.9009543,16.3791432 65.1388426,16.3791432 L196.384731,16.3791432 C202.623675,16.3791432 207.681137,21.3675456 207.681137,27.5202557 L207.681137,156.975025 C207.681137,163.127735 202.623675,168.116138 196.384731,168.116138"/>
    <path fill="#403C51" d="M189.822912,160.529184 L71.7021401,160.529184 C66.0871959,160.529184 61.5354802,156.039622 61.5354802,150.501349 L61.5354802,33.9935148 C61.5354802,28.4552426 66.0871959,23.9656805 71.7021401,23.9656805 L189.822912,23.9656805 C195.4368,23.9656805 199.989572,28.4552426 199.989572,33.9935148 L199.989572,150.501349 C199.989572,156.039622 195.4368,160.529184 189.822912,160.529184"/>
    <path fill="#403C51" d="M61.5355858,25.5656142 L22.8739817,1.17972071 C15.8991188,-2.48920237 0.000316751269,2.84703432 0.000316751269,11.0523834 L0.000316751269,160.804431 C0.000316751269,170.218869 14.3956061,177.567129 23.0756467,175.283295 L61.5355858,163.152833 L61.5355858,25.5656142 Z"/>
    <polygon fill="#FE7F78" points="69.227 99.834 199.989 99.834 199.989 92.247 69.227 92.247"/>
    <path fill="#CB6560" d="M69.227468,25.5656142 L22.8740873,1.17972071 C15.8992244,-2.48920237 7.69219898,2.84703432 7.69219898,11.0523834 L7.69219898,160.804431 C7.69219898,170.218869 16.1008893,177.12765 24.7809299,174.844857 L69.227468,163.152833 L69.227468,25.5656142 Z"/>
    <path fill="#FBCB40" d="M97.9866883,160.504814 L85.0442315,160.504814 C84.7348711,160.504814 84.4856934,160.257998 84.4856934,159.952862 L84.4856934,157.34827 C84.4856934,157.044175 84.7348711,156.796317 85.0442315,156.796317 L97.9866883,156.796317 C98.2949929,156.796317 98.5452264,157.044175 98.5452264,157.34827 L98.5452264,159.952862 C98.5452264,160.257998 98.2949929,160.504814 97.9866883,160.504814"/>
    <path stroke="#FB8F40" stroke-width=".151" d="M97.9866883 160.504814L85.0442315 160.504814C84.7348711 160.504814 84.4856934 160.257998 84.4856934 159.952862L84.4856934 157.34827C84.4856934 157.044175 84.7348711 156.796317 85.0442315 156.796317L97.9866883 156.796317C98.2949929 156.796317 98.5452264 157.044175 98.5452264 157.34827L98.5452264 159.952862C98.5452264 160.257998 98.2949929 160.504814 97.9866883 160.504814zM85.7713868 156.796734L85.7713868 160.505231M88.0975025 156.796734L88.0975025 160.505231M90.4225624 156.796734L90.4225624 160.505231M92.7477279 156.796734L92.7477279 160.505231M95.0727878 156.796734L95.0727878 160.505231M97.3979533 156.796734L97.3979533 160.505231"/>
    <path fill="#FBCB40" d="M94.8005929,156.796734 L81.858136,156.796734 C81.5498315,156.796734 81.299598,156.549917 81.299598,156.244781 L81.299598,153.64019 C81.299598,153.336095 81.5498315,153.088237 81.858136,153.088237 L94.8005929,153.088237 C95.1099533,153.088237 95.3601868,153.336095 95.3601868,153.64019 L95.3601868,156.244781 C95.3601868,156.549917 95.1099533,156.796734 94.8005929,156.796734"/>
    <path stroke="#FB8F40" stroke-width=".151" d="M94.8005929 156.796734L81.858136 156.796734C81.5498315 156.796734 81.299598 156.549917 81.299598 156.244781L81.299598 153.64019C81.299598 153.336095 81.5498315 153.088237 81.858136 153.088237L94.8005929 153.088237C95.1099533 153.088237 95.3601868 153.336095 95.3601868 153.64019L95.3601868 156.244781C95.3601868 156.549917 95.1099533 156.796734 94.8005929 156.796734zM82.5863472 153.088758L82.5863472 156.797255M84.9114071 153.088758L84.9114071 156.797255M87.236467 153.088758L87.236467 156.797255M89.5616325 153.088758L89.5616325 156.797255M91.8877482 153.088758L91.8877482 156.797255M94.2129137 153.088758L94.2129137 156.797255"/>
    <path fill="#FBCB40" d="M180.656447,91.8951197 L166.353015,91.8951197 C166.01198,91.8951197 165.734294,91.6212262 165.734294,91.2848475 L165.734294,88.4063623 C165.734294,88.0699836 166.01198,87.7960901 166.353015,87.7960901 L180.656447,87.7960901 C180.997482,87.7960901 181.275168,88.0699836 181.275168,88.4063623 L181.275168,91.2848475 C181.275168,91.6212262 180.997482,91.8951197 180.656447,91.8951197"/>
    <path stroke="#FB8F40" stroke-width=".151" d="M180.656447 91.8951197L166.353015 91.8951197C166.01198 91.8951197 165.734294 91.6212262 165.734294 91.2848475L165.734294 88.4063623C165.734294 88.0699836 166.01198 87.7960901 166.353015 87.7960901L180.656447 87.7960901C180.997482 87.7960901 181.275168 88.0699836 181.275168 88.4063623L181.275168 91.2848475C181.275168 91.6212262 180.997482 91.8951197 180.656447 91.8951197zM167.156402 87.7966108L167.156402 91.8956404M169.726944 87.7966108L169.726944 91.8956404M172.29643 87.7966108L172.29643 91.8956404M174.866867 87.7966108L174.866867 91.8956404M177.436353 87.7966108L177.436353 91.8956404M180.006895 87.7966108L180.006895 91.8956404"/>
    <path fill="#FBCB40" d="M182.969259,87.7966108 L168.665827,87.7966108 C168.324792,87.7966108 168.047107,87.5237587 168.047107,87.18738 L168.047107,84.3078534 C168.047107,83.9714747 168.324792,83.6986226 168.665827,83.6986226 L182.969259,83.6986226 C183.310294,83.6986226 183.58798,83.9714747 183.58798,84.3078534 L183.58798,87.18738 C183.58798,87.5237587 183.310294,87.7966108 182.969259,87.7966108"/>
    <path stroke="#FB8F40" stroke-width=".151" d="M182.969259 87.7966108L168.665827 87.7966108C168.324792 87.7966108 168.047107 87.5237587 168.047107 87.18738L168.047107 84.3078534C168.047107 83.9714747 168.324792 83.6986226 168.665827 83.6986226L182.969259 83.6986226C183.310294 83.6986226 183.58798 83.9714747 183.58798 84.3078534L183.58798 87.18738C183.58798 87.5237587 183.310294 87.7966108 182.969259 87.7966108zM169.469109 83.6990392L169.469109 87.7970274M172.039651 83.6990392L172.039651 87.7970274M174.609137 83.6990392L174.609137 87.7970274M177.179679 83.6990392L177.179679 87.7970274M179.749165 83.6990392L179.749165 87.7970274M182.319602 83.6990392L182.319602 87.7970274"/>
    <path fill="#FBCB40" d="M179.449096,83.6990392 L165.144609,83.6990392 C164.803574,83.6990392 164.526944,83.4251457 164.526944,83.088767 L164.526944,80.2102818 C164.526944,79.8739031 164.803574,79.6000096 165.144609,79.6000096 L179.449096,79.6000096 C179.790132,79.6000096 180.066761,79.8739031 180.066761,80.2102818 L180.066761,83.088767 C180.066761,83.4251457 179.790132,83.6990392 179.449096,83.6990392"/>
    <path stroke="#FB8F40" stroke-width=".151" d="M179.449096 83.6990392L165.144609 83.6990392C164.803574 83.6990392 164.526944 83.4251457 164.526944 83.088767L164.526944 80.2102818C164.526944 79.8739031 164.803574 79.6000096 165.144609 79.6000096L179.449096 79.6000096C179.790132 79.6000096 180.066761 79.8739031 180.066761 80.2102818L180.066761 83.088767C180.066761 83.4251457 179.790132 83.6990392 179.449096 83.6990392zM165.949052 79.6005303L165.949052 83.6995599M168.518432 79.6005303L168.518432 83.6995599M171.088975 79.6005303L171.088975 83.6995599M173.658461 79.6005303L173.658461 83.6995599M176.229003 79.6005303L176.229003 83.6995599M178.798489 79.6005303L178.798489 83.6995599"/>
    <path fill="#FBCB40" d="M180.656447,79.6005303 L166.353015,79.6005303 C166.01198,79.6005303 165.734294,79.3276782 165.734294,78.9912995 L165.734294,76.1128143 C165.734294,75.7753942 166.01198,75.5025421 166.353015,75.5025421 L180.656447,75.5025421 C180.997482,75.5025421 181.275168,75.7753942 181.275168,76.1128143 L181.275168,78.9912995 C181.275168,79.3276782 180.997482,79.6005303 180.656447,79.6005303"/>
    <path stroke="#FB8F40" stroke-width=".151" d="M180.656447 79.6005303L166.353015 79.6005303C166.01198 79.6005303 165.734294 79.3276782 165.734294 78.9912995L165.734294 76.1128143C165.734294 75.7753942 166.01198 75.5025421 166.353015 75.5025421L180.656447 75.5025421C180.997482 75.5025421 181.275168 75.7753942 181.275168 76.1128143L181.275168 78.9912995C181.275168 79.3276782 180.997482 79.6005303 180.656447 79.6005303zM167.156402 75.5029587L167.156402 79.6009469M169.726944 75.5029587L169.726944 79.6009469M172.29643 75.5029587L172.29643 79.6009469M174.866867 75.5029587L174.866867 79.6009469M177.436353 75.5029587L177.436353 79.6009469M180.006895 75.5029587L180.006895 79.6009469"/>
    <path fill="#FBCB40" d="M164.815821,80.4446013 L156.610908,92.0022818 C156.415578,92.2772167 156.030197,92.344909 155.7504,92.1512049 L153.359984,90.4995126 C153.080187,90.3078913 153.012613,89.9267315 153.207943,89.6507552 L161.411801,78.0941161 C161.608187,77.8181398 161.993568,77.7514889 162.273364,77.9441516 L164.663781,79.5958439 C164.943578,79.7885066 165.012207,80.168625 164.815821,80.4446013"/>
    <path stroke="#FB8F40" stroke-width=".151" d="M164.815821 80.4446013L156.610908 92.0022818C156.415578 92.2772167 156.030197 92.344909 155.7504 92.1512049L153.359984 90.4995126C153.080187 90.3078913 153.012613 89.9267315 153.207943 89.6507552L161.411801 78.0941161C161.608187 77.8181398 161.993568 77.7514889 162.273364 77.9441516L164.663781 79.5958439C164.943578 79.7885066 165.012207 80.168625 164.815821 80.4446013zM153.669766 89.0017422L157.072731 91.3522274M155.143188 86.9250463L158.547208 89.2755315M156.617665 84.8482463L160.021685 87.1997729M158.092037 82.7725918L161.495001 85.1230771M159.565563 80.6957918L162.969584 83.0462771M161.039935 78.619096L164.443955 80.9695812"/>
    <path stroke="#403C51" stroke-width="4" d="M52.7918782 66.6508877L28.5076142 121.846154M29.5634518 66.6508877L53.8477157 121.846154"/>
    <path stroke="#FE7F78" stroke-width="4" d="M54.3756345 66.1301776L30.0913706 121.325444M31.1472081 66.1301776L55.4314721 121.325444"/>
  </g>
</svg>
