<svg xmlns="http://www.w3.org/2000/svg" width="22" height="22" viewBox="0 0 22 22">
  <path fill="none" stroke="#0E4160" stroke-linecap="round" stroke-linejoin="round" stroke-width="2" d="M13.7002669,20.223239 L13.711196,20.2297975 C15.6562993,21.4689271 18.2010434,21.1898683 19.8314843,19.5586416 L20.5200167,18.8699962 C21.1599944,18.2297203 21.1599944,17.1918329 20.5200167,16.551557 L17.621623,13.652688 C16.9814521,13.0126054 15.9437348,13.0126054 15.3035638,13.652688 C14.9960935,13.9604059 14.5789559,14.1332966 14.1439878,14.1332966 C13.7090196,14.1332966 13.2918821,13.9604059 12.9844117,13.652688 L8.34610748,9.01580946 C7.70612979,8.37553351 7.70612979,7.33764613 8.34610748,6.69737017 C8.65377493,6.38984942 8.82663729,5.97264343 8.82663729,5.53760399 C8.82663729,5.10256454 8.65377493,4.68535855 8.34610748,4.3778378 L5.44771378,1.48006196 C4.8075428,0.839979345 3.76982556,0.839979345 3.12965457,1.48006196 L2.44112214,2.16761421 C0.810162813,3.79832239 0.531149791,6.3434838 1.77007624,8.28890605 L1.77663369,8.29983693 C4.95311815,12.9996406 9.00065138,17.0470954 13.7002669,20.223239 Z"/>
</svg>
