<svg xmlns="http://www.w3.org/2000/svg" xmlns:xlink="http://www.w3.org/1999/xlink" width="168" height="224" viewBox="0 0 168 224">
  <defs>
    <polygon id="verify-id-phone-amazonite-a" points="0 .617 111.325 .617 111.325 197.273 0 197.273"/>
  </defs>
  <g fill="none" fill-rule="evenodd">
    <path fill="#FFF" d="M108.749836,88.7328909 L108.749836,142.229436 L108.749836,203.571073 C108.749836,213.430891 100.760927,221.423618 90.9049273,221.423618 L20.4212909,221.423618 C10.5652909,221.423618 2.57638182,213.430891 2.57638182,203.571073 L2.57638182,47.7727091 C2.57638182,37.9141636 10.5652909,29.9227091 20.4212909,29.9227091 L68.9109273,29.9227091"/>
    <g transform="translate(0 26.727)">
      <mask id="verify-id-phone-amazonite-b" fill="#fff">
        <use xlink:href="#verify-id-phone-amazonite-a"/>
      </mask>
      <path fill="#0E4160" d="M90.9055636,197.272727 L20.4206545,197.272727 C9.16083636,197.272727 -0.000254545455,188.109091 -0.000254545455,176.845455 L-0.000254545455,21.0470909 C-0.000254545455,9.78345455 9.16083636,0.617272727 20.4206545,0.617272727 L68.9115636,0.617272727 L68.9115636,5.77309091 L20.4206545,5.77309091 C12.0015636,5.77309091 5.15301818,12.6254545 5.15301818,21.0470909 L5.15301818,176.845455 C5.15301818,185.265818 12.0015636,192.116909 20.4206545,192.116909 L90.9055636,192.116909 C99.3233818,192.116909 106.1732,185.265818 106.1732,176.845455 L106.1732,62.0047273 L111.3252,62.0047273 L111.3252,176.845455 C111.3252,188.109091 102.165382,197.272727 90.9055636,197.272727" mask="url(#verify-id-phone-amazonite-b)"/>
    </g>
    <path fill="#0E4160" d="M56.9446182,48.5326545 L42.4151636,48.5326545 C40.9922545,48.5326545 39.8391636,47.3795636 39.8391636,45.9566545 C39.8391636,44.5312 40.9922545,43.3781091 42.4151636,43.3781091 L56.9446182,43.3781091 C58.3675273,43.3781091 59.5206182,44.5312 59.5206182,45.9566545 C59.5206182,47.3795636 58.3675273,48.5326545 56.9446182,48.5326545"/>
    <path fill="#FFF" d="M98.2287091,17.5832364 L68.0358,17.5768727 L68.0358,17.5756 L68.0345273,17.5768727 L63.3254364,17.5756 L59.5976182,21.5108727 L61.8503455,24.2917818 C56.9261636,30.9990545 54.0090727,39.2730545 54.0090727,48.2317818 C54.0090727,70.5999636 72.1339818,88.7312364 94.4919818,88.7312364 C100.438164,88.7312364 106.081436,87.4406909 111.167255,85.1370545 L112.890527,87.2625091 L118.779436,84.3186909 L118.779436,38.1428727 C118.779436,26.7876 109.578891,17.5832364 98.2287091,17.5832364"/>
    <path fill="#0E4160" d="M62.8583455 200.5416C62.8583455 196.566873 59.6370727 193.344327 55.6636182 193.344327 51.6901636 193.344327 48.4676182 196.566873 48.4676182 200.5416 48.4676182 204.516327 51.6901636 207.738873 55.6636182 207.738873 59.6370727 207.738873 62.8583455 204.516327 62.8583455 200.5416M67.4047818 37.5454545L55.6626 37.5454545C53.5282364 37.5454545 51.7973273 35.8158182 51.7973273 33.6801818 51.7973273 31.5432727 53.5282364 29.8136364 55.6626 29.8136364L67.4047818 29.8136364C69.5404182 29.8136364 71.2700545 31.5432727 71.2700545 33.6801818 71.2700545 35.8158182 69.5404182 37.5454545 67.4047818 37.5454545"/>
    <path fill="#2CB9AC" d="M95.6459636,85.8854182 C82.2517818,85.8854182 69.7599636,78.6728727 63.0450545,67.0617818 L67.5059636,64.4794182 C73.3006909,74.5034182 84.0845091,80.7296 95.6459636,80.7296 L95.6459636,85.8854182 Z"/>
    <path fill="#0E4160" d="M122.645473,84.3181818 L114.9162,84.3181818 L114.9162,38.1436364 C114.9162,28.938 107.430018,21.4492727 98.2282,21.4492727 L61.5329273,21.4416364 L61.5354727,13.7085455 L98.2294727,13.7161818 C111.692382,13.7161818 122.645473,24.6756364 122.645473,38.1436364 L122.645473,84.3181818 Z"/>
    <path fill="#2CB9AC" d="M112.889891,84.3181818 C107.3688,87.1410909 101.117164,88.732 94.4926182,88.732 C72.1346182,88.732 54.0084364,70.6007273 54.0084364,48.2312727 C54.0084364,30.3952727 65.5355273,15.2510909 81.5438909,9.84709091 C85.6089818,8.47636364 89.9629818,7.73181818 94.4926182,7.73181818 C116.849345,7.73181818 134.975527,25.8656364 134.975527,48.2312727 C134.975527,63.9736364 126.000255,77.616 112.889891,84.3181818 M166.679164,109.595818 L133.589527,76.4934545 C139.416073,68.4345455 142.7048,58.6218182 142.7048,48.2312727 C142.7048,21.6363636 121.077345,0 94.4926182,0 C89.2184364,0 84.0308,0.847636364 79.0735273,2.52 C59.4582545,9.142 46.2791636,27.5112727 46.2791636,48.2312727 C46.2791636,74.8274545 67.9066182,96.4650909 94.4926182,96.4650909 C102.098436,96.4650909 109.677527,94.6438182 116.407709,91.2036364 C120.579709,89.0718182 124.335527,86.3901818 127.628073,83.286 L160.304073,115.974727 C161.183527,116.855455 162.337891,117.295818 163.490982,117.295818 C164.645345,117.295818 165.798436,116.855455 166.679164,115.974727 C168.439345,114.213273 168.439345,111.357273 166.679164,109.595818"/>
  </g>
</svg>
