<svg xmlns="http://www.w3.org/2000/svg" width="208" height="176" viewBox="0 0 208 176">
  <g fill="none" fill-rule="evenodd">
    <rect width="208" height="32" fill="#CB6560" fill-rule="nonzero" rx="16" transform="translate(0 144)"/>
    <g transform="translate(28)">
      <path fill="#403C51" d="M146.154639,107.506638 C149.680532,113.272805 144.439654,120 136.419921,120 L10.8539674,120 C2.83423352,120 -2.40955044,113.272805 1.11924875,107.506638 C7.02824715,97.8536962 11.459996,90.6139901 14.4144952,85.7875193 C25.4124145,67.8213152 41.9092934,40.8720089 63.9051321,4.9396006 C65.775885,1.88292769 69.3317813,0.268512175 72.9825883,0.0963540641 C75.7069839,-0.0321180214 77.8565418,-0.0321180214 79.431262,0.0963540641 L146.154639,107.506638 Z"/>
      <path fill="#CB6560" d="M151.609185,107.498205 C155.135077,113.268264 149.8942,120 141.874466,120 L16.3085129,120 C8.28877898,120 3.04499502,113.268264 6.5737942,107.498205 C12.4827926,97.8387482 16.9145414,90.5941555 19.8690406,85.764427 C30.8669599,67.7860962 47.3638389,40.8186001 69.3596775,4.86193849 C73.3244898,-1.62064616 84.8584891,-1.62064616 88.8233014,4.86193849 L151.609185,107.498205 Z"/>
    </g>
    <polygon fill="#403C51" fill-rule="nonzero" points="14.586 154.557 18.557 150.586 24 156.029 29.443 150.586 33.414 154.557 27.971 160 33.414 165.443 29.443 169.414 24 163.971 18.557 169.414 14.586 165.443 20.029 160"/>
    <polygon fill="#403C51" fill-rule="nonzero" points="78.586 154.557 82.557 150.586 88 156.029 93.443 150.586 97.414 154.557 91.971 160 97.414 165.443 93.443 169.414 88 163.971 82.557 169.414 78.586 165.443 84.029 160"/>
    <polygon fill="#403C51" fill-rule="nonzero" points="142.586 154.557 146.557 150.586 152 156.029 157.443 150.586 161.414 154.557 155.971 160 161.414 165.443 157.443 169.414 152 163.971 146.557 169.414 142.586 165.443 148.029 160"/>
    <polygon fill="#403C51" fill-rule="nonzero" points="46.586 154.557 50.557 150.586 56 156.029 61.443 150.586 65.414 154.557 59.971 160 65.414 165.443 61.443 169.414 56 163.971 50.557 169.414 46.586 165.443 52.029 160"/>
    <polygon fill="#403C51" fill-rule="nonzero" points="110.586 154.557 114.557 150.586 120 156.029 125.443 150.586 129.414 154.557 123.971 160 129.414 165.443 125.443 169.414 120 163.971 114.557 169.414 110.586 165.443 116.029 160"/>
    <polygon fill="#403C51" fill-rule="nonzero" points="174.586 154.557 178.557 150.586 184 156.029 189.443 150.586 193.414 154.557 187.971 160 193.414 165.443 189.443 169.414 184 163.971 178.557 169.414 174.586 165.443 180.029 160"/>
    <path fill="#FFDA40" d="M99.3315283,74.75 L99.3315283,36 L114.277834,36 L114.277834,74.75 L99.3315283,74.75 Z M99,98 L99,83.1208617 L114.536167,83.1208617 L114.536167,98 L99,98 Z"/>
  </g>
</svg>