<svg version="1.1" id="el_2oApmyFdZ" xmlns="http://www.w3.org/2000/svg" xmlns:xlink="http://www.w3.org/1999/xlink" x="0px" y="0px" viewBox="0 0 385 600" style="enable-background:new 0 0 385 626.6;" xml:space="preserve">  <style>svg {cursor : none;}</style><style>@-webkit-keyframes kf_el_C-0KywV1Pj_an_XoXfYIpMW{73.89%{-webkit-transform: translate(192.30001831054688px, 162px) scale(0.3, 0.3) translate(-192.30001831054688px, -162px);transform: translate(192.30001831054688px, 162px) scale(0.3, 0.3) translate(-192.30001831054688px, -162px);}78.33%{-webkit-transform: translate(192.30001831054688px, 162px) scale(1.1, 1.1) translate(-192.30001831054688px, -162px);transform: translate(192.30001831054688px, 162px) scale(1.1, 1.1) translate(-192.30001831054688px, -162px);}78.89%{-webkit-transform: translate(192.30001831054688px, 162px) scale(1, 1) translate(-192.30001831054688px, -162px);transform: translate(192.30001831054688px, 162px) scale(1, 1) translate(-192.30001831054688px, -162px);}0%{-webkit-transform: translate(192.30001831054688px, 162px) scale(0.3, 0.3) translate(-192.30001831054688px, -162px);transform: translate(192.30001831054688px, 162px) scale(0.3, 0.3) translate(-192.30001831054688px, -162px);}100%{-webkit-transform: translate(192.30001831054688px, 162px) scale(1, 1) translate(-192.30001831054688px, -162px);transform: translate(192.30001831054688px, 162px) scale(1, 1) translate(-192.30001831054688px, -162px);}}@keyframes kf_el_C-0KywV1Pj_an_XoXfYIpMW{73.89%{-webkit-transform: translate(192.30001831054688px, 162px) scale(0.3, 0.3) translate(-192.30001831054688px, -162px);transform: translate(192.30001831054688px, 162px) scale(0.3, 0.3) translate(-192.30001831054688px, -162px);}78.33%{-webkit-transform: translate(192.30001831054688px, 162px) scale(1.1, 1.1) translate(-192.30001831054688px, -162px);transform: translate(192.30001831054688px, 162px) scale(1.1, 1.1) translate(-192.30001831054688px, -162px);}78.89%{-webkit-transform: translate(192.30001831054688px, 162px) scale(1, 1) translate(-192.30001831054688px, -162px);transform: translate(192.30001831054688px, 162px) scale(1, 1) translate(-192.30001831054688px, -162px);}0%{-webkit-transform: translate(192.30001831054688px, 162px) scale(0.3, 0.3) translate(-192.30001831054688px, -162px);transform: translate(192.30001831054688px, 162px) scale(0.3, 0.3) translate(-192.30001831054688px, -162px);}100%{-webkit-transform: translate(192.30001831054688px, 162px) scale(1, 1) translate(-192.30001831054688px, -162px);transform: translate(192.30001831054688px, 162px) scale(1, 1) translate(-192.30001831054688px, -162px);}}@-webkit-keyframes kf_el_plKRDTpilJ5_an_gSlkr88pa{0%{-webkit-transform: translate(110.9000015258789px, 173.29998779296875px) translate(-110.9000015258789px, -173.29998779296875px) translate(0px, -20px);transform: translate(110.9000015258789px, 173.29998779296875px) translate(-110.9000015258789px, -173.29998779296875px) translate(0px, -20px);}100%{-webkit-transform: translate(110.9000015258789px, 173.29998779296875px) translate(-110.9000015258789px, -173.29998779296875px) translate(0px, -20px);transform: translate(110.9000015258789px, 173.29998779296875px) translate(-110.9000015258789px, -173.29998779296875px) translate(0px, -20px);}}@keyframes kf_el_plKRDTpilJ5_an_gSlkr88pa{0%{-webkit-transform: translate(110.9000015258789px, 173.29998779296875px) translate(-110.9000015258789px, -173.29998779296875px) translate(0px, -20px);transform: translate(110.9000015258789px, 173.29998779296875px) translate(-110.9000015258789px, -173.29998779296875px) translate(0px, -20px);}100%{-webkit-transform: translate(110.9000015258789px, 173.29998779296875px) translate(-110.9000015258789px, -173.29998779296875px) translate(0px, -20px);transform: translate(110.9000015258789px, 173.29998779296875px) translate(-110.9000015258789px, -173.29998779296875px) translate(0px, -20px);}}@-webkit-keyframes kf_el_AFYPT03aZ17_an_0qRQXufW1{0%{-webkit-transform: translate(110.9000015258789px, 181.69998168945312px) translate(-110.9000015258789px, -181.69998168945312px) translate(0px, -20px);transform: translate(110.9000015258789px, 181.69998168945312px) translate(-110.9000015258789px, -181.69998168945312px) translate(0px, -20px);}100%{-webkit-transform: translate(110.9000015258789px, 181.69998168945312px) translate(-110.9000015258789px, -181.69998168945312px) translate(0px, -20px);transform: translate(110.9000015258789px, 181.69998168945312px) translate(-110.9000015258789px, -181.69998168945312px) translate(0px, -20px);}}@keyframes kf_el_AFYPT03aZ17_an_0qRQXufW1{0%{-webkit-transform: translate(110.9000015258789px, 181.69998168945312px) translate(-110.9000015258789px, -181.69998168945312px) translate(0px, -20px);transform: translate(110.9000015258789px, 181.69998168945312px) translate(-110.9000015258789px, -181.69998168945312px) translate(0px, -20px);}100%{-webkit-transform: translate(110.9000015258789px, 181.69998168945312px) translate(-110.9000015258789px, -181.69998168945312px) translate(0px, -20px);transform: translate(110.9000015258789px, 181.69998168945312px) translate(-110.9000015258789px, -181.69998168945312px) translate(0px, -20px);}}@-webkit-keyframes kf_el_gOgcevkAcDx_an_QwD5NN3yj{0%{-webkit-transform: translate(23.600000381469727px, 294.5px) translate(-23.600000381469727px, -294.5px) translate(100px, 310px);transform: translate(23.600000381469727px, 294.5px) translate(-23.600000381469727px, -294.5px) translate(100px, 310px);}16.67%{-webkit-transform: translate(23.600000381469727px, 294.5px) translate(-23.600000381469727px, -294.5px) translate(100px, 310px);transform: translate(23.600000381469727px, 294.5px) translate(-23.600000381469727px, -294.5px) translate(100px, 310px);}27.22%{-webkit-transform: translate(23.600000381469727px, 294.5px) translate(-23.600000381469727px, -294.5px) translate(50px, -20px);transform: translate(23.600000381469727px, 294.5px) translate(-23.600000381469727px, -294.5px) translate(50px, -20px);}30%{-webkit-transform: translate(23.600000381469727px, 294.5px) translate(-23.600000381469727px, -294.5px) translate(50px, 0px);transform: translate(23.600000381469727px, 294.5px) translate(-23.600000381469727px, -294.5px) translate(50px, 0px);}40%{-webkit-transform: translate(23.600000381469727px, 294.5px) translate(-23.600000381469727px, -294.5px) translate(50px, 0px);transform: translate(23.600000381469727px, 294.5px) translate(-23.600000381469727px, -294.5px) translate(50px, 0px);}46.67%{-webkit-transform: translate(23.600000381469727px, 294.5px) translate(-23.600000381469727px, -294.5px) translate(50px, 310px);transform: translate(23.600000381469727px, 294.5px) translate(-23.600000381469727px, -294.5px) translate(50px, 310px);}100%{-webkit-transform: translate(23.600000381469727px, 294.5px) translate(-23.600000381469727px, -294.5px) translate(50px, 310px);transform: translate(23.600000381469727px, 294.5px) translate(-23.600000381469727px, -294.5px) translate(50px, 310px);}}@keyframes kf_el_gOgcevkAcDx_an_QwD5NN3yj{0%{-webkit-transform: translate(23.600000381469727px, 294.5px) translate(-23.600000381469727px, -294.5px) translate(100px, 310px);transform: translate(23.600000381469727px, 294.5px) translate(-23.600000381469727px, -294.5px) translate(100px, 310px);}16.67%{-webkit-transform: translate(23.600000381469727px, 294.5px) translate(-23.600000381469727px, -294.5px) translate(100px, 310px);transform: translate(23.600000381469727px, 294.5px) translate(-23.600000381469727px, -294.5px) translate(100px, 310px);}27.22%{-webkit-transform: translate(23.600000381469727px, 294.5px) translate(-23.600000381469727px, -294.5px) translate(50px, -20px);transform: translate(23.600000381469727px, 294.5px) translate(-23.600000381469727px, -294.5px) translate(50px, -20px);}30%{-webkit-transform: translate(23.600000381469727px, 294.5px) translate(-23.600000381469727px, -294.5px) translate(50px, 0px);transform: translate(23.600000381469727px, 294.5px) translate(-23.600000381469727px, -294.5px) translate(50px, 0px);}40%{-webkit-transform: translate(23.600000381469727px, 294.5px) translate(-23.600000381469727px, -294.5px) translate(50px, 0px);transform: translate(23.600000381469727px, 294.5px) translate(-23.600000381469727px, -294.5px) translate(50px, 0px);}46.67%{-webkit-transform: translate(23.600000381469727px, 294.5px) translate(-23.600000381469727px, -294.5px) translate(50px, 310px);transform: translate(23.600000381469727px, 294.5px) translate(-23.600000381469727px, -294.5px) translate(50px, 310px);}100%{-webkit-transform: translate(23.600000381469727px, 294.5px) translate(-23.600000381469727px, -294.5px) translate(50px, 310px);transform: translate(23.600000381469727px, 294.5px) translate(-23.600000381469727px, -294.5px) translate(50px, 310px);}}@-webkit-keyframes kf_el_zl9mo9JdEqv_an_85zk_3eNT{50.56%{-webkit-transform: translate(208.5752716064453px, 277.6974792480469px) translate(-208.5752716064453px, -277.6974792480469px) translate(0px, 330px);transform: translate(208.5752716064453px, 277.6974792480469px) translate(-208.5752716064453px, -277.6974792480469px) translate(0px, 330px);}60%{-webkit-transform: translate(208.5752716064453px, 277.6974792480469px) translate(-208.5752716064453px, -277.6974792480469px) translate(0px, -20px);transform: translate(208.5752716064453px, 277.6974792480469px) translate(-208.5752716064453px, -277.6974792480469px) translate(0px, -20px);}61.67%{-webkit-transform: translate(208.5752716064453px, 277.6974792480469px) translate(-208.5752716064453px, -277.6974792480469px) translate(0px, -15px);transform: translate(208.5752716064453px, 277.6974792480469px) translate(-208.5752716064453px, -277.6974792480469px) translate(0px, -15px);}73.33%{-webkit-transform: translate(208.5752716064453px, 277.6974792480469px) translate(-208.5752716064453px, -277.6974792480469px) translate(0px, -15px);transform: translate(208.5752716064453px, 277.6974792480469px) translate(-208.5752716064453px, -277.6974792480469px) translate(0px, -15px);}85%{-webkit-transform: translate(208.5752716064453px, 277.6974792480469px) translate(-208.5752716064453px, -277.6974792480469px) translate(0px, 330px);transform: translate(208.5752716064453px, 277.6974792480469px) translate(-208.5752716064453px, -277.6974792480469px) translate(0px, 330px);}0%{-webkit-transform: translate(208.5752716064453px, 277.6974792480469px) translate(-208.5752716064453px, -277.6974792480469px) translate(0px, 330px);transform: translate(208.5752716064453px, 277.6974792480469px) translate(-208.5752716064453px, -277.6974792480469px) translate(0px, 330px);}100%{-webkit-transform: translate(208.5752716064453px, 277.6974792480469px) translate(-208.5752716064453px, -277.6974792480469px) translate(0px, 330px);transform: translate(208.5752716064453px, 277.6974792480469px) translate(-208.5752716064453px, -277.6974792480469px) translate(0px, 330px);}}@keyframes kf_el_zl9mo9JdEqv_an_85zk_3eNT{50.56%{-webkit-transform: translate(208.5752716064453px, 277.6974792480469px) translate(-208.5752716064453px, -277.6974792480469px) translate(0px, 330px);transform: translate(208.5752716064453px, 277.6974792480469px) translate(-208.5752716064453px, -277.6974792480469px) translate(0px, 330px);}60%{-webkit-transform: translate(208.5752716064453px, 277.6974792480469px) translate(-208.5752716064453px, -277.6974792480469px) translate(0px, -20px);transform: translate(208.5752716064453px, 277.6974792480469px) translate(-208.5752716064453px, -277.6974792480469px) translate(0px, -20px);}61.67%{-webkit-transform: translate(208.5752716064453px, 277.6974792480469px) translate(-208.5752716064453px, -277.6974792480469px) translate(0px, -15px);transform: translate(208.5752716064453px, 277.6974792480469px) translate(-208.5752716064453px, -277.6974792480469px) translate(0px, -15px);}73.33%{-webkit-transform: translate(208.5752716064453px, 277.6974792480469px) translate(-208.5752716064453px, -277.6974792480469px) translate(0px, -15px);transform: translate(208.5752716064453px, 277.6974792480469px) translate(-208.5752716064453px, -277.6974792480469px) translate(0px, -15px);}85%{-webkit-transform: translate(208.5752716064453px, 277.6974792480469px) translate(-208.5752716064453px, -277.6974792480469px) translate(0px, 330px);transform: translate(208.5752716064453px, 277.6974792480469px) translate(-208.5752716064453px, -277.6974792480469px) translate(0px, 330px);}0%{-webkit-transform: translate(208.5752716064453px, 277.6974792480469px) translate(-208.5752716064453px, -277.6974792480469px) translate(0px, 330px);transform: translate(208.5752716064453px, 277.6974792480469px) translate(-208.5752716064453px, -277.6974792480469px) translate(0px, 330px);}100%{-webkit-transform: translate(208.5752716064453px, 277.6974792480469px) translate(-208.5752716064453px, -277.6974792480469px) translate(0px, 330px);transform: translate(208.5752716064453px, 277.6974792480469px) translate(-208.5752716064453px, -277.6974792480469px) translate(0px, 330px);}}@-webkit-keyframes kf_el_zfrejAVswDg_an_p9dKUHLOG{0%{opacity: 1;}73.33%{opacity: 1;}73.89%{opacity: 0;}100%{opacity: 0;}}@keyframes kf_el_zfrejAVswDg_an_p9dKUHLOG{0%{opacity: 1;}73.33%{opacity: 1;}73.89%{opacity: 0;}100%{opacity: 0;}}@-webkit-keyframes kf_el_nceC9BZ4G16_an_SNKCiJ8HG{73.89%{-webkit-transform: translate(192.30001831054688px, 162px) scale(0.3, 0.3) translate(-192.30001831054688px, -162px);transform: translate(192.30001831054688px, 162px) scale(0.3, 0.3) translate(-192.30001831054688px, -162px);}78.33%{-webkit-transform: translate(192.30001831054688px, 162px) scale(1.1, 1.1) translate(-192.30001831054688px, -162px);transform: translate(192.30001831054688px, 162px) scale(1.1, 1.1) translate(-192.30001831054688px, -162px);}78.89%{-webkit-transform: translate(192.30001831054688px, 162px) scale(1, 1) translate(-192.30001831054688px, -162px);transform: translate(192.30001831054688px, 162px) scale(1, 1) translate(-192.30001831054688px, -162px);}0%{-webkit-transform: translate(192.30001831054688px, 162px) scale(0.3, 0.3) translate(-192.30001831054688px, -162px);transform: translate(192.30001831054688px, 162px) scale(0.3, 0.3) translate(-192.30001831054688px, -162px);}100%{-webkit-transform: translate(192.30001831054688px, 162px) scale(1, 1) translate(-192.30001831054688px, -162px);transform: translate(192.30001831054688px, 162px) scale(1, 1) translate(-192.30001831054688px, -162px);}}@keyframes kf_el_nceC9BZ4G16_an_SNKCiJ8HG{73.89%{-webkit-transform: translate(192.30001831054688px, 162px) scale(0.3, 0.3) translate(-192.30001831054688px, -162px);transform: translate(192.30001831054688px, 162px) scale(0.3, 0.3) translate(-192.30001831054688px, -162px);}78.33%{-webkit-transform: translate(192.30001831054688px, 162px) scale(1.1, 1.1) translate(-192.30001831054688px, -162px);transform: translate(192.30001831054688px, 162px) scale(1.1, 1.1) translate(-192.30001831054688px, -162px);}78.89%{-webkit-transform: translate(192.30001831054688px, 162px) scale(1, 1) translate(-192.30001831054688px, -162px);transform: translate(192.30001831054688px, 162px) scale(1, 1) translate(-192.30001831054688px, -162px);}0%{-webkit-transform: translate(192.30001831054688px, 162px) scale(0.3, 0.3) translate(-192.30001831054688px, -162px);transform: translate(192.30001831054688px, 162px) scale(0.3, 0.3) translate(-192.30001831054688px, -162px);}100%{-webkit-transform: translate(192.30001831054688px, 162px) scale(1, 1) translate(-192.30001831054688px, -162px);transform: translate(192.30001831054688px, 162px) scale(1, 1) translate(-192.30001831054688px, -162px);}}@-webkit-keyframes kf_el_nceC9BZ4G16_an_HbHgcJzPA{0%{opacity: 0;}73.33%{opacity: 0;}73.89%{opacity: 1;}100%{opacity: 1;}}@keyframes kf_el_nceC9BZ4G16_an_HbHgcJzPA{0%{opacity: 0;}73.33%{opacity: 0;}73.89%{opacity: 1;}100%{opacity: 1;}}@-webkit-keyframes kf_el_C-0KywV1Pj_an_wQ9679mTS{0%{opacity: 0;}73.33%{opacity: 0;}73.89%{opacity: 1;}100%{opacity: 1;}}@keyframes kf_el_C-0KywV1Pj_an_wQ9679mTS{0%{opacity: 0;}73.33%{opacity: 0;}73.89%{opacity: 1;}100%{opacity: 1;}}#el_2oApmyFdZ *{-webkit-animation-duration: 6s;animation-duration: 6s;-webkit-animation-iteration-count: infinite;animation-iteration-count: infinite;-webkit-animation-timing-function: cubic-bezier(0, 0, 1, 1);animation-timing-function: cubic-bezier(0, 0, 1, 1);}#el_bWu8Y9PaXY{fill: #1A1A1A;}#el_QZ7qhhRjR5{fill: #1A1A1A;}#el_cY8IxIP68p{fill: #1A1A1A;}#el_5a0SKB_h5g{fill: #1A1A1A;}#el_7c8klUwanj{fill: #1A1A1A;}#el_i-ofK2QLL8{fill: #E6E6E6;}#el_5S1GTwGeln{fill: #F2F2F2;}#el_SJ1Cr_SjTv{fill: #FE7F78;visibility: hidden;}#el_H-WidtDv18{fill: #37E8D7;visibility: hidden;}#el_P73QMEeoELZ{fill: #4A4A4A;}#el_IvK4T4u4yuq{fill: #4A4A4A;}#el_HcglQvNybdX{fill: #FFFFFF;}#el_Br9AcIjIdSL{fill: #FFFFFF;}#el_kN4pVx68iQB{fill: #F2F2F2;}#el_ejo5IJKh11g{fill: #FFFFFF;}#el_XsSJHvEZhH3{fill: #231F20;}#el_iT4FuzvIPJ3{fill: #231F20;}#el_XFfWEnxY3xV{fill: #231F20;}#el_gjMxqYpglxq{fill: #231F20;}#el_I156kKLRzhI{fill: #231F20;}#el_DWkzSzNdxsj{fill: #231F20;}#el_d4dLWLgQJxI{fill: #231F20;}#el__B_ZaIbylv3{fill: #231F20;}#el_VUbPjLIq98C{fill: #FFFFFF;visibility: hidden;}#el_2SaxPKnKK6s{fill: #FFFFFF;visibility: hidden;}#el_plKRDTpilJ5{fill: #0E4160;}#el_AFYPT03aZ17{fill: #0E4160;}#el_0tNrXPDmXRG{fill: #333333;}#el_CxNiSbtUxcB{fill: #E6E6E6;}#el_3VgVbl_bHyD{-webkit-clip-path: url(#SVGID_2_);clip-path: url(#SVGID_2_);}#el_cPt9ijkK6Xm{fill: #231F20;}#el_5PIVpQOqaSO{fill: #1A1A1A;}#el_aEesBK44m3g{fill: #666666;}#el_F449gjLt_AO{fill: #808080;}#el_F0AicuIaGEO{fill: #666666;}#el_jcdpXIQv5KE{fill: #999999;}#el_rUALeJ4JQ_d{fill: #1A1A1A;}#el_yG9MKxINvbE{fill: #1A1A1A;}#el__RLs9pY1KAU{fill: #666666;}#el_FHelqdoIS0C{fill: #999999;}#el_oogui6WAf5B{fill: #1A1A1A;}#el_TccRY9D8G7x{fill: #333333;}#el_dg7vC69uPkb{fill: #333333;}#el_vH-4H3Ztu6n{fill: #CCCCCC;}#el_MWpndaD1cQl{fill: #CCCCCC;}#el_002QHzXFhTP{fill: #1A1A1A;}#el_IqCHIiFlNZA{fill: #1A1A1A;}#el_mFaxYy2hnuD{fill: #1A1A1A;}#el_jJq5CXxRagY{fill: none;stroke: #231F20;stroke-width: 0.4487;stroke-miterlimit: 10;}#el_gVX7y_Vq8XA{fill: none;stroke: #231F20;stroke-width: 0.4487;stroke-miterlimit: 10;}#el_NP_pOoJcaeR{fill: none;stroke: #231F20;stroke-width: 0.4487;stroke-miterlimit: 10;}#el_wcO6vPi4Y0d{fill: #B3B3B3;}#el_B-tVLIkmsvh{fill: #B3B3B3;}#el_oACmisUCrDy{fill: #B3B3B3;}#el_-o2Z4KXMRQl{fill: #B3B3B3;}#el_NKPEoKAGiV7{fill: #808080;}#el_CZgYA8lmTGd{fill: #E6E6E6;}#el_Mw29mdeATwn{fill: #1A1A1A;}#el_zVhPwY5DRsB{fill: #1A1A1A;}#el_gAkx4IDBX_F{fill: none;stroke: #231F20;stroke-width: 1.1471;stroke-miterlimit: 10;}#el_sq11MTWemnm{fill: none;stroke: #231F20;stroke-width: 1.1471;stroke-miterlimit: 10;}#el_-0wXLxDwJMV{fill: none;stroke: #231F20;stroke-width: 1.1471;stroke-miterlimit: 10;}#el_CbPH0OTKxkB{fill: #FFFFFF;}#el_W3Kh5rN7WDN{fill: #231F20;}#el_4kufWhnTzRQ{fill: #231F20;}#el_f84365o1awW{fill: #231F20;}#el_G49oPXN3wOu{fill: #231F20;}#el_wQnkASyrW57{fill: #231F20;}#el__APdwFIqUne{fill: #231F20;}#el_ObWcUU7mzps{fill: #231F20;}#el_ZGFp8nItDWt{fill: #B3B3B3;}#el_qUp166pCG2K{fill: #B3B3B3;}#el_Y9f3GanF9iN{fill: #B3B3B3;}#el_J_FwqRMLJ5e{fill: #B3B3B3;}#el_C-0KywV1Pj{-webkit-animation-fill-mode: backwards;animation-fill-mode: backwards;opacity: 0;-webkit-animation-name: kf_el_C-0KywV1Pj_an_wQ9679mTS;animation-name: kf_el_C-0KywV1Pj_an_wQ9679mTS;-webkit-animation-timing-function: cubic-bezier(0, 0, 1, 1);animation-timing-function: cubic-bezier(0, 0, 1, 1);}#el_nceC9BZ4G16{-webkit-animation-fill-mode: backwards;animation-fill-mode: backwards;opacity: 0;-webkit-animation-name: kf_el_nceC9BZ4G16_an_HbHgcJzPA;animation-name: kf_el_nceC9BZ4G16_an_HbHgcJzPA;-webkit-animation-timing-function: cubic-bezier(0, 0, 1, 1);animation-timing-function: cubic-bezier(0, 0, 1, 1);visibility: hidden;}#el_nceC9BZ4G16_an_SNKCiJ8HG{-webkit-animation-fill-mode: backwards;animation-fill-mode: backwards;-webkit-transform: translate(192.30001831054688px, 162px) scale(0.3, 0.3) translate(-192.30001831054688px, -162px);transform: translate(192.30001831054688px, 162px) scale(0.3, 0.3) translate(-192.30001831054688px, -162px);-webkit-animation-name: kf_el_nceC9BZ4G16_an_SNKCiJ8HG;animation-name: kf_el_nceC9BZ4G16_an_SNKCiJ8HG;-webkit-animation-timing-function: cubic-bezier(0.42, 0, 0.58, 1);animation-timing-function: cubic-bezier(0.42, 0, 0.58, 1);}#el_zfrejAVswDg{-webkit-animation-fill-mode: backwards;animation-fill-mode: backwards;opacity: 1;-webkit-animation-name: kf_el_zfrejAVswDg_an_p9dKUHLOG;animation-name: kf_el_zfrejAVswDg_an_p9dKUHLOG;-webkit-animation-timing-function: cubic-bezier(0, 0, 1, 1);animation-timing-function: cubic-bezier(0, 0, 1, 1);}#el_zl9mo9JdEqv_an_85zk_3eNT{-webkit-animation-fill-mode: backwards;animation-fill-mode: backwards;-webkit-transform: translate(208.5752716064453px, 277.6974792480469px) translate(-208.5752716064453px, -277.6974792480469px) translate(0px, 330px);transform: translate(208.5752716064453px, 277.6974792480469px) translate(-208.5752716064453px, -277.6974792480469px) translate(0px, 330px);-webkit-animation-name: kf_el_zl9mo9JdEqv_an_85zk_3eNT;animation-name: kf_el_zl9mo9JdEqv_an_85zk_3eNT;-webkit-animation-timing-function: cubic-bezier(0.42, 0, 0.58, 1);animation-timing-function: cubic-bezier(0.42, 0, 0.58, 1);}#el_gOgcevkAcDx_an_QwD5NN3yj{-webkit-animation-fill-mode: backwards;animation-fill-mode: backwards;-webkit-transform: translate(23.600000381469727px, 294.5px) translate(-23.600000381469727px, -294.5px) translate(100px, 310px);transform: translate(23.600000381469727px, 294.5px) translate(-23.600000381469727px, -294.5px) translate(100px, 310px);-webkit-animation-name: kf_el_gOgcevkAcDx_an_QwD5NN3yj;animation-name: kf_el_gOgcevkAcDx_an_QwD5NN3yj;-webkit-animation-timing-function: cubic-bezier(0.42, 0, 0.58, 1);animation-timing-function: cubic-bezier(0.42, 0, 0.58, 1);}#el_AFYPT03aZ17_an_0qRQXufW1{-webkit-animation-fill-mode: backwards;animation-fill-mode: backwards;-webkit-transform: translate(110.9000015258789px, 181.69998168945312px) translate(-110.9000015258789px, -181.69998168945312px) translate(0px, -20px);transform: translate(110.9000015258789px, 181.69998168945312px) translate(-110.9000015258789px, -181.69998168945312px) translate(0px, -20px);-webkit-animation-name: kf_el_AFYPT03aZ17_an_0qRQXufW1;animation-name: kf_el_AFYPT03aZ17_an_0qRQXufW1;-webkit-animation-timing-function: cubic-bezier(0, 0, 1, 1);animation-timing-function: cubic-bezier(0, 0, 1, 1);}#el_plKRDTpilJ5_an_gSlkr88pa{-webkit-animation-fill-mode: backwards;animation-fill-mode: backwards;-webkit-transform: translate(110.9000015258789px, 173.29998779296875px) translate(-110.9000015258789px, -173.29998779296875px) translate(0px, -20px);transform: translate(110.9000015258789px, 173.29998779296875px) translate(-110.9000015258789px, -173.29998779296875px) translate(0px, -20px);-webkit-animation-name: kf_el_plKRDTpilJ5_an_gSlkr88pa;animation-name: kf_el_plKRDTpilJ5_an_gSlkr88pa;-webkit-animation-timing-function: cubic-bezier(0, 0, 1, 1);animation-timing-function: cubic-bezier(0, 0, 1, 1);}#el_C-0KywV1Pj_an_XoXfYIpMW{-webkit-animation-fill-mode: backwards;animation-fill-mode: backwards;-webkit-transform: translate(192.30001831054688px, 162px) scale(0.3, 0.3) translate(-192.30001831054688px, -162px);transform: translate(192.30001831054688px, 162px) scale(0.3, 0.3) translate(-192.30001831054688px, -162px);-webkit-animation-name: kf_el_C-0KywV1Pj_an_XoXfYIpMW;animation-name: kf_el_C-0KywV1Pj_an_XoXfYIpMW;-webkit-animation-timing-function: cubic-bezier(0, 0, 1, 1);animation-timing-function: cubic-bezier(0, 0, 1, 1);}</style>

<g id="el_fcRq_9Upra">
	<path d="M383.2,351.1c0,0,4,23.1,0,37.7s-14.7,38.9-14.7,38.9H16.4c0,0-10.7-24.4-14.7-38.9s0-37.7,0-37.7l6.9-57&#10;&#9;&#9;l28.1-222c0,0,4-36.9,25.6-52.6c0,0,10.4-8.5,19.1-10.7c8.6-2.2,21.5-4.1,35.2-5.4c19.9-2.2,39.8-3.3,59.8-3.4h32.2&#10;&#9;&#9;c20,0.1,39.9,1.2,59.8,3.4c13.6,1.3,26.5,3.2,35.2,5.4c8.6,2.2,19,10.7,19,10.7c21.7,15.7,25.6,52.6,25.6,52.6l28.1,222&#10;&#9;&#9;L383.2,351.1z" id="el_bWu8Y9PaXY"/>
	<rect x="18.5" y="427.6" width="347.9" height="1.8" id="el_QZ7qhhRjR5"/>
	<g id="el_0NWxLXmQa-">
		<path d="M103.2,570.9c0,0,9.4,0.3,17.6,0.3h142.9c8.2,0,17.6-0.3,17.6-0.3c26.7-2.6,41.8-35.3,41.8-35.3l44.5-106.2&#10;&#9;&#9;&#9;H16.9l44.5,106.2C61.4,535.6,76.5,568.3,103.2,570.9z" id="el_cY8IxIP68p"/>
		<rect x="367.7" y="429.4" width="0.3" height="0" id="el_5a0SKB_h5g"/>
	</g>
</g>
<g id="el_VkfNhd5IRp">
	<path d="M383.2,351.1c0,0,4,23.1,0,37.7s-14.7,38.9-14.7,38.9H16.4c0,0-10.7-24.4-14.7-38.9s0-37.7,0-37.7l6.9-57&#10;&#9;&#9;l28.1-222c0,0,4-36.9,25.6-52.6c0,0,10.4-8.5,19-10.7s21.5-4.1,35.2-5.4c19.9-2.2,39.8-3.3,59.8-3.4h32.2c20,0.1,39.9,1.2,59.8,3.4&#10;&#9;&#9;c13.6,1.3,26.5,3.2,35.2,5.4s19,10.7,19,10.7c21.7,15.7,25.6,52.6,25.6,52.6l28.1,222L383.2,351.1z M342.5,374.7&#10;&#9;&#9;c8.4-9.9,13-17.4,11-33.2s-5-43.7-5-43.7L320.4,66.7c0,0-3.4-35.2-43.4-39s-55.6-5.5-86.8-5.5s-46.8,1.8-86.8,5.5S60,66.7,60,66.7&#10;&#9;&#9;L31.8,297.9c0,0-3.8,21.7,6.7,32.2s14.3,14.5,35.2,14.5H144c0,0,12.5,0,17.1,2c4,1.5,7.9,3.5,11.4,5.9c3.3,2.2,17.6,12.2,25.7,18&#10;&#9;&#9;c2.6,1.8,5.1,3.7,7.6,5.6c7.4,5.5,16.4,8.4,25.6,8.3h85.1C316.5,384.4,334.1,384.6,342.5,374.7L342.5,374.7z" id="el_7c8klUwanj"/>
	<path id="el_i-ofK2QLL8" d="M368,429.4v1.3c0,0.6-0.1,1.3-0.3,1.9c-0.4,2-0.9,3.9-1.6,5.8l-64.3,188.2H83.2L18.8,438.4&#10;&#9;&#9;c-0.7-1.9-1.2-3.9-1.6-5.8c-0.1-0.6-0.2-1.3-0.3-1.9v-1.3l44.5,106.2c0,0,15.1,32.7,41.8,35.3c0,0,9.4,0.3,17.6,0.3h142.9&#10;&#9;&#9;c8.2,0,17.6-0.3,17.6-0.3c26.7-2.6,41.8-35.3,41.8-35.3l44.5-106.2L368,429.4L368,429.4z"/>
	<rect id="el_3zkz_7FYe4" x="18.5" y="427.6" width="347.9" height="1.8"/>
	<g id="el_V0xA6qWrlC">
		<polygon id="el_5S1GTwGeln" points="294.6,101.5 296.6,224.6 192.5,225.6 88.4,224.6 90.4,101.5 &#10;&#9;&#9;&#9;192.5,101.5 &#9;&#9;"/>
		
		
		<g id="el_C-0KywV1Pj_an_XoXfYIpMW" data-animator-group="true" data-animator-type="2"><g id="el_C-0KywV1Pj">
			<path d="M192.3,128.4c-18.5,0-33.6,15.1-33.6,33.6s15.1,33.6,33.6,33.6s33.6-15.1,33.6-33.6S210.8,128.4,192.3,128.4&#10;&#9;&#9;&#9;&#9;z M192.3,189.3c-15.1,0-27.3-12.3-27.3-27.3s12.3-27.3,27.3-27.3s27.3,12.3,27.3,27.3S207.4,189.3,192.3,189.3z" id="el_P73QMEeoELZ"/>
			<path d="M206.1,150.1c-1.3-1.1-3.3-0.9-4.4,0.5l-13.1,16.3l-4-3.9c-1.2-1.2-3.2-1.2-4.4,0.1&#10;&#9;&#9;&#9;&#9;c-1.2,1.2-1.2,3.2,0.1,4.4l6.5,6.3c0.6,0.6,1.4,0.9,2.2,0.9c0.1,0,0.1,0,0.2,0c0.9-0.1,1.7-0.5,2.2-1.2l15.3-19&#10;&#9;&#9;&#9;&#9;C207.6,153.1,207.4,151.2,206.1,150.1z" id="el_IvK4T4u4yuq"/>
		</g></g>
		<g id="el_nceC9BZ4G16_an_SNKCiJ8HG" data-animator-group="true" data-animator-type="2"/>
		<g id="el_zfrejAVswDg">
			<g id="el_OO_IA4jd0GM">
				<g id="el_ADvCUyLnWof">
					<polygon points="268.2,224.9 211,225.4 211,148.9 268.2,148.9 &#9;&#9;&#9;&#9;&#9;" id="el_kN4pVx68iQB"/>
					<g id="el_xNgeq2OaFuW">
						<rect id="el_ejo5IJKh11g" x="221.5" y="162" width="37.9" height="37.9"/>
						<g id="el_4zrJL1wrbFn">
							<rect x="240.4" y="168.3" width="6.3" height="6.3" id="el_XsSJHvEZhH3"/>
							<rect x="246.8" y="162" width="6.3" height="6.3" id="el_iT4FuzvIPJ3"/>
							<rect x="253.1" y="168.3" width="6.3" height="12.6" id="el_XFfWEnxY3xV"/>
							<polygon points="246.8,187.2 246.8,180.9 240.4,180.9 240.4,187.2 246.8,187.2 246.8,193.6 253.1,193.6 &#10;&#9;&#9;&#9;&#9;&#9;&#9;&#9;&#9;253.1,199.9 259.4,199.9 259.4,187.2 &#9;&#9;&#9;&#9;&#9;&#9;&#9;" id="el_gjMxqYpglxq"/>
							<rect x="234.1" y="187.2" width="6.3" height="6.3" id="el_I156kKLRzhI"/>
							<polygon points="227.8,180.9 234.1,180.9 234.1,168.3 240.4,168.3 240.4,162 221.5,162 221.5,174.6 227.8,174.6 &#10;&#9;&#9;&#9;&#9;&#9;&#9;&#9;&#9;&#9;&#9;&#9;&#9;&#9;&#9;&#9;" id="el_DWkzSzNdxsj"/>
							<polygon points="227.8,187.2 221.5,187.2 221.5,199.9 234.1,199.9 234.1,193.6 227.8,193.6 &#9;&#9;&#9;&#9;&#9;&#9;&#9;" id="el_d4dLWLgQJxI"/>
						</g>
					</g>
				</g>
				<path id="el__B_ZaIbylv3" d="M262.4,142.3h-45.7c-3.4,0-6.2,2.8-6.2,6.2l0.1,76.9h0.9l-0.1-76.4h56.4v75.9h0.9v-76.3&#10;&#9;&#9;&#9;&#9;&#9;C268.6,145.1,265.8,142.3,262.4,142.3z"/>
			</g>
			<g id="el_xBMm5aXR41R">
				
				
				<g id="el_plKRDTpilJ5_an_gSlkr88pa" data-animator-group="true" data-animator-type="0"><path id="el_plKRDTpilJ5" d="M163.7,175.5H112c-0.6,0-1.1-0.5-1.1-1.1s0.5-1.1,1.1-1.1h51.7c0.6,0,1.1,0.5,1.1,1.1&#10;&#9;&#9;&#9;&#9;&#9;S164.3,175.5,163.7,175.5z"/></g>
				<g id="el_AFYPT03aZ17_an_0qRQXufW1" data-animator-group="true" data-animator-type="0"><path id="el_AFYPT03aZ17" d="M152,183.9h-40c-0.6,0-1.1-0.5-1.1-1.1s0.5-1.1,1.1-1.1h40c0.6,0,1.1,0.5,1.1,1.1&#10;&#9;&#9;&#9;&#9;&#9;S152.6,183.9,152,183.9z"/></g>
			</g>
		</g>
		<path id="el_0tNrXPDmXRG" d="M296.4,365.4c1.4-1.4,2.1-3.2,2.1-5.2l-1.3-92.9c-0.1-3.8-3.2-6.9-7-6.9h-65.5&#10;&#9;&#9;&#9;c-3.9,0-7,3.1-7,7l0,0l0.3,92.9c0,4,3.2,7.2,7.2,7.2h66.2C293.3,367.5,295.1,366.7,296.4,365.4z M353.5,341.6&#10;&#9;&#9;&#9;c2,15.8-2.6,23.3-11,33.2s-25.9,9.7-25.9,9.7h-85.1c-9.2,0.1-18.2-2.9-25.6-8.3c-2.5-1.9-5-3.8-7.6-5.6&#10;&#9;&#9;&#9;c-8.1-5.7-22.5-15.8-25.7-18c-3.6-2.4-7.4-4.4-11.4-5.9c-4.6-2-17.1-2-17.1-2H73.7c-20.9,0-24.6-4-35.2-14.5S31.8,298,31.8,298&#10;&#9;&#9;&#9;L59.9,66.7c0,0,3.4-35.2,43.4-39s55.6-5.5,86.8-5.5s46.8,1.8,86.8,5.5s43.4,39,43.4,39l28.1,231.2&#10;&#9;&#9;&#9;C348.5,297.9,351.5,325.7,353.5,341.6L353.5,341.6z M296.6,224.6l-2.1-123.1H90.4l-2.1,123.1l104.1,1L296.6,224.6z M199.9,82.3&#10;&#9;&#9;&#9;c0-5.7-3.4-10.4-7.6-10.4s-7.6,4.7-7.6,10.4c0,5.7,3.4,10.4,7.6,10.4S199.9,88,199.9,82.3z"/>
		<g id="el_vqtQHxtAqxB">
			<path d="M220.2,365.5c-1.4-1.3-2.2-3.2-2.2-5.2l-0.3-92.9c0-3.9,3.1-7,7-7l0,0h65.5c3.8,0,6.9,3.1,7,6.9l1.3,92.9&#10;&#9;&#9;&#9;&#9;c0.1,4-3.1,7.2-7.1,7.3h-0.1h-66.2C223.3,367.5,221.5,366.8,220.2,365.5z M260.6,321.6c0-1.3-1-2.3-2.3-2.3s-2.3,1-2.3,2.3&#10;&#9;&#9;&#9;&#9;s1,2.3,2.3,2.3S260.6,322.9,260.6,321.6z" id="el_CxNiSbtUxcB"/>
			<g id="el_w32xIqDQTTK">
				<g id="el_4-eZopnl5yN">
					<defs>
						<path id="SVGID_1_" d="M210.2,252.4v123.1h96.7V252.4H210.2z M291.6,367.5h-66.8c-3.8,0-6.9-3.1-6.9-6.9l-0.2-93.3&#10;&#9;&#9;&#9;&#9;&#9;&#9;&#9;c0-3.8,3.1-6.9,6.9-6.9l0,0h65.8c3.8,0,6.8,3,6.9,6.8l1.2,93.3C298.5,364.3,295.5,367.4,291.6,367.5&#10;&#9;&#9;&#9;&#9;&#9;&#9;&#9;C291.7,367.5,291.6,367.5,291.6,367.5L291.6,367.5z"/>
					</defs>
					<clipPath id="SVGID_2_">
						<use xlink:href="#SVGID_1_" style="overflow:visible;"/>
					</clipPath>
					<g id="el_3VgVbl_bHyD">
					</g>
				</g>
			</g>
			<path id="el_cPt9ijkK6Xm" d="M258.3,319.2c1.3,0,2.3,1,2.3,2.3s-1,2.3-2.3,2.3s-2.3-1-2.3-2.3l0,0&#10;&#9;&#9;&#9;&#9;C256,320.3,257,319.3,258.3,319.2z"/>
			<circle cx="258.3" cy="321.6" r="2.3" id="el_7VQxM2Geos3"/>
		</g>
		<path id="el_yQ-res7CoKy" d="M192.4,71.9c4.2,0,7.6,4.7,7.6,10.4c0,5.7-3.4,10.4-7.6,10.4s-7.6-4.7-7.6-10.4&#10;&#9;&#9;&#9;C184.8,76.5,188.2,71.9,192.4,71.9z"/>
	</g>
	<g id="el_Ry1B58NuJjK">
		<path d="M367.7,429.4l-44.5,106.2c0,0-15.1,32.7-41.8,35.3c0,0-9.4,0.3-17.6,0.3H120.9c-8.2,0-17.6-0.3-17.6-0.3&#10;&#9;&#9;&#9;c-26.7-2.6-41.8-35.3-41.8-35.3L17,429.4H367.7z M289.6,547.6c0-1.4-1.1-2.4-2.4-2.4h-50.8c-1.4,0-2.4,1.1-2.4,2.5&#10;&#9;&#9;&#9;c0,1.3,1.1,2.4,2.4,2.4h50.8C288.5,550,289.6,548.9,289.6,547.6L289.6,547.6L289.6,547.6z M161.9,546.7c0-1.4-1.1-2.4-2.4-2.4l0,0&#10;&#9;&#9;&#9;h-50.8c-1.4,0-2.4,1.1-2.4,2.4c0,1.4,1.1,2.4,2.4,2.4l0,0h50.8C160.8,549.1,161.9,548,161.9,546.7L161.9,546.7z" id="el_5PIVpQOqaSO"/>
		<g id="el_yRQ0KYwqZPc">
			<g id="el_rCYWafrqA2J">
				<path d="M90.5,517.6v1.8c0,2.5,2,4.4,4.4,4.4h78.2c2.5,0,4.4-2,4.4-4.4l0,0v-35.3c0-2.5-2-4.4-4.4-4.4l0,0H94.9&#10;&#9;&#9;&#9;&#9;&#9;c-2.5,0-4.4,2-4.4,4.4v24.8h-0.3v5.2c0.1,0.2,0.2,0.4,0.3,0.5V517.6z M179.9,482.4v39.8c0,2.7-2.2,4.8-4.8,4.8l0,0H93&#10;&#9;&#9;&#9;&#9;&#9;c-2.7,0-4.8-2.2-4.8-4.8l0,0v-39.8c0-2.7,2.2-4.8,4.8-4.8l0,0h82.1C177.7,477.6,179.9,479.7,179.9,482.4L179.9,482.4z" id="el_kzcn_B6gtso"/>
				<path d="M177.6,517.1v2.3c0,2.5-2,4.4-4.4,4.4l0,0H94.9c-2.5,0-4.4-2-4.4-4.4v-1.8c1.1,1.8,3,2.9,5,2.9h25.6&#10;&#9;&#9;&#9;&#9;&#9;c0,0,2.2-0.3,5.4-3.5c1.6-1.5,3.7-2.4,6-2.5h1.9c2.4,0,4.7,0.9,6.5,2.5c3.1,3.1,5.4,3.5,5.4,3.5h25.6c3.7,0,5.4-3.5,5.4-3.5&#10;&#9;&#9;&#9;&#9;&#9;L177.6,517.1z" id="el_aEesBK44m3g"/>
				<path d="M177.6,514.1v3h-0.3c0,0-1.7,3.5-5.4,3.5h-25.6c0,0-2.2-0.3-5.4-3.5c-1.7-1.7-4.1-2.6-6.5-2.5h-1.9&#10;&#9;&#9;&#9;&#9;&#9;c-2.2,0.1-4.4,1-6,2.5c-3.1,3.1-5.4,3.5-5.4,3.5H95.5c-2.1-0.1-4-1.2-5-2.9v-3c1.1,1.8,3,2.9,5,2.9h25.6c0,0,2.2-0.3,5.4-3.5&#10;&#9;&#9;&#9;&#9;&#9;c1.7-1.6,3.8-2.5,6.1-2.5h2c2.3,0,4.6,0.9,6.3,2.5c3.1,3.1,5.4,3.5,5.4,3.5h25.6c3.7,0,5.4-3.5,5.4-3.5H177.6z" id="el_F449gjLt_AO"/>
				<path d="M177.6,484.1v30h-0.3v-5.2h-2.6v-22H94.2v22h-3.7v-24.8c0-2.5,2-4.4,4.4-4.4h78.2&#10;&#9;&#9;&#9;&#9;&#9;C175.6,479.7,177.6,481.7,177.6,484.1L177.6,484.1z" id="el_F0AicuIaGEO"/>
				<path d="M177.2,508.9v5.2c0,0-1.7,3.5-5.4,3.5h-25.6c0,0-2.2-0.3-5.4-3.5c-1.7-1.6-3.9-2.5-6.3-2.5h-2&#10;&#9;&#9;&#9;&#9;&#9;c-2.3,0-4.5,0.9-6.1,2.5c-3.1,3.1-5.4,3.5-5.4,3.5H95.5c-2.1-0.1-4-1.2-5-2.9V509h3.7v-11.1h80.4V509L177.2,508.9L177.2,508.9z" id="el_jcdpXIQv5KE"/>
				<rect x="94.2" y="486.9" width="80.4" height="10.9" id="el_rUALeJ4JQ_d"/>
				<path d="M90.5,508.9v5.7c-0.1-0.2-0.2-0.4-0.3-0.5v-5.2L90.5,508.9z" id="el_yG9MKxINvbE"/>
			</g>
			<g id="el_9m4LUHvALzm">
				<path d="M298.5,525.1c0,2.4-2,4.3-4.4,4.3c0,0,0,0-0.1,0h-64.6c-2.4,0.1-4.4-1.8-4.4-4.2c0,0,0,0,0-0.1l0.5-43.4&#10;&#9;&#9;&#9;&#9;&#9;c0.1-2.4,2-4.2,4.4-4.2h63.6c2.4-0.1,4.3,1.8,4.4,4.2L298.5,525.1z M292,527c2.5,0.1,4.5-1.9,4.6-4.3l0,0l-0.5-40.6&#10;&#9;&#9;&#9;&#9;&#9;c0-1.4-1.2-2.4-2.5-2.4H230c-1.4,0-2.5,1-2.5,2.4l-0.5,40.6c0.1,2.5,2.1,4.4,4.6,4.4l0,0H292V527z" id="el_gJc1UZmqokt"/>
				<path d="M296.7,522.6c-0.1,2.5-2.1,4.4-4.6,4.4l0,0h-60.5c-2.5,0.1-4.5-1.9-4.6-4.3l0,0l0.5-40.6&#10;&#9;&#9;&#9;&#9;&#9;c0-1.4,1.2-2.4,2.5-2.4h63.7c1.4,0,2.5,1,2.5,2.4L296.7,522.6z M293.2,491v-8.3h-63.7v33h63.7V491z" id="el__RLs9pY1KAU"/>
				<rect x="229.5" y="503.4" width="63.7" height="12.3" id="el_FHelqdoIS0C"/>
				<rect x="229.5" y="491" width="63.7" height="12.4" id="el_oogui6WAf5B"/>
				<rect x="229.5" y="486.9" width="63.7" height="4.1" id="el_TccRY9D8G7x"/>
				<rect x="229.5" y="482.8" width="63.7" height="4.1" id="el_dg7vC69uPkb"/>
			</g>
			<path id="el_vH-4H3Ztu6n" d="M287.2,545.1c1.4,0,2.5,1.1,2.5,2.4c0,1.4-1.1,2.5-2.4,2.5l0,0h-50.8&#10;&#9;&#9;&#9;&#9;c-1.4,0-2.5-1.1-2.5-2.4s1.1-2.5,2.4-2.5l0,0H287.2z"/>
			<path id="el_MWpndaD1cQl" d="M159.4,544.2c1.4,0,2.4,1.1,2.4,2.4c0,1.4-1.1,2.4-2.4,2.4l0,0h-50.8&#10;&#9;&#9;&#9;&#9;c-1.4,0-2.4-1.1-2.4-2.4c0-1.4,1.1-2.4,2.4-2.4l0,0H159.4z"/>
		</g>
	</g>
</g>
<g id="el_zl9mo9JdEqv_an_85zk_3eNT" data-animator-group="true" data-animator-type="0"><g id="el_zl9mo9JdEqv">
	<g id="el_8BHVdSVvAKA">
		<g id="el_607m3k9d0D9">
			<g id="el_8mNBhWkOKb_">
				<path d="M293.9,287.7v133.5c0,1.1-0.2,2.2-0.5,3.2h-70.2c-0.4-1-0.6-2.1-0.5-3.2V287.7c0-1,0.2-2,0.5-2.9h70.4&#10;&#9;&#9;&#9;&#9;&#9;C293.7,285.7,293.9,286.7,293.9,287.7z" id="el_002QHzXFhTP"/>
				<path d="M293.4,284.8H223c1.3-4.2,5.2-7.1,9.6-7.1h51.2C288.2,277.6,292.1,280.5,293.4,284.8z" id="el_IqCHIiFlNZA"/>
				<path d="M223.1,424.3h70.2c-1.3,4.1-5.2,6.9-9.5,6.9h-51.2C228.3,431.3,224.4,428.5,223.1,424.3z" id="el_mFaxYy2hnuD"/>
			</g>
			<g id="el_vbnWzrbW3ji">
				<path d="M293.3,424.3c-1.3,4.1-5.2,6.9-9.5,6.9h-51.2c-4.3,0-8.2-2.8-9.5-6.9c-0.4-1-0.6-2.1-0.5-3.2V287.7&#10;&#9;&#9;&#9;&#9;&#9;c0-1,0.2-2,0.5-2.9c1.3-4.2,5.2-7.1,9.6-7.1h51.2c4.4,0,8.3,2.9,9.6,7.1c0.3,0.9,0.5,1.9,0.5,2.9v133.5&#10;&#9;&#9;&#9;&#9;&#9;C293.9,422.3,293.7,423.3,293.3,424.3z" id="el_jJq5CXxRagY"/>
				<polyline points="222.9,284.8 223,284.8 293.4,284.8 &#9;&#9;&#9;&#9;" id="el_gVX7y_Vq8XA"/>
				<polyline points="223,424.3 223.1,424.3 293.3,424.3 &#9;&#9;&#9;&#9;" id="el_NP_pOoJcaeR"/>
			</g>
		</g>
		<circle id="el_wcO6vPi4Y0d" cx="240" cy="297.2" r="4.9"/>
	</g>
	<path id="el_B-tVLIkmsvh" d="M303.3,358.9c0,0-1.6-8.1-9.7-6.1l4.2-1.4c4.5-1.7,7-6.6,5.6-11.2c0,0-1.7-8.7-10.5-5.9L231,354.2&#10;&#9;&#9;l-4.4-15c-1.2-4.7-5.9-7.5-10.6-6.3c-0.1,0-0.3,0.1-0.4,0.1l-0.8,0.3c-4.7,1.7-7.3,6.9-5.8,11.7l8.5,29.3v252.3h58.3V407.8l15.8-5&#10;&#9;&#9;c4.4-1.5,6.9-6.1,5.7-10.6c-0.4-1.6-1.2-3.1-2.4-4.3l1.1-0.3c4.4-1.5,6.9-6.1,5.7-10.6c0,0-1.1-5.8-6.7-5.9l2.7-0.9&#10;&#9;&#9;C302.3,368.4,304.7,363.5,303.3,358.9z"/>
</g></g>
<g id="el_gOgcevkAcDx_an_QwD5NN3yj" data-animator-group="true" data-animator-type="0"><g id="el_gOgcevkAcDx">
	<g id="el_9Ty-3DOJ_Mx">
		<g id="el_YZJQUqBWQQ6">
			<circle cx="42.5" cy="400.3" r="13.6" id="el_oACmisUCrDy"/>
		</g>
		<g id="el_WrXZ-G8mK5P">
		</g>
	</g>
	<g id="el__R0WpF3v9ee">
		<g id="el_JX9EAeg6CIr">
			<path d="M385.2,622.5L324,682.7L166.6,536.4c-20.4,4.7-75.5-8.5-81.3-26.3l18.4-26l0.1-0.1&#10;&#9;&#9;&#9;&#9;c23.7-26.6,66.2-50.6,66.2-50.6l3.3-8.7h20.4c1.1,1,2,2.5,2.3,4.1l4.9,31.8c0.9,6,4,11.4,8.7,15L385.2,622.5z" id="el_-o2Z4KXMRQl"/>
			<path d="M170,433.4c0,0-42.4,24-66.2,50.6l39.8-56.4C158,427.3,170,433.4,170,433.4z" id="el_NKPEoKAGiV7"/>
		</g>
		<g id="el_kdmrH6E9iKV">
		</g>
	</g>
	<g id="el_g5RMvwj5DWR">
		<g id="el_L0u-4AzYbf4">
			<g id="el_5rnEbr-SLeU">
				<path d="M149.5,305.2v206.3c0,0.2,0,0.3,0,0.6h-0.1l-0.6-0.1H44.7L44,512h-0.1c0-0.2,0-0.3,0-0.6V305.2l0.7-0.1&#10;&#9;&#9;&#9;&#9;&#9;h104.4L149.5,305.2z" id="el_CZgYA8lmTGd"/>
				<path d="M149.5,305.2l-0.6-0.1H44.5l-0.7,0.1c0-6,4.8-10.7,10.7-10.7h84.3C144.8,294.5,149.5,299.2,149.5,305.2z" id="el_Mw29mdeATwn"/>
				<path d="M148.8,511.9l0.6,0.1c-0.2,5.6-4.8,10.1-10.6,10.1H54.5c-5.6,0-10.3-4.5-10.6-10.1l0.7-0.1H148.8z" id="el_zVhPwY5DRsB"/>
			</g>
			<g id="el_UDHmW3qrSAS">
				<path d="M149.4,512c-0.2,5.6-4.8,10.1-10.6,10.1H54.5c-5.6,0-10.3-4.5-10.6-10.1h-0.1c0-0.2,0-0.3,0-0.6V305.2&#10;&#9;&#9;&#9;&#9;&#9;c0-6,4.8-10.7,10.7-10.7h84.3c6,0,10.7,4.7,10.7,10.7v206.3c0,0.2,0,0.3,0,0.6H149.4z" id="el_gAkx4IDBX_F"/>
				<line x1="44.5" y1="305.1" x2="148.9" y2="305.1" id="el_sq11MTWemnm"/>
				<line x1="44.7" y1="511.9" x2="148.8" y2="511.9" id="el_-0wXLxDwJMV"/>
			</g>
		</g>
		<g id="el_FGbk5gx0a4a">
			<rect id="el_CbPH0OTKxkB" x="63.5" y="373.4" width="69.8" height="69.8"/>
			<g id="el_HijeEiGuLbZ">
				<polygon points="63.5,373.4 63.5,396.6 75.1,396.6 75.1,408.3 86.7,408.3 86.7,385 98.4,385 98.4,373.4 &#9;&#9;&#9;&#9;" id="el_W3Kh5rN7WDN"/>
				<rect x="98.4" y="385" width="11.6" height="11.6" id="el_4kufWhnTzRQ"/>
				<rect x="110" y="373.4" width="11.6" height="11.6" id="el_f84365o1awW"/>
				<rect x="121.7" y="385" width="11.6" height="23.3" id="el_G49oPXN3wOu"/>
				<polygon points="110,408.3 98.4,408.3 98.4,419.9 110,419.9 110,431.6 121.7,431.6 121.7,443.2 133.3,443.2 &#10;&#9;&#9;&#9;&#9;&#9;133.3,419.9 110,419.9 &#9;&#9;&#9;&#9;" id="el_wQnkASyrW57"/>
				<rect x="86.7" y="419.9" width="11.6" height="11.6" id="el__APdwFIqUne"/>
				<polygon points="75.1,419.9 63.5,419.9 63.5,443.2 86.7,443.2 86.7,431.6 75.1,431.6 &#9;&#9;&#9;&#9;" id="el_ObWcUU7mzps"/>
			</g>
		</g>
	</g>
	<g id="el_UsbbtcA5VvC">
		<g id="el_X-E-SExDH-Y">
			<path d="M43,455.2c7.3,0,13.1,5.9,13.1,13.2c0,3.6-1.5,6.9-3.8,9.3c-2.4,2.4-5.7,3.9-9.3,3.9h-6.2&#10;&#9;&#9;&#9;&#9;c-7.3,0-13.1-5.9-13.1-13.2c0-3.6,1.5-6.9,3.8-9.3c2.4-2.4,5.7-3.9,9.3-3.9H43z" id="el_ZGFp8nItDWt"/>
			<path d="M43,484.1c7.3,0,13.1,5.9,13.1,13.2c0,3.6-1.5,6.9-3.8,9.3c-2.4,2.4-5.7,3.8-9.3,3.8h-6.2&#10;&#9;&#9;&#9;&#9;c-7.3,0-13.1-5.9-13.1-13.1c0-3.6,1.5-6.9,3.8-9.3c2.4-2.4,5.7-3.8,9.3-3.8H43z" id="el_qUp166pCG2K"/>
			<path d="M37.5,424.9c7.7,0,13.9,6.2,13.9,13.9c0,7.7-6.2,13.9-13.9,13.9c-7.7,0-13.9-6.2-13.9-13.9&#10;&#9;&#9;&#9;&#9;C23.6,431.1,29.8,424.9,37.5,424.9z" id="el_Y9f3GanF9iN"/>
		</g>
		<g id="el_8JiAHWe8BNv">
		</g>
	</g>
	<g id="el_5eb5AUx7ReV">
		<g id="el_wUrTv05yUSE">
			<path d="M156,375.3l37.8,49.3l-23.7,8.7l-29.3-42.8c-3.4-3.5-6-11.6-2.6-15l2.8-2.8&#10;&#9;&#9;&#9;&#9;C144.4,369.3,152.5,371.9,156,375.3z" id="el_J_FwqRMLJ5e"/>
		</g>
		<g id="el_mfetu148ctc">
		</g>
	</g>
</g></g>
</svg>