<svg version="1.1" id="el_O0MyMnTYq" xmlns="http://www.w3.org/2000/svg" xmlns:xlink="http://www.w3.org/1999/xlink" x="0px" y="0px" viewBox="0 0 385 600" style="enable-background:new 0 0 385 626.6;" xml:space="preserve"><style>@-webkit-keyframes kf_el_bX4KKedGGLp_an_UVoXGxGWH{19.23%{-webkit-transform: translate(218.60671997070312px, 263.58349609375px) translate(-218.60671997070312px, -263.58349609375px) translate(50px, 340px);transform: translate(218.60671997070312px, 263.58349609375px) translate(-218.60671997070312px, -263.58349609375px) translate(50px, 340px);}46.15%{-webkit-transform: translate(218.60671997070312px, 263.58349609375px) translate(-218.60671997070312px, -263.58349609375px) translate(0px, -5px);transform: translate(218.60671997070312px, 263.58349609375px) translate(-218.60671997070312px, -263.58349609375px) translate(0px, -5px);}50%{-webkit-transform: translate(218.60671997070312px, 263.58349609375px) translate(-218.60671997070312px, -263.58349609375px) translate(0px, 0px);transform: translate(218.60671997070312px, 263.58349609375px) translate(-218.60671997070312px, -263.58349609375px) translate(0px, 0px);}73.08%{-webkit-transform: translate(218.60671997070312px, 263.58349609375px) translate(-218.60671997070312px, -263.58349609375px) translate(0px, 0px);transform: translate(218.60671997070312px, 263.58349609375px) translate(-218.60671997070312px, -263.58349609375px) translate(0px, 0px);}94.87%{-webkit-transform: translate(218.60671997070312px, 263.58349609375px) translate(-218.60671997070312px, -263.58349609375px) translate(-100px, 340px);transform: translate(218.60671997070312px, 263.58349609375px) translate(-218.60671997070312px, -263.58349609375px) translate(-100px, 340px);}0%{-webkit-transform: translate(218.60671997070312px, 263.58349609375px) translate(-218.60671997070312px, -263.58349609375px) translate(50px, 340px);transform: translate(218.60671997070312px, 263.58349609375px) translate(-218.60671997070312px, -263.58349609375px) translate(50px, 340px);}100%{-webkit-transform: translate(218.60671997070312px, 263.58349609375px) translate(-218.60671997070312px, -263.58349609375px) translate(-100px, 340px);transform: translate(218.60671997070312px, 263.58349609375px) translate(-218.60671997070312px, -263.58349609375px) translate(-100px, 340px);}}@keyframes kf_el_bX4KKedGGLp_an_UVoXGxGWH{19.23%{-webkit-transform: translate(218.60671997070312px, 263.58349609375px) translate(-218.60671997070312px, -263.58349609375px) translate(50px, 340px);transform: translate(218.60671997070312px, 263.58349609375px) translate(-218.60671997070312px, -263.58349609375px) translate(50px, 340px);}46.15%{-webkit-transform: translate(218.60671997070312px, 263.58349609375px) translate(-218.60671997070312px, -263.58349609375px) translate(0px, -5px);transform: translate(218.60671997070312px, 263.58349609375px) translate(-218.60671997070312px, -263.58349609375px) translate(0px, -5px);}50%{-webkit-transform: translate(218.60671997070312px, 263.58349609375px) translate(-218.60671997070312px, -263.58349609375px) translate(0px, 0px);transform: translate(218.60671997070312px, 263.58349609375px) translate(-218.60671997070312px, -263.58349609375px) translate(0px, 0px);}73.08%{-webkit-transform: translate(218.60671997070312px, 263.58349609375px) translate(-218.60671997070312px, -263.58349609375px) translate(0px, 0px);transform: translate(218.60671997070312px, 263.58349609375px) translate(-218.60671997070312px, -263.58349609375px) translate(0px, 0px);}94.87%{-webkit-transform: translate(218.60671997070312px, 263.58349609375px) translate(-218.60671997070312px, -263.58349609375px) translate(-100px, 340px);transform: translate(218.60671997070312px, 263.58349609375px) translate(-218.60671997070312px, -263.58349609375px) translate(-100px, 340px);}0%{-webkit-transform: translate(218.60671997070312px, 263.58349609375px) translate(-218.60671997070312px, -263.58349609375px) translate(50px, 340px);transform: translate(218.60671997070312px, 263.58349609375px) translate(-218.60671997070312px, -263.58349609375px) translate(50px, 340px);}100%{-webkit-transform: translate(218.60671997070312px, 263.58349609375px) translate(-218.60671997070312px, -263.58349609375px) translate(-100px, 340px);transform: translate(218.60671997070312px, 263.58349609375px) translate(-218.60671997070312px, -263.58349609375px) translate(-100px, 340px);}}#el_O0MyMnTYq *{-webkit-animation-duration: 2.6s;animation-duration: 2.6s;-webkit-animation-iteration-count: infinite;animation-iteration-count: infinite;-webkit-animation-timing-function: cubic-bezier(0, 0, 1, 1);animation-timing-function: cubic-bezier(0, 0, 1, 1);}#el__h8Y9D5XAn{fill: #1A1A1A;}#el_9PbA6wVEBh{fill: #1A1A1A;}#el_ArVbdo1_qv{fill: #1A1A1A;}#el_IPPNEi7NuX{fill: #1A1A1A;}#el_V9Ulr-wV89{fill: #E6E6E6;}#el_7fTsPnyFrs{fill: #FE7F78;}#el_hElFUJtEWm{fill: #37E8D7;visibility: hidden;}#el_so2ms1l3Ln{fill: #333333;}#el_xlShzKClY9{fill: #E6E6E6;}#el_hkvame0GTTF{fill: #231F20;}#el_18J5R3Ylttk{fill: #FFFFFF;}#el_iYhF7RK-0uA{fill: #FFFFFF;}#el_Kc1Wecx-PXX{fill: #403C51;}#el_Gc9p6UqYaTT{fill: #403C51;}#el_U46_w1MdBL_{fill: #FFFFFF;}#el_3GUoMpnDhQU{fill: #FFFFFF;}#el_rzUbXOMH17i{fill: #414042;}#el_tVlmd40feMU{fill: #FFFFFF;}#el_jr3DjZN7CHd{fill: #FFFFFF;}#el_CaTe48SbJvo{fill: #0E4160;}#el_Kai_kJP26MO{fill: #0E4160;}#el_W5F-oMMJe4W{fill: #FFFFFF;}#el_Zrpu-7vxmNB{fill: #FFFFFF;}#el_4fu22gBE1y4{fill: #414042;}#el_Oztc93uqoX-{fill: #1A1A1A;}#el_cwHpgb0XeHT{fill: #666666;}#el_DFOqOY6CvKB{fill: #808080;}#el_4EGu1UFeoqp{fill: #666666;}#el__egfOgrzI5I{fill: #999999;}#el_8tHbtWc2Rg2{fill: #1A1A1A;}#el_Xm37_DjnOBw{fill: #1A1A1A;}#el_SHPHEkVPyi9{fill: #666666;}#el_hUuqY8u6E5b{fill: #999999;}#el_i5g1Lp6rHsh{fill: #1A1A1A;}#el_BrbWznahfQS{fill: #333333;}#el_mrkNnSnnE7D{fill: #333333;}#el_uxCxBneycER{fill: #CCCCCC;}#el_kBvaG49gC3X{fill: #CCCCCC;}#el_Cv-rUsvYVEi{display: none;fill: #B3B3B3;}#el_kNKb-rFEl_2{fill: #B3B3B3;}#el_lHY3DAdCdjV{fill: #B3B3B3;}#el_iDPOa0AjOCF{fill: #B3B3B3;}#el_sxzjGm9Nv7i{fill: #B3B3B3;}#el_Foy9wV3z2xD{fill: #CB6560;}#el_QlrNj_S4S2j{fill: #2CB9AC;visibility: hidden;}#el_1gZO7D1S9mk{fill: #FE7F78;}#el_0DyI3UhvAVZ{fill: #37E8D7;visibility: hidden;}#el_4NL1LyB0nhL{fill: #CB6560;}#el_UexDrjCEnRG{fill: #2CB9AC;visibility: hidden;}#el_hVR1eOmydWq{fill: #D9F1FE;}#el_52r9MgK_-EE{-webkit-clip-path: url(#SVGID_4_);clip-path: url(#SVGID_4_);}#el_oLjzNkpVMHm{fill: #D4E2E9;}#el_syl950bT50-{fill: #0E3E5A;}#el_R54DkAE5iNH{fill: #359798;}#el_RX40B-u8GWq{fill: #DDE7EC;}#el_HpwYuryWbBI{fill: #308788;}#el_dvrA7_PCj_7{fill: #E2EBF0;}#el_ddI2Q66cqhv{fill: #E2EBF0;}#el_oxFIFp60E9v{fill: #0C3147;}#el_peapcxy62xy{fill: #E2EBF0;}#el_-l80il3zhmk{fill: #E2F4FD;}#el_gNZ01TFWpBX{fill: #E2EBF0;}#el_F3zVv0KAUVG{fill: #E2EBF0;}#el_WEpl4yJ887m{fill: #0E3A54;}#el_jk-xce36wlt{fill: #50BEBF;}#el_WA3CPhrQXa9{fill: #43B0B1;}#el_1MGNNbfzVwU{fill: #43B0B1;}#el_OICfuiyLmKY{fill: #3EA6A7;}#el_5nAypSjSEb1{fill: #3EA6A7;}#el_QIPqWnntC95{fill: #50BEBF;}#el_FIYSXqimrvT{fill: #308788;}#el_zVB5KZZc30g{fill: #0C3147;}#el_how8FF1GV04{fill: #0C3147;}#el_P4vP9Oac_R0{fill: #0E3A54;}#el_A9RE_zo-g1I{fill: #2D7B7C;}#el_KTX4pFrTeIY{fill: #308788;}#el_p8UkWDbipIF{fill: #3EA6A7;}#el_XImY2D7UI6F{fill: #E2F4FD;}#el_gQT_MciMKmq{fill: #E2F4FD;}#el_RrEZCzDAxQY{fill: #308788;}#el_0HCiV43truT{fill: #308788;}#el_Zi9JRWmpQIu{fill: #308788;}#el_gZWuFhQUtUM{fill: #2D7B7C;}#el_CXNi9ZkApxo{fill: #308788;}#el_VuQgcf9F98g{fill: #E2F4FD;}#el_T4fgTk9ZvWx{fill: #0C3147;}#el_6l4FP52fHMh{fill: #2B7072;}#el_D8M4K3NZ5DN{fill: #E2F4FD;}#el_VDLTcvzfz9G{fill: #359798;}#el_X5jG3gQ__Bh{fill: #359798;}#el_ZwRjdmS7GxK{fill: #359798;}#el_FbeE4DccwmP{fill: #359798;}#el_yoMiVev9J8S{fill: #C1E8FD;}#el_bzXl-GM5HEY{fill: #43B0B1;}#el_WcPSd91a35t{fill: #2B7072;}#el_hAIq0aEMHe3{fill: #2D7B7C;}#el_BiPq4Fvo4YV{fill: #2D7B7C;}#el_2PPQOyaDi07{fill: #308788;}#el_nEfAX24YQrh{fill: #2B7072;}#el_h40Fy8d4vfn{fill: #D9F1FE;}#el_zbCgouflClW{fill: #0E3A54;}#el_Ic0XeL0cZyA{fill: #F3FBFE;}#el_D5rzsEzc3-t{fill: #F6FCFE;}#el_VaTgsguLhOr{fill: #E4ECF0;}#el_a1IRVggwWYD{fill: #E4ECF0;}#el_dKdEeiczmzO{fill: #E4ECF0;}#el_vRCoVIYe01L{opacity: 0.3;}#el_XNM_arX9CMy{fill: #0E4160;}#el_qUFcX1vySPg{fill: #0E4160;}#el_ifjWWQCAqwe{fill: #0E4160;}#el_QZUlVLwOxJZ{fill: #0E4160;}#el_pAnq4mEeaK8{fill: #0E4160;}#el_Na6xFSLzEEC{fill: #0E4160;}#el_1qpJV9-dBpS{fill: #0E4160;}#el_FA7eNcA9qTB{fill: #0E4160;}#el_FRcXPHGVzYL{fill: #0E4160;}#el_PvU2PnwpM9Y{fill: #0E4160;}#el_wdXJl461BCa{fill: #0E4160;}#el_eGYvMEb7TnT{fill: #0E4160;}#el_kGpZNZuQo9f{fill: #0E4160;}#el_GOAs-Wp_rru{fill: #0E4160;}#el_yEWQPyLIpRF{fill: #0E4160;}#el_MKCuFBuH8Sc{fill: #0E4160;}#el_I8wW2iGBfC9{fill: #0E4160;}#el_FpU652Eww_j{fill: #0E4160;}#el_bt5e9SPjHa_{fill: #0E4160;}#el_11-p9lVSJVx{fill: #0E4160;}#el_Ds9lkcJMz5Y{fill: #0E4160;}#el_QNVr5NqfrG9{fill: #0E4160;}#el_VmRY06Tw__u{fill: #0E4160;}#el_nWloXTAOtgm{fill: #0E4160;}#el_z9j4RujOZrZ{fill: #0E4160;}#el_lzGB5XWRoZk{fill: #0E4160;}#el_hRXhz6s19Jm{fill: #0E4160;}#el_-0750f3lNhM{fill: #0E4160;}#el_kY04zVDCUfd{fill: #0E4160;}#el_2lwWGofp-KT{fill: #0E4160;}#el_qMVghD-xG34{fill: #0E4160;}#el_BqiemHaKfjp{fill: #0E4160;}#el_1mC1Gtbnnck{fill: #0E4160;}#el_aZ5molBvVwh{fill: #0E4160;}#el_uWk_0n7z3pO{fill: #0E4160;}#el_c3gEIxt1itA{fill: #0E4160;}#el_NUotcgAH1Fx{fill: #0E4160;}#el_dI8BLd7XlCC{fill: #0E4160;}#el_jygrmIjQUyp{fill: #0E4160;}#el_u0nV4-nYbUI{fill: #0E4160;}#el_z6ilewd7i_9{fill: #0E4160;}#el_4NkeZJ4bNh7{fill: #0E4160;}#el_NCleE3Drq9W{fill: #0E4160;}#el_DA4J7KODLh-{fill: #0E4160;}#el_aUNcRpYiVoo{fill: #0E4160;}#el_QW6rXuXXQMP{fill: #0E4160;}#el_-4JcwcN0RlI{fill: #0E4160;}#el_-eOzqpbyXpm{fill: #0E4160;}#el_ktNbW_93z5d{fill: #0E4160;}#el_xE1mGNltb1Y{fill: #0E4160;}#el_OfwMttIRsJ_{fill: #0E4160;}#el_0kisyPEEike{fill: #0E4160;}#el_v9uShlrDnRQ{fill: none;stroke: #000000;stroke-width: 0.5073;stroke-miterlimit: 10;}#el_T4w3DaxNsN_{fill: none;stroke: #000000;stroke-width: 0.5073;stroke-miterlimit: 10;}#el_gJ2yFF2S6Di{fill: none;stroke: #000000;stroke-width: 0.5073;stroke-miterlimit: 10;}#el_HK_2rIJXz83{fill: none;stroke: #000000;stroke-width: 0.5073;stroke-miterlimit: 10;}#el_dCJsvlOurn-{fill: none;stroke: #000000;stroke-width: 0.5073;stroke-miterlimit: 10;}#el_XtFYVfFeKvS{fill: #FFFFFF;}#el_nOu5kmrL7wU{fill: #FFFFFF;}#el_U9YOTjx-6nH{fill: #FFFFFF;}#el_n7SD31EEHjA{fill: #FFFFFF;}#el_bK6CuActFDf{fill: #FFFFFF;}#el_wQEIyE4UHoi{fill: #FFFFFF;}#el_KPrZT0BHwjT{fill: #FFFFFF;}#el_cbxgHKh_qQZ{fill: #FFFFFF;}#el_XSHSe90_iLE{fill: #FFFFFF;}#el__X1c1J5XyhP{fill: #FFFFFF;}#el_nSGoY_B74LB{fill: #FFFFFF;}#el_Cw9MKLn7ufn{fill: #FFFFFF;}#el_n-YmfJkUhMc{fill: #FFFFFF;}#el_CfEmBIIUDQb{fill: #FFFFFF;}#el_qCzSKocSzuy{fill: #FFFFFF;}#el_VdMQKwVMew7{fill: #FFFFFF;}#el_7RJ3man6Oj9{fill: #FFFFFF;}#el_ksgdLAI8JUw{fill: #B3B3B3;}#el_bX4KKedGGLp_an_UVoXGxGWH{-webkit-animation-fill-mode: backwards;animation-fill-mode: backwards;-webkit-transform: translate(218.60671997070312px, 263.58349609375px) translate(-218.60671997070312px, -263.58349609375px) translate(50px, 340px);transform: translate(218.60671997070312px, 263.58349609375px) translate(-218.60671997070312px, -263.58349609375px) translate(50px, 340px);-webkit-animation-name: kf_el_bX4KKedGGLp_an_UVoXGxGWH;animation-name: kf_el_bX4KKedGGLp_an_UVoXGxGWH;-webkit-animation-timing-function: cubic-bezier(0.42, 0, 0.58, 1);animation-timing-function: cubic-bezier(0.42, 0, 0.58, 1);}#el_UuNIbMVlOu7{visibility: hidden;}</style>
  <style>svg {cursor : none;}</style>
<g id="el_86hIctVjrD">
	<path d="M383.2,351.1c0,0,4,23.1,0,37.7s-14.7,38.9-14.7,38.9H16.4c0,0-10.7-24.4-14.7-38.9s0-37.7,0-37.7l6.9-57&#10;&#9;&#9;l28.1-222c0,0,4-36.9,25.6-52.6c0,0,10.4-8.5,19.1-10.7c8.6-2.2,21.5-4.1,35.2-5.4c19.9-2.2,39.8-3.3,59.8-3.4h32.2&#10;&#9;&#9;c20,0.1,39.9,1.2,59.8,3.4c13.6,1.3,26.5,3.2,35.2,5.4c8.6,2.2,19,10.7,19,10.7c21.7,15.7,25.6,52.6,25.6,52.6l28.1,222&#10;&#9;&#9;L383.2,351.1z" id="el__h8Y9D5XAn"/>
	<path d="M367.7,429.4h0.3v1.3c0,0.6-0.1,1.3-0.3,1.9c-0.4,2-0.9,3.9-1.6,5.8L261.4,626.6H118.9L18.8,438.4&#10;&#9;&#9;c-0.7-1.9-1.2-3.9-1.6-5.8c-0.1-0.6-0.2-1.3-0.3-1.9v-1.3L367.7,429.4L367.7,429.4z" id="el_9PbA6wVEBh"/>
	<rect x="18.5" y="427.6" width="347.9" height="1.8" id="el_ArVbdo1_qv"/>
</g>
<g id="el_WR16wpY0AH">
	<path d="M383.2,351.1c0,0,4,23.1,0,37.7s-14.7,38.9-14.7,38.9H16.4c0,0-10.7-24.4-14.7-38.9s0-37.7,0-37.7l6.9-57&#10;&#9;&#9;l28.1-222c0,0,4-36.9,25.6-52.6c0,0,10.4-8.5,19-10.7s21.5-4.1,35.2-5.4c19.9-2.2,39.8-3.3,59.8-3.4h32.2c20,0.1,39.9,1.2,59.8,3.4&#10;&#9;&#9;c13.6,1.3,26.5,3.2,35.2,5.4s19,10.7,19,10.7c21.7,15.7,25.6,52.6,25.6,52.6l28.1,222L383.2,351.1z M342.5,374.7&#10;&#9;&#9;c8.4-9.9,13-17.4,11-33.2s-5-43.7-5-43.7L320.4,66.7c0,0-3.4-35.2-43.4-39s-55.6-5.5-86.8-5.5s-46.8,1.8-86.8,5.5S60,66.7,60,66.7&#10;&#9;&#9;L31.8,297.9c0,0-3.8,21.7,6.7,32.2s14.3,14.5,35.2,14.5H144c0,0,12.5,0,17.1,2c4,1.5,7.9,3.5,11.4,5.9c3.3,2.2,17.6,12.2,25.7,18&#10;&#9;&#9;c2.6,1.8,5.1,3.7,7.6,5.6c7.4,5.5,16.4,8.4,25.6,8.3h85.1C316.5,384.4,334.1,384.6,342.5,374.7L342.5,374.7z" id="el_IPPNEi7NuX"/>
	<path id="el_V9Ulr-wV89" d="M368,429.4v1.3c0,0.6-0.1,1.3-0.3,1.9c-0.4,2-0.9,3.9-1.6,5.8l-64.3,188.2H83.2L18.8,438.4&#10;&#9;&#9;c-0.7-1.9-1.2-3.9-1.6-5.8c-0.1-0.6-0.2-1.3-0.3-1.9v-1.3l44.5,106.2c0,0,15.1,32.7,41.8,35.3c0,0,9.4,0.3,17.6,0.3h142.9&#10;&#9;&#9;c8.2,0,17.6-0.3,17.6-0.3c26.7-2.6,41.8-35.3,41.8-35.3l44.5-106.2L368,429.4L368,429.4z"/>
	<rect id="el_5L19l2OglG" x="18.5" y="427.6" width="347.9" height="1.8"/>
	<g id="el_fKGz1IhEsK">
		<polygon id="el_7fTsPnyFrs" points="294.6,101.5 296.6,224.6 192.5,225.6 88.4,224.6 90.4,101.5 &#10;&#9;&#9;&#9;192.5,101.5 &#9;&#9;"/>
		
		<path id="el_so2ms1l3Ln" d="M296.4,365.4c1.4-1.4,2.1-3.2,2.1-5.2l-1.3-92.9c-0.1-3.8-3.2-6.9-7-6.9h-65.5&#10;&#9;&#9;&#9;c-3.9,0-7,3.1-7,7l0,0l0.3,92.9c0,4,3.2,7.2,7.2,7.2h66.2C293.3,367.5,295.1,366.7,296.4,365.4z M353.5,341.6&#10;&#9;&#9;&#9;c2,15.8-2.6,23.3-11,33.2s-25.9,9.7-25.9,9.7h-85.1c-9.2,0.1-18.2-2.9-25.6-8.3c-2.5-1.9-5-3.8-7.6-5.6&#10;&#9;&#9;&#9;c-8.1-5.7-22.5-15.8-25.7-18c-3.6-2.4-7.4-4.4-11.4-5.9c-4.6-2-17.1-2-17.1-2H73.7c-20.9,0-24.6-4-35.2-14.5S31.8,298,31.8,298&#10;&#9;&#9;&#9;L59.9,66.7c0,0,3.4-35.2,43.4-39s55.6-5.5,86.8-5.5s46.8,1.8,86.8,5.5s43.4,39,43.4,39l28.1,231.2&#10;&#9;&#9;&#9;C348.5,297.9,351.5,325.7,353.5,341.6L353.5,341.6z M296.6,224.6l-2.1-123.1H90.4l-2.1,123.1l104.1,1L296.6,224.6z M199.9,82.3&#10;&#9;&#9;&#9;c0-5.7-3.4-10.4-7.6-10.4s-7.6,4.7-7.6,10.4c0,5.7,3.4,10.4,7.6,10.4S199.9,88,199.9,82.3z"/>
		<g id="el_9cPJDHjsLY">
			<path d="M220.2,365.5c-1.4-1.3-2.2-3.2-2.2-5.2l-0.3-92.9c0-3.9,3.1-7,7-7l0,0h65.5c3.8,0,6.9,3.1,7,6.9l1.3,92.9&#10;&#9;&#9;&#9;&#9;c0.1,4-3.1,7.2-7.1,7.3h-0.1h-66.2C223.3,367.5,221.5,366.8,220.2,365.5z M260.6,321.6c0-1.3-1-2.3-2.3-2.3s-2.3,1-2.3,2.3&#10;&#9;&#9;&#9;&#9;s1,2.3,2.3,2.3S260.6,322.9,260.6,321.6z" id="el_xlShzKClY9"/>
			<g id="el_Gs4BaTQy74">
				<g id="el_6VAb9P03gxC">
					<g id="el_KrAbTKKSL1j">
						<defs>
							<path id="SVGID_1_" d="M210.2,252.4v123.1h96.7V252.4H210.2z M291.6,367.5h-66.8c-3.8,0-6.9-3.1-6.9-6.9l-0.2-93.3&#10;&#9;&#9;&#9;&#9;&#9;&#9;&#9;&#9;c0-3.8,3.1-6.9,6.9-6.9l0,0h65.8c3.8,0,6.8,3,6.9,6.8l1.2,93.3C298.5,364.3,295.5,367.4,291.6,367.5&#10;&#9;&#9;&#9;&#9;&#9;&#9;&#9;&#9;C291.7,367.5,291.6,367.5,291.6,367.5L291.6,367.5z"/>
						</defs>
						<clipPath id="SVGID_2_">
							<use xlink:href="#SVGID_1_" style="overflow:visible;"/>
						</clipPath>
					</g>
				</g>
			</g>
			<path id="el_hkvame0GTTF" d="M258.3,319.2c1.3,0,2.3,1,2.3,2.3s-1,2.3-2.3,2.3s-2.3-1-2.3-2.3l0,0&#10;&#9;&#9;&#9;&#9;C256,320.3,257,319.3,258.3,319.2z"/>
			<circle cx="258.3" cy="321.6" r="2.3" id="el_9YY9IAeXG_w"/>
		</g>
		<path id="el_tvjQ8plVwyQ" d="M192.4,71.9c4.2,0,7.6,4.7,7.6,10.4c0,5.7-3.4,10.4-7.6,10.4s-7.6-4.7-7.6-10.4&#10;&#9;&#9;&#9;C184.8,76.5,188.2,71.9,192.4,71.9z"/>
		<g id="el_pDOFN_qiqqK">
			<path d="M187,139.1h-73.9c-1.2,0-2.2-1-2.2-2.2s1-2.2,2.2-2.2H187c1.2,0,2.2,1,2.2,2.2S188.3,139.1,187,139.1z" id="el_18J5R3Ylttk"/>
			<path d="M164.8,150.2h-51.7c-1.2,0-2.2-1-2.2-2.2s1-2.2,2.2-2.2h51.7c1.2,0,2.2,1,2.2,2.2S166,150.2,164.8,150.2z" id="el_iYhF7RK-0uA"/>
			<path d="M164.8,166.5h-51.7c-0.6,0-1.1-0.5-1.1-1.1s0.5-1.1,1.1-1.1h51.7c0.6,0,1.1,0.5,1.1,1.1&#10;&#9;&#9;&#9;&#9;S165.4,166.5,164.8,166.5z" id="el_Kc1Wecx-PXX"/>
			<path d="M153.1,174.9h-40c-0.6,0-1.1-0.5-1.1-1.1s0.5-1.1,1.1-1.1h40c0.6,0,1.1,0.5,1.1,1.1S153.7,174.9,153.1,174.9&#10;&#9;&#9;&#9;&#9;z" id="el_Gc9p6UqYaTT"/>
			<path d="M153.1,189.8h-40c-0.6,0-1.1-0.5-1.1-1.1s0.5-1.1,1.1-1.1h40c0.6,0,1.1,0.5,1.1,1.1S153.7,189.8,153.1,189.8&#10;&#9;&#9;&#9;&#9;z" id="el_U46_w1MdBL_"/>
			<path d="M223.1,134.5h49.2c3.2,0,5.8,2.6,5.8,5.8V168c0,3.2-2.6,5.8-5.8,5.8h-49.2c-3.2,0-5.8-2.6-5.8-5.8v-27.7&#10;&#9;&#9;&#9;&#9;C217.3,137.1,219.9,134.5,223.1,134.5z" id="el_3GUoMpnDhQU"/>
			<rect x="217.3" y="142.1" width="60.7" height="8.2" id="el_rzUbXOMH17i"/>
		</g>
		
	</g>
	<g id="el_wv6DSWpSaEy">
		<path d="M367.7,429.4l-44.5,106.2c0,0-15.1,32.7-41.8,35.3c0,0-9.4,0.3-17.6,0.3H120.9c-8.2,0-17.6-0.3-17.6-0.3&#10;&#9;&#9;&#9;c-26.7-2.6-41.8-35.3-41.8-35.3L17,429.4H367.7z M289.6,547.6c0-1.4-1.1-2.4-2.4-2.4h-50.8c-1.4,0-2.4,1.1-2.4,2.5&#10;&#9;&#9;&#9;c0,1.3,1.1,2.4,2.4,2.4h50.8C288.5,550,289.6,548.9,289.6,547.6L289.6,547.6L289.6,547.6z M161.9,546.7c0-1.4-1.1-2.4-2.4-2.4l0,0&#10;&#9;&#9;&#9;h-50.8c-1.4,0-2.4,1.1-2.4,2.4c0,1.4,1.1,2.4,2.4,2.4l0,0h50.8C160.8,549.1,161.9,548,161.9,546.7L161.9,546.7z" id="el_Oztc93uqoX-"/>
		<g id="el_V674zPHCD2X">
			<g id="el_JcEOsqDHoy-">
				<path d="M90.5,517.6v1.8c0,2.5,2,4.4,4.4,4.4h78.2c2.5,0,4.4-2,4.4-4.4l0,0v-35.3c0-2.5-2-4.4-4.4-4.4l0,0H94.9&#10;&#9;&#9;&#9;&#9;&#9;c-2.5,0-4.4,2-4.4,4.4v24.8h-0.3v5.2c0.1,0.2,0.2,0.4,0.3,0.5V517.6z M179.9,482.4v39.8c0,2.7-2.2,4.8-4.8,4.8l0,0H93&#10;&#9;&#9;&#9;&#9;&#9;c-2.7,0-4.8-2.2-4.8-4.8l0,0v-39.8c0-2.7,2.2-4.8,4.8-4.8l0,0h82.1C177.7,477.6,179.9,479.7,179.9,482.4L179.9,482.4z" id="el_8HGqHpxfAyC"/>
				<path d="M177.6,517.1v2.3c0,2.5-2,4.4-4.4,4.4l0,0H94.9c-2.5,0-4.4-2-4.4-4.4v-1.8c1.1,1.8,3,2.9,5,2.9h25.6&#10;&#9;&#9;&#9;&#9;&#9;c0,0,2.2-0.3,5.4-3.5c1.6-1.5,3.7-2.4,6-2.5h1.9c2.4,0,4.7,0.9,6.5,2.5c3.1,3.1,5.4,3.5,5.4,3.5h25.6c3.7,0,5.4-3.5,5.4-3.5&#10;&#9;&#9;&#9;&#9;&#9;L177.6,517.1z" id="el_cwHpgb0XeHT"/>
				<path d="M177.6,514.1v3h-0.3c0,0-1.7,3.5-5.4,3.5h-25.6c0,0-2.2-0.3-5.4-3.5c-1.7-1.7-4.1-2.6-6.5-2.5h-1.9&#10;&#9;&#9;&#9;&#9;&#9;c-2.2,0.1-4.4,1-6,2.5c-3.1,3.1-5.4,3.5-5.4,3.5H95.5c-2.1-0.1-4-1.2-5-2.9v-3c1.1,1.8,3,2.9,5,2.9h25.6c0,0,2.2-0.3,5.4-3.5&#10;&#9;&#9;&#9;&#9;&#9;c1.7-1.6,3.8-2.5,6.1-2.5h2c2.3,0,4.6,0.9,6.3,2.5c3.1,3.1,5.4,3.5,5.4,3.5h25.6c3.7,0,5.4-3.5,5.4-3.5H177.6z" id="el_DFOqOY6CvKB"/>
				<path d="M177.6,484.1v30h-0.3v-5.2h-2.6v-22H94.2v22h-3.7v-24.8c0-2.5,2-4.4,4.4-4.4h78.2&#10;&#9;&#9;&#9;&#9;&#9;C175.6,479.7,177.6,481.7,177.6,484.1L177.6,484.1z" id="el_4EGu1UFeoqp"/>
				<path d="M177.2,508.9v5.2c0,0-1.7,3.5-5.4,3.5h-25.6c0,0-2.2-0.3-5.4-3.5c-1.7-1.6-3.9-2.5-6.3-2.5h-2&#10;&#9;&#9;&#9;&#9;&#9;c-2.3,0-4.5,0.9-6.1,2.5c-3.1,3.1-5.4,3.5-5.4,3.5H95.5c-2.1-0.1-4-1.2-5-2.9V509h3.7v-11.1h80.4V509L177.2,508.9L177.2,508.9z" id="el__egfOgrzI5I"/>
				<rect x="94.2" y="486.9" width="80.4" height="10.9" id="el_8tHbtWc2Rg2"/>
				<path d="M90.5,508.9v5.7c-0.1-0.2-0.2-0.4-0.3-0.5v-5.2L90.5,508.9z" id="el_Xm37_DjnOBw"/>
			</g>
			<g id="el_vORt0zc5-Q-">
				<path d="M298.5,525.1c0,2.4-2,4.3-4.4,4.3c0,0,0,0-0.1,0h-64.6c-2.4,0.1-4.4-1.8-4.4-4.2c0,0,0,0,0-0.1l0.5-43.4&#10;&#9;&#9;&#9;&#9;&#9;c0.1-2.4,2-4.2,4.4-4.2h63.6c2.4-0.1,4.3,1.8,4.4,4.2L298.5,525.1z M292,527c2.5,0.1,4.5-1.9,4.6-4.3l0,0l-0.5-40.6&#10;&#9;&#9;&#9;&#9;&#9;c0-1.4-1.2-2.4-2.5-2.4H230c-1.4,0-2.5,1-2.5,2.4l-0.5,40.6c0.1,2.5,2.1,4.4,4.6,4.4l0,0H292V527z" id="el_tVBS6FURQtE"/>
				<path d="M296.7,522.6c-0.1,2.5-2.1,4.4-4.6,4.4l0,0h-60.5c-2.5,0.1-4.5-1.9-4.6-4.3l0,0l0.5-40.6&#10;&#9;&#9;&#9;&#9;&#9;c0-1.4,1.2-2.4,2.5-2.4h63.7c1.4,0,2.5,1,2.5,2.4L296.7,522.6z M293.2,491v-8.3h-63.7v33h63.7V491z" id="el_SHPHEkVPyi9"/>
				<rect x="229.5" y="503.4" width="63.7" height="12.3" id="el_hUuqY8u6E5b"/>
				<rect x="229.5" y="491" width="63.7" height="12.4" id="el_i5g1Lp6rHsh"/>
				<rect x="229.5" y="486.9" width="63.7" height="4.1" id="el_BrbWznahfQS"/>
				<rect x="229.5" y="482.8" width="63.7" height="4.1" id="el_mrkNnSnnE7D"/>
			</g>
			<path id="el_uxCxBneycER" d="M287.2,545.1c1.4,0,2.5,1.1,2.5,2.4c0,1.4-1.1,2.5-2.4,2.5l0,0h-50.8&#10;&#9;&#9;&#9;&#9;c-1.4,0-2.5-1.1-2.5-2.4s1.1-2.5,2.4-2.5l0,0H287.2z"/>
			<path id="el_kBvaG49gC3X" d="M159.4,544.2c1.4,0,2.4,1.1,2.4,2.4c0,1.4-1.1,2.4-2.4,2.4l0,0h-50.8&#10;&#9;&#9;&#9;&#9;c-1.4,0-2.4-1.1-2.4-2.4c0-1.4,1.1-2.4,2.4-2.4l0,0H159.4z"/>
		</g>
	</g>
</g>
<g id="el_bX4KKedGGLp_an_UVoXGxGWH" data-animator-group="true" data-animator-type="0"><g id="el_bX4KKedGGLp">
	<polygon points="241.7,376.7 269.5,393.3 287.4,366.2 260.3,351.4 &#9;" id="el_Cv-rUsvYVEi"/>
	<path id="el_kNKb-rFEl_2" d="M235.1,350.5C235.2,350.5,235.2,350.5,235.1,350.5L235.1,350.5l37.3,8.3l-3.5,8.3&#10;&#9;&#9;l-34.8-0.2l0,0c0,0,0,0-0.1,0c-4.9,0-8.6-3.7-8.3-8.3S229.6,349.1,235.1,350.5z"/>
	<path id="el_lHY3DAdCdjV" d="M237.9,362.9C237.9,362.9,237.9,362.9,237.9,362.9L237.9,362.9l33-1.9l2.1,15.1l-33,1.8&#10;&#9;&#9;l0,0c0,0,0,0-0.1,0c-4.6,0.3-8.9-2.9-9.4-7.1S233.3,363.1,237.9,362.9z"/>
	<path id="el_iDPOa0AjOCF" d="M240.4,375.7C240.4,375.7,240.4,375.7,240.4,375.7L240.4,375.7l30,1.3l-0.1,13.6l-29.9-1.3&#10;&#9;&#9;v0c0,0,0,0-0.1,0c-4.2-0.2-7.6-3.4-7.6-7.2S236.1,375.5,240.4,375.7z"/>
	<path id="el_sxzjGm9Nv7i" d="M271.2,339.6c1.8-0.1,3.6,0.5,4.9,1.7l14.7,12.4c2.1,1.9,3.3,4.5,3.3,7.3l0.5,54.3&#10;&#9;&#9;c0,3.2-2.9,5.6-6.5,5.4l-13-0.6c-3.6-0.2-6.5-2.9-6.5-6l2.6-45.4l-11.4-9.6l-24.5-0.3c-10.5,0.2-16.4-4.5-14.7-10.6&#10;&#9;&#9;c1-3.6,3.1-6.2,11.1-6.1L271.2,339.6z"/>
	<g id="el_0armNj0F5R6">
		<path id="el_Foy9wV3z2xD" d="M269.5,266.2l36.3,69.8c1.1,2.1,0.3,4.7-1.8,5.8L261.2,364c-2.1,1.1-4.7,0.3-5.8-1.8&#10;&#9;&#9;&#9;l-36.3-69.8c-1.1-2.1-0.3-4.7,1.8-5.8l42.8-22.2C265.8,263.3,268.4,264.1,269.5,266.2z"/>
		
		<path id="el_1gZO7D1S9mk" d="M269.1,265.4l36.7,70.5c0.9,1.7,0.2,3.7-1.4,4.6l-43.5,22.6c-1.7,0.9-3.7,0.2-4.6-1.4&#10;&#9;&#9;&#9;l-36.7-70.5c-0.9-1.7-0.2-3.7,1.4-4.6l43.5-22.6C266.2,263.1,268.2,263.7,269.1,265.4z"/>
		
		<g id="el_uylCrxkKUCI">
			<path id="el_4NL1LyB0nhL" d="M279.4,302l-35.8,18.6c-1.3,0.7-2.9,0.2-3.6-1.1l-13.9-26.8c-0.7-1.3-0.2-2.9,1.1-3.6&#10;&#9;&#9;&#9;&#9;l35.8-18.6c1.3-0.7,2.9-0.2,3.6,1.1l13.9,26.8C281.2,299.7,280.7,301.3,279.4,302z"/>
			
			<polygon points="238.6,316.9 234.2,308.6 251.8,295.5 258.8,291.5 262.6,293.7 263.1,297.2 242,310.9 &#9;&#9;&#9;" id="el_hVR1eOmydWq"/>
			<g id="el_KB2xXReHmhm">
				<defs>
					<path id="SVGID_3_" d="M279.4,302l-35.8,18.6c-1.3,0.7-2.9,0.2-3.6-1.1l-13.9-26.8c-0.7-1.3-0.2-2.9,1.1-3.6l35.8-18.6&#10;&#9;&#9;&#9;&#9;&#9;&#9;c1.3-0.7,2.9-0.2,3.6,1.1l13.9,26.8C281.2,299.7,280.7,301.3,279.4,302z"/>
				</defs>
				<clipPath id="SVGID_4_">
					<use xlink:href="#SVGID_3_" style="overflow:visible;"/>
				</clipPath>
				<g id="el_52r9MgK_-EE">
					<g id="el_39JrRWW-kMg">
						<g id="el_ueEePZdjNs2">
							<path d="M233.9,308c0.4-0.2,0.8-0.5,1.2-0.7c0.3-0.2,0.6-0.4,0.9-0.6c0.3-0.2,0.6-0.4,1-0.6&#10;&#9;&#9;&#9;&#9;&#9;&#9;&#9;&#9;c0.3-0.2,0.6-0.4,0.9-0.6c0.3-0.2,0.7-0.4,1-0.6c0.2-0.1,0.4-0.2,0.6-0.4c0.3-0.2,0.7-0.4,1-0.6c0.3-0.2,0.6-0.4,0.9-0.6&#10;&#9;&#9;&#9;&#9;&#9;&#9;&#9;&#9;c0.5-0.3,0.9-0.6,1.4-0.9c0.3-0.2,0.6-0.4,0.9-0.6c0.5-0.3,1-0.6,1.4-0.9c0.3-0.2,0.6-0.4,0.9-0.6c0.4-0.2,0.7-0.5,1.1-0.7&#10;&#9;&#9;&#9;&#9;&#9;&#9;&#9;&#9;c0.3-0.2,0.6-0.4,0.9-0.6c0.3-0.2,0.6-0.4,1-0.6c0.3-0.2,0.6-0.4,0.9-0.6c0.5-0.3,1-0.6,1.4-0.9c0.3-0.2,0.6-0.4,0.9-0.6&#10;&#9;&#9;&#9;&#9;&#9;&#9;&#9;&#9;c0.3-0.2,0.7-0.5,1-0.7c0.3-0.2,0.6-0.4,0.9-0.6c0.3-0.2,0.7-0.4,1-0.7c0.2-0.1,0.4-0.2,0.5-0.3c0.3-0.2,0.7-0.5,1-0.7&#10;&#9;&#9;&#9;&#9;&#9;&#9;&#9;&#9;c0.1-0.1,0.3-0.2,0.4-0.3c0.1-0.1,0.2,0,0.3,0c0,0.1,0,0.1-0.1,0.1c-0.1,0-0.2,0.1-0.3,0.1c-0.1,0-0.2,0.1-0.3,0.1&#10;&#9;&#9;&#9;&#9;&#9;&#9;&#9;&#9;c-0.2,0.2-0.4,0.3-0.6,0.4c-0.2,0.1-0.4,0.3-0.6,0.4c-0.1,0.2-0.2,0.3-0.4,0.4c-0.1,0-0.2,0.1-0.2,0.3c0,0.2-0.1,0.3-0.3,0.4&#10;&#9;&#9;&#9;&#9;&#9;&#9;&#9;&#9;c-0.2,0.1-0.3,0.2-0.5,0.3c-0.2,0.1-0.3,0.2-0.4,0.3c-0.1,0.1-0.3,0.1-0.4,0.3l-0.1,0c-0.1,0.1-0.3,0.1-0.4,0.2&#10;&#9;&#9;&#9;&#9;&#9;&#9;&#9;&#9;c-0.3,0.3-0.7,0.5-1.1,0.7c-0.2,0.1-0.5,0.3-0.7,0.4c-0.4,0.3-0.9,0.5-1.3,0.8c-0.4,0.3-0.8,0.6-1.2,0.8&#10;&#9;&#9;&#9;&#9;&#9;&#9;&#9;&#9;c-0.2,0.1-0.3,0.2-0.4,0.3l-0.3,0.1c-0.2,0.1-0.3,0.2-0.5,0.3c-0.4,0.2-0.8,0.5-1.2,0.7c-0.1,0-0.2,0.2-0.3,0.2&#10;&#9;&#9;&#9;&#9;&#9;&#9;&#9;&#9;c-0.3,0.2-0.6,0.4-0.9,0.6c-0.5,0.3-0.9,0.6-1.3,0.9c-0.5,0.3-0.9,0.6-1.4,0.9c-0.2,0.1-0.3,0.2-0.4,0.3l-0.2,0.1&#10;&#9;&#9;&#9;&#9;&#9;&#9;&#9;&#9;c-0.3,0.2-0.6,0.4-1,0.6c-0.1,0.1-0.2,0.1-0.3,0.2c-0.5,0.3-1,0.7-1.5,1c-0.6,0.4-1.3,0.8-1.9,1.2c-0.5,0.3-1,0.6-1.5,0.9&#10;&#9;&#9;&#9;&#9;&#9;&#9;&#9;&#9;c-0.2,0.1-0.4,0.2-0.6,0.3c-0.3,0.2-0.6,0.4-1,0.6L233.9,308z" id="el_oLjzNkpVMHm"/>
							<path d="M268.6,295.4C268.7,295.5,268.7,295.5,268.6,295.4c-0.1,0-0.2,0.1-0.4,0.1c-0.1,0-0.1,0,0,0.1&#10;&#9;&#9;&#9;&#9;&#9;&#9;&#9;&#9;c0.1,0.2,0.2,0.3,0.4,0.3c0,1,0,1.9,0,2.9c-0.4-0.1-0.7-0.2-1.1-0.3c-0.4-0.1-0.7-0.2-1.1-0.3c-0.2,0-0.2-0.1-0.2-0.3&#10;&#9;&#9;&#9;&#9;&#9;&#9;&#9;&#9;c0.1-0.8,0.1-1.6,0.2-2.4c0,0,0-0.1,0-0.1c0,0,0.1,0,0.1,0c0.2,0,0.4,0.1,0.6,0.1c0,0,0,0,0.1,0c0,0.1,0.1,0.2,0.2,0.1&#10;&#9;&#9;&#9;&#9;&#9;&#9;&#9;&#9;c0.1-0.1,0.2-0.1,0.1-0.3c0-0.1,0-0.1,0-0.2c0.1-0.1,0.2-0.2,0-0.4c0.1,0,0.1,0.1,0.2,0.1c0,0,0.1,0,0.1,0c0-0.1,0-0.1,0-0.1&#10;&#9;&#9;&#9;&#9;&#9;&#9;&#9;&#9;c-0.1,0-0.1-0.1,0-0.1c0,0,0.1-0.1,0-0.1c-0.2-0.1-0.1-0.2-0.1-0.3c0,0,0.1,0,0.1-0.1l0,0c0.3,0,0.3,0,0.4,0.2&#10;&#9;&#9;&#9;&#9;&#9;&#9;&#9;&#9;c0,0.1,0.1,0.3,0.2,0.4c0,0.1,0.1,0.2-0.1,0.3c0,0-0.1,0-0.1,0.1c0,0,0.1,0.1,0.1,0.1C268.5,295.2,268.6,295.3,268.6,295.4z" id="el_syl950bT50-"/>
							<path d="M265,303.8c-0.1-0.1-0.1,0-0.2,0.1c-0.1,0.2-0.2,0.4-0.4,0.5c-0.1,0-0.1,0-0.1-0.1&#10;&#9;&#9;&#9;&#9;&#9;&#9;&#9;&#9;c0-0.2-0.2-0.3-0.3-0.4l0.6-0.4c-0.3,0-0.6,0.1-0.9,0.1c0-0.1,0.1-0.2-0.1-0.1c0,0,0,0-0.1,0c-0.2-0.1-0.2-0.3,0-0.4&#10;&#9;&#9;&#9;&#9;&#9;&#9;&#9;&#9;c0,0,0.1,0,0.1-0.1c0-0.1-0.1,0-0.1,0c0,0.1-0.1,0.1-0.2,0.1c-0.2-0.1-0.2,0-0.3,0.1c-0.2,0.1-0.2,0.1-0.3-0.2&#10;&#9;&#9;&#9;&#9;&#9;&#9;&#9;&#9;c0.1,0.1,0.2,0.1,0.3,0c-0.1-0.1-0.3-0.4-0.5-0.2c-0.1-0.1-0.3-0.2-0.5-0.1c-0.1,0.1-0.2,0-0.2,0c0-0.1,0.1-0.2,0.1-0.4&#10;&#9;&#9;&#9;&#9;&#9;&#9;&#9;&#9;l0.1,0c0.1,0,0.1,0.1,0.1,0.1c0.2,0.2,0.2,0.2,0.4,0c0.1,0,0.1,0.1,0.2,0c0.1-0.1,0.1,0,0.2,0.1c0,0.1,0,0.1,0,0.2&#10;&#9;&#9;&#9;&#9;&#9;&#9;&#9;&#9;c0,0.1,0.1,0.1,0.2,0.1c0,0.1,0.1,0.1,0.2,0c0.1,0,0.1,0.2,0.2,0c0,0,0.1,0,0.1,0c0.2,0.1,0.3,0.1,0.4,0.3&#10;&#9;&#9;&#9;&#9;&#9;&#9;&#9;&#9;c0.1,0.1,0.2,0.1,0.3,0c0,0,0,0,0,0c0.1-0.1,0.2-0.2,0.3,0c0,0,0.1,0,0.1,0c0.1-0.1,0-0.3,0-0.4c0-0.1-0.1,0-0.2,0&#10;&#9;&#9;&#9;&#9;&#9;&#9;&#9;&#9;c-0.1-0.1,0.1-0.2,0-0.2c-0.2-0.1-0.1-0.3-0.2-0.4c0-0.1,0-0.1,0-0.1c-0.1-0.1-0.2,0-0.3,0.1c0-0.1,0-0.2,0.1-0.2&#10;&#9;&#9;&#9;&#9;&#9;&#9;&#9;&#9;c0.1-0.1,0-0.1,0-0.2c0,0,0,0,0,0c-0.1-0.1-0.1-0.2-0.2-0.4l0.3,0.1l0,0c0.1,0,0.1,0,0.2,0c0,0,0.1,0,0.1,0c0,0,0,0,0,0&#10;&#9;&#9;&#9;&#9;&#9;&#9;&#9;&#9;c0.1,0.1,0.3,0.1,0.4,0.1c0.6,0.1,1.2,0.3,1.8,0.4c0.1,0,0.2,0.1,0.3,0.1c-0.1,0.1-0.2,0.1-0.3,0.2c0,0-0.1,0.1-0.1,0.1&#10;&#9;&#9;&#9;&#9;&#9;&#9;&#9;&#9;c-0.1,0-0.2,0.1-0.2,0.2c0,0,0,0.1,0.1,0.1c0,0,0.1,0.1,0.1,0.1c0,0.2,0.1,0.1,0.2,0.1c0.1,0,0.2,0,0.3-0.1&#10;&#9;&#9;&#9;&#9;&#9;&#9;&#9;&#9;c0.1-0.1,0-0.1,0-0.2c0-0.1-0.1,0-0.1,0c-0.1,0.1-0.1,0-0.2,0c0,0-0.1,0-0.1,0c0,0,0,0,0,0c0,0,0,0,0.1,0&#10;&#9;&#9;&#9;&#9;&#9;&#9;&#9;&#9;c0.2,0,0.4-0.1,0.6-0.3c0,0,0.1-0.1,0.2-0.1l1.6,0.3l0.3,0.1l-0.4,0.1c-0.1,0-0.2,0-0.2,0c-0.7,0.2-1.3,0.3-2,0.5&#10;&#9;&#9;&#9;&#9;&#9;&#9;&#9;&#9;c-0.2,0-0.3,0.1-0.3,0.3l-0.1,0c0,0,0-0.1-0.1-0.1c-0.1,0,0-0.1,0-0.1c0.1,0,0.2,0,0.3-0.1c0,0,0.1,0,0.1-0.1&#10;&#9;&#9;&#9;&#9;&#9;&#9;&#9;&#9;c0-0.1-0.1-0.1-0.1-0.1c-0.1,0-0.2,0.1-0.3,0.2c-0.1,0-0.1,0.1,0,0.2c0,0,0,0,0,0c0,0,0.1,0.1,0.1,0.1&#10;&#9;&#9;&#9;&#9;&#9;&#9;&#9;&#9;c-0.1,0.1-0.1,0.1-0.2,0.2c0-0.1,0-0.2-0.1-0.3c-0.1-0.1-0.3-0.1-0.4-0.2c-0.1,0-0.2,0.2-0.3,0.3c-0.1,0.1-0.2,0.2-0.1,0.3&#10;&#9;&#9;&#9;&#9;&#9;&#9;&#9;&#9;C265.1,303.7,265,303.8,265,303.8z M267.4,302.6c0,0,0-0.1,0.1-0.1c0.1,0,0.1-0.1,0.1-0.2c-0.1-0.1-0.1,0-0.2,0.1&#10;&#9;&#9;&#9;&#9;&#9;&#9;&#9;&#9;c0,0-0.1,0.1-0.1,0.1C267.2,302.5,267.2,302.6,267.4,302.6C267.3,302.6,267.3,302.6,267.4,302.6&#10;&#9;&#9;&#9;&#9;&#9;&#9;&#9;&#9;C267.3,302.6,267.3,302.6,267.4,302.6L267.4,302.6z" id="el_R54DkAE5iNH"/>
							<path d="M264.3,301.2c0,0-0.1,0-0.1,0c0-0.1-0.1-0.1-0.2,0l0,0c0-0.1-0.1-0.1-0.2-0.1c-0.4-0.1-0.8-0.2-1.2-0.4&#10;&#9;&#9;&#9;&#9;&#9;&#9;&#9;&#9;c-0.1,0-0.1,0-0.2,0l-0.3-0.2c-0.1,0.2-0.1,0.5-0.3,0.7c-0.1,0-0.2,0-0.2-0.1c0,0,0,0,0,0c0-0.1,0-0.2-0.1-0.3&#10;&#9;&#9;&#9;&#9;&#9;&#9;&#9;&#9;c-0.1-0.1-0.2-0.2-0.1-0.3c0,0,0-0.1-0.1-0.1c0-0.2,0.1-0.3,0.3-0.4c0.1,0,0.1-0.1,0.1-0.2c0-0.2,0.1-0.3,0.3-0.4&#10;&#9;&#9;&#9;&#9;&#9;&#9;&#9;&#9;c0.1,0,0,0,0-0.1c-0.1-0.2,0-0.2,0.2-0.2l0.1,0.1c-0.1,0-0.1,0.1-0.1,0.1c0,0,0,0,0,0c0,0.1,0.1,0,0.2,0&#10;&#9;&#9;&#9;&#9;&#9;&#9;&#9;&#9;c0.2,0,0.1-0.1,0.1-0.2c0.1,0,0.1-0.1,0.1-0.2c0,0,0-0.1,0.1-0.1c0,0,0.1,0,0.1,0.1c0,0,0,0,0,0c0,0.1,0,0.1,0.1,0.2&#10;&#9;&#9;&#9;&#9;&#9;&#9;&#9;&#9;c0.1,0.2,0.3,0.4,0.3,0.7c0,0.1,0,0.1,0.1,0.2c0.1,0.4,0.5,0.5,0.8,0.7c0.1,0.1,0.2,0.1,0.3,0.2&#10;&#9;&#9;&#9;&#9;&#9;&#9;&#9;&#9;C264.3,301,264.3,301.1,264.3,301.2C264.3,301.2,264.3,301.2,264.3,301.2z M262.1,299.5c-0.1,0,0,0.1,0,0.1c0,0,0,0,0,0&#10;&#9;&#9;&#9;&#9;&#9;&#9;&#9;&#9;C262.1,299.6,262.1,299.6,262.1,299.5z" id="el_RX40B-u8GWq"/>
							<path d="M267.5,302c-0.1,0-0.1,0.1-0.2,0.1c-0.1,0.2-0.3,0.3-0.6,0.3c0,0-0.1,0-0.1,0c0,0,0,0.1,0.1,0.1&#10;&#9;&#9;&#9;&#9;&#9;&#9;&#9;&#9;c0,0,0,0,0,0c0.1,0,0.1,0.1,0.2,0c0,0,0.1-0.1,0.1,0c0,0.1,0.1,0.1,0,0.2c-0.1,0.1-0.2,0.1-0.3,0.1c-0.1,0-0.2,0-0.2-0.1&#10;&#9;&#9;&#9;&#9;&#9;&#9;&#9;&#9;c0,0-0.1-0.1-0.1-0.1c-0.1-0.1-0.1-0.2,0-0.3c0,0,0.1-0.1,0.1-0.1c0,0,0.1,0,0.1-0.1c0-0.1,0.2-0.2,0.3-0.2&#10;&#9;&#9;&#9;&#9;&#9;&#9;&#9;&#9;C267.1,301.9,267.3,301.9,267.5,302z" id="el_HpwYuryWbBI"/>
							<path d="M264.8,299.6c-0.1,0.1-0.2-0.1-0.3,0c0,0,0,0,0-0.1c0-0.1,0-0.3-0.1-0.4c0,0-0.1-0.1,0-0.1&#10;&#9;&#9;&#9;&#9;&#9;&#9;&#9;&#9;c0,0,0.1,0,0.1,0c0.1,0,0.2,0,0.2,0.2c0,0,0,0,0,0C264.8,299.3,264.7,299.5,264.8,299.6L264.8,299.6z" id="el_dvrA7_PCj_7"/>
							<path d="M264.3,298.8C264.3,298.8,264.3,298.8,264.3,298.8c-0.1,0-0.2,0.1-0.2,0.1c0-0.1,0-0.2,0.1-0.3&#10;&#9;&#9;&#9;&#9;&#9;&#9;&#9;&#9;c0,0,0.1,0,0.1,0c0,0,0-0.2,0.1-0.1c0.1,0,0.1,0.1,0.1,0.2C264.6,298.7,264.5,298.7,264.3,298.8&#10;&#9;&#9;&#9;&#9;&#9;&#9;&#9;&#9;C264.4,298.7,264.4,298.8,264.3,298.8z" id="el_ddI2Q66cqhv"/>
							<path d="M269.1,294.5c0-0.1-0.1-0.1-0.2,0c-0.1,0.1-0.2,0-0.1-0.1c0-0.1,0-0.1,0-0.2c0,0,0.1-0.1,0.1,0&#10;&#9;&#9;&#9;&#9;&#9;&#9;&#9;&#9;C269,294.3,269.1,294.3,269.1,294.5L269.1,294.5L269.1,294.5L269.1,294.5z" id="el_oxFIFp60E9v"/>
							<path d="M262.4,299.3c0,0.1,0.1,0.2-0.1,0.2c-0.1,0-0.1,0-0.2,0c0-0.1,0-0.1,0.1-0.2c0,0,0,0,0,0L262.4,299.3z" id="el_peapcxy62xy"/>
							<path d="M264.7,301.3c-0.1,0-0.3,0-0.4-0.1C264.4,301.1,264.6,301.1,264.7,301.3&#10;&#9;&#9;&#9;&#9;&#9;&#9;&#9;&#9;C264.7,301.3,264.7,301.3,264.7,301.3z" id="el_-l80il3zhmk"/>
							<path d="M264.8,299.6L264.8,299.6L264.8,299.6C264.8,299.6,264.8,299.6,264.8,299.6&#10;&#9;&#9;&#9;&#9;&#9;&#9;&#9;&#9;C264.8,299.7,264.8,299.6,264.8,299.6L264.8,299.6z" id="el_gNZ01TFWpBX"/>
							<path d="M264.8,299.6C264.8,299.5,264.8,299.5,264.8,299.6C264.9,299.5,264.9,299.5,264.8,299.6&#10;&#9;&#9;&#9;&#9;&#9;&#9;&#9;&#9;C264.9,299.5,264.9,299.5,264.8,299.6L264.8,299.6z" id="el_F3zVv0KAUVG"/>
							<path d="M269.2,294.4L269.2,294.4C269.2,294.4,269.2,294.4,269.2,294.4z" id="el_WEpl4yJ887m"/>
							<path d="M263.9,305.2c0,0.1-0.2,0.3-0.3,0.3c-0.6,0.2-1.2,0.4-1.9,0.6c-0.1,0-0.2,0-0.2-0.1&#10;&#9;&#9;&#9;&#9;&#9;&#9;&#9;&#9;c-0.1-0.1-0.1-0.3-0.1-0.4c0.1-0.1,0.2-0.2,0.1-0.4c0-0.2,0-0.4,0.1-0.5c0-0.1,0.1-0.1,0.1-0.1c0.1,0,0.1,0.1,0,0.1&#10;&#9;&#9;&#9;&#9;&#9;&#9;&#9;&#9;c0,0.1,0,0.2-0.1,0.2c0,0,0,0.1,0,0.1c0,0,0.1,0,0.1,0c0.1-0.1,0.1-0.3,0.2-0.4c0-0.1-0.1-0.1-0.2-0.2&#10;&#9;&#9;&#9;&#9;&#9;&#9;&#9;&#9;c-0.1-0.1-0.2-0.2-0.2-0.3c0.1-0.1,0.1-0.2,0.2-0.3c0.1,0,0,0.2,0.1,0.1c0.1,0,0-0.1,0-0.2c0-0.1,0.1-0.2,0.2-0.2&#10;&#9;&#9;&#9;&#9;&#9;&#9;&#9;&#9;c0.1,0,0.1,0,0.2,0.1c0.1,0,0.2,0.1,0.2-0.1c0-0.1,0.1-0.1,0.2,0c0,0,0.1,0,0.2,0.1c0,0.1,0.1,0.1,0.1,0.1c0,0,0,0,0,0&#10;&#9;&#9;&#9;&#9;&#9;&#9;&#9;&#9;c-0.1,0.1-0.1,0.1,0.1,0.2c0,0,0,0.1,0,0.1c0.1,0.2,0.1,0.2,0.2,0.1c0,0,0,0,0.1,0c0,0.1,0.2,0.1,0.1,0.2&#10;&#9;&#9;&#9;&#9;&#9;&#9;&#9;&#9;c-0.1,0-0.1,0.1-0.1,0.2c0,0,0,0.1,0.1,0.1c0.2,0.1,0.1,0.2,0.2,0.4C263.7,305.2,263.8,305.3,263.9,305.2z M263.4,305.5&#10;&#9;&#9;&#9;&#9;&#9;&#9;&#9;&#9;c0,0,0.1,0,0.1-0.1c0-0.3,0-0.5-0.2-0.8c-0.1-0.1-0.3-0.1-0.4,0c-0.1,0.1-0.1,0.2-0.1,0.3c0,0.1,0.1,0.2,0,0.4&#10;&#9;&#9;&#9;&#9;&#9;&#9;&#9;&#9;c0,0.2,0,0.3,0.2,0.3C263.1,305.6,263.3,305.6,263.4,305.5L263.4,305.5z" id="el_jk-xce36wlt"/>
							<path d="M263,303.8c0-0.1-0.1-0.1-0.2-0.1c-0.1-0.1-0.1-0.1-0.2,0c0,0.1-0.1,0.1-0.2,0.1&#10;&#9;&#9;&#9;&#9;&#9;&#9;&#9;&#9;c-0.1,0-0.1-0.1-0.2-0.1c-0.1,0-0.2,0-0.2,0.2c0,0.1,0.1,0.1,0,0.2c-0.1,0-0.1-0.1-0.1-0.1c-0.1,0.1-0.1,0.2-0.2,0.3&#10;&#9;&#9;&#9;&#9;&#9;&#9;&#9;&#9;c-0.1,0.1,0.1,0.2,0.2,0.3c0.1,0,0.2,0.1,0.2,0.2c0,0.2-0.1,0.3-0.2,0.4c0,0-0.1,0-0.1,0c0,0-0.1-0.1,0-0.1&#10;&#9;&#9;&#9;&#9;&#9;&#9;&#9;&#9;c0-0.1,0-0.2,0.1-0.2c0,0,0-0.1,0-0.1c-0.1,0-0.1,0-0.1,0.1c-0.1,0.2-0.1,0.3-0.1,0.5c0,0.1,0,0.3-0.1,0.4&#10;&#9;&#9;&#9;&#9;&#9;&#9;&#9;&#9;c-0.2-0.3-0.2-0.6-0.4-0.9c0-0.1,0-0.1,0-0.2c0-0.1,0-0.1,0-0.2c0.1-0.2,0-0.3,0.2-0.5c0,0,0.2-0.1,0.1-0.2&#10;&#9;&#9;&#9;&#9;&#9;&#9;&#9;&#9;c0-0.1-0.1-0.2-0.1-0.3c0,0-0.1,0-0.2,0c0-0.1,0-0.1,0-0.2c0,0,0,0,0,0c0.1,0.1,0.3,0.1,0.4,0.2c0.1,0.1,0.1,0.1,0.2,0&#10;&#9;&#9;&#9;&#9;&#9;&#9;&#9;&#9;c0.1-0.1,0.1-0.1,0.1-0.2c0,0,0-0.1-0.1-0.1c-0.1,0-0.1,0.1-0.2,0c0.1-0.1,0.1-0.3,0.1-0.5l0.1,0c0.1,0.1,0.1,0.1,0.2,0&#10;&#9;&#9;&#9;&#9;&#9;&#9;&#9;&#9;c0.2-0.1,0.3,0,0.5,0.1c0,0.1-0.1,0.3,0.1,0.4c0,0,0,0,0,0.1c0,0.2,0.1,0.3,0.2,0.4C262.9,303.7,263,303.7,263,303.8z" id="el_WA3CPhrQXa9"/>
							<path d="M263.9,305.2c-0.2,0.1-0.2,0-0.3-0.2c-0.1-0.1,0-0.3-0.2-0.4c-0.1,0-0.1-0.1,0-0.2c0,0,0,0,0.1-0.1&#10;&#9;&#9;&#9;&#9;&#9;&#9;&#9;&#9;c0.1-0.1,0-0.1-0.1-0.2c0.2-0.1,0.3-0.3,0.5-0.4c0.1,0.1,0.3,0.2,0.3,0.4c0,0.1,0.1,0.1,0.1,0.1&#10;&#9;&#9;&#9;&#9;&#9;&#9;&#9;&#9;C264.3,304.7,264.1,305,263.9,305.2z" id="el_1MGNNbfzVwU"/>
							<path d="M265,303.8c0.1,0,0.1-0.1,0.1-0.2c0-0.1,0.1-0.2,0.1-0.3c0.1-0.1,0.2-0.3,0.3-0.3&#10;&#9;&#9;&#9;&#9;&#9;&#9;&#9;&#9;c0.1,0.1,0.3,0.1,0.4,0.2c0.1,0.1,0.1,0.2,0.1,0.3c-0.2,0.2-0.4,0.4-0.7,0.6c-0.1,0.1-0.1,0.1-0.2,0&#10;&#9;&#9;&#9;&#9;&#9;&#9;&#9;&#9;C265.1,304,265,303.9,265,303.8z" id="el_OICfuiyLmKY"/>
							<path d="M266.4,303.4c0-0.2,0.2-0.3,0.3-0.3c0.7-0.1,1.3-0.3,2-0.5c0.1,0,0.2,0,0.2,0c-0.1,0.2-0.3,0.3-0.4,0.5&#10;&#9;&#9;&#9;&#9;&#9;&#9;&#9;&#9;c-0.1,0.1-0.4,0.2-0.6,0.1c-0.3-0.1-0.7-0.1-1.1,0.1C266.7,303.3,266.6,303.4,266.4,303.4z" id="el_5nAypSjSEb1"/>
							<path d="M261.1,303.4c0.1,0.1,0.2,0,0.2,0c0,0.1,0.1,0.2,0.1,0.3c0,0.1-0.1,0.2-0.1,0.2&#10;&#9;&#9;&#9;&#9;&#9;&#9;&#9;&#9;c-0.2,0.1-0.1,0.3-0.2,0.5c0,0.1,0,0.1,0,0.2c-0.1,0-0.1-0.1-0.1-0.1c0,0,0,0,0,0C261,304.1,261,303.7,261.1,303.4z" id="el_QIPqWnntC95"/>
							<path d="M266.2,303.4c0,0-0.1-0.1-0.1-0.1c-0.1,0-0.1-0.1-0.1-0.2c0,0,0,0,0,0c0.1-0.1,0.2-0.2,0.3-0.2&#10;&#9;&#9;&#9;&#9;&#9;&#9;&#9;&#9;c0.1,0,0.1,0,0.1,0.1c0,0.1-0.1,0.1-0.1,0.1c-0.1,0.1-0.1,0.2-0.3,0.1c0,0-0.1,0,0,0.1C266.3,303.3,266.2,303.3,266.2,303.4&#10;&#9;&#9;&#9;&#9;&#9;&#9;&#9;&#9;L266.2,303.4z" id="el_FIYSXqimrvT"/>
							<path d="M270.4,292.7c-0.1-0.2,0.1-0.2,0.2-0.2C270.5,292.6,270.5,292.6,270.4,292.7z" id="el_zVB5KZZc30g"/>
							<path d="M270.6,292.5C270.6,292.4,270.6,292.4,270.6,292.5L270.6,292.5z" id="el_how8FF1GV04"/>
							<path d="M267.7,294.4C267.6,294.4,267.6,294.3,267.7,294.4c-0.2-0.1-0.1-0.2-0.1-0.2c0.1-0.1,0.1,0,0.1,0.1&#10;&#9;&#9;&#9;&#9;&#9;&#9;&#9;&#9;C267.7,294.2,267.7,294.3,267.7,294.4C267.7,294.3,267.7,294.4,267.7,294.4z" id="el_P4vP9Oac_R0"/>
							<path d="M263.7,301.1c0,0.1,0.1,0.3,0.2,0.4c0.1,0,0.1,0.1,0,0.2c0,0,0,0,0,0c0,0.1-0.1,0.2-0.1,0.2&#10;&#9;&#9;&#9;&#9;&#9;&#9;&#9;&#9;c0.1-0.1,0.2-0.1,0.3-0.1c0,0,0.1,0.1,0,0.1c-0.1,0-0.2,0.1-0.2,0.2c0,0.1,0,0.1,0.1,0.1c0.1,0,0,0.1,0,0.1&#10;&#9;&#9;&#9;&#9;&#9;&#9;&#9;&#9;c-0.1,0-0.1,0-0.2,0c0-0.1-0.2-0.2-0.3-0.3c-0.2,0-0.2,0-0.2,0.2c0,0.1-0.1,0.2-0.2,0.1c0,0-0.1-0.1-0.1-0.1c0,0-0.1,0-0.1,0&#10;&#9;&#9;&#9;&#9;&#9;&#9;&#9;&#9;c0,0,0,0.1,0,0.1c0,0,0,0,0,0c0.1,0.1,0.1,0.2,0.1,0.3l-0.1,0.1c-0.1,0-0.1,0.1-0.2-0.1c0-0.1,0-0.1,0-0.2&#10;&#9;&#9;&#9;&#9;&#9;&#9;&#9;&#9;c0-0.1-0.1-0.1-0.2-0.1c-0.1,0.1-0.1,0-0.2,0c-0.1-0.1-0.2-0.2-0.3-0.2c0-0.1,0-0.2,0.1-0.2c0.1,0,0.2,0,0.2,0.1&#10;&#9;&#9;&#9;&#9;&#9;&#9;&#9;&#9;c0,0.1,0,0.1,0.1,0.1c0.1,0,0.1-0.1,0.1-0.1c0-0.1-0.1-0.2,0-0.2c0.1,0,0.1,0.1,0.2,0.1c0,0,0,0,0,0c0,0,0.1,0.1,0.1,0&#10;&#9;&#9;&#9;&#9;&#9;&#9;&#9;&#9;c0-0.1,0-0.1,0-0.1c0,0-0.1,0-0.1-0.1c0,0,0-0.1,0-0.1c0,0,0.1,0,0.1,0c0.1,0,0.2,0.1,0.2,0.2c0,0,0,0.1,0.1,0&#10;&#9;&#9;&#9;&#9;&#9;&#9;&#9;&#9;c0,0,0-0.1,0-0.1c0,0-0.1-0.1,0-0.1c0.2,0,0.1-0.1,0.1-0.2c0.1-0.1,0-0.1,0-0.2c0-0.1-0.1,0-0.2,0c0,0-0.1,0.1-0.1,0&#10;&#9;&#9;&#9;&#9;&#9;&#9;&#9;&#9;c0.1-0.2,0-0.2-0.2-0.3c-0.1,0-0.1-0.1-0.1-0.1L263.7,301.1z" id="el_A9RE_zo-g1I"/>
							<path d="M263.8,302.3c0,0,0.1,0.1,0.2,0c0,0,0.1,0,0-0.1c-0.1,0-0.1-0.1-0.1-0.1c0-0.1,0.1-0.2,0.2-0.2&#10;&#9;&#9;&#9;&#9;&#9;&#9;&#9;&#9;c0.1,0.1,0,0.3,0.2,0.4c0.1,0-0.1,0.1,0,0.2c0.1,0.1,0.2-0.1,0.2,0c0.1,0.1,0.1,0.2,0,0.4c0,0-0.1,0.1-0.1,0&#10;&#9;&#9;&#9;&#9;&#9;&#9;&#9;&#9;c-0.1-0.1-0.2,0-0.3,0c-0.1,0.1-0.2,0.1-0.3,0c0,0,0,0,0,0c-0.1-0.1-0.3-0.2-0.4-0.3c0,0-0.1,0-0.1,0c-0.1,0.2-0.1,0-0.2,0&#10;&#9;&#9;&#9;&#9;&#9;&#9;&#9;&#9;l0,0c0,0,0.1,0,0.1-0.1c0,0,0.1-0.1,0.1-0.1c0.2,0.1,0.1-0.1,0.1-0.1l0,0c0,0.1,0.1,0.1,0,0.2c0,0.1,0,0.1,0.1,0.1&#10;&#9;&#9;&#9;&#9;&#9;&#9;&#9;&#9;c0.1,0,0.1,0,0.1-0.1C263.8,302.5,263.7,302.4,263.8,302.3L263.8,302.3z" id="el_KTX4pFrTeIY"/>
							<path d="M263,303.8c0-0.1-0.1-0.1-0.1-0.2c-0.1-0.1-0.2-0.2-0.2-0.4c0,0,0-0.1,0-0.1c-0.2-0.1-0.1-0.3-0.1-0.4&#10;&#9;&#9;&#9;&#9;&#9;&#9;&#9;&#9;c0.2-0.2,0.4,0,0.5,0.2c-0.1,0.1-0.3,0.1-0.3,0c0.1,0.3,0.2,0.3,0.3,0.2c0.1-0.1,0.2-0.2,0.3-0.1c0,0,0.1,0,0.2-0.1&#10;&#9;&#9;&#9;&#9;&#9;&#9;&#9;&#9;c0,0,0.1-0.1,0.1,0c0,0.1,0,0.1-0.1,0.1c-0.2,0.1-0.2,0.3,0,0.4c0,0,0.1,0,0.1,0c0.2-0.1,0.1,0.1,0.1,0.1&#10;&#9;&#9;&#9;&#9;&#9;&#9;&#9;&#9;c-0.2,0-0.4,0.1-0.5,0.1c-0.2,0-0.2,0.1-0.1,0.2C263,303.9,263,303.9,263,303.8z" id="el_p8UkWDbipIF"/>
							<path d="M263.1,303.9c-0.1-0.1,0-0.2,0.1-0.2c0.2,0,0.4-0.1,0.5-0.1c0.3,0,0.6-0.1,0.9-0.1l-0.6,0.4&#10;&#9;&#9;&#9;&#9;&#9;&#9;&#9;&#9;c-0.2,0.1-0.4,0.2-0.5,0.4c0,0,0,0-0.1,0c-0.2,0.1-0.2,0.1-0.2-0.1c0,0,0-0.1,0-0.1L263.1,303.9&#10;&#9;&#9;&#9;&#9;&#9;&#9;&#9;&#9;C263.1,303.9,263.1,303.9,263.1,303.9z" id="el_XImY2D7UI6F"/>
							<path d="M263.7,301.1l-0.7-0.2c-0.1,0-0.1,0-0.2,0c-0.1,0-0.2-0.1-0.3-0.1l0,0l0,0c0,0,0-0.1,0-0.1&#10;&#9;&#9;&#9;&#9;&#9;&#9;&#9;&#9;c0.1,0,0.1,0,0.2,0c0.4,0.1,0.8,0.3,1.2,0.4c0.1,0,0.2,0.1,0.2,0.1L263.7,301.1z" id="el_gQT_MciMKmq"/>
							<path d="M261.8,302.6L261.8,302.6c-0.3,0-0.4,0.1-0.4,0.3c0,0.1,0,0.1-0.1,0.2c-0.1,0-0.1-0.1-0.1-0.1l0,0&#10;&#9;&#9;&#9;&#9;&#9;&#9;&#9;&#9;c0,0,0,0,0-0.1l0,0c0,0,0,0,0-0.1l0,0c0,0,0,0,0-0.1c0-0.1,0-0.1,0.1-0.2c0.1-0.1,0.3-0.1,0.3-0.2c0-0.1,0.1-0.2,0.2-0.2l0,0&#10;&#9;&#9;&#9;&#9;&#9;&#9;&#9;&#9;C261.9,302.4,261.8,302.5,261.8,302.6z" id="el_RrEZCzDAxQY"/>
							<path d="M262.1,302.1c0.1,0,0.2,0.1,0.3,0.2c-0.1,0.2-0.2,0.2-0.4,0c0,0,0-0.1-0.1-0.1c0,0,0-0.1,0-0.1&#10;&#9;&#9;&#9;&#9;&#9;&#9;&#9;&#9;c0,0,0,0,0,0C262,302.1,262.1,302.2,262.1,302.1z" id="el_0HCiV43truT"/>
							<path d="M267.4,302.6C267.3,302.6,267.3,302.6,267.4,302.6c-0.1,0-0.1-0.1-0.1-0.1c0,0,0,0,0,0&#10;&#9;&#9;&#9;&#9;&#9;&#9;&#9;&#9;c0,0,0.1-0.1,0.1-0.1c0,0,0.1-0.1,0.2-0.1c0.1,0.1,0,0.1-0.1,0.2C267.4,302.5,267.4,302.5,267.4,302.6z" id="el_Zi9JRWmpQIu"/>
							<path d="M262,302.1c0,0-0.1,0.1,0,0.1c0,0,0,0,0,0l-0.1,0l0,0c0-0.1-0.2,0-0.1-0.2&#10;&#9;&#9;&#9;&#9;&#9;&#9;&#9;&#9;C261.8,302,261.9,302,262,302.1z" id="el_gZWuFhQUtUM"/>
							<path d="M263,302.6l0.1-0.1c0.1,0,0.1,0.1,0.1,0.1l0,0C263.1,302.8,263,302.8,263,302.6z" id="el_CXNi9ZkApxo"/>
							<path d="M264,301.1c0.1-0.1,0.2-0.1,0.2,0C264.1,301.2,264,301.2,264,301.1z" id="el_VuQgcf9F98g"/>
							<path d="M268.4,294.5C268.4,294.6,268.4,294.6,268.4,294.5C268.4,294.6,268.4,294.5,268.4,294.5z" id="el_T4fgTk9ZvWx"/>
							<path d="M262,302.1c-0.1-0.1-0.1-0.1-0.2,0c-0.1,0.1,0.1,0.1,0.1,0.2c-0.1,0-0.2,0.1-0.2,0.2&#10;&#9;&#9;&#9;&#9;&#9;&#9;&#9;&#9;c0,0.1-0.2,0.1-0.3,0.2c0.1-0.4,0.3-0.9,0.4-1.3c0-0.1,0.1-0.1,0-0.2c0.1-0.2,0.2-0.4,0.3-0.7l0.3,0.2c0,0,0.1,0.1,0,0.1&#10;&#9;&#9;&#9;&#9;&#9;&#9;&#9;&#9;c-0.1,0-0.1-0.1-0.2,0c0,0.1,0,0.1,0.1,0.1c0.1,0.1,0.3,0.1,0.5,0c0,0,0,0,0,0c0.1,0,0.1,0,0.2,0c0,0,0,0.1,0.1,0.1&#10;&#9;&#9;&#9;&#9;&#9;&#9;&#9;&#9;c0.2,0,0.2,0.1,0.2,0.3c0,0.1,0.1,0.1,0.1,0c0.1,0,0.1-0.1,0.2,0c0,0.1,0.1,0.1,0,0.2c-0.1,0,0,0.2-0.1,0.2&#10;&#9;&#9;&#9;&#9;&#9;&#9;&#9;&#9;c-0.1,0,0,0.1,0,0.1c0,0,0,0.1,0,0.1c0,0-0.1,0-0.1,0c0-0.1-0.1-0.1-0.2-0.2c0,0-0.1-0.1-0.1,0c0,0,0,0.1,0,0.1&#10;&#9;&#9;&#9;&#9;&#9;&#9;&#9;&#9;c0,0,0.1,0.1,0.1,0.1c0.1,0,0.1,0.1,0,0.1c0,0.1-0.1,0-0.1,0c0,0,0,0,0,0c-0.1-0.1-0.1-0.2-0.2-0.1c-0.1,0,0,0.1,0,0.2&#10;&#9;&#9;&#9;&#9;&#9;&#9;&#9;&#9;c0,0.1-0.1,0.1-0.1,0.1c-0.1,0-0.1-0.1-0.1-0.1c0-0.1-0.1-0.1-0.2-0.1c-0.1,0-0.1,0.1-0.1,0.2&#10;&#9;&#9;&#9;&#9;&#9;&#9;&#9;&#9;C262.1,302.2,262,302.1,262,302.1z" id="el_6l4FP52fHMh"/>
							<path d="M262.1,299.5c0,0,0,0.1,0,0.1c0,0,0,0,0,0C262,299.6,262,299.6,262.1,299.5z" id="el_D8M4K3NZ5DN"/>
							<path d="M261.2,303c0,0,0,0.1,0.1,0.1c0.1,0,0.1-0.1,0.1-0.2c0-0.3,0-0.3,0.3-0.3c0,0.2,0,0.3-0.1,0.5&#10;&#9;&#9;&#9;&#9;&#9;&#9;&#9;&#9;c0.1,0.1,0.1,0,0.2,0c0,0,0.1,0,0.1,0.1c-0.1,0.1-0.1,0.2-0.1,0.2c-0.1,0.1-0.1,0.1-0.2,0c-0.1-0.1-0.2-0.2-0.4-0.2&#10;&#9;&#9;&#9;&#9;&#9;&#9;&#9;&#9;C261.2,303.1,261.2,303.1,261.2,303z" id="el_VDLTcvzfz9G"/>
							<path d="M261.3,302.8C261.3,302.9,261.3,302.9,261.3,302.8L261.3,302.8z" id="el_X5jG3gQ__Bh"/>
							<path d="M261.3,302.9C261.3,302.9,261.3,302.9,261.3,302.9C261.2,302.9,261.3,302.9,261.3,302.9z" id="el_ZwRjdmS7GxK"/>
							<path d="M261.3,303C261.3,303,261.3,303,261.3,303C261.2,303,261.2,303,261.3,303z" id="el_FbeE4DccwmP"/>
							<path d="M263.4,305.5c-0.1,0.1-0.2,0.1-0.3,0c-0.2,0-0.2-0.1-0.2-0.3c0-0.1,0-0.2,0-0.4c0-0.1-0.1-0.2,0.1-0.3&#10;&#9;&#9;&#9;&#9;&#9;&#9;&#9;&#9;c0.1-0.1,0.3-0.1,0.4,0c0.2,0.2,0.2,0.5,0.2,0.8C263.5,305.5,263.4,305.5,263.4,305.5z" id="el_yoMiVev9J8S"/>
							<path d="M263.1,303.9l0.1,0.2C263,304.1,263,304,263.1,303.9z" id="el_bzXl-GM5HEY"/>
							<path d="M263.2,302.7C263.2,302.6,263.1,302.6,263.2,302.7c-0.2-0.2-0.1-0.3-0.2-0.4c0,0,0-0.1,0-0.1&#10;&#9;&#9;&#9;&#9;&#9;&#9;&#9;&#9;c0,0,0,0,0,0c0,0,0.1,0,0.1,0c0,0,0.1,0.1,0.1,0.1c0.1,0,0.2,0,0.2-0.1c0-0.2,0-0.2,0.2-0.2c0.1,0,0.2,0.1,0.3,0.3l-0.1,0&#10;&#9;&#9;&#9;&#9;&#9;&#9;&#9;&#9;l-0.1,0.1l0,0c0,0-0.1-0.1-0.1-0.1c-0.1,0.1-0.2,0.1-0.1,0.3C263.3,302.6,263.2,302.6,263.2,302.7z" id="el_WcPSd91a35t"/>
							<path d="M263.3,302.6c-0.1-0.2,0.1-0.2,0.1-0.3c0,0,0.1,0.1,0.1,0.1c0,0.1,0,0.2-0.1,0.1&#10;&#9;&#9;&#9;&#9;&#9;&#9;&#9;&#9;C263.4,302.5,263.4,302.6,263.3,302.6z" id="el_hAIq0aEMHe3"/>
							<path d="M263.6,302.4l0.1-0.1c0,0.1,0,0.1,0.1,0.2c0,0.1,0,0.1-0.1,0.1c0,0-0.1,0-0.1-0.1&#10;&#9;&#9;&#9;&#9;&#9;&#9;&#9;&#9;C263.7,302.5,263.6,302.4,263.6,302.4z" id="el_BiPq4Fvo4YV"/>
							<path d="M262.7,300.8c-0.1,0.1-0.3,0.1-0.5,0c0,0,0,0,0,0c0,0-0.1-0.1-0.1-0.1c0-0.1,0.1,0,0.2,0l0,0&#10;&#9;&#9;&#9;&#9;&#9;&#9;&#9;&#9;c0,0,0,0.1,0,0C262.5,300.8,262.6,300.8,262.7,300.8z" id="el_2PPQOyaDi07"/>
							<path d="M262.4,300.8C262.4,300.8,262.4,300.8,262.4,300.8L262.4,300.8z" id="el_nEfAX24YQrh"/>
							<path d="M260.4,297.1c0,0.1,0,0.1-0.1,0.2l0,0c-0.1,0-0.1,0-0.2-0.1c-0.1-0.2-0.3-0.2-0.5-0.1l-0.1,0.1&#10;&#9;&#9;&#9;&#9;&#9;&#9;&#9;&#9;c-0.1,0.1-0.2,0.2-0.3,0.2c-0.1,0-0.1,0-0.2,0c0,0,0,0,0,0c0,0,0.2,0,0.2,0.1c0,0.1-0.1,0.1-0.2,0.1c0,0,0,0,0,0&#10;&#9;&#9;&#9;&#9;&#9;&#9;&#9;&#9;c0,0.1,0.2,0,0.1,0.1c0,0.1-0.1,0.1-0.2,0.1c-0.1,0-0.2-0.1-0.3-0.1c0,0,0,0.1-0.1,0.1c0,0.1,0.2,0,0.1,0.2&#10;&#9;&#9;&#9;&#9;&#9;&#9;&#9;&#9;c0,0.1-0.1,0.2-0.2,0.2c-0.1,0-0.2,0-0.2-0.1c0,0,0,0,0,0c0.1-0.1,0-0.2,0.1-0.3c0-0.1,0-0.1,0-0.2c0,0-0.1,0-0.1,0&#10;&#9;&#9;&#9;&#9;&#9;&#9;&#9;&#9;c0,0,0,0,0,0c0.1-0.1,0.2-0.2,0-0.3c-0.1,0-0.1-0.1-0.1-0.1c0,0,0,0,0,0c0.1-0.1,0.1-0.3,0.3-0.2c0.1,0,0.2-0.1,0.2-0.1&#10;&#9;&#9;&#9;&#9;&#9;&#9;&#9;&#9;c0.1,0,0.2,0,0.2,0.1c0,0,0,0.1,0,0.1c0,0,0.1,0,0.1-0.1c0,0,0.1-0.1,0-0.2c0,0-0.1-0.1-0.1-0.1c0,0-0.1-0.1,0-0.1&#10;&#9;&#9;&#9;&#9;&#9;&#9;&#9;&#9;c0.1-0.1,0.2-0.1,0-0.2c0,0,0-0.1,0.1-0.1c0.1,0,0.2,0,0.2-0.1c0.1,0,0.2,0,0.2-0.2c0,0,0-0.1,0.1-0.1&#10;&#9;&#9;&#9;&#9;&#9;&#9;&#9;&#9;c0.2-0.1,0.2-0.2,0.3-0.3c0.2-0.2,0.4-0.2,0.5-0.4c0,0,0.1,0,0.2,0c0.2,0.1,0.3,0.1,0.4-0.2c0,0,0,0,0,0&#10;&#9;&#9;&#9;&#9;&#9;&#9;&#9;&#9;c0.2-0.1,0.2-0.2,0.2-0.4c0-0.1,0-0.2-0.1-0.3c-0.1-0.1-0.1-0.2,0.1-0.3l-0.1-0.1c-0.1,0-0.1,0-0.2,0.1&#10;&#9;&#9;&#9;&#9;&#9;&#9;&#9;&#9;c-0.2,0.1-0.2,0.1-0.2-0.1c0-0.2-0.1-0.3-0.3-0.2c0,0,0.1,0.1,0.1,0.1c0,0,0.1,0,0.1,0.1c-0.1,0.1-0.2,0.2-0.3,0&#10;&#9;&#9;&#9;&#9;&#9;&#9;&#9;&#9;c0,0-0.1,0-0.1,0l0,0c0,0,0,0.1,0,0.1c0.1,0.1,0,0.2,0.1,0.3h0c-0.1,0.1-0.2,0.1-0.3,0.3c0,0.1-0.1,0-0.1-0.1&#10;&#9;&#9;&#9;&#9;&#9;&#9;&#9;&#9;c0-0.1-0.1-0.1-0.2,0c-0.1,0.1-0.2,0.1-0.3,0c-0.1,0-0.2,0-0.3,0.1c0,0-0.1,0.1-0.1,0.1c-0.1,0-0.1,0.1-0.2,0&#10;&#9;&#9;&#9;&#9;&#9;&#9;&#9;&#9;c0-0.1,0-0.1,0.1-0.1c0.1-0.2,0.1-0.4,0-0.6l-0.1,0.1c0.1,0.3,0.1,0.3-0.2,0.5c-0.3,0.2-0.7,0.4-1.1,0.5&#10;&#9;&#9;&#9;&#9;&#9;&#9;&#9;&#9;c-0.1,0-0.2,0.1-0.3,0c-0.1,0.1-0.3,0.1-0.3,0.3c0,0.1-0.2,0-0.3,0l0,0c0.1,0.1,0.2,0.1,0.3,0c0.1-0.2,0.2-0.2,0.3-0.3&#10;&#9;&#9;&#9;&#9;&#9;&#9;&#9;&#9;c0.1-0.2,0.4-0.3,0.5-0.4c0,0,0.1-0.1,0.1-0.1c0-0.2-0.1-0.3,0-0.5c0,0,0,0,0-0.1c0-0.1-0.1-0.1,0-0.2c0.1,0,0.2-0.2,0.3-0.1&#10;&#9;&#9;&#9;&#9;&#9;&#9;&#9;&#9;c0.1,0,0.1,0.1,0.2,0c0-0.1-0.1-0.1-0.1-0.2c0,0,0,0-0.1,0l0-0.1c-0.3,0-0.5,0-0.8,0.1c-0.1,0.1-0.2,0.1-0.3,0&#10;&#9;&#9;&#9;&#9;&#9;&#9;&#9;&#9;c-0.1,0-0.2,0.1-0.3,0.1c-0.2,0.2-0.4,0.3-0.6,0.4c-0.2,0.1-0.4,0.3-0.6,0.4c-0.1,0.2-0.2,0.3-0.4,0.4&#10;&#9;&#9;&#9;&#9;&#9;&#9;&#9;&#9;c-0.1,0-0.2,0.1-0.2,0.3c0,0.2-0.1,0.3-0.3,0.4c-0.2,0.1-0.3,0.2-0.5,0.3c-0.2,0.1-0.3,0.2-0.4,0.3c0.1,0.2,0.1,0.2-0.1,0.2&#10;&#9;&#9;&#9;&#9;&#9;&#9;&#9;&#9;c-0.1,0-0.1,0-0.1,0.1c0,0.1-0.1,0.1-0.2,0l-0.1,0c0,0,0,0,0,0c-0.1,0.1-0.3,0.1-0.4,0.2c-0.3,0.3-0.7,0.5-1.1,0.7&#10;&#9;&#9;&#9;&#9;&#9;&#9;&#9;&#9;c-0.2,0.1-0.5,0.3-0.7,0.4c-0.4,0.3-0.9,0.5-1.3,0.8c-0.4,0.3-0.8,0.6-1.2,0.8c-0.2,0.1-0.3,0.2-0.4,0.3&#10;&#9;&#9;&#9;&#9;&#9;&#9;&#9;&#9;c0.2,0.3,0.1,0.5-0.3,0.6c0.1-0.1,0.1-0.3,0-0.4c-0.2,0.1-0.3,0.2-0.5,0.3c-0.4,0.2-0.8,0.5-1.2,0.7c0,0.1,0.1,0.1,0.2,0.1&#10;&#9;&#9;&#9;&#9;&#9;&#9;&#9;&#9;c0.2-0.1,0.2-0.1,0.2,0.1c0,0,0,0.1,0.1,0.1c0.2,0.1,0.1,0.1,0,0.2c0.1,0.1,0.1,0.3,0,0.4c-0.1,0-0.1,0.2-0.2,0.1&#10;&#9;&#9;&#9;&#9;&#9;&#9;&#9;&#9;c-0.1-0.1-0.3-0.1-0.3-0.2l-0.1-0.2c-0.2,0.1-0.2,0.2,0,0.4c0.1,0.1,0.1,0.2,0.1,0.3c0,0.2-0.1,0.1-0.2,0.1c0,0,0,0,0,0&#10;&#9;&#9;&#9;&#9;&#9;&#9;&#9;&#9;c0.1,0.1,0.2,0.1,0.2-0.1c0-0.1,0-0.2-0.1-0.3c-0.2-0.2-0.1-0.2,0-0.4c-0.1-0.1,0.1-0.2,0-0.3c0-0.1-0.2,0-0.2-0.1&#10;&#9;&#9;&#9;&#9;&#9;&#9;&#9;&#9;c-0.3,0.2-0.6,0.4-0.9,0.6c-0.5,0.3-0.9,0.6-1.3,0.9c-0.5,0.3-0.9,0.6-1.4,0.9c-0.2,0.1-0.3,0.2-0.4,0.3c0,0.1,0.1,0.1,0.1,0&#10;&#9;&#9;&#9;&#9;&#9;&#9;&#9;&#9;c0.1,0,0.2-0.1,0.2-0.1c0.1-0.1,0.2-0.1,0.3,0c-0.1-0.1-0.1-0.1-0.3,0c-0.1,0-0.1,0.1-0.2,0.1c-0.1,0-0.1,0-0.1,0l-0.2,0.1&#10;&#9;&#9;&#9;&#9;&#9;&#9;&#9;&#9;c0.2,0.2,0.2,0.3,0,0.4c-0.2,0.1-0.3,0.2-0.5,0.3c-0.1,0-0.1,0.1-0.1,0.1c0,0,0,0.1,0,0.1c0,0,0-0.1,0-0.1&#10;&#9;&#9;&#9;&#9;&#9;&#9;&#9;&#9;c0-0.1,0.1-0.1,0.1-0.1c0.2-0.1,0.3-0.3,0.5-0.3c0.2-0.1,0.2-0.2,0-0.4c-0.3,0.2-0.6,0.4-1,0.6c0,0,0,0,0,0&#10;&#9;&#9;&#9;&#9;&#9;&#9;&#9;&#9;c-0.1,0.1-0.2,0.1-0.3,0.2c-0.5,0.3-1,0.7-1.5,1c-0.6,0.4-1.3,0.8-1.9,1.2c-0.5,0.3-1,0.6-1.5,0.9c-0.2,0.1-0.4,0.2-0.6,0.3&#10;&#9;&#9;&#9;&#9;&#9;&#9;&#9;&#9;c-0.3,0.2-0.6,0.4-1,0.6l0.4,0.8c0.1,0,0.1,0,0.1,0c0,0.1,0,0.1-0.1,0.1l0,0.1c0.1,0,0.2,0.1,0.2,0.1c0.1,0,0.2,0,0.1-0.1&#10;&#9;&#9;&#9;&#9;&#9;&#9;&#9;&#9;c0-0.1,0-0.1,0-0.2c0,0,0-0.1,0.1-0.1c0.1,0,0.1,0,0.1,0.1c0,0.1,0,0.2,0.1,0.1c0.1-0.1,0.2-0.2,0.3-0.3&#10;&#9;&#9;&#9;&#9;&#9;&#9;&#9;&#9;c0.2-0.1,0.3-0.2,0.5,0c0,0,0.1,0,0.1,0c0.1-0.1,0-0.1,0-0.2l0-0.1c-0.1,0-0.1-0.1-0.1-0.1c0,0.1,0,0.1,0.1,0.1c0,0,0,0,0,0&#10;&#9;&#9;&#9;&#9;&#9;&#9;&#9;&#9;c0.1-0.2,0.1-0.2,0.3-0.1c0.2-0.1,0.3-0.2,0.5-0.3c0,0,0,0,0,0c0.2-0.1,0.3-0.3,0.5-0.3c-0.1-0.1,0-0.2,0.2-0.3&#10;&#9;&#9;&#9;&#9;&#9;&#9;&#9;&#9;c0.2-0.1,0.3-0.2,0.4-0.4c0,0,0.1-0.1,0.1-0.1c0.2,0,0.4-0.2,0.5-0.3c0,0,0-0.1,0.1-0.1c0.2,0,0.3-0.1,0.5-0.2&#10;&#9;&#9;&#9;&#9;&#9;&#9;&#9;&#9;c0.1,0,0.1,0,0.2,0c0,0.1,0,0.1-0.1,0.1c-0.3,0.2-0.6,0.4-0.9,0.6c-0.1,0.1-0.2,0.1-0.2,0.2c0,0.1,0,0.2,0.1,0.2&#10;&#9;&#9;&#9;&#9;&#9;&#9;&#9;&#9;c0.1,0,0.1,0.1,0,0.1c0,0-0.1,0.1-0.1,0.1c0,0,0,0,0,0c0.1,0,0.2,0,0.2-0.1c0.1-0.1,0.2-0.1,0.3-0.2c0.1,0,0.1,0,0.1,0.1&#10;&#9;&#9;&#9;&#9;&#9;&#9;&#9;&#9;c0,0,0,0,0,0c0-0.1,0.1-0.1,0.1-0.1c-0.1,0-0.1,0.1-0.1,0.1c0,0,0,0,0,0c-0.1,0.1-0.1,0.3-0.3,0.2c0,0,0,0,0,0&#10;&#9;&#9;&#9;&#9;&#9;&#9;&#9;&#9;c0,0.3-0.3,0.3-0.5,0.3c-0.1,0-0.1,0.2-0.1,0.3c0,0.1,0,0.1-0.1,0.1c-0.1-0.1-0.2-0.2-0.1-0.3c0,0,0-0.1,0.1-0.1&#10;&#9;&#9;&#9;&#9;&#9;&#9;&#9;&#9;c0.1-0.1,0-0.2,0-0.3c-0.3,0.2-0.7,0.4-1,0.6c-0.1,0.1-0.3,0.1-0.5,0.1c0,0-0.1,0-0.1,0.1c0,0.2,0,0.2-0.2,0.1l-0.2,0.1&#10;&#9;&#9;&#9;&#9;&#9;&#9;&#9;&#9;c-0.1,0-0.2,0.2-0.4,0.2c-0.1,0.1-0.2,0.2-0.4,0.3c-0.1,0.1-0.3,0.2-0.4,0.4l0.4,0.7c0.2-0.2,0.4-0.4,0.7-0.6&#10;&#9;&#9;&#9;&#9;&#9;&#9;&#9;&#9;c0.2-0.1,0.3-0.1,0.4,0.1c0,0.1,0,0.2,0,0.2c0,0,0,0,0,0c-0.1,0.1-0.3,0.2-0.5,0.3c-0.1,0.1-0.2,0.2-0.4,0.2l0.2,0.3l2.8,5.3&#10;&#9;&#9;&#9;&#9;&#9;&#9;&#9;&#9;c0.1,0,0.1-0.1,0.1-0.2c0-0.1,0.1-0.1,0.1-0.1c0.2,0,0.3-0.1,0.4-0.2c0,0,0-0.1,0.1-0.1c0.2,0,0.3-0.1,0.4-0.2&#10;&#9;&#9;&#9;&#9;&#9;&#9;&#9;&#9;c0.1-0.1,0.2-0.1,0.1-0.3c0,0,0-0.1,0-0.1c0,0,0,0,0,0c0.2,0.2,0.2,0.2,0.4,0c0,0,0.1,0,0.1-0.1c0.1,0,0.1-0.2,0.1-0.3&#10;&#9;&#9;&#9;&#9;&#9;&#9;&#9;&#9;c0,0,0-0.1-0.1-0.1c-0.1,0-0.1-0.1-0.2-0.1c0.1-0.1,0.2-0.1,0.3,0c0,0,0,0,0,0c0.1,0.1,0.2,0.1,0.3,0c0.1,0,0.1-0.1,0.1-0.1&#10;&#9;&#9;&#9;&#9;&#9;&#9;&#9;&#9;c0.1-0.1,0.1-0.1,0.2-0.2c0.3-0.2,0.5-0.4,0.8-0.6c0.2-0.1,0.4-0.3,0.6-0.4c0.3-0.3,0.7-0.5,1-0.8c0.2-0.1,0.3-0.2,0.4-0.3&#10;&#9;&#9;&#9;&#9;&#9;&#9;&#9;&#9;l0.1-0.1c0.1-0.1,0.2-0.1,0.3-0.2c0.1,0,0.1-0.1,0.2-0.1c0.1,0,0.2-0.2,0.3-0.2c0.4-0.3,0.9-0.6,1.3-0.9&#10;&#9;&#9;&#9;&#9;&#9;&#9;&#9;&#9;c0.3-0.2,0.5-0.3,0.7-0.6c0.1,0,0.2-0.1,0.2-0.2c0.1-0.1,0.2-0.1,0.3-0.2c0.3-0.3,0.7-0.5,1-0.8c0.3-0.2,0.5-0.4,0.8-0.6&#10;&#9;&#9;&#9;&#9;&#9;&#9;&#9;&#9;c0.2-0.2,0.5-0.4,0.7-0.5c0,0,0.1-0.1,0.1-0.1c0.1-0.1,0.2-0.2,0.4-0.3c0.2-0.1,0.4-0.2,0.6-0.4c0.1,0,0.1-0.1,0.2-0.1&#10;&#9;&#9;&#9;&#9;&#9;&#9;&#9;&#9;c0.3-0.2,0.6-0.5,1-0.7c0.2-0.1,0.4-0.3,0.6-0.4c0.5-0.4,1.1-0.8,1.6-1.2c0.6-0.4,1.2-0.8,1.7-1.3c0.4-0.3,0.9-0.6,1.3-1&#10;&#9;&#9;&#9;&#9;&#9;&#9;&#9;&#9;c0.2-0.2,0.5-0.3,0.7-0.5c0.2-0.2,0.4-0.4,0.7-0.5c0.4,0.3,0.8,0.5,1.3,0.8c0.3,0.1,0.6,0.3,0.9,0.5c0,0,0,0,0,0&#10;&#9;&#9;&#9;&#9;&#9;&#9;&#9;&#9;c0-0.1,0-0.1,0.1-0.2l0,0c0,0,0,0,0-0.1l0,0c0,0,0,0,0-0.1l0,0l0-0.1c0-0.1,0-0.1,0.1-0.2c0.1-0.4,0.3-0.9,0.4-1.3&#10;&#9;&#9;&#9;&#9;&#9;&#9;&#9;&#9;c0-0.1,0.1-0.1,0-0.2c-0.1,0-0.2,0-0.2-0.1c0,0,0,0,0,0c0-0.1,0-0.2-0.1-0.3c-0.1-0.1-0.2-0.2-0.1-0.3c0,0,0-0.1-0.1-0.1&#10;&#9;&#9;&#9;&#9;&#9;&#9;&#9;&#9;c0-0.2,0.1-0.3,0.3-0.4c0.1,0,0.1-0.1,0.1-0.2c0-0.2,0.1-0.3,0.3-0.4c0.1,0,0,0,0-0.1c-0.1-0.2,0-0.2,0.2-0.2&#10;&#9;&#9;&#9;&#9;&#9;&#9;&#9;&#9;c0.1-0.1,0-0.2,0.1-0.3c0,0,0-0.1,0-0.1c-0.1-0.1,0-0.2,0.1-0.2c0.1-0.1,0.2-0.3,0.2-0.5c0-0.2,0.1-0.4,0.1-0.7&#10;&#9;&#9;&#9;&#9;&#9;&#9;&#9;&#9;c-0.1-0.6-0.3-1.1-0.5-1.7c-0.1,0-0.1,0.1-0.2,0.1l-0.1,0" id="el_h40Fy8d4vfn"/>
							<path d="M271.6,290.8c-0.2,0-0.4,0-0.5,0.1c-0.4,0.2-0.8,0.5-1.3,0.7c-0.2,0.1-0.5,0.3-0.7,0.4l0,0&#10;&#9;&#9;&#9;&#9;&#9;&#9;&#9;&#9;c0,0-0.1,0.1-0.5,0.3c-0.4,0.2-0.6,0.4-0.8,0.5s-1.2,1.3-1.2,1.3s-0.2,0.1-0.2,0.6c0,0.4-0.2,3.1-0.2,3.1s-0.1,0.3,0.1,0.4&#10;&#9;&#9;&#9;&#9;&#9;&#9;&#9;&#9;l1.7,0.4l0.6,0.2l0-2.9v-0.8l0.2-0.3l2.1-2.9c0.3-0.3,0.5-0.7,0.8-1C271.8,290.8,271.7,290.8,271.6,290.8z" id="el_zbCgouflClW"/>
						</g>
						<path d="M233.9,308c-1.6-3-3.1-6-4.7-9c0.2-0.3,0.4-0.6,0.6-0.9c0.1,0,0-0.1,0-0.2c-0.1-0.2-0.2-0.2-0.4,0&#10;&#9;&#9;&#9;&#9;&#9;&#9;&#9;c-0.2,0.2-0.3,0.4-0.4,0.6c-0.2-0.4-0.5-0.9-0.7-1.3c-0.1-0.1-0.1-0.2,0-0.3c0,0,0.1-0.1,0.1-0.1c0-0.1,0-0.1,0.1-0.1&#10;&#9;&#9;&#9;&#9;&#9;&#9;&#9;c0.1,0,0.1,0,0.1-0.1c0-0.2,0.2-0.5,0.4-0.6c0.1-0.1,0.2-0.3,0.4-0.4c0,0,0-0.1,0-0.1c0-0.1,0-0.2,0.1-0.2c0,0,0,0,0.1,0&#10;&#9;&#9;&#9;&#9;&#9;&#9;&#9;c0.2,0,0.2-0.1,0.3-0.2c0.1-0.1,0.2-0.2,0.4-0.3c0.2,0,0.3-0.2,0.3-0.4l0-0.1c0.2,0,0.2-0.2,0.3-0.3c0.1,0,0.1-0.1,0.1-0.1&#10;&#9;&#9;&#9;&#9;&#9;&#9;&#9;c0-0.1,0.1-0.2,0.2-0.2c0.2,0,0.2-0.2,0.4-0.3c0.1,0,0-0.1,0-0.1c-0.1-0.1-0.1-0.2,0.1-0.3c0.1,0,0.2-0.1,0.2-0.1&#10;&#9;&#9;&#9;&#9;&#9;&#9;&#9;c0-0.1,0.1-0.2,0.2-0.2c0,0,0.1,0,0.1,0c0.1-0.3,0.5-0.3,0.6-0.5c0,0,0.1,0,0.1,0c0.2,0,0.2,0,0.1-0.2c-0.1-0.1,0-0.1,0.1-0.2&#10;&#9;&#9;&#9;&#9;&#9;&#9;&#9;c0.3-0.1,0.5-0.3,0.8-0.4c0.1-0.1,0.2-0.1,0.1-0.2c-0.1-0.1,0-0.1,0-0.1c0.1-0.1,0.3-0.2,0.4-0.3c0.1-0.1,0.1-0.1,0.2,0&#10;&#9;&#9;&#9;&#9;&#9;&#9;&#9;c0.2,0.1,0.3-0.1,0.5-0.1c0,0,0,0,0-0.1c0-0.2,0.2-0.3,0.3-0.3c0.2-0.1,0.3-0.1,0.5-0.1c0.1,0,0.1,0,0.2-0.1&#10;&#9;&#9;&#9;&#9;&#9;&#9;&#9;c0-0.3,0.3-0.3,0.5-0.4c0.1,0,0.2-0.1,0.3-0.1c0.1-0.1,0.2-0.2,0.4-0.1c0.1,0,0.3,0,0.3-0.2c0,0,0,0,0,0&#10;&#9;&#9;&#9;&#9;&#9;&#9;&#9;c0-0.1,0.1-0.1,0.2-0.1c0.1,0,0.3,0,0.4,0c0,0,0.1-0.1,0-0.1c0-0.1,0-0.2,0.1-0.1c0.1,0,0.1,0,0.1-0.1c0-0.1,0.1-0.2,0.2-0.1&#10;&#9;&#9;&#9;&#9;&#9;&#9;&#9;c0.2,0,0.4-0.1,0.5-0.2c0.1-0.1,0.3-0.1,0.4-0.2c0,0.1,0,0,0.1,0c0.1-0.1,0.2-0.2,0.3-0.1c0.1,0,0.2,0,0.2-0.1&#10;&#9;&#9;&#9;&#9;&#9;&#9;&#9;c0.1,0,0.1,0,0.2,0c0-0.3,0-0.3,0.4-0.3c0.2,0,0.4,0.1,0.4-0.2c0,0,0-0.1,0.1-0.1c0.1,0.1,0.2,0.3,0.2,0&#10;&#9;&#9;&#9;&#9;&#9;&#9;&#9;c0-0.1,0.2-0.1,0.3-0.1c0,0,0.1,0,0.1,0c0.1-0.3,0.3-0.1,0.4-0.2c0.2,0,0.3-0.1,0.4-0.2c0.1-0.2,0.3-0.1,0.5-0.2&#10;&#9;&#9;&#9;&#9;&#9;&#9;&#9;c0.1-0.1,0.3-0.1,0.4-0.2c0,0,0.1,0,0.1,0c0.2,0.1,0.2,0,0.3-0.2c0,0.2,0.1,0.2,0.2,0.2c0.1-0.1,0.2-0.2,0.4-0.2&#10;&#9;&#9;&#9;&#9;&#9;&#9;&#9;c0.3-0.1,0.6-0.4,0.9-0.4c0.3,0,0.5,0,0.8,0.1c0.1,0.1,0.1,0,0.1,0c0.1,0,0.2-0.2,0.4-0.1c0.1,0.1,0.1-0.1,0.2,0&#10;&#9;&#9;&#9;&#9;&#9;&#9;&#9;c0.2,0,0.5,0.1,0.7,0.1c0.2,0.1,0.5,0.2,0.7-0.1c0.1-0.1,0.3-0.1,0.4-0.1c0,0,0.1,0,0.1,0c0.1-0.3,0.4,0,0.6-0.1&#10;&#9;&#9;&#9;&#9;&#9;&#9;&#9;c0.1,0.2,0.2,0,0.3,0c0.2,0,0.3-0.1,0.5,0c0.2,0,0.4,0,0.5,0c0,0,0.1,0,0.1,0c0.3,0.1,0.7,0.2,1,0.1c0.1,0,0.1,0,0.2,0&#10;&#9;&#9;&#9;&#9;&#9;&#9;&#9;c0.1-0.1,0.2-0.1,0.3,0c0.1,0.1,0.4,0.1,0.4,0.1c0.1-0.1,0.3-0.1,0.4-0.1c0.1,0,0.3,0,0.4,0c0,0,0.1,0,0.1,0&#10;&#9;&#9;&#9;&#9;&#9;&#9;&#9;c0.4-0.2,0.8,0,1.2-0.1c0.3-0.1,0.7,0,0.9,0.2c0.1,0.1,0.3,0,0.3,0.2l0,0c0.2-0.1,0.3,0,0.5,0c0.2,0,0.4,0.1,0.7,0.2&#10;&#9;&#9;&#9;&#9;&#9;&#9;&#9;c0,0,0.1,0,0.1,0c0.2,0,0.5,0.1,0.7,0.3c0.1,0.1,0.1,0.1,0.2,0.1c0.3-0.1,0.4,0,0.5,0.3c0,0.1,0.1,0.1,0.1,0&#10;&#9;&#9;&#9;&#9;&#9;&#9;&#9;c0-0.1,0.1-0.1,0.2-0.1c0.1,0.1,0,0.1,0,0.2c0.2-0.2,0.3-0.1,0.5,0c0.3,0.2,0.5,0.3,0.8,0.4c0.1,0,0.2,0,0.1,0.2&#10;&#9;&#9;&#9;&#9;&#9;&#9;&#9;c0,0.1,0.1,0.1,0.1,0c0.2,0,0.3,0,0.3,0.2c0,0.1,0.1,0.2,0.2,0.2c0,0,0,0,0,0c0.2,0,0.3,0,0.3,0.2c0,0.1,0,0.2,0.2,0.1&#10;&#9;&#9;&#9;&#9;&#9;&#9;&#9;c0,0,0.1,0,0.1,0c0,0,0,0,0,0c0,0,0,0.1,0,0.1c0,0.1,0,0.1-0.1,0.2c-0.1,0.1,0,0.2,0,0.2c0,0,0,0,0,0c0.1,0.1,0.1-0.1,0.2-0.1&#10;&#9;&#9;&#9;&#9;&#9;&#9;&#9;c0.1,0,0.2-0.1,0.3,0c0.2,0.2,0.4,0.4,0.6,0.6c0.1,0.1,0.2,0.2,0,0.3c0.1,0.1,0.1,0,0.2,0c0.1-0.1,0.2-0.1,0.3,0.1&#10;&#9;&#9;&#9;&#9;&#9;&#9;&#9;c0.1,0.2,0.3,0.3,0.5,0.4c0.1,0,0.1,0,0.2,0.1c0,0.1,0.1,0.1,0.2,0.1c0.1,0,0.3,0,0.2,0.2c0,0,0,0.1,0,0.1c0,0,0,0,0,0&#10;&#9;&#9;&#9;&#9;&#9;&#9;&#9;c0,0,0.1-0.1,0.1-0.1c0-0.2,0-0.4,0-0.6c0-0.4,0-0.7-0.1-1.2c0.3,0.3,0.5,0.6,0.7,0.8c0.5,0.6,1.1,1.3,1.6,1.9&#10;&#9;&#9;&#9;&#9;&#9;&#9;&#9;c0.1,0.1,0.2,0.1,0.3,0c0.3-0.2,0.6-0.4,0.9-0.6c0.1-0.1,0.1-0.1,0.2,0c0.3,0.3,0.6,0.6,0.8,1c0.1,0.1,0.1,0.1,0.2,0.2&#10;&#9;&#9;&#9;&#9;&#9;&#9;&#9;c-0.1,0.1-0.3,0.2-0.5,0.3c-0.2,0.1-0.4,0.2-0.6,0.4l-0.2,0.2c-0.1-0.2-0.2-0.3-0.3-0.5c-0.1-0.1-0.1-0.2-0.2-0.1&#10;&#9;&#9;&#9;&#9;&#9;&#9;&#9;c-0.1,0-0.2,0.1-0.1,0.2c0,0,0,0,0,0c0.1,0.2,0.2,0.5,0.5,0.6l0,0.1l0,0c-0.1,0-0.1,0.1-0.2,0.2c-0.3,0.3-0.6,0.7-0.9,1&#10;&#9;&#9;&#9;&#9;&#9;&#9;&#9;c0,0-0.1,0.1-0.1,0.1c0,0.3,0,0.5,0,0.8c0,0.1,0,0.2,0,0.2c0,0.1-0.1,0.3,0,0.4c-0.1,0.7-0.1,1.4-0.2,2.1&#10;&#9;&#9;&#9;&#9;&#9;&#9;&#9;c0,0.2,0.1,0.3,0.3,0.4c0,0.1,0,0.3,0.1,0.3c0.2,0.1,0.4,0.1,0.4,0.3c0,0,0,0,0.1,0c0.3-0.1,0.6,0.1,0.9,0.1&#10;&#9;&#9;&#9;&#9;&#9;&#9;&#9;c0.1,0,0.3,0,0.2,0.2c0,0.1,0,0.2,0,0.2c0.1,0,0.2,0,0.3,0c0.1,0,0-0.1,0-0.2c0-0.1,0-0.2,0.1-0.3c0.1,0,0.2,0,0.2,0.1&#10;&#9;&#9;&#9;&#9;&#9;&#9;&#9;c0.1,0.3,0.1,0.3,0.4,0.2c0.2-0.1,0.4,0,0.6,0.1c0.1,0.1,0.2,0.1,0.3,0.1c0.2,0,0.3,0.1,0.4,0.2c0.1,0.2,0.2,0.1,0.3,0.1&#10;&#9;&#9;&#9;&#9;&#9;&#9;&#9;c0.1,0,0.1-0.1,0.2-0.1c0.1,0.1,0,0.2,0,0.2c0,0,0,0.1-0.1,0.1c-0.1,0.1,0,0.2,0.1,0.2c0.1,0,0.1,0,0.2,0c0.1,0,0.3,0,0.2,0.2&#10;&#9;&#9;&#9;&#9;&#9;&#9;&#9;c0.1-0.1,0.2-0.2,0.3-0.1c-0.1,0.2-0.3,0.4-0.6,0.5c-0.5,0.4-1.1,0.7-1.6,1.1c-0.1,0.1-0.3,0.1-0.3,0.3l-1.6-0.3&#10;&#9;&#9;&#9;&#9;&#9;&#9;&#9;c-0.2-0.1-0.4-0.1-0.6-0.1c-0.2-0.1-0.5-0.1-0.8-0.2l-1.6-0.4c0-0.1-0.2-0.1-0.2-0.1c-0.1-0.2-0.3-0.3-0.5-0.3&#10;&#9;&#9;&#9;&#9;&#9;&#9;&#9;c-0.4-0.1-0.8-0.5-0.9-0.9c0-0.2-0.2-0.4-0.3-0.6l0-0.1c-0.1,0,0.1-0.1,0-0.2c-0.1,0-0.1,0.1-0.1,0.2c0,0,0,0,0,0&#10;&#9;&#9;&#9;&#9;&#9;&#9;&#9;c-0.1,0-0.3,0-0.2-0.2c-0.1-0.1,0.2-0.1,0.1-0.2c-0.2-0.2,0-0.3,0.1-0.4c0.1-0.1,0.2-0.3,0.2-0.5c0,0,0-0.1,0-0.1&#10;&#9;&#9;&#9;&#9;&#9;&#9;&#9;c0.1-0.1,0-0.3,0-0.5c-0.1-0.3-0.2-0.6-0.3-0.9c-0.1-0.3-0.2-0.6-0.3-0.8c0,0,0-0.1,0-0.1c0-0.2-0.1-0.4-0.2-0.6&#10;&#9;&#9;&#9;&#9;&#9;&#9;&#9;c-0.1-0.1-0.2-0.3-0.3-0.5c-0.1-0.2-0.2-0.4-0.3-0.5c0,0,0,0,0,0c-0.1-0.2-0.2-0.4-0.4-0.5c-0.3-0.2-0.7-0.4-1-0.6&#10;&#9;&#9;&#9;&#9;&#9;&#9;&#9;c-0.1,0-0.2-0.1-0.2-0.1c-0.2,0.1-0.4,0.1-0.5,0c-0.1,0-0.2,0-0.3,0c0,0-0.1,0-0.1,0c-0.3,0.1-0.6-0.1-0.8,0.2&#10;&#9;&#9;&#9;&#9;&#9;&#9;&#9;c-0.1,0.1-0.3,0-0.4,0c-0.1,0-0.2-0.1-0.3,0c-0.1,0.1-0.3,0.2-0.4,0.2c-0.5,0.3-1,0.6-1.5,1c-0.3,0.2-0.6,0.4-0.9,0.6&#10;&#9;&#9;&#9;&#9;&#9;&#9;&#9;c-0.5,0.3-0.9,0.6-1.4,0.9c-0.3,0.2-0.6,0.4-1,0.6c-0.5,0.3-1,0.6-1.4,0.9c-0.3,0.2-0.6,0.4-0.9,0.6c-0.4,0.3-0.9,0.6-1.3,0.9&#10;&#9;&#9;&#9;&#9;&#9;&#9;&#9;c-0.4,0.3-0.9,0.6-1.3,0.9c-0.5,0.3-1,0.6-1.5,1c-0.3,0.2-0.6,0.4-0.9,0.6c-0.4,0.3-0.9,0.6-1.3,0.9c-0.3,0.2-0.6,0.4-1,0.6&#10;&#9;&#9;&#9;&#9;&#9;&#9;&#9;c-0.5,0.3-1,0.6-1.5,0.9c-0.3,0.2-0.6,0.4-0.9,0.6c-0.4,0.3-0.9,0.6-1.3,0.9c-0.3,0.2-0.6,0.4-0.9,0.6c-0.5,0.3-1,0.6-1.5,0.9&#10;&#9;&#9;&#9;&#9;&#9;&#9;&#9;c-0.3,0.2-0.6,0.4-0.9,0.6C234.9,307.3,234.4,307.7,233.9,308z" id="el_Ic0XeL0cZyA"/>
						<path d="M271.6,300.5c-0.1-0.1-0.2,0-0.3,0.1c0-0.2-0.1-0.2-0.2-0.2c-0.1,0-0.1,0-0.2,0c-0.1,0-0.2-0.1-0.1-0.2&#10;&#9;&#9;&#9;&#9;&#9;&#9;&#9;c0,0,0.1-0.1,0.1-0.1c0-0.1,0.1-0.2,0-0.2c-0.1-0.1-0.1,0.1-0.2,0.1c-0.1,0-0.2,0.1-0.3-0.1c-0.1-0.1-0.2-0.2-0.4-0.2&#10;&#9;&#9;&#9;&#9;&#9;&#9;&#9;c-0.1,0-0.2,0-0.3-0.1c-0.2-0.1-0.4-0.1-0.6-0.1c-0.3,0.1-0.3,0.1-0.4-0.2c0-0.1-0.1-0.2-0.2-0.1c-0.1,0-0.1,0.2-0.1,0.3&#10;&#9;&#9;&#9;&#9;&#9;&#9;&#9;c0,0.1,0.1,0.1,0,0.2c-0.1,0-0.2,0-0.3,0c-0.1-0.1-0.1-0.1,0-0.2c0.1-0.2-0.1-0.2-0.2-0.2c-0.3,0-0.6-0.2-0.9-0.1&#10;&#9;&#9;&#9;&#9;&#9;&#9;&#9;c0,0-0.1,0-0.1,0c0-0.3-0.3-0.3-0.4-0.3c-0.1-0.1-0.1-0.2-0.1-0.3l0.4,0.1c0,0.1-0.1,0.1,0,0.2c0.1,0,0.1,0.1,0.2,0&#10;&#9;&#9;&#9;&#9;&#9;&#9;&#9;c0.1,0,0-0.1,0-0.1c0.4,0.1,0.8,0.2,1.2,0.3c0.2,0,0.2,0,0.2-0.1c0-0.8,0-1.6,0-2.4c0-0.1,0-0.3,0-0.4l0-0.3c0,0,0-0.1,0-0.2&#10;&#9;&#9;&#9;&#9;&#9;&#9;&#9;c0-0.2,0.1-0.4,0.2-0.5c0.1-0.1,0.2-0.3,0.3-0.4l0.1-0.1c0.3-0.4,0.6-0.8,0.9-1.2c0,0,0,0,0,0c0.2,0.2,0.4,0.5,0.6,0.7&#10;&#9;&#9;&#9;&#9;&#9;&#9;&#9;c0.1,0.1,0.1,0,0.1-0.1c0.1-0.3,0.1-0.6,0.2-0.9c0-0.3,0.1-0.5,0.2-0.8c0.1,0.4,0.2,0.9,0.3,1.3c0.2,0.8,0.3,1.6,0.5,2.4&#10;&#9;&#9;&#9;&#9;&#9;&#9;&#9;c0.1,0.3,0.1,0.5,0.1,0.8c0,0.1,0,0.2,0.2,0.2c0.4-0.1,0.9-0.2,1.4-0.3l-2,2.3c0.3,0.1,0.6,0.1,0.9,0.1c0.1,0,0.2,0.1,0.1,0.2&#10;&#9;&#9;&#9;&#9;&#9;&#9;&#9;C272.3,299.5,271.9,300,271.6,300.5z M270.6,297.4c0,0.1,0.2,0.1,0.3,0.1c0.1,0,0.1-0.1,0.1-0.1c0-0.3-0.1-0.7-0.3-0.9&#10;&#9;&#9;&#9;&#9;&#9;&#9;&#9;c0-0.1-0.1-0.1-0.2,0c-0.1,0-0.1,0.1-0.1,0.2C270.5,296.8,270.5,297.1,270.6,297.4L270.6,297.4z M270.8,299.1&#10;&#9;&#9;&#9;&#9;&#9;&#9;&#9;c0.3-0.2,0.4-0.5,0.2-0.8c0-0.1-0.1-0.1-0.1-0.1c-0.1,0-0.1,0.1-0.1,0.1c0,0.2-0.1,0.3-0.3,0.5c-0.1,0.1-0.2,0.2-0.1,0.3&#10;&#9;&#9;&#9;&#9;&#9;&#9;&#9;C270.6,299.1,270.7,299.2,270.8,299.1L270.8,299.1z M270.6,295.3c0,0.1,0.1,0.1,0.1,0.2c0,0,0.1,0.1,0.2,0.1&#10;&#9;&#9;&#9;&#9;&#9;&#9;&#9;c0.1,0,0-0.1,0-0.2c0-0.1,0-0.3,0-0.4c0-0.1,0-0.3-0.1-0.4c-0.1-0.1-0.2-0.1-0.3-0.1c-0.1,0-0.1,0.1-0.1,0.2c0,0,0,0,0,0&#10;&#9;&#9;&#9;&#9;&#9;&#9;&#9;C270.5,294.9,270.5,295.1,270.6,295.3L270.6,295.3z M269.2,298.3c0,0.1,0.1,0.1,0.1,0.1c0,0,0.1,0,0.1-0.1&#10;&#9;&#9;&#9;&#9;&#9;&#9;&#9;c0-0.2,0.1-0.3,0.1-0.5c0-0.1,0-0.2-0.1-0.2c-0.1,0-0.2,0.1-0.2,0.2c0,0,0,0,0,0C269.1,298,269.2,298.2,269.2,298.3z" id="el_D5rzsEzc3-t"/>
						<path d="M270.6,297.4c-0.1-0.3-0.2-0.5-0.3-0.8c0-0.1,0-0.1,0.1-0.2c0.1,0,0.2,0,0.2,0c0.2,0.2,0.3,0.6,0.3,0.9&#10;&#9;&#9;&#9;&#9;&#9;&#9;&#9;c0,0.1,0,0.1-0.1,0.1C270.8,297.4,270.7,297.5,270.6,297.4z" id="el_VaTgsguLhOr"/>
						<path d="M270.6,295.3c-0.1-0.2-0.1-0.4-0.2-0.5c0-0.1,0-0.2,0.1-0.2c0,0,0,0,0,0c0.1,0,0.2,0,0.3,0.1&#10;&#9;&#9;&#9;&#9;&#9;&#9;&#9;c0.1,0.1,0.1,0.3,0.1,0.4c0,0.1,0,0.3,0,0.4c0,0.1,0,0.1,0,0.2c-0.1,0-0.1,0-0.2-0.1C270.7,295.4,270.7,295.4,270.6,295.3z" id="el_a1IRVggwWYD"/>
						<path d="M269.2,298.3c0-0.1,0-0.3,0-0.4c0-0.1,0.1-0.2,0.2-0.2c0,0,0,0,0,0c0.1,0,0.1,0.1,0.1,0.2&#10;&#9;&#9;&#9;&#9;&#9;&#9;&#9;c0,0.2-0.1,0.3-0.1,0.5c0,0.1-0.1,0.1-0.1,0.1C269.2,298.4,269.2,298.4,269.2,298.3z" id="el_dKdEeiczmzO"/>
						<g id="el_vRCoVIYe01L">
							<path d="M253,287.5c0.1,0.1,0.3,0.1,0.4,0c0.1,0,0.1-0.1,0.1-0.1c0-0.2,0-0.3-0.3-0.3l-0.8-0.1&#10;&#9;&#9;&#9;&#9;&#9;&#9;&#9;&#9;c-0.1-0.1-0.2,0-0.3,0c-0.1,0-0.1,0-0.2,0.1c0,0.1,0,0.1,0.1,0.2C252.3,287.5,252.7,287.6,253,287.5L253,287.5z" id="el_XNM_arX9CMy"/>
							<path d="M236.9,293.3c-0.1,0.1-0.3,0.2-0.4,0.3c-0.1,0-0.2,0.2-0.3,0.3c-0.1,0.1-0.1,0.1,0,0.2&#10;&#9;&#9;&#9;&#9;&#9;&#9;&#9;&#9;c0.1,0.1,0.1,0,0.2,0c0.2-0.1,0.4-0.2,0.7-0.3c0.1,0,0.2-0.2,0.1-0.3c0,0,0,0,0,0C237.1,293.3,237,293.3,236.9,293.3z" id="el_qUFcX1vySPg"/>
							<path d="M260.3,289.9c-0.2-0.2-0.4-0.3-0.7-0.4c-0.1,0-0.2,0-0.2,0c-0.1,0.1,0,0.1,0.1,0.2&#10;&#9;&#9;&#9;&#9;&#9;&#9;&#9;&#9;c0,0.1,0.1,0.1,0.2,0.2c0.3,0.2,0.6,0.4,0.9,0.6c0.1,0.1,0.3,0.1,0.3,0c0.1-0.1,0.1-0.2-0.1-0.3c0,0,0,0,0,0&#10;&#9;&#9;&#9;&#9;&#9;&#9;&#9;&#9;C260.7,290,260.5,289.9,260.3,289.9L260.3,289.9z" id="el_ifjWWQCAqwe"/>
							<path d="M256,287.9c-0.1,0-0.2,0-0.2,0.1c0,0.1,0,0.2,0.1,0.2c0.3,0.1,0.7,0.1,1,0.2c0.1,0,0.2,0,0.2-0.1&#10;&#9;&#9;&#9;&#9;&#9;&#9;&#9;&#9;c0-0.1,0-0.1,0-0.2c-0.1-0.1-0.2-0.1-0.3-0.1C256.6,287.9,256.3,287.9,256,287.9z" id="el_QZUlVLwOxJZ"/>
							<path d="M258.5,287.4c-0.2-0.1-0.4-0.2-0.6-0.2c0,0-0.1-0.1-0.2-0.1c-0.1,0-0.2-0.1-0.3,0.1c0,0.1,0,0.2,0.1,0.3&#10;&#9;&#9;&#9;&#9;&#9;&#9;&#9;&#9;c0.2,0.1,0.4,0.3,0.6,0.3c0.2,0,0.3,0.1,0.4,0C258.7,287.7,258.6,287.6,258.5,287.4C258.5,287.4,258.5,287.4,258.5,287.4z" id="el_pAnq4mEeaK8"/>
							<path d="M246.8,287.3c-0.1,0-0.2,0-0.2,0c-0.1,0-0.1,0.1-0.1,0.1c0,0.1,0,0.1,0.1,0.1c0.4,0.2,0.8,0.2,1.3,0.2&#10;&#9;&#9;&#9;&#9;&#9;&#9;&#9;&#9;c0.1,0,0.2,0,0.2-0.1c0-0.1,0.1-0.3-0.1-0.3C247.5,287.3,247.1,287.3,246.8,287.3z" id="el_Na6xFSLzEEC"/>
							<path d="M247.5,296.2c-0.2,0.1-0.3,0.4-0.5,0.5c-0.1,0-0.1,0.1-0.1,0.2c0,0,0,0,0,0c0.1,0.1,0.1,0,0.2,0&#10;&#9;&#9;&#9;&#9;&#9;&#9;&#9;&#9;c0.5-0.4,1-0.8,1.5-1.2c0.1,0,0.1-0.1,0.1-0.2c0-0.1,0-0.2-0.2-0.2c-0.1,0-0.3,0-0.3,0.2C248,295.7,247.8,295.9,247.5,296.2z&#10;&#9;&#9;&#9;&#9;&#9;&#9;&#9;&#9;" id="el_1qpJV9-dBpS"/>
							<path d="M236.7,301.1c-0.2,0.2-0.5,0.5-0.8,0.6c-0.1,0.1-0.2,0.2-0.4,0.3c-0.1,0-0.1,0.1,0,0.2c0,0,0,0,0,0&#10;&#9;&#9;&#9;&#9;&#9;&#9;&#9;&#9;c0,0,0.1,0.1,0.2,0.1c0.2-0.1,0.4-0.1,0.5-0.2c0.3-0.2,0.6-0.5,0.9-0.8c0.1-0.1,0-0.2,0-0.3c0-0.1-0.1-0.1-0.2-0.1&#10;&#9;&#9;&#9;&#9;&#9;&#9;&#9;&#9;C236.8,300.9,236.7,301,236.7,301.1z" id="el_FA7eNcA9qTB"/>
							<path d="M254.2,286.3c-0.1,0-0.2-0.1-0.3,0.1c0,0.1,0,0.3,0.1,0.3c0.3,0.2,0.6,0.3,0.9,0.4c0.1,0,0.2,0,0.3-0.1&#10;&#9;&#9;&#9;&#9;&#9;&#9;&#9;&#9;c-0.1-0.1,0.1-0.3-0.2-0.3C254.8,286.5,254.5,286.4,254.2,286.3z" id="el_FRcXPHGVzYL"/>
							<path d="M234,300.2c0,0,0.1,0,0.1-0.1c0.1-0.1,0.1-0.2,0.1-0.3c0,0,0,0,0,0c-0.1-0.1-0.2-0.1-0.2,0&#10;&#9;&#9;&#9;&#9;&#9;&#9;&#9;&#9;c-0.1,0-0.2,0-0.2,0.1c-0.3,0.2-0.6,0.5-0.8,0.9c-0.1,0.1-0.2,0.2,0,0.3c0.1,0.1,0.2,0,0.3-0.1&#10;&#9;&#9;&#9;&#9;&#9;&#9;&#9;&#9;C233.4,300.7,233.6,300.3,234,300.2z" id="el_PvU2PnwpM9Y"/>
							<path d="M238.9,294.8c0.1,0,0.1-0.1,0.2-0.1c0.3-0.1,0.5-0.2,0.8-0.4c0.1-0.1,0.1-0.2,0-0.4&#10;&#9;&#9;&#9;&#9;&#9;&#9;&#9;&#9;c-0.1-0.1-0.2-0.1-0.3,0c-0.4,0.2-0.8,0.4-1.1,0.6c0,0-0.1,0-0.1,0c-0.1,0.1-0.2,0.1-0.1,0.2c0,0.1,0.2,0.1,0.2,0.1&#10;&#9;&#9;&#9;&#9;&#9;&#9;&#9;&#9;c0,0,0,0,0,0C238.7,294.9,238.8,294.8,238.9,294.8z" id="el_wdXJl461BCa"/>
							<path d="M255.2,290.5c0.1,0,0.1-0.1,0.1-0.2c0-0.1,0-0.2-0.1-0.2c-0.4-0.1-0.8-0.1-1.2-0.1&#10;&#9;&#9;&#9;&#9;&#9;&#9;&#9;&#9;c-0.1,0-0.1,0.1-0.1,0.1c0,0.1,0,0.1,0.1,0.2c0.1,0.1,0.2,0.1,0.3,0.1C254.5,290.5,254.9,290.5,255.2,290.5z" id="el_eGYvMEb7TnT"/>
							<path d="M252.5,293.3L252.5,293.3c-0.2,0.1-0.4,0.2-0.6,0.3c-0.1,0-0.1,0.1-0.1,0.1c0,0.1,0.1,0.1,0.1,0.1&#10;&#9;&#9;&#9;&#9;&#9;&#9;&#9;&#9;c0,0,0,0,0,0c0.1,0,0.2,0,0.3,0c0.4-0.1,0.7-0.3,1.1-0.5c0.1-0.1,0.2-0.1,0.1-0.3c0-0.1-0.2-0.2-0.3-0.1c0,0,0,0,0,0&#10;&#9;&#9;&#9;&#9;&#9;&#9;&#9;&#9;C252.9,293.1,252.7,293.2,252.5,293.3z" id="el_kGpZNZuQo9f"/>
							<path d="M234.4,293.7c0,0,0.1-0.1,0.1-0.1c0.2-0.2,0.4-0.4,0.6-0.5c0.1-0.1,0.2-0.2,0.1-0.3c0,0,0,0,0,0&#10;&#9;&#9;&#9;&#9;&#9;&#9;&#9;&#9;c-0.1-0.1-0.2-0.1-0.3,0c-0.3,0.2-0.5,0.5-0.7,0.8c-0.1,0.1-0.1,0.2,0,0.2c0,0,0,0,0,0C234.2,293.8,234.3,293.7,234.4,293.7z&#10;&#9;&#9;&#9;&#9;&#9;&#9;&#9;&#9;" id="el_GOAs-Wp_rru"/>
							<path d="M244.8,294.6c0.1-0.1,0.3-0.1,0.4-0.2c0.1,0,0.1-0.2,0.1-0.3c0,0,0,0,0,0c-0.1-0.1-0.2-0.1-0.3,0&#10;&#9;&#9;&#9;&#9;&#9;&#9;&#9;&#9;c-0.4,0.2-0.8,0.4-1.2,0.6c-0.1,0-0.1,0.1-0.1,0.1c0,0.1,0.1,0.1,0.1,0.1C244.1,294.9,244.5,294.8,244.8,294.6z" id="el_yEWQPyLIpRF"/>
							<path d="M266.7,300.2c0,0.1,0.1,0.1,0.3,0.1c0.1,0,0.1-0.1,0.1-0.2c0-0.2,0-0.3-0.1-0.5&#10;&#9;&#9;&#9;&#9;&#9;&#9;&#9;&#9;c-0.1-0.2-0.3-0.4-0.4-0.7c0-0.1-0.1-0.1-0.2-0.1c-0.1,0-0.1,0.1-0.1,0.2C266.5,299.5,266.6,299.8,266.7,300.2z" id="el_MKCuFBuH8Sc"/>
							<path d="M243.8,289.2c0.1,0,0.2-0.1,0.1-0.2c0-0.1-0.1-0.2-0.2-0.2c-0.3,0.1-0.6,0.1-1,0.1c-0.1,0-0.1,0-0.2,0.1&#10;&#9;&#9;&#9;&#9;&#9;&#9;&#9;&#9;c0,0.1,0,0.2,0.1,0.2C243,289.3,243.4,289.3,243.8,289.2z" id="el_I8wW2iGBfC9"/>
							<path d="M270.4,301.1c0.1-0.1,0.2-0.1,0.3-0.2c0,0,0.1-0.1,0.1-0.1c0-0.1-0.1-0.1-0.1,0c-0.3,0-0.7,0.1-1,0.1&#10;&#9;&#9;&#9;&#9;&#9;&#9;&#9;&#9;c-0.2,0-0.2,0.2-0.2,0.3c0,0.1,0.1,0.1,0.2,0.1C269.9,301.2,270.2,301.2,270.4,301.1z" id="el_FpU652Eww_j"/>
							<path d="M243.4,287.7c-0.1,0.1-0.3,0.1-0.2,0.3c0,0.1,0.2,0.1,0.3,0.1c0.3,0,0.6-0.1,0.8-0.1&#10;&#9;&#9;&#9;&#9;&#9;&#9;&#9;&#9;c0.1,0,0.2,0,0.1-0.1c0-0.1,0-0.2-0.1-0.2C244,287.5,243.7,287.5,243.4,287.7z" id="el_bt5e9SPjHa_"/>
							<path d="M234.1,296.2c-0.2,0-0.4,0.3-0.5,0.5c0,0.1-0.1,0.1,0,0.2c0.1,0.1,0.1,0.1,0.2,0c0,0,0,0,0,0&#10;&#9;&#9;&#9;&#9;&#9;&#9;&#9;&#9;c0.2-0.2,0.5-0.4,0.8-0.6c0.1-0.1,0.1-0.2,0.1-0.3c0-0.1-0.1-0.1-0.2,0C234.3,296.1,234.2,296.2,234.1,296.2z" id="el_11-p9lVSJVx"/>
							<path d="M244.5,292.2c-0.2,0.1-0.3,0.2-0.5,0.3c-0.1,0-0.1,0.1-0.1,0.2c0,0.1,0.1,0,0.2,0c0.4-0.1,0.7-0.2,1-0.4&#10;&#9;&#9;&#9;&#9;&#9;&#9;&#9;&#9;c0.1,0,0.2-0.1,0.1-0.2c0-0.1-0.1-0.2-0.2-0.1c0,0,0,0,0,0C244.8,292,244.7,292.1,244.5,292.2z" id="el_Ds9lkcJMz5Y"/>
							<path d="M240.5,292.4c0.2-0.1,0.3-0.2,0.5-0.2c0.1-0.1,0.1-0.2,0.1-0.3c0,0,0,0,0,0c-0.1-0.1-0.2-0.1-0.3,0&#10;&#9;&#9;&#9;&#9;&#9;&#9;&#9;&#9;c-0.3,0.1-0.6,0.4-0.9,0.6c0,0-0.1,0-0.1,0.1c0,0.1,0.1,0.1,0.1,0C240.1,292.5,240.3,292.4,240.5,292.4z" id="el_QNVr5NqfrG9"/>
							<path d="M244.4,290.7c-0.2,0.1-0.4,0.2-0.5,0.3c-0.1,0-0.1,0.1-0.1,0.1c0,0,0,0.1,0.1,0.1c0.4,0,0.7-0.1,1-0.3&#10;&#9;&#9;&#9;&#9;&#9;&#9;&#9;&#9;c0.1-0.1,0.1-0.2,0-0.3c-0.1-0.1-0.2-0.1-0.3,0C244.5,290.6,244.5,290.7,244.4,290.7z" id="el_VmRY06Tw__u"/>
							<path d="M231.5,297.3c0.1,0,0.1-0.1,0.1-0.1c0.1-0.2,0.2-0.3,0.4-0.5c0.1-0.1,0.2-0.3,0-0.4&#10;&#9;&#9;&#9;&#9;&#9;&#9;&#9;&#9;c-0.1-0.1-0.3,0-0.4,0.1c-0.2,0.2-0.3,0.5-0.4,0.7c0,0.1-0.1,0.1,0,0.2C231.4,297.4,231.5,297.3,231.5,297.3z" id="el_nWloXTAOtgm"/>
							<path d="M269.9,300.5c0.1-0.1,0.3-0.1,0.4-0.2c0.1-0.1,0.1-0.2,0-0.2c-0.1-0.1-0.1-0.1-0.2,0&#10;&#9;&#9;&#9;&#9;&#9;&#9;&#9;&#9;c-0.1,0.1-0.2,0.1-0.3,0.1c-0.1,0-0.3,0.1-0.4,0.2c-0.1,0-0.2,0.1-0.2,0.3c0,0.1,0.2,0.1,0.3,0.1&#10;&#9;&#9;&#9;&#9;&#9;&#9;&#9;&#9;C269.7,300.6,269.8,300.6,269.9,300.5z" id="el_z9j4RujOZrZ"/>
							<path d="M232.5,293.7c-0.2,0.1-0.4,0.3-0.6,0.5c0,0.1-0.1,0.1,0,0.2c0,0,0.1,0.1,0.2,0c0.1,0,0.1-0.1,0.2-0.1&#10;&#9;&#9;&#9;&#9;&#9;&#9;&#9;&#9;c0.2-0.1,0.4-0.3,0.6-0.4c0.1,0,0.2-0.1,0.1-0.2c0-0.1-0.2-0.2-0.3-0.1C232.6,293.6,232.6,293.7,232.5,293.7z" id="el_lzGB5XWRoZk"/>
							<path d="M239.9,289.5c-0.1,0.1-0.3,0.1-0.2,0.2c0,0.1,0.2,0.1,0.3,0.1c0.3,0,0.5-0.1,0.8-0.2&#10;&#9;&#9;&#9;&#9;&#9;&#9;&#9;&#9;c0.1,0,0.2-0.1,0.2-0.2c0,0,0,0,0,0c0-0.1-0.2-0.1-0.3-0.1C240.4,289.3,240.2,289.4,239.9,289.5z" id="el_hRXhz6s19Jm"/>
							<path d="M268.5,301.6C268.5,301.6,268.5,301.6,268.5,301.6c0.2-0.4,0.3-0.8,0.2-1.2c0-0.1-0.1-0.1-0.1-0.1&#10;&#9;&#9;&#9;&#9;&#9;&#9;&#9;&#9;c-0.1,0-0.1,0-0.1,0.1c0,0.3-0.1,0.5-0.2,0.8c0,0.1,0,0.1,0,0.2C268.2,301.6,268.3,301.6,268.5,301.6&#10;&#9;&#9;&#9;&#9;&#9;&#9;&#9;&#9;C268.5,301.6,268.5,301.6,268.5,301.6z" id="el_-0750f3lNhM"/>
							<path d="M249.4,288.4C249.4,288.4,249.4,288.5,249.4,288.4c0.3,0.2,0.6,0.1,0.9,0c0.1-0.1,0.1-0.2,0.1-0.3&#10;&#9;&#9;&#9;&#9;&#9;&#9;&#9;&#9;c0-0.1-0.1-0.1-0.3-0.1c-0.2,0.1-0.4,0.1-0.6,0.2C249.3,288.2,249.3,288.3,249.4,288.4z" id="el_kY04zVDCUfd"/>
							<path d="M238.2,290.8c-0.2,0.1-0.4,0.3-0.5,0.3c-0.1,0-0.1,0.1-0.1,0.2c0,0.1,0.1,0.1,0.1,0.1&#10;&#9;&#9;&#9;&#9;&#9;&#9;&#9;&#9;c0.3,0,0.6-0.1,0.9-0.3c0.1-0.1,0-0.1,0-0.2c0-0.1-0.1-0.1-0.2-0.1c0,0,0,0,0,0C238.4,290.7,238.3,290.7,238.2,290.8z" id="el_2lwWGofp-KT"/>
							<path d="M260.2,288.6C260.2,288.6,260.2,288.7,260.2,288.6c0.4,0.3,0.6,0.7,0.9,1c0.1,0.1,0.2,0.2,0.4,0.1&#10;&#9;&#9;&#9;&#9;&#9;&#9;&#9;&#9;c0,0,0,0,0,0c0.1,0,0-0.2,0-0.3c-0.2-0.5-0.6-0.7-1-1c-0.1,0-0.2,0-0.2,0C260.1,288.5,260.1,288.5,260.2,288.6z" id="el_qMVghD-xG34"/>
							<path d="M248.6,289.5c0.1,0,0.2-0.1,0.1-0.2c0-0.1-0.1-0.1-0.2-0.1c0,0,0,0,0,0c-0.2,0-0.4,0-0.5,0&#10;&#9;&#9;&#9;&#9;&#9;&#9;&#9;&#9;c-0.1,0-0.2,0-0.3,0.1c-0.1,0-0.1,0.1-0.1,0.1c0,0.1,0.1,0.1,0.2,0.1c0.2,0.1,0.5,0,0.7,0.1&#10;&#9;&#9;&#9;&#9;&#9;&#9;&#9;&#9;C248.5,289.6,248.5,289.5,248.6,289.5z" id="el_BqiemHaKfjp"/>
							<path d="M236.1,296c0.1,0,0.2-0.2,0.3-0.3c0.1-0.1,0.1-0.2,0.1-0.3c-0.1-0.1-0.2-0.1-0.3-0.1c0,0,0,0,0,0&#10;&#9;&#9;&#9;&#9;&#9;&#9;&#9;&#9;c-0.2,0.1-0.3,0.2-0.4,0.4c0,0.1-0.1,0.1-0.1,0.2c0.1,0.1,0.2,0.1,0.3,0.1C236,296,236,296,236.1,296z" id="el_1mC1Gtbnnck"/>
							<path d="M264.8,292.2C264.9,292.2,264.9,292.3,264.8,292.2c0.2,0.2,0.3,0.3,0.5,0.2c0.1-0.1,0.1-0.3,0-0.4&#10;&#9;&#9;&#9;&#9;&#9;&#9;&#9;&#9;c-0.1-0.3-0.3-0.5-0.5-0.8c-0.1-0.1-0.2-0.1-0.3-0.1c-0.1,0-0.1,0.1-0.1,0.2C264.6,291.7,264.7,291.9,264.8,292.2z" id="el_aZ5molBvVwh"/>
							<path d="M231.8,299.1c0.1,0,0.1-0.1,0.2-0.2c0.1-0.1,0.1-0.2,0.2-0.3c0.1-0.1,0.1-0.2,0-0.3&#10;&#9;&#9;&#9;&#9;&#9;&#9;&#9;&#9;c-0.1-0.1-0.2-0.1-0.3,0c-0.2,0.1-0.3,0.3-0.4,0.6c0,0.1-0.1,0.1,0,0.2C231.7,299.1,231.7,299.1,231.8,299.1z" id="el_uWk_0n7z3pO"/>
							<path d="M262.8,292.7c0.2,0.2,0.4,0.5,0.8,0.5c0.1,0,0.2,0,0.3-0.1c0-0.1,0.1-0.3-0.1-0.4&#10;&#9;&#9;&#9;&#9;&#9;&#9;&#9;&#9;c-0.3-0.1-0.5-0.2-0.8-0.4c-0.1,0-0.1,0-0.2,0C262.7,292.5,262.7,292.6,262.8,292.7z" id="el_c3gEIxt1itA"/>
							<path d="M234.1,294.6c-0.1,0.1-0.2,0.2-0.3,0.3c0,0.1-0.1,0.1,0,0.2c0.1,0.1,0.2,0.1,0.3,0c0,0,0,0,0,0&#10;&#9;&#9;&#9;&#9;&#9;&#9;&#9;&#9;c0.1-0.1,0.1-0.2,0.2-0.2c0.1-0.1,0.1-0.2,0-0.3C234.3,294.5,234.2,294.5,234.1,294.6z" id="el_NUotcgAH1Fx"/>
							<path d="M235.6,291.3c-0.2,0.1-0.3,0.2-0.4,0.4c0,0.1-0.1,0.1,0,0.2c0.1,0.1,0.1,0,0.2,0&#10;&#9;&#9;&#9;&#9;&#9;&#9;&#9;&#9;c0.1-0.1,0.3-0.2,0.4-0.3c0.1-0.1,0.1-0.2,0.1-0.3C235.7,291.3,235.6,291.3,235.6,291.3z" id="el_dI8BLd7XlCC"/>
							<path d="M265.8,293.4c0.2,0.1,0.3,0.2,0.5,0.3c0,0,0.1,0.1,0.1,0c0,0,0.1-0.1,0-0.1c-0.1-0.2-0.2-0.3-0.4-0.5&#10;&#9;&#9;&#9;&#9;&#9;&#9;&#9;&#9;c-0.1-0.1-0.2,0-0.2,0C265.8,293.2,265.8,293.3,265.8,293.4z" id="el_jygrmIjQUyp"/>
							<path d="M264.8,299.5c-0.1,0-0.1,0.1-0.1,0.1c-0.1,0,0-0.1,0-0.1c0-0.1,0-0.2,0-0.2c-0.1,0-0.1,0-0.1-0.1&#10;&#9;&#9;&#9;&#9;&#9;&#9;&#9;&#9;c0-0.2-0.1-0.1-0.2-0.1c0,0-0.1,0-0.1,0c0,0.1,0,0.1,0.1,0.2c0,0,0.1,0.1,0.1,0.1c0,0.1,0.1,0.2,0.3,0.3&#10;&#9;&#9;&#9;&#9;&#9;&#9;&#9;&#9;C264.8,299.7,264.8,299.6,264.8,299.5z" id="el_u0nV4-nYbUI"/>
							<path d="M243.3,296.9c0.1-0.1,0.2-0.1,0.2-0.2c0-0.1-0.1-0.1-0.2-0.1c-0.1,0-0.1,0-0.2,0.1&#10;&#9;&#9;&#9;&#9;&#9;&#9;&#9;&#9;c-0.1,0.1-0.4,0.1-0.3,0.3C243,297.1,243.2,296.9,243.3,296.9z" id="el_z6ilewd7i_9"/>
							<path d="M264.3,298.8C264.3,298.7,264.4,298.7,264.3,298.8c0.1-0.1,0.2-0.1,0.2-0.2c0-0.1-0.1-0.2-0.2-0.2&#10;&#9;&#9;&#9;&#9;&#9;&#9;&#9;&#9;c-0.1,0,0,0.1,0,0.1c0,0,0,0-0.1,0c-0.1,0-0.1,0.1-0.1,0.2c0,0,0,0.1,0,0.1C264.2,298.9,264.2,298.8,264.3,298.8&#10;&#9;&#9;&#9;&#9;&#9;&#9;&#9;&#9;C264.3,298.8,264.3,298.8,264.3,298.8z" id="el_4NkeZJ4bNh7"/>
							<path d="M263.1,299.5c-0.1,0-0.1-0.1-0.2-0.1c0,0.1,0,0.2,0,0.2c0.1,0.1,0.1,0,0.1-0.1c0.1,0,0.1-0.2,0.2-0.2&#10;&#9;&#9;&#9;&#9;&#9;&#9;&#9;&#9;c0,0,0.1-0.1,0-0.1c0,0,0,0,0,0c0,0-0.1,0-0.1,0.1C263.1,299.4,263.1,299.4,263.1,299.5z" id="el_NCleE3Drq9W"/>
							<path d="M263.6,299c-0.3,0-0.2,0.2-0.2,0.3c0,0.1,0.1,0.1,0.1,0.2c0-0.1,0.1-0.2,0.1-0.3&#10;&#9;&#9;&#9;&#9;&#9;&#9;&#9;&#9;C263.7,299.1,263.4,299.1,263.6,299z" id="el_DA4J7KODLh-"/>
							<path d="M265.2,300.2c0-0.1-0.2-0.1-0.2-0.2c0-0.1-0.1-0.2-0.2-0.2c0,0-0.1-0.1-0.1,0c0,0.1,0,0.1,0.1,0.1&#10;&#9;&#9;&#9;&#9;&#9;&#9;&#9;&#9;c0.2,0,0.2,0.1,0.1,0.2c0,0,0,0.2,0.1,0.1C265.1,300.2,265.2,300.2,265.2,300.2z" id="el_aUNcRpYiVoo"/>
							<path d="M263.7,298.7c0-0.1,0.2-0.1,0.1-0.2c0-0.1-0.1-0.1-0.1-0.1c0,0,0,0,0,0c-0.1,0.1,0,0.2-0.1,0.2&#10;&#9;&#9;&#9;&#9;&#9;&#9;&#9;&#9;C263.5,298.8,263.6,298.7,263.7,298.7z" id="el_QW6rXuXXQMP"/>
							<path d="M265.7,300.2c-0.1-0.1-0.3-0.2-0.2-0.3c0,0,0-0.1,0-0.1c-0.1,0-0.1,0.1-0.1,0.1&#10;&#9;&#9;&#9;&#9;&#9;&#9;&#9;&#9;C265.3,300.1,265.5,300.2,265.7,300.2z" id="el_-4JcwcN0RlI"/>
							<path d="M264.3,300.9c0.1-0.1,0.1-0.2,0.1-0.3c0-0.1-0.1-0.1-0.2-0.1C264.3,300.6,264.2,300.8,264.3,300.9z" id="el_-eOzqpbyXpm"/>
							<path d="M264.7,300.1c0-0.1-0.1-0.1-0.1-0.1c-0.1,0,0,0.1,0,0.1c0,0.1,0.1,0.1,0.2,0.1&#10;&#9;&#9;&#9;&#9;&#9;&#9;&#9;&#9;C264.8,300.2,264.7,300.2,264.7,300.1z" id="el_ktNbW_93z5d"/>
							<path d="M266,298.5c0,0.1,0.1,0.1,0.1,0.1c0,0,0.1-0.1,0-0.1c0,0,0,0,0,0c0,0-0.1-0.1-0.1-0.1&#10;&#9;&#9;&#9;&#9;&#9;&#9;&#9;&#9;C266,298.4,266,298.4,266,298.5z" id="el_xE1mGNltb1Y"/>
							<path d="M263.6,298.4c0,0,0.1-0.1,0-0.1c0,0-0.1-0.1-0.2,0c0,0-0.1,0-0.1,0.1&#10;&#9;&#9;&#9;&#9;&#9;&#9;&#9;&#9;C263.5,298.4,263.6,298.4,263.6,298.4z" id="el_OfwMttIRsJ_"/>
							<path d="M265.4,298.4c0,0,0.1,0.1,0.1,0c0,0,0-0.1,0-0.1c0-0.1-0.1-0.1-0.1-0.1&#10;&#9;&#9;&#9;&#9;&#9;&#9;&#9;&#9;C265.4,298.3,265.4,298.3,265.4,298.4C265.4,298.3,265.4,298.4,265.4,298.4z" id="el_0kisyPEEike"/>
						</g>
					</g>
				</g>
			</g>
		</g>
		<line x1="268.4" y1="315.6" x2="282.9" y2="343.4" id="el_v9uShlrDnRQ"/>
		<line x1="265.7" y1="317" x2="280.1" y2="344.8" id="el_T4w3DaxNsN_"/>
		<line x1="263" y1="318.4" x2="277.4" y2="346.2" id="el_gJ2yFF2S6Di"/>
		<line x1="260.3" y1="319.8" x2="274.7" y2="347.6" id="el_HK_2rIJXz83"/>
		<line x1="257.6" y1="321.2" x2="272" y2="349" id="el_dCJsvlOurn-"/>
		<g id="el_oEKEult4Rdu">
			<path d="M247.5,327.1c0.5,0,1.1-0.1,1.8-0.1c0.6-0.7,1.2-1.4,1.5-1.8c0-0.1-0.1-0.1-0.1-0.2c0.2-0.2,0.4-0.4,0.6-0.5&#10;&#9;&#9;&#9;&#9;c0.2,0,0.4,0.1,0.2,0.3c-0.2,0.3-1,1.4-1.5,2.1c1.5-0.1,3-0.2,3.1,0.1c0.1,0.1,0.1,0.4,0,0.5c-1-0.3-5.9,0.4-6.6,0.4&#10;&#9;&#9;&#9;&#9;c-0.1-0.1-0.1-0.6,0-0.7c0.3-0.1,0.5-0.2,0.8-0.3C247.5,326.9,247.4,327.1,247.5,327.1z" id="el_XtFYVfFeKvS"/>
			<path d="M252.2,328c0.1,0.2,0.1,0.6-0.5,0.9c-0.8,0.4-1.7,0.6-1.9,0.1c-0.1-0.2,0-0.4,0.1-0.5&#10;&#9;&#9;&#9;&#9;c-0.3,0.1-0.6,0.2-0.9,0.3c-0.3,0.2-0.5,0.4-0.3,0.7c0.3,0.5,1.2,0.5,1.7,0.2c0,0,0.1,0,0.1,0.1c0.1,0.1,0,0.2-0.2,0.3&#10;&#9;&#9;&#9;&#9;c-0.5,0.3-1.7,0.4-2-0.3c-0.3-0.5,0-1.2,0.7-1.6C250,327.8,251.9,327.5,252.2,328z M250,328.7c0.1,0.2,0.9,0,1.5-0.3&#10;&#9;&#9;&#9;&#9;c0.3-0.1,0.3-0.2,0.3-0.2c0,0-0.1,0-0.2,0c-0.5,0-1,0.1-1.5,0.3C250.1,328.5,250,328.6,250,328.7L250,328.7z" id="el_nOu5kmrL7wU"/>
			<path d="M252,328.9c0.2,0.2,0.4,0.4,0.5,0.6c0.3-0.1,0.6-0.1,1-0.1c0.1,0.1,0.1,0.5,0,0.5L253,330&#10;&#9;&#9;&#9;&#9;c0.1,0.1,0.1,0.2,0.2,0.3c0.1,0.1,0.2,0.2,0.1,0.3c-0.1,0.1,0,0.1,0,0.2c0,0.1-0.1,0.2-0.1,0.2c0,0-0.1,0-0.1,0c0,0,0,0,0,0&#10;&#9;&#9;&#9;&#9;c-0.2-0.3-0.4-0.6-0.6-0.9c-0.9,0.2-1.7,0.4-2.5,0.8c-0.2,0.1-0.2,0.2-0.2,0.3c0.3,0.4,0.8,0.6,1.3,0.5c0,0,0.2,0.2-0.2,0.4&#10;&#9;&#9;&#9;&#9;c-0.5,0.2-1.1-0.1-1.4-0.5c-0.2-0.4,0-1,0.7-1.4c0.6-0.3,1.3-0.5,2-0.7l-0.2-0.3C251.7,329.2,251.9,328.8,252,328.9z" id="el_U9YOTjx-6nH"/>
			<path d="M253.3,331.2c0.1,0,0.1,0,0.1,0.1c0,0,0.2,0.5,0,0.6c-0.9,0.2-1.8,0.4-2.7,0.8c-0.2,0.1-0.3,0.3-0.2,0.4&#10;&#9;&#9;&#9;&#9;c0.2,0.4,0.9,0.1,1.2,0c0.1,0.1,0.1,0.2,0,0.3c0,0,0,0-0.1,0.1c-0.5,0.3-1.3,0.2-1.6-0.3c-0.2-0.4,0-0.7,0.5-0.9&#10;&#9;&#9;&#9;&#9;C251.5,331.7,252.4,331.4,253.3,331.2z M254.3,330.8c0.2-0.1,0.7-0.3,0.9,0c0.1,0.2,0.1,0.3-0.1,0.3c0,0.1-0.1,0.3-0.2,0.3&#10;&#9;&#9;&#9;&#9;c-0.3,0.2-0.7,0.1-0.8-0.2c0,0,0,0,0,0C254,331.2,254.1,331,254.3,330.8L254.3,330.8z" id="el_n7SD31EEHjA"/>
		</g>
		<g id="el_Kcma0UAIpkw">
			<path d="M283.3,312.4c-1.2,0.7-2.6,0.2-3.3-0.9c0,0-0.1-0.1-0.1-0.1l-0.9-1.7l4.4-2.3l0.9,1.7&#10;&#9;&#9;&#9;&#9;c0.7,1.2,0.3,2.6-0.9,3.3C283.4,312.4,283.4,312.4,283.3,312.4z M282.8,311.5c0.7-0.3,1-1.1,0.7-1.8c0,0,0-0.1-0.1-0.1l-0.4-0.7&#10;&#9;&#9;&#9;&#9;l-2.6,1.4l0.4,0.7c0.3,0.7,1.2,1,1.9,0.7C282.8,311.5,282.8,311.5,282.8,311.5L282.8,311.5z" id="el_bK6CuActFDf"/>
			<path d="M286,314.5l-0.9,0.5l-0.2-0.4c-0.3-0.5-0.6-0.6-1.2-0.3l-1.8,0.9l-0.5-0.9l3.4-1.8l0.3,0.6l-0.3,0.4&#10;&#9;&#9;&#9;&#9;c0.4,0.1,0.8,0.4,0.9,0.8L286,314.5z" id="el_wQEIyE4UHoi"/>
			<path d="M286.2,315.1l0.5,0.9l-3.4,1.8l-0.5-0.9L286.2,315.1z M287.5,314.4l0.5,0.9l-0.9,0.4l-0.5-0.9L287.5,314.4z" id="el_KPrZT0BHwjT"/>
			<path d="M288.8,320l-4.1,0.4l-0.4-0.8l2.7-3.2l0.5,1l-1.8,2l2.7-0.4L288.8,320z" id="el_cbxgHKh_qQZ"/>
			<path d="M288.7,324.7l-1.3-2.6c-0.4,0.3-0.5,0.8-0.3,1.2c0.1,0.3,0.4,0.5,0.8,0.5l0.5,1c-1.1,0.2-2.2-0.5-2.5-1.6&#10;&#9;&#9;&#9;&#9;s0.5-2.2,1.6-2.5s2.2,0.5,2.5,1.6c0.2,0.9-0.2,1.8-1,2.2C288.9,324.6,288.8,324.7,288.7,324.7z M288,321.8l0.9,1.6&#10;&#9;&#9;&#9;&#9;c0.3-0.3,0.4-0.8,0.2-1.2C288.9,321.9,288.5,321.7,288,321.8L288,321.8z" id="el_XSHSe90_iLE"/>
			<path d="M292.1,326.4l-0.9,0.5l-0.2-0.4c-0.3-0.5-0.6-0.6-1.2-0.3l-1.8,0.9l-0.5-0.9l3.4-1.8l0.3,0.6l-0.3,0.4&#10;&#9;&#9;&#9;&#9;c0.4,0.1,0.8,0.4,0.9,0.8L292.1,326.4z" id="el__X1c1J5XyhP"/>
			<path d="M275.1,315.2l-0.9,0.5l-1.4-2.6l4.4-2.3l0.5,1l-3.5,1.8L275.1,315.2z" id="el_nSGoY_B74LB"/>
			<path d="M277.9,314.4l0.5,0.9l-3.4,1.8l-0.5-0.9L277.9,314.4z M279.2,313.7l0.5,0.9l-0.9,0.4l-0.5-0.9L279.2,313.7z" id="el_Cw9MKLn7ufn"/>
			<path d="M277,316.9c1-0.5,2.2-0.2,2.7,0.8c0,0,0,0.1,0,0.1c0.5,0.8,0.3,1.9-0.5,2.5l-0.5-0.9&#10;&#9;&#9;&#9;&#9;c0.3-0.4,0.3-1.1-0.1-1.4c-0.3-0.3-0.8-0.3-1.1-0.1c-0.5,0.2-0.7,0.8-0.5,1.3c0,0,0,0,0,0c0.2,0.4,0.6,0.6,1,0.5l0.5,0.9&#10;&#9;&#9;&#9;&#9;c-0.9,0.3-1.9-0.1-2.3-1C275.6,318.7,276,317.4,277,316.9C277,316.9,277,316.9,277,316.9z" id="el_n-YmfJkUhMc"/>
			<path d="M280.6,324.5l-1.3-2.6c-0.4,0.3-0.5,0.8-0.3,1.2c0.1,0.3,0.4,0.5,0.8,0.5l0.5,1c-1.1,0.2-2.2-0.5-2.5-1.6&#10;&#9;&#9;&#9;&#9;c-0.2-1.1,0.5-2.2,1.7-2.5c1.1-0.2,2.2,0.5,2.5,1.6c0.2,0.9-0.2,1.8-1,2.2C280.8,324.4,280.7,324.4,280.6,324.5z M279.9,321.6&#10;&#9;&#9;&#9;&#9;l0.9,1.6c0.3-0.3,0.4-0.8,0.2-1.2C280.8,321.7,280.3,321.5,279.9,321.6L279.9,321.6z" id="el_CfEmBIIUDQb"/>
			<path d="M283.2,328l-2.1,1.1l-0.5-0.9l1.9-1c0.5-0.3,0.7-0.6,0.5-1c-0.2-0.4-0.7-0.6-1.2-0.4c0,0-0.1,0-0.1,0.1&#10;&#9;&#9;&#9;&#9;l-1.8,0.9l-0.5-0.9l3.4-1.8l0.3,0.6l-0.3,0.4c0.5,0.1,0.9,0.4,1.1,0.9c0.4,0.7,0.1,1.5-0.6,1.9C283.4,328,283.3,328,283.2,328z" id="el_qCzSKocSzuy"/>
			<path d="M282.6,329.1l0.5,0.9c-0.3,0.2-0.3,0.5-0.2,0.8c0.1,0.3,0.4,0.4,0.6,0.3c0.2-0.1,0.1-0.5,0-0.8&#10;&#9;&#9;&#9;&#9;c-0.2-0.6-0.4-1.4,0.4-1.8c0.6-0.3,1.4,0,1.8,0.8c0.4,0.6,0.3,1.4-0.3,1.9c0,0-0.1,0.1-0.1,0.1l-0.5-0.9c0.3-0.1,0.3-0.4,0.1-0.7&#10;&#9;&#9;&#9;&#9;c-0.1-0.3-0.4-0.4-0.6-0.3c-0.2,0.1-0.1,0.4,0,0.8c0.2,0.6,0.4,1.4-0.4,1.8c-0.7,0.4-1.4,0-1.9-0.8c-0.5-0.6-0.3-1.5,0.4-2&#10;&#9;&#9;&#9;&#9;C282.5,329.2,282.6,329.1,282.6,329.1z" id="el_VdMQKwVMew7"/>
			<path d="M286.5,335.8l-1.3-2.6c-0.4,0.3-0.5,0.8-0.3,1.2c0.1,0.3,0.4,0.5,0.8,0.5l0.5,1c-1.1,0.2-2.2-0.5-2.5-1.6&#10;&#9;&#9;&#9;&#9;c-0.2-1.1,0.5-2.2,1.6-2.5c1.1-0.2,2.2,0.5,2.5,1.6c0.2,0.9-0.2,1.8-1,2.2C286.7,335.7,286.6,335.7,286.5,335.8z M285.8,332.9&#10;&#9;&#9;&#9;&#9;l0.9,1.6c0.3-0.3,0.4-0.8,0.2-1.2C286.7,333,286.2,332.8,285.8,332.9L285.8,332.9z" id="el_7RJ3man6Oj9"/>
		</g>
	</g>
	<path id="el_ksgdLAI8JUw" d="M277,399.6l-6.5-57.6c-1.2-4.7-6.5-7.9-11.8-7c-5.3,0.8-7.4,2.8-7.4,10l0.1,15.2l0.8,9.6&#10;&#9;&#9;c-0.2,3.6,0.2,7.3,1.4,10.8c1.9,5.7,0.1-4-1.9,1.6l-0.6,1.8c-4,14-0.8,29.4,3.4,35.8c2.1,3.2,3.1,6,6.5,8.1&#10;&#9;&#9;c5.2,3.3,7.8,19.2,10.8,29.2c4.2,14.1,7.1,39.2,7.1,39.2l16.6,130.3h71l-71.9-225.5"/>
</g></g>
</svg>