<svg version="1.1" id="el_l4LK1tP9-" xmlns="http://www.w3.org/2000/svg" xmlns:xlink="http://www.w3.org/1999/xlink" x="0px" y="0px" viewBox="0 0 385 626" style="enable-background:new 0 0 385 626.6;" xml:space="preserve"><style>@-webkit-keyframes kf_el_satsTo3yqET_an_wFMXVfDYF{0%{-webkit-transform: translate(220.31048583984375px, 244.5999298095703px) translate(-220.31048583984375px, -244.5999298095703px) translate(50px, 380px);transform: translate(220.31048583984375px, 244.5999298095703px) translate(-220.31048583984375px, -244.5999298095703px) translate(50px, 380px);}16.67%{-webkit-transform: translate(220.31048583984375px, 244.5999298095703px) translate(-220.31048583984375px, -244.5999298095703px) translate(50px, 380px);transform: translate(220.31048583984375px, 244.5999298095703px) translate(-220.31048583984375px, -244.5999298095703px) translate(50px, 380px);}40%{-webkit-transform: translate(220.31048583984375px, 244.5999298095703px) translate(-220.31048583984375px, -244.5999298095703px) translate(0px, 0px);transform: translate(220.31048583984375px, 244.5999298095703px) translate(-220.31048583984375px, -244.5999298095703px) translate(0px, 0px);}43.33%{-webkit-transform: translate(220.31048583984375px, 244.5999298095703px) translate(-220.31048583984375px, -244.5999298095703px) translate(0px, 5px);transform: translate(220.31048583984375px, 244.5999298095703px) translate(-220.31048583984375px, -244.5999298095703px) translate(0px, 5px);}65.56%{-webkit-transform: translate(220.31048583984375px, 244.5999298095703px) translate(-220.31048583984375px, -244.5999298095703px) translate(0px, 5px);transform: translate(220.31048583984375px, 244.5999298095703px) translate(-220.31048583984375px, -244.5999298095703px) translate(0px, 5px);}81.11%{-webkit-transform: translate(220.31048583984375px, 244.5999298095703px) translate(-220.31048583984375px, -244.5999298095703px) translate(-100px, 380px);transform: translate(220.31048583984375px, 244.5999298095703px) translate(-220.31048583984375px, -244.5999298095703px) translate(-100px, 380px);}100%{-webkit-transform: translate(220.31048583984375px, 244.5999298095703px) translate(-220.31048583984375px, -244.5999298095703px) translate(-100px, 380px);transform: translate(220.31048583984375px, 244.5999298095703px) translate(-220.31048583984375px, -244.5999298095703px) translate(-100px, 380px);}}@keyframes kf_el_satsTo3yqET_an_wFMXVfDYF{0%{-webkit-transform: translate(220.31048583984375px, 244.5999298095703px) translate(-220.31048583984375px, -244.5999298095703px) translate(50px, 380px);transform: translate(220.31048583984375px, 244.5999298095703px) translate(-220.31048583984375px, -244.5999298095703px) translate(50px, 380px);}16.67%{-webkit-transform: translate(220.31048583984375px, 244.5999298095703px) translate(-220.31048583984375px, -244.5999298095703px) translate(50px, 380px);transform: translate(220.31048583984375px, 244.5999298095703px) translate(-220.31048583984375px, -244.5999298095703px) translate(50px, 380px);}40%{-webkit-transform: translate(220.31048583984375px, 244.5999298095703px) translate(-220.31048583984375px, -244.5999298095703px) translate(0px, 0px);transform: translate(220.31048583984375px, 244.5999298095703px) translate(-220.31048583984375px, -244.5999298095703px) translate(0px, 0px);}43.33%{-webkit-transform: translate(220.31048583984375px, 244.5999298095703px) translate(-220.31048583984375px, -244.5999298095703px) translate(0px, 5px);transform: translate(220.31048583984375px, 244.5999298095703px) translate(-220.31048583984375px, -244.5999298095703px) translate(0px, 5px);}65.56%{-webkit-transform: translate(220.31048583984375px, 244.5999298095703px) translate(-220.31048583984375px, -244.5999298095703px) translate(0px, 5px);transform: translate(220.31048583984375px, 244.5999298095703px) translate(-220.31048583984375px, -244.5999298095703px) translate(0px, 5px);}81.11%{-webkit-transform: translate(220.31048583984375px, 244.5999298095703px) translate(-220.31048583984375px, -244.5999298095703px) translate(-100px, 380px);transform: translate(220.31048583984375px, 244.5999298095703px) translate(-220.31048583984375px, -244.5999298095703px) translate(-100px, 380px);}100%{-webkit-transform: translate(220.31048583984375px, 244.5999298095703px) translate(-220.31048583984375px, -244.5999298095703px) translate(-100px, 380px);transform: translate(220.31048583984375px, 244.5999298095703px) translate(-220.31048583984375px, -244.5999298095703px) translate(-100px, 380px);}}#el_l4LK1tP9- *{-webkit-animation-duration: 3s;animation-duration: 3s;-webkit-animation-iteration-count: infinite;animation-iteration-count: infinite;-webkit-animation-timing-function: cubic-bezier(0, 0, 1, 1);animation-timing-function: cubic-bezier(0, 0, 1, 1);}#el_EoDiiydcUw{fill: #1A1A1A;}#el_8bZukX6ThR{fill: #1A1A1A;}#el_6CAmysQSd-{fill: #1A1A1A;}#el_Mi0B--CUaT{fill: #1A1A1A;}#el_egJgKoiaAk{fill: #E6E6E6;}#el_KCWwTVXnOY{fill: #FE7F78;}#el_dzRtL8gOE0{fill: #37E8D7;}#el_xHZRNzrooq{fill: #333333;}#el_zESXdfzAAZ{fill: #D6D6D6;}#el_6mrArny1Qb{fill: #231F20;}#el_HacWrAphbZr{fill: #F2F2F2;}#el_B_a844MdBUz{fill: #FFFFFF;}#el_QA4Fdvjvqqy{fill: #0E4160;}#el_okF7B2PRK5A{fill: #0E4160;}#el_FivtX7HZPio{fill: #0E4160;}#el_lr5WrHhxZaY{fill: #0E4160;}#el_B7hsSpkMtkD{fill: #0E4160;}#el_G1HBlxYxE16{fill: #0E4160;}#el__AvXRu0xHPD{fill: #0E4160;}#el_A1B60x3BI7k{fill: #0E4160;}#el_cspTKt_eWXW{fill: #0E4160;}#el_4Y_MTjR33TS{fill: #0E4160;}#el_lk6I5MZh5HE{fill: #0E4160;}#el_yJUCJq3VHA-{fill: #0E4160;}#el_2tNxZznBhTL{fill: #FFFFFF;}#el_4HW2vW6o3qg{fill: #FFFFFF;}#el_v0Txefl7dV0{fill: #0E4160;}#el_UrJ5B3qeB3a{fill: #0E4160;}#el_FbNtTqZ31qs{fill: #FFFFFF;}#el_EBImEyVa7qR{fill: #0E4160;}#el_aFiyzKLKk2g{fill: #0E4160;}#el_GDkWmBjDyoI{fill: #0E4160;}#el_Jn8PDZPQZTP{fill: #0E4160;}#el_qHS_8yfjETw{fill: #0E4160;}#el_jePKCoaz8Yc{fill: #1A1A1A;}#el_lnHEYz59BqX{fill: #666666;}#el_SPNX2Nl_UlH{fill: #808080;}#el_O8ZcI2nPYgK{fill: #666666;}#el_8oi_DnE7aY1{fill: #999999;}#el_ad_6Cih1QwJ{fill: #1A1A1A;}#el_dZkO18s0AYk{fill: #1A1A1A;}#el_6lH83Hm82TL{fill: #666666;}#el_rfNTd2PkXtd{fill: #999999;}#el_U52SBqRCWjj{fill: #1A1A1A;}#el_IVoA5M2FxwD{fill: #333333;}#el_TevQ31Tthra{fill: #333333;}#el_87sCKhgKXvN{fill: #CCCCCC;}#el_Erg_pCjFvXv{fill: #CCCCCC;}#el_NmX8yVgyHga{display: none;fill: #B3B3B3;}#el_ExuLA3wvoWD{fill: #B3B3B3;}#el_c72IgnK2Uz5{fill: #B3B3B3;}#el_bklNkCdI9bR{fill: #B3B3B3;}#el_VpHvfmr9fuV{fill: #B3B3B3;}#el_dZ-37iiaAa8{fill: #FFFFFF;}#el_Gy1cUa672iU{fill: #B3B3B3;}#el_satsTo3yqET_an_wFMXVfDYF{-webkit-animation-fill-mode: backwards;animation-fill-mode: backwards;-webkit-transform: translate(220.31048583984375px, 244.5999298095703px) translate(-220.31048583984375px, -244.5999298095703px) translate(50px, 380px);transform: translate(220.31048583984375px, 244.5999298095703px) translate(-220.31048583984375px, -244.5999298095703px) translate(50px, 380px);-webkit-animation-name: kf_el_satsTo3yqET_an_wFMXVfDYF;animation-name: kf_el_satsTo3yqET_an_wFMXVfDYF;-webkit-animation-timing-function: cubic-bezier(0.42, 0, 0.58, 1);animation-timing-function: cubic-bezier(0.42, 0, 0.58, 1);}</style>
<style>svg { cursor: none; }</style>
<g id="el_z0QOKEtY9Z">
	<path d="M383.2,351.1c0,0,4,23.1,0,37.7s-14.7,38.9-14.7,38.9H16.4c0,0-10.7-24.4-14.7-38.9s0-37.7,0-37.7l6.9-57&#xA;&#9;&#9;l28.1-222c0,0,4-36.9,25.6-52.6c0,0,10.4-8.5,19.1-10.7c8.6-2.2,21.5-4.1,35.2-5.4c19.9-2.2,39.8-3.3,59.8-3.4h32.2&#xA;&#9;&#9;c20,0.1,39.9,1.2,59.8,3.4c13.6,1.3,26.5,3.2,35.2,5.4c8.6,2.2,19,10.7,19,10.7c21.7,15.7,25.6,52.6,25.6,52.6l28.1,222&#xA;&#9;&#9;L383.2,351.1z" id="el_EoDiiydcUw"/>
	<path d="M367.7,429.4h0.3v1.3c0,0.6-0.1,1.3-0.3,1.9c-0.4,2-0.9,3.9-1.6,5.8L261.4,626.6H118.9L18.8,438.4&#xA;&#9;&#9;c-0.7-1.9-1.2-3.9-1.6-5.8c-0.1-0.6-0.2-1.3-0.3-1.9v-1.3L367.7,429.4L367.7,429.4z" id="el_8bZukX6ThR"/>
	<rect x="18.5" y="427.6" width="347.9" height="1.8" id="el_6CAmysQSd-"/>
</g>
<g id="el_AXYM9itSWm">
	<path d="M383.2,351.1c0,0,4,23.1,0,37.7s-14.7,38.9-14.7,38.9H16.4c0,0-10.7-24.4-14.7-38.9s0-37.7,0-37.7l6.9-57&#xA;&#9;&#9;l28.1-222c0,0,4-36.9,25.6-52.6c0,0,10.4-8.5,19-10.7s21.5-4.1,35.2-5.4c19.9-2.2,39.8-3.3,59.8-3.4h32.2c20,0.1,39.9,1.2,59.8,3.4&#xA;&#9;&#9;c13.6,1.3,26.5,3.2,35.2,5.4s19,10.7,19,10.7c21.7,15.7,25.6,52.6,25.6,52.6l28.1,222L383.2,351.1z M342.5,374.7&#xA;&#9;&#9;c8.4-9.9,13-17.4,11-33.2s-5-43.7-5-43.7L320.4,66.7c0,0-3.4-35.2-43.4-39s-55.6-5.5-86.8-5.5s-46.8,1.8-86.8,5.5S60,66.7,60,66.7&#xA;&#9;&#9;L31.8,297.9c0,0-3.8,21.7,6.7,32.2s14.3,14.5,35.2,14.5H144c0,0,12.5,0,17.1,2c4,1.5,7.9,3.5,11.4,5.9c3.3,2.2,17.6,12.2,25.7,18&#xA;&#9;&#9;c2.6,1.8,5.1,3.7,7.6,5.6c7.4,5.5,16.4,8.4,25.6,8.3h85.1C316.5,384.4,334.1,384.6,342.5,374.7L342.5,374.7z" id="el_Mi0B--CUaT"/>
	<path id="el_egJgKoiaAk" d="M368,429.4v1.3c0,0.6-0.1,1.3-0.3,1.9c-0.4,2-0.9,3.9-1.6,5.8l-64.3,188.2H83.2L18.8,438.4&#xA;&#9;&#9;c-0.7-1.9-1.2-3.9-1.6-5.8c-0.1-0.6-0.2-1.3-0.3-1.9v-1.3l44.5,106.2c0,0,15.1,32.7,41.8,35.3c0,0,9.4,0.3,17.6,0.3h142.9&#xA;&#9;&#9;c8.2,0,17.6-0.3,17.6-0.3c26.7-2.6,41.8-35.3,41.8-35.3l44.5-106.2L368,429.4L368,429.4z"/>
	<rect id="el_mBPAABUxtw" x="18.5" y="427.6" width="347.9" height="1.8"/>
	<g id="el_4ocqmMvHDV">
		<polygon id="el_KCWwTVXnOY" points="294.6,101.5 296.6,224.6 192.5,225.6 88.4,224.6 90.4,101.5 &#xA;&#9;&#9;&#9;192.5,101.5 &#9;&#9;"/>
		<polygon id="el_dzRtL8gOE0" points="294.6,101.5 296.6,224.6 192.5,225.6 88.4,224.6 90.4,101.5 &#xA;&#9;&#9;&#9;192.5,101.5 &#9;&#9;"/>
		<path id="el_xHZRNzrooq" d="M296.4,365.4c1.4-1.4,2.1-3.2,2.1-5.2l-1.3-92.9c-0.1-3.8-3.2-6.9-7-6.9h-65.5&#xA;&#9;&#9;&#9;c-3.9,0-7,3.1-7,7l0,0l0.3,92.9c0,4,3.2,7.2,7.2,7.2h66.2C293.3,367.5,295.1,366.7,296.4,365.4z M353.5,341.6&#xA;&#9;&#9;&#9;c2,15.8-2.6,23.3-11,33.2s-25.9,9.7-25.9,9.7h-85.1c-9.2,0.1-18.2-2.9-25.6-8.3c-2.5-1.9-5-3.8-7.6-5.6&#xA;&#9;&#9;&#9;c-8.1-5.7-22.5-15.8-25.7-18c-3.6-2.4-7.4-4.4-11.4-5.9c-4.6-2-17.1-2-17.1-2H73.7c-20.9,0-24.6-4-35.2-14.5S31.8,298,31.8,298&#xA;&#9;&#9;&#9;L59.9,66.7c0,0,3.4-35.2,43.4-39s55.6-5.5,86.8-5.5s46.8,1.8,86.8,5.5s43.4,39,43.4,39l28.1,231.2&#xA;&#9;&#9;&#9;C348.5,297.9,351.5,325.7,353.5,341.6L353.5,341.6z M296.6,224.6l-2.1-123.1H90.4l-2.1,123.1l104.1,1L296.6,224.6z M199.9,82.3&#xA;&#9;&#9;&#9;c0-5.7-3.4-10.4-7.6-10.4s-7.6,4.7-7.6,10.4c0,5.7,3.4,10.4,7.6,10.4S199.9,88,199.9,82.3z"/>
		<g id="el_woYeUlE67_">
			<path d="M220.2,365.5c-1.4-1.3-2.2-3.2-2.2-5.2l-0.3-92.9c0-3.9,3.1-7,7-7l0,0h65.5c3.8,0,6.9,3.1,7,6.9l1.3,92.9&#xA;&#9;&#9;&#9;&#9;c0.1,4-3.1,7.2-7.1,7.3h-0.1h-66.2C223.3,367.5,221.5,366.8,220.2,365.5z M260.6,321.6c0-1.3-1-2.3-2.3-2.3s-2.3,1-2.3,2.3&#xA;&#9;&#9;&#9;&#9;s1,2.3,2.3,2.3S260.6,322.9,260.6,321.6z" id="el_zESXdfzAAZ"/>
			<path id="el_6mrArny1Qb" d="M258.3,319.2c1.3,0,2.3,1,2.3,2.3s-1,2.3-2.3,2.3s-2.3-1-2.3-2.3l0,0&#xA;&#9;&#9;&#9;&#9;C256,320.3,257,319.3,258.3,319.2z"/>
			<circle cx="258.3" cy="321.6" r="2.3" id="el_ChpNGEk-2AU"/>
		</g>
		<path id="el_XLCMVzDzDpx" d="M192.4,71.9c4.2,0,7.6,4.7,7.6,10.4c0,5.7-3.4,10.4-7.6,10.4s-7.6-4.7-7.6-10.4&#xA;&#9;&#9;&#9;C184.8,76.5,188.2,71.9,192.4,71.9z"/>
		<g id="el_VCIVemdTLVb">
			<g id="el_AWrz8cdY1Bd">
				<polygon points="261.5,192.9 258.5,189.8 255.4,192.9 252.4,189.8 249.4,192.9 246.3,189.8 243.3,192.9 &#xA;&#9;&#9;&#9;&#9;&#9;240.3,189.8 237.2,192.9 234.2,189.8 231.2,192.9 228.1,189.8 225.1,192.9 225.1,123.1 228.1,126.2 231.2,123.1 234.2,126.2 &#xA;&#9;&#9;&#9;&#9;&#9;237.2,123.1 240.3,126.2 243.3,123.1 246.3,126.2 249.4,123.1 252.4,126.2 255.4,123.1 258.5,126.2 261.5,123.1 &#9;&#9;&#9;&#9;" id="el_HacWrAphbZr"/>
			</g>
			<g id="el_XG-lAsmBnY4">
				<rect x="230.8" y="135.1" width="25.1" height="25.5" id="el_B_a844MdBUz"/>
				<g id="el_RR4vrweTtOq">
					<rect x="230.8" y="135.1" width="8.4" height="8.5" id="el_QA4Fdvjvqqy"/>
					<rect x="239.1" y="135.1" width="4.2" height="4.3" id="el_okF7B2PRK5A"/>
					<rect x="243.3" y="139.4" width="4.2" height="4.3" id="el_FivtX7HZPio"/>
					<rect x="247.5" y="135.1" width="4.2" height="4.3" id="el_lr5WrHhxZaY"/>
					<rect x="251.7" y="139.4" width="4.2" height="8.5" id="el_B7hsSpkMtkD"/>
					<rect x="243.3" y="147.9" width="4.2" height="4.3" id="el_G1HBlxYxE16"/>
					<polygon points="247.5,152.1 247.5,156.4 251.7,156.4 251.7,160.6 255.8,160.6 255.8,152.1 &#9;&#9;&#9;&#9;&#9;" id="el__AvXRu0xHPD"/>
					<rect x="239.1" y="152.1" width="4.2" height="4.3" id="el_A1B60x3BI7k"/>
					<rect x="234.9" y="143.6" width="4.2" height="4.3" id="el_cspTKt_eWXW"/>
					<rect x="230.8" y="152.1" width="4.2" height="4.3" id="el_4Y_MTjR33TS"/>
					<rect x="234.9" y="156.4" width="4.2" height="4.3" id="el_lk6I5MZh5HE"/>
					<rect x="230.8" y="156.4" width="4.2" height="4.3" id="el_yJUCJq3VHA-"/>
				</g>
			</g>
			<g id="el_NgbNF15OiMy">
				<path d="M187,139.1h-73.9c-1.2,0-2.2-1-2.2-2.2s1-2.2,2.2-2.2H187c1.2,0,2.2,1,2.2,2.2S188.3,139.1,187,139.1z" id="el_2tNxZznBhTL"/>
				<path d="M164.8,150.2h-51.7c-1.2,0-2.2-1-2.2-2.2s1-2.2,2.2-2.2h51.7c1.2,0,2.2,1,2.2,2.2S166,150.2,164.8,150.2z" id="el_4HW2vW6o3qg"/>
				<path d="M164.8,166.5h-51.7c-0.6,0-1.1-0.5-1.1-1.1s0.5-1.1,1.1-1.1h51.7c0.6,0,1.1,0.5,1.1,1.1&#xA;&#9;&#9;&#9;&#9;&#9;S165.4,166.5,164.8,166.5z" id="el_v0Txefl7dV0"/>
				<path d="M153.1,174.9h-40c-0.6,0-1.1-0.5-1.1-1.1s0.5-1.1,1.1-1.1h40c0.6,0,1.1,0.5,1.1,1.1&#xA;&#9;&#9;&#9;&#9;&#9;S153.7,174.9,153.1,174.9z" id="el_UrJ5B3qeB3a"/>
				<path d="M153.1,189.8h-40c-0.6,0-1.1-0.5-1.1-1.1s0.5-1.1,1.1-1.1h40c0.6,0,1.1,0.5,1.1,1.1&#xA;&#9;&#9;&#9;&#9;&#9;S153.7,189.8,153.1,189.8z" id="el_FbNtTqZ31qs"/>
			</g>
			<path d="M253.6,166h-22.7c-0.2,0-0.3-0.1-0.3-0.3c0-0.2,0.1-0.3,0.3-0.3h22.7c0.2,0,0.3,0.1,0.3,0.3&#xA;&#9;&#9;&#9;&#9;C253.9,165.8,253.8,166,253.6,166z" id="el_EBImEyVa7qR"/>
			<path d="M253.6,167.7h-22.7c-0.2,0-0.3-0.1-0.3-0.3s0.1-0.3,0.3-0.3h22.7c0.2,0,0.3,0.1,0.3,0.3&#xA;&#9;&#9;&#9;&#9;S253.8,167.7,253.6,167.7z" id="el_aFiyzKLKk2g"/>
			<path d="M253.6,169.7h-22.7c-0.2,0-0.3-0.1-0.3-0.3c0-0.2,0.1-0.3,0.3-0.3h22.7c0.2,0,0.3,0.1,0.3,0.3&#xA;&#9;&#9;&#9;&#9;C253.9,169.6,253.8,169.7,253.6,169.7z" id="el_GDkWmBjDyoI"/>
			<path d="M241.1,174.2h-10.2c-0.2,0-0.3-0.1-0.3-0.3c0-0.2,0.1-0.3,0.3-0.3h10.2c0.2,0,0.3,0.1,0.3,0.3&#xA;&#9;&#9;&#9;&#9;C241.4,174.1,241.2,174.2,241.1,174.2z" id="el_Jn8PDZPQZTP"/>
			<path d="M253.8,174.2h-10.2c-0.2,0-0.3-0.1-0.3-0.3c0-0.2,0.1-0.3,0.3-0.3h10.2c0.2,0,0.3,0.1,0.3,0.3&#xA;&#9;&#9;&#9;&#9;C254.1,174.1,254,174.2,253.8,174.2z" id="el_qHS_8yfjETw"/>
		</g>
	</g>
	<g id="el_ika2gwj0W22">
		<path d="M367.7,429.4l-44.5,106.2c0,0-15.1,32.7-41.8,35.3c0,0-9.4,0.3-17.6,0.3H120.9c-8.2,0-17.6-0.3-17.6-0.3&#xA;&#9;&#9;&#9;c-26.7-2.6-41.8-35.3-41.8-35.3L17,429.4H367.7z M289.6,547.6c0-1.4-1.1-2.4-2.4-2.4h-50.8c-1.4,0-2.4,1.1-2.4,2.5&#xA;&#9;&#9;&#9;c0,1.3,1.1,2.4,2.4,2.4h50.8C288.5,550,289.6,548.9,289.6,547.6L289.6,547.6L289.6,547.6z M161.9,546.7c0-1.4-1.1-2.4-2.4-2.4l0,0&#xA;&#9;&#9;&#9;h-50.8c-1.4,0-2.4,1.1-2.4,2.4c0,1.4,1.1,2.4,2.4,2.4l0,0h50.8C160.8,549.1,161.9,548,161.9,546.7L161.9,546.7z" id="el_jePKCoaz8Yc"/>
		<g id="el_xiaGyLFnetX">
			<g id="el_ZYOVkeyEJl0">
				<path d="M90.5,517.6v1.8c0,2.5,2,4.4,4.4,4.4h78.2c2.5,0,4.4-2,4.4-4.4l0,0v-35.3c0-2.5-2-4.4-4.4-4.4l0,0H94.9&#xA;&#9;&#9;&#9;&#9;&#9;c-2.5,0-4.4,2-4.4,4.4v24.8h-0.3v5.2c0.1,0.2,0.2,0.4,0.3,0.5V517.6z M179.9,482.4v39.8c0,2.7-2.2,4.8-4.8,4.8l0,0H93&#xA;&#9;&#9;&#9;&#9;&#9;c-2.7,0-4.8-2.2-4.8-4.8l0,0v-39.8c0-2.7,2.2-4.8,4.8-4.8l0,0h82.1C177.7,477.6,179.9,479.7,179.9,482.4L179.9,482.4z" id="el_1Hi3cJP6dr8"/>
				<path d="M177.6,517.1v2.3c0,2.5-2,4.4-4.4,4.4l0,0H94.9c-2.5,0-4.4-2-4.4-4.4v-1.8c1.1,1.8,3,2.9,5,2.9h25.6&#xA;&#9;&#9;&#9;&#9;&#9;c0,0,2.2-0.3,5.4-3.5c1.6-1.5,3.7-2.4,6-2.5h1.9c2.4,0,4.7,0.9,6.5,2.5c3.1,3.1,5.4,3.5,5.4,3.5h25.6c3.7,0,5.4-3.5,5.4-3.5&#xA;&#9;&#9;&#9;&#9;&#9;L177.6,517.1z" id="el_lnHEYz59BqX"/>
				<path d="M177.6,514.1v3h-0.3c0,0-1.7,3.5-5.4,3.5h-25.6c0,0-2.2-0.3-5.4-3.5c-1.7-1.7-4.1-2.6-6.5-2.5h-1.9&#xA;&#9;&#9;&#9;&#9;&#9;c-2.2,0.1-4.4,1-6,2.5c-3.1,3.1-5.4,3.5-5.4,3.5H95.5c-2.1-0.1-4-1.2-5-2.9v-3c1.1,1.8,3,2.9,5,2.9h25.6c0,0,2.2-0.3,5.4-3.5&#xA;&#9;&#9;&#9;&#9;&#9;c1.7-1.6,3.8-2.5,6.1-2.5h2c2.3,0,4.6,0.9,6.3,2.5c3.1,3.1,5.4,3.5,5.4,3.5h25.6c3.7,0,5.4-3.5,5.4-3.5H177.6z" id="el_SPNX2Nl_UlH"/>
				<path d="M177.6,484.1v30h-0.3v-5.2h-2.6v-22H94.2v22h-3.7v-24.8c0-2.5,2-4.4,4.4-4.4h78.2&#xA;&#9;&#9;&#9;&#9;&#9;C175.6,479.7,177.6,481.7,177.6,484.1L177.6,484.1z" id="el_O8ZcI2nPYgK"/>
				<path d="M177.2,508.9v5.2c0,0-1.7,3.5-5.4,3.5h-25.6c0,0-2.2-0.3-5.4-3.5c-1.7-1.6-3.9-2.5-6.3-2.5h-2&#xA;&#9;&#9;&#9;&#9;&#9;c-2.3,0-4.5,0.9-6.1,2.5c-3.1,3.1-5.4,3.5-5.4,3.5H95.5c-2.1-0.1-4-1.2-5-2.9V509h3.7v-11.1h80.4V509L177.2,508.9L177.2,508.9z" id="el_8oi_DnE7aY1"/>
				<rect x="94.2" y="486.9" width="80.4" height="10.9" id="el_ad_6Cih1QwJ"/>
				<path d="M90.5,508.9v5.7c-0.1-0.2-0.2-0.4-0.3-0.5v-5.2L90.5,508.9z" id="el_dZkO18s0AYk"/>
			</g>
			<g id="el_LHsEi9TTn5l">
				<path d="M298.5,525.1c0,2.4-2,4.3-4.4,4.3c0,0,0,0-0.1,0h-64.6c-2.4,0.1-4.4-1.8-4.4-4.2c0,0,0,0,0-0.1l0.5-43.4&#xA;&#9;&#9;&#9;&#9;&#9;c0.1-2.4,2-4.2,4.4-4.2h63.6c2.4-0.1,4.3,1.8,4.4,4.2L298.5,525.1z M292,527c2.5,0.1,4.5-1.9,4.6-4.3l0,0l-0.5-40.6&#xA;&#9;&#9;&#9;&#9;&#9;c0-1.4-1.2-2.4-2.5-2.4H230c-1.4,0-2.5,1-2.5,2.4l-0.5,40.6c0.1,2.5,2.1,4.4,4.6,4.4l0,0H292V527z" id="el_QDI3D7I4kOO"/>
				<path d="M296.7,522.6c-0.1,2.5-2.1,4.4-4.6,4.4l0,0h-60.5c-2.5,0.1-4.5-1.9-4.6-4.3l0,0l0.5-40.6&#xA;&#9;&#9;&#9;&#9;&#9;c0-1.4,1.2-2.4,2.5-2.4h63.7c1.4,0,2.5,1,2.5,2.4L296.7,522.6z M293.2,491v-8.3h-63.7v33h63.7V491z" id="el_6lH83Hm82TL"/>
				<rect x="229.5" y="503.4" width="63.7" height="12.3" id="el_rfNTd2PkXtd"/>
				<rect x="229.5" y="491" width="63.7" height="12.4" id="el_U52SBqRCWjj"/>
				<rect x="229.5" y="486.9" width="63.7" height="4.1" id="el_IVoA5M2FxwD"/>
				<rect x="229.5" y="482.8" width="63.7" height="4.1" id="el_TevQ31Tthra"/>
			</g>
			<path id="el_87sCKhgKXvN" d="M287.2,545.1c1.4,0,2.5,1.1,2.5,2.4c0,1.4-1.1,2.5-2.4,2.5l0,0h-50.8&#xA;&#9;&#9;&#9;&#9;c-1.4,0-2.5-1.1-2.5-2.4s1.1-2.5,2.4-2.5l0,0H287.2z"/>
			<path id="el_Erg_pCjFvXv" d="M159.4,544.2c1.4,0,2.4,1.1,2.4,2.4c0,1.4-1.1,2.4-2.4,2.4l0,0h-50.8&#xA;&#9;&#9;&#9;&#9;c-1.4,0-2.4-1.1-2.4-2.4c0-1.4,1.1-2.4,2.4-2.4l0,0H159.4z"/>
		</g>
	</g>
</g>
<g id="el_satsTo3yqET_an_wFMXVfDYF" data-animator-group="true" data-animator-type="0"><g id="el_satsTo3yqET">
	<polygon points="241.7,376.7 269.5,393.3 287.4,366.2 260.3,351.4 &#9;" id="el_NmX8yVgyHga"/>
	<path id="el_ExuLA3wvoWD" d="M235.1,350.5C235.2,350.5,235.2,350.5,235.1,350.5L235.1,350.5l37.3,8.3l-3.5,8.3&#xA;&#9;&#9;l-34.8-0.2l0,0c0,0,0,0-0.1,0c-4.9,0-8.6-3.7-8.3-8.3S229.6,349.1,235.1,350.5z"/>
	<path id="el_c72IgnK2Uz5" d="M237.9,362.9L237.9,362.9L237.9,362.9l33-1.9l2.1,15.1l-33,1.8l0,0c0,0,0,0-0.1,0&#xA;&#9;&#9;c-4.6,0.3-8.9-2.9-9.4-7.1S233.3,363.1,237.9,362.9z"/>
	<path id="el_bklNkCdI9bR" d="M240.4,375.7L240.4,375.7L240.4,375.7l30,1.3l-0.1,13.6l-29.9-1.3l0,0c0,0,0,0-0.1,0&#xA;&#9;&#9;c-4.2-0.2-7.6-3.4-7.6-7.2S236.1,375.5,240.4,375.7z"/>
	<path id="el_VpHvfmr9fuV" d="M271.2,339.6c1.8-0.1,3.6,0.5,4.9,1.7l14.7,12.4c2.1,1.9,3.3,4.5,3.3,7.3l0.5,54.3&#xA;&#9;&#9;c0,3.2-2.9,5.6-6.5,5.4l-13-0.6c-3.6-0.2-6.5-2.9-6.5-6l2.6-45.4l-11.4-9.6l-24.5-0.3c-10.5,0.2-16.4-4.5-14.7-10.6&#xA;&#9;&#9;c1-3.6,3.1-6.2,11.1-6.1L271.2,339.6z"/>
	<g id="el_6547dlPr_PY">
		<g id="el_XlNiH4Y1ZJo">
			<path d="M230.9,251.8l1.8,35.2c1.4,27.1,5.4,54,11.9,80.4l0,0l4.4-5.6l5.6,4.4l4.4-5.6l5.6,4.4l4.4-5.6l5.6,4.4&#xA;&#9;&#9;&#9;&#9;l4.4-5.6l5.6,4.4l4.4-5.6l5.6,4.4l4.4-5.6l5.6,4.4l0,0c-6.5-26.3-10.5-53.2-11.9-80.4l-1.8-35.2l-4.4,5.6l-5.6-4.4l-4.4,5.6&#xA;&#9;&#9;&#9;&#9;l-5.6-4.4l-4.4,5.6l-5.6-4.4l-4.4,5.6l-5.6-4.4l-4.4,5.6l-5.6-4.4l-4.4,5.6L230.9,251.8z" id="el_dZ-37iiaAa8"/>
		</g>
	</g>
	<path id="el_Gy1cUa672iU" d="M277,399.6l-6.5-57.6c-1.2-4.7-6.5-7.9-11.8-7c-5.3,0.8-7.4,2.8-7.4,10l0.1,15.2l0.8,9.6&#xA;&#9;&#9;c-0.2,3.6,0.2,7.3,1.4,10.8c1.9,5.7,0.1-4-1.9,1.6l-0.6,1.8c-4,14-0.8,29.4,3.4,35.8c2.1,3.2,3.1,6,6.5,8.1&#xA;&#9;&#9;c5.2,3.3,7.8,19.2,10.8,29.2c4.2,14.1,7.1,39.2,7.1,39.2l16.6,130.3h71l-71.9-225.5"/>
</g></g>
<rect x="85.2" y="365.2" width="69.4" height="4.2" id="el_qVFNgIy-0Og"/>
</svg>