<svg version="1.1" id="el_mJl_iYz7k" xmlns="http://www.w3.org/2000/svg" xmlns:xlink="http://www.w3.org/1999/xlink" x="0px" y="0px" viewBox="0 0 385 600" style="enable-background:new 0 0 385 626.6;" xml:space="preserve"><style>@-webkit-keyframes kf_el_geLC49pBicw_an_k3J3uMaMg{0%{-webkit-transform: translate(218.60671997070312px, 263.9031066894531px) translate(-218.60671997070312px, -263.9031066894531px) translate(50px, 340px);transform: translate(218.60671997070312px, 263.9031066894531px) translate(-218.60671997070312px, -263.9031066894531px) translate(50px, 340px);}19.23%{-webkit-transform: translate(218.60671997070312px, 263.9031066894531px) translate(-218.60671997070312px, -263.9031066894531px) translate(50px, 340px);transform: translate(218.60671997070312px, 263.9031066894531px) translate(-218.60671997070312px, -263.9031066894531px) translate(50px, 340px);}46.15%{-webkit-transform: translate(218.60671997070312px, 263.9031066894531px) translate(-218.60671997070312px, -263.9031066894531px) translate(0px, -5px);transform: translate(218.60671997070312px, 263.9031066894531px) translate(-218.60671997070312px, -263.9031066894531px) translate(0px, -5px);}50%{-webkit-transform: translate(218.60671997070312px, 263.9031066894531px) translate(-218.60671997070312px, -263.9031066894531px) translate(0px, 0px);transform: translate(218.60671997070312px, 263.9031066894531px) translate(-218.60671997070312px, -263.9031066894531px) translate(0px, 0px);}73.08%{-webkit-transform: translate(218.60671997070312px, 263.9031066894531px) translate(-218.60671997070312px, -263.9031066894531px) translate(0px, 0px);transform: translate(218.60671997070312px, 263.9031066894531px) translate(-218.60671997070312px, -263.9031066894531px) translate(0px, 0px);}94.87%{-webkit-transform: translate(218.60671997070312px, 263.9031066894531px) translate(-218.60671997070312px, -263.9031066894531px) translate(-100px, 340px);transform: translate(218.60671997070312px, 263.9031066894531px) translate(-218.60671997070312px, -263.9031066894531px) translate(-100px, 340px);}100%{-webkit-transform: translate(218.60671997070312px, 263.9031066894531px) translate(-218.60671997070312px, -263.9031066894531px) translate(-100px, 340px);transform: translate(218.60671997070312px, 263.9031066894531px) translate(-218.60671997070312px, -263.9031066894531px) translate(-100px, 340px);}}@keyframes kf_el_geLC49pBicw_an_k3J3uMaMg{0%{-webkit-transform: translate(218.60671997070312px, 263.9031066894531px) translate(-218.60671997070312px, -263.9031066894531px) translate(50px, 340px);transform: translate(218.60671997070312px, 263.9031066894531px) translate(-218.60671997070312px, -263.9031066894531px) translate(50px, 340px);}19.23%{-webkit-transform: translate(218.60671997070312px, 263.9031066894531px) translate(-218.60671997070312px, -263.9031066894531px) translate(50px, 340px);transform: translate(218.60671997070312px, 263.9031066894531px) translate(-218.60671997070312px, -263.9031066894531px) translate(50px, 340px);}46.15%{-webkit-transform: translate(218.60671997070312px, 263.9031066894531px) translate(-218.60671997070312px, -263.9031066894531px) translate(0px, -5px);transform: translate(218.60671997070312px, 263.9031066894531px) translate(-218.60671997070312px, -263.9031066894531px) translate(0px, -5px);}50%{-webkit-transform: translate(218.60671997070312px, 263.9031066894531px) translate(-218.60671997070312px, -263.9031066894531px) translate(0px, 0px);transform: translate(218.60671997070312px, 263.9031066894531px) translate(-218.60671997070312px, -263.9031066894531px) translate(0px, 0px);}73.08%{-webkit-transform: translate(218.60671997070312px, 263.9031066894531px) translate(-218.60671997070312px, -263.9031066894531px) translate(0px, 0px);transform: translate(218.60671997070312px, 263.9031066894531px) translate(-218.60671997070312px, -263.9031066894531px) translate(0px, 0px);}94.87%{-webkit-transform: translate(218.60671997070312px, 263.9031066894531px) translate(-218.60671997070312px, -263.9031066894531px) translate(-100px, 340px);transform: translate(218.60671997070312px, 263.9031066894531px) translate(-218.60671997070312px, -263.9031066894531px) translate(-100px, 340px);}100%{-webkit-transform: translate(218.60671997070312px, 263.9031066894531px) translate(-218.60671997070312px, -263.9031066894531px) translate(-100px, 340px);transform: translate(218.60671997070312px, 263.9031066894531px) translate(-218.60671997070312px, -263.9031066894531px) translate(-100px, 340px);}}#el_mJl_iYz7k *{-webkit-animation-duration: 2.6s;animation-duration: 2.6s;-webkit-animation-iteration-count: infinite;animation-iteration-count: infinite;-webkit-animation-timing-function: cubic-bezier(0, 0, 1, 1);animation-timing-function: cubic-bezier(0, 0, 1, 1);}#el_Q1aL92Ibsl{fill: #1A1A1A;}#el_t1ZY-D0vA8{fill: #1A1A1A;}#el_RTYkCZkgo6{fill: #1A1A1A;}#el_DvdzSUnYcX{fill: #1A1A1A;}#el_ERmgzcPvzh{fill: #E6E6E6;}#el_HJGRKeqQ5v{fill: #FE7F78;}#el_9Io1jLxYnh{fill: #37E8D7;}#el_MWaWA82tCn{fill: #333333;}#el_-uAOtTmlSK{fill: #E6E6E6;}#el_LqrLgKKpAj{fill: #231F20;}#el_kbty9QWin4L{fill: #FFFFFF;}#el_z2Jw4QUb9wk{fill: #FFFFFF;}#el_sEu-0P8B5Ui{fill: #403C51;}#el_FlNMtp4Mnc3{fill: #403C51;}#el_D2EXwQ00NCi{fill: #FFFFFF;}#el_Xpob5RXtM0O{fill: #FFFFFF;}#el_5w96qRe4qMI{fill: #F2F2F2;}#el_t6A5zLiA2Dh{fill: #414042;}#el__7C6oS-Bjry{fill: #414042;}#el_XHvyJNZrh4m{fill: #414042;}#el_W7fWZXWf9me{fill: #414042;}#el_OJhrUzh_b3d{fill: #414042;}#el_IGXgMwSFlZl{fill: #414042;}#el_tgUiIJ7Nk-P{fill: #FFFFFF;}#el_R2dTgGEAXMm{fill: #FFFFFF;}#el_kr1wGdbxnBb{fill: #0E4160;}#el_p9qjN7-e2iU{fill: #0E4160;}#el_yZJ9McSmmYg{fill: #FFFFFF;}#el_2JrlvrQhrSQ{fill: #FFFFFF;}#el_mqQH_5AnXYs{fill: #F2F2F2;}#el_bCrWXjCwTEO{fill: #414042;}#el_J6I94ifVVBd{fill: #414042;}#el_J4I8RTAQ6RD{fill: #414042;}#el_0Wvvf5VyqGU{fill: #414042;}#el_beIWGISWkXM{fill: #414042;}#el_bHFTJvJ_K_j{fill: #414042;}#el_ttOox4gNQG0{fill: #1A1A1A;}#el_QppiHZS_m9H{fill: #666666;}#el_NkjfBmAxu93{fill: #808080;}#el_6gX_Pk5CuDP{fill: #666666;}#el_e1iflWuyEep{fill: #999999;}#el_Q2O7jXhz7VY{fill: #1A1A1A;}#el_L8yzLK7_Ett{fill: #1A1A1A;}#el_M7vFKoveeDx{fill: #666666;}#el_s_JDkkg3Zg4{fill: #999999;}#el_2m6Uqez9x8t{fill: #1A1A1A;}#el_TeAE5cEXFYt{fill: #333333;}#el_wjQwa4WmUSO{fill: #333333;}#el_jN_wzcsx-18{fill: #CCCCCC;}#el_8YO5Ul4HPm-{fill: #CCCCCC;}#el_WLNwE7tYoDK{display: none;fill: #B3B3B3;}#el_tv-mstUDVbL{fill: #B3B3B3;}#el_G7X3xkxtPr7{fill: #B3B3B3;}#el_SJfEkzSk75M{fill: #B3B3B3;}#el_Em1YqNKJoSL{fill: #B3B3B3;}#el_iIN1qYSNh0i{fill: #2CB9AC;}#el_fCviAVO_yaI{fill: #37E8D7;}#el_oIQ9X6C-iNX{fill: #4A4A4A;-webkit-transform: matrix(0.8872, -0.4614, 0.4614, 0.8872, -111.2212, 161.1318);transform: matrix(0.8872, -0.4614, 0.4614, 0.8872, -111.2212, 161.1318);}#el_uGIfML7ds5R{fill: none;stroke: #4A4A4A;stroke-width: 0.8792;stroke-miterlimit: 10;}#el_63_bjKYK5PL{fill: none;stroke: #4A4A4A;stroke-width: 0.8792;stroke-miterlimit: 10;}#el_pquDPBantw7{fill: none;stroke: #4A4A4A;stroke-width: 0.8792;stroke-miterlimit: 10;}#el_QloWC4XxrbV{fill: none;stroke: #4A4A4A;stroke-width: 0.8792;stroke-miterlimit: 10;}#el_VMM798eGonu{fill: #4A4A4A;}#el_TSjgdgzJ_vj{fill: #4A4A4A;-webkit-transform: matrix(0.8872, -0.4614, 0.4614, 0.8872, -108.5703, 139.5054);transform: matrix(0.8872, -0.4614, 0.4614, 0.8872, -108.5703, 139.5054);}#el_ty4q38j2n3L{fill: #4A4A4A;-webkit-transform: matrix(0.8872, -0.4614, 0.4614, 0.8872, -108.8842, 139.7799);transform: matrix(0.8872, -0.4614, 0.4614, 0.8872, -108.8842, 139.7799);}#el_Dl1na8HgMPp{fill: #4A4A4A;-webkit-transform: matrix(0.8872, -0.4614, 0.4614, 0.8872, -109.1986, 140.0558);transform: matrix(0.8872, -0.4614, 0.4614, 0.8872, -109.1986, 140.0558);}#el_0oFGUAQnKUu{fill: #4A4A4A;-webkit-transform: matrix(0.8872, -0.4614, 0.4614, 0.8872, -109.5125, 140.3304);transform: matrix(0.8872, -0.4614, 0.4614, 0.8872, -109.5125, 140.3304);}#el_GrmesUVBkcx{fill: #4A4A4A;-webkit-transform: matrix(0.8867, -0.4623, 0.4623, 0.8867, -109.9683, 140.9203);transform: matrix(0.8867, -0.4623, 0.4623, 0.8867, -109.9683, 140.9203);}#el_JUylMWYoC30{fill: #4A4A4A;-webkit-transform: matrix(0.8872, -0.4614, 0.4614, 0.8872, -109.9837, 140.7432);transform: matrix(0.8872, -0.4614, 0.4614, 0.8872, -109.9837, 140.7432);}#el_1hDjiqLGYIq{fill: #4A4A4A;-webkit-transform: matrix(0.8872, -0.4614, 0.4614, 0.8872, -110.2982, 141.0191);transform: matrix(0.8872, -0.4614, 0.4614, 0.8872, -110.2982, 141.0191);}#el_Mw30J-y8DAz{fill: #4A4A4A;-webkit-transform: matrix(0.8872, -0.4614, 0.4614, 0.8872, -110.6043, 141.2768);transform: matrix(0.8872, -0.4614, 0.4614, 0.8872, -110.6043, 141.2768);}#el_WVqI3J5nzLv{fill: #4A4A4A;-webkit-transform: matrix(0.8872, -0.4614, 0.4614, 0.8872, -110.9261, 141.5687);transform: matrix(0.8872, -0.4614, 0.4614, 0.8872, -110.9261, 141.5687);}#el_wVQynkPV7pZ{fill: #4A4A4A;}#el_bDVDh5fXXFU{fill: #4A4A4A;-webkit-transform: matrix(0.8867, -0.4623, 0.4623, 0.8867, -111.8559, 142.5755);transform: matrix(0.8867, -0.4623, 0.4623, 0.8867, -111.8559, 142.5755);}#el_-p1UcKxJAq5{fill: #4A4A4A;-webkit-transform: matrix(0.8871, -0.4615, 0.4615, 0.8871, -111.8765, 142.4121);transform: matrix(0.8871, -0.4615, 0.4615, 0.8871, -111.8765, 142.4121);}#el_u4iru8fWN84{fill: #4A4A4A;}#el_U-_SEJMeZk8{fill: #4A4A4A;-webkit-transform: matrix(0.8872, -0.4614, 0.4614, 0.8872, -112.6461, 143.0653);transform: matrix(0.8872, -0.4614, 0.4614, 0.8872, -112.6461, 143.0653);}#el_CVRtuaBzTY2{fill: #4A4A4A;-webkit-transform: matrix(0.8871, -0.4615, 0.4615, 0.8871, -112.9761, 143.3755);transform: matrix(0.8871, -0.4615, 0.4615, 0.8871, -112.9761, 143.3755);}#el_Xo_hw8aPBTA{fill: #4A4A4A;-webkit-transform: matrix(0.8872, -0.4614, 0.4614, 0.8872, -113.2743, 143.6157);transform: matrix(0.8872, -0.4614, 0.4614, 0.8872, -113.2743, 143.6157);}#el_XIR2tGF-Hs6{fill: #4A4A4A;-webkit-transform: matrix(0.8872, -0.4614, 0.4614, 0.8872, -113.5884, 143.8907);transform: matrix(0.8872, -0.4614, 0.4614, 0.8872, -113.5884, 143.8907);}#el_CMXG7HJyYXD{fill: #4A4A4A;}#el_uDmV2fB-NTX{fill: #4A4A4A;-webkit-transform: matrix(0.8871, -0.4615, 0.4615, 0.8871, -114.3899, 144.6139);transform: matrix(0.8871, -0.4615, 0.4615, 0.8871, -114.3899, 144.6139);}#el_-TKOrjSF1-W{fill: #4A4A4A;-webkit-transform: matrix(0.8867, -0.4623, 0.4623, 0.8867, -114.8291, 145.1826);transform: matrix(0.8867, -0.4623, 0.4623, 0.8867, -114.8291, 145.1826);}#el_6bvA58CLTGk{fill: #4A4A4A;-webkit-transform: matrix(0.8872, -0.4614, 0.4614, 0.8872, -114.8377, 144.996);transform: matrix(0.8872, -0.4614, 0.4614, 0.8872, -114.8377, 144.996);}#el_7I5jEq_cD2I{fill: #4A4A4A;-webkit-transform: matrix(0.8872, -0.4614, 0.4614, 0.8872, -115.1434, 145.2531);transform: matrix(0.8872, -0.4614, 0.4614, 0.8872, -115.1434, 145.2531);}#el_sjX2Mh-LFzc{fill: #4A4A4A;-webkit-transform: matrix(0.8872, -0.4614, 0.4614, 0.8872, -115.4656, 145.5455);transform: matrix(0.8872, -0.4614, 0.4614, 0.8872, -115.4656, 145.5455);}#el_PO311_CmEkl{fill: #4A4A4A;-webkit-transform: matrix(0.8872, -0.4614, 0.4614, 0.8872, -115.7801, 145.8215);transform: matrix(0.8872, -0.4614, 0.4614, 0.8872, -115.7801, 145.8215);}#el_tJR6q3ieNu1{fill: #4A4A4A;-webkit-transform: matrix(0.8872, -0.4614, 0.4614, 0.8872, -116.0858, 146.0785);transform: matrix(0.8872, -0.4614, 0.4614, 0.8872, -116.0858, 146.0785);}#el_r4KHQQrzsHd{fill: #4A4A4A;}#el_2NBQNVHXktu{fill: #4A4A4A;}#el_INhVNXKiq9p{fill: #4A4A4A;-webkit-transform: matrix(0.8872, -0.4614, 0.4614, 0.8872, -128.15, 156.6579);transform: matrix(0.8872, -0.4614, 0.4614, 0.8872, -128.15, 156.6579);}#el_RJTE2n8KD9V{fill: #4A4A4A;-webkit-transform: matrix(0.8871, -0.4615, 0.4615, 0.8871, -128.4736, 156.9529);transform: matrix(0.8871, -0.4615, 0.4615, 0.8871, -128.4736, 156.9529);}#el_btsguDgUN15{fill: #4A4A4A;-webkit-transform: matrix(0.8872, -0.4614, 0.4614, 0.8872, -128.7602, 157.1706);transform: matrix(0.8872, -0.4614, 0.4614, 0.8872, -128.7602, 157.1706);}#el_YQUCdORyOOY{fill: #4A4A4A;-webkit-transform: matrix(0.8872, -0.4614, 0.4614, 0.8872, -129.0924, 157.4834);transform: matrix(0.8872, -0.4614, 0.4614, 0.8872, -129.0924, 157.4834);}#el_sjixLLh45O8{fill: #4A4A4A;}#el_Jn0FKVjd22c{fill: #4A4A4A;-webkit-transform: matrix(0.8872, -0.4614, 0.4614, 0.8872, -129.8778, 158.1717);transform: matrix(0.8872, -0.4614, 0.4614, 0.8872, -129.8778, 158.1717);}#el_I9ELWbACdqE{fill: #4A4A4A;-webkit-transform: matrix(0.8872, -0.4614, 0.4614, 0.8872, -130.1736, 158.4085);transform: matrix(0.8872, -0.4614, 0.4614, 0.8872, -130.1736, 158.4085);}#el_tB0-M4K-4C4{fill: #4A4A4A;-webkit-transform: matrix(0.8871, -0.4615, 0.4615, 0.8871, -130.5155, 158.7418);transform: matrix(0.8871, -0.4615, 0.4615, 0.8871, -130.5155, 158.7418);}#el_U4jFcRyfKSj{fill: #4A4A4A;}#el_xqbJ2fKrBtu{fill: #4A4A4A;}#el_HPmZYnJh-l8{fill: #4A4A4A;}#el_BD-jkH4IlEQ{fill: #4A4A4A;-webkit-transform: matrix(0.8871, -0.4615, 0.4615, 0.8871, -132.2435, 160.2558);transform: matrix(0.8871, -0.4615, 0.4615, 0.8871, -132.2435, 160.2558);}#el_vtz_hqJlaZE{fill: #4A4A4A;-webkit-transform: matrix(0.8872, -0.4614, 0.4614, 0.8872, -132.5481, 160.5109);transform: matrix(0.8872, -0.4614, 0.4614, 0.8872, -132.5481, 160.5109);}#el_zjA3wiu5ium{fill: #4A4A4A;-webkit-transform: matrix(0.8872, -0.4614, 0.4614, 0.8872, -132.8434, 160.7471);transform: matrix(0.8872, -0.4614, 0.4614, 0.8872, -132.8434, 160.7471);}#el_8hfp3f0kRz6{fill: #4A4A4A;-webkit-transform: matrix(0.8871, -0.4615, 0.4615, 0.8871, -133.186, 161.0814);transform: matrix(0.8871, -0.4615, 0.4615, 0.8871, -133.186, 161.0814);}#el_8HA2dZYiToz{fill: #4A4A4A;-webkit-transform: matrix(0.8872, -0.4614, 0.4614, 0.8872, -133.4905, 161.3364);transform: matrix(0.8872, -0.4614, 0.4614, 0.8872, -133.4905, 161.3364);}#el_NcclZ63LEai{fill: #4A4A4A;-webkit-transform: matrix(0.8872, -0.4614, 0.4614, 0.8872, -116.8633, 146.7495);transform: matrix(0.8872, -0.4614, 0.4614, 0.8872, -116.8633, 146.7495);}#el_iW3FB84gEEj{fill: #4A4A4A;-webkit-transform: matrix(0.8872, -0.4614, 0.4614, 0.8872, -117.1771, 147.024);transform: matrix(0.8872, -0.4614, 0.4614, 0.8872, -117.1771, 147.024);}#el_E_vAuonWBU1{fill: #4A4A4A;-webkit-transform: matrix(0.8872, -0.4614, 0.4614, 0.8872, -117.5078, 147.3352);transform: matrix(0.8872, -0.4614, 0.4614, 0.8872, -117.5078, 147.3352);}#el_M5h711YiOvl{fill: #4A4A4A;}#el_eJUYceGrObU{fill: #4A4A4A;}#el_ExGwrwwS1fH{fill: #4A4A4A;}#el_65vL9EBKsj_{fill: #4A4A4A;-webkit-transform: matrix(0.8872, -0.4614, 0.4614, 0.8872, -119.2354, 148.848);transform: matrix(0.8872, -0.4614, 0.4614, 0.8872, -119.2354, 148.848);}#el_nBejVuopcbl{fill: #4A4A4A;-webkit-transform: matrix(0.8872, -0.4614, 0.4614, 0.8872, -119.5415, 149.1061);transform: matrix(0.8872, -0.4614, 0.4614, 0.8872, -119.5415, 149.1061);}#el__kKE-rrDEmP{fill: #4A4A4A;-webkit-transform: matrix(0.8872, -0.4614, 0.4614, 0.8872, -119.8635, 149.3985);transform: matrix(0.8872, -0.4614, 0.4614, 0.8872, -119.8635, 149.3985);}#el_w49dhsj_ito{fill: #4A4A4A;-webkit-transform: matrix(0.8871, -0.4615, 0.4615, 0.8871, -120.1865, 149.6924);transform: matrix(0.8871, -0.4615, 0.4615, 0.8871, -120.1865, 149.6924);}#el_3FsN_m_x7GH{fill: #4A4A4A;}#el_C4bbxi9lKAZ{fill: #4A4A4A;-webkit-transform: matrix(0.8872, -0.4614, 0.4614, 0.8872, -120.9461, 150.3256);transform: matrix(0.8872, -0.4614, 0.4614, 0.8872, -120.9461, 150.3256);}#el_rug0RFz2jFk{fill: #4A4A4A;}#el_0E4qw4Ha8c5{fill: #4A4A4A;-webkit-transform: matrix(0.8872, -0.4614, 0.4614, 0.8872, -121.7872, 151.0838);transform: matrix(0.8872, -0.4614, 0.4614, 0.8872, -121.7872, 151.0838);}#el_nWmhuLun_Fi{fill: #4A4A4A;-webkit-transform: matrix(0.8871, -0.4615, 0.4615, 0.8871, -122.1104, 151.378);transform: matrix(0.8871, -0.4615, 0.4615, 0.8871, -122.1104, 151.378);}#el_6nIQVp2cUsV{fill: #4A4A4A;-webkit-transform: matrix(0.8872, -0.4614, 0.4614, 0.8872, -122.4158, 151.6344);transform: matrix(0.8872, -0.4614, 0.4614, 0.8872, -122.4158, 151.6344);}#el_DK03eVsuXLE{fill: #4A4A4A;-webkit-transform: matrix(0.8872, -0.4614, 0.4614, 0.8872, -122.7127, 151.8729);transform: matrix(0.8872, -0.4614, 0.4614, 0.8872, -122.7127, 151.8729);}#el_bEvA-3IXuu3{fill: #4A4A4A;}#el_RwDd9apr2K2{fill: #4A4A4A;-webkit-transform: matrix(0.8872, -0.4614, 0.4614, 0.8872, -123.5151, 152.5976);transform: matrix(0.8872, -0.4614, 0.4614, 0.8872, -123.5151, 152.5976);}#el_-8zk8OOrKvB{fill: #4A4A4A;-webkit-transform: matrix(0.8872, -0.4614, 0.4614, 0.8872, -123.8294, 152.8726);transform: matrix(0.8872, -0.4614, 0.4614, 0.8872, -123.8294, 152.8726);}#el_CPqOLl-s-Hl{fill: #4A4A4A;-webkit-transform: matrix(0.8872, -0.4614, 0.4614, 0.8872, -124.1351, 153.1302);transform: matrix(0.8872, -0.4614, 0.4614, 0.8872, -124.1351, 153.1302);}#el_tf-St2BaPEk{fill: #4A4A4A;}#el_ZHI_6_jsvh-{fill: #4A4A4A;}#el_Q9fLaoyS56j{fill: #4A4A4A;}#el_fcp6sWJuJFS{fill: #4A4A4A;-webkit-transform: matrix(0.8871, -0.4615, 0.4615, 0.8871, -125.8803, 154.6809);transform: matrix(0.8871, -0.4615, 0.4615, 0.8871, -125.8803, 154.6809);}#el_rjih1kv5h_G{fill: #4A4A4A;-webkit-transform: matrix(0.8872, -0.4614, 0.4614, 0.8872, -126.1853, 154.9368);transform: matrix(0.8872, -0.4614, 0.4614, 0.8872, -126.1853, 154.9368);}#el__abg_XB8wc2{fill: #4A4A4A;-webkit-transform: matrix(0.8872, -0.4614, 0.4614, 0.8872, -126.4817, 155.1745);transform: matrix(0.8872, -0.4614, 0.4614, 0.8872, -126.4817, 155.1745);}#el_j6NECiFrFqm{fill: #4A4A4A;-webkit-transform: matrix(0.8871, -0.4615, 0.4615, 0.8871, -126.8228, 155.5065);transform: matrix(0.8871, -0.4615, 0.4615, 0.8871, -126.8228, 155.5065);}#el_KR2u1d5I0Xe{fill: #4A4A4A;}#el__3DoEyW7eya{fill: #B3B3B3;}#el_geLC49pBicw_an_k3J3uMaMg{-webkit-animation-fill-mode: backwards;animation-fill-mode: backwards;-webkit-transform: translate(218.60671997070312px, 263.9031066894531px) translate(-218.60671997070312px, -263.9031066894531px) translate(50px, 340px);transform: translate(218.60671997070312px, 263.9031066894531px) translate(-218.60671997070312px, -263.9031066894531px) translate(50px, 340px);-webkit-animation-name: kf_el_geLC49pBicw_an_k3J3uMaMg;animation-name: kf_el_geLC49pBicw_an_k3J3uMaMg;-webkit-animation-timing-function: cubic-bezier(0, 0, 1, 1);animation-timing-function: cubic-bezier(0, 0, 1, 1);}</style>
  <style>svg {cursor : none;}</style>
<g id="el_SFWvnikZcA">
	<path d="M383.2,351.1c0,0,4,23.1,0,37.7s-14.7,38.9-14.7,38.9H16.4c0,0-10.7-24.4-14.7-38.9s0-37.7,0-37.7l6.9-57&#10;&#9;&#9;l28.1-222c0,0,4-36.9,25.6-52.6c0,0,10.4-8.5,19.1-10.7c8.6-2.2,21.5-4.1,35.2-5.4c19.9-2.2,39.8-3.3,59.8-3.4h32.2&#10;&#9;&#9;c20,0.1,39.9,1.2,59.8,3.4c13.6,1.3,26.5,3.2,35.2,5.4c8.6,2.2,19,10.7,19,10.7c21.7,15.7,25.6,52.6,25.6,52.6l28.1,222&#10;&#9;&#9;L383.2,351.1z" id="el_Q1aL92Ibsl"/>
	<path d="M367.7,429.4h0.3v1.3c0,0.6-0.1,1.3-0.3,1.9c-0.4,2-0.9,3.9-1.6,5.8L261.4,626.6H118.9L18.8,438.4&#10;&#9;&#9;c-0.7-1.9-1.2-3.9-1.6-5.8c-0.1-0.6-0.2-1.3-0.3-1.9v-1.3L367.7,429.4L367.7,429.4z" id="el_t1ZY-D0vA8"/>
	<rect x="18.5" y="427.6" width="347.9" height="1.8" id="el_RTYkCZkgo6"/>
</g>
<g id="el_U_v7Ce-D0H">
	<path d="M383.2,351.1c0,0,4,23.1,0,37.7s-14.7,38.9-14.7,38.9H16.4c0,0-10.7-24.4-14.7-38.9s0-37.7,0-37.7l6.9-57&#10;&#9;&#9;l28.1-222c0,0,4-36.9,25.6-52.6c0,0,10.4-8.5,19-10.7s21.5-4.1,35.2-5.4c19.9-2.2,39.8-3.3,59.8-3.4h32.2c20,0.1,39.9,1.2,59.8,3.4&#10;&#9;&#9;c13.6,1.3,26.5,3.2,35.2,5.4s19,10.7,19,10.7c21.7,15.7,25.6,52.6,25.6,52.6l28.1,222L383.2,351.1z M342.5,374.7&#10;&#9;&#9;c8.4-9.9,13-17.4,11-33.2s-5-43.7-5-43.7L320.4,66.7c0,0-3.4-35.2-43.4-39s-55.6-5.5-86.8-5.5s-46.8,1.8-86.8,5.5S60,66.7,60,66.7&#10;&#9;&#9;L31.8,297.9c0,0-3.8,21.7,6.7,32.2s14.3,14.5,35.2,14.5H144c0,0,12.5,0,17.1,2c4,1.5,7.9,3.5,11.4,5.9c3.3,2.2,17.6,12.2,25.7,18&#10;&#9;&#9;c2.6,1.8,5.1,3.7,7.6,5.6c7.4,5.5,16.4,8.4,25.6,8.3h85.1C316.5,384.4,334.1,384.6,342.5,374.7L342.5,374.7z" id="el_DvdzSUnYcX"/>
	<path id="el_ERmgzcPvzh" d="M368,429.4v1.3c0,0.6-0.1,1.3-0.3,1.9c-0.4,2-0.9,3.9-1.6,5.8l-64.3,188.2H83.2L18.8,438.4&#10;&#9;&#9;c-0.7-1.9-1.2-3.9-1.6-5.8c-0.1-0.6-0.2-1.3-0.3-1.9v-1.3l44.5,106.2c0,0,15.1,32.7,41.8,35.3c0,0,9.4,0.3,17.6,0.3h142.9&#10;&#9;&#9;c8.2,0,17.6-0.3,17.6-0.3c26.7-2.6,41.8-35.3,41.8-35.3l44.5-106.2L368,429.4L368,429.4z"/>
	<rect id="el_kStLeRY0nK" x="18.5" y="427.6" width="347.9" height="1.8"/>
	<g id="el_VFupPTBx1_">
		<polygon id="el_HJGRKeqQ5v" points="294.6,101.5 296.6,224.6 192.5,225.6 88.4,224.6 90.4,101.5 &#10;&#9;&#9;&#9;192.5,101.5 &#9;&#9;"/>
		<polygon id="el_9Io1jLxYnh" points="294.6,101.5 296.6,224.6 192.5,225.6 88.4,224.6 90.4,101.5 &#10;&#9;&#9;&#9;192.5,101.5 &#9;&#9;"/>
		<path id="el_MWaWA82tCn" d="M296.4,365.4c1.4-1.4,2.1-3.2,2.1-5.2l-1.3-92.9c-0.1-3.8-3.2-6.9-7-6.9h-65.5&#10;&#9;&#9;&#9;c-3.9,0-7,3.1-7,7l0,0l0.3,92.9c0,4,3.2,7.2,7.2,7.2h66.2C293.3,367.5,295.1,366.7,296.4,365.4z M353.5,341.6&#10;&#9;&#9;&#9;c2,15.8-2.6,23.3-11,33.2s-25.9,9.7-25.9,9.7h-85.1c-9.2,0.1-18.2-2.9-25.6-8.3c-2.5-1.9-5-3.8-7.6-5.6&#10;&#9;&#9;&#9;c-8.1-5.7-22.5-15.8-25.7-18c-3.6-2.4-7.4-4.4-11.4-5.9c-4.6-2-17.1-2-17.1-2H73.7c-20.9,0-24.6-4-35.2-14.5S31.8,298,31.8,298&#10;&#9;&#9;&#9;L59.9,66.7c0,0,3.4-35.2,43.4-39s55.6-5.5,86.8-5.5s46.8,1.8,86.8,5.5s43.4,39,43.4,39l28.1,231.2&#10;&#9;&#9;&#9;C348.5,297.9,351.5,325.7,353.5,341.6L353.5,341.6z M296.6,224.6l-2.1-123.1H90.4l-2.1,123.1l104.1,1L296.6,224.6z M199.9,82.3&#10;&#9;&#9;&#9;c0-5.7-3.4-10.4-7.6-10.4s-7.6,4.7-7.6,10.4c0,5.7,3.4,10.4,7.6,10.4S199.9,88,199.9,82.3z"/>
		<g id="el_C50PPD-PQQ">
			<path d="M220.2,365.5c-1.4-1.3-2.2-3.2-2.2-5.2l-0.3-92.9c0-3.9,3.1-7,7-7l0,0h65.5c3.8,0,6.9,3.1,7,6.9l1.3,92.9&#10;&#9;&#9;&#9;&#9;c0.1,4-3.1,7.2-7.1,7.3h-0.1h-66.2C223.3,367.5,221.5,366.8,220.2,365.5z M260.6,321.6c0-1.3-1-2.3-2.3-2.3s-2.3,1-2.3,2.3&#10;&#9;&#9;&#9;&#9;s1,2.3,2.3,2.3S260.6,322.9,260.6,321.6z" id="el_-uAOtTmlSK"/>
			<path id="el_LqrLgKKpAj" d="M258.3,319.2c1.3,0,2.3,1,2.3,2.3s-1,2.3-2.3,2.3s-2.3-1-2.3-2.3l0,0&#10;&#9;&#9;&#9;&#9;C256,320.3,257,319.3,258.3,319.2z"/>
			<circle cx="258.3" cy="321.6" r="2.3" id="el_EI_3pOIWNbT"/>
		</g>
		<path id="el_yfz5LnFtMQw" d="M192.4,71.9c4.2,0,7.6,4.7,7.6,10.4c0,5.7-3.4,10.4-7.6,10.4s-7.6-4.7-7.6-10.4&#10;&#9;&#9;&#9;C184.8,76.5,188.2,71.9,192.4,71.9z"/>
		<g id="el_edIkx5XhpE2">
			<path d="M187,139.1h-73.9c-1.2,0-2.2-1-2.2-2.2s1-2.2,2.2-2.2H187c1.2,0,2.2,1,2.2,2.2S188.3,139.1,187,139.1z" id="el_kbty9QWin4L"/>
			<path d="M164.8,150.2h-51.7c-1.2,0-2.2-1-2.2-2.2s1-2.2,2.2-2.2h51.7c1.2,0,2.2,1,2.2,2.2S166,150.2,164.8,150.2z" id="el_z2Jw4QUb9wk"/>
			<path d="M164.8,166.5h-51.7c-0.6,0-1.1-0.5-1.1-1.1s0.5-1.1,1.1-1.1h51.7c0.6,0,1.1,0.5,1.1,1.1&#10;&#9;&#9;&#9;&#9;S165.4,166.5,164.8,166.5z" id="el_sEu-0P8B5Ui"/>
			<path d="M153.1,174.9h-40c-0.6,0-1.1-0.5-1.1-1.1s0.5-1.1,1.1-1.1h40c0.6,0,1.1,0.5,1.1,1.1S153.7,174.9,153.1,174.9&#10;&#9;&#9;&#9;&#9;z" id="el_FlNMtp4Mnc3"/>
			<path d="M153.1,189.8h-40c-0.6,0-1.1-0.5-1.1-1.1s0.5-1.1,1.1-1.1h40c0.6,0,1.1,0.5,1.1,1.1S153.7,189.8,153.1,189.8&#10;&#9;&#9;&#9;&#9;z" id="el_D2EXwQ00NCi"/>
			<path d="M223.1,134.5h49.2c3.2,0,5.8,2.6,5.8,5.8V168c0,3.2-2.6,5.8-5.8,5.8h-49.2c-3.2,0-5.8-2.6-5.8-5.8v-27.7&#10;&#9;&#9;&#9;&#9;C217.3,137.1,219.9,134.5,223.1,134.5z" id="el_Xpob5RXtM0O"/>
			<rect x="222.8" y="139.1" width="18" height="28.1" id="el_5w96qRe4qMI"/>
			<rect x="247.7" y="139.8" width="15.4" height="2.2" id="el_t6A5zLiA2Dh"/>
			<rect x="247.7" y="144.2" width="17.5" height="2.2" id="el__7C6oS-Bjry"/>
			<rect x="247.7" y="152.4" width="17.5" height="0.9" id="el_XHvyJNZrh4m"/>
			<rect x="247.7" y="154.6" width="17.5" height="0.9" id="el_W7fWZXWf9me"/>
			<rect x="247.7" y="157.2" width="17.5" height="0.9" id="el_OJhrUzh_b3d"/>
			<rect x="247.7" y="159.4" width="17.5" height="0.9" id="el_IGXgMwSFlZl"/>
		</g>
		<g id="el_P6-KalnPIBg">
			<path d="M187,139.1h-73.9c-1.2,0-2.2-1-2.2-2.2s1-2.2,2.2-2.2H187c1.2,0,2.2,1,2.2,2.2S188.3,139.1,187,139.1z" id="el_tgUiIJ7Nk-P"/>
			<path d="M164.8,150.2h-51.7c-1.2,0-2.2-1-2.2-2.2s1-2.2,2.2-2.2h51.7c1.2,0,2.2,1,2.2,2.2S166,150.2,164.8,150.2z" id="el_R2dTgGEAXMm"/>
			<path d="M164.8,166.5h-51.7c-0.6,0-1.1-0.5-1.1-1.1s0.5-1.1,1.1-1.1h51.7c0.6,0,1.1,0.5,1.1,1.1&#10;&#9;&#9;&#9;&#9;S165.4,166.5,164.8,166.5z" id="el_kr1wGdbxnBb"/>
			<path d="M153.1,174.9h-40c-0.6,0-1.1-0.5-1.1-1.1s0.5-1.1,1.1-1.1h40c0.6,0,1.1,0.5,1.1,1.1&#10;&#9;&#9;&#9;&#9;S153.7,174.9,153.1,174.9z" id="el_p9qjN7-e2iU"/>
			<path d="M153.1,189.8h-40c-0.6,0-1.1-0.5-1.1-1.1s0.5-1.1,1.1-1.1h40c0.6,0,1.1,0.5,1.1,1.1S153.7,189.8,153.1,189.8&#10;&#9;&#9;&#9;&#9;z" id="el_yZJ9McSmmYg"/>
			<path d="M223.1,134.5h49.2c3.2,0,5.8,2.6,5.8,5.8V168c0,3.2-2.6,5.8-5.8,5.8h-49.2c-3.2,0-5.8-2.6-5.8-5.8v-27.7&#10;&#9;&#9;&#9;&#9;C217.3,137.1,219.9,134.5,223.1,134.5z" id="el_2JrlvrQhrSQ"/>
			<rect x="222.8" y="139.1" width="18" height="28.1" id="el_mqQH_5AnXYs"/>
			<rect x="247.7" y="139.8" width="15.4" height="2.2" id="el_bCrWXjCwTEO"/>
			<rect x="247.7" y="144.2" width="17.5" height="2.2" id="el_J6I94ifVVBd"/>
			<rect x="247.7" y="152.4" width="17.5" height="0.9" id="el_J4I8RTAQ6RD"/>
			<rect x="247.7" y="154.6" width="17.5" height="0.9" id="el_0Wvvf5VyqGU"/>
			<rect x="247.7" y="157.2" width="17.5" height="0.9" id="el_beIWGISWkXM"/>
			<rect x="247.7" y="159.4" width="17.5" height="0.9" id="el_bHFTJvJ_K_j"/>
		</g>
	</g>
	<g id="el_sF5-vJW29wK">
		<path d="M367.7,429.4l-44.5,106.2c0,0-15.1,32.7-41.8,35.3c0,0-9.4,0.3-17.6,0.3H120.9c-8.2,0-17.6-0.3-17.6-0.3&#10;&#9;&#9;&#9;c-26.7-2.6-41.8-35.3-41.8-35.3L17,429.4H367.7z M289.6,547.6c0-1.4-1.1-2.4-2.4-2.4h-50.8c-1.4,0-2.4,1.1-2.4,2.5&#10;&#9;&#9;&#9;c0,1.3,1.1,2.4,2.4,2.4h50.8C288.5,550,289.6,548.9,289.6,547.6L289.6,547.6L289.6,547.6z M161.9,546.7c0-1.4-1.1-2.4-2.4-2.4l0,0&#10;&#9;&#9;&#9;h-50.8c-1.4,0-2.4,1.1-2.4,2.4c0,1.4,1.1,2.4,2.4,2.4l0,0h50.8C160.8,549.1,161.9,548,161.9,546.7L161.9,546.7z" id="el_ttOox4gNQG0"/>
		<g id="el_1aHk5w3cqLo">
			<g id="el_jy7gcdeUrlA">
				<path d="M90.5,517.6v1.8c0,2.5,2,4.4,4.4,4.4h78.2c2.5,0,4.4-2,4.4-4.4l0,0v-35.3c0-2.5-2-4.4-4.4-4.4l0,0H94.9&#10;&#9;&#9;&#9;&#9;&#9;c-2.5,0-4.4,2-4.4,4.4v24.8h-0.3v5.2c0.1,0.2,0.2,0.4,0.3,0.5V517.6z M179.9,482.4v39.8c0,2.7-2.2,4.8-4.8,4.8l0,0H93&#10;&#9;&#9;&#9;&#9;&#9;c-2.7,0-4.8-2.2-4.8-4.8l0,0v-39.8c0-2.7,2.2-4.8,4.8-4.8l0,0h82.1C177.7,477.6,179.9,479.7,179.9,482.4L179.9,482.4z" id="el_rmSvSed8fpq"/>
				<path d="M177.6,517.1v2.3c0,2.5-2,4.4-4.4,4.4l0,0H94.9c-2.5,0-4.4-2-4.4-4.4v-1.8c1.1,1.8,3,2.9,5,2.9h25.6&#10;&#9;&#9;&#9;&#9;&#9;c0,0,2.2-0.3,5.4-3.5c1.6-1.5,3.7-2.4,6-2.5h1.9c2.4,0,4.7,0.9,6.5,2.5c3.1,3.1,5.4,3.5,5.4,3.5h25.6c3.7,0,5.4-3.5,5.4-3.5&#10;&#9;&#9;&#9;&#9;&#9;L177.6,517.1z" id="el_QppiHZS_m9H"/>
				<path d="M177.6,514.1v3h-0.3c0,0-1.7,3.5-5.4,3.5h-25.6c0,0-2.2-0.3-5.4-3.5c-1.7-1.7-4.1-2.6-6.5-2.5h-1.9&#10;&#9;&#9;&#9;&#9;&#9;c-2.2,0.1-4.4,1-6,2.5c-3.1,3.1-5.4,3.5-5.4,3.5H95.5c-2.1-0.1-4-1.2-5-2.9v-3c1.1,1.8,3,2.9,5,2.9h25.6c0,0,2.2-0.3,5.4-3.5&#10;&#9;&#9;&#9;&#9;&#9;c1.7-1.6,3.8-2.5,6.1-2.5h2c2.3,0,4.6,0.9,6.3,2.5c3.1,3.1,5.4,3.5,5.4,3.5h25.6c3.7,0,5.4-3.5,5.4-3.5H177.6z" id="el_NkjfBmAxu93"/>
				<path d="M177.6,484.1v30h-0.3v-5.2h-2.6v-22H94.2v22h-3.7v-24.8c0-2.5,2-4.4,4.4-4.4h78.2&#10;&#9;&#9;&#9;&#9;&#9;C175.6,479.7,177.6,481.7,177.6,484.1L177.6,484.1z" id="el_6gX_Pk5CuDP"/>
				<path d="M177.2,508.9v5.2c0,0-1.7,3.5-5.4,3.5h-25.6c0,0-2.2-0.3-5.4-3.5c-1.7-1.6-3.9-2.5-6.3-2.5h-2&#10;&#9;&#9;&#9;&#9;&#9;c-2.3,0-4.5,0.9-6.1,2.5c-3.1,3.1-5.4,3.5-5.4,3.5H95.5c-2.1-0.1-4-1.2-5-2.9V509h3.7v-11.1h80.4V509L177.2,508.9L177.2,508.9z" id="el_e1iflWuyEep"/>
				<rect x="94.2" y="486.9" width="80.4" height="10.9" id="el_Q2O7jXhz7VY"/>
				<path d="M90.5,508.9v5.7c-0.1-0.2-0.2-0.4-0.3-0.5v-5.2L90.5,508.9z" id="el_L8yzLK7_Ett"/>
			</g>
			<g id="el_vtkS4o8JPgE">
				<path d="M298.5,525.1c0,2.4-2,4.3-4.4,4.3c0,0,0,0-0.1,0h-64.6c-2.4,0.1-4.4-1.8-4.4-4.2c0,0,0,0,0-0.1l0.5-43.4&#10;&#9;&#9;&#9;&#9;&#9;c0.1-2.4,2-4.2,4.4-4.2h63.6c2.4-0.1,4.3,1.8,4.4,4.2L298.5,525.1z M292,527c2.5,0.1,4.5-1.9,4.6-4.3l0,0l-0.5-40.6&#10;&#9;&#9;&#9;&#9;&#9;c0-1.4-1.2-2.4-2.5-2.4H230c-1.4,0-2.5,1-2.5,2.4l-0.5,40.6c0.1,2.5,2.1,4.4,4.6,4.4l0,0H292V527z" id="el_HJDHqd94w0K"/>
				<path d="M296.7,522.6c-0.1,2.5-2.1,4.4-4.6,4.4l0,0h-60.5c-2.5,0.1-4.5-1.9-4.6-4.3l0,0l0.5-40.6&#10;&#9;&#9;&#9;&#9;&#9;c0-1.4,1.2-2.4,2.5-2.4h63.7c1.4,0,2.5,1,2.5,2.4L296.7,522.6z M293.2,491v-8.3h-63.7v33h63.7V491z" id="el_M7vFKoveeDx"/>
				<rect x="229.5" y="503.4" width="63.7" height="12.3" id="el_s_JDkkg3Zg4"/>
				<rect x="229.5" y="491" width="63.7" height="12.4" id="el_2m6Uqez9x8t"/>
				<rect x="229.5" y="486.9" width="63.7" height="4.1" id="el_TeAE5cEXFYt"/>
				<rect x="229.5" y="482.8" width="63.7" height="4.1" id="el_wjQwa4WmUSO"/>
			</g>
			<path id="el_jN_wzcsx-18" d="M287.2,545.1c1.4,0,2.5,1.1,2.5,2.4c0,1.4-1.1,2.5-2.4,2.5l0,0h-50.8&#10;&#9;&#9;&#9;&#9;c-1.4,0-2.5-1.1-2.5-2.4s1.1-2.5,2.4-2.5l0,0H287.2z"/>
			<path id="el_8YO5Ul4HPm-" d="M159.4,544.2c1.4,0,2.4,1.1,2.4,2.4c0,1.4-1.1,2.4-2.4,2.4l0,0h-50.8&#10;&#9;&#9;&#9;&#9;c-1.4,0-2.4-1.1-2.4-2.4c0-1.4,1.1-2.4,2.4-2.4l0,0H159.4z"/>
		</g>
	</g>
</g>
<g id="el_geLC49pBicw_an_k3J3uMaMg" data-animator-group="true" data-animator-type="0"><g id="el_geLC49pBicw">
	<polygon points="241.7,376.7 269.5,393.3 287.4,366.2 260.3,351.4 &#9;" id="el_WLNwE7tYoDK"/>
	<path id="el_tv-mstUDVbL" d="M235.1,350.5C235.2,350.5,235.2,350.5,235.1,350.5L235.1,350.5l37.3,8.3l-3.5,8.3&#10;&#9;&#9;l-34.8-0.2l0,0c0,0,0,0-0.1,0c-4.9,0-8.6-3.7-8.3-8.3S229.6,349.1,235.1,350.5z"/>
	<path id="el_G7X3xkxtPr7" d="M237.9,362.9L237.9,362.9L237.9,362.9l33-1.9l2.1,15.1l-33,1.8l0,0c0,0,0,0-0.1,0&#10;&#9;&#9;c-4.6,0.3-8.9-2.9-9.4-7.1S233.3,363.1,237.9,362.9z"/>
	<path id="el_SJfEkzSk75M" d="M240.4,375.7L240.4,375.7L240.4,375.7l30,1.3l-0.1,13.6l-29.9-1.3l0,0c0,0,0,0-0.1,0&#10;&#9;&#9;c-4.2-0.2-7.6-3.4-7.6-7.2S236.1,375.5,240.4,375.7z"/>
	<path id="el_Em1YqNKJoSL" d="M271.2,339.6c1.8-0.1,3.6,0.5,4.9,1.7l14.7,12.4c2.1,1.9,3.3,4.5,3.3,7.3l0.5,54.3&#10;&#9;&#9;c0,3.2-2.9,5.6-6.5,5.4l-13-0.6c-3.6-0.2-6.5-2.9-6.5-6l2.6-45.4l-11.4-9.6l-24.5-0.3c-10.5,0.2-16.4-4.5-14.7-10.6&#10;&#9;&#9;c1-3.6,3.1-6.2,11.1-6.1L271.2,339.6z"/>
	<path d="M269.5,266.5l36.3,69.8c1.1,2.1,0.3,4.7-1.8,5.8l-42.8,22.2c-2.1,1.1-4.7,0.3-5.8-1.8l-36.3-69.8&#10;&#9;&#9;c-1.1-2.1-0.3-4.7,1.8-5.8l42.8-22.2C265.8,263.6,268.4,264.4,269.5,266.5z" id="el_iIN1qYSNh0i"/>
	<g id="el_hUrTYSIsSVq">
		<path d="M269,265.7l36.7,70.5c0.9,1.7,0.2,3.7-1.4,4.6l-43.5,22.6c-1.7,0.9-3.7,0.2-4.6-1.4l-36.7-70.5&#10;&#9;&#9;&#9;c-0.9-1.7-0.2-3.7,1.4-4.6l43.5-22.6C266.1,263.4,268.2,264.1,269,265.7z" id="el_fCviAVO_yaI"/>
		
			<rect x="267.5" y="264.9" width="12.7" height="86.2" id="el_oIQ9X6C-iNX"/>
		<line x1="248.4" y1="281.2" x2="281.5" y2="344.9" id="el_uGIfML7ds5R"/>
		<line x1="245.7" y1="282.6" x2="271.7" y2="332.6" id="el_63_bjKYK5PL"/>
		<line x1="240.1" y1="285.5" x2="249.9" y2="304.3" id="el_pquDPBantw7"/>
		<line x1="237.4" y1="287" x2="254.9" y2="320.7" id="el_QloWC4XxrbV"/>
		<g id="el_6blFxjfqkCD">
			<polygon points="234.4,288.7 226.9,292.7 234.4,288.7 234.2,288.4 226.4,292.4 226.6,292.8 226.6,292.8 &#10;&#9;&#9;&#9;&#9;226.8,293.2 234.6,289.1 &#9;&#9;&#9;" id="el_VMM798eGonu"/>
			
				<rect x="226.6" y="291.5" width="8.8" height="0.4" id="el_TSjgdgzJ_vj"/>
			
				<rect x="227" y="292.3" width="8.8" height="0.4" id="el_ty4q38j2n3L"/>
			
				<rect x="227.4" y="293.1" width="8.8" height="0.4" id="el_Dl1na8HgMPp"/>
			
				<rect x="227.8" y="293.9" width="8.8" height="0.4" id="el_0oFGUAQnKUu"/>
			
				<rect x="228.2" y="294.7" width="8.8" height="0.4" id="el_GrmesUVBkcx"/>
			
				<rect x="228.4" y="295.1" width="8.8" height="0.4" id="el_JUylMWYoC30"/>
			
				<rect x="228.8" y="295.8" width="8.8" height="0.4" id="el_1hDjiqLGYIq"/>
			
				<rect x="229.2" y="296.6" width="8.8" height="0.4" id="el_Mw30J-y8DAz"/>
			
				<rect x="229.6" y="297.4" width="8.8" height="0.4" id="el_WVqI3J5nzLv"/>
			<polygon points="238.2,296.2 230.4,300.2 230.6,300.6 230.6,300.6 230.8,301 238.6,296.9 &#9;&#9;&#9;" id="el_wVQynkPV7pZ"/>
			
				<rect x="230.6" y="299.3" width="8.8" height="0.4" id="el_bDVDh5fXXFU"/>
			
				<rect x="230.8" y="299.7" width="8.8" height="0.4" id="el_-p1UcKxJAq5"/>
			<polygon points="239.7,298.9 239.7,298.9 239.5,298.5 231.6,302.6 231.8,303 235.7,301 231.8,303 232,303.4 &#10;&#9;&#9;&#9;&#9;239.9,299.3 &#9;&#9;&#9;" id="el_u4iru8fWN84"/>
			
				<rect x="231.8" y="301.7" width="8.8" height="0.4" id="el_U-_SEJMeZk8"/>
			
				<rect x="232.2" y="302.5" width="8.8" height="0.4" id="el_CVRtuaBzTY2"/>
			
				<rect x="232.7" y="303.2" width="8.8" height="0.4" id="el_Xo_hw8aPBTA"/>
			
				<rect x="233.1" y="304" width="8.8" height="0.4" id="el_XIR2tGF-Hs6"/>
			<polygon points="241.9,303.2 238.1,305.2 241.9,303.2 241.7,302.8 233.9,306.9 234.1,307.3 234.1,307.3 &#10;&#9;&#9;&#9;&#9;234.3,307.6 242.1,303.6 &#9;&#9;&#9;" id="el_CMXG7HJyYXD"/>
			
				<rect x="234.1" y="306" width="8.8" height="0.4" id="el_uDmV2fB-NTX"/>
			
				<rect x="234.5" y="306.7" width="8.8" height="0.4" id="el_-TKOrjSF1-W"/>
			
				<rect x="234.7" y="307.1" width="8.8" height="0.4" id="el_6bvA58CLTGk"/>
			
				<rect x="235.1" y="307.9" width="8.8" height="0.4" id="el_7I5jEq_cD2I"/>
			
				<rect x="235.5" y="308.7" width="8.8" height="0.4" id="el_sjX2Mh-LFzc"/>
			
				<rect x="235.9" y="309.4" width="8.8" height="0.4" id="el_PO311_CmEkl"/>
			
				<rect x="236.3" y="310.2" width="8.8" height="0.4" id="el_tJR6q3ieNu1"/>
			<polygon points="245.1,309.4 241.3,311.4 245.1,309.4 244.9,309 237.1,313.1 237.3,313.5 237.3,313.5 237.5,313.8 &#10;&#9;&#9;&#9;&#9;245.3,309.8 &#9;&#9;&#9;" id="el_r4KHQQrzsHd"/>
			<polygon points="259.7,337.4 259.7,337.4 259.5,337 259.5,337 259.4,336.8 251.5,340.8 251.7,341.2 251.7,341.2 &#10;&#9;&#9;&#9;&#9;251.8,341.4 251.8,341.4 252,341.8 259.9,337.8 &#9;&#9;&#9;" id="el_2NBQNVHXktu"/>
			
				<rect x="251.9" y="340.2" width="8.8" height="0.4" id="el_INhVNXKiq9p"/>
			
				<rect x="252.3" y="340.9" width="8.8" height="0.4" id="el_RJTE2n8KD9V"/>
			
				<rect x="252.7" y="341.7" width="8.8" height="0.4" id="el_btsguDgUN15"/>
			
				<rect x="253.1" y="342.5" width="8.8" height="0.4" id="el_YQUCdORyOOY"/>
			<polygon points="261.9,341.7 261.9,341.7 261.7,341.3 253.9,345.3 254.1,345.7 254.1,345.7 254.3,346.1 262.1,342 &#10;&#9;&#9;&#9;&#9;&#9;&#9;&#9;" id="el_sjixLLh45O8"/>
			
				<rect x="254.1" y="344.4" width="8.8" height="0.4" id="el_Jn0FKVjd22c"/>
			
				<rect x="254.5" y="345.2" width="8.8" height="0.4" id="el_I9ELWbACdqE"/>
			
				<rect x="254.9" y="346" width="8.8" height="0.4" id="el_tB0-M4K-4C4"/>
			<polygon points="263.7,345.2 263.7,345.2 263.5,344.8 255.7,348.8 255.9,349.2 255.9,349.2 256.1,349.6 &#10;&#9;&#9;&#9;&#9;263.9,345.6 &#9;&#9;&#9;" id="el_U4jFcRyfKSj"/>
			<polygon points="264.1,345.9 256.3,350 256.5,350.4 256.5,350.4 256.7,350.8 264.5,346.7 &#9;&#9;&#9;" id="el_xqbJ2fKrBtu"/>
			<polygon points="264.7,347.1 256.9,351.2 257.1,351.6 257.1,351.6 257.3,352 265.2,347.9 &#9;&#9;&#9;" id="el_HPmZYnJh-l8"/>
			
				<rect x="257.1" y="350.3" width="8.8" height="0.4" id="el_BD-jkH4IlEQ"/>
			
				<rect x="257.5" y="351.1" width="8.8" height="0.4" id="el_vtz_hqJlaZE"/>
			
				<rect x="257.9" y="351.9" width="8.8" height="0.4" id="el_zjA3wiu5ium"/>
			
				<rect x="258.3" y="352.6" width="8.8" height="0.4" id="el_8hfp3f0kRz6"/>
			
				<rect x="258.7" y="353.4" width="8.8" height="0.4" id="el_8HA2dZYiToz"/>
			
				<rect x="237.3" y="312.2" width="8.8" height="0.4" id="el_NcclZ63LEai"/>
			
				<rect x="237.7" y="313" width="8.8" height="0.4" id="el_iW3FB84gEEj"/>
			
				<rect x="238.1" y="313.7" width="8.8" height="0.4" id="el_E_vAuonWBU1"/>
			<polygon points="246.9,312.9 246.9,312.9 246.7,312.5 238.9,316.6 239.1,317 239.1,317 239.3,317.4 247.1,313.3 &#9;&#9;&#9;&#10;&#9;&#9;&#9;&#9;" id="el_M5h711YiOvl"/>
			<polygon points="247.6,314.1 247.6,314.1 247.4,313.7 239.5,317.7 239.7,318.1 239.7,318.1 239.9,318.5 &#10;&#9;&#9;&#9;&#9;247.8,314.4 &#9;&#9;&#9;" id="el_eJUYceGrObU"/>
			<polygon points="248.2,315.2 248.2,315.2 248,314.8 240.1,318.9 240.3,319.3 240.3,319.3 240.5,319.7 248.4,315.6 &#10;&#9;&#9;&#9;&#9;&#9;&#9;&#9;" id="el_ExGwrwwS1fH"/>
			
				<rect x="240.3" y="318" width="8.8" height="0.4" id="el_65vL9EBKsj_"/>
			
				<rect x="240.7" y="318.8" width="8.8" height="0.4" id="el_nBejVuopcbl"/>
			
				<rect x="241.1" y="319.6" width="8.8" height="0.4" id="el__kKE-rrDEmP"/>
			
				<rect x="241.6" y="320.4" width="8.8" height="0.4" id="el_w49dhsj_ito"/>
			<polygon points="250.4,319.5 250.4,319.5 250.2,319.1 242.4,323.2 242.8,324 250.6,319.9 &#9;&#9;&#9;" id="el_3FsN_m_x7GH"/>
			
				<rect x="242.6" y="322.3" width="8.8" height="0.4" id="el_C4bbxi9lKAZ"/>
			<polygon points="251.5,321.6 251.5,321.6 251.3,321.2 243.4,325.2 243.6,325.6 243.6,325.6 243.8,326 251.7,322 &#9;&#9;&#9;&#10;&#9;&#9;&#9;&#9;" id="el_rug0RFz2jFk"/>
			
				<rect x="243.6" y="324.4" width="8.8" height="0.4" id="el_0E4qw4Ha8c5"/>
			
				<rect x="244" y="325.1" width="8.8" height="0.4" id="el_nWmhuLun_Fi"/>
			
				<rect x="244.4" y="325.9" width="8.8" height="0.4" id="el_6nIQVp2cUsV"/>
			
				<rect x="244.9" y="326.7" width="8.8" height="0.4" id="el_DK03eVsuXLE"/>
			<polygon points="253.5,325.5 245.7,329.5 245.9,329.9 245.9,329.9 246.1,330.3 253.9,326.2 &#9;&#9;&#9;" id="el_bEvA-3IXuu3"/>
			
				<rect x="245.9" y="328.6" width="8.8" height="0.4" id="el_RwDd9apr2K2"/>
			
				<rect x="246.3" y="329.4" width="8.8" height="0.4" id="el_-8zk8OOrKvB"/>
			
				<rect x="246.7" y="330.2" width="8.8" height="0.4" id="el_CPqOLl-s-Hl"/>
			<polygon points="255.3,329 247.5,333 247.7,333.4 247.7,333.4 247.9,333.8 255.7,329.8 &#9;&#9;&#9;" id="el_tf-St2BaPEk"/>
			<polygon points="255.9,330.1 248.1,334.2 248.3,334.6 248.3,334.6 248.5,335 256.3,330.9 &#9;&#9;&#9;" id="el_ZHI_6_jsvh-"/>
			<polygon points="256.5,331.3 248.7,335.4 248.9,335.8 248.9,335.8 249.1,336.2 256.9,332.1 &#9;&#9;&#9;" id="el_Q9fLaoyS56j"/>
			
				<rect x="248.9" y="334.5" width="8.8" height="0.4" id="el_fcp6sWJuJFS"/>
			
				<rect x="249.3" y="335.3" width="8.8" height="0.4" id="el_rjih1kv5h_G"/>
			
				<rect x="249.7" y="336.1" width="8.8" height="0.4" id="el__abg_XB8wc2"/>
			
				<rect x="250.1" y="336.8" width="8.8" height="0.4" id="el_j6NECiFrFqm"/>
			<polygon points="259,336 259,336 258.8,335.6 250.9,339.7 251.1,340.1 251.1,340.1 251.3,340.5 259.2,336.4 &#9;&#9;&#9;" id="el_KR2u1d5I0Xe"/>
		</g>
	</g>
	<path id="el__3DoEyW7eya" d="M277,399.6l-6.5-57.6c-1.2-4.7-6.5-7.9-11.8-7c-5.3,0.8-7.4,2.8-7.4,10l0.1,15.2l0.8,9.6&#10;&#9;&#9;c-0.2,3.6,0.2,7.3,1.4,10.8c1.9,5.7,0.1-4-1.9,1.6l-0.6,1.8c-4,14-0.8,29.4,3.4,35.8c2.1,3.2,3.1,6,6.5,8.1&#10;&#9;&#9;c5.2,3.3,7.8,19.2,10.8,29.2c4.2,14.1,7.1,39.2,7.1,39.2l16.6,130.3h71l-71.9-225.5"/>
</g></g>
</svg>