<svg version="1.1" id="el_Azz-oA5hI" xmlns="http://www.w3.org/2000/svg" xmlns:xlink="http://www.w3.org/1999/xlink" x="0px" y="0px" viewBox="0 0 385 600" style="enable-background:new 0 0 385 626.6;" xml:space="preserve"><style>@-webkit-keyframes kf_el_mSdXCSnSGAd_an_6C3XCQogJ{19.23%{-webkit-transform: translate(218.60671997070312px, 263.9031066894531px) translate(-218.60671997070312px, -263.9031066894531px) translate(50px, 340px);transform: translate(218.60671997070312px, 263.9031066894531px) translate(-218.60671997070312px, -263.9031066894531px) translate(50px, 340px);}46.15%{-webkit-transform: translate(218.60671997070312px, 263.9031066894531px) translate(-218.60671997070312px, -263.9031066894531px) translate(0px, -5px);transform: translate(218.60671997070312px, 263.9031066894531px) translate(-218.60671997070312px, -263.9031066894531px) translate(0px, -5px);}50%{-webkit-transform: translate(218.60671997070312px, 263.9031066894531px) translate(-218.60671997070312px, -263.9031066894531px) translate(0px, 0px);transform: translate(218.60671997070312px, 263.9031066894531px) translate(-218.60671997070312px, -263.9031066894531px) translate(0px, 0px);}73.08%{-webkit-transform: translate(218.60671997070312px, 263.9031066894531px) translate(-218.60671997070312px, -263.9031066894531px) translate(0px, 0px);transform: translate(218.60671997070312px, 263.9031066894531px) translate(-218.60671997070312px, -263.9031066894531px) translate(0px, 0px);}93.59%{-webkit-transform: translate(218.60671997070312px, 263.9031066894531px) translate(-218.60671997070312px, -263.9031066894531px) translate(-100px, 340px);transform: translate(218.60671997070312px, 263.9031066894531px) translate(-218.60671997070312px, -263.9031066894531px) translate(-100px, 340px);}0%{-webkit-transform: translate(218.60671997070312px, 263.9031066894531px) translate(-218.60671997070312px, -263.9031066894531px) translate(50px, 340px);transform: translate(218.60671997070312px, 263.9031066894531px) translate(-218.60671997070312px, -263.9031066894531px) translate(50px, 340px);}100%{-webkit-transform: translate(218.60671997070312px, 263.9031066894531px) translate(-218.60671997070312px, -263.9031066894531px) translate(-100px, 340px);transform: translate(218.60671997070312px, 263.9031066894531px) translate(-218.60671997070312px, -263.9031066894531px) translate(-100px, 340px);}}@keyframes kf_el_mSdXCSnSGAd_an_6C3XCQogJ{19.23%{-webkit-transform: translate(218.60671997070312px, 263.9031066894531px) translate(-218.60671997070312px, -263.9031066894531px) translate(50px, 340px);transform: translate(218.60671997070312px, 263.9031066894531px) translate(-218.60671997070312px, -263.9031066894531px) translate(50px, 340px);}46.15%{-webkit-transform: translate(218.60671997070312px, 263.9031066894531px) translate(-218.60671997070312px, -263.9031066894531px) translate(0px, -5px);transform: translate(218.60671997070312px, 263.9031066894531px) translate(-218.60671997070312px, -263.9031066894531px) translate(0px, -5px);}50%{-webkit-transform: translate(218.60671997070312px, 263.9031066894531px) translate(-218.60671997070312px, -263.9031066894531px) translate(0px, 0px);transform: translate(218.60671997070312px, 263.9031066894531px) translate(-218.60671997070312px, -263.9031066894531px) translate(0px, 0px);}73.08%{-webkit-transform: translate(218.60671997070312px, 263.9031066894531px) translate(-218.60671997070312px, -263.9031066894531px) translate(0px, 0px);transform: translate(218.60671997070312px, 263.9031066894531px) translate(-218.60671997070312px, -263.9031066894531px) translate(0px, 0px);}93.59%{-webkit-transform: translate(218.60671997070312px, 263.9031066894531px) translate(-218.60671997070312px, -263.9031066894531px) translate(-100px, 340px);transform: translate(218.60671997070312px, 263.9031066894531px) translate(-218.60671997070312px, -263.9031066894531px) translate(-100px, 340px);}0%{-webkit-transform: translate(218.60671997070312px, 263.9031066894531px) translate(-218.60671997070312px, -263.9031066894531px) translate(50px, 340px);transform: translate(218.60671997070312px, 263.9031066894531px) translate(-218.60671997070312px, -263.9031066894531px) translate(50px, 340px);}100%{-webkit-transform: translate(218.60671997070312px, 263.9031066894531px) translate(-218.60671997070312px, -263.9031066894531px) translate(-100px, 340px);transform: translate(218.60671997070312px, 263.9031066894531px) translate(-218.60671997070312px, -263.9031066894531px) translate(-100px, 340px);}}#el_Azz-oA5hI *{-webkit-animation-duration: 2.6s;animation-duration: 2.6s;-webkit-animation-iteration-count: infinite;animation-iteration-count: infinite;-webkit-animation-timing-function: cubic-bezier(0, 0, 1, 1);animation-timing-function: cubic-bezier(0, 0, 1, 1);}#el_qutfELLTG1{fill: #1A1A1A;}#el_WW9ztQEkIL{fill: #1A1A1A;}#el_TBcAzrts_q{fill: #1A1A1A;}#el_p5xI1hbBLP{fill: #1A1A1A;}#el_De6gBKBXvr{fill: #E6E6E6;}#el_Qwm-Hy6rzA{fill: #FE7F78;}#el_kZ7e2ILAXA{fill: #37E8D7;visibility: hidden;}#el__c54SRgUeK{fill: #333333;}#el_eO9RrJ9zhe{fill: #E6E6E6;}#el_ZvmGqsKrxe{fill: #231F20;}#el_3bwhli01K2H{fill: #FFFFFF;}#el_8izD5wVac7-{fill: #FFFFFF;}#el_0PyVAyaKeC4{fill: #403C51;}#el_vJOMxowh0um{fill: #403C51;}#el_QtMPJNnrXSo{fill: #FFFFFF;}#el_TVMLj70j1Vg{fill: #FFFFFF;}#el_Sp0Bpk-2g11{fill: #F2F2F2;}#el_eQV3jZHuQUv{fill: #414042;}#el_uXjf7mTusv_{fill: #414042;}#el_CtkU4ZCMG5c{fill: #414042;}#el_9AlQ0OrKQgV{fill: #414042;}#el_5hmqHnmGR7W{fill: #414042;}#el_gWnfDDekmDv{fill: #414042;}#el_bPTGEHJtkY2{fill: #FFFFFF;}#el_S0roaQ1f7QD{fill: #FFFFFF;}#el_KX7i1Fw59Vv{fill: #0E4160;}#el_WUAa6wPwqn9{fill: #0E4160;}#el_cYZQF6mj1pU{fill: #FFFFFF;}#el_Jvp4NxscNIa{fill: #FFFFFF;}#el_ubTL4WKVMmz{fill: #F2F2F2;}#el_RcihVH0ZKbf{fill: #414042;}#el_QaV0EVe69HF{fill: #414042;}#el_jRqw54NDmFt{fill: #414042;}#el_ty6831s1w62{fill: #414042;}#el_Z31wryxqyce{fill: #414042;}#el_nWS3dGHWw6d{fill: #414042;}#el_uCh9AmN3V25{fill: #1A1A1A;}#el_3mqejrcHY_0{fill: #666666;}#el_5w5lKngcyme{fill: #808080;}#el_9OCZpdmyblz{fill: #666666;}#el_CswC4GEU5yG{fill: #999999;}#el_uyi7zkXdMDZ{fill: #1A1A1A;}#el_A76nzrWS4n9{fill: #1A1A1A;}#el_MTHWSpSa0jl{fill: #666666;}#el_rDKvm74rHYG{fill: #999999;}#el_bnKo4DjYts7{fill: #1A1A1A;}#el_-owaBlnNcjO{fill: #333333;}#el_p8lF7UU-J7r{fill: #333333;}#el_xfPxPiqmj4L{fill: #CCCCCC;}#el_B88wppkwDvL{fill: #CCCCCC;}#el_7eCuytzyL60{display: none;fill: #B3B3B3;}#el_05Bs5j46CIt{fill: #B3B3B3;}#el_uaSbEfFPwHw{fill: #B3B3B3;}#el_b0BBxqvfzG1{fill: #B3B3B3;}#el_iV43AtS2cxQ{fill: #B3B3B3;}#el_JVrfAwZaxBz{fill: #CB6560;}#el_R-NQkzcZFe9{fill: #2CB9AC;visibility: hidden;}#el_d6UaThGovfH{fill: #FE7F78;}#el_tsdArtyBiSG{fill: #37E8D7;visibility: hidden;}#el_Ky4qUpZ91fw{fill: #4A4A4A;-webkit-transform: matrix(0.8872, -0.4614, 0.4614, 0.8872, -111.2212, 161.1318);transform: matrix(0.8872, -0.4614, 0.4614, 0.8872, -111.2212, 161.1318);}#el_MV4FmbClxW-{fill: none;stroke: #4A4A4A;stroke-width: 0.8792;stroke-miterlimit: 10;}#el_cHubGqjw8p7{fill: none;stroke: #4A4A4A;stroke-width: 0.8792;stroke-miterlimit: 10;}#el_evxnW2-5oID{fill: none;stroke: #4A4A4A;stroke-width: 0.8792;stroke-miterlimit: 10;}#el_EWX6OyUgXi1{fill: none;stroke: #4A4A4A;stroke-width: 0.8792;stroke-miterlimit: 10;}#el_OKMBdvn31qI{fill: #4A4A4A;}#el_JRYVD7af1hA{fill: #4A4A4A;-webkit-transform: matrix(0.8872, -0.4614, 0.4614, 0.8872, -108.5703, 139.5054);transform: matrix(0.8872, -0.4614, 0.4614, 0.8872, -108.5703, 139.5054);}#el_Cz4uJ4T0yVp{fill: #4A4A4A;-webkit-transform: matrix(0.8872, -0.4614, 0.4614, 0.8872, -108.8842, 139.7799);transform: matrix(0.8872, -0.4614, 0.4614, 0.8872, -108.8842, 139.7799);}#el_zGIFQLX97De{fill: #4A4A4A;-webkit-transform: matrix(0.8872, -0.4614, 0.4614, 0.8872, -109.1986, 140.0558);transform: matrix(0.8872, -0.4614, 0.4614, 0.8872, -109.1986, 140.0558);}#el_NKUPAvCCfwu{fill: #4A4A4A;-webkit-transform: matrix(0.8872, -0.4614, 0.4614, 0.8872, -109.5125, 140.3304);transform: matrix(0.8872, -0.4614, 0.4614, 0.8872, -109.5125, 140.3304);}#el_owMBGLUp9mD{fill: #4A4A4A;-webkit-transform: matrix(0.8867, -0.4623, 0.4623, 0.8867, -109.9683, 140.9203);transform: matrix(0.8867, -0.4623, 0.4623, 0.8867, -109.9683, 140.9203);}#el_YkFYDwVLGT3{fill: #4A4A4A;-webkit-transform: matrix(0.8872, -0.4614, 0.4614, 0.8872, -109.9837, 140.7432);transform: matrix(0.8872, -0.4614, 0.4614, 0.8872, -109.9837, 140.7432);}#el_swB83hgwGcs{fill: #4A4A4A;-webkit-transform: matrix(0.8872, -0.4614, 0.4614, 0.8872, -110.2982, 141.0191);transform: matrix(0.8872, -0.4614, 0.4614, 0.8872, -110.2982, 141.0191);}#el_2WYuUg_mJJr{fill: #4A4A4A;-webkit-transform: matrix(0.8872, -0.4614, 0.4614, 0.8872, -110.6043, 141.2768);transform: matrix(0.8872, -0.4614, 0.4614, 0.8872, -110.6043, 141.2768);}#el_PuMgatXySmX{fill: #4A4A4A;-webkit-transform: matrix(0.8872, -0.4614, 0.4614, 0.8872, -110.9261, 141.5687);transform: matrix(0.8872, -0.4614, 0.4614, 0.8872, -110.9261, 141.5687);}#el_Oz8yHu612n0{fill: #4A4A4A;}#el_xG_jfOJEZr3{fill: #4A4A4A;-webkit-transform: matrix(0.8867, -0.4623, 0.4623, 0.8867, -111.8559, 142.5755);transform: matrix(0.8867, -0.4623, 0.4623, 0.8867, -111.8559, 142.5755);}#el_180syPf3Mht{fill: #4A4A4A;-webkit-transform: matrix(0.8871, -0.4615, 0.4615, 0.8871, -111.8765, 142.4121);transform: matrix(0.8871, -0.4615, 0.4615, 0.8871, -111.8765, 142.4121);}#el_iquoY5sWO6D{fill: #4A4A4A;}#el_tkGkxsMgvwy{fill: #4A4A4A;-webkit-transform: matrix(0.8872, -0.4614, 0.4614, 0.8872, -112.6461, 143.0653);transform: matrix(0.8872, -0.4614, 0.4614, 0.8872, -112.6461, 143.0653);}#el_pgYNwscPre2{fill: #4A4A4A;-webkit-transform: matrix(0.8871, -0.4615, 0.4615, 0.8871, -112.9761, 143.3755);transform: matrix(0.8871, -0.4615, 0.4615, 0.8871, -112.9761, 143.3755);}#el_LpouBFFg_sC{fill: #4A4A4A;-webkit-transform: matrix(0.8872, -0.4614, 0.4614, 0.8872, -113.2743, 143.6157);transform: matrix(0.8872, -0.4614, 0.4614, 0.8872, -113.2743, 143.6157);}#el_6Wl6ihxphE1{fill: #4A4A4A;-webkit-transform: matrix(0.8872, -0.4614, 0.4614, 0.8872, -113.5884, 143.8907);transform: matrix(0.8872, -0.4614, 0.4614, 0.8872, -113.5884, 143.8907);}#el_UEjIlQ9ZuRU{fill: #4A4A4A;}#el_QSybaGgZ8ut{fill: #4A4A4A;-webkit-transform: matrix(0.8871, -0.4615, 0.4615, 0.8871, -114.3899, 144.6139);transform: matrix(0.8871, -0.4615, 0.4615, 0.8871, -114.3899, 144.6139);}#el_XO6J-KUjSu5{fill: #4A4A4A;-webkit-transform: matrix(0.8867, -0.4623, 0.4623, 0.8867, -114.8291, 145.1826);transform: matrix(0.8867, -0.4623, 0.4623, 0.8867, -114.8291, 145.1826);}#el_z4dWAhZbAQr{fill: #4A4A4A;-webkit-transform: matrix(0.8872, -0.4614, 0.4614, 0.8872, -114.8377, 144.996);transform: matrix(0.8872, -0.4614, 0.4614, 0.8872, -114.8377, 144.996);}#el_hLtCM6ilvm7{fill: #4A4A4A;-webkit-transform: matrix(0.8872, -0.4614, 0.4614, 0.8872, -115.1434, 145.2531);transform: matrix(0.8872, -0.4614, 0.4614, 0.8872, -115.1434, 145.2531);}#el_v1VqxICxOnO{fill: #4A4A4A;-webkit-transform: matrix(0.8872, -0.4614, 0.4614, 0.8872, -115.4656, 145.5455);transform: matrix(0.8872, -0.4614, 0.4614, 0.8872, -115.4656, 145.5455);}#el_wutZSxgscXO{fill: #4A4A4A;-webkit-transform: matrix(0.8872, -0.4614, 0.4614, 0.8872, -115.7801, 145.8215);transform: matrix(0.8872, -0.4614, 0.4614, 0.8872, -115.7801, 145.8215);}#el_dv6-VDxIG{fill: #4A4A4A;-webkit-transform: matrix(0.8872, -0.4614, 0.4614, 0.8872, -116.0858, 146.0785);transform: matrix(0.8872, -0.4614, 0.4614, 0.8872, -116.0858, 146.0785);}#el_LrgQKUbvDM{fill: #4A4A4A;}#el_nyO7wGOi85{fill: #4A4A4A;}#el_WO3XeW6gaO{fill: #4A4A4A;-webkit-transform: matrix(0.8872, -0.4614, 0.4614, 0.8872, -128.15, 156.6579);transform: matrix(0.8872, -0.4614, 0.4614, 0.8872, -128.15, 156.6579);}#el_X1wtzoul6x{fill: #4A4A4A;-webkit-transform: matrix(0.8871, -0.4615, 0.4615, 0.8871, -128.4736, 156.9529);transform: matrix(0.8871, -0.4615, 0.4615, 0.8871, -128.4736, 156.9529);}#el_LQimw5oEck{fill: #4A4A4A;-webkit-transform: matrix(0.8872, -0.4614, 0.4614, 0.8872, -128.7602, 157.1706);transform: matrix(0.8872, -0.4614, 0.4614, 0.8872, -128.7602, 157.1706);}#el_sgpOvwORac{fill: #4A4A4A;-webkit-transform: matrix(0.8872, -0.4614, 0.4614, 0.8872, -129.0924, 157.4834);transform: matrix(0.8872, -0.4614, 0.4614, 0.8872, -129.0924, 157.4834);}#el_IburWCGj9I{fill: #4A4A4A;}#el_XF84xOxTOT{fill: #4A4A4A;-webkit-transform: matrix(0.8872, -0.4614, 0.4614, 0.8872, -129.8778, 158.1717);transform: matrix(0.8872, -0.4614, 0.4614, 0.8872, -129.8778, 158.1717);}#el_MDStSsYbD7{fill: #4A4A4A;-webkit-transform: matrix(0.8872, -0.4614, 0.4614, 0.8872, -130.1736, 158.4085);transform: matrix(0.8872, -0.4614, 0.4614, 0.8872, -130.1736, 158.4085);}#el_2maw_dibGP{fill: #4A4A4A;-webkit-transform: matrix(0.8871, -0.4615, 0.4615, 0.8871, -130.5155, 158.7418);transform: matrix(0.8871, -0.4615, 0.4615, 0.8871, -130.5155, 158.7418);}#el_vJlKV6o6JV{fill: #4A4A4A;}#el_a0m2Sjzi3Y{fill: #4A4A4A;}#el_qvM5NKn7Cw{fill: #4A4A4A;}#el_6tnZoKbx17{fill: #4A4A4A;-webkit-transform: matrix(0.8871, -0.4615, 0.4615, 0.8871, -132.2435, 160.2558);transform: matrix(0.8871, -0.4615, 0.4615, 0.8871, -132.2435, 160.2558);}#el_efPzK0duJS{fill: #4A4A4A;-webkit-transform: matrix(0.8872, -0.4614, 0.4614, 0.8872, -132.5481, 160.5109);transform: matrix(0.8872, -0.4614, 0.4614, 0.8872, -132.5481, 160.5109);}#el_wTEMJ0eS6LP{fill: #4A4A4A;-webkit-transform: matrix(0.8872, -0.4614, 0.4614, 0.8872, -132.8434, 160.7471);transform: matrix(0.8872, -0.4614, 0.4614, 0.8872, -132.8434, 160.7471);}#el_BzxLWyghiuH{fill: #4A4A4A;-webkit-transform: matrix(0.8871, -0.4615, 0.4615, 0.8871, -133.186, 161.0814);transform: matrix(0.8871, -0.4615, 0.4615, 0.8871, -133.186, 161.0814);}#el_xGyHXaIfIS4{fill: #4A4A4A;-webkit-transform: matrix(0.8872, -0.4614, 0.4614, 0.8872, -133.4905, 161.3364);transform: matrix(0.8872, -0.4614, 0.4614, 0.8872, -133.4905, 161.3364);}#el_OpicYpdsytL{fill: #4A4A4A;-webkit-transform: matrix(0.8872, -0.4614, 0.4614, 0.8872, -116.8633, 146.7495);transform: matrix(0.8872, -0.4614, 0.4614, 0.8872, -116.8633, 146.7495);}#el_WDhbXAA7LMr{fill: #4A4A4A;-webkit-transform: matrix(0.8872, -0.4614, 0.4614, 0.8872, -117.1771, 147.024);transform: matrix(0.8872, -0.4614, 0.4614, 0.8872, -117.1771, 147.024);}#el__axgyNGL02g{fill: #4A4A4A;-webkit-transform: matrix(0.8872, -0.4614, 0.4614, 0.8872, -117.5078, 147.3352);transform: matrix(0.8872, -0.4614, 0.4614, 0.8872, -117.5078, 147.3352);}#el_yvKgVdhoe21{fill: #4A4A4A;}#el_CQptCi0Ti1N{fill: #4A4A4A;}#el_v8Lkvji92kl{fill: #4A4A4A;}#el_Gp3VIfT4DKH{fill: #4A4A4A;-webkit-transform: matrix(0.8872, -0.4614, 0.4614, 0.8872, -119.2354, 148.848);transform: matrix(0.8872, -0.4614, 0.4614, 0.8872, -119.2354, 148.848);}#el_qbwY7fYWaCR{fill: #4A4A4A;-webkit-transform: matrix(0.8872, -0.4614, 0.4614, 0.8872, -119.5415, 149.1061);transform: matrix(0.8872, -0.4614, 0.4614, 0.8872, -119.5415, 149.1061);}#el_3LWIMHOx6xv{fill: #4A4A4A;-webkit-transform: matrix(0.8872, -0.4614, 0.4614, 0.8872, -119.8635, 149.3985);transform: matrix(0.8872, -0.4614, 0.4614, 0.8872, -119.8635, 149.3985);}#el_fO3vsKmOv6S{fill: #4A4A4A;-webkit-transform: matrix(0.8871, -0.4615, 0.4615, 0.8871, -120.1865, 149.6924);transform: matrix(0.8871, -0.4615, 0.4615, 0.8871, -120.1865, 149.6924);}#el_2hT_OG8JDPi{fill: #4A4A4A;}#el_krwg4gTmGkO{fill: #4A4A4A;-webkit-transform: matrix(0.8872, -0.4614, 0.4614, 0.8872, -120.9461, 150.3256);transform: matrix(0.8872, -0.4614, 0.4614, 0.8872, -120.9461, 150.3256);}#el_6SQLfVV4gpc{fill: #4A4A4A;}#el_rKswJyg0km6{fill: #4A4A4A;-webkit-transform: matrix(0.8872, -0.4614, 0.4614, 0.8872, -121.7872, 151.0838);transform: matrix(0.8872, -0.4614, 0.4614, 0.8872, -121.7872, 151.0838);}#el_3SH_cBe0_Wf{fill: #4A4A4A;-webkit-transform: matrix(0.8871, -0.4615, 0.4615, 0.8871, -122.1104, 151.378);transform: matrix(0.8871, -0.4615, 0.4615, 0.8871, -122.1104, 151.378);}#el_BVuGytyyUuj{fill: #4A4A4A;-webkit-transform: matrix(0.8872, -0.4614, 0.4614, 0.8872, -122.4158, 151.6344);transform: matrix(0.8872, -0.4614, 0.4614, 0.8872, -122.4158, 151.6344);}#el_iqNUfRtHU51{fill: #4A4A4A;-webkit-transform: matrix(0.8872, -0.4614, 0.4614, 0.8872, -122.7127, 151.8729);transform: matrix(0.8872, -0.4614, 0.4614, 0.8872, -122.7127, 151.8729);}#el_VtV3xj0ishc{fill: #4A4A4A;}#el_xs2o-mE5B03{fill: #4A4A4A;-webkit-transform: matrix(0.8872, -0.4614, 0.4614, 0.8872, -123.5151, 152.5976);transform: matrix(0.8872, -0.4614, 0.4614, 0.8872, -123.5151, 152.5976);}#el__2dIn62IPjU{fill: #4A4A4A;-webkit-transform: matrix(0.8872, -0.4614, 0.4614, 0.8872, -123.8294, 152.8726);transform: matrix(0.8872, -0.4614, 0.4614, 0.8872, -123.8294, 152.8726);}#el_amrJOJb0PWp{fill: #4A4A4A;-webkit-transform: matrix(0.8872, -0.4614, 0.4614, 0.8872, -124.1351, 153.1302);transform: matrix(0.8872, -0.4614, 0.4614, 0.8872, -124.1351, 153.1302);}#el_LT9OzVc3G_4{fill: #4A4A4A;}#el_DAlI8ZNBJD2{fill: #4A4A4A;}#el_CmESaoUe5gP{fill: #4A4A4A;}#el_Sx_upGvnsQ9{fill: #4A4A4A;-webkit-transform: matrix(0.8871, -0.4615, 0.4615, 0.8871, -125.8803, 154.6809);transform: matrix(0.8871, -0.4615, 0.4615, 0.8871, -125.8803, 154.6809);}#el_z1-HitPbNfG{fill: #4A4A4A;-webkit-transform: matrix(0.8872, -0.4614, 0.4614, 0.8872, -126.1853, 154.9368);transform: matrix(0.8872, -0.4614, 0.4614, 0.8872, -126.1853, 154.9368);}#el_y0XlZo8AFru{fill: #4A4A4A;-webkit-transform: matrix(0.8872, -0.4614, 0.4614, 0.8872, -126.4817, 155.1745);transform: matrix(0.8872, -0.4614, 0.4614, 0.8872, -126.4817, 155.1745);}#el_zABVprSHwos{fill: #4A4A4A;-webkit-transform: matrix(0.8871, -0.4615, 0.4615, 0.8871, -126.8228, 155.5065);transform: matrix(0.8871, -0.4615, 0.4615, 0.8871, -126.8228, 155.5065);}#el_vnsSr-PQipU{fill: #4A4A4A;}#el_KsUUzL9hyEW{fill: #B3B3B3;}#el_mSdXCSnSGAd_an_6C3XCQogJ{-webkit-animation-fill-mode: backwards;animation-fill-mode: backwards;-webkit-transform: translate(218.60671997070312px, 263.9031066894531px) translate(-218.60671997070312px, -263.9031066894531px) translate(50px, 340px);transform: translate(218.60671997070312px, 263.9031066894531px) translate(-218.60671997070312px, -263.9031066894531px) translate(50px, 340px);-webkit-animation-name: kf_el_mSdXCSnSGAd_an_6C3XCQogJ;animation-name: kf_el_mSdXCSnSGAd_an_6C3XCQogJ;-webkit-animation-timing-function: cubic-bezier(0, 0, 1, 1);animation-timing-function: cubic-bezier(0, 0, 1, 1);}#el_CQXHhhRMNPR{visibility: hidden;}</style>
  <style>svg {cursor : none;}</style>
<g id="el_w6QdOuDNbO">
	<path d="M383.2,351.1c0,0,4,23.1,0,37.7s-14.7,38.9-14.7,38.9H16.4c0,0-10.7-24.4-14.7-38.9s0-37.7,0-37.7l6.9-57&#10;&#9;&#9;l28.1-222c0,0,4-36.9,25.6-52.6c0,0,10.4-8.5,19.1-10.7c8.6-2.2,21.5-4.1,35.2-5.4c19.9-2.2,39.8-3.3,59.8-3.4h32.2&#10;&#9;&#9;c20,0.1,39.9,1.2,59.8,3.4c13.6,1.3,26.5,3.2,35.2,5.4c8.6,2.2,19,10.7,19,10.7c21.7,15.7,25.6,52.6,25.6,52.6l28.1,222&#10;&#9;&#9;L383.2,351.1z" id="el_qutfELLTG1"/>
	<path d="M367.7,429.4h0.3v1.3c0,0.6-0.1,1.3-0.3,1.9c-0.4,2-0.9,3.9-1.6,5.8L261.4,626.6H118.9L18.8,438.4&#10;&#9;&#9;c-0.7-1.9-1.2-3.9-1.6-5.8c-0.1-0.6-0.2-1.3-0.3-1.9v-1.3L367.7,429.4L367.7,429.4z" id="el_WW9ztQEkIL"/>
	<rect x="18.5" y="427.6" width="347.9" height="1.8" id="el_TBcAzrts_q"/>
</g>
<g id="el_aFBBXMJRWQ">
	<path d="M383.2,351.1c0,0,4,23.1,0,37.7s-14.7,38.9-14.7,38.9H16.4c0,0-10.7-24.4-14.7-38.9s0-37.7,0-37.7l6.9-57&#10;&#9;&#9;l28.1-222c0,0,4-36.9,25.6-52.6c0,0,10.4-8.5,19-10.7s21.5-4.1,35.2-5.4c19.9-2.2,39.8-3.3,59.8-3.4h32.2c20,0.1,39.9,1.2,59.8,3.4&#10;&#9;&#9;c13.6,1.3,26.5,3.2,35.2,5.4s19,10.7,19,10.7c21.7,15.7,25.6,52.6,25.6,52.6l28.1,222L383.2,351.1z M342.5,374.7&#10;&#9;&#9;c8.4-9.9,13-17.4,11-33.2s-5-43.7-5-43.7L320.4,66.7c0,0-3.4-35.2-43.4-39s-55.6-5.5-86.8-5.5s-46.8,1.8-86.8,5.5S60,66.7,60,66.7&#10;&#9;&#9;L31.8,297.9c0,0-3.8,21.7,6.7,32.2s14.3,14.5,35.2,14.5H144c0,0,12.5,0,17.1,2c4,1.5,7.9,3.5,11.4,5.9c3.3,2.2,17.6,12.2,25.7,18&#10;&#9;&#9;c2.6,1.8,5.1,3.7,7.6,5.6c7.4,5.5,16.4,8.4,25.6,8.3h85.1C316.5,384.4,334.1,384.6,342.5,374.7L342.5,374.7z" id="el_p5xI1hbBLP"/>
	<path id="el_De6gBKBXvr" d="M368,429.4v1.3c0,0.6-0.1,1.3-0.3,1.9c-0.4,2-0.9,3.9-1.6,5.8l-64.3,188.2H83.2L18.8,438.4&#10;&#9;&#9;c-0.7-1.9-1.2-3.9-1.6-5.8c-0.1-0.6-0.2-1.3-0.3-1.9v-1.3l44.5,106.2c0,0,15.1,32.7,41.8,35.3c0,0,9.4,0.3,17.6,0.3h142.9&#10;&#9;&#9;c8.2,0,17.6-0.3,17.6-0.3c26.7-2.6,41.8-35.3,41.8-35.3l44.5-106.2L368,429.4L368,429.4z"/>
	<rect id="el_HnQAg_Daxn" x="18.5" y="427.6" width="347.9" height="1.8"/>
	<g id="el_9coel8rDCa">
		<polygon id="el_Qwm-Hy6rzA" points="294.6,101.5 296.6,224.6 192.5,225.6 88.4,224.6 90.4,101.5 &#10;&#9;&#9;&#9;192.5,101.5 &#9;&#9;"/>
		
		<path id="el__c54SRgUeK" d="M296.4,365.4c1.4-1.4,2.1-3.2,2.1-5.2l-1.3-92.9c-0.1-3.8-3.2-6.9-7-6.9h-65.5&#10;&#9;&#9;&#9;c-3.9,0-7,3.1-7,7l0,0l0.3,92.9c0,4,3.2,7.2,7.2,7.2h66.2C293.3,367.5,295.1,366.7,296.4,365.4z M353.5,341.6&#10;&#9;&#9;&#9;c2,15.8-2.6,23.3-11,33.2s-25.9,9.7-25.9,9.7h-85.1c-9.2,0.1-18.2-2.9-25.6-8.3c-2.5-1.9-5-3.8-7.6-5.6&#10;&#9;&#9;&#9;c-8.1-5.7-22.5-15.8-25.7-18c-3.6-2.4-7.4-4.4-11.4-5.9c-4.6-2-17.1-2-17.1-2H73.7c-20.9,0-24.6-4-35.2-14.5S31.8,298,31.8,298&#10;&#9;&#9;&#9;L59.9,66.7c0,0,3.4-35.2,43.4-39s55.6-5.5,86.8-5.5s46.8,1.8,86.8,5.5s43.4,39,43.4,39l28.1,231.2&#10;&#9;&#9;&#9;C348.5,297.9,351.5,325.7,353.5,341.6L353.5,341.6z M296.6,224.6l-2.1-123.1H90.4l-2.1,123.1l104.1,1L296.6,224.6z M199.9,82.3&#10;&#9;&#9;&#9;c0-5.7-3.4-10.4-7.6-10.4s-7.6,4.7-7.6,10.4c0,5.7,3.4,10.4,7.6,10.4S199.9,88,199.9,82.3z"/>
		<g id="el_x3c5dwb3fA">
			<path d="M220.2,365.5c-1.4-1.3-2.2-3.2-2.2-5.2l-0.3-92.9c0-3.9,3.1-7,7-7l0,0h65.5c3.8,0,6.9,3.1,7,6.9l1.3,92.9&#10;&#9;&#9;&#9;&#9;c0.1,4-3.1,7.2-7.1,7.3h-0.1h-66.2C223.3,367.5,221.5,366.8,220.2,365.5z M260.6,321.6c0-1.3-1-2.3-2.3-2.3s-2.3,1-2.3,2.3&#10;&#9;&#9;&#9;&#9;s1,2.3,2.3,2.3S260.6,322.9,260.6,321.6z" id="el_eO9RrJ9zhe"/>
			<path id="el_ZvmGqsKrxe" d="M258.3,319.2c1.3,0,2.3,1,2.3,2.3s-1,2.3-2.3,2.3s-2.3-1-2.3-2.3l0,0&#10;&#9;&#9;&#9;&#9;C256,320.3,257,319.3,258.3,319.2z"/>
			<circle cx="258.3" cy="321.6" r="2.3" id="el_cEQciC3r6ZF"/>
		</g>
		<path id="el_C7QNsNSKqL-" d="M192.4,71.9c4.2,0,7.6,4.7,7.6,10.4c0,5.7-3.4,10.4-7.6,10.4s-7.6-4.7-7.6-10.4&#10;&#9;&#9;&#9;C184.8,76.5,188.2,71.9,192.4,71.9z"/>
		<g id="el_kQnUEgYbfOS">
			<path d="M187,139.1h-73.9c-1.2,0-2.2-1-2.2-2.2s1-2.2,2.2-2.2H187c1.2,0,2.2,1,2.2,2.2S188.3,139.1,187,139.1z" id="el_3bwhli01K2H"/>
			<path d="M164.8,150.2h-51.7c-1.2,0-2.2-1-2.2-2.2s1-2.2,2.2-2.2h51.7c1.2,0,2.2,1,2.2,2.2S166,150.2,164.8,150.2z" id="el_8izD5wVac7-"/>
			<path d="M164.8,166.5h-51.7c-0.6,0-1.1-0.5-1.1-1.1s0.5-1.1,1.1-1.1h51.7c0.6,0,1.1,0.5,1.1,1.1&#10;&#9;&#9;&#9;&#9;S165.4,166.5,164.8,166.5z" id="el_0PyVAyaKeC4"/>
			<path d="M153.1,174.9h-40c-0.6,0-1.1-0.5-1.1-1.1s0.5-1.1,1.1-1.1h40c0.6,0,1.1,0.5,1.1,1.1S153.7,174.9,153.1,174.9&#10;&#9;&#9;&#9;&#9;z" id="el_vJOMxowh0um"/>
			<path d="M153.1,189.8h-40c-0.6,0-1.1-0.5-1.1-1.1s0.5-1.1,1.1-1.1h40c0.6,0,1.1,0.5,1.1,1.1S153.7,189.8,153.1,189.8&#10;&#9;&#9;&#9;&#9;z" id="el_QtMPJNnrXSo"/>
			<path d="M223.1,134.5h49.2c3.2,0,5.8,2.6,5.8,5.8V168c0,3.2-2.6,5.8-5.8,5.8h-49.2c-3.2,0-5.8-2.6-5.8-5.8v-27.7&#10;&#9;&#9;&#9;&#9;C217.3,137.1,219.9,134.5,223.1,134.5z" id="el_TVMLj70j1Vg"/>
			<rect x="222.8" y="139.1" width="18" height="28.1" id="el_Sp0Bpk-2g11"/>
			<rect x="247.7" y="139.8" width="15.4" height="2.2" id="el_eQV3jZHuQUv"/>
			<rect x="247.7" y="144.2" width="17.5" height="2.2" id="el_uXjf7mTusv_"/>
			<rect x="247.7" y="152.4" width="17.5" height="0.9" id="el_CtkU4ZCMG5c"/>
			<rect x="247.7" y="154.6" width="17.5" height="0.9" id="el_9AlQ0OrKQgV"/>
			<rect x="247.7" y="157.2" width="17.5" height="0.9" id="el_5hmqHnmGR7W"/>
			<rect x="247.7" y="159.4" width="17.5" height="0.9" id="el_gWnfDDekmDv"/>
		</g>
		
	</g>
	<g id="el_6md0_N3_e8R">
		<path d="M367.7,429.4l-44.5,106.2c0,0-15.1,32.7-41.8,35.3c0,0-9.4,0.3-17.6,0.3H120.9c-8.2,0-17.6-0.3-17.6-0.3&#10;&#9;&#9;&#9;c-26.7-2.6-41.8-35.3-41.8-35.3L17,429.4H367.7z M289.6,547.6c0-1.4-1.1-2.4-2.4-2.4h-50.8c-1.4,0-2.4,1.1-2.4,2.5&#10;&#9;&#9;&#9;c0,1.3,1.1,2.4,2.4,2.4h50.8C288.5,550,289.6,548.9,289.6,547.6L289.6,547.6L289.6,547.6z M161.9,546.7c0-1.4-1.1-2.4-2.4-2.4l0,0&#10;&#9;&#9;&#9;h-50.8c-1.4,0-2.4,1.1-2.4,2.4c0,1.4,1.1,2.4,2.4,2.4l0,0h50.8C160.8,549.1,161.9,548,161.9,546.7L161.9,546.7z" id="el_uCh9AmN3V25"/>
		<g id="el_4DfAiAYLB_u">
			<g id="el_U6mH7sENm5X">
				<path d="M90.5,517.6v1.8c0,2.5,2,4.4,4.4,4.4h78.2c2.5,0,4.4-2,4.4-4.4l0,0v-35.3c0-2.5-2-4.4-4.4-4.4l0,0H94.9&#10;&#9;&#9;&#9;&#9;&#9;c-2.5,0-4.4,2-4.4,4.4v24.8h-0.3v5.2c0.1,0.2,0.2,0.4,0.3,0.5V517.6z M179.9,482.4v39.8c0,2.7-2.2,4.8-4.8,4.8l0,0H93&#10;&#9;&#9;&#9;&#9;&#9;c-2.7,0-4.8-2.2-4.8-4.8l0,0v-39.8c0-2.7,2.2-4.8,4.8-4.8l0,0h82.1C177.7,477.6,179.9,479.7,179.9,482.4L179.9,482.4z" id="el_fabwZ3kSgxi"/>
				<path d="M177.6,517.1v2.3c0,2.5-2,4.4-4.4,4.4l0,0H94.9c-2.5,0-4.4-2-4.4-4.4v-1.8c1.1,1.8,3,2.9,5,2.9h25.6&#10;&#9;&#9;&#9;&#9;&#9;c0,0,2.2-0.3,5.4-3.5c1.6-1.5,3.7-2.4,6-2.5h1.9c2.4,0,4.7,0.9,6.5,2.5c3.1,3.1,5.4,3.5,5.4,3.5h25.6c3.7,0,5.4-3.5,5.4-3.5&#10;&#9;&#9;&#9;&#9;&#9;L177.6,517.1z" id="el_3mqejrcHY_0"/>
				<path d="M177.6,514.1v3h-0.3c0,0-1.7,3.5-5.4,3.5h-25.6c0,0-2.2-0.3-5.4-3.5c-1.7-1.7-4.1-2.6-6.5-2.5h-1.9&#10;&#9;&#9;&#9;&#9;&#9;c-2.2,0.1-4.4,1-6,2.5c-3.1,3.1-5.4,3.5-5.4,3.5H95.5c-2.1-0.1-4-1.2-5-2.9v-3c1.1,1.8,3,2.9,5,2.9h25.6c0,0,2.2-0.3,5.4-3.5&#10;&#9;&#9;&#9;&#9;&#9;c1.7-1.6,3.8-2.5,6.1-2.5h2c2.3,0,4.6,0.9,6.3,2.5c3.1,3.1,5.4,3.5,5.4,3.5h25.6c3.7,0,5.4-3.5,5.4-3.5H177.6z" id="el_5w5lKngcyme"/>
				<path d="M177.6,484.1v30h-0.3v-5.2h-2.6v-22H94.2v22h-3.7v-24.8c0-2.5,2-4.4,4.4-4.4h78.2&#10;&#9;&#9;&#9;&#9;&#9;C175.6,479.7,177.6,481.7,177.6,484.1L177.6,484.1z" id="el_9OCZpdmyblz"/>
				<path d="M177.2,508.9v5.2c0,0-1.7,3.5-5.4,3.5h-25.6c0,0-2.2-0.3-5.4-3.5c-1.7-1.6-3.9-2.5-6.3-2.5h-2&#10;&#9;&#9;&#9;&#9;&#9;c-2.3,0-4.5,0.9-6.1,2.5c-3.1,3.1-5.4,3.5-5.4,3.5H95.5c-2.1-0.1-4-1.2-5-2.9V509h3.7v-11.1h80.4V509L177.2,508.9L177.2,508.9z" id="el_CswC4GEU5yG"/>
				<rect x="94.2" y="486.9" width="80.4" height="10.9" id="el_uyi7zkXdMDZ"/>
				<path d="M90.5,508.9v5.7c-0.1-0.2-0.2-0.4-0.3-0.5v-5.2L90.5,508.9z" id="el_A76nzrWS4n9"/>
			</g>
			<g id="el_7Uivptf9T1t">
				<path d="M298.5,525.1c0,2.4-2,4.3-4.4,4.3c0,0,0,0-0.1,0h-64.6c-2.4,0.1-4.4-1.8-4.4-4.2c0,0,0,0,0-0.1l0.5-43.4&#10;&#9;&#9;&#9;&#9;&#9;c0.1-2.4,2-4.2,4.4-4.2h63.6c2.4-0.1,4.3,1.8,4.4,4.2L298.5,525.1z M292,527c2.5,0.1,4.5-1.9,4.6-4.3l0,0l-0.5-40.6&#10;&#9;&#9;&#9;&#9;&#9;c0-1.4-1.2-2.4-2.5-2.4H230c-1.4,0-2.5,1-2.5,2.4l-0.5,40.6c0.1,2.5,2.1,4.4,4.6,4.4l0,0H292V527z" id="el_rConfx0DeBa"/>
				<path d="M296.7,522.6c-0.1,2.5-2.1,4.4-4.6,4.4l0,0h-60.5c-2.5,0.1-4.5-1.9-4.6-4.3l0,0l0.5-40.6&#10;&#9;&#9;&#9;&#9;&#9;c0-1.4,1.2-2.4,2.5-2.4h63.7c1.4,0,2.5,1,2.5,2.4L296.7,522.6z M293.2,491v-8.3h-63.7v33h63.7V491z" id="el_MTHWSpSa0jl"/>
				<rect x="229.5" y="503.4" width="63.7" height="12.3" id="el_rDKvm74rHYG"/>
				<rect x="229.5" y="491" width="63.7" height="12.4" id="el_bnKo4DjYts7"/>
				<rect x="229.5" y="486.9" width="63.7" height="4.1" id="el_-owaBlnNcjO"/>
				<rect x="229.5" y="482.8" width="63.7" height="4.1" id="el_p8lF7UU-J7r"/>
			</g>
			<path id="el_xfPxPiqmj4L" d="M287.2,545.1c1.4,0,2.5,1.1,2.5,2.4c0,1.4-1.1,2.5-2.4,2.5l0,0h-50.8&#10;&#9;&#9;&#9;&#9;c-1.4,0-2.5-1.1-2.5-2.4s1.1-2.5,2.4-2.5l0,0H287.2z"/>
			<path id="el_B88wppkwDvL" d="M159.4,544.2c1.4,0,2.4,1.1,2.4,2.4c0,1.4-1.1,2.4-2.4,2.4l0,0h-50.8&#10;&#9;&#9;&#9;&#9;c-1.4,0-2.4-1.1-2.4-2.4c0-1.4,1.1-2.4,2.4-2.4l0,0H159.4z"/>
		</g>
	</g>
</g>
<g id="el_mSdXCSnSGAd_an_6C3XCQogJ" data-animator-group="true" data-animator-type="0"><g id="el_mSdXCSnSGAd">
	<polygon points="241.7,376.7 269.5,393.3 287.4,366.2 260.3,351.4 &#9;" id="el_7eCuytzyL60"/>
	<path id="el_05Bs5j46CIt" d="M235.1,350.5C235.2,350.5,235.2,350.5,235.1,350.5L235.1,350.5l37.3,8.3l-3.5,8.3&#10;&#9;&#9;l-34.8-0.2l0,0c0,0,0,0-0.1,0c-4.9,0-8.6-3.7-8.3-8.3S229.6,349.1,235.1,350.5z"/>
	<path id="el_uaSbEfFPwHw" d="M237.9,362.9L237.9,362.9L237.9,362.9l33-1.9l2.1,15.1l-33,1.8l0,0c0,0,0,0-0.1,0&#10;&#9;&#9;c-4.6,0.3-8.9-2.9-9.4-7.1S233.3,363.1,237.9,362.9z"/>
	<path id="el_b0BBxqvfzG1" d="M240.4,375.7L240.4,375.7L240.4,375.7l30,1.3l-0.1,13.6l-29.9-1.3l0,0c0,0,0,0-0.1,0&#10;&#9;&#9;c-4.2-0.2-7.6-3.4-7.6-7.2S236.1,375.5,240.4,375.7z"/>
	<path id="el_iV43AtS2cxQ" d="M271.2,339.6c1.8-0.1,3.6,0.5,4.9,1.7l14.7,12.4c2.1,1.9,3.3,4.5,3.3,7.3l0.5,54.3&#10;&#9;&#9;c0,3.2-2.9,5.6-6.5,5.4l-13-0.6c-3.6-0.2-6.5-2.9-6.5-6l2.6-45.4l-11.4-9.6l-24.5-0.3c-10.5,0.2-16.4-4.5-14.7-10.6&#10;&#9;&#9;c1-3.6,3.1-6.2,11.1-6.1L271.2,339.6z"/>
	<path id="el_JVrfAwZaxBz" d="M269.5,266.5l36.3,69.8c1.1,2.1,0.3,4.7-1.8,5.8l-42.8,22.2c-2.1,1.1-4.7,0.3-5.8-1.8&#10;&#9;&#9;l-36.3-69.8c-1.1-2.1-0.3-4.7,1.8-5.8l42.8-22.2C265.8,263.6,268.4,264.4,269.5,266.5z"/>
	
	<g id="el_70CeY8r2jbC">
		<path id="el_d6UaThGovfH" d="M269,265.7l36.7,70.5c0.9,1.7,0.2,3.7-1.4,4.6l-43.5,22.6c-1.7,0.9-3.7,0.2-4.6-1.4&#10;&#9;&#9;&#9;l-36.7-70.5c-0.9-1.7-0.2-3.7,1.4-4.6l43.5-22.6C266.1,263.4,268.2,264.1,269,265.7z"/>
		
		
			<rect x="267.5" y="264.9" width="12.7" height="86.2" id="el_Ky4qUpZ91fw"/>
		<line x1="248.4" y1="281.2" x2="281.5" y2="344.9" id="el_MV4FmbClxW-"/>
		<line x1="245.7" y1="282.6" x2="271.7" y2="332.6" id="el_cHubGqjw8p7"/>
		<line x1="240.1" y1="285.5" x2="249.9" y2="304.3" id="el_evxnW2-5oID"/>
		<line x1="237.4" y1="287" x2="254.9" y2="320.7" id="el_EWX6OyUgXi1"/>
		<g id="el_tOzUWOl1EHP">
			<polygon points="234.4,288.7 226.9,292.7 234.4,288.7 234.2,288.4 226.4,292.4 226.6,292.8 226.6,292.8 &#10;&#9;&#9;&#9;&#9;226.8,293.2 234.6,289.1 &#9;&#9;&#9;" id="el_OKMBdvn31qI"/>
			
				<rect x="226.6" y="291.5" width="8.8" height="0.4" id="el_JRYVD7af1hA"/>
			
				<rect x="227" y="292.3" width="8.8" height="0.4" id="el_Cz4uJ4T0yVp"/>
			
				<rect x="227.4" y="293.1" width="8.8" height="0.4" id="el_zGIFQLX97De"/>
			
				<rect x="227.8" y="293.9" width="8.8" height="0.4" id="el_NKUPAvCCfwu"/>
			
				<rect x="228.2" y="294.7" width="8.8" height="0.4" id="el_owMBGLUp9mD"/>
			
				<rect x="228.4" y="295.1" width="8.8" height="0.4" id="el_YkFYDwVLGT3"/>
			
				<rect x="228.8" y="295.8" width="8.8" height="0.4" id="el_swB83hgwGcs"/>
			
				<rect x="229.2" y="296.6" width="8.8" height="0.4" id="el_2WYuUg_mJJr"/>
			
				<rect x="229.6" y="297.4" width="8.8" height="0.4" id="el_PuMgatXySmX"/>
			<polygon points="238.2,296.2 230.4,300.2 230.6,300.6 230.6,300.6 230.8,301 238.6,296.9 &#9;&#9;&#9;" id="el_Oz8yHu612n0"/>
			
				<rect x="230.6" y="299.3" width="8.8" height="0.4" id="el_xG_jfOJEZr3"/>
			
				<rect x="230.8" y="299.7" width="8.8" height="0.4" id="el_180syPf3Mht"/>
			<polygon points="239.7,298.9 239.7,298.9 239.5,298.5 231.6,302.6 231.8,303 235.7,301 231.8,303 232,303.4 &#10;&#9;&#9;&#9;&#9;239.9,299.3 &#9;&#9;&#9;" id="el_iquoY5sWO6D"/>
			
				<rect x="231.8" y="301.7" width="8.8" height="0.4" id="el_tkGkxsMgvwy"/>
			
				<rect x="232.2" y="302.5" width="8.8" height="0.4" id="el_pgYNwscPre2"/>
			
				<rect x="232.7" y="303.2" width="8.8" height="0.4" id="el_LpouBFFg_sC"/>
			
				<rect x="233.1" y="304" width="8.8" height="0.4" id="el_6Wl6ihxphE1"/>
			<polygon points="241.9,303.2 238.1,305.2 241.9,303.2 241.7,302.8 233.9,306.9 234.1,307.3 234.1,307.3 &#10;&#9;&#9;&#9;&#9;234.3,307.6 242.1,303.6 &#9;&#9;&#9;" id="el_UEjIlQ9ZuRU"/>
			
				<rect x="234.1" y="306" width="8.8" height="0.4" id="el_QSybaGgZ8ut"/>
			
				<rect x="234.5" y="306.7" width="8.8" height="0.4" id="el_XO6J-KUjSu5"/>
			
				<rect x="234.7" y="307.1" width="8.8" height="0.4" id="el_z4dWAhZbAQr"/>
			
				<rect x="235.1" y="307.9" width="8.8" height="0.4" id="el_hLtCM6ilvm7"/>
			
				<rect x="235.5" y="308.7" width="8.8" height="0.4" id="el_v1VqxICxOnO"/>
			
				<rect x="235.9" y="309.4" width="8.8" height="0.4" id="el_wutZSxgscXO"/>
			
				<rect x="236.3" y="310.2" width="8.8" height="0.4" id="el_dv6-VDxIG"/>
			<polygon points="245.1,309.4 241.3,311.4 245.1,309.4 244.9,309 237.1,313.1 237.3,313.5 237.3,313.5 237.5,313.8 &#10;&#9;&#9;&#9;&#9;245.3,309.8 &#9;&#9;&#9;" id="el_LrgQKUbvDM"/>
			<polygon points="259.7,337.4 259.7,337.4 259.5,337 259.5,337 259.4,336.8 251.5,340.8 251.7,341.2 251.7,341.2 &#10;&#9;&#9;&#9;&#9;251.8,341.4 251.8,341.4 252,341.8 259.9,337.8 &#9;&#9;&#9;" id="el_nyO7wGOi85"/>
			
				<rect x="251.9" y="340.2" width="8.8" height="0.4" id="el_WO3XeW6gaO"/>
			
				<rect x="252.3" y="340.9" width="8.8" height="0.4" id="el_X1wtzoul6x"/>
			
				<rect x="252.7" y="341.7" width="8.8" height="0.4" id="el_LQimw5oEck"/>
			
				<rect x="253.1" y="342.5" width="8.8" height="0.4" id="el_sgpOvwORac"/>
			<polygon points="261.9,341.7 261.9,341.7 261.7,341.3 253.9,345.3 254.1,345.7 254.1,345.7 254.3,346.1 262.1,342 &#10;&#9;&#9;&#9;&#9;&#9;&#9;&#9;" id="el_IburWCGj9I"/>
			
				<rect x="254.1" y="344.4" width="8.8" height="0.4" id="el_XF84xOxTOT"/>
			
				<rect x="254.5" y="345.2" width="8.8" height="0.4" id="el_MDStSsYbD7"/>
			
				<rect x="254.9" y="346" width="8.8" height="0.4" id="el_2maw_dibGP"/>
			<polygon points="263.7,345.2 263.7,345.2 263.5,344.8 255.7,348.8 255.9,349.2 255.9,349.2 256.1,349.6 &#10;&#9;&#9;&#9;&#9;263.9,345.6 &#9;&#9;&#9;" id="el_vJlKV6o6JV"/>
			<polygon points="264.1,345.9 256.3,350 256.5,350.4 256.5,350.4 256.7,350.8 264.5,346.7 &#9;&#9;&#9;" id="el_a0m2Sjzi3Y"/>
			<polygon points="264.7,347.1 256.9,351.2 257.1,351.6 257.1,351.6 257.3,352 265.2,347.9 &#9;&#9;&#9;" id="el_qvM5NKn7Cw"/>
			
				<rect x="257.1" y="350.3" width="8.8" height="0.4" id="el_6tnZoKbx17"/>
			
				<rect x="257.5" y="351.1" width="8.8" height="0.4" id="el_efPzK0duJS"/>
			
				<rect x="257.9" y="351.9" width="8.8" height="0.4" id="el_wTEMJ0eS6LP"/>
			
				<rect x="258.3" y="352.6" width="8.8" height="0.4" id="el_BzxLWyghiuH"/>
			
				<rect x="258.7" y="353.4" width="8.8" height="0.4" id="el_xGyHXaIfIS4"/>
			
				<rect x="237.3" y="312.2" width="8.8" height="0.4" id="el_OpicYpdsytL"/>
			
				<rect x="237.7" y="313" width="8.8" height="0.4" id="el_WDhbXAA7LMr"/>
			
				<rect x="238.1" y="313.7" width="8.8" height="0.4" id="el__axgyNGL02g"/>
			<polygon points="246.9,312.9 246.9,312.9 246.7,312.5 238.9,316.6 239.1,317 239.1,317 239.3,317.4 247.1,313.3 &#9;&#9;&#9;&#10;&#9;&#9;&#9;&#9;" id="el_yvKgVdhoe21"/>
			<polygon points="247.6,314.1 247.6,314.1 247.4,313.7 239.5,317.7 239.7,318.1 239.7,318.1 239.9,318.5 &#10;&#9;&#9;&#9;&#9;247.8,314.4 &#9;&#9;&#9;" id="el_CQptCi0Ti1N"/>
			<polygon points="248.2,315.2 248.2,315.2 248,314.8 240.1,318.9 240.3,319.3 240.3,319.3 240.5,319.7 248.4,315.6 &#10;&#9;&#9;&#9;&#9;&#9;&#9;&#9;" id="el_v8Lkvji92kl"/>
			
				<rect x="240.3" y="318" width="8.8" height="0.4" id="el_Gp3VIfT4DKH"/>
			
				<rect x="240.7" y="318.8" width="8.8" height="0.4" id="el_qbwY7fYWaCR"/>
			
				<rect x="241.1" y="319.6" width="8.8" height="0.4" id="el_3LWIMHOx6xv"/>
			
				<rect x="241.6" y="320.4" width="8.8" height="0.4" id="el_fO3vsKmOv6S"/>
			<polygon points="250.4,319.5 250.4,319.5 250.2,319.1 242.4,323.2 242.8,324 250.6,319.9 &#9;&#9;&#9;" id="el_2hT_OG8JDPi"/>
			
				<rect x="242.6" y="322.3" width="8.8" height="0.4" id="el_krwg4gTmGkO"/>
			<polygon points="251.5,321.6 251.5,321.6 251.3,321.2 243.4,325.2 243.6,325.6 243.6,325.6 243.8,326 251.7,322 &#9;&#9;&#9;&#10;&#9;&#9;&#9;&#9;" id="el_6SQLfVV4gpc"/>
			
				<rect x="243.6" y="324.4" width="8.8" height="0.4" id="el_rKswJyg0km6"/>
			
				<rect x="244" y="325.1" width="8.8" height="0.4" id="el_3SH_cBe0_Wf"/>
			
				<rect x="244.4" y="325.9" width="8.8" height="0.4" id="el_BVuGytyyUuj"/>
			
				<rect x="244.9" y="326.7" width="8.8" height="0.4" id="el_iqNUfRtHU51"/>
			<polygon points="253.5,325.5 245.7,329.5 245.9,329.9 245.9,329.9 246.1,330.3 253.9,326.2 &#9;&#9;&#9;" id="el_VtV3xj0ishc"/>
			
				<rect x="245.9" y="328.6" width="8.8" height="0.4" id="el_xs2o-mE5B03"/>
			
				<rect x="246.3" y="329.4" width="8.8" height="0.4" id="el__2dIn62IPjU"/>
			
				<rect x="246.7" y="330.2" width="8.8" height="0.4" id="el_amrJOJb0PWp"/>
			<polygon points="255.3,329 247.5,333 247.7,333.4 247.7,333.4 247.9,333.8 255.7,329.8 &#9;&#9;&#9;" id="el_LT9OzVc3G_4"/>
			<polygon points="255.9,330.1 248.1,334.2 248.3,334.6 248.3,334.6 248.5,335 256.3,330.9 &#9;&#9;&#9;" id="el_DAlI8ZNBJD2"/>
			<polygon points="256.5,331.3 248.7,335.4 248.9,335.8 248.9,335.8 249.1,336.2 256.9,332.1 &#9;&#9;&#9;" id="el_CmESaoUe5gP"/>
			
				<rect x="248.9" y="334.5" width="8.8" height="0.4" id="el_Sx_upGvnsQ9"/>
			
				<rect x="249.3" y="335.3" width="8.8" height="0.4" id="el_z1-HitPbNfG"/>
			
				<rect x="249.7" y="336.1" width="8.8" height="0.4" id="el_y0XlZo8AFru"/>
			
				<rect x="250.1" y="336.8" width="8.8" height="0.4" id="el_zABVprSHwos"/>
			<polygon points="259,336 259,336 258.8,335.6 250.9,339.7 251.1,340.1 251.1,340.1 251.3,340.5 259.2,336.4 &#9;&#9;&#9;" id="el_vnsSr-PQipU"/>
		</g>
	</g>
	<path id="el_KsUUzL9hyEW" d="M277,399.6l-6.5-57.6c-1.2-4.7-6.5-7.9-11.8-7c-5.3,0.8-7.4,2.8-7.4,10l0.1,15.2l0.8,9.6&#10;&#9;&#9;c-0.2,3.6,0.2,7.3,1.4,10.8c1.9,5.7,0.1-4-1.9,1.6l-0.6,1.8c-4,14-0.8,29.4,3.4,35.8c2.1,3.2,3.1,6,6.5,8.1&#10;&#9;&#9;c5.2,3.3,7.8,19.2,10.8,29.2c4.2,14.1,7.1,39.2,7.1,39.2l16.6,130.3h71l-71.9-225.5"/>
</g></g>
</svg>