<svg id="e3yauUB9cbW1" xmlns="http://www.w3.org/2000/svg" xmlns:xlink="http://www.w3.org/1999/xlink" viewBox="110 0 381.1 626.6" shape-rendering="geometricPrecision" text-rendering="geometricPrecision">
<style><![CDATA[
#e3yauUB9cbW95_to {animation: e3yauUB9cbW95_to__to 4200ms linear infinite normal forwards}@keyframes e3yauUB9cbW95_to__to { 0% {transform: translate(379.086349px,769.413165px)} 46.428571% {transform: translate(379.086349px,769.413165px)} 66.666667% {transform: translate(379.086349px,505.713165px)} 69.047619% {transform: translate(379.086349px,511.713165px)} 81.666667% {transform: translate(379.086349px,511.713165px)} 97.619048% {transform: translate(344.649992px,769.613162px)} 100% {transform: translate(344.649992px,769.613162px)}} #e3yauUB9cbW136_to {animation: e3yauUB9cbW136_to__to 4200ms linear infinite normal forwards}@keyframes e3yauUB9cbW136_to__to { 0% {transform: translate(458.000038px,819.763193px)} 21.428571% {transform: translate(321.500038px,464.763193px)} 22.619048% {transform: translate(321.500038px,470.763193px)} 30.714286% {transform: translate(321.500038px,470.763193px)} 46.428571% {transform: translate(309.550038px,819.763193px)} 100% {transform: translate(309.550038px,819.763193px)}}
]]></style>
<defs><rect id="e3yauUB9cbW2" width="641.1" height="626.6" rx="0" ry="0"/></defs><g transform="translate(.63638-.299963)"><g><g><g><g><path d="M461.9,12.2h-2.2c-.2,0-.3.1-.3.3v4.8-.1l-.1-.1-.1-.1h-.1v-3.1-.6-.4-.4h-278.2v.4.4.6v3.1l-.2.1-.1.1c0,0,0,0,0,.1v-4.8c0-.2-.1-.3-.3-.3h-2.3c-.2,0-.3.1-.3.3v7.6v351.3v28.7v84.2v3.7c0,.2.1.3.3.3h2.1v.8h-2.1c-.2,0-.3.1-.3.3v3.7v109.7v23.5c0,.2.1.3.3.3h2.2.2h279h.2h2.2c.2,0,.3-.1.3-.3v-23.5-109.7-3.7c0-.2-.1-.3-.3-.3h-2.1v-.8h2.1c.2,0,.3-.1.3-.3v-3.7-84.2-28.7-351.3-7.6c.1-.2-.1-.3-.2-.3Z" fill="#2a353f" stroke="#000" stroke-width="0.1385" stroke-linecap="round" stroke-linejoin="round" stroke-miterlimit="1"/><rect width="277.6" height="161" rx="0" ry="0" transform="translate(181.1 318)" fill="#212c37" stroke="#000" stroke-width="0.1385" stroke-linecap="round" stroke-linejoin="round" stroke-miterlimit="1"/><path d="M364,595.7h-88.1c-3.9,0-7-3.2-7-7v-58.7c0-3.9,3.2-7,7-7h88.1c3.9,0,7,3.2,7,7v58.7c0,3.9-3.1,7-7,7Z" fill="#252f38" stroke="#000" stroke-width="0.1385" stroke-miterlimit="1"/><path d="M411,355.6h-60.2c-2.2,0-4,1.8-4,4v85.4c0,2.2,1.8,4,4,4h60.2c2.2,0,4-1.8,4-4v-85.4c0-2.2-1.8-4-4-4Z" fill="#e4e5e6" stroke="#000" stroke-width="0.1385" stroke-linecap="round" stroke-linejoin="round" stroke-miterlimit="1"/></g><path d="M383.2,404.6c0,1.3-1.1,2.4-2.4,2.4s-2.4-1.1-2.4-2.4s1.1-2.4,2.4-2.4s2.4,1,2.4,2.4Z" stroke="#000" stroke-width="0.1385" stroke-linecap="round" stroke-linejoin="round" stroke-miterlimit="1"/><circle r="4.8" transform="translate(320.7 29.6)" stroke="#000" stroke-width="0.1385" stroke-linecap="round" stroke-linejoin="round" stroke-miterlimit="1"/><g><rect width="246.5" height="159.3" rx="0" ry="0" transform="translate(197 95.7)" fill="none"/><rect width="18.2" height="41.7" rx="0" ry="0" transform="translate(366.5 63.2)" fill="#ff5a5f"/><rect width="9.1" height="107.6" rx="0" ry="0" transform="translate(375.6 175.9)" fill="#00e9cd"/><g><rect width="155.8" height="241.4" rx="0" ry="0" transform="translate(242.3 55.3)" fill="#37e6d5" stroke="#000" stroke-width="0.132" stroke-linecap="round" stroke-linejoin="round"/><g><g><polygon points="360,292 282.8,292 282.8,189.1 360.2,189.1" fill="#f0f0f0"/><g><rect width="50.9" height="50.9" rx="0" ry="0" transform="translate(296.8 206.8)" fill="#fff"/><g><rect width="8.3" height="8.3" rx="0" ry="0" transform="translate(322.3 215.2)" fill="#231f20"/><rect width="8.3" height="8.3" rx="0" ry="0" transform="translate(330.9 206.8)" fill="#231f20"/><rect width="8.3" height="17" rx="0" ry="0" transform="translate(339.4 215.2)" fill="#231f20"/><polygon points="330.9,240.7 330.9,231.9 322.3,231.9 322.3,240.7 330.9,240.7 330.9,249.1 339.4,249.1 339.4,257.4 347.9,257.4 347.9,240.7" fill="#231f20"/><rect width="8.3" height="8.3" rx="0" ry="0" transform="translate(313.9 240.7)" fill="#231f20"/><polygon points="305.3,231.9 313.9,231.9 313.9,215.2 322.3,215.2 322.3,206.8 296.8,206.8 296.8,223.6 305.3,223.6" fill="#231f20"/><polygon points="305.3,240.7 296.8,240.7 296.8,257.4 313.9,257.4 313.9,249.1 305.3,249.1" fill="#231f20"/></g></g></g><path d="M352,180.1h-61.4c-4.7,0-8.3,3.8-8.3,8.3l.1,103.5h1.3l-.1-102.8h75.7v102.8h1.3v-103.4c-.4-4.5-4.2-8-8.6-8.4Z" fill="#231f20"/></g></g></g><path d="M404.7,301.1v-253.1c0-2.1-1.7-3.9-3.9-3.9h-161.3c-2.1,0-3.9,1.7-3.9,3.9v253.2c0,2.1,1.7,3.9,3.9,3.9h161.4c2.1-.1,3.8-1.8,3.8-4Zm-156.1-9v-235.1h143.3v235.1h-143.3Z" stroke="#000" stroke-width="0.096891" stroke-linecap="round" stroke-linejoin="round" stroke-miterlimit="1"/><rect width="276.9" height="8.8" rx="0" ry="0" transform="translate(181.1 474.6)" fill="#161b1e"/><polygon points="458.6,477.8 458.6,488.4 180.6,488.4 180.6,477.8 181.1,477.8 181.1,483.2 458.1,483.2 458.1,477.8"/><rect width="278.1" height="10" rx="0" ry="0" transform="translate(180.6 488.4)" fill="#161b1e"/><rect width="4.5" height="614.1" rx="0" ry="0" transform="translate(178 12.2)" fill="#e4e5e6"/><rect width="4.5" height="614.1" rx="0" ry="0" transform="translate(457.2 12.2)" fill="#e4e5e6"/><g><path d="M355.9,588c-.1,1.5-1.3,2.8-2.9,2.7v.1l-.1.1-.1.1-.2.1-.3.1-.4.1-.4.1h-.5-.4-18c-1.8.1-3.5-.2-5.2-.8l-.7-.3-.8-.2-1-.2-1.1-.1-1.2-.1-1.3-.1h-1.1l-1.3.1-1.2.1-1.1.1-1,.2-.8.2-.7.3c-1.7.7-3.5,1-5.2.8h-18-.4-.4l-.4-.1-.4-.1-.3-.1-.2-.1-.1-.1-.1-.1v-.1c-1.5.1-2.9-1.2-2.9-2.7v-16.5c.1-1.5,1.3-32.4,2.9-32.4h64.2c1.5-.1,2.9,30.8,2.9,32.4l.2,16.5v0Z" fill="#252f38" stroke="#000" stroke-width="0.103" stroke-miterlimit="1"/><rect width="64.2" height="34.4" rx="0" ry="0" transform="translate(288.7 539.1)" fill="#333"/><path d="M353,578.9v9.7l-.1.1-.1.1-.2.1-.3.1-.4.1-.4.1h-.4-.4-18c-1.8.1-3.5-.2-5.2-.8l-.7-.3-.8-.2-1-.2-1-.2-1.2-.1-1.3-.1h-1.3l-1.3.1-1.2.1-1.1.1-1,.2-.8.2-.7.3c-1.7.7-3.5,1-5.2.8h-18-.4-.4l-.4-.1-.4-.1-.3-.1-.2-.1-.1-.1-.1-.1v-9.7l64.4.1v0Z" fill="#979797"/><path d="M353,588.7v2.3l-.1.1-.1.1-.2.1-.3.1-.4.1-.4.1h-.4-.4-18c-1.8.1-3.5-.2-5.2-.8l-.7-.3-.8-.2-1-.2-1.1-.1-1.2-.1-1.3-.1h-1.2l-1.3.1-1.2.1-1.1.1-1,.2-.8.2-.7.3c-1.7.7-3.5,1-5.2.8h-18-.4-.4l-.4-.1-.4-.1-.3-.1-.2-.1-.1-.1-.1-.1v-2.3l.1.1.1.1.2.1.3.1.4.1.4.1h.4.4h18c1.8.1,3.5-.2,5.2-.8l.7-.3.8-.2l1-.2l1.1-.1l1.2-.1l1.3-.1h1.3l1.3.1l1.2.1l1.1.1l1,.2.8.2.7.3c1.7.7,3.5,1,5.2.8h18h.4.4l.4-.1.4-.1.3-.1.2-.1.1-.2v0v0Z" fill="#808080"/><path d="M355.9,571.5v16.5c-.1,1.5-1.3,2.8-2.9,2.7v-51.6c1.6-.1,2.9,30.8,2.9,32.4Z" fill="#666"/><path d="M288.7,539.1v51.6c-1.5.1-2.9-1.2-2.9-2.7v-16.5c.1-1.6,1.4-32.5,2.9-32.4Z" fill="#666"/><rect width="64.2" height="5.5" rx="0" ry="0" transform="translate(288.7 573.4)"/></g><path d="M353.7,546.3v.8c0,2-.6,3.7-1.2,3.7h-62.6c-.7,0-1.2-1.7-1.2-3.7v-.8h65Z" fill="#161b1e" stroke="#000" stroke-width="0.2271" stroke-linecap="round" stroke-linejoin="round" stroke-miterlimit="1"/><path d="M353.7,541.8v.8h-65v-.8c0-2,.6-3.7,1.2-3.7h62.6c.6,0,1.2,1.4,1.2,3.7Z" fill="#161b1e" stroke="#000" stroke-width="0.2271" stroke-linecap="round" stroke-linejoin="round" stroke-miterlimit="1"/><rect width="65" height="3.7" rx="0" ry="0" transform="translate(288.7 542.6)" stroke="#000" stroke-width="0.2271" stroke-linecap="round" stroke-linejoin="round" stroke-miterlimit="1"/><path d="M303.8,413.4v.4c0,1-.6,1.8-1.2,1.8h-62.6c-.7,0-1.2-.8-1.2-1.8v-.4h65Z" fill="#161b1e" stroke="#000" stroke-width="0.1606" stroke-linecap="round" stroke-linejoin="round" stroke-miterlimit="1"/><path d="M303.8,411.2v.4h-65v-.4c0-1,.6-1.8,1.2-1.8h62.6c.7-.1,1.2.6,1.2,1.8Z" fill="#161b1e" stroke="#000" stroke-width="0.1606" stroke-linecap="round" stroke-linejoin="round" stroke-miterlimit="1"/><rect width="65" height="1.8" rx="0" ry="0" transform="translate(238.8 411.6)" stroke="#000" stroke-width="0.1606" stroke-linecap="round" stroke-linejoin="round" stroke-miterlimit="1"/><g><g><line x1="224.6" y1="414.7" x2="224.6" y2="433.6" fill="none" stroke="#000" stroke-width="0.6297" stroke-linecap="round" stroke-linejoin="round" stroke-miterlimit="10"/></g><g><path d="M224.6,433.6c0,2.8,2.3,5.1,5.1,5.1" fill="none" stroke="#000" stroke-width="0.6297" stroke-linecap="round" stroke-linejoin="round" stroke-miterlimit="10"/></g><g><line x1="229.8" y1="438.7" x2="312.2" y2="438.7" fill="none" stroke="#000" stroke-width="0.6297" stroke-linecap="round" stroke-linejoin="round" stroke-miterlimit="10"/></g><g><path d="M312.2,438.7c2.8,0,5.1-2.3,5.1-5.1" fill="none" stroke="#000" stroke-width="0.6297" stroke-linecap="round" stroke-linejoin="round" stroke-miterlimit="10"/></g><g><line x1="317.4" y1="433.6" x2="317.4" y2="414.7" fill="none" stroke="#000" stroke-width="0.6297" stroke-linecap="round" stroke-linejoin="round" stroke-miterlimit="10"/></g><g><path d="M317.4,414.7c0-2.8-2.3-5.1-5.1-5.1" fill="none" stroke="#000" stroke-width="0.6297" stroke-linecap="round" stroke-linejoin="round" stroke-miterlimit="10"/></g><g><line x1="312.2" y1="409.6" x2="229.8" y2="409.6" fill="none" stroke="#000" stroke-width="0.6297" stroke-linecap="round" stroke-linejoin="round" stroke-miterlimit="10"/></g><g><path d="M229.8,409.6c-2.8,0-5.1,2.3-5.1,5.1" fill="none" stroke="#000" stroke-width="0.6297" stroke-linecap="round" stroke-linejoin="round" stroke-miterlimit="10"/></g></g></g></g></g><g><g><g><g><g><path d="M366.2,95.3h-94.9c-1.5,0-2.8-1.3-2.8-2.8s1.3-2.8,2.8-2.8h94.9c1.5,0,2.8,1.3,2.8,2.8s-1.1,2.8-2.8,2.8Z" fill="#fff"/></g></g></g></g><g><g><g><g><path d="M337.7,109.6h-66.4c-1.5,0-2.8-1.3-2.8-2.8s1.3-2.8,2.8-2.8h66.4c1.5,0,2.8,1.3,2.8,2.8s-1.3,2.8-2.8,2.8Z" fill="#fff"/></g></g></g></g><g><g><g><g><path d="M337.7,130.5h-66.4c-.8,0-1.4-.6-1.4-1.4s.6-1.4,1.4-1.4h66.4c.8,0,1.4.6,1.4,1.4s-.7,1.4-1.4,1.4Z" fill="#004263"/></g></g></g></g><g><g><g><g><path d="M322.6,141.3h-51.4c-.8,0-1.4-.6-1.4-1.4s.6-1.4,1.4-1.4h51.4c.8,0,1.4.6,1.4,1.4.1.8-.6,1.4-1.4,1.4Z" fill="#004263"/></g></g></g></g></g><g><path d="M459.5,12.3h-279.2v-5c0-2,1.6-3.6,3.6-3.6h272c2,0,3.6,1.6,3.6,3.6v5Z" fill="#2a353f" stroke="#000" stroke-width="0.1383" stroke-linecap="round" stroke-linejoin="round" stroke-miterlimit="1"/><path d="M459.1,12.6h-278.4v-5c0-2,1.6-3.6,3.6-3.6h271.3c2,0,3.6,1.6,3.6,3.6v5Z" fill="#e4e5e6"/></g></g><g id="e3yauUB9cbW95_to" transform="translate(379.086349,769.413165)"><g transform="translate(-379.086349,-503.800003)"><g><g><g><g clip-path="url(#e3yauUB9cbW113)"><g><g><g><g><path d="M409.1,373.5v105.8c0,.9-.2,1.7-.4,2.5h-55.7c-.3-.8-.5-1.7-.4-2.5v-105.8c0-.8.2-1.6.4-2.3h55.8c.2.8.3,1.6.3,2.3Z" fill="#1a1a1a"/><path d="M408.7,371.2h-55.8c1-3.3,4.1-5.6,7.6-5.6h40.6c3.5,0,6.6,2.3,7.6,5.6Z" fill="#1a1a1a"/><path d="M352.9,481.8h55.6c-1,3.2-4.1,5.5-7.5,5.5h-40.6c-3.3,0-6.4-2.2-7.5-5.5Z" fill="#1a1a1a"/></g><g><path d="M408.6,481.8c-1,3.2-4.1,5.5-7.5,5.5h-40.6c-3.4,0-6.5-2.2-7.5-5.5-.3-.8-.5-1.7-.4-2.5v-105.8c0-.8.2-1.6.4-2.3c1-3.3,4.1-5.6,7.6-5.6h40.6c3.5,0,6.6,2.3,7.6,5.6.2.7.4,1.5.4,2.3v105.8c-.1.9-.3,1.7-.6,2.5Z" fill="none" stroke="#231f20" stroke-width="0.3557" stroke-miterlimit="10"/><polyline points="352.8,371.2 352.9,371.2 408.7,371.2" fill="none" stroke="#231f20" stroke-width="0.3557" stroke-miterlimit="10"/><polyline points="352.9,481.8 352.9,481.8 408.6,481.8" fill="none" stroke="#231f20" stroke-width="0.3557" stroke-miterlimit="10"/></g></g><circle r="3.9" transform="translate(366.3 381)" fill="#b1b1b1"/></g><path d="M416.5,430c0,0-1.3-6.4-7.7-4.8l3.3-1.1c3.6-1.3,5.5-5.2,4.4-8.9c0,0-1.3-6.9-8.3-4.7l-49.1,15.8-3.5-11.9c-1-3.6-4.7-5.9-8.3-5h-.1c-.1,0-.2.1-.3.1l-.6.2c-3.7,1.3-5.8,5.5-4.6,9.3l6.7,23.2-.2,199.8h46.2l.2-173.2l12.5-4c3.5-1.2,5.5-4.8,4.5-8.4-.3-1.3-1-2.5-1.9-3.4l.9-.2c3.5-1.2,5.5-4.8,4.5-8.4c0,0-.9-4.6-5.3-4.7l2.1-.7c3.8-1.4,5.7-5.3,4.6-9Z" fill="#b1b1b1"/></g><clipPath id="e3yauUB9cbW113"><use width="641.100037" height="626.600037" xlink:href="#e3yauUB9cbW2"/></clipPath></g></g></g></g></g></g><g><g><g><g><g><path d="M366.2,95.3h-94.9c-1.5,0-2.8-1.3-2.8-2.8s1.3-2.8,2.8-2.8h94.9c1.5,0,2.8,1.3,2.8,2.8s-1.1,2.8-2.8,2.8Z" fill="#fff"/></g></g></g></g><g><g><g><g><path d="M337.7,109.6h-66.4c-1.5,0-2.8-1.3-2.8-2.8s1.3-2.8,2.8-2.8h66.4c1.5,0,2.8,1.3,2.8,2.8s-1.3,2.8-2.8,2.8Z" fill="#fff"/></g></g></g></g><g><g><g><g><path d="M337.7,130.5h-66.4c-.8,0-1.4-.6-1.4-1.4s.6-1.4,1.4-1.4h66.4c.8,0,1.4.6,1.4,1.4s-.7,1.4-1.4,1.4Z" fill="#004263"/></g></g></g></g><g><g><g><g><path d="M322.6,141.3h-51.4c-.8,0-1.4-.6-1.4-1.4s.6-1.4,1.4-1.4h51.4c.8,0,1.4.6,1.4,1.4.1.8-.6,1.4-1.4,1.4Z" fill="#004263"/></g></g></g></g></g><g id="e3yauUB9cbW136_to" transform="translate(458.000038,819.763193)"><g transform="translate(-300.500015,-440.750031)"><ellipse rx="15.5" ry="15.5" transform="translate(124.3 375.1)" fill="#acacac"/><g><path d="M498.4,626.4l-64-.3-65.4.4-103.8-96.8c-23.2,5.3-85.7-9.6-92.4-29.9l20.8-29.5.2-.2c26.9-30.2,75.3-57.4,75.3-57.4l3.7-10h23.2c1.2,1.1,2.3,2.8,2.5,4.7l5.6,36.2c.9,6.7,4.5,12.8,10,16.9L498.4,626.4Z" fill="#acacac"/><path d="M269.1,412.8c0,0-48.2,27.2-75.3,57.4L239,406.1c10.3,0,20.7,2.3,30.1,6.7Z" fill="#808080"/></g><g><g><path d="M245.9,267.1v234.9h-.2l-.6-.2h-119.3v-234.7l.8-.2h118.5l.8.2Z" fill="#cfd0d0"/><path d="M245.9,267.1l-.6-.2h-118.7l-.8.2c0-6.7,5.3-12.1,12.1-12.1v0h95.8c6.7,0,12.1,5.3,12.1,12c.1-.1.1-.1.1.1Z" fill="#333"/><path d="M245,501.9l.6.2c-.2,6.5-5.6,11.5-12.1,11.5h-95.8c-6.5-.2-11.7-5.1-12.1-11.5l.8-.2h118.6v0Z" fill="#333"/></g><g><path d="M245.7,501.9c-.2,6.5-5.6,11.5-12.1,11.5h-95.8c-6.5-.2-11.7-5.1-12.1-11.5h-.2v-234.8c0-6.7,5.3-12.1,12.1-12.1v0h95.8c6.7,0,12.1,5.3,12.1,12c0,.2,0,.2,0,.2v234.8l.2-.1v0v0Z" fill="none" stroke="#333" stroke-width="0.6683" stroke-miterlimit="10"/><line x1="126.5" y1="266.9" x2="245.1" y2="266.9" fill="none" stroke="#231f20" stroke-width="0.6683" stroke-miterlimit="10"/><line x1="126.8" y1="501.9" x2="245" y2="501.9" fill="none" stroke="#231f20" stroke-width="0.6683" stroke-miterlimit="10"/></g><rect width="79.3" height="79.3" rx="0" ry="0" transform="translate(145.8 344.5)" fill="#fff"/><g><polygon points="145.8,344.5 145.8,370.9 159,370.9 159,384.1 172.2,384.1 172.2,357.7 185.4,357.7 185.4,344.5" fill="#231f20"/><rect width="13.1" height="13.1" rx="0" ry="0" transform="translate(185.4 357.7)" fill="#231f20"/><rect width="13.1" height="13.1" rx="0" ry="0" transform="translate(198.6 344.5)" fill="#231f20"/><rect width="13.1" height="26.4" rx="0" ry="0" transform="translate(211.8 357.7)" fill="#231f20"/><polygon points="198.6,384.1 185.4,384.1 185.4,397.4 198.6,397.4 198.6,410.7 211.8,410.7 211.8,423.8 225.1,423.8 225.1,397.4 198.6,397.4" fill="#231f20"/><rect width="13.1" height="13.1" rx="0" ry="0" transform="translate(172.2 397.4)" fill="#231f20"/><polygon points="159,397.4 145.8,397.4 145.8,423.8 172.2,423.8 172.2,410.7 159,410.7" fill="#231f20"/></g></g><g><g><path d="M124.8,437.5c8.1,0,14.9,6.7,14.9,14.9v.2c0,3.9-1.6,7.8-4.4,10.6s-6.5,4.4-10.6,4.4h-7c-8.1,0-14.9-6.7-14.9-14.9v-.2c0-3.9,1.6-7.8,4.4-10.6s6.5-4.4,10.6-4.4h7Z" fill="#acacac"/><path d="M124.8,470.3c8.1,0,14.9,6.7,14.9,14.9v.2c0,3.9-1.6,7.8-4.4,10.6s-6.5,4.4-10.6,4.4h-7c-8.1,0-14.9-6.5-14.9-14.8c0,0,0,0,0-.2c0-3.9,1.6-7.8,4.4-10.6s6.5-4.4,10.6-4.4l7-.1v0Z" fill="#acacac"/><path d="M118.5,403c8.7,0,15.9,7.2,15.9,15.9s-7.2,15.9-15.9,15.9-15.9-7.2-15.9-15.9v0c.1-8.8,7.1-15.9,15.9-15.9-.1,0,0,0,0,0Z" fill="#acacac"/></g></g><path d="M253.2,346.7l42.9,56-26.9,10-33.3-48.5c-3.9-3.9-6.7-13.1-3-16.9l3.3-3.3c3.8-4.2,13-1.2,17,2.7Z" fill="#acacac"/></g></g></svg>
