<svg id="eN6ugX4qwnJ1" xmlns="http://www.w3.org/2000/svg" xmlns:xlink="http://www.w3.org/1999/xlink" viewBox="140 0 341.1 626.6" shape-rendering="geometricPrecision" text-rendering="geometricPrecision">
<style><![CDATA[
#eN6ugX4qwnJ98_to {animation: eN6ugX4qwnJ98_to__to 3000ms linear infinite normal forwards}@keyframes eN6ugX4qwnJ98_to__to { 0% {transform: translate(466.175974px,796.629998px)} 40% {transform: translate(404.700016px,531.138982px)} 43.333333% {transform: translate(404.700016px,524.138982px)} 46.666667% {transform: translate(404.700016px,526.805649px)} 60% {transform: translate(404.700016px,526.805649px)} 96.666667% {transform: translate(352.900015px,798.772048px)} 100% {transform: translate(352.900015px,798.772048px)}}
]]></style>
<defs><rect id="eN6ugX4qwnJ5" width="641.1" height="626.6" rx="0" ry="0"/><path id="eN6ugX4qwnJ6" d="M403.8,374.7l-33.9,17.6c-1.2.7-2.7.2-3.4-1l-13.2-25.4c-.7-1.2-.2-2.7,1-3.4l33.9-17.6c1.2-.7,2.7-.2,3.4,1l13.2,25.4c.7,1.2.2,2.7-1,3.4Z"/><path id="eN6ugX4qwnJ7" d="M366.2,95.3h-94.9c-1.5,0-2.8-1.3-2.8-2.8s1.3-2.8,2.8-2.8h94.9c1.5,0,2.8,1.3,2.8,2.8s-1.1,2.8-2.8,2.8Z"/><path id="eN6ugX4qwnJ8" d="M337.7,109.6h-66.4c-1.5,0-2.8-1.3-2.8-2.8s1.3-2.8,2.8-2.8h66.4c1.5,0,2.8,1.3,2.8,2.8s-1.3,2.8-2.8,2.8Z"/><path id="eN6ugX4qwnJ9" d="M337.7,130.5h-66.4c-.8,0-1.4-.6-1.4-1.4s.6-1.4,1.4-1.4h66.4c.8,0,1.4.6,1.4,1.4s-.7,1.4-1.4,1.4Z"/><path id="eN6ugX4qwnJ10" d="M322.6,141.3h-51.4c-.8,0-1.4-.6-1.4-1.4s.6-1.4,1.4-1.4h51.4c.8,0,1.4.6,1.4,1.4.1.8-.6,1.4-1.4,1.4Z"/><path id="eN6ugX4qwnJ11" d="M322.6,160.4h-51.4c-.8,0-1.4-.6-1.4-1.4s.6-1.4,1.4-1.4h51.4c.8,0,1.4.6,1.4,1.4.1.8-.6,1.4-1.4,1.4Z"/></defs><g transform="translate(-.36362 0.150019)"><g><g><g><g><path d="M461.9,12.2h-2.2c-.2,0-.3.1-.3.3v4.8-.1l-.1-.1-.1-.1h-.1v-3.1-.6-.4-.4h-278.2v.4.4.6v3.1l-.2.1-.1.1c0,0,0,0,0,.1v-4.8c0-.2-.1-.3-.3-.3h-2.3c-.2,0-.3.1-.3.3v7.6v351.3v28.7v84.2v3.7c0,.2.1.3.3.3h2.1v.8h-2.1c-.2,0-.3.1-.3.3v3.7v109.7v23.5c0,.2.1.3.3.3h2.2.2h279h.2h2.2c.2,0,.3-.1.3-.3v-23.5-109.7-3.7c0-.2-.1-.3-.3-.3h-2.1v-.8h2.1c.2,0,.3-.1.3-.3v-3.7-84.2-28.7-351.3-7.6c.1-.2-.1-.3-.2-.3Z" fill="#2a353f" stroke="#000" stroke-width="0.1385" stroke-linecap="round" stroke-linejoin="round" stroke-miterlimit="1"/><rect width="277.6" height="161" rx="0" ry="0" transform="translate(181.1 318)" fill="#212c37" stroke="#000" stroke-width="0.1385" stroke-linecap="round" stroke-linejoin="round" stroke-miterlimit="1"/><path d="M364,595.7h-88.1c-3.9,0-7-3.2-7-7v-58.7c0-3.9,3.2-7,7-7h88.1c3.9,0,7,3.2,7,7v58.7c0,3.9-3.1,7-7,7Z" fill="#252f38" stroke="#000" stroke-width="0.1385" stroke-miterlimit="1"/><path d="M411,355.6h-60.2c-2.2,0-4,1.8-4,4v85.4c0,2.2,1.8,4,4,4h60.2c2.2,0,4-1.8,4-4v-85.4c0-2.2-1.8-4-4-4Z" fill="#e4e5e6" stroke="#000" stroke-width="0.1385" stroke-linecap="round" stroke-linejoin="round" stroke-miterlimit="1"/></g><path d="M383.2,404.6c0,1.3-1.1,2.4-2.4,2.4s-2.4-1.1-2.4-2.4s1.1-2.4,2.4-2.4s2.4,1,2.4,2.4Z" stroke="#000" stroke-width="0.1385" stroke-linecap="round" stroke-linejoin="round" stroke-miterlimit="1"/><circle r="4.8" transform="translate(320.7 29.6)" stroke="#000" stroke-width="0.1385" stroke-linecap="round" stroke-linejoin="round" stroke-miterlimit="1"/><g><rect width="18.2" height="41.7" rx="0" ry="0" transform="translate(366.5 63.2)" fill="#ff5a5f"/><rect width="9.1" height="107.6" rx="0" ry="0" transform="translate(375.6 175.9)" fill="#00e9cd"/><g><rect width="155.8" height="241.4" rx="0" ry="0" transform="translate(242.3 55.3)" fill="#37e6d5" stroke="#000" stroke-width="0.132" stroke-linecap="round" stroke-linejoin="round"/><g><path d="M284.5,195.6h66c4.2,0,7.9,3.4,7.9,7.9v37.1c0,4.2-3.4,7.9-7.9,7.9h-66c-4.2,0-7.9-3.4-7.9-7.9v-37.1c.1-4.4,3.6-7.9,7.9-7.9Z" fill="#fff"/><rect width="81.5" height="11.1" rx="0" ry="0" transform="translate(276.7 205.8)" fill="#414042"/></g></g></g><path d="M404.7,301.1v-253.1c0-2.1-1.7-3.9-3.9-3.9h-161.3c-2.1,0-3.9,1.7-3.9,3.9v253.2c0,2.1,1.7,3.9,3.9,3.9h161.4c2.1-.1,3.8-1.8,3.8-4Zm-156.1-9v-235.1h143.3v235.1h-143.3Z" stroke="#000" stroke-width="0.096891" stroke-linecap="round" stroke-linejoin="round" stroke-miterlimit="1"/><rect width="276.9" height="8.8" rx="0" ry="0" transform="translate(181.1 474.6)" fill="#161b1e"/><polygon points="458.6,477.8 458.6,488.4 180.6,488.4 180.6,477.8 181.1,477.8 181.1,483.2 458.1,483.2 458.1,477.8"/><rect width="278.1" height="10" rx="0" ry="0" transform="translate(180.6 488.4)" fill="#161b1e"/><line x1="458.5" y1="12.5" x2="182.2" y2="12.5" fill="#e4e5e6"/><rect width="4.5" height="614.1" rx="0" ry="0" transform="translate(178 12.2)" fill="#e4e5e6"/><rect width="4.5" height="614.1" rx="0" ry="0" transform="translate(457.2 12.2)" fill="#e4e5e6"/><g><path d="M355.9,588c-.1,1.5-1.3,2.8-2.9,2.7v.1l-.1.1-.1.1-.2.1-.3.1-.4.1-.4.1h-.5-.4-18c-1.8.1-3.5-.2-5.2-.8l-.7-.3-.8-.2-1-.2-1.1-.1-1.2-.1-1.3-.1h-1.1l-1.3.1-1.2.1-1.1.1-1,.2-.8.2-.7.3c-1.7.7-3.5,1-5.2.8h-18-.4-.4l-.4-.1-.4-.1-.3-.1-.2-.1-.1-.1-.1-.1v-.1c-1.5.1-2.9-1.2-2.9-2.7v-16.5c.1-1.5,1.3-32.4,2.9-32.4h64.2c1.5-.1,2.9,30.8,2.9,32.4l.2,16.5v0Z" fill="#252f38" stroke="#000" stroke-width="0.103" stroke-miterlimit="1"/><rect width="64.2" height="34.4" rx="0" ry="0" transform="translate(288.7 539.1)" fill="#333"/><path d="M353,578.9v9.7l-.1.1-.1.1-.2.1-.3.1-.4.1-.4.1h-.4-.4-18c-1.8.1-3.5-.2-5.2-.8l-.7-.3-.8-.2-1-.2-1-.2-1.2-.1-1.3-.1h-1.3l-1.3.1-1.2.1-1.1.1-1,.2-.8.2-.7.3c-1.7.7-3.5,1-5.2.8h-18-.4-.4l-.4-.1-.4-.1-.3-.1-.2-.1-.1-.1-.1-.1v-9.7l64.4.1v0Z" fill="#979797"/><path d="M353,588.7v2.3l-.1.1-.1.1-.2.1-.3.1-.4.1-.4.1h-.4-.4-18c-1.8.1-3.5-.2-5.2-.8l-.7-.3-.8-.2-1-.2-1.1-.1-1.2-.1-1.3-.1h-1.2l-1.3.1-1.2.1-1.1.1-1,.2-.8.2-.7.3c-1.7.7-3.5,1-5.2.8h-18-.4-.4l-.4-.1-.4-.1-.3-.1-.2-.1-.1-.1-.1-.1v-2.3l.1.1.1.1.2.1.3.1.4.1.4.1h.4.4h18c1.8.1,3.5-.2,5.2-.8l.7-.3.8-.2l1-.2l1.1-.1l1.2-.1l1.3-.1h1.3l1.3.1l1.2.1l1.1.1l1,.2.8.2.7.3c1.7.7,3.5,1,5.2.8h18h.4.4l.4-.1.4-.1.3-.1.2-.1.1-.2v0v0Z" fill="#808080"/><path d="M355.9,571.5v16.5c-.1,1.5-1.3,2.8-2.9,2.7v-51.6c1.6-.1,2.9,30.8,2.9,32.4Z" fill="#666"/><path d="M288.7,539.1v51.6c-1.5.1-2.9-1.2-2.9-2.7v-16.5c.1-1.6,1.4-32.5,2.9-32.4Z" fill="#666"/><rect width="64.2" height="5.5" rx="0" ry="0" transform="translate(288.7 573.4)"/></g><path d="M353.7,546.3v.8c0,2-.6,3.7-1.2,3.7h-62.6c-.7,0-1.2-1.7-1.2-3.7v-.8h65Z" fill="#161b1e" stroke="#000" stroke-width="0.2271" stroke-linecap="round" stroke-linejoin="round" stroke-miterlimit="1"/><path d="M353.7,541.8v.8h-65v-.8c0-2,.6-3.7,1.2-3.7h62.6c.6,0,1.2,1.4,1.2,3.7Z" fill="#161b1e" stroke="#000" stroke-width="0.2271" stroke-linecap="round" stroke-linejoin="round" stroke-miterlimit="1"/><rect width="65" height="3.7" rx="0" ry="0" transform="translate(288.7 542.6)" stroke="#000" stroke-width="0.2271" stroke-linecap="round" stroke-linejoin="round" stroke-miterlimit="1"/><path d="M303.8,413.4v.4c0,1-.6,1.8-1.2,1.8h-62.6c-.7,0-1.2-.8-1.2-1.8v-.4h65Z" fill="#161b1e" stroke="#000" stroke-width="0.1606" stroke-linecap="round" stroke-linejoin="round" stroke-miterlimit="1"/><path d="M303.8,411.2v.4h-65v-.4c0-1,.6-1.8,1.2-1.8h62.6c.7-.1,1.2.6,1.2,1.8Z" fill="#161b1e" stroke="#000" stroke-width="0.1606" stroke-linecap="round" stroke-linejoin="round" stroke-miterlimit="1"/><rect width="65" height="1.8" rx="0" ry="0" transform="translate(238.8 411.6)" stroke="#000" stroke-width="0.1606" stroke-linecap="round" stroke-linejoin="round" stroke-miterlimit="1"/><g><g><line x1="224.6" y1="414.7" x2="224.6" y2="433.6" fill="none" stroke="#000" stroke-width="0.6297" stroke-linecap="round" stroke-linejoin="round" stroke-miterlimit="10"/></g><g><path d="M224.6,433.6c0,2.8,2.3,5.1,5.1,5.1" fill="none" stroke="#000" stroke-width="0.6297" stroke-linecap="round" stroke-linejoin="round" stroke-miterlimit="10"/></g><g><line x1="229.8" y1="438.7" x2="312.2" y2="438.7" fill="none" stroke="#000" stroke-width="0.6297" stroke-linecap="round" stroke-linejoin="round" stroke-miterlimit="10"/></g><g><path d="M312.2,438.7c2.8,0,5.1-2.3,5.1-5.1" fill="none" stroke="#000" stroke-width="0.6297" stroke-linecap="round" stroke-linejoin="round" stroke-miterlimit="10"/></g><g><line x1="317.4" y1="433.6" x2="317.4" y2="414.7" fill="none" stroke="#000" stroke-width="0.6297" stroke-linecap="round" stroke-linejoin="round" stroke-miterlimit="10"/></g><g><path d="M317.4,414.7c0-2.8-2.3-5.1-5.1-5.1" fill="none" stroke="#000" stroke-width="0.6297" stroke-linecap="round" stroke-linejoin="round" stroke-miterlimit="10"/></g><g><line x1="312.2" y1="409.6" x2="229.8" y2="409.6" fill="none" stroke="#000" stroke-width="0.6297" stroke-linecap="round" stroke-linejoin="round" stroke-miterlimit="10"/></g><g><path d="M229.8,409.6c-2.8,0-5.1,2.3-5.1,5.1" fill="none" stroke="#000" stroke-width="0.6297" stroke-linecap="round" stroke-linejoin="round" stroke-miterlimit="10"/></g></g></g></g></g><g><g><g><g><g><path d="M366.2,95.3h-94.9c-1.5,0-2.8-1.3-2.8-2.8s1.3-2.8,2.8-2.8h94.9c1.5,0,2.8,1.3,2.8,2.8s-1.1,2.8-2.8,2.8Z" fill="#fff"/></g></g></g></g><g><g><g><g><path d="M337.7,109.6h-66.4c-1.5,0-2.8-1.3-2.8-2.8s1.3-2.8,2.8-2.8h66.4c1.5,0,2.8,1.3,2.8,2.8s-1.3,2.8-2.8,2.8Z" fill="#fff"/></g></g></g></g><g><g><g><g><path d="M337.7,130.5h-66.4c-.8,0-1.4-.6-1.4-1.4s.6-1.4,1.4-1.4h66.4c.8,0,1.4.6,1.4,1.4s-.7,1.4-1.4,1.4Z" fill="#004263"/></g></g></g></g><g><g><g><g><path d="M322.6,141.3h-51.4c-.8,0-1.4-.6-1.4-1.4s.6-1.4,1.4-1.4h51.4c.8,0,1.4.6,1.4,1.4.1.8-.6,1.4-1.4,1.4Z" fill="#004263"/></g></g></g></g><g><g><g><g><path d="M322.6,160.4h-51.4c-.8,0-1.4-.6-1.4-1.4s.6-1.4,1.4-1.4h51.4c.8,0,1.4.6,1.4,1.4.1.8-.6,1.4-1.4,1.4Z" fill="#fff"/></g></g></g></g></g><g><path d="M459.5,12.3h-279.2v-5c0-2,1.6-3.6,3.6-3.6h272c2,0,3.6,1.6,3.6,3.6v5Z" fill="#2a353f" stroke="#000" stroke-width="0.1383" stroke-linecap="round" stroke-linejoin="round" stroke-miterlimit="1"/><path d="M459.1,12.6h-278.4v-5c0-2,1.6-3.6,3.6-3.6h271.3c2,0,3.6,1.6,3.6,3.6v5Z" fill="#e4e5e6"/></g></g><g id="eN6ugX4qwnJ98_to" transform="translate(466.175974,796.629998)"><g transform="translate(-414.324051,-504.312363)"><g><g clip-path="url(#eN6ugX4qwnJ295)"><g><path d="M361.9,420.6c.1,0,.1,0,0,0v0l35.3,7.9-3.3,7.9-33-.2v0c0,0,0,0-.1,0-4.6,0-8.1-3.5-7.9-7.9.3-4.4,3.8-9,9-7.7Z" fill="#b1b1b1"/><path d="M364.5,432.4v0v0l31.2-1.8l2,14.3-31.2,1.7v0c0,0,0,0-.1,0-4.4.3-8.4-2.7-8.9-6.7s2.7-7.3,7-7.5Z" fill="#b1b1b1"/><path d="M366.9,444.5v0v0l28.4,1.2-.1,12.9-28.3-1.2v0c0,0,0,0-.1,0-4-.2-7.2-3.2-7.2-6.8s3.2-6.3,7.3-6.1Z" fill="#b1b1b1"/><path d="M396.1,410.3c1.7-.1,3.4.5,4.6,1.6l13.9,11.7c2,1.8,3.1,4.3,3.1,6.9l.5,51.4c0,3-2.7,5.3-6.2,5.1l-12.3-.6c-3.4-.2-6.2-2.7-6.2-5.7l2.5-43-10.8-9.1-23.2-.3c-9.9.2-15.5-4.3-13.9-10c.9-3.4,2.9-5.9,10.5-5.8l37.5-2.2Z" fill="#b1b1b1"/><g><path d="M394.4,340.8l34.4,66.1c1,2,.3,4.5-1.7,5.5l-40.5,21c-2,1-4.5.3-5.5-1.7l-34.4-66.1c-1-2-.3-4.5,1.7-5.5l40.5-21c2-1.1,4.5-.3,5.5,1.7Z" fill="#c96561"/><path d="M394.4,340.8l34.4,66.1c1,2,.3,4.5-1.7,5.5l-40.5,21c-2,1-4.5.3-5.5-1.7l-34.4-66.1c-1-2-.3-4.5,1.7-5.5l40.5-21c2-1.1,4.5-.3,5.5,1.7Z" fill="#2eb7aa"/><path d="M394.1,340l34.8,66.8c.9,1.6.2,3.5-1.3,4.4l-41.2,21.4c-1.6.9-3.5.2-4.4-1.3l-34.8-66.8c-.9-1.6-.2-3.5,1.3-4.4l41.2-21.4c1.6-.8,3.5-.3,4.4,1.3Z" fill="#fc7e79"/><path d="M394.1,340l34.8,66.8c.9,1.6.2,3.5-1.3,4.4l-41.2,21.4c-1.6.9-3.5.2-4.4-1.3l-34.8-66.8c-.9-1.6-.2-3.5,1.3-4.4l41.2-21.4c1.6-.8,3.5-.3,4.4,1.3Z" fill="#37e6d5"/><g><path d="M403.8,374.7l-33.9,17.6c-1.2.7-2.7.2-3.4-1l-13.2-25.4c-.7-1.2-.2-2.7,1-3.4l33.9-17.6c1.2-.7,2.7-.2,3.4,1l13.2,25.4c.7,1.2.2,2.7-1,3.4Z" fill="#c96561"/><path d="M403.8,374.7l-33.9,17.6c-1.2.7-2.7.2-3.4-1l-13.2-25.4c-.7-1.2-.2-2.7,1-3.4l33.9-17.6c1.2-.7,2.7-.2,3.4,1l13.2,25.4c.7,1.2.2,2.7-1,3.4Z" fill="#2eb7aa"/><polygon points="365.2,388.8 361,380.9 377.7,368.5 384.3,364.8 387.9,366.8 388.4,370.1 368.4,383.1" fill="#d7effd"/><g><g><g><g><g><g><g><g clip-path="url(#eN6ugX4qwnJ268)"><g><g><g><path d="M380.5,367.9c0,.1,0,.2-.1.2c0-.1,0-.1.1-.2Z" fill="#d1e0e7"/><path d="M381.7,366.8c0,0,.1,0,0,0-.1.1-.2.2-.4.3-.1.1-.1.1-.2.2c0,0,0,0,0-.1.2-.1.4-.3.6-.4Z" fill="#d1e0e7"/><path d="M381.8,366.7c.2-.1.3-.2.5-.3-.2.2-.4.2-.5.3Z" fill="#d1e0e7"/><path d="M382.9,366.2c0,.1,0,.1,0,0-.2.1-.3.2-.4.2s-.2.1-.3.1c.1-.1.3-.2.4-.3s.2,0,.3,0Z" fill="#d1e0e7"/><path d="M393.6,368.4c.1.1.1.1,0,0-.1,0-.2.1-.4.1-.1,0-.1,0,0,.1.1.2.2.3.4.3c0,.9,0,1.8,0,2.7-.4-.1-.7-.2-1-.3-.4-.1-.7-.2-1-.3-.2,0-.2-.1-.2-.3.1-.8.1-1.5.2-2.3v-.1h.1c.2,0,.4.1.6.1c0,0,0,0,.1,0c0,.1.1.2.2.1s.2-.1.1-.3c0-.1,0-.1,0-.2.1-.1.2-.2,0-.4.1,0,.1.1.2.1h.1c0-.1,0-.1,0-.1-.1,0-.1-.1,0-.1c0,0,.1-.1,0-.1-.2-.1-.1-.2-.1-.3c0,0,.1,0,.1-.1v0c.3,0,.3,0,.4.2c0,.1.1.3.2.4c0,.1.1.2-.1.3c0,0-.1,0-.1.1l.1.1c0,.2.1.2.1.3Z" fill="#0e3e5a"/><path d="M388.2,375.7c-.1,0-.1,0-.2-.1.1.3.1.3.2.1.1.1.1.1,0,0c.1.1,0,.1,0,0Zm.1-.2c-.1,0-.1,0,0,0l-.1-.3c-.1-.1-.1-.2-.2-.1c0,.1,0,.1,0,.2v0c0,0-.1,0-.1.1v0c.2,0,.3.1.4.1c0,.1.1,0,0,0c.1,0,.1,0,0,0Zm.6,0c-.1.1-.2.1-.2.1-.1-.1-.2,0-.3.1c0,0,.1,0,.2,0s.2,0,.3-.2c-.1.1,0,0,0,0c0,.1,0,.1,0,0v0Zm0,.5v0c-.2-.1-.3-.2-.2-.3-.2.1-.2.3,0,.4.2,0,.2,0,.2-.1v0v0c.1.1.2-.1,0,0Zm.1-.5v0c.1.1.1.1,0,0c.1,0,0,0,0,0Zm.3.9v0c0,.1,0,.2.1.2c0,0-.1-.1-.1-.2Zm0-1.8v0c-.1,0-.1.1-.1.2.1,0,.1-.1.1-.2v0Zm.2,2.2v0v0v0Zm.2-1.6v0v0Zm1,.4c-.1,0-.2.2-.3.3c0,.1-.1.2-.1.3s0,.1,0,.2c.1,0,.2-.1.3-.1-.1-.1,0-.2.1-.3s.2-.2.2-.3c-.1,0-.2,0-.2-.1Zm.7-.1c-.1,0-.2.1-.3.2v.1v0c0,0,0,0,.1,0v0c.1,0,.1-.1.2-.1c0,0,.1,0,0-.2.1,0,.1,0,0,0Zm.1.4c0,0,0,.1,0,0c0,.1.1.1,0,0v0Zm.2-.9v0c.2-.2.3-.2.4-.3-.1,0-.1-.1-.2-.1s-.2.1-.2.2-.1.1,0,.2h-.2c-.1.1-.1.2,0,.3l.1.1c0,.1,0,.1.1.1c0,0,0,0,0-.1l-.1-.1c-.1,0-.1-.1-.1-.1c0-.1.1-.2.2-.2Zm.4.2v0c0,0-.1,0,0,0-.1,0-.2,0-.2,0h.2c-.1,0-.1.1,0,0v0Zm.5-.2v0c0,.1.1.1,0,0Zm1.1.3c-.7.2-1.2.4-1.9.5v0c-.1.1-.1.1-.2.1l-.1.1c0,0,.1,0,.1.1v0h.1v0c0-.2.1-.3.3-.3.7-.2,1.2-.3,1.9-.5c0,0-.1,0-.2,0Z" fill="#379596"/><path d="M389.3,373.5c-.3-.2-.7-.3-.8-.7-.1-.1-.1-.1-.1-.2c0-.3-.2-.5-.3-.7-.1-.1-.1-.1-.1-.2s-.1-.1-.1-.1c-.1,0-.1.1-.1.1c0,.1,0,.2-.1.2c0,.1.1.2-.1.2-.1,0-.1,0-.2,0v0c0,0,0-.1.1-.1l-.1-.1c-.2,0-.3,0-.2.2c0,.1.1.1,0,.1-.2.1-.3.2-.3.4c0,.1,0,.2-.1.2-.2.1-.3.2-.3.4.1,0,.1.1.1.1-.1.1,0,.2.1.3s.1.2.1.3.1.1.2.1c.2-.1.2-.4.2-.5c0,0,0-.1.1-.2l.3.2h.2c.4.2.8.3,1.1.4h.1v0v0v0v0v0v0v0h.1c0,0,0,0,0,.1h.1c0-.1,0-.2.1-.3.2-.1.1-.1,0-.2Zm-1.9-1.1v0c0-.1,0-.1,0,0v0Z" fill="#dbe5ea"/><path d="M391.8,375.1v0c-.1,0-.1.1,0,0c.1.1.1.1,0,0v0v0v0c.1.1.1.1.2.1v0v0c0,.1.1.1,0,.2s-.2.1-.3.1h-.1c-.1,0-.1,0-.1-.1l-.1-.1c-.1-.1-.1-.2,0-.3l.1-.1c0,0,.1,0,.1-.1s.1-.1.2-.2h.1c.2,0,.4,0,.6.1-.1,0-.1.1-.2.1c0,.2-.2.3-.5.3Z" fill="#318586"/><path d="M390,372.4c-.1.1-.2-.1-.3,0c0,0,0,0,0-.1s0-.3-.1-.4c0,0-.1-.1,0-.1h.1c.1,0,.2,0,.2.2v0c.1.1,0,.3.1.4v0Z" fill="#e1e9ee"/><path d="M389.5,371.7v0c-.1,0-.2.1-.2.1c0-.1,0-.2.1-.3h.1c0,0,0-.2.1-.1.1,0,.1.1.1.2.1,0,0,0-.2.1.1-.1.1,0,0,0Z" fill="#e1e9ee"/><path d="M394.1,367.6c0-.1-.1-.1-.2,0s-.2,0-.1-.1c0-.1,0-.1,0-.2c0,0,.1-.1.1,0c.1.1.2.1.2.3v0v0v0Z" fill="#0c3047"/><path d="M387.7,372.1c0,.1.1.2-.1.2-.1,0-.1,0-.2,0c0-.1,0-.1.1-.2v0h.2Z" fill="#e1e9ee"/><path d="M389.9,374c-.1,0-.3,0-.4-.1.1-.1.3-.1.4.1v0Z" fill="#e0f3fb"/><path d="M390,372.4v0v0v0c0,.1,0,0,0,0v0Z" fill="#e1e9ee"/><path d="M390,372.4c0-.1,0-.1,0,0c.1-.1.1-.1,0,0c.1-.1.1-.1,0,0v0Z" fill="#e1e9ee"/><path d="M394.2,367.5v0v0Z" fill="#0f3a54"/><path d="M389.1,377.7c0,.1-.2.3-.3.3-.6.2-1.1.4-1.8.6-.1,0-.2,0-.2-.1-.1-.1-.1-.3-.1-.4.1-.1.2-.2.1-.4c0-.2,0-.4.1-.5c0-.1.1-.1.1-.1.1,0,.1.1,0,.1c0,.1,0,.2-.1.2v.1h.1c.1-.1.1-.3.2-.4c0-.1-.1-.1-.2-.2s-.2-.2-.2-.3c.1-.1.1-.2.2-.3.1,0,0,.2.1.1.1,0,0-.1,0-.2s.1-.2.2-.2.1,0,.2.1c.1,0,.2.1.2-.1c0-.1.1-.1.2,0c0,0,.1,0,.2.1c0,.1.1.1.1.1v0c-.1.1-.1.1.1.2v.1c.1.2.1.2.2.1c0,0,0,0,.1,0c0,.1.2.1.1.2-.1,0-.1.1-.1.2c0,0,0,.1.1.1.2.1.1.2.2.4c0,.2.1.3.2.2Zm-.4.3c0,0,.1,0,0,0c.1-.4.1-.6-.1-.9-.1-.1-.3-.1-.4,0s-.1.2-.1.3.1.2,0,.4c0,.2,0,.3.2.3.1,0,.3,0,.4-.1v0Z" fill="#50bcbd"/><path d="M388,376.2c0,0-.1,0,0,0-.1.2-.2.2-.3.2s-.1-.1-.2-.1-.2,0-.2.2c0,.1.1.1,0,.2-.1,0-.1-.1-.1-.1-.1.1-.1.2-.2.3c0,0,0,0,0,.1v0c0,.1.2.1.2.2.1,0,.2.1.2.2c0,.2-.1.3-.2.4h-.1c0,0-.1-.1,0-.1c0-.1,0-.2.1-.2v-.1c-.1,0-.1,0-.1.1-.1.2-.1.3-.1.5c0,.1,0,.3-.1.4-.1-.1-.1-.2-.1-.3v0c-.1-.2-.1-.4-.3-.6c0-.1,0-.1,0-.2s0-.1,0-.2c.1-.2,0-.3.2-.5c0,0,.2-.1.1-.2c0-.1-.1-.2-.1-.3c0,0,0,0-.1,0h-.1v-.2c.1.1.3.1.4.2s.1.1.2,0s.1-.1.1-.2c0,0,0,0,0-.1c0,0,0,0-.1,0s-.1.1-.2,0c0,0,0,0,0-.1v0c0-.1,0-.2,0-.3c0,0,0-.1,0-.2h.1c.1.1.1.1.2,0c.1,0,.2,0,.2,0c.1,0,.2.1.3.1c0,.1-.1.3.1.4c0,0,0,0,0,.1s0,.1,0,.2c.2.2.2.2.2.2Z" fill="#44aeaf"/><path d="M389.5,376.8v0c0,.1,0,.1,0,0v0c0,.5-.2.8-.4.9h-.1v0c-.1,0-.1-.1-.2-.2v0v0-.1-.1c0,0,0,0,0-.1v0c0,0,0-.1-.1-.1c0,0,0,0-.1,0v-.1v0c0,0,0,0,0-.1c0,0,0,0,.1-.1v0v0l-.1-.1c.2-.1.3-.3.5-.4.1.1.1.1.2.2.1.2.1.2.2.3-.1-.1-.1-.1,0,0-.1,0,0,0,0,0v0Z" fill="#44aeaf"/><path d="M391.1,376.1c-.2.2-.4.4-.7.6-.1.1-.1.1-.2,0c0-.1-.1-.2-.1-.3v0h.1v0c0,0,0-.1,0-.2s.1-.2.1-.3c.1-.1.2-.3.3-.3.1.1.2.1.2.1.1,0,.1,0,.1.1.2.1.2.2.2.3Z" fill="#3fa4a5"/><path d="M393.9,375.3c-.1.2-.3.3-.4.5-.1.1-.4.2-.6.1-.3-.1-.7-.1-1,.1-.1,0-.1,0-.2.1h-.1v0v0h-.1v-.1v0v0c0-.1,0-.1.1-.1.1-.1.1-.1.2-.1v0c.7-.1,1.2-.3,1.9-.5.1,0,.2,0,.2,0Z" fill="#3fa4a5"/><path d="M386.5,376c.1.1.2,0,.2,0c0,.1.1.2.1.3s-.1.2-.1.2c-.2.1-.1.3-.2.5c0,.1,0,.1,0,.2-.1,0-.1-.1-.1-.1v0c0-.4,0-.8.1-1.1Z" fill="#50bcbd"/><path d="M391.2,375.9v0c-.2-.1-.1-.1,0,0v0c-.1,0-.1,0,0,0Z" fill="#318586"/><path d="M391.3,375.9c0,0,0,.1,0,0v0v0v0Z" fill="#318586"/><path d="M391.5,375.6c0,.1-.1.1,0,0-.2.2-.2.2-.3.2v0c0,0,0,0-.1,0v0-.1c.1-.1.2-.2.4-.1c0-.1,0-.1,0,0Z" fill="#318586"/><path d="M395.3,365.9c-.1-.2.1-.2.2-.2-.1.1-.1.1-.2.2Z" fill="#0c3047"/><path d="M395.5,365.7c0-.1,0-.1,0,0v0Z" fill="#0c3047"/><path d="M392.7,367.5c-.1,0-.1-.1,0,0-.2-.1-.1-.2-.1-.2.1-.1.1,0,.1.2c0-.2,0-.1,0,0c0-.1,0,0,0,0Z" fill="#0f3a54"/><path d="M387.7,374.8c0,0,0,.1,0,0c0,.1-.1.1,0,0l-.2.1v0c0,0,0,0-.1,0h-.1c0-.1,0-.2.1-.2s.2,0,.3.1c-.1,0-.1,0,0,0v0Z" fill="#2d7b7c"/><path d="M388.2,375.4v0c-.1,0-.1.1-.2,0v0c0-.1,0-.1,0-.2.1-.1.1,0,.2.2v0v0Z" fill="#2d7b7c"/><path d="M388.3,373.7h-.2v0v0h-.1v0v0v0h.1.2Z" fill="#2d7b7c"/><path d="M388.5,375.3v0v0v0v0Z" fill="#318586"/><path d="M394.2,375.1l-1.5-.3c-.1,0-.2.1-.2.1-.1.1-.3.2-.4.3v0c0,0,.1-.1.1,0s.1.1,0,.2-.2.1-.3.1-.2.1-.2,0c-.1,0-.1,0-.1-.1l-.1-.1c-.1-.1-.1-.2,0-.3l.1-.1c0,0,.1,0,.1-.1s.1-.1.2-.2h-.1c-.6-.1-1.1-.3-1.7-.4-.1,0-.3,0-.4-.1h-.1c-.1,0-.1,0-.2,0l-.3-.1c.1.2.1.3.2.4c0,.1.1.1,0,.2v0c-.1,0-.2,0-.3.1c0,0,.1-.1.1-.2.1-.1.1-.2,0-.2-.1-.1-.2-.3-.2-.4l-.7-.2v0h-.2v0v0v0v0v0h-.1v0c0,0,0,0-.1,0v0c-.1,0-.1-.1-.2,0l-.1-.1c0-.1.1,0,.2,0c0,0,.1,0,.1.1v-.1l-.3-.2c0,.1,0,.1-.1.2c0,.2-.1.4-.2.5.1.1,0,.1,0,.2-.1.3-.2.7-.3.9v0c0,.1-.1.2-.1.3v0c0,0,0,.1,0,.2v.1c0,.1,0,.1-.1.1s-.1-.1-.1-.1c0,.1,0,.1,0,.2.2,0,.3.1.4.2s.1.1.2,0c0,0,0-.1.1-.2c0,0,0,0-.1,0s-.1.1-.2,0c0,0,0,0,0-.1v0c0-.1.1-.2.1-.2s0-.1,0-.2h.1c0,0,.1.1.2,0c.1,0,.2,0,.2,0c.1,0,.2.1.3.1l.1-.1v0l.1-.1v0c0-.1,0-.1,0-.2.1-.1.1,0,.2.1v.2v0l.1.1c0,0,0,.1.1.1l-.1.1v0l-.1.1c0,.1.1.1.2.1v0v0v0c.1-.1.2-.2.3-.1c0,0,.1,0,.2-.1c0,0,.1-.1.1,0s0,.1-.1.1c0,.1-.1.1-.1.1v0c-.1.1,0,.2.1.3h.1c.2-.1.1.1.1.1h-.2v.1c.3,0,.6-.1.9-.1l-.5.3c.1.1.1.1.1.2l.1.1v0c0,0,0,0,0,.1v0v0v0c0,.1,0,.1.1.1.2-.1.3-.3.4-.5.1-.1.1-.2.2-.1v0c0,0,0,0,.1,0v0c0,0,0-.1,0-.2s.1-.2.1-.3c.1-.1.2-.3.3-.3.1.1.2.1.2.1v0c0,0,.1.1.2.1v0-.1c.1-.1.2-.2.3-.2s.1,0,.1.1-.1.1-.1.1c-.1.1-.1.2-.2.1c0,0,.1,0,.1.1v0v0c.1.1.1.2.1.3.1-.1.1-.1.2-.2v0h-.1v-.1v0v0c0-.1,0-.1.1-.1h-.1c0,0,0,0,0,.1-.1-.1,0-.2,0-.2.1-.1.2-.2.3-.2c0,0,.1,0,.1.1v.1c.7-.1,1.2-.3,1.9-.5.1,0,.2,0,.2,0s.1,0,.2,0l.4-.1-.5-.2Zm-7-.1v0c-.1,0-.1,0,0,0-.1-.1-.2-.1-.1-.2v0v0v0c0,0,0,0,0-.1c0,0,0,0,.1,0c0,0-.1,0-.1.1v0c0,0,.1,0,.1.2.1-.1.1,0,0,0v0Zm.5-.2c0,0,0,.1,0,0c0,.1-.1.1,0,0l-.2.1v0h-.1c0,0,0,0-.1,0v0v0c0-.1,0-.2.1-.2s.2,0,.3.1c-.1,0-.1,0,0,0v0c0-.1,0-.1,0,0c.1-.1.1,0,0,0Zm2,.4v0v0v0v0Zm-.4-.6v0c0,.1,0,.2-.1.2c0-.1,0-.2.1-.2v0Zm-.1.4c-.1.1-.2,0-.2,0h.2Zm-.2.2c0,.1,0,.1,0,0-.1.1-.2.1-.2,0v0-.1v0l.2.1v0v0c0-.1,0-.1,0,0v0Zm-.2-.1v0c0,.1,0,.1,0,0v0v0Zm-.4.2v0c.1,0,.1,0,0,0v0v0c.1,0,.1,0,0,0v0v0Zm.6.2v0c0,0,.1,0,0,0v0Zm3.6-.4c0,.1-.1.1,0,0-.1.1-.1.1,0,0v0v0v0c-.3.1-.3,0-.2,0h.2c-.1-.1-.1-.1,0,0c.1-.2.1-.2,0,0c.1,0,0,0,0,0Z" fill="#2d7b7c"/><path d="M388.9,375.3v0v0c0-.1,0-.1,0,0c.1-.1.1-.1,0,0c.1,0,.1,0,0,0Z" fill="#318586"/><path d="M389,375.5c.1,0,.1,0,0,0v0v0Z" fill="#318586"/><path d="M389.3,374.6v0c0,.1,0,.2-.1.2c0-.1,0-.2.1-.2v0Z" fill="#318586"/><path d="M389.7,375.2v0v0Z" fill="#318586"/><path d="M389,376.1c0,0-.1,0,0,0-.3,0-.4.1-.5.1s-.2,0-.2.1c0,0,0,.1.1.1-.1,0-.1,0-.1.1-.1,0-.1,0-.1-.1c0,0,0,0,0-.1l-.1-.1c-.1-.1-.2-.2-.2-.4v-.1c-.2-.1-.1-.3-.1-.4v0l.1-.1c.1,0,.1,0,.2,0v0l.1.1c0,0,0,.1.1.1l-.1.1h-.1v.1c0,.1.1.1.2.1v0v0v0c.1-.1.2-.2.3-.1c0,0,.1,0,.2-.1c0,0,.1-.1.1,0s0,.1-.1.1-.1.1-.1.1c-.1.1,0,.2.1.3l.2.1c.1-.2,0,0,0,0Z" fill="#3fa4a5"/><path d="M389.8,376.1l-.5.3h-.1c-.2.1-.4.2-.5.3v0v0c0,0,0,0-.1,0c0,0,0,0-.1,0v0c-.1.1-.1,0-.1-.1v-.1l-.1-.2v0c0-.1,0-.1.1-.2c0,0,0,0,.1,0c.2,0,.4-.1.5-.1.2.2.5.1.8.1Z" fill="#e0f3fb"/><path d="M389.3,373.9v0v0l-.4-.1-.7-.2h-.2c-.1,0-.1,0-.2-.1v0h-.1v-.1h.2c.4.1.8.3,1.1.4v0v0v0c.2,0,.2,0,.3.1-.1-.1-.1-.1,0,0v0v0v0Z" fill="#e0f3fb"/><path d="M386.8,375.4v0c0,0,0,.1,0,.2v.1c0,0,0,0-.1.1-.1,0-.1-.1-.1-.1s0,0,0-.1c0,0,0,0,0-.1c0,0,0,0,0-.1s0-.1.1-.2c0-.1.1-.1.2-.1c0,.1-.1.2-.1.3Z" fill="#318586"/><path d="M387.1,374.8v0v0v0v0c0,.1,0,.1,0,0c0,.1,0,.1,0,0Z" fill="#318586"/><path d="M387.6,374.9v0v0h-.2v0v0c.1-.1.1-.1.2,0Z" fill="#318586"/><path d="M392.6,375.1c0,0-.1.1,0,0-.1.1-.1.1,0,0v0v0v0c-.2.1-.2,0-.2,0h.2c-.1-.1-.1-.1,0,0v0c.1,0,0,0,0,0Z" fill="#318586"/><path d="M387.1,374.8v0v0v0v0v0c0,0,0-.1,0,0c0-.1,0-.1,0,0c.1-.1,0,0,0,0Z" fill="#2d7b7c"/><path d="M388.5,375.3v0v0v0v0c-.1,0-.1,0,0,0-.1,0-.1,0,0,0v0Z" fill="#318586"/><path d="M389.2,373.8c.1-.1.2-.1.2,0-.1.1-.2.1-.2,0Z" fill="#e0f3fb"/><path d="M393.4,367.6c0,.1,0,.1,0,0c0,.1,0,0,0,0Z" fill="#0c3047"/><path d="M387.2,374.7c0,0-.1.1,0,0-.1.1-.1.1,0,0v0v0c-.1.1-.1,0,0,0-.1,0-.1,0,0,0Z" fill="#2a7072"/><path d="M387.2,375v0c-.1,0-.1,0,0,0v0Z" fill="#2a7072"/><path d="M387.3,373.5c0,.2-.1.4-.2.5.1-.3.2-.3.2-.5Z" fill="#2a7072"/><path d="M387.7,374.8c0,0,0,.1,0,0c0,.1-.1.1,0,0l-.2.1v0h-.1c0,0,0,0-.1,0v0c0-.1,0-.2.1-.2s.2,0,.3.1c-.1,0-.1,0,0,0v0Z" fill="#2a7072"/><path d="M387.7,373.6c.1,0,0,0,0,0-.1,0-.1-.1-.2,0l-.1-.1c0-.1.1,0,.3.1-.1-.1,0-.1,0,0v0Z" fill="#2a7072"/><path d="M388.3,373.7v0v0Z" fill="#2a7072"/><path d="M387.4,372.3v0v0c-.1.1-.1.1,0,0Z" fill="#e0f3fb"/><path d="M387.2,375.8v0c0,0-.1,0,0,0-.2,0-.2.1-.3,0c0,0,0,0,0-.1v0c.2.1.2,0,.3.1-.1-.1,0-.1,0,0Z" fill="#379596"/><path d="M386.7,375.5v0v0Z" fill="#379596"/><path d="M386.7,375.5v0c-.1,0,0,0,0,0Z" fill="#379596"/><path d="M386.7,375.6v0c-.1,0-.1,0,0,0Z" fill="#379596"/><path d="M388.7,378c-.1.1-.2.1-.3,0-.2,0-.2-.1-.2-.3c0-.1,0-.2,0-.4c0-.1-.1-.2.1-.3.1-.1.3-.1.4,0c.2.2.2.5.2.8-.1.2-.2.2-.2.2Z" fill="#bfe6fb"/><path d="M388.4,376.5l.1.2c-.2,0-.2-.1-.1-.2Z" fill="#44aeaf"/><path d="M388.5,375.3v0v0c-.1,0-.1,0,0,0-.1,0-.1,0,0,0v0v0Z" fill="#2a7072"/><path d="M388.9,375.1v0v0v0v0c0-.1,0,0,0,0Z" fill="#2a7072"/><path d="M388.8,375.1v0v0v0v0Z" fill="#2d7b7c"/><path d="M389,375.2c0,.1,0,.1,0,0-.1.1-.2.1-.2,0v0-.1v0l.2.1v0v0c-.1-.1-.1-.1,0,0v0Z" fill="#2d7b7c"/><path d="M387.7,373.6v0c.1,0,0,0,0,0-.1,0-.1-.1-.2,0l-.1-.1c0-.1.1,0,.3.1-.1-.1,0-.1,0,0Z" fill="#318586"/><path d="M388,373.6v0c0,0-.1,0,0,0-.1,0-.1,0,0,0v0c-.1,0-.1,0,0,0-.1,0-.2,0-.2,0v0c.1,0,.1,0,.2,0Z" fill="#318586"/><path d="M387.7,373.6v0v0Z" fill="#2a7072"/><path d="M380.5,367.9c0,0-.1.1-.1.2s-.1.1-.2.1c-.2.1-.3.2-.5.3s-.3.2-.4.3-.3.1-.4.3h-.1c-.1.1-.3.1-.4.2-.3.3-.7.5-1,.7-.2.1-.5.3-.7.4-.4.3-.9.5-1.2.8s-.8.6-1.1.8c-.2.1-.3.2-.4.3l-.3.1c-.2.1-.3.2-.5.3-.4.2-.8.5-1.1.7-.1,0-.2.2-.3.2-.3.2-.6.4-.9.6-.5.3-.9.6-1.2.9-.5.3-.9.6-1.3.9-.2.1-.3.2-.4.3l-.2.1c-.3.2-.6.4-.9.6-.1.1-.2.1-.3.2-.5.3-.9.7-1.4.9-.6.4-1.2.8-1.8,1.1-.5.3-.9.6-1.4.9-.2.1-.4.2-.6.3-.3.2-.6.4-.9.6l.2-.2c.4-.2.8-.5,1.1-.7s.6-.4.9-.6.6-.4.9-.6.6-.4.9-.6.7-.4.9-.6c.2-.1.4-.2.6-.4.3-.2.7-.4.9-.6.3-.2.6-.4.9-.6.5-.3.9-.6,1.3-.9.3-.2.6-.4.9-.6.5-.3.9-.6,1.3-.9.3-.2.6-.4.9-.6.4-.2.7-.5,1-.7s.6-.4.9-.6.6-.4.9-.6.6-.4.9-.6c.5-.3.9-.6,1.3-.9.3-.2.6-.4.9-.6s.7-.5.9-.7c.3-.2.6-.4.9-.6s.7-.4.9-.7c.1,0,.2-.1.3-.1-.1.1-.2.2-.4.3-.1.3-.2.4-.2.6v0Z" fill="#d7effd"/><path d="M386.2,368.1v0c-.1.3-.2.3-.3.3v-.2h.1c.1-.1.1-.2.2-.1c0-.1,0,0,0,0c.2-.1.2-.2.2-.4c0-.1,0-.2-.1-.3s-.1-.2.1-.3l-.1-.1c-.1,0-.1,0-.2.1-.2.1-.2.1-.2-.1s-.1-.3-.3-.2l.1.1c0,0,.1,0,.1.1-.1.1-.2.2-.3,0h-.1v.1c.1.1,0,.2.1.3-.1.1-.2.1-.3.3c0,.1-.1,0-.1-.1s-.1-.1-.2,0-.2.1-.3,0c-.1,0-.2,0-.3.1l-.1.1c-.1,0-.1.1-.2,0c0-.1,0-.1.1-.1.1-.2.1-.4,0-.6l-.1.1c.1.3.1.3-.2.5s-.7.4-1,.5c-.1,0-.2.1-.3,0c.1-.2.4-.3.5-.4l.1-.1c0-.2-.1-.3,0-.5c0,0,0,0,0-.1s-.1-.1,0-.2c.1,0,.2-.2.3-.1.1,0,.1.1.2,0c0-.1-.1-.1-.1-.2c0,0,0,0-.1,0v-.1c-.3,0-.5,0-.8.1-.1.1-.2.1-.3,0-.1,0-.2.1-.3.1-.2.2-.4.3-.6.4s-.4.3-.6.4c-.1.2-.2.3-.4.4h-.1c0,.1,0,.2-.1.2v0c0,.2-.1.3-.3.4s-.3.2-.5.3-.3.2-.4.3c.1.2.1.2-.1.2-.1,0-.1,0-.1.1s-.1.1-.2,0h-.1c-.1.1-.3.1-.4.2-.3.3-.7.5-1,.7-.2.1-.5.3-.7.4-.4.3-.9.5-1.2.8-.4.3-.8.6-1.1.8-.2.1-.3.2-.4.3.2.3.1.5-.3.6.1-.1.1-.3,0-.4-.2.1-.3.2-.5.3-.4.2-.8.5-1.1.7c0,.1.1.1.2.1.2-.1.2-.1.2.1c0,0,0,.1.1.1.2.1.1.1,0,.2.1.1.1.3,0,.4-.1,0-.1.2-.2.1s-.3-.1-.3-.2l.2-.6c-.1.1-.1.2-.1.2-.1-.1,0-.2.1-.2-.1-.1.1-.2,0-.3c0-.1-.2,0-.2-.1-.3.2-.6.4-.9.6-.5.3-.9.6-1.2.9-.5.3-.9.6-1.3.9-.2.1-.3.2-.4.3c0,0,0,0,.1,0c0,.1-.1.1-.1,0l-.2.1c-.3.2-.6.4-.9.6-.1.1-.2.1-.3.2-.5.3-.9.7-1.4.9-.6.4-1.2.8-1.8,1.1l-1.4.8c-.2.1-.4.2-.6.3-.3.2-.6.4-.9.6l.4.8c.1,0,.1,0,.1,0c0,.1,0,.1-.1.1v.1c.1,0,.2.1.2.1h.1c-.1.1-.2.2-.3.3l.4.7c.2-.2.4-.4.7-.6.2-.1.3-.1.4.1c0,.1,0,.2,0,.2-.1.1-.3.2-.5.3-.1.1-.2.2-.4.2l.2.3l2.7,5c.1,0,.1-.1.1-.2s.1-.1.1-.1c.2,0,.3-.1.4-.2c0,0,0-.1.1-.1.2,0,.3-.1.4-.2s.2-.1.1-.3v-.1c.1.1.2.1.2.1s.1,0,.2-.1c0,0,.1,0,.1-.1.1,0,.1-.2.1-.3c0,0,0-.1-.1-.1s-.1-.1-.2-.1c.1-.1.2-.1.3,0s.1.1.2.1.1,0,.2-.1c.1,0,.1-.1.1-.1.1-.1.1-.1.2-.2.3-.2.5-.4.8-.6.2-.1.4-.3.6-.4.3-.3.7-.5.9-.8.2-.1.3-.2.4-.3l.1-.1c.1-.1.2-.1.3-.2.1,0,.1-.1.2-.1s.2-.2.3-.2c.4-.3.9-.6,1.2-.9.3-.2.5-.3.7-.6.1,0,.2-.1.2-.2.1-.1.2-.1.3-.2.3-.3.7-.5.9-.8.3-.2.5-.4.8-.6.2-.2.5-.4.7-.5l.1-.1c.1-.1.2-.2.4-.3s.4-.2.6-.4c.1,0,.1-.1.2-.1.3-.2.6-.5.9-.7.2-.1.4-.3.6-.4.5-.4,1-.8,1.5-1.1.6-.4,1.1-.8,1.6-1.2.4-.3.9-.6,1.2-.9.2-.2.5-.3.7-.5s.4-.4.7-.5c.4.3.8.5,1.2.8.3.1.6.3.9.5c0-.1,0-.1.1-.2c0,0,0,0,0-.1c0,0,0,0,0-.1v-.1c0-.1,0-.1.1-.2.1-.4.3-.9.4-1.2c0-.1.1-.1,0-.2-.1,0-.2,0-.2-.1s0-.2-.1-.3-.2-.2-.1-.3c0,0,0-.1-.1-.1c0-.2.1-.3.3-.4.1,0,.1-.1.1-.2c0-.2.1-.3.3-.4.1,0,0,0,0-.1-.1-.2,0-.2.2-.2.1-.1,0-.2.1-.3v-.1c-.1-.1,0-.2.1-.2.1-.1.2-.3.2-.5s.1-.4.1-.7c-.8,0-1-.4-1.2-.9Zm-24.8,13.7c-.1.1-.1.1,0,0-.1,0-.1.1-.2.1c0,0,0,0-.1.1c0,0,0,0,0-.1s0-.1,0-.2c0,0,0-.1.1-.1s.1,0,.2.2c-.1-.1-.1,0,0,0v0v0Zm1-.7c0,0-.1,0,0,0-.1.3-.1.3-.2.3c0,0,.1.1,0,.1h-.1c-.1-.1-.1-.1-.2-.1v0c-.1,0-.2.2-.4.2l.1-.1c.1-.1.2-.1.3-.1l.2-.1c.1,0,.1,0,.1,0v0-.1c.1-.1.1-.2.2-.1c0-.1,0,0,0,0v0Zm2.9-1.8c-.3.2-.6.4-.9.6-.1.1-.2.1-.2.2s0,.2.1.2.1.1,0,.1l-.1.1c.1,0,.2,0,.2-.1.1-.1.2-.1.3-.2.1,0,.1,0,.1.1-.1.1-.1.2-.2.2c0,0,0,0-.1,0c0,.3-.3.3-.5.3-.1,0-.1.2-.1.3s0,.1-.1.1c-.1-.1-.2-.2-.1-.3c0,0,0-.1.1-.1.1-.1,0-.2,0-.3-.3.2-.7.4-.9.6-.1.1-.2.1-.4.1.2-.1.3-.2.5-.3s.3-.3.5-.3c-.1-.1,0-.2.2-.3s.3-.2.4-.4l.1-.1c.2,0,.4-.2.5-.3c0,0,0-.1.1-.1s.2-.1.5-.1c0-.1,0-.1,0,0c.1,0,.1,0,0,0Zm2.1-2.2c.2-.1.3-.3.5-.3-.3.1-.4.2-.5.3Zm.8-.8v0v0Zm.1-.1c.1-.1.1-.1.2-.1-.1,0-.1.1-.2.1ZM372,375c0,0-.1,0,0,0c0-.1,0-.1,0,0c0-.1,0,0,0,0Zm10.1-6.5c0,0-.1,0-.2-.1.2,0,.3,0,.2.1.1,0,.1,0,0,0Zm.2-.1c0-.1.1-.2.2-.2-.1.1-.1.1-.2.2Z" fill="#d7effd"/><path d="M361.4,381.8v0c-.1.1-.1.1,0,0v0Z" fill="#d7effd"/><path d="M362.2,381.5v0c-.2-.1-.2-.1-.3-.1l.2-.1c.1,0,.1,0,.1,0c0,.1.1.1,0,.2Z" fill="#d7effd"/><path d="M368.1,376.3c0,.1-.1.1,0,0-.1,0-.1,0,0,0Z" fill="#d7effd"/><path d="M368.3,376.2c0,0-.1,0,0,0-.1,0-.1,0,0,0Z" fill="#d7effd"/><path d="M368.5,376.1c0,0,.1,0,0,0v0Z" fill="#d7effd"/><path d="M372,374.1c-.1.1-.1.2-.1.2-.1-.1,0-.1.1-.2Z" fill="#d7effd"/><path d="M372.1,374.9v0v0Z" fill="#d7effd"/><path d="M372.1,374.9c-.1,0-.1.1,0,0-.1,0-.1,0-.2,0c.1,0,.1,0,.2,0Z" fill="#d7effd"/><path d="M380.5,367.9c0,.1,0,.2-.1.2c0-.1,0-.1.1-.2Z" fill="#d7effd"/><path d="M382.2,368.4c0,.1,0,.1,0,0-.1,0-.2,0-.2,0c.1,0,.2,0,.2,0Z" fill="#d7effd"/><path d="M382.5,368.3c-.1.1-.1.1-.2.2c0-.2.1-.2.2-.2Z" fill="#d7effd"/><path d="M386.2,368.1v0c-.1.3-.2.3-.3.3v-.2h.1c.1-.1.1-.2.2-.1c0-.1,0,0,0,0Z" fill="#d7effd"/><path d="M396.4,364.1c-.2,0-.4,0-.5.1-.4.2-.8.5-1.2.7-.2.1-.5.3-.7.4v0c0,0-.1.1-.5.3s-.6.4-.8.5-1.1,1.2-1.1,1.2-.2.1-.2.6c0,.4-.2,2.9-.2,2.9s-.1.3.1.4l1.6.4.6.2v-2.7-.8l.2-.3l2-2.7c.4-.5.5-.8.7-1.2.2,0,.1,0,0,0Z" fill="#0f3a54"/></g><path d="M360.7,380.4c-1.5-2.8-2.9-5.7-4.5-8.5.2-.3.4-.6.6-.9.1,0,0-.1,0-.2-.1-.2-.2-.2-.4,0s-.3.4-.4.6c-.2-.4-.5-.9-.7-1.2-.1-.1-.1-.2,0-.3l.1-.1c0-.1,0-.1.1-.1s.1,0,.1-.1c0-.2.2-.5.4-.6.1-.1.2-.3.4-.4v-.1c0-.1,0-.2.1-.2c0,0,0,0,.1,0c.2,0,.2-.1.3-.2s.2-.2.4-.3c.2,0,.3-.2.3-.4v-.1c.2,0,.2-.2.3-.3.1,0,.1-.1.1-.1c0-.1.1-.2.2-.2.2,0,.2-.2.4-.3.1,0,0-.1,0-.1-.1-.1-.1-.2.1-.3.1,0,.2-.1.2-.1c0-.1.1-.2.2-.2h.1c.1-.3.5-.3.6-.5h.1c.2,0,.2,0,.1-.2-.1-.1,0-.1.1-.2.3-.1.5-.3.8-.4.1-.1.2-.1.1-.2s0-.1,0-.1c.1-.1.3-.2.4-.3s.1-.1.2,0c.2.1.3-.1.5-.1c0,0,0,0,0-.1c0-.2.2-.3.3-.3.2-.1.3-.1.5-.1.1,0,.1,0,.2-.1c0-.3.3-.3.5-.4.1,0,.2-.1.3-.1.1-.1.2-.2.4-.1.1,0,.3,0,.3-.2v0c0-.1.1-.1.2-.1s.3,0,.4,0c0,0,.1-.1,0-.1c0-.1,0-.2.1-.1.1,0,.1,0,.1-.1s.1-.2.2-.1c.2,0,.4-.1.5-.2s.3-.1.4-.2c0,.1,0,0,.1,0c.1-.1.2-.2.3-.1.1,0,.2,0,.2-.1.1,0,.1,0,.2,0c0-.3,0-.3.4-.3.2,0,.4.1.4-.2c0,0,0-.1.1-.1.1.1.2.3.2,0c0-.1.2-.1.3-.1h.1c.1-.3.3-.1.4-.2.2,0,.3-.1.4-.2.1-.2.3-.1.5-.2.1-.1.3-.1.4-.2h.1c.2.1.2,0,.3-.2c0,.2.1.2.2.2.1-.1.2-.2.4-.2.3-.1.6-.4.9-.4s.5,0,.8.1c.1.1.1,0,.1,0c.1,0,.2-.2.4-.1.1.1.1-.1.2,0c.2,0,.5.1.7.1.2.1.5.2.7-.1.1-.1.3-.1.4-.1h.1c.1-.3.4,0,.6-.1.1.2.2,0,.3,0c.2,0,.3-.1.5,0c.2,0,.4,0,.5,0h.1c.3.1.7.2.9.1.1,0,.1,0,.2,0c.1-.1.2-.1.3,0s.4.1.4.1c.1-.1.3-.1.4-.1s.3,0,.4,0h.1c.4-.2.8,0,1.1-.1s.7,0,.9.2c.1.1.3,0,.3.2v0c.2-.1.3,0,.5,0s.4.1.7.2h.1c.2,0,.5.1.7.3.1.1.1.1.2.1.3-.1.4,0,.5.3c0,.1.1.1.1,0s.1-.1.2-.1c.1.1,0,.1,0,.2.2-.2.3-.1.5,0c.3.2.5.3.8.4.1,0,.2,0,.1.2c0,.1.1.1.1,0c.2,0,.3,0,.3.2c0,.1.1.2.2.2v0c.2,0,.3,0,.3.2c0,.1,0,.2.2.1h.1v0v.1c0,.1,0,.1-.1.2s0,.2,0,.2v0c.1.1.1-.1.2-.1s.2-.1.3,0c.2.2.4.4.6.6.1.1.2.2,0,.3.1.1.1,0,.2,0c.1-.1.2-.1.3.1s.3.3.5.4c.1,0,.1,0,.2.1c0,.1.1.1.2.1s.3,0,.2.2v.1v0l.1-.1c0-.2,0-.4,0-.6c0-.4,0-.7-.1-1.1.3.3.5.6.7.8.5.6,1,1.2,1.5,1.8.1.1.2.1.3,0c.3-.2.6-.4.9-.6.1-.1.1-.1.2,0c.3.3.6.6.8.9.1.1.1.1.2.2-.1.1-.3.2-.5.3s-.4.2-.6.4l-.2.2c-.1-.2-.2-.3-.3-.5-.1-.1-.1-.2-.2-.1-.1,0-.2.1-.1.2v0c.1.2.2.5.5.6v.1v0c-.1,0-.1.1-.2.2-.3.3-.6.7-.9.9l-.1.1c0,.3,0,.5,0,.8c0,.1,0,.2,0,.2c0,.1-.1.3,0,.4-.1.7-.1,1.3-.2,2c0,.2.1.3.3.4c0,.1,0,.3.1.3.2.1.4.1.4.3c0,0,0,0,.1,0c.3-.1.6.1.9.1.1,0,.3,0,.2.2c0,.1,0,.2,0,.2.1,0,.2,0,.3,0s0-.1,0-.2s0-.2.1-.3c.1,0,.2,0,.2.1.1.3.1.3.4.2.2-.1.4,0,.6.1.1.1.2.1.3.1.2,0,.3.1.4.2.1.2.2.1.3.1s.1-.1.2-.1c.1.1,0,.2,0,.2s0,.1-.1.1c-.1.1,0,.2.1.2s.1,0,.2,0s.3,0,.2.2c.1-.1.2-.2.3-.1-.1.2-.3.4-.6.5-.5.4-1,.7-1.5,1-.1.1-.3.1-.3.3l-1.5-.3c-.2-.1-.4-.1-.6-.1-.2-.1-.5-.1-.8-.2l-1.5-.4c0-.1-.2-.1-.2-.1-.1-.2-.3-.3-.5-.3-.4-.1-.8-.5-.9-.9c0-.2-.2-.4-.3-.6v-.1c-.1,0,.1-.1,0-.2-.1,0-.1.1-.1.2v0c-.1,0-.3,0-.2-.2-.1-.1.2-.1.1-.2-.2-.2,0-.3.1-.4s.2-.3.2-.5v.2c.1-.1,0-.3,0-.5-.1-.3-.2-.6-.3-.9s-.2-.6-.3-.8v-.1c0-.2-.1-.4-.2-.6-.1-.1-.2-.3-.3-.5s-.2-.4-.3-.5v0c-.1-.2-.2-.4-.4-.5-.3-.2-.7-.4-.9-.6-.1,0-.2-.1-.2-.1-.2.1-.4.1-.5,0-.1,0-.2,0-.3,0h-.1c-.3.1-.6-.1-.8.2-.1.1-.3,0-.4,0s-.2-.1-.3,0-.3.2-.4.2c-.5.3-.9.6-1.4.9-.3.2-.6.4-.9.6-.5.3-.9.6-1.3.9-.3.2-.6.4-.9.6-.5.3-.9.6-1.3.9-.3.2-.6.4-.9.6-.4.3-.9.6-1.2.9-.4.3-.9.6-1.2.9-.5.3-.9.6-1.4.9-.3.2-.6.4-.9.6-.4.3-.9.6-1.2.9-.3.2-.6.4-.9.6-.5.3-.9.6-1.4.9-.3.2-.6.4-.9.6-.4.3-.9.6-1.2.9-.3.2-.6.4-.9.6-.5.3-.9.6-1.4.9-.3.2-.6.4-.9.6-2.1-.4-2.6,0-3.1.3Z" fill="#f1f9fc"/><path d="M396.4,373.3c-.1-.1-.2,0-.3.1c0-.2-.1-.2-.2-.2s-.1,0-.2,0-.2-.1-.1-.2l.1-.1c0-.1.1-.2,0-.2-.1-.1-.1.1-.2.1s-.2.1-.3-.1c-.1-.1-.2-.2-.4-.2-.1,0-.2,0-.3-.1-.2-.1-.4-.1-.6-.1-.3.1-.3.1-.4-.2c0-.1-.1-.2-.2-.1-.1,0-.1.2-.1.3s.1.1,0,.2c-.1,0-.2,0-.3,0-.1-.1-.1-.1,0-.2.1-.2-.1-.2-.2-.2-.3,0-.6-.2-.9-.1h.2c0-.3-.3-.3-.4-.3-.1-.1-.1-.2-.1-.3l.4.1c0,.1-.1.1,0,.2.1,0,.1.1.2,0c.1,0,0-.1,0-.1.4.1.8.2,1.1.3.2,0,.2,0,.2-.1c0-.8,0-1.5,0-2.3c0-.1,0-.3,0-.4v-.3c0,0,0-.1,0-.2c0-.2.1-.4.2-.5s.2-.3.3-.4l.1-.1c.3-.4.6-.8.9-1.1v0c.2.2.4.5.6.7.1.1.1,0,.1-.1.1-.3.1-.6.2-.9c0-.3.1-.5.2-.8.1.4.2.9.3,1.2.2.8.3,1.5.5,2.3.1.3.1.5.1.8c0,.1,0,.2.2.2.4-.1.9-.2,1.3-.3l-1.9,2.2c.3.1.6.1.9.1.1,0,.2.1.1.2-.4.2-.8.7-1.1,1.2Zm-.9-3c0,.1.2.1.3.1s.1-.1.1-.1c0-.3-.1-.7-.3-.9c0-.1-.1-.1-.2,0-.1,0-.1.1-.1.2.1.2.1.5.2.7v0Zm.2,1.6c.3-.2.4-.5.2-.8c0-.1-.1-.1-.1-.1-.1,0-.1.1-.1.1c0,.2-.1.3-.3.5-.1.1-.2.2-.1.3.2,0,.3.1.4,0v0Zm-.2-3.6c0,.1.1.1.1.2c0,0,.1.1.2.1s0-.1,0-.2s0-.3,0-.4s0-.3-.1-.4-.2-.1-.3-.1-.1.1-.1.2v0c.1.3.1.5.2.6v0Zm-1.3,2.9c0,.1.1.1,0,0c.1.1.2.1.2,0c0-.2.1-.3.1-.5c0-.1,0-.2-.1-.2s-.2.1-.2.2v0c-.1.2,0,.4,0,.5Z" fill="#f4fafc"/><path d="M395.5,370.3c-.1-.3-.2-.5-.3-.8c0-.1,0-.1.1-.2.1,0,.2,0,.2,0c.2.2.3.6.3.9c0,.1,0,.1-.1.1c0,0-.1.1-.2,0Z" fill="#e2eaef"/><path d="M395.5,368.3c-.1-.2-.1-.4-.2-.5c0-.1,0-.2.1-.2v0c.1,0,.2,0,.3.1s.1.3.1.4s0,.3,0,.4s0,.1,0,.2c-.1,0-.1,0-.2-.1c0-.2,0-.2-.1-.3Z" fill="#e2eaef"/><path d="M394.2,371.2c0-.1,0-.3,0-.4s.1-.2.2-.2v0c.1,0,.1.1.1.2c0,.2-.1.3-.1.5c0,.1-.1.1-.1.1-.1-.1-.1-.1-.1-.2Z" fill="#e2eaef"/><g opacity="0.3"><path d="M378.8,361c.1.1.3.1.4,0c.1,0,.1-.1.1-.1c0-.2,0-.3-.3-.3l-.8-.1c-.1-.1-.2,0-.3,0s-.1,0-.2.1c0,.1,0,.1.1.2.4.2.7.3,1,.2v0Z" fill="#0d4160"/><path d="M363.6,366.5c-.1.1-.3.2-.4.3-.1,0-.2.2-.3.3s-.1.1,0,.2.1,0,.2,0c.2-.1.4-.2.7-.3.1,0,.2-.2.1-.3v0c-.1-.2-.2-.2-.3-.2Z" fill="#0d4160"/><path d="M385.7,363.2c-.2-.2-.4-.3-.7-.4-.1,0-.2,0-.2,0-.1.1,0,.1.1.2c0,.1.1.1.2.2.3.2.6.4.9.6.1.1.3.1.3,0c.1-.1.1-.2-.1-.3v0c-.1-.2-.3-.3-.5-.3v0Z" fill="#0d4160"/><path d="M381.7,361.3c-.1,0-.2,0-.2.1s0,.2.1.2c.3.1.7.1.9.2.1,0,.2,0,.2-.1s0-.1,0-.2c-.1-.1-.2-.1-.3-.1-.2-.1-.5-.1-.7-.1Z" fill="#0d4160"/><path d="M384,360.9c-.2-.1-.4-.2-.6-.2c0,0-.1-.1-.2-.1s-.2-.1-.3.1c0,.1,0,.2.1.3.2.1.4.3.6.3s.3.1.4,0c.2-.1.1-.2,0-.4v0Z" fill="#0d4160"/><path d="M372.9,360.8c-.1,0-.2,0-.2,0-.1,0-.1.1-.1.1c0,.1,0,.1.1.1.4.2.8.2,1.2.2.1,0,.2,0,.2-.1s.1-.3-.1-.3c-.4,0-.8,0-1.1,0Z" fill="#0d4160"/><path d="M373.6,369.2c-.2.1-.3.4-.5.5-.1,0-.1.1-.1.2v0c.1.1.1,0,.2,0c.5-.4.9-.8,1.4-1.1.1,0,.1-.1.1-.2s0-.2-.2-.2c-.1,0-.3,0-.3.2-.1.1-.3.3-.6.6Z" fill="#0d4160"/><path d="M363.4,373.8c-.2.2-.5.5-.8.6-.1.1-.2.2-.4.3-.1,0-.1.1,0,.2v0c0,0,.1.1.2.1.2-.1.4-.1.5-.2.3-.2.6-.5.9-.8.1-.1,0-.2,0-.3s-.1-.1-.2-.1c-.1.1-.2.1-.2.2Z" fill="#0d4160"/><path d="M380,359.8c-.1,0-.2-.1-.3.1c0,.1,0,.3.1.3.3.2.6.3.9.4.1,0,.2,0,.3-.1-.1-.1.1-.3-.2-.3-.3-.2-.6-.3-.8-.4Z" fill="#0d4160"/><path d="M360.8,373c0,0,.1,0,0,0c.2-.2.2-.3.2-.4v0c-.1-.1-.2-.1-.2,0-.1,0-.2,0-.2.1-.3.2-.6.5-.8.9-.1.1-.2.2,0,.3.1.1.2,0,.3-.1.2-.3.3-.7.7-.8Z" fill="#0d4160"/><path d="M365.5,367.9c.1,0,.1-.1.2-.1.3-.1.5-.2.8-.4.1-.1.1-.2,0-.4-.1-.1-.2-.1-.3,0-.4.2-.8.4-1,.6h-.2c-.1.1-.2.1-.1.2c0,.1.2.1.2.1v0c.2.1.3,0,.4,0Z" fill="#0d4160"/><path d="M380.9,363.8c.1,0,.1-.1.1-.2s0-.2-.1-.2c-.4-.1-.8-.1-1.1-.1-.1,0-.1.1-.1.1c0,.1,0,.1.1.2s.2.1.3.1c.1.1.5.1.8.1Z" fill="#0d4160"/><path d="M378.3,366.5v0c-.2.1-.4.2-.6.3-.1,0-.1.1-.1.1c0,.1.1.1.1.1v0c.1,0,.2,0,.3,0c.4-.1.7-.3,1-.5.1-.1.2-.1.1-.3c0-.1-.2-.2-.3-.1v0c-.1.2-.3.3-.5.4Z" fill="#0d4160"/><path d="M361.2,366.8v0c.3-.3.5-.5.7-.6.1-.1.2-.2.1-.3v0c-.1-.1-.2-.1-.3,0-.3.2-.5.5-.7.8-.1.1-.1.2,0,.2v0c0,0,.1-.1.2-.1Z" fill="#0d4160"/><path d="M371.1,367.7c.1-.1.3-.1.4-.2.1,0,.1-.2.1-.3v0c-.1-.1-.2-.1-.3,0-.4.2-.8.4-1.1.6-.1,0-.1.1-.1.1c0,.1.1.1.1.1.2,0,.6-.1.9-.3Z" fill="#0d4160"/><path d="M391.8,373c0,.1.1.1.3.1.1,0,.1-.1.1-.2c0-.2,0-.3-.1-.5s-.3-.4-.4-.7c0-.1-.1-.1-.2-.1s-.1.1-.1.2c.2.5.3.8.4,1.2Z" fill="#0d4160"/><path d="M370.1,362.6c.1,0,.2-.1.1-.2c0-.1-.1-.2-.2-.2-.3.1-.6.1-.9.1-.1,0-.1,0-.2.1c0,.1,0,.2.1.2.3.1.7.1,1.1,0Z" fill="#0d4160"/><path d="M395.3,373.8c.1-.1.2-.1.3-.2l.1-.1c0-.1-.1-.1-.1,0-.3,0-.7.1-.9.1s-.2.2-.2.3.1.1.2.1c.1-.1.4-.1.6-.2Z" fill="#0d4160"/><path d="M369.7,361.2c-.1.1-.3.1-.2.3c0,.1.2.1.3.1.3,0,.6-.1.8-.1.1,0,.2,0,.1-.1c0-.1,0-.2-.1-.2-.3-.2-.6-.2-.9,0Z" fill="#0d4160"/><path d="M360.9,369.2c-.2,0-.4.3-.5.5c0,.1-.1.1,0,.2s.1.1.2,0v0c.2-.2.5-.4.8-.6.1-.1.1-.2.1-.3s-.1-.1-.2,0c-.2.1-.3.2-.4.2Z" fill="#0d4160"/><path d="M370.8,365.4c-.2.1-.3.2-.5.3-.1,0-.1.1-.1.2s.1,0,.2,0c.4-.1.7-.2.9-.4.1,0,.2-.1.1-.2c0-.1-.1-.2-.2-.1v0c-.1,0-.2.1-.4.2Z" fill="#0d4160"/><path d="M367,365.6c.2-.1.3-.2.5-.2.1-.1.1-.2.1-.3v0c-.1-.1-.2-.1-.3,0-.3.1-.6.4-.9.6c0,0-.1,0-.1.1s.1.1.1,0c.2-.1.4-.2.6-.2Z" fill="#0d4160"/><path d="M370.7,364c-.2.1-.4.2-.5.3-.1,0-.1.1-.1.1s0,.1.1.1c.4,0,.7-.1.9-.3.1-.1.1-.2,0-.3s-.2-.1-.3,0c0,0,0,.1-.1.1Z" fill="#0d4160"/><path d="M358.5,370.2c.1,0,.1-.1,0,0c.2-.3.3-.4.5-.6.1-.1.2-.3,0-.4-.1-.1-.3,0-.4.1-.2.2-.3.5-.4.7c0,.1-.1.1,0,.2.2.1.3,0,.3,0Z" fill="#0d4160"/><path d="M394.8,373.3c.1-.1.3-.1.4-.2s.1-.2,0-.2c-.1-.1-.1-.1-.2,0s-.2.1-.3.1-.3.1-.4.2c-.1,0-.2.1-.2.3c0,.1.2.1.3.1.2-.2.3-.2.4-.3Z" fill="#0d4160"/><path d="M359.4,366.8c-.2.1-.4.3-.6.5c0,.1-.1.1,0,.2c0,0,.1.1.2,0c.1,0,.1-.1.2-.1.2-.1.4-.3.6-.4.1,0,.2-.1.1-.2c0-.1-.2-.2-.3-.1-.1,0-.1.1-.2.1Z" fill="#0d4160"/><path d="M366.4,362.9c-.1.1-.3.1-.2.2c0,.1.2.1.3.1.3,0,.5-.1.8-.2.1,0,.2-.1.2-.2v0c0-.1-.2-.1-.3-.1-.3,0-.5.1-.8.2Z" fill="#0d4160"/><path d="M393.5,374.3v0c.2-.4.3-.8.2-1.1c0-.1-.1-.1-.1-.1-.1,0-.1,0-.1.1c0,.3-.1.5-.2.8c0,.1,0,.1,0,.2-.1.1,0,.1.2.1v0Z" fill="#0d4160"/><path d="M375.4,361.8c0,0,0,.1,0,0c.3.2.6.1.9,0c.1-.1.1-.2.1-.3s-.1-.1-.3-.1c-.2.1-.4.1-.6.2-.2,0-.2.1-.1.2Z" fill="#0d4160"/><path d="M364.8,364.1c-.2.1-.4.3-.5.3s-.1.1-.1.2.1.1.1.1c.3,0,.6-.1.9-.3.1-.1,0-.1,0-.2s-.1-.1-.2-.1v0c0-.1-.1-.1-.2,0Z" fill="#0d4160"/><path d="M385.6,362c0,0,0,.1,0,0c.4.3.6.7.9.9.1.1.2.2.4.1v0c.1,0,0-.2,0-.3-.2-.5-.6-.7-.9-.9-.1,0-.2,0-.2,0-.3.1-.3.1-.2.2Z" fill="#0d4160"/><path d="M374.6,362.9c.1,0,.2-.1.1-.2c0-.1-.1-.1-.2-.1v0c-.2,0-.4,0-.5,0s-.2,0-.3.1c-.1,0-.1.1-.1.1c0,.1.1.1.2.1.3.1.6,0,.8,0c0,.1,0,0,0,0Z" fill="#0d4160"/><path d="M362.8,369c.1,0,.2-.2.3-.3s.1-.2.1-.3c-.1-.1-.2-.1-.3-.1v0c-.2.1-.3.2-.4.4c0,.1-.1.1-.1.2.1.1.2.1.4.1-.1,0-.1,0,0,0Z" fill="#0d4160"/><path d="M390,365.4c.1,0,.1.1,0,0c.2.2.3.3.5.2.1-.1.1-.3,0-.4-.1-.3-.3-.5-.5-.8-.1-.1-.2-.1-.3-.1s-.1.1-.1.2c.2.4.3.6.4.9Z" fill="#0d4160"/><path d="M358.7,371.9c.1,0,.1-.1.2-.2s.1-.2.2-.3.1-.2,0-.3-.2-.1-.3,0c-.2.1-.3.3-.4.6c0,.1-.1.1,0,.2.2,0,.2,0,.3,0Z" fill="#0d4160"/><path d="M388.1,365.9c.2.2.4.5.8.5.1,0,.2,0,.3-.1c0-.1.1-.3-.1-.4-.3-.1-.5-.2-.8-.4-.1,0-.1,0-.2,0-.1.2-.1.3,0,.4Z" fill="#0d4160"/><path d="M360.9,367.7c-.1.1-.2.2-.3.3c0,.1-.1.1,0,.2s.2.1.3,0v0c.1-.1.1-.2.2-.2.1-.1.1-.2,0-.3c0-.1-.1-.1-.2,0Z" fill="#0d4160"/><path d="M362.3,364.6c-.2.1-.3.2-.4.4c0,.1-.1.1,0,.2s.1,0,.2,0c.1-.1.3-.2.4-.3s.1-.2.1-.3c-.2,0-.3,0-.3,0Z" fill="#0d4160"/><path d="M390.9,366.6c.2.1.3.2.5.3c0,0,.1.1.1,0c0,0,.1-.1,0-.1-.1-.2-.2-.3-.4-.5-.1-.1-.2,0-.2,0c0,.1,0,.2,0,.3Z" fill="#0d4160"/><path d="M390,372.3c-.1,0-.1.1,0,0-.2.1-.1,0,0,0-.1-.1-.1-.2-.1-.2-.1,0-.1,0-.1-.1c0-.2-.1-.1-.2-.1h-.1c0,.1,0,.1.1.2l.1.1c0,.1.1.2.3.3c0,0,0-.1,0-.2Z" fill="#0d4160"/><path d="M369.6,369.9c.1-.1.2-.1.2-.2s-.1-.1-.2-.1-.1,0-.2.1-.4.1-.3.3c.2.1.4-.1.5-.1Z" fill="#0d4160"/><path d="M389.5,371.7c0-.1.1-.1,0,0c.1-.1.2-.1.2-.2s-.1-.2-.2-.2s0,.1,0,.1s0,0-.1,0-.1.1-.1.2v.1c.1.1.1,0,.2,0v0Z" fill="#0d4160"/><path d="M388.4,372.3c-.1,0-.1-.1-.2-.1c0,.1,0,.2,0,.2.1.1.1,0,.2-.1c0,0,0-.2.1-.2c0,0,.1-.1,0-.1v0c0,0-.1,0-.1.1s0,.1,0,.2Z" fill="#0d4160"/><path d="M388.9,371.9c-.3,0-.2.2-.2.3s.1.1.1.2c0-.1.1-.2.1-.3c0-.2-.2-.2,0-.2Z" fill="#0d4160"/><path d="M390.4,373c0-.1-.2-.1-.2-.2s-.1-.2-.2-.2c0,0-.1-.1-.1,0s0,.1.1.1c.2,0,.2.1.1.2c0,0,0,.2.1.1.1,0,.2,0,.2,0Z" fill="#0d4160"/><path d="M388.9,371.6c0-.1.2-.1.1-.2c0-.1-.1-.1-.1-.1v0c0,.1,0,.2,0,.3-.1.1,0,0,0,0Z" fill="#0d4160"/><path d="M390.8,373c-.1-.1-.3-.2-.2-.3v-.1c-.1,0-.1.1-.1.1c0,.2.2.3.3.3Z" fill="#0d4160"/><path d="M389.5,373.7c.1-.1.1-.2.1-.3s-.1-.1-.2-.1c.1.1,0,.3.1.4Z" fill="#0d4160"/><path d="M389.9,372.9c0-.1-.1-.1,0,0-.2-.1-.1,0,0,0-.1.1,0,.1,0,0c.1.1,0,.1,0,0Z" fill="#0d4160"/><path d="M391.1,371.4c0,.1.1.1,0,0c.1.1.2,0,0,0v0v0c0-.1,0-.1,0,0Z" fill="#0d4160"/><path d="M388.9,371.3c0,0,0-.1,0,0c0-.1-.1-.2-.2-.1c0,0-.1,0-.1.1.2,0,.3,0,.3,0Z" fill="#0d4160"/><path d="M390.6,371.3c0,0,.1.1,0,0v0c.1-.2,0-.2,0-.2c0,.1,0,.1,0,.2c0-.1,0,0,0,0Z" fill="#0d4160"/></g></g></g><clipPath id="eN6ugX4qwnJ268"><use width="52.139893" height="48.039886" xlink:href="#eN6ugX4qwnJ6"/></clipPath></g></g></g></g></g></g></g></g></g><line x1="393.4" y1="387.6" x2="407.1" y2="413.9" fill="none" stroke="#000" stroke-width="0.4804" stroke-miterlimit="10"/><line x1="390.8" y1="388.9" x2="404.5" y2="415.2" fill="none" stroke="#000" stroke-width="0.4804" stroke-miterlimit="10"/><line x1="388.3" y1="390.2" x2="401.9" y2="416.6" fill="none" stroke="#000" stroke-width="0.4804" stroke-miterlimit="10"/><line x1="385.7" y1="391.6" x2="399.4" y2="417.9" fill="none" stroke="#000" stroke-width="0.4804" stroke-miterlimit="10"/><line x1="383.2" y1="392.9" x2="396.8" y2="419.2" fill="none" stroke="#000" stroke-width="0.4804" stroke-miterlimit="10"/><g><path d="M373.6,398.5c.5,0,1-.1,1.7-.1.6-.7,1.1-1.3,1.4-1.7c0-.1-.1-.1-.1-.2.2-.2.4-.4.6-.5.2,0,.4.1.2.3-.2.3-.9,1.3-1.4,2c1.4-.1,2.8-.2,2.9.1.1.1.1.4,0,.5-.9-.3-5.6.4-6.2.4-.1-.1-.1-.6,0-.7.3-.1.5-.2.8-.3.1,0,0,.2.1.2Z" fill="#fff"/><path d="M378.1,399.3c.1.2.1.6-.5.9-.8.4-1.6.6-1.8.1-.1-.2,0-.4.1-.5-.3.1-.6.2-.9.3-.3.2-.5.4-.3.7.3.5,1.1.5,1.6.2c0,0,.1,0,.1.1.1.1,0,.2-.2.3-.5.3-1.6.4-1.9-.3-.3-.5,0-1.1.7-1.5c1-.5,2.8-.8,3.1-.3Zm-2.1.7c.1.2.9,0,1.4-.3.3-.1.3-.2.3-.2s-.1,0-.2,0c-.5,0-.9.1-1.4.3c0,0-.1.1-.1.2v0Z" fill="#fff"/><path d="M377.9,400.2c.2.2.4.4.5.6.3-.1.6-.1.9-.1.1.1.1.5,0,.5l-.5.1c.1.1.1.2.2.3s.2.2.1.3s0,.1,0,.2-.1.2-.1.2h-.1v0c-.2-.3-.4-.6-.6-.9-.9.2-1.6.4-2.4.8-.2.1-.2.2-.2.3.3.4.8.6,1.2.5c0,0,.2.2-.2.4-.5.2-1-.1-1.3-.5-.2-.4,0-.9.7-1.3.6-.3,1.2-.5,1.9-.7l-.2-.3c-.2-.1,0-.5.1-.4Z" fill="#fff"/><path d="M379.1,402.3c.1,0,.1,0,0,0c.1.1.3.6.1.7-.9.2-1.7.4-2.6.8-.2.1-.3.3-.2.4.2.4.9.1,1.1,0c.1.1.1.2,0,.3c0,0,0,0-.1.1-.5.3-1.2.2-1.5-.3-.2-.4,0-.7.5-.9c1-.6,1.8-.9,2.7-1.1Zm.9-.3c.2-.1.7-.3.9,0c.1.2.1.3-.1.3c0,.1-.1.3-.2.3-.3.2-.7.1-.8-.2v0c0-.1.1-.2.2-.4v0Z" fill="#fff"/></g><g><path d="M407.5,384.5c-1.1.7-2.5.2-3.1-.9l-.1-.1-.9-1.6l4.2-2.2.9,1.6c.6,1.3.2,2.6-1,3.2.1,0,.1,0,0,0Zm-.5-.8c.7-.3.9-1,.7-1.7c0,0,0-.1-.1-.1l-.4-.7-2.5,1.3.4.7c.3.7,1.1.9,1.8.7.1-.2.1-.2.1-.2v0Z" fill="#fff"/><path d="M410.1,386.5l-.9.5-.2-.4c-.3-.5-.6-.6-1.1-.3l-1.7.9-.5-.9l3.2-1.7.3.6-.3.4c.4.1.8.4.9.8l.3.1Z" fill="#fff"/><path d="M410.3,387.1l.5.9-3.2,1.7-.5-.9l3.2-1.7Zm1.2-.7l.5.9-.9.4-.5-.9.9-.4Z" fill="#fff"/><path d="M412.7,391.7l-3.9.4-.4-.8l2.6-3l.5.9-1.7,1.9l2.6-.4.3,1Z" fill="#fff"/><path d="M412.6,396.2l-1.2-2.5c-.4.3-.5.8-.3,1.1.1.3.4.5.8.5l.5.9c-1,.2-2.1-.5-2.4-1.5s.5-2.1,1.5-2.4s2.1.5,2.4,1.5c.2.9-.2,1.7-.9,2.1-.2.2-.3.3-.4.3Zm-.6-2.8l.9,1.5c.3-.3.4-.8.2-1.1-.3-.3-.7-.5-1.1-.4v0Z" fill="#fff"/><path d="M415.8,397.8l-.9.5-.2-.4c-.3-.5-.6-.6-1.1-.3l-1.7.9-.5-.9l3.2-1.7.3.6-.3.4c.4.1.8.4.9.8l.3.1Z" fill="#fff"/><path d="M399.7,387.2l-.9.5-1.3-2.5l4.2-2.2.5.9-3.3,1.7.8,1.6Z" fill="#fff"/><path d="M402.4,386.4l.5.9-3.2,1.7-.5-.9l3.2-1.7Zm1.2-.6l.5.9-.9.4-.5-.9.9-.4Z" fill="#fff"/><path d="M401.5,388.8c.9-.5,2.1-.2,2.6.8v.1c.5.8.3,1.8-.5,2.4l-.5-.9c.3-.4.3-1-.1-1.3-.3-.3-.8-.3-1-.1-.5.2-.7.8-.5,1.2v0c.2.4.6.6.9.5l.5.9c-.9.3-1.8-.1-2.2-.9-.5-1-.1-2.2.8-2.7v0Z" fill="#fff"/><path d="M405,396l-1.2-2.5c-.4.3-.5.8-.3,1.1.1.3.4.5.8.5l.5.9c-1,.2-2.1-.5-2.4-1.5-.2-1,.5-2.1,1.6-2.4c1-.2,2.1.5,2.4,1.5.2.9-.2,1.7-.9,2.1-.4.2-.5.2-.5.3Zm-.7-2.7l.9,1.5c.3-.3.4-.8.2-1.1-.3-.4-.7-.5-1.1-.4v0Z" fill="#fff"/><path d="M407.4,399.3l-2,1-.5-.9l1.8-.9c.5-.3.7-.6.5-.9s-.7-.6-1.1-.4c0,0-.1,0-.1.1l-1.7.9-.5-.9l3.2-1.7.3.6-.3.4c.5.1.9.4,1,.9.5.6.2,1.3-.6,1.8.2,0,.1,0,0,0Z" fill="#fff"/><path d="M406.8,400.4l.5.9c-.3.2-.3.5-.2.8s.4.4.6.3.1-.5,0-.8c-.2-.6-.4-1.3.4-1.7.6-.3,1.3,0,1.7.8.4.6.3,1.3-.3,1.8l-.1.1-.5-.9c.3-.1.3-.4.1-.7-.1-.3-.4-.4-.6-.3s-.1.4,0,.8c.2.6.4,1.3-.4,1.7-.7.4-1.3,0-1.8-.8-.5-.6-.3-1.4.4-1.9.2,0,.2-.1.2-.1Z" fill="#fff"/><path d="M410.5,406.7l-1.2-2.5c-.4.3-.5.8-.3,1.1.1.3.4.5.8.5l.5.9c-1,.2-2.1-.5-2.4-1.5-.2-1,.5-2.1,1.5-2.4c1-.2,2.1.5,2.4,1.5.2.9-.2,1.7-.9,2.1-.2.2-.3.2-.4.3Zm-.6-2.7l.9,1.5c.3-.3.4-.8.2-1.1-.3-.3-.7-.5-1.1-.4v0Z" fill="#fff"/></g></g><path d="M401.5,467.1l-6.2-54.5c-1.1-4.5-6.2-7.5-11.2-6.6-5,.8-7,2.7-7,9.5l.1,14.4.8,9.1c-.2,3.4.2,6.9,1.3,10.2c1.8,5.4.1-3.8-1.8,1.5l-.6,1.7c-3.8,13.3-.8,27.8,3.2,33.9c2,3,2.9,5.7,6.2,7.7c4.9,3.1,7.4,18.2,10.2,27.7c4,13.4,6.7,37.1,6.7,37.1l14.2,111.5h65L418.1,468.7" fill="#b1b1b1"/></g><clipPath id="eN6ugX4qwnJ295"><use width="641.100037" height="626.600037" xlink:href="#eN6ugX4qwnJ5"/></clipPath></g></g></g></g><g><g><g><g><use width="100.499969" height="5.600006" xlink:href="#eN6ugX4qwnJ7" fill="#fff"/><g><clipPath><use width="100.499969" height="5.600006" xlink:href="#eN6ugX4qwnJ7"/></clipPath></g></g></g></g><g><g><g><use width="71.999969" height="5.600006" xlink:href="#eN6ugX4qwnJ8" fill="#fff"/><g><clipPath><use width="71.999969" height="5.600006" xlink:href="#eN6ugX4qwnJ8"/></clipPath></g></g></g></g><g><g><g><use width="69.199982" height="2.799995" xlink:href="#eN6ugX4qwnJ9" fill="#004263"/><g><clipPath><use width="69.199982" height="2.799995" xlink:href="#eN6ugX4qwnJ9"/></clipPath></g></g></g></g><g><g><g><use width="54.209534" height="2.799988" xlink:href="#eN6ugX4qwnJ10" fill="#004263"/><g><clipPath><use width="54.209534" height="2.799988" xlink:href="#eN6ugX4qwnJ10"/></clipPath></g></g></g></g><g><g><g><use width="54.209534" height="2.799988" xlink:href="#eN6ugX4qwnJ11" fill="#fff"/><g><clipPath><use width="54.209534" height="2.799988" xlink:href="#eN6ugX4qwnJ11"/></clipPath></g></g></g></g></g></svg>
