<svg id="eM41JhwFsTX1" xmlns="http://www.w3.org/2000/svg" xmlns:xlink="http://www.w3.org/1999/xlink" viewBox="0 0 641.1 626.6" shape-rendering="geometricPrecision" text-rendering="geometricPrecision">
<style><![CDATA[
#eM41JhwFsTX315_to {animation: eM41JhwFsTX315_to__to 3000ms linear infinite normal forwards}@keyframes eM41JhwFsTX315_to__to { 0% {transform: translate(432.705235px,813.421662px)} 33.333333% {transform: translate(404.9375px,528.522049px)} 36.666667% {transform: translate(404.9375px,535.522049px)} 54.666667% {transform: translate(404.9375px,535.522049px)} 93.333333% {transform: translate(337.199985px,812.773361px)} 100% {transform: translate(337.199985px,812.773361px)}}
]]></style>
<defs><rect id="eM41JhwFsTX30" width="641.1" height="626.6" rx="0" ry="0"/><circle id="eM41JhwFsTX31" r="2.2"/><path id="eM41JhwFsTX32" d="M381.6,373.8c1.2,0,2.2.9,2.2,2.2c0,1.2-.9,2.2-2.2,2.2-1.2,0-2.2-.9-2.2-2.2c0-1.2,1-2.1,2.2-2.2Z"/><circle id="eM41JhwFsTX33" r="2.2"/><path id="eM41JhwFsTX34" d="M359.8,403.3c.1,0,.1,0,0,0l35.1,7.8-3.3,7.8-32.8-.2c0,0,0,0-.1,0-4.6,0-8.1-3.5-7.8-7.8s3.7-9,8.9-7.6Z"/><path id="eM41JhwFsTX35" d="M362.4,414.9v0l31.1-1.8l2,14.2-31.1,1.7c0,0,0,0-.1,0-4.3.3-8.4-2.7-8.9-6.7s2.7-7.2,7-7.4Z"/><path id="eM41JhwFsTX36" d="M364.7,427v0l28.3,1.2-.1,12.8-28.2-1.2c0,0,0,0-.1,0-4-.2-7.2-3.2-7.2-6.8.1-3.6,3.3-6.2,7.3-6Z"/><path id="eM41JhwFsTX37" d="M393.8,393c1.7-.1,3.4.5,4.6,1.6l13.8,11.7c2,1.8,3.1,4.2,3.1,6.9l.5,51.1c0,3-2.7,5.3-6.1,5.1l-12.2-.6c-3.4-.2-6.1-2.7-6.1-5.7l2.4-42.8-10.7-9L360,411c-9.9.2-15.4-4.2-13.8-10c.9-3.4,2.9-5.8,10.5-5.7l37.1-2.3Z"/><path id="eM41JhwFsTX38" d="M355.8,310.3l1.7,33.2c1.3,25.5,5.1,50.9,11.2,75.7l4.1-5.3l5.3,4.1l4.1-5.3l5.3,4.1l4.1-5.3l5.3,4.1l4.1-5.3l5.3,4.1l4.1-5.3l5.3,4.1l4.1-5.3l5.3,4.1c-6.1-24.8-9.9-50.1-11.2-75.7l-1.7-33.2-4.1,5.3-5.3-4.1-4.1,5.3-5.3-4.1-4.1,5.3-5.3-4.1-4.1,5.3-5.3-4.1-4.1,5.3-5.3-4.1-4.1,5.3-5.3-4.1Z"/><path id="eM41JhwFsTX39" d="M399.2,449.5l-6.1-54.2c-1.1-4.4-6.1-7.4-11.1-6.6s-7,2.6-7,9.4l.1,14.3.8,9c-.2,3.4.2,6.9,1.3,10.2c1.8,5.4.1-3.8-1.8,1.5l-.6,1.7c-3.8,13.2-.8,27.7,3.2,33.7c2,3,2.9,5.7,6.1,7.6c4.9,3.1,7.3,18.1,10.2,27.5c4,13.3,6.7,36.9,6.7,36.9l15.6,122.7h66.9L415.8,450.8"/><polygon id="eM41JhwFsTX40" points="342.2,263.8 339,260.5 335.6,263.8 332.3,260.5 329.1,263.8 325.7,260.5 322.5,263.8 319.2,260.5 315.9,263.8 312.6,260.5 309.4,263.8 306,260.5 302.8,263.8 302.8,188.2 306,191.5 309.4,188.2 312.6,191.5 315.9,188.2 319.2,191.5 322.5,188.2 325.7,191.5 329.1,188.2 332.3,191.5 335.6,188.2 339,191.5 342.2,188.2"/><rect id="eM41JhwFsTX41" width="27.2" height="27.6" rx="0" ry="0"/><rect id="eM41JhwFsTX42" width="9.1" height="9.2" rx="0" ry="0"/><rect id="eM41JhwFsTX43" width="4.6" height="4.7" rx="0" ry="0"/><rect id="eM41JhwFsTX44" width="4.6" height="4.7" rx="0" ry="0"/><rect id="eM41JhwFsTX45" width="4.6" height="4.7" rx="0" ry="0"/><rect id="eM41JhwFsTX46" width="4.6" height="9.2" rx="0" ry="0"/><rect id="eM41JhwFsTX47" width="4.6" height="4.7" rx="0" ry="0"/><polygon id="eM41JhwFsTX48" points="327,219.6 327,224.2 331.6,224.2 331.6,228.8 336,228.8 336,219.6"/><rect id="eM41JhwFsTX49" width="4.6" height="4.7" rx="0" ry="0"/><rect id="eM41JhwFsTX50" width="4.6" height="4.7" rx="0" ry="0"/><rect id="eM41JhwFsTX51" width="4.6" height="4.7" rx="0" ry="0"/><rect id="eM41JhwFsTX52" width="4.6" height="4.7" rx="0" ry="0"/><rect id="eM41JhwFsTX53" width="4.6" height="4.7" rx="0" ry="0"/><path id="eM41JhwFsTX54" d="M333.6,234.7h-24.6c-.2,0-.3-.1-.3-.3s.1-.3.3-.3h24.6c.2,0,.3.1.3.3.1,0,0,.3-.3.3Z"/><path id="eM41JhwFsTX55" d="M333.6,236.5h-24.6c-.2,0-.3-.1-.3-.3s.1-.3.3-.3h24.6c.2,0,.3.1.3.3.1.2,0,.3-.3.3Z"/><path id="eM41JhwFsTX56" d="M333.6,238.7h-24.6c-.2,0-.3-.1-.3-.3s.1-.3.3-.3h24.6c.2,0,.3.1.3.3.1.2,0,.3-.3.3Z"/><path id="eM41JhwFsTX57" d="M320.1,243.5h-11.1c-.2,0-.3-.1-.3-.3s.1-.3.3-.3h11.1c.2,0,.3.1.3.3s-.2.3-.3.3Z"/><path id="eM41JhwFsTX58" d="M333.9,243.5h-11.1c-.2,0-.3-.1-.3-.3s.1-.3.3-.3h11.1c.2,0,.3.1.3.3s-.1.3-.3.3Z"/></defs><g transform="translate(-.36362 0.150019)"><g><g><g><g><path d="M461.9,12.2h-2.2c-.2,0-.3.1-.3.3v4.8-.1l-.1-.1-.1-.1h-.1v-3.1-.6-.4-.4h-278.2v.4.4.6v3.1l-.2.1-.1.1c0,0,0,0,0,.1v-4.8c0-.2-.1-.3-.3-.3h-2.3c-.2,0-.3.1-.3.3v7.6v351.3v28.7v84.2v3.7c0,.2.1.3.3.3h2.1v.8h-2.1c-.2,0-.3.1-.3.3v3.7v109.7v23.5c0,.2.1.3.3.3h2.2.2h279h.2h2.2c.2,0,.3-.1.3-.3v-23.5-109.7-3.7c0-.2-.1-.3-.3-.3h-2.1v-.8h2.1c.2,0,.3-.1.3-.3v-3.7-84.2-28.7-351.3-7.6c.1-.2-.1-.3-.2-.3Z" fill="#2a353f" stroke="#000" stroke-width="0.1385" stroke-linecap="round" stroke-linejoin="round" stroke-miterlimit="1"/><rect width="277.6" height="161" rx="0" ry="0" transform="translate(181.1 318)" fill="#212c37" stroke="#000" stroke-width="0.1385" stroke-linecap="round" stroke-linejoin="round" stroke-miterlimit="1"/><path d="M364,595.7h-88.1c-3.9,0-7-3.2-7-7v-58.7c0-3.9,3.2-7,7-7h88.1c3.9,0,7,3.2,7,7v58.7c0,3.9-3.1,7-7,7Z" fill="#252f38" stroke="#000" stroke-width="0.1385" stroke-miterlimit="1"/><path d="M411,355.6h-60.2c-2.2,0-4,1.8-4,4v85.4c0,2.2,1.8,4,4,4h60.2c2.2,0,4-1.8,4-4v-85.4c0-2.2-1.8-4-4-4Z" fill="#e4e5e6" stroke="#000" stroke-width="0.1385" stroke-linecap="round" stroke-linejoin="round" stroke-miterlimit="1"/></g><path d="M383.2,404.6c0,1.3-1.1,2.4-2.4,2.4s-2.4-1.1-2.4-2.4s1.1-2.4,2.4-2.4s2.4,1,2.4,2.4Z" stroke="#000" stroke-width="0.1385" stroke-linecap="round" stroke-linejoin="round" stroke-miterlimit="1"/><circle r="4.8" transform="translate(320.7 29.6)" stroke="#000" stroke-width="0.1385" stroke-linecap="round" stroke-linejoin="round" stroke-miterlimit="1"/><g><rect width="246.5" height="159.3" rx="0" ry="0" transform="translate(197 95.7)" fill="none"/><rect width="18.2" height="41.7" rx="0" ry="0" transform="translate(366.5 63.2)" fill="#ff5a5f"/><rect width="9.1" height="107.6" rx="0" ry="0" transform="translate(375.6 175.9)" fill="#00e9cd"/><g><rect width="155.8" height="241.4" rx="0" ry="0" transform="translate(242.3 55.3)" fill="#fe7f78" stroke="#000" stroke-width="0.132" stroke-linecap="round" stroke-linejoin="round"/><g><g><g><g><g><g><path d="M366.2,95.3h-94.9c-1.5,0-2.8-1.3-2.8-2.8s1.3-2.8,2.8-2.8h94.9c1.5,0,2.8,1.3,2.8,2.8s-1.1,2.8-2.8,2.8Z" fill="#fff"/></g></g></g></g><g><g><g><g><path d="M337.7,109.6h-66.4c-1.5,0-2.8-1.3-2.8-2.8s1.3-2.8,2.8-2.8h66.4c1.5,0,2.8,1.3,2.8,2.8s-1.3,2.8-2.8,2.8Z" fill="#fff"/></g></g></g></g><g><g><g><g><path d="M337.7,130.5h-66.4c-.8,0-1.4-.6-1.4-1.4s.6-1.4,1.4-1.4h66.4c.8,0,1.4.6,1.4,1.4s-.7,1.4-1.4,1.4Z" fill="#004263"/></g></g></g></g><g><g><g><g><path d="M322.6,141.3h-51.4c-.8,0-1.4-.6-1.4-1.4s.6-1.4,1.4-1.4h51.4c.8,0,1.4.6,1.4,1.4.1.8-.6,1.4-1.4,1.4Z" fill="#004263"/></g></g></g></g><g><g><g><g><path d="M322.6,160.4h-51.4c-.8,0-1.4-.6-1.4-1.4s.6-1.4,1.4-1.4h51.4c.8,0,1.4.6,1.4,1.4.1.8-.6,1.4-1.4,1.4Z" fill="#fff"/></g></g></g></g></g><g><g><g><g><g><g><g clip-path="url(#eM41JhwFsTX111)"><rect width="41.6" height="77.8" rx="0" ry="0" transform="translate(301.7 187.1)" fill="#f0f0f0"/><clipPath id="eM41JhwFsTX111"><use width="39.400024" height="75.599991" xlink:href="#eM41JhwFsTX40"/></clipPath></g></g></g></g></g></g><g><g><g><g><g><g clip-path="url(#eM41JhwFsTX120)"><rect width="29.4" height="29.8" rx="0" ry="0" transform="translate(307.9 200.1)" fill="#fff"/><clipPath id="eM41JhwFsTX120"><use width="27.199999" height="27.6" xlink:href="#eM41JhwFsTX41" transform="translate(308.9 201.2)"/></clipPath></g></g></g></g></g></g><g><g><g><g><g><g clip-path="url(#eM41JhwFsTX129)"><rect width="11.3" height="11.4" rx="0" ry="0" transform="translate(307.9 200.1)" fill="#004263"/><clipPath id="eM41JhwFsTX129"><use width="9.099999" height="9.2" xlink:href="#eM41JhwFsTX42" transform="translate(308.9 201.2)"/></clipPath></g></g></g></g></g></g><g><g><g><g><g><g clip-path="url(#eM41JhwFsTX138)"><rect width="6.7" height="6.8" rx="0" ry="0" transform="translate(316.8 200.1)" fill="#004263"/><clipPath id="eM41JhwFsTX138"><use width="4.6" height="4.7" xlink:href="#eM41JhwFsTX43" transform="translate(317.9 201.2)"/></clipPath></g></g></g></g></g></g><g><g><g><g><g><g clip-path="url(#eM41JhwFsTX147)"><rect width="6.7" height="6.8" rx="0" ry="0" transform="translate(321.4 204.7)" fill="#004263"/><clipPath id="eM41JhwFsTX147"><use width="4.6" height="4.7" xlink:href="#eM41JhwFsTX44" transform="translate(322.5 205.8)"/></clipPath></g></g></g></g></g></g><g><g><g><g><g><g clip-path="url(#eM41JhwFsTX156)"><rect width="6.7" height="6.8" rx="0" ry="0" transform="translate(326 200.1)" fill="#004263"/><clipPath id="eM41JhwFsTX156"><use width="4.6" height="4.7" xlink:href="#eM41JhwFsTX45" transform="translate(327 201.2)"/></clipPath></g></g></g></g></g></g><g><g><g><g><g><g clip-path="url(#eM41JhwFsTX165)"><rect width="6.7" height="11.4" rx="0" ry="0" transform="translate(330.5 204.7)" fill="#004263"/><clipPath id="eM41JhwFsTX165"><use width="4.6" height="9.2" xlink:href="#eM41JhwFsTX46" transform="translate(331.6 205.8)"/></clipPath></g></g></g></g></g></g><g><g><g><g><g><g clip-path="url(#eM41JhwFsTX174)"><rect width="6.7" height="6.8" rx="0" ry="0" transform="translate(321.4 214)" fill="#004263"/><clipPath id="eM41JhwFsTX174"><use width="4.6" height="4.7" xlink:href="#eM41JhwFsTX47" transform="translate(322.5 215)"/></clipPath></g></g></g></g></g></g><g><g><g><g><g><g clip-path="url(#eM41JhwFsTX183)"><rect width="11.2" height="11.4" rx="0" ry="0" transform="translate(326 218.5)" fill="#004263"/><clipPath id="eM41JhwFsTX183"><use width="9" height="9.199997" xlink:href="#eM41JhwFsTX48"/></clipPath></g></g></g></g></g></g><g><g><g><g><g><g clip-path="url(#eM41JhwFsTX192)"><rect width="6.7" height="6.8" rx="0" ry="0" transform="translate(316.8 218.5)" fill="#004263"/><clipPath id="eM41JhwFsTX192"><use width="4.6" height="4.7" xlink:href="#eM41JhwFsTX49" transform="translate(317.9 219.6)"/></clipPath></g></g></g></g></g></g><g><g><g><g><g><g clip-path="url(#eM41JhwFsTX201)"><rect width="6.7" height="6.8" rx="0" ry="0" transform="translate(312.3 209.3)" fill="#004263"/><clipPath id="eM41JhwFsTX201"><use width="4.6" height="4.7" xlink:href="#eM41JhwFsTX50" transform="translate(313.4 210.4)"/></clipPath></g></g></g></g></g></g><g><g><g><g><g><g clip-path="url(#eM41JhwFsTX210)"><rect width="6.7" height="6.8" rx="0" ry="0" transform="translate(307.9 218.5)" fill="#004263"/><clipPath id="eM41JhwFsTX210"><use width="4.6" height="4.7" xlink:href="#eM41JhwFsTX51" transform="translate(308.9 219.6)"/></clipPath></g></g></g></g></g></g><g><g><g><g><g><g clip-path="url(#eM41JhwFsTX219)"><rect width="6.7" height="6.8" rx="0" ry="0" transform="translate(312.3 223.2)" fill="#004263"/><clipPath id="eM41JhwFsTX219"><use width="4.6" height="4.7" xlink:href="#eM41JhwFsTX52" transform="translate(313.4 224.2)"/></clipPath></g></g></g></g></g></g><g><g><g><g><g><g clip-path="url(#eM41JhwFsTX228)"><rect width="6.7" height="6.8" rx="0" ry="0" transform="translate(307.9 223.2)" fill="#004263"/><clipPath id="eM41JhwFsTX228"><use width="4.6" height="4.7" xlink:href="#eM41JhwFsTX53" transform="translate(308.9 224.2)"/></clipPath></g></g></g></g></g></g><g><g><g><g><g><g clip-path="url(#eM41JhwFsTX237)"><rect width="27.4" height="2.8" rx="0" ry="0" transform="translate(307.6 232.9)" fill="#004263"/><clipPath id="eM41JhwFsTX237"><use width="25.237488" height="0.600006" xlink:href="#eM41JhwFsTX54"/></clipPath></g></g></g></g></g></g><g><g><g><g><g><g clip-path="url(#eM41JhwFsTX246)"><rect width="27.4" height="2.8" rx="0" ry="0" transform="translate(307.6 234.8)" fill="#004263"/><clipPath id="eM41JhwFsTX246"><use width="25.237488" height="0.600006" xlink:href="#eM41JhwFsTX55"/></clipPath></g></g></g></g></g></g><g><g><g><g><g><g clip-path="url(#eM41JhwFsTX255)"><rect width="27.4" height="2.8" rx="0" ry="0" transform="translate(307.6 236.9)" fill="#004263"/><clipPath id="eM41JhwFsTX255"><use width="25.237488" height="0.600006" xlink:href="#eM41JhwFsTX56"/></clipPath></g></g></g></g></g></g><g><g><g><g><g><g clip-path="url(#eM41JhwFsTX264)"><rect width="13.9" height="2.8" rx="0" ry="0" transform="translate(307.6 241.8)" fill="#004263"/><clipPath id="eM41JhwFsTX264"><use width="11.699982" height="0.600006" xlink:href="#eM41JhwFsTX57"/></clipPath></g></g></g></g></g></g><g><g><g><g><g><g clip-path="url(#eM41JhwFsTX273)"><rect width="13.9" height="2.8" rx="0" ry="0" transform="translate(321.4 241.8)" fill="#004263"/><clipPath id="eM41JhwFsTX273"><use width="11.699982" height="0.600006" xlink:href="#eM41JhwFsTX58"/></clipPath></g></g></g></g></g></g></g></g></g></g><path d="M404.7,301.1v-253.1c0-2.1-1.7-3.9-3.9-3.9h-161.3c-2.1,0-3.9,1.7-3.9,3.9v253.2c0,2.1,1.7,3.9,3.9,3.9h161.4c2.1-.1,3.8-1.8,3.8-4Zm-156.1-9v-235.1h143.3v235.1h-143.3Z" stroke="#000" stroke-width="0.096891" stroke-linecap="round" stroke-linejoin="round" stroke-miterlimit="1"/><rect width="276.9" height="8.8" rx="0" ry="0" transform="translate(181.1 474.6)" fill="#161b1e"/><polygon points="458.6,477.8 458.6,488.4 180.6,488.4 180.6,477.8 181.1,477.8 181.1,483.2 458.1,483.2 458.1,477.8"/><rect width="278.1" height="10" rx="0" ry="0" transform="translate(180.6 488.4)" fill="#161b1e"/><rect width="4.5" height="614.1" rx="0" ry="0" transform="translate(178 12.2)" fill="#e4e5e6"/><rect width="4.5" height="614.1" rx="0" ry="0" transform="translate(457.2 12.2)" fill="#e4e5e6"/><g><path d="M355.9,588c-.1,1.5-1.3,2.8-2.9,2.7v.1l-.1.1-.1.1-.2.1-.3.1-.4.1-.4.1h-.5-.4-18c-1.8.1-3.5-.2-5.2-.8l-.7-.3-.8-.2-1-.2-1.1-.1-1.2-.1-1.3-.1h-1.1l-1.3.1-1.2.1-1.1.1-1,.2-.8.2-.7.3c-1.7.7-3.5,1-5.2.8h-18-.4-.4l-.4-.1-.4-.1-.3-.1-.2-.1-.1-.1-.1-.1v-.1c-1.5.1-2.9-1.2-2.9-2.7v-16.5c.1-1.5,1.3-32.4,2.9-32.4h64.2c1.5-.1,2.9,30.8,2.9,32.4l.2,16.5v0Z" fill="#252f38" stroke="#000" stroke-width="0.103" stroke-miterlimit="1"/><rect width="64.2" height="34.4" rx="0" ry="0" transform="translate(288.7 539.1)" fill="#333"/><path d="M353,578.9v9.7l-.1.1-.1.1-.2.1-.3.1-.4.1-.4.1h-.4-.4-18c-1.8.1-3.5-.2-5.2-.8l-.7-.3-.8-.2-1-.2-1-.2-1.2-.1-1.3-.1h-1.3l-1.3.1-1.2.1-1.1.1-1,.2-.8.2-.7.3c-1.7.7-3.5,1-5.2.8h-18-.4-.4l-.4-.1-.4-.1-.3-.1-.2-.1-.1-.1-.1-.1v-9.7l64.4.1v0Z" fill="#979797"/><path d="M353,588.7v2.3l-.1.1-.1.1-.2.1-.3.1-.4.1-.4.1h-.4-.4-18c-1.8.1-3.5-.2-5.2-.8l-.7-.3-.8-.2-1-.2-1.1-.1-1.2-.1-1.3-.1h-1.2l-1.3.1-1.2.1-1.1.1-1,.2-.8.2-.7.3c-1.7.7-3.5,1-5.2.8h-18-.4-.4l-.4-.1-.4-.1-.3-.1-.2-.1-.1-.1-.1-.1v-2.3l.1.1.1.1.2.1.3.1.4.1.4.1h.4.4h18c1.8.1,3.5-.2,5.2-.8l.7-.3.8-.2l1-.2l1.1-.1l1.2-.1l1.3-.1h1.3l1.3.1l1.2.1l1.1.1l1,.2.8.2.7.3c1.7.7,3.5,1,5.2.8h18h.4.4l.4-.1.4-.1.3-.1.2-.1.1-.2v0v0Z" fill="#808080"/><path d="M355.9,571.5v16.5c-.1,1.5-1.3,2.8-2.9,2.7v-51.6c1.6-.1,2.9,30.8,2.9,32.4Z" fill="#666"/><path d="M288.7,539.1v51.6c-1.5.1-2.9-1.2-2.9-2.7v-16.5c.1-1.6,1.4-32.5,2.9-32.4Z" fill="#666"/><rect width="64.2" height="5.5" rx="0" ry="0" transform="translate(288.7 573.4)"/></g><path d="M353.7,546.3v.8c0,2-.6,3.7-1.2,3.7h-62.6c-.7,0-1.2-1.7-1.2-3.7v-.8h65Z" fill="#161b1e" stroke="#000" stroke-width="0.2271" stroke-linecap="round" stroke-linejoin="round" stroke-miterlimit="1"/><path d="M353.7,541.8v.8h-65v-.8c0-2,.6-3.7,1.2-3.7h62.6c.6,0,1.2,1.4,1.2,3.7Z" fill="#161b1e" stroke="#000" stroke-width="0.2271" stroke-linecap="round" stroke-linejoin="round" stroke-miterlimit="1"/><rect width="65" height="3.7" rx="0" ry="0" transform="translate(288.7 542.6)" stroke="#000" stroke-width="0.2271" stroke-linecap="round" stroke-linejoin="round" stroke-miterlimit="1"/><path d="M303.8,413.4v.4c0,1-.6,1.8-1.2,1.8h-62.6c-.7,0-1.2-.8-1.2-1.8v-.4h65Z" fill="#161b1e" stroke="#000" stroke-width="0.1606" stroke-linecap="round" stroke-linejoin="round" stroke-miterlimit="1"/><path d="M303.8,411.2v.4h-65v-.4c0-1,.6-1.8,1.2-1.8h62.6c.7-.1,1.2.6,1.2,1.8Z" fill="#161b1e" stroke="#000" stroke-width="0.1606" stroke-linecap="round" stroke-linejoin="round" stroke-miterlimit="1"/><rect width="65" height="1.8" rx="0" ry="0" transform="translate(238.8 411.6)" stroke="#000" stroke-width="0.1606" stroke-linecap="round" stroke-linejoin="round" stroke-miterlimit="1"/><g><g><line x1="224.6" y1="414.7" x2="224.6" y2="433.6" fill="none" stroke="#000" stroke-width="0.6297" stroke-linecap="round" stroke-linejoin="round" stroke-miterlimit="10"/></g><g><path d="M224.6,433.6c0,2.8,2.3,5.1,5.1,5.1" fill="none" stroke="#000" stroke-width="0.6297" stroke-linecap="round" stroke-linejoin="round" stroke-miterlimit="10"/></g><g><line x1="229.8" y1="438.7" x2="312.2" y2="438.7" fill="none" stroke="#000" stroke-width="0.6297" stroke-linecap="round" stroke-linejoin="round" stroke-miterlimit="10"/></g><g><path d="M312.2,438.7c2.8,0,5.1-2.3,5.1-5.1" fill="none" stroke="#000" stroke-width="0.6297" stroke-linecap="round" stroke-linejoin="round" stroke-miterlimit="10"/></g><g><line x1="317.4" y1="433.6" x2="317.4" y2="414.7" fill="none" stroke="#000" stroke-width="0.6297" stroke-linecap="round" stroke-linejoin="round" stroke-miterlimit="10"/></g><g><path d="M317.4,414.7c0-2.8-2.3-5.1-5.1-5.1" fill="none" stroke="#000" stroke-width="0.6297" stroke-linecap="round" stroke-linejoin="round" stroke-miterlimit="10"/></g><g><line x1="312.2" y1="409.6" x2="229.8" y2="409.6" fill="none" stroke="#000" stroke-width="0.6297" stroke-linecap="round" stroke-linejoin="round" stroke-miterlimit="10"/></g><g><path d="M229.8,409.6c-2.8,0-5.1,2.3-5.1,5.1" fill="none" stroke="#000" stroke-width="0.6297" stroke-linecap="round" stroke-linejoin="round" stroke-miterlimit="10"/></g></g></g></g></g><g><path d="M459.5,12.3h-279.2v-5c0-2,1.6-3.6,3.6-3.6h272c2,0,3.6,1.6,3.6,3.6v5Z" fill="#2a353f" stroke="#000" stroke-width="0.1383" stroke-linecap="round" stroke-linejoin="round" stroke-miterlimit="1"/><path d="M459.1,12.6h-278.4v-5c0-2,1.6-3.6,3.6-3.6h271.3c2,0,3.6,1.6,3.6,3.6v5Z" fill="#e4e5e6"/></g></g><g id="eM41JhwFsTX315_to" transform="translate(432.705235,813.421662)"><g transform="translate(-413.399994,-483.449997)"><g><g clip-path="url(#eM41JhwFsTX382)"><g><g><g><g><g clip-path="url(#eM41JhwFsTX324)"><rect width="78.1" height="102.8" rx="0" ry="0" transform="translate(342.4 317.5)" fill="#d4d4d4"/><clipPath id="eM41JhwFsTX324"><use width="4.4" height="4.4" xlink:href="#eM41JhwFsTX31" transform="translate(381.6 376)"/></clipPath></g></g></g></g><g><g><g><g clip-path="url(#eM41JhwFsTX331)"><rect width="6.2" height="6.2" rx="0" ry="0" transform="translate(378.5 372.8)" fill="#241f20"/><clipPath id="eM41JhwFsTX331"><use width="4.400024" height="4.400024" xlink:href="#eM41JhwFsTX32"/></clipPath></g></g></g></g><g><g><g><g clip-path="url(#eM41JhwFsTX338)"><rect width="6.2" height="6.2" rx="0" ry="0" transform="translate(378.5 372.9)"/><clipPath id="eM41JhwFsTX338"><use width="4.4" height="4.4" xlink:href="#eM41JhwFsTX33" transform="translate(381.6 376)"/></clipPath></g></g></g></g><g><g><g><g clip-path="url(#eM41JhwFsTX345)"><rect width="46.2" height="18.8" rx="0" ry="0" transform="translate(349.7 401)" fill="#b1b1b1"/><clipPath id="eM41JhwFsTX345"><use width="44.017914" height="15.851807" xlink:href="#eM41JhwFsTX34"/></clipPath></g></g></g></g><g><g><g><g clip-path="url(#eM41JhwFsTX352)"><rect width="42.4" height="18.1" rx="0" ry="0" transform="translate(354 412.2)" fill="#b1b1b1"/><clipPath id="eM41JhwFsTX352"><use width="40.15152" height="15.920685" xlink:href="#eM41JhwFsTX35"/></clipPath></g></g></g></g><g><g><g><g clip-path="url(#eM41JhwFsTX359)"><rect width="37.4" height="16.1" rx="0" ry="0" transform="translate(356.6 425.9)" fill="#b1b1b1"/><clipPath id="eM41JhwFsTX359"><use width="35.600037" height="14.010803" xlink:href="#eM41JhwFsTX36"/></clipPath></g></g></g></g><g><g><g><g clip-path="url(#eM41JhwFsTX366)"><rect width="73.2" height="78.5" rx="0" ry="0" transform="translate(343.6 392)" fill="#b1b1b1"/><clipPath id="eM41JhwFsTX366"><use width="69.87439" height="76.422943" xlink:href="#eM41JhwFsTX37"/></clipPath></g></g></g></g><g><g><g><g clip-path="url(#eM41JhwFsTX373)"><rect width="71.3" height="117.5" rx="0" ry="0" transform="translate(354.9 302.6)" fill="#fff"/><clipPath id="eM41JhwFsTX373"><use width="69.299988" height="116.099915" xlink:href="#eM41JhwFsTX38"/></clipPath></g></g></g></g><g><g><g><g clip-path="url(#eM41JhwFsTX380)"><rect width="114.3" height="277.4" rx="0" ry="0" transform="translate(370.1 386.9)" fill="#b1b1b1"/><clipPath id="eM41JhwFsTX380"><use width="110.449402" height="274.629303" xlink:href="#eM41JhwFsTX39"/></clipPath></g></g></g></g></g><clipPath id="eM41JhwFsTX382"><use width="641.100037" height="626.600037" xlink:href="#eM41JhwFsTX30"/></clipPath></g></g></g></g></svg>
