<svg id="ed4IrlnD0Vp1" xmlns="http://www.w3.org/2000/svg" xmlns:xlink="http://www.w3.org/1999/xlink" viewBox="140 0 341.1 626.6" shape-rendering="geometricPrecision" text-rendering="geometricPrecision">
<style><![CDATA[
#ed4IrlnD0Vp106_to {animation: ed4IrlnD0Vp106_to__to 3000ms linear infinite normal forwards}@keyframes ed4IrlnD0Vp106_to__to { 0% {transform: translate(566.194321px,834.795914px)} 33.333333% {transform: translate(544.694321px,564.902677px)} 36% {transform: translate(544.694321px,570.902677px)} 50% {transform: translate(544.694321px,570.902677px)} 88.333333% {transform: translate(462.125596px,834.926135px)} 100% {transform: translate(462.125596px,834.926135px)}}
]]></style>
<defs><rect id="ed4IrlnD0Vp2" width="641.1" height="626.3" rx="0" ry="0"/></defs><g><g transform="translate(.000003 0.000037)"><g><g><g><g><path d="M461.9,12.2h-2.2c-.2,0-.3.1-.3.3v4.8-.1l-.1-.1-.1-.1h-.1v-3.1-.6-.4-.4h-278.2v.4.4.6v3.1l-.2.1-.1.1c0,0,0,0,0,.1v-4.8c0-.2-.1-.3-.3-.3h-2.3c-.2,0-.3.1-.3.3v7.6v351.3v28.7v84.2v3.7c0,.2.1.3.3.3h2.1v.8h-2.1c-.2,0-.3.1-.3.3v3.7v109.7v23.5c0,.2.1.3.3.3h2.2.2h279h.2h2.2c.2,0,.3-.1.3-.3v-23.5-109.7-3.7c0-.2-.1-.3-.3-.3h-2.1v-.8h2.1c.2,0,.3-.1.3-.3v-3.7-84.2-28.7-351.3-7.6c.1-.2-.1-.3-.2-.3Z" fill="#2a353f" stroke="#000" stroke-width="0.1385" stroke-linecap="round" stroke-linejoin="round" stroke-miterlimit="1"/><rect width="277.6" height="161" rx="0" ry="0" transform="translate(181.1 318)" fill="#212c37" stroke="#000" stroke-width="0.1385" stroke-linecap="round" stroke-linejoin="round" stroke-miterlimit="1"/><path d="M364,595.7h-88.1c-3.9,0-7-3.2-7-7v-58.7c0-3.9,3.2-7,7-7h88.1c3.9,0,7,3.2,7,7v58.7c0,3.9-3.1,7-7,7Z" fill="#252f38" stroke="#000" stroke-width="0.1385" stroke-miterlimit="1"/><path d="M411,355.6h-60.2c-2.2,0-4,1.8-4,4v85.4c0,2.2,1.8,4,4,4h60.2c2.2,0,4-1.8,4-4v-85.4c0-2.2-1.8-4-4-4Z" fill="#e4e5e6" stroke="#000" stroke-width="0.1385" stroke-linecap="round" stroke-linejoin="round" stroke-miterlimit="1"/></g><path d="M383.2,404.6c0,1.3-1.1,2.4-2.4,2.4s-2.4-1.1-2.4-2.4s1.1-2.4,2.4-2.4s2.4,1,2.4,2.4Z" stroke="#000" stroke-width="0.1385" stroke-linecap="round" stroke-linejoin="round" stroke-miterlimit="1"/><circle r="4.8" transform="translate(320.7 29.6)" stroke="#000" stroke-width="0.1385" stroke-linecap="round" stroke-linejoin="round" stroke-miterlimit="1"/><g><rect width="246.5" height="159.3" rx="0" ry="0" transform="translate(197 95.7)" fill="none"/><rect width="18.2" height="41.7" rx="0" ry="0" transform="translate(366.5 63.2)" fill="#ff5a5f"/><rect width="9.1" height="107.6" rx="0" ry="0" transform="translate(375.6 175.9)" fill="#00e9cd"/><g><rect width="155.8" height="241.4" rx="0" ry="0" transform="translate(242.3 55.3)" fill="#fe7f78" stroke="#000" stroke-width="0.132" stroke-linecap="round" stroke-linejoin="round"/><g><g><g><g><g><g><path d="M366.2,95.3h-94.9c-1.5,0-2.8-1.3-2.8-2.8s1.3-2.8,2.8-2.8h94.9c1.5,0,2.8,1.3,2.8,2.8s-1.1,2.8-2.8,2.8Z" fill="#fff"/></g></g></g></g><g><g><g><g><path d="M337.7,109.6h-66.4c-1.5,0-2.8-1.3-2.8-2.8s1.3-2.8,2.8-2.8h66.4c1.5,0,2.8,1.3,2.8,2.8s-1.3,2.8-2.8,2.8Z" fill="#fff"/></g></g></g></g><g><g><g><g><path d="M337.7,130.5h-66.4c-.8,0-1.4-.6-1.4-1.4s.6-1.4,1.4-1.4h66.4c.8,0,1.4.6,1.4,1.4s-.7,1.4-1.4,1.4Z" fill="#004263"/></g></g></g></g><g><g><g><g><path d="M322.6,141.3h-51.4c-.8,0-1.4-.6-1.4-1.4s.6-1.4,1.4-1.4h51.4c.8,0,1.4.6,1.4,1.4.1.8-.6,1.4-1.4,1.4Z" fill="#004263"/></g></g></g></g><g><g><g><g><path d="M322.6,160.4h-51.4c-.8,0-1.4-.6-1.4-1.4s.6-1.4,1.4-1.4h51.4c.8,0,1.4.6,1.4,1.4.1.8-.6,1.4-1.4,1.4Z" fill="#fff"/></g></g></g></g></g></g></g></g><path d="M404.7,301.1v-253.1c0-2.1-1.7-3.9-3.9-3.9h-161.3c-2.1,0-3.9,1.7-3.9,3.9v253.2c0,2.1,1.7,3.9,3.9,3.9h161.4c2.1-.1,3.8-1.8,3.8-4Zm-156.1-9v-235.1h143.3v235.1h-143.3Z" stroke="#000" stroke-width="0.096891" stroke-linecap="round" stroke-linejoin="round" stroke-miterlimit="1"/><rect width="276.9" height="8.8" rx="0" ry="0" transform="translate(181.1 474.6)" fill="#161b1e"/><polygon points="458.6,477.8 458.6,488.4 180.6,488.4 180.6,477.8 181.1,477.8 181.1,483.2 458.1,483.2 458.1,477.8"/><rect width="278.1" height="10" rx="0" ry="0" transform="translate(180.6 488.4)" fill="#161b1e"/><rect width="4.5" height="614.1" rx="0" ry="0" transform="translate(178 12.2)" fill="#e4e5e6"/><rect width="4.5" height="614.1" rx="0" ry="0" transform="translate(457.2 12.2)" fill="#e4e5e6"/><g><path d="M355.9,588c-.1,1.5-1.3,2.8-2.9,2.7v.1l-.1.1-.1.1-.2.1-.3.1-.4.1-.4.1h-.5-.4-18c-1.8.1-3.5-.2-5.2-.8l-.7-.3-.8-.2-1-.2-1.1-.1-1.2-.1-1.3-.1h-1.1l-1.3.1-1.2.1-1.1.1-1,.2-.8.2-.7.3c-1.7.7-3.5,1-5.2.8h-18-.4-.4l-.4-.1-.4-.1-.3-.1-.2-.1-.1-.1-.1-.1v-.1c-1.5.1-2.9-1.2-2.9-2.7v-16.5c.1-1.5,1.3-32.4,2.9-32.4h64.2c1.5-.1,2.9,30.8,2.9,32.4l.2,16.5v0Z" fill="#252f38" stroke="#000" stroke-width="0.103" stroke-miterlimit="1"/><rect width="64.2" height="34.4" rx="0" ry="0" transform="translate(288.7 539.1)" fill="#333"/><path d="M353,578.9v9.7l-.1.1-.1.1-.2.1-.3.1-.4.1-.4.1h-.4-.4-18c-1.8.1-3.5-.2-5.2-.8l-.7-.3-.8-.2-1-.2-1-.2-1.2-.1-1.3-.1h-1.3l-1.3.1-1.2.1-1.1.1-1,.2-.8.2-.7.3c-1.7.7-3.5,1-5.2.8h-18-.4-.4l-.4-.1-.4-.1-.3-.1-.2-.1-.1-.1-.1-.1v-9.7l64.4.1v0Z" fill="#979797"/><path d="M353,588.7v2.3l-.1.1-.1.1-.2.1-.3.1-.4.1-.4.1h-.4-.4-18c-1.8.1-3.5-.2-5.2-.8l-.7-.3-.8-.2-1-.2-1.1-.1-1.2-.1-1.3-.1h-1.2l-1.3.1-1.2.1-1.1.1-1,.2-.8.2-.7.3c-1.7.7-3.5,1-5.2.8h-18-.4-.4l-.4-.1-.4-.1-.3-.1-.2-.1-.1-.1-.1-.1v-2.3l.1.1.1.1.2.1.3.1.4.1.4.1h.4.4h18c1.8.1,3.5-.2,5.2-.8l.7-.3.8-.2l1-.2l1.1-.1l1.2-.1l1.3-.1h1.3l1.3.1l1.2.1l1.1.1l1,.2.8.2.7.3c1.7.7,3.5,1,5.2.8h18h.4.4l.4-.1.4-.1.3-.1.2-.1.1-.2v0v0Z" fill="#808080"/><path d="M355.9,571.5v16.5c-.1,1.5-1.3,2.8-2.9,2.7v-51.6c1.6-.1,2.9,30.8,2.9,32.4Z" fill="#666"/><path d="M288.7,539.1v51.6c-1.5.1-2.9-1.2-2.9-2.7v-16.5c.1-1.6,1.4-32.5,2.9-32.4Z" fill="#666"/><rect width="64.2" height="5.5" rx="0" ry="0" transform="translate(288.7 573.4)"/></g><path d="M353.7,546.3v.8c0,2-.6,3.7-1.2,3.7h-62.6c-.7,0-1.2-1.7-1.2-3.7v-.8h65Z" fill="#161b1e" stroke="#000" stroke-width="0.2271" stroke-linecap="round" stroke-linejoin="round" stroke-miterlimit="1"/><path d="M353.7,541.8v.8h-65v-.8c0-2,.6-3.7,1.2-3.7h62.6c.6,0,1.2,1.4,1.2,3.7Z" fill="#161b1e" stroke="#000" stroke-width="0.2271" stroke-linecap="round" stroke-linejoin="round" stroke-miterlimit="1"/><rect width="65" height="3.7" rx="0" ry="0" transform="translate(288.7 542.6)" stroke="#000" stroke-width="0.2271" stroke-linecap="round" stroke-linejoin="round" stroke-miterlimit="1"/><path d="M303.8,413.4v.4c0,1-.6,1.8-1.2,1.8h-62.6c-.7,0-1.2-.8-1.2-1.8v-.4h65Z" fill="#161b1e" stroke="#000" stroke-width="0.1606" stroke-linecap="round" stroke-linejoin="round" stroke-miterlimit="1"/><path d="M303.8,411.2v.4h-65v-.4c0-1,.6-1.8,1.2-1.8h62.6c.7-.1,1.2.6,1.2,1.8Z" fill="#161b1e" stroke="#000" stroke-width="0.1606" stroke-linecap="round" stroke-linejoin="round" stroke-miterlimit="1"/><rect width="65" height="1.8" rx="0" ry="0" transform="translate(238.8 411.6)" stroke="#000" stroke-width="0.1606" stroke-linecap="round" stroke-linejoin="round" stroke-miterlimit="1"/><g><g><line x1="224.6" y1="414.7" x2="224.6" y2="433.6" fill="none" stroke="#000" stroke-width="0.6297" stroke-linecap="round" stroke-linejoin="round" stroke-miterlimit="10"/></g><g><path d="M224.6,433.6c0,2.8,2.3,5.1,5.1,5.1" fill="none" stroke="#000" stroke-width="0.6297" stroke-linecap="round" stroke-linejoin="round" stroke-miterlimit="10"/></g><g><line x1="229.8" y1="438.7" x2="312.2" y2="438.7" fill="none" stroke="#000" stroke-width="0.6297" stroke-linecap="round" stroke-linejoin="round" stroke-miterlimit="10"/></g><g><path d="M312.2,438.7c2.8,0,5.1-2.3,5.1-5.1" fill="none" stroke="#000" stroke-width="0.6297" stroke-linecap="round" stroke-linejoin="round" stroke-miterlimit="10"/></g><g><line x1="317.4" y1="433.6" x2="317.4" y2="414.7" fill="none" stroke="#000" stroke-width="0.6297" stroke-linecap="round" stroke-linejoin="round" stroke-miterlimit="10"/></g><g><path d="M317.4,414.7c0-2.8-2.3-5.1-5.1-5.1" fill="none" stroke="#000" stroke-width="0.6297" stroke-linecap="round" stroke-linejoin="round" stroke-miterlimit="10"/></g><g><line x1="312.2" y1="409.6" x2="229.8" y2="409.6" fill="none" stroke="#000" stroke-width="0.6297" stroke-linecap="round" stroke-linejoin="round" stroke-miterlimit="10"/></g><g><path d="M229.8,409.6c-2.8,0-5.1,2.3-5.1,5.1" fill="none" stroke="#000" stroke-width="0.6297" stroke-linecap="round" stroke-linejoin="round" stroke-miterlimit="10"/></g></g></g></g></g><g><path d="M288.7,201.5h65.5c4.2,0,7.8,3.4,7.8,7.8v36.9c0,4.2-3.4,7.8-7.8,7.8h-65.5c-4.2,0-7.8-3.4-7.8-7.8v-37c.2-4.4,3.5-7.7,7.8-7.7Z" fill="#fff"/><rect width="24" height="37.4" rx="0" ry="0" transform="translate(288.4 207.6)" fill="#f0f0f0"/><rect width="20.6" height="2.9" rx="0" ry="0" transform="translate(321.6 208.5)" fill="#414042"/><rect width="23.4" height="2.9" rx="0" ry="0" transform="translate(321.6 214.3)" fill="#414042"/><rect width="23.4" height="1.2" rx="0" ry="0" transform="translate(321.6 225.4)" fill="#414042"/><rect width="23.4" height="1.2" rx="0" ry="0" transform="translate(321.6 228.1)" fill="#414042"/><rect width="23.4" height="1.2" rx="0" ry="0" transform="translate(321.6 231.6)" fill="#414042"/><rect width="23.4" height="1.2" rx="0" ry="0" transform="translate(321.6 234.6)" fill="#414042"/></g><g><path d="M459.5,12.3h-279.2v-5c0-2,1.6-3.6,3.6-3.6h272c2,0,3.6,1.6,3.6,3.6v5Z" fill="#2a353f" stroke="#000" stroke-width="0.1383" stroke-linecap="round" stroke-linejoin="round" stroke-miterlimit="1"/><path d="M459.1,12.6h-278.4v-5c0-2,1.6-3.6,3.6-3.6h271.3c2,0,3.6,1.6,3.6,3.6v5Z" fill="#e4e5e6"/></g></g><path d="M288.7,201.5h65.5c4.2,0,7.8,3.4,7.8,7.8v36.9c0,4.2-3.4,7.8-7.8,7.8h-65.5c-4.2,0-7.8-3.4-7.8-7.8v-37c.2-4.4,3.5-7.7,7.8-7.7Z" fill="#fff"/><rect width="24" height="37.4" rx="0" ry="0" transform="translate(288.4 207.6)" fill="#f0f0f0"/><rect width="20.6" height="2.9" rx="0" ry="0" transform="translate(321.6 208.5)" fill="#414042"/><rect width="23.4" height="2.9" rx="0" ry="0" transform="translate(321.6 214.3)" fill="#414042"/><rect width="23.4" height="1.2" rx="0" ry="0" transform="translate(321.6 225.4)" fill="#414042"/><rect width="23.4" height="1.2" rx="0" ry="0" transform="translate(321.6 228.1)" fill="#414042"/><rect width="23.4" height="1.2" rx="0" ry="0" transform="translate(321.6 231.6)" fill="#414042"/><rect width="23.4" height="1.2" rx="0" ry="0" transform="translate(321.6 234.6)" fill="#414042"/></g><g id="ed4IrlnD0Vp106_to" transform="translate(566.194321,834.795914)"><g transform="translate(-490.105698,-206.727415)"><g clip-path="url(#ed4IrlnD0Vp199)"><g><path d="M330,94.9c.1-.1.1-.1,0,0v0l36.5-11l1,8.9-30.4,16.8v0c0,0,0,0-.1,0-4.3,2.4-9.3,1-11.3-3.2s-1.2-10.1,4.3-11.5Z" fill="#b1b1b1"/><path d="M338.5,104.3v0v0l27.8-17.8l9.2,12.1-27.8,17.7v0c0,0,0,0-.1,0-3.9,2.5-9.2,1.8-11.6-1.6s-1.4-8,2.5-10.4Z" fill="#b1b1b1"/><path d="M346.9,114.2v0v0l26.7-13.5l6.6,11.9L353.6,126v0c0,0,0,0-.1,0-3.7,1.9-8.3.8-10.1-2.5-1.9-3.3-.3-7.4,3.5-9.3Z" fill="#b1b1b1"/><path d="M356,67.7c1.5-1,3.4-1.3,5.1-.9l18.8,3.6c2.8.6,5.1,2.3,6.4,4.7l27,47c1.6,2.8.2,6.3-3,7.9l-11.6,5.8c-3.2,1.6-7.1.7-8.6-2L370.3,93l-14.6-2.8L334.2,102c-9,5.3-16.5,4.1-18-2-.9-3.6-.3-6.9,6.7-10.7L356,67.7Z" fill="#b1b1b1"/><path d="M318.8,5l65.7,42.9c2,1.3,2.6,3.9,1.3,5.9L359.5,94c-1.3,2-3.9,2.6-5.9,1.3L287.9,52.4c-2-1.3-2.6-3.9-1.3-5.9L312.9,6.3c1.3-2,3.9-2.6,5.9-1.3Z" fill="#c96561"/><path d="M318.8,5l65.7,42.9c2,1.3,2.6,3.9,1.3,5.9L359.5,94c-1.3,2-3.9,2.6-5.9,1.3L287.9,52.4c-2-1.3-2.6-3.9-1.3-5.9L312.9,6.3c1.3-2,3.9-2.6,5.9-1.3Z" fill="#2eb7aa"/><g><path d="M318,4.6l66.4,43.3c1.6,1,2,3.1,1,4.7L358.6,93.5c-1,1.6-3.1,2-4.7,1L287.5,51.2c-1.6-1-2-3.1-1-4.7L313.3,5.6c1-1.6,3.2-2,4.7-1Z" fill="#fc7e79"/><path d="M318,4.6l66.4,43.3c1.6,1,2,3.1,1,4.7L358.6,93.5c-1,1.6-3.1,2-4.7,1L287.5,51.2c-1.6-1-2-3.1-1-4.7L313.3,5.6c1-1.6,3.2-2,4.7-1Z" fill="#fe7f78"/><rect width="12.7" height="86" rx="0" ry="0" transform="matrix(.5469-.8372 0.8372 0.5469 303.487788 20.718801)" fill="#4a4a4a"/><line x1="307.7" y1="28.1" x2="367.6" y2="67.3" fill="none" stroke="#4a4a4a" stroke-width="0.877" stroke-miterlimit="10"/><line x1="306" y1="30.7" x2="353.1" y2="61.4" fill="none" stroke="#4a4a4a" stroke-width="0.877" stroke-miterlimit="10"/><line x1="302.5" y1="35.9" x2="320.3" y2="47.5" fill="none" stroke="#4a4a4a" stroke-width="0.877" stroke-miterlimit="10"/><line x1="300.9" y1="38.5" x2="332.6" y2="59.3" fill="none" stroke="#4a4a4a" stroke-width="0.877" stroke-miterlimit="10"/><g><polygon points="299.2,41.5 294.6,48.6 299.2,41.5 298.8,41.3 294,48.6 294.4,48.9 294.4,48.9 294.7,49.1 299.5,41.7" fill="#4a4a4a"/><rect width="8.8" height="0.4" rx="0" ry="0" transform="matrix(.5469-.8372 0.8372 0.5469 295.079223 49.261128)" fill="#4a4a4a"/><rect width="8.8" height="0.4" rx="0" ry="0" transform="matrix(.5469-.8372 0.8372 0.5469 295.794954 49.793538)" fill="#4a4a4a"/><rect width="8.8" height="0.4" rx="0" ry="0" transform="matrix(.5469-.8372 0.8372 0.5469 296.565574 50.242228)" fill="#4a4a4a"/><rect width="8.8" height="0.4" rx="0" ry="0" transform="matrix(.5469-.8372 0.8372 0.5469 297.281204 50.774638)" fill="#4a4a4a"/><rect width="8.8" height="0.4" rx="0" ry="0" transform="matrix(.546-.8378 0.8378 0.546 297.987116 51.294734)" fill="#4a4a4a"/><rect width="8.8" height="0.4" rx="0" ry="0" transform="matrix(.5469-.8372 0.8372 0.5469 298.424055 51.559238)" fill="#4a4a4a"/><rect width="8.8" height="0.4" rx="0" ry="0" transform="matrix(.5469-.8372 0.8372 0.5469 299.116865 51.953958)" fill="#4a4a4a"/><rect width="8.8" height="0.4" rx="0" ry="0" transform="matrix(.5469-.8372 0.8372 0.5469 299.830595 52.490368)" fill="#4a4a4a"/><rect width="8.8" height="0.4" rx="0" ry="0" transform="matrix(.5469-.8372 0.8372 0.5469 300.603015 52.935058)" fill="#4a4a4a"/><polygon points="306.1,46.1 301.3,53.4 301.7,53.7 301.7,53.7 302,53.9 306.8,46.6" fill="#4a4a4a"/><rect width="8.8" height="0.4" rx="0" ry="0" transform="matrix(.546-.8378 0.8378 0.546 302.428734 54.102815)" fill="#4a4a4a"/><rect width="8.8" height="0.4" rx="0" ry="0" transform="matrix(.5468-.8373 0.8373 0.5468 302.730248 54.379456)" fill="#4a4a4a"/><polygon points="308.8,47.8 308.8,47.8 308.4,47.5 303.5,54.9 303.9,55.2 306.3,51.5 303.9,55.2 304.3,55.4 309.1,48" fill="#4a4a4a"/><rect width="8.8" height="0.4" rx="0" ry="0" transform="matrix(.5469-.8372 0.8372 0.5469 304.638756 55.631887)" fill="#4a4a4a"/><rect width="8.8" height="0.4" rx="0" ry="0" transform="matrix(.5468-.8373 0.8373 0.5468 305.359568 56.144716)" fill="#4a4a4a"/><rect width="8.8" height="0.4" rx="0" ry="0" transform="matrix(.5469-.8372 0.8372 0.5469 306.100267 56.482607)" fill="#4a4a4a"/><rect width="8.8" height="0.4" rx="0" ry="0" transform="matrix(.5469-.8372 0.8372 0.5469 306.815997 57.015017)" fill="#4a4a4a"/><polygon points="312.8,50.4 310.4,54 312.8,50.4 312.4,50.2 307.6,57.6 308,57.8 308,57.8 308.3,58 313.1,50.7" fill="#4a4a4a"/><rect width="8.8" height="0.4" rx="0" ry="0" transform="matrix(.5468-.8373 0.8373 0.5468 308.734319 58.227176)" fill="#4a4a4a"/><rect width="8.8" height="0.4" rx="0" ry="0" transform="matrix(.546-.8378 0.8378 0.546 309.313331 58.602996)" fill="#4a4a4a"/><rect width="8.8" height="0.4" rx="0" ry="0" transform="matrix(.5469-.8372 0.8372 0.5469 309.763978 58.839526)" fill="#4a4a4a"/><rect width="8.8" height="0.4" rx="0" ry="0" transform="matrix(.5469-.8372 0.8372 0.5469 310.477608 59.374936)" fill="#4a4a4a"/><rect width="8.8" height="0.4" rx="0" ry="0" transform="matrix(.5469-.8372 0.8372 0.5469 311.195438 59.904346)" fill="#4a4a4a"/><rect width="8.8" height="0.4" rx="0" ry="0" transform="matrix(.5469-.8372 0.8372 0.5469 311.888249 60.300066)" fill="#4a4a4a"/><rect width="8.8" height="0.4" rx="0" ry="0" transform="matrix(.5469-.8372 0.8372 0.5469 312.740389 60.806446)" fill="#4a4a4a"/><polygon points="318.6,54.2 316.3,57.8 318.6,54.2 318.2,54 313.4,61.4 313.8,61.6 313.8,61.6 314.1,61.8 319,54.5" fill="#4a4a4a"/><polygon points="345,71.4 345,71.4 344.6,71.2 344.6,71.2 344.4,71.1 339.5,78.4 339.9,78.7 339.9,78.7 340.1,78.8 340.1,78.8 340.4,79 345.3,71.7" fill="#4a4a4a"/><rect width="8.8" height="0.4" rx="0" ry="0" transform="matrix(.5469-.8372 0.8372 0.5469 340.912657 79.259362)" fill="#4a4a4a"/><rect width="8.8" height="0.4" rx="0" ry="0" transform="matrix(.5468-.8373 0.8373 0.5468 341.609068 79.637522)" fill="#4a4a4a"/><rect width="8.8" height="0.4" rx="0" ry="0" transform="matrix(.5469-.8372 0.8372 0.5469 342.316598 80.195492)" fill="#4a4a4a"/><rect width="8.8" height="0.4" rx="0" ry="0" transform="matrix(.5469-.8372 0.8372 0.5469 343.091518 80.636182)" fill="#4a4a4a"/><polygon points="349,74.1 349,74.1 348.6,73.9 343.8,81.2 344.2,81.4 344.2,81.4 344.5,81.7 349.3,74.3" fill="#4a4a4a"/><rect width="8.8" height="0.4" rx="0" ry="0" transform="matrix(.5469-.8372 0.8372 0.5469 344.927278 81.816501)" fill="#4a4a4a"/><rect width="8.8" height="0.4" rx="0" ry="0" transform="matrix(.5469-.8372 0.8372 0.5469 345.638409 82.355911)" fill="#4a4a4a"/><rect width="8.8" height="0.4" rx="0" ry="0" transform="matrix(.5468-.8373 0.8373 0.5468 346.362689 82.861971)" fill="#4a4a4a"/><polygon points="352.3,76.3 352.3,76.3 351.9,76 347.1,83.3 347.4,83.6 347.4,83.6 347.8,83.8 352.6,76.5" fill="#4a4a4a"/><polygon points="353,76.7 348.2,84.1 348.5,84.3 348.5,84.3 348.9,84.6 353.7,77.2" fill="#4a4a4a"/><polygon points="354.1,77.4 349.3,84.8 349.7,85.1 349.7,85.1 350,85.3 354.9,77.9" fill="#4a4a4a"/><rect width="8.8" height="0.4" rx="0" ry="0" transform="matrix(.5468-.8373 0.8373 0.5468 350.31667 85.500451)" fill="#4a4a4a"/><rect width="8.8" height="0.4" rx="0" ry="0" transform="matrix(.5469-.8372 0.8372 0.5469 351.08318 85.968151)" fill="#4a4a4a"/><rect width="8.8" height="0.4" rx="0" ry="0" transform="matrix(.5469-.8372 0.8372 0.5469 351.79431 86.508561)" fill="#4a4a4a"/><rect width="8.8" height="0.4" rx="0" ry="0" transform="matrix(.5468-.8373 0.8373 0.5468 352.495751 86.87691)" fill="#4a4a4a"/><rect width="8.8" height="0.4" rx="0" ry="0" transform="matrix(.5469-.8372 0.8372 0.5469 353.262141 87.34497)" fill="#4a4a4a"/><rect width="8.8" height="0.4" rx="0" ry="0" transform="matrix(.5469-.8372 0.8372 0.5469 314.513349 62.071766)" fill="#4a4a4a"/><rect width="8.8" height="0.4" rx="0" ry="0" transform="matrix(.5469-.8372 0.8372 0.5469 315.22908 62.604176)" fill="#4a4a4a"/><rect width="8.8" height="0.4" rx="0" ry="0" transform="matrix(.5469-.8372 0.8372 0.5469 315.92589 62.992895)" fill="#4a4a4a"/><polygon points="321.9,56.4 321.9,56.4 321.5,56.2 316.7,63.5 317.1,63.8 317.1,63.8 317.5,64 322.2,56.7" fill="#4a4a4a"/><polygon points="323.1,57.1 323.1,57.1 322.7,56.9 317.8,64.2 318.1,64.5 318.1,64.5 318.5,64.7 323.4,57.3" fill="#4a4a4a"/><polygon points="324.1,57.8 324.1,57.8 323.7,57.5 318.9,65 319.3,65.2 319.3,65.2 319.6,65.5 324.5,58" fill="#4a4a4a"/><rect width="8.8" height="0.4" rx="0" ry="0" transform="matrix(.5469-.8372 0.8372 0.5469 319.963531 65.685725)" fill="#4a4a4a"/><rect width="8.8" height="0.4" rx="0" ry="0" transform="matrix(.5469-.8372 0.8372 0.5469 320.732051 66.138415)" fill="#4a4a4a"/><rect width="8.8" height="0.4" rx="0" ry="0" transform="matrix(.5469-.8372 0.8372 0.5469 321.449681 66.666825)" fill="#4a4a4a"/><rect width="8.8" height="0.4" rx="0" ry="0" transform="matrix(.5468-.8373 0.8373 0.5468 322.124883 67.078194)" fill="#4a4a4a"/><polygon points="328.1,60.4 328.1,60.4 327.8,60.2 323,67.6 323.7,68.1 328.5,60.7" fill="#4a4a4a"/><rect width="8.8" height="0.4" rx="0" ry="0" transform="matrix(.5469-.8372 0.8372 0.5469 324.104432 68.225424)" fill="#4a4a4a"/><polygon points="330.1,61.7 330.1,61.7 329.7,61.5 324.8,68.8 325.2,69.1 325.2,69.1 325.6,69.3 330.5,62" fill="#4a4a4a"/><rect width="8.8" height="0.4" rx="0" ry="0" transform="matrix(.5469-.8372 0.8372 0.5469 325.915713 69.609434)" fill="#4a4a4a"/><rect width="8.8" height="0.4" rx="0" ry="0" transform="matrix(.5468-.8373 0.8373 0.5468 326.611854 69.987064)" fill="#4a4a4a"/><rect width="8.8" height="0.4" rx="0" ry="0" transform="matrix(.5469-.8372 0.8372 0.5469 327.378943 70.453844)" fill="#4a4a4a"/><rect width="8.8" height="0.4" rx="0" ry="0" transform="matrix(.5469-.8372 0.8372 0.5469 328.226963 70.970534)" fill="#4a4a4a"/><polygon points="333.8,64.1 328.9,71.4 329.3,71.7 329.3,71.7 329.7,71.9 334.4,64.5" fill="#4a4a4a"/><rect width="8.8" height="0.4" rx="0" ry="0" transform="matrix(.5469-.8372 0.8372 0.5469 329.983204 72.088164)" fill="#4a4a4a"/><rect width="8.8" height="0.4" rx="0" ry="0" transform="matrix(.5469-.8372 0.8372 0.5469 330.699034 72.620573)" fill="#4a4a4a"/><rect width="8.8" height="0.4" rx="0" ry="0" transform="matrix(.5469-.8372 0.8372 0.5469 331.551074 73.126953)" fill="#4a4a4a"/><polygon points="337,66.3 332.2,73.6 332.6,73.8 332.6,73.8 333,74.1 337.8,66.8" fill="#4a4a4a"/><polygon points="338.1,67 333.3,74.3 333.7,74.6 333.7,74.6 334.1,74.8 338.8,67.5" fill="#4a4a4a"/><polygon points="339.2,67.7 334.4,75.1 334.8,75.3 334.8,75.3 335.2,75.6 339.9,68.2" fill="#4a4a4a"/><rect width="8.8" height="0.4" rx="0" ry="0" transform="matrix(.5468-.8373 0.8373 0.5468 335.510816 75.744532)" fill="#4a4a4a"/><rect width="8.8" height="0.4" rx="0" ry="0" transform="matrix(.5469-.8372 0.8372 0.5469 336.222926 76.294503)" fill="#4a4a4a"/><rect width="8.8" height="0.4" rx="0" ry="0" transform="matrix(.5469-.8372 0.8372 0.5469 336.988946 76.751193)" fill="#4a4a4a"/><rect width="8.8" height="0.4" rx="0" ry="0" transform="matrix(.5468-.8373 0.8373 0.5468 337.689797 77.120992)" fill="#4a4a4a"/><polygon points="343.7,70.6 343.7,70.6 343.3,70.3 338.4,77.7 338.8,78 338.8,78 339.2,78.2 344,70.8" fill="#4a4a4a"/></g></g><path d="M390.4,117.1L356.6,70.2c-3.3-3.5-9.5-3.7-13.7-.3-4.2,3.3-5.1,6.1-1.5,12.3l7.5,13.2l5.4,8c1.6,3.2,3.7,6.2,6.5,8.7c4.4,4-1.9-3.5-.9,2.3l.4,1.9c3.4,14.1,13.7,25.9,20.5,29.5c3.4,1.8,5.6,3.7,9.6,3.9c6.1.3,16.2,12.9,23.7,20.1C424.6,180,645.7,409.4,645.7,409.4L694.3,382L406.4,110" fill="#b1b1b1"/></g><clipPath id="ed4IrlnD0Vp199"><use width="641.100037" height="626.299988" xlink:href="#ed4IrlnD0Vp2"/></clipPath></g></g></g></svg>
