<?xml version="1.0" encoding="utf-8"?>
<!-- Generator: Adobe Illustrator 15.0.2, SVG Export Plug-In . SVG Version: 6.00 Build 0)  -->
<!DOCTYPE svg PUBLIC "-//W3C//DTD SVG 1.1//EN" "http://www.w3.org/Graphics/SVG/1.1/DTD/svg11.dtd">
<svg version="1.1" id="Ebene_1" xmlns="http://www.w3.org/2000/svg" xmlns:xlink="http://www.w3.org/1999/xlink" x="0px" y="0px"
	 width="601px" height="512px" viewBox="-44.5 0 601 512" enable-background="new -44.5 0 601 512" xml:space="preserve">
<g>
	<path fill="#25E9D8" d="M256,367.848c-23.943,0-45.746,9.157-62.104,24.156L256,454.107l62.104-62.104
		C301.746,377.005,279.943,367.848,256,367.848z"/>
	<path opacity="0.05" d="M255.999,273.852c-50.008,0-95.517,19.235-129.555,50.7l35.482,35.481
		c24.227-22.103,58.916-35.613,94.073-35.613c35.158,0,69.847,13.51,94.074,35.614l35.482-35.481
		C351.516,293.087,306.008,273.852,255.999,273.852z"/>
	<path opacity="0.05" d="M256,172.443c-77.99,0-148.821,30.647-201.11,80.554l43.057,43.057
		c41.593-38.76,96.587-61.627,158.054-61.627c61.467,0,116.459,22.868,158.053,61.627l43.057-43.057
		C404.82,203.09,333.99,172.443,256,172.443z"/>
	<path opacity="0.05" d="M256,57.892c-109.561,0-208.912,43.715-281.562,114.654l54.72,54.72
		C87.462,169.674,167.573,134.111,256,134.111c88.428,0,168.538,35.563,226.842,93.154l54.719-54.72
		C464.91,101.607,365.561,57.892,256,57.892z"/>
</g>
</svg>
