<svg id="ba81c33f-30fe-4dd8-ae58-b3d9da0e6454" data-name="Layer 1" xmlns="http://www.w3.org/2000/svg" viewBox="0 0 360 584">
  <title>Artboard 37 copy 3</title>
  <g>
    <g>
      <g>
        <path d="M361.02913,239.34026v27.72507a1.80121,1.80121,0,0,1-1.43792,1.75247L348.627,271.087V235.31855l10.96421,2.26923A1.82008,1.82008,0,0,1,361.02913,239.34026Z" fill="#fff"/>
        <path d="M348.627,402.29806v54.10207a27.2414,27.2414,0,0,1-27.23078,27.23078H28.23844A27.2414,27.2414,0,0,1,1.00766,456.40013V402.29806h1.056a25.70243,25.70243,0,0,0,25.703,25.72544H322.90155A25.70723,25.70723,0,0,0,348.627,402.29806Z" fill="#e6e6e6"/>
        <path d="M231.32345,359.76681H220.71872a4.895,4.895,0,0,1-4.89795-4.89794V251.63006a4.90945,4.90945,0,0,1,4.89795-4.89795H301.7595a4.895,4.895,0,0,1,4.89794,4.89795V354.86887a4.88073,4.88073,0,0,1-4.89794,4.89794h-70.436Zm31.99392-54.21441a2.07829,2.07829,0,1,0-2.067,2.067A2.06658,2.06658,0,0,0,263.31737,305.5524Z" fill="#ddd"/>
        <rect x="303.55691" y="43.3775" width="0.6965" height="146.03966" fill="#f2f2f2"/>
        <path d="M304.25341,189.41716V43.3775h-.6965v-.0674H47.26853v.0674h-.8313V189.41716h.8313v.08987H303.55691v-.08987Zm-249.93,177.427a4.87592,4.87592,0,0,0,4.898,4.87548H177.78306a4.87592,4.87592,0,0,0,4.89794-4.87548V318.33648a4.87592,4.87592,0,0,0-4.89794-4.87547H59.22132a4.87592,4.87592,0,0,0-4.898,4.87547v48.50764ZM348.627,402.18572v.11234a25.70723,25.70723,0,0,1-25.72545,25.72544H27.76662a25.70243,25.70243,0,0,1-25.703-25.72544V27.785a25.71681,25.71681,0,0,1,25.703-25.72545H322.90155A25.72159,25.72159,0,0,1,348.627,27.785V402.18572Zm-41.96956-47.31685V251.63006a4.895,4.895,0,0,0-4.89794-4.89795H220.71872a4.90945,4.90945,0,0,0-4.89795,4.89795V354.86887a4.895,4.895,0,0,0,4.89795,4.89794H301.7595A4.88073,4.88073,0,0,0,306.65744,354.86887ZM179.64787,20.73012a4.49274,4.49274,0,0,0-8.89718,0,4.49274,4.49274,0,0,0,8.89718,0Z" fill="#f2f2f2"/>
        <rect x="47.26853" y="43.3775" width="256.28838" height="146.03966" fill="#fe7f78"/>
        <path d="M261.25034,303.46291a2.07829,2.07829,0,1,1-2.08949,2.08949A2.06658,2.06658,0,0,1,261.25034,303.46291Z" fill="#4d4d4d"/>
        <path d="M76.04958,332.71577v21.83855a4.01291,4.01291,0,0,0,3.99924,4.02171h76.90674a4.01292,4.01292,0,0,0,3.99924-4.02171V330.1994a4.0081,4.0081,0,0,0-3.99924-3.99924H80.04882a4.00809,4.00809,0,0,0-3.99924,3.99924ZM177.78306,313.461a4.87592,4.87592,0,0,1,4.89794,4.87547v46.7327a5.32171,5.32171,0,0,1-5.32483,5.32483H59.6482a5.32171,5.32171,0,0,1-5.32483-5.32483v-46.7327a4.87592,4.87592,0,0,1,4.898-4.87547Z" fill="#e6e6e6"/>
        <ellipse cx="175.19928" cy="20.73012" rx="4.44859" ry="3.86443" fill="#4d4d4d"/>
        <rect x="76.04958" y="346.53337" width="84.90521" height="5.50457" fill="#b3b3b3"/>
        <rect x="76.04958" y="339.05165" width="84.90521" height="7.48172" fill="#4d4d4d"/>
        <rect x="76.04958" y="332.71577" width="84.90521" height="6.33587" fill="#b3b3b3"/>
        <path d="M76.04958,352.03794H160.9548v2.51638a4.01292,4.01292,0,0,1-3.99924,4.02171H80.04882a4.01291,4.01291,0,0,1-3.99924-4.02171Z" fill="#ccc"/>
        <path d="M80.04882,326.20016h76.90674a4.0081,4.0081,0,0,1,3.99924,3.99924v2.51637H76.04958V330.1994A4.00809,4.00809,0,0,1,80.04882,326.20016Z" fill="#ccc"/>
        <path d="M59.6482,370.394h117.708a5.32171,5.32171,0,0,0,5.32483-5.32483v1.77494a4.87592,4.87592,0,0,1-4.89794,4.87548H59.22132a4.87592,4.87592,0,0,1-4.898-4.87548v-1.77494A5.32171,5.32171,0,0,0,59.6482,370.394Z" fill="#4d4d4d"/>
        <rect x="46.43723" y="43.3775" width="0.8313" height="146.03966" fill="#f2f2f2"/>
      </g>
      <g>
        <path d="M348.627,402.18572V27.785A25.72159,25.72159,0,0,0,322.90155,2.05951H27.76662A25.71681,25.71681,0,0,0,2.06364,27.785v374.5131a25.70243,25.70243,0,0,0,25.703,25.72544H322.90155A25.70723,25.70723,0,0,0,348.627,402.29806" fill="none" stroke="#ccc" stroke-miterlimit="10" stroke-width="4.12966"/>
        <polyline points="47.269 189.507 47.269 189.417 47.269 43.377 47.269 43.31 303.557 43.31 303.557 43.377 303.557 189.417 303.557 189.507" fill="none" stroke="#000" stroke-miterlimit="10" stroke-width="1.03242"/>
      </g>
    </g>
    <rect x="203.07734" y="75.06175" width="78.96287" height="51.09362" rx="7.52778" fill="#fff"/>
    <rect x="210.19227" y="81.09242" width="23.33733" height="36.53825" fill="#f2f2f2"/>
    <line x1="242.55877" y1="83.4596" x2="262.51647" y2="83.4596" fill="none" stroke="#414042" stroke-miterlimit="10" stroke-width="2.85716"/>
    <line x1="242.55877" y1="89.17392" x2="265.37363" y2="89.17392" fill="none" stroke="#414042" stroke-miterlimit="10" stroke-width="2.85716"/>
    <line x1="242.55877" y1="98.88827" x2="265.37363" y2="98.88827" fill="none" stroke="#414042" stroke-miterlimit="10" stroke-width="1.14286"/>
    <line x1="242.55877" y1="101.74543" x2="265.37363" y2="101.74543" fill="none" stroke="#414042" stroke-miterlimit="10" stroke-width="1.14286"/>
    <line x1="242.55877" y1="105.17403" x2="265.37363" y2="105.17403" fill="none" stroke="#414042" stroke-miterlimit="10" stroke-width="1.14286"/>
    <line x1="242.55877" y1="108.03119" x2="265.37363" y2="108.03119" fill="none" stroke="#414042" stroke-miterlimit="10" stroke-width="1.14286"/>
    <line x1="74.59106" y1="79.38588" x2="160.95925" y2="79.38588" fill="none" stroke="#fff" stroke-linecap="round" stroke-linejoin="round" stroke-width="5.41781"/>
    <line x1="74.59106" y1="93.83913" x2="134.97863" y2="93.83913" fill="none" stroke="#fff" stroke-linecap="round" stroke-linejoin="round" stroke-width="5.41781"/>
    <line x1="74.59106" y1="116.52222" x2="134.97863" y2="116.52222" fill="none" stroke="#403c51" stroke-linecap="round" stroke-linejoin="round" stroke-width="2.70891"/>
    <line x1="74.59106" y1="127.38848" x2="121.30379" y2="127.38848" fill="none" stroke="#403c51" stroke-linecap="round" stroke-linejoin="round" stroke-width="2.70891"/>
    <line x1="74.59106" y1="146.79696" x2="121.30379" y2="146.79696" fill="none" stroke="#fff" stroke-linecap="round" stroke-linejoin="round" stroke-width="2.70891"/>
    <g>
      <polygon points="237.457 356.734 263.45 372.287 280.18 346.92 254.774 333.112 237.457 356.734" fill="#b3b3b3"/>
      <path d="M231.27686,332.224a.27782.27782,0,0,0,.0627.00321l.00036-.00553,34.8107,7.77658-3.30993,7.79785-32.51165-.15676.00015-.003c-.02115.00011-.0419.00285-.06314.0027-4.58348-.02212-8.07287-3.49084-7.79374-7.7476S226.14827,330.97225,231.27686,332.224Z" fill="#b3b3b3"/>
      <path d="M233.869,343.83277c.02-.00118.03978.00027.06-.00069l-.0007-.00505,30.8135-1.72726,1.93563,14.08816L235.864,357.91529l-.00042-.00273c-.02.00131-.03914.005-.05928.00609-4.34406.2435-8.29888-2.71234-8.83329-6.60205S229.525,344.07628,233.869,343.83277Z" fill="#b3b3b3"/>
      <path d="M236.17149,355.78381c.01822.00075.03581.00382.05413.00479l0-.00458,27.99654,1.22934-.13508,12.76153-27.99647-1.22926v-.00247c-.0182-.00063-.03593.00095-.05423.0001-3.94693-.17331-7.11633-3.17012-7.079-6.69355S232.22455,355.6105,236.17149,355.78381Z" fill="#b3b3b3"/>
      <path d="M265.03932,322.10188a6.246,6.246,0,0,1,4.62354,1.61763l13.75255,11.63265a9.32388,9.32388,0,0,1,3.10388,6.79493l.47051,50.77811c-.007,2.95188-2.72621,5.21182-6.07348,5.0477L268.783,397.378c-3.34724-.16412-6.055-2.69011-6.04791-5.64194l2.43716-42.42536-10.63266-8.956-22.94419-.24165c-9.80308.158-15.31183-4.22728-13.72474-9.89036.93947-3.35228,2.86523-5.80891,10.41866-5.73894Z" fill="#b3b3b3"/>
      <g>
        <rect x="216.0189" y="271.76309" width="81.58825" height="53.12723" rx="4.02171" transform="translate(402.98426 -67.1671) rotate(62.5212)" fill="#cb6560"/>
        <g>
          <rect x="216.65997" y="271.60418" width="80.63955" height="52.17853" rx="3.16095" transform="matrix(0.46144, 0.88717, -0.88717, 0.46144, 402.5044, -67.6592)" fill="#fe7f78"/>
          <rect x="227.19252" y="286.26643" width="80.63957" height="11.89759" transform="translate(403.31685 -79.95368) rotate(62.52)" fill="#4a4a4a"/>
          <line x1="243.67601" y1="267.17188" x2="274.63532" y2="326.69488" fill="none" stroke="#4a4a4a" stroke-miterlimit="10" stroke-width="0.82207"/>
          <line x1="241.1234" y1="268.49956" x2="265.4363" y2="315.24404" fill="none" stroke="#4a4a4a" stroke-miterlimit="10" stroke-width="0.82207"/>
          <line x1="235.92117" y1="271.20536" x2="245.06064" y2="288.77709" fill="none" stroke="#4a4a4a" stroke-miterlimit="10" stroke-width="0.82207"/>
          <line x1="233.36855" y1="272.53303" x2="249.77324" y2="304.07302" fill="none" stroke="#4a4a4a" stroke-miterlimit="10" stroke-width="0.82207"/>
          <line x1="230.48661" y1="274.032" x2="223.16259" y2="277.84139" fill="none" stroke="#4a4a4a" stroke-miterlimit="10" stroke-width="0.41104"/>
          <line x1="230.67628" y1="274.39666" x2="223.35226" y2="278.20605" fill="none" stroke="#4a4a4a" stroke-miterlimit="10" stroke-width="0.41104"/>
          <line x1="231.05561" y1="275.12598" x2="223.73159" y2="278.93537" fill="none" stroke="#4a4a4a" stroke-miterlimit="10" stroke-width="0.41104"/>
          <line x1="231.43495" y1="275.8553" x2="224.11093" y2="279.66469" fill="none" stroke="#4a4a4a" stroke-miterlimit="10" stroke-width="0.41104"/>
          <line x1="231.81429" y1="276.58461" x2="224.49026" y2="280.39401" fill="none" stroke="#4a4a4a" stroke-miterlimit="10" stroke-width="0.41104"/>
          <line x1="232.19362" y1="277.31393" x2="224.8696" y2="281.12333" fill="none" stroke="#4a4a4a" stroke-miterlimit="10" stroke-width="0.41104"/>
          <line x1="232.57296" y1="278.04325" x2="225.24894" y2="281.85265" fill="none" stroke="#4a4a4a" stroke-miterlimit="10" stroke-width="0.41104"/>
          <line x1="232.76263" y1="278.40791" x2="225.4386" y2="282.21731" fill="none" stroke="#4a4a4a" stroke-miterlimit="10" stroke-width="0.41104"/>
          <line x1="233.14196" y1="279.13723" x2="225.81794" y2="282.94663" fill="none" stroke="#4a4a4a" stroke-miterlimit="10" stroke-width="0.41104"/>
          <line x1="233.5213" y1="279.86655" x2="226.19728" y2="283.67594" fill="none" stroke="#4a4a4a" stroke-miterlimit="10" stroke-width="0.41104"/>
          <line x1="233.90063" y1="280.59587" x2="226.57661" y2="284.40526" fill="none" stroke="#4a4a4a" stroke-miterlimit="10" stroke-width="0.41104"/>
          <line x1="234.27997" y1="281.32519" x2="226.95595" y2="285.13458" fill="none" stroke="#4a4a4a" stroke-miterlimit="10" stroke-width="0.41104"/>
          <line x1="234.46964" y1="281.68985" x2="227.14562" y2="285.49924" fill="none" stroke="#4a4a4a" stroke-miterlimit="10" stroke-width="0.41104"/>
          <line x1="234.84897" y1="282.41917" x2="227.52495" y2="286.22856" fill="none" stroke="#4a4a4a" stroke-miterlimit="10" stroke-width="0.41104"/>
          <line x1="235.03864" y1="282.78382" x2="227.71462" y2="286.59322" fill="none" stroke="#4a4a4a" stroke-miterlimit="10" stroke-width="0.41104"/>
          <line x1="235.41798" y1="283.51314" x2="228.09396" y2="287.32254" fill="none" stroke="#4a4a4a" stroke-miterlimit="10" stroke-width="0.41104"/>
          <line x1="235.60764" y1="283.8778" x2="228.28362" y2="287.6872" fill="none" stroke="#4a4a4a" stroke-miterlimit="10" stroke-width="0.41104"/>
          <line x1="235.98698" y1="284.60712" x2="228.66296" y2="288.41652" fill="none" stroke="#4a4a4a" stroke-miterlimit="10" stroke-width="0.41104"/>
          <line x1="236.36632" y1="285.33644" x2="229.0423" y2="289.14584" fill="none" stroke="#4a4a4a" stroke-miterlimit="10" stroke-width="0.41104"/>
          <line x1="236.74565" y1="286.06576" x2="229.42163" y2="289.87515" fill="none" stroke="#4a4a4a" stroke-miterlimit="10" stroke-width="0.41104"/>
          <line x1="237.12499" y1="286.79508" x2="229.80097" y2="290.60447" fill="none" stroke="#4a4a4a" stroke-miterlimit="10" stroke-width="0.41104"/>
          <line x1="237.69399" y1="287.88906" x2="230.36997" y2="291.69845" fill="none" stroke="#4a4a4a" stroke-miterlimit="10" stroke-width="0.41104"/>
          <line x1="238.07333" y1="288.61838" x2="230.74931" y2="292.42777" fill="none" stroke="#4a4a4a" stroke-miterlimit="10" stroke-width="0.41104"/>
          <line x1="237.50432" y1="287.5244" x2="230.1803" y2="291.33379" fill="none" stroke="#4a4a4a" stroke-miterlimit="10" stroke-width="0.41104"/>
          <line x1="238.43395" y1="289.31172" x2="231.10993" y2="293.12112" fill="none" stroke="#4a4a4a" stroke-miterlimit="10" stroke-width="0.41104"/>
          <line x1="238.62362" y1="289.67638" x2="231.2996" y2="293.48578" fill="none" stroke="#4a4a4a" stroke-miterlimit="10" stroke-width="0.41104"/>
          <line x1="239.00296" y1="290.4057" x2="231.67894" y2="294.2151" fill="none" stroke="#4a4a4a" stroke-miterlimit="10" stroke-width="0.41104"/>
          <line x1="239.38229" y1="291.13502" x2="232.05827" y2="294.94442" fill="none" stroke="#4a4a4a" stroke-miterlimit="10" stroke-width="0.41104"/>
          <line x1="239.76163" y1="291.86434" x2="232.43761" y2="295.67373" fill="none" stroke="#4a4a4a" stroke-miterlimit="10" stroke-width="0.41104"/>
          <line x1="240.14096" y1="292.59366" x2="232.81694" y2="296.40305" fill="none" stroke="#4a4a4a" stroke-miterlimit="10" stroke-width="0.41104"/>
          <line x1="240.5203" y1="293.32298" x2="233.19628" y2="297.13237" fill="none" stroke="#4a4a4a" stroke-miterlimit="10" stroke-width="0.41104"/>
          <line x1="240.70997" y1="293.68764" x2="233.38595" y2="297.49703" fill="none" stroke="#4a4a4a" stroke-miterlimit="10" stroke-width="0.41104"/>
          <g>
            <line x1="254.13029" y1="319.48981" x2="246.80626" y2="323.29921" fill="none" stroke="#4a4a4a" stroke-miterlimit="10" stroke-width="0.41104"/>
            <line x1="254.31995" y1="319.85447" x2="246.99593" y2="323.66387" fill="none" stroke="#4a4a4a" stroke-miterlimit="10" stroke-width="0.41104"/>
            <line x1="254.69929" y1="320.58379" x2="247.37527" y2="324.39318" fill="none" stroke="#4a4a4a" stroke-miterlimit="10" stroke-width="0.41104"/>
            <line x1="255.07862" y1="321.31311" x2="247.7546" y2="325.1225" fill="none" stroke="#4a4a4a" stroke-miterlimit="10" stroke-width="0.41104"/>
            <line x1="255.45796" y1="322.04243" x2="248.13394" y2="325.85182" fill="none" stroke="#4a4a4a" stroke-miterlimit="10" stroke-width="0.41104"/>
            <line x1="255.8373" y1="322.77175" x2="248.51328" y2="326.58114" fill="none" stroke="#4a4a4a" stroke-miterlimit="10" stroke-width="0.41104"/>
            <line x1="256.21663" y1="323.50107" x2="248.89261" y2="327.31046" fill="none" stroke="#4a4a4a" stroke-miterlimit="10" stroke-width="0.41104"/>
            <line x1="256.4063" y1="323.86572" x2="249.08228" y2="327.67512" fill="none" stroke="#4a4a4a" stroke-miterlimit="10" stroke-width="0.41104"/>
            <line x1="256.78564" y1="324.59504" x2="249.46162" y2="328.40444" fill="none" stroke="#4a4a4a" stroke-miterlimit="10" stroke-width="0.41104"/>
            <line x1="257.16497" y1="325.32436" x2="249.84095" y2="329.13376" fill="none" stroke="#4a4a4a" stroke-miterlimit="10" stroke-width="0.41104"/>
            <line x1="257.54431" y1="326.05368" x2="250.22029" y2="329.86308" fill="none" stroke="#4a4a4a" stroke-miterlimit="10" stroke-width="0.41104"/>
            <line x1="257.92364" y1="326.783" x2="250.59962" y2="330.59239" fill="none" stroke="#4a4a4a" stroke-miterlimit="10" stroke-width="0.41104"/>
            <line x1="258.11331" y1="327.14766" x2="250.78929" y2="330.95705" fill="none" stroke="#4a4a4a" stroke-miterlimit="10" stroke-width="0.41104"/>
            <line x1="258.49265" y1="327.87698" x2="251.16863" y2="331.68637" fill="none" stroke="#4a4a4a" stroke-miterlimit="10" stroke-width="0.41104"/>
            <line x1="258.68232" y1="328.24164" x2="251.3583" y2="332.05103" fill="none" stroke="#4a4a4a" stroke-miterlimit="10" stroke-width="0.41104"/>
            <line x1="259.06165" y1="328.97096" x2="251.73763" y2="332.78035" fill="none" stroke="#4a4a4a" stroke-miterlimit="10" stroke-width="0.41104"/>
            <line x1="259.25132" y1="329.33562" x2="251.9273" y2="333.14501" fill="none" stroke="#4a4a4a" stroke-miterlimit="10" stroke-width="0.41104"/>
            <line x1="259.63066" y1="330.06493" x2="252.30663" y2="333.87433" fill="none" stroke="#4a4a4a" stroke-miterlimit="10" stroke-width="0.41104"/>
            <line x1="260.00999" y1="330.79425" x2="252.68597" y2="334.60365" fill="none" stroke="#4a4a4a" stroke-miterlimit="10" stroke-width="0.41104"/>
            <line x1="260.38933" y1="331.52357" x2="253.06531" y2="335.33297" fill="none" stroke="#4a4a4a" stroke-miterlimit="10" stroke-width="0.41104"/>
            <line x1="260.76866" y1="332.25289" x2="253.44464" y2="336.06229" fill="none" stroke="#4a4a4a" stroke-miterlimit="10" stroke-width="0.41104"/>
            <line x1="261.148" y1="332.98221" x2="253.82398" y2="336.79161" fill="none" stroke="#4a4a4a" stroke-miterlimit="10" stroke-width="0.41104"/>
          </g>
          <line x1="241.0893" y1="294.41696" x2="233.76528" y2="298.22635" fill="none" stroke="#4a4a4a" stroke-miterlimit="10" stroke-width="0.41104"/>
          <line x1="241.46864" y1="295.14627" x2="234.14462" y2="298.95567" fill="none" stroke="#4a4a4a" stroke-miterlimit="10" stroke-width="0.41104"/>
          <line x1="241.84798" y1="295.87559" x2="234.52396" y2="299.68499" fill="none" stroke="#4a4a4a" stroke-miterlimit="10" stroke-width="0.41104"/>
          <line x1="242.22731" y1="296.60491" x2="234.90329" y2="300.41431" fill="none" stroke="#4a4a4a" stroke-miterlimit="10" stroke-width="0.41104"/>
          <line x1="242.41698" y1="296.96957" x2="235.09296" y2="300.77897" fill="none" stroke="#4a4a4a" stroke-miterlimit="10" stroke-width="0.41104"/>
          <line x1="242.79632" y1="297.69889" x2="235.4723" y2="301.50829" fill="none" stroke="#4a4a4a" stroke-miterlimit="10" stroke-width="0.41104"/>
          <line x1="242.98598" y1="298.06355" x2="235.66196" y2="301.87294" fill="none" stroke="#4a4a4a" stroke-miterlimit="10" stroke-width="0.41104"/>
          <line x1="243.36532" y1="298.79287" x2="236.0413" y2="302.60226" fill="none" stroke="#4a4a4a" stroke-miterlimit="10" stroke-width="0.41104"/>
          <line x1="243.55499" y1="299.15753" x2="236.23097" y2="302.96692" fill="none" stroke="#4a4a4a" stroke-miterlimit="10" stroke-width="0.41104"/>
          <line x1="243.93432" y1="299.88685" x2="236.6103" y2="303.69624" fill="none" stroke="#4a4a4a" stroke-miterlimit="10" stroke-width="0.41104"/>
          <line x1="244.31366" y1="300.61617" x2="236.98964" y2="304.42556" fill="none" stroke="#4a4a4a" stroke-miterlimit="10" stroke-width="0.41104"/>
          <line x1="244.693" y1="301.34548" x2="237.36897" y2="305.15488" fill="none" stroke="#4a4a4a" stroke-miterlimit="10" stroke-width="0.41104"/>
          <line x1="245.07233" y1="302.0748" x2="237.74831" y2="305.8842" fill="none" stroke="#4a4a4a" stroke-miterlimit="10" stroke-width="0.41104"/>
          <line x1="245.64133" y1="303.16878" x2="238.31731" y2="306.97818" fill="none" stroke="#4a4a4a" stroke-miterlimit="10" stroke-width="0.41104"/>
          <line x1="246.02067" y1="303.8981" x2="238.69665" y2="307.7075" fill="none" stroke="#4a4a4a" stroke-miterlimit="10" stroke-width="0.41104"/>
          <line x1="245.45167" y1="302.80412" x2="238.12765" y2="306.61352" fill="none" stroke="#4a4a4a" stroke-miterlimit="10" stroke-width="0.41104"/>
          <line x1="246.44708" y1="304.71792" x2="239.12306" y2="308.52731" fill="none" stroke="#4a4a4a" stroke-miterlimit="10" stroke-width="0.41104"/>
          <line x1="246.63674" y1="305.08258" x2="239.31272" y2="308.89197" fill="none" stroke="#4a4a4a" stroke-miterlimit="10" stroke-width="0.41104"/>
          <line x1="247.01608" y1="305.8119" x2="239.69206" y2="309.62129" fill="none" stroke="#4a4a4a" stroke-miterlimit="10" stroke-width="0.41104"/>
          <line x1="247.39542" y1="306.54121" x2="240.0714" y2="310.35061" fill="none" stroke="#4a4a4a" stroke-miterlimit="10" stroke-width="0.41104"/>
          <line x1="247.77475" y1="307.27053" x2="240.45073" y2="311.07993" fill="none" stroke="#4a4a4a" stroke-miterlimit="10" stroke-width="0.41104"/>
          <line x1="248.15409" y1="307.99985" x2="240.83007" y2="311.80925" fill="none" stroke="#4a4a4a" stroke-miterlimit="10" stroke-width="0.41104"/>
          <line x1="248.53342" y1="308.72917" x2="241.2094" y2="312.53857" fill="none" stroke="#4a4a4a" stroke-miterlimit="10" stroke-width="0.41104"/>
          <line x1="248.72309" y1="309.09383" x2="241.39907" y2="312.90323" fill="none" stroke="#4a4a4a" stroke-miterlimit="10" stroke-width="0.41104"/>
          <line x1="249.10243" y1="309.82315" x2="241.77841" y2="313.63254" fill="none" stroke="#4a4a4a" stroke-miterlimit="10" stroke-width="0.41104"/>
          <line x1="249.48176" y1="310.55247" x2="242.15774" y2="314.36186" fill="none" stroke="#4a4a4a" stroke-miterlimit="10" stroke-width="0.41104"/>
          <line x1="249.8611" y1="311.28179" x2="242.53708" y2="315.09118" fill="none" stroke="#4a4a4a" stroke-miterlimit="10" stroke-width="0.41104"/>
          <line x1="250.24044" y1="312.01111" x2="242.91641" y2="315.8205" fill="none" stroke="#4a4a4a" stroke-miterlimit="10" stroke-width="0.41104"/>
          <line x1="250.4301" y1="312.37577" x2="243.10608" y2="316.18516" fill="none" stroke="#4a4a4a" stroke-miterlimit="10" stroke-width="0.41104"/>
          <line x1="250.80944" y1="313.10508" x2="243.48542" y2="316.91448" fill="none" stroke="#4a4a4a" stroke-miterlimit="10" stroke-width="0.41104"/>
          <line x1="250.99911" y1="313.46974" x2="243.67509" y2="317.27914" fill="none" stroke="#4a4a4a" stroke-miterlimit="10" stroke-width="0.41104"/>
          <line x1="251.37844" y1="314.19906" x2="244.05442" y2="318.00846" fill="none" stroke="#4a4a4a" stroke-miterlimit="10" stroke-width="0.41104"/>
          <line x1="251.56811" y1="314.56372" x2="244.24409" y2="318.37312" fill="none" stroke="#4a4a4a" stroke-miterlimit="10" stroke-width="0.41104"/>
          <line x1="251.94745" y1="315.29304" x2="244.62343" y2="319.10244" fill="none" stroke="#4a4a4a" stroke-miterlimit="10" stroke-width="0.41104"/>
          <line x1="252.32678" y1="316.02236" x2="245.00276" y2="319.83176" fill="none" stroke="#4a4a4a" stroke-miterlimit="10" stroke-width="0.41104"/>
          <line x1="252.70612" y1="316.75168" x2="245.3821" y2="320.56107" fill="none" stroke="#4a4a4a" stroke-miterlimit="10" stroke-width="0.41104"/>
          <line x1="253.08545" y1="317.481" x2="245.76143" y2="321.29039" fill="none" stroke="#4a4a4a" stroke-miterlimit="10" stroke-width="0.41104"/>
          <line x1="253.65446" y1="318.57498" x2="246.33044" y2="322.38437" fill="none" stroke="#4a4a4a" stroke-miterlimit="10" stroke-width="0.41104"/>
          <line x1="254.03379" y1="319.30429" x2="246.70977" y2="323.11369" fill="none" stroke="#4a4a4a" stroke-miterlimit="10" stroke-width="0.41104"/>
          <line x1="253.46479" y1="318.21032" x2="246.14077" y2="322.01971" fill="none" stroke="#4a4a4a" stroke-miterlimit="10" stroke-width="0.41104"/>
        </g>
      </g>
      <path d="M270.44908,378.13507l-6.077-53.81486c-1.13378-4.41106-6.0556-7.356-10.99343-6.57794s-6.89633,2.61075-6.88783,9.39583l.10344,14.23.7525,9.01171a26.32537,26.32537,0,0,0,1.31278,10.06279c1.79859,5.35435.13374-3.78357-1.80771,1.49044l-.52435,1.68472c-3.70871,13.12365-.77277,27.481,3.15264,33.48669,1.98342,3.03454,2.93867,5.58748,6.086,7.59738,4.8303,3.08465,7.33337,17.95147,10.13077,27.26435,3.94928,13.1476,6.6077,36.6317,6.6077,36.6317L293.474,634.81907l46.18121-42.53159L286.9898,392.9252" fill="#b3b3b3"/>
    </g>
  </g>
</svg>
