<svg id="a432c0c1-4c0f-458a-adb8-b195939466be" data-name="Layer 1" xmlns="http://www.w3.org/2000/svg" viewBox="0 0 360 584">
  <title>Artboard 37</title>
  <g>
    <g>
      <g>
        <path d="M360.99721,239.28107v27.72506a1.78125,1.78125,0,0,1-1.41547,1.75248l-10.9642,2.26923V235.25936l10.9642,2.26923A1.78125,1.78125,0,0,1,360.99721,239.28107Z" fill="#fff"/>
        <path d="M348.61754,402.23886v54.10208a27.24141,27.24141,0,0,1-27.23078,27.23078H28.229A27.24141,27.24141,0,0,1,.9982,456.34094V402.23886H2.03171a25.736,25.736,0,0,0,25.72545,25.72545H322.89209A25.736,25.736,0,0,0,348.61754,402.23886Z" fill="#e6e6e6"/>
        <path d="M348.61754,402.12652v.11234a25.736,25.736,0,0,1-25.72545,25.72545H27.75716A25.736,25.736,0,0,1,2.03171,402.23886V27.72576A25.7216,25.7216,0,0,1,27.75716,2.00031H322.89209a25.7216,25.7216,0,0,1,25.72545,25.72545V402.12652ZM306.648,354.80967V251.57087a4.895,4.895,0,0,0-4.89794-4.898H220.70926a4.88074,4.88074,0,0,0-4.898,4.898v103.2388a4.895,4.895,0,0,0,4.898,4.898H301.75A4.90944,4.90944,0,0,0,306.648,354.80967ZM304.244,189.358V43.29584h-.719v-.06741H47.23661v.06741H46.4053V189.358h.83131v.08987H303.525V189.358ZM182.67154,366.76246V318.27729a4.90944,4.90944,0,0,0-4.89794-4.89795H59.18939a4.89025,4.89025,0,0,0-4.87548,4.89795v48.48517a4.87592,4.87592,0,0,0,4.87548,4.89794H177.7736A4.895,4.895,0,0,0,182.67154,366.76246Zm-3.0556-346.09154a4.47633,4.47633,0,0,0-8.87471,0,4.47982,4.47982,0,0,0,8.87471,0Z" fill="#f2f2f2"/>
        <path d="M306.648,251.57087v103.2388a4.90944,4.90944,0,0,1-4.89794,4.898H220.70926a4.895,4.895,0,0,1-4.898-4.898V251.57087a4.88074,4.88074,0,0,1,4.898-4.898H301.75A4.895,4.895,0,0,1,306.648,251.57087ZM263.3079,305.47074a2.07829,2.07829,0,1,0-2.08949,2.08949A2.06658,2.06658,0,0,0,263.3079,305.47074Z" fill="#ddd"/>
        <rect x="303.52498" y="43.29584" width="0.71896" height="146.06213" fill="#f2f2f2"/>
        <rect x="47.23661" y="43.29584" width="256.28838" height="146.06213" fill="#37e8d7"/>
        <path d="M261.21841,303.40371a2.07829,2.07829,0,1,1-2.067,2.067A2.06658,2.06658,0,0,1,261.21841,303.40371Z" fill="#4d4d4d"/>
        <path d="M182.67154,365.01v1.75248a4.895,4.895,0,0,1-4.89794,4.89794H59.18939a4.87592,4.87592,0,0,1-4.87548-4.89794V365.01a5.32171,5.32171,0,0,0,5.32483,5.32483h117.708A5.32171,5.32171,0,0,0,182.67154,365.01Z" fill="#4d4d4d"/>
        <path d="M182.67154,318.27729V365.01a5.32171,5.32171,0,0,1-5.32483,5.32483H59.63874A5.32171,5.32171,0,0,1,54.31391,365.01V318.27729a4.89025,4.89025,0,0,1,4.87548-4.89795H177.7736A4.90944,4.90944,0,0,1,182.67154,318.27729Zm-21.72621,36.21784V330.1402a4.01765,4.01765,0,0,0-4.0217-4.0217H80.03936a4.01766,4.01766,0,0,0-4.02171,4.0217v24.35493a4.01766,4.01766,0,0,0,4.02171,4.0217h76.88427A4.01765,4.01765,0,0,0,160.94533,354.49513Z" fill="#e6e6e6"/>
        <path d="M175.16735,16.784a4.19528,4.19528,0,0,1,4.44859,3.8869,4.47982,4.47982,0,0,1-8.87471,0A4.18824,4.18824,0,0,1,175.16735,16.784Z" fill="#4d4d4d"/>
        <path d="M160.94533,351.97875v2.51638a4.01765,4.01765,0,0,1-4.0217,4.0217H80.03936a4.01766,4.01766,0,0,1-4.02171-4.0217v-2.51638Z" fill="#ccc"/>
        <rect x="76.01765" y="346.47418" width="84.92768" height="5.50457" fill="#b3b3b3"/>
        <rect x="76.01765" y="338.96999" width="84.92768" height="7.50419" fill="#4d4d4d"/>
        <rect x="76.01765" y="332.65658" width="84.92768" height="6.31341" fill="#b3b3b3"/>
        <path d="M160.94533,330.1402v2.51638H76.01765V330.1402a4.01766,4.01766,0,0,1,4.02171-4.0217h76.88427A4.01765,4.01765,0,0,1,160.94533,330.1402Z" fill="#ccc"/>
        <rect x="46.4053" y="43.29584" width="0.8313" height="146.06213" fill="#f2f2f2"/>
      </g>
      <g>
        <path d="M348.61754,402.12652V27.72576A25.7216,25.7216,0,0,0,322.89209,2.00031H27.75716A25.7216,25.7216,0,0,0,2.03171,27.72576v374.5131a25.736,25.736,0,0,0,25.72545,25.72545H322.89209a25.736,25.736,0,0,0,25.72545-25.72545" fill="none" stroke="#ccc" stroke-miterlimit="10" stroke-width="4.12966"/>
        <polyline points="47.237 189.448 47.237 189.358 47.237 43.296 47.237 43.228 303.525 43.228 303.525 43.296 303.525 189.358 303.525 189.448" fill="none" stroke="#000" stroke-miterlimit="10" stroke-width="1.03242"/>
      </g>
    </g>
    <line x1="74.57257" y1="79.32136" x2="160.94075" y2="79.32136" fill="none" stroke="#fff" stroke-linecap="round" stroke-linejoin="round" stroke-width="5.41781"/>
    <line x1="74.57257" y1="93.77461" x2="134.96013" y2="93.77461" fill="none" stroke="#fff" stroke-linecap="round" stroke-linejoin="round" stroke-width="5.41781"/>
    <line x1="74.57257" y1="116.4577" x2="134.96013" y2="116.4577" fill="none" stroke="#0e4160" stroke-linecap="round" stroke-linejoin="round" stroke-width="2.70891"/>
    <line x1="74.57257" y1="127.32396" x2="121.2853" y2="127.32396" fill="none" stroke="#0e4160" stroke-linecap="round" stroke-linejoin="round" stroke-width="2.70891"/>
    <line x1="74.57257" y1="146.73244" x2="121.2853" y2="146.73244" fill="none" stroke="#fff" stroke-linecap="round" stroke-linejoin="round" stroke-width="2.70891"/>
    <rect x="203.05884" y="74.99723" width="78.96287" height="51.09362" rx="7.52778" fill="#fff"/>
    <rect x="210.17377" y="81.0279" width="23.33733" height="36.53825" fill="#f2f2f2"/>
    <line x1="242.54028" y1="83.39508" x2="262.49797" y2="83.39508" fill="none" stroke="#414042" stroke-miterlimit="10" stroke-width="2.85716"/>
    <line x1="242.54028" y1="89.10941" x2="265.35514" y2="89.10941" fill="none" stroke="#414042" stroke-miterlimit="10" stroke-width="2.85716"/>
    <line x1="242.54028" y1="98.82375" x2="265.35514" y2="98.82375" fill="none" stroke="#414042" stroke-miterlimit="10" stroke-width="1.14286"/>
    <line x1="242.54028" y1="101.68092" x2="265.35514" y2="101.68092" fill="none" stroke="#414042" stroke-miterlimit="10" stroke-width="1.14286"/>
    <line x1="242.54028" y1="105.10951" x2="265.35514" y2="105.10951" fill="none" stroke="#414042" stroke-miterlimit="10" stroke-width="1.14286"/>
    <line x1="242.54028" y1="107.96667" x2="265.35514" y2="107.96667" fill="none" stroke="#414042" stroke-miterlimit="10" stroke-width="1.14286"/>
    <g>
      <polygon points="244.438 356.669 270.431 372.223 287.162 346.856 261.755 333.047 244.438 356.669" fill="#b3b3b3"/>
      <path d="M238.25837,332.15945a.27782.27782,0,0,0,.0627.00321l.00035-.00553,34.81071,7.77658-3.30993,7.79785-32.51165-.15676.00015-.003c-.02115.00011-.0419.00285-.06314.0027-4.58348-.02211-8.07287-3.49084-7.79374-7.7476S233.12978,330.90773,238.25837,332.15945Z" fill="#b3b3b3"/>
      <path d="M240.85055,343.76825c.02-.00118.03978.00027.06-.00068l-.0007-.00506,30.8135-1.72726,1.93563,14.08817-30.81341,1.72735-.00042-.00273c-.02.00132-.03914.005-.05928.00609-4.34407.24351-8.29888-2.71233-8.83329-6.60205S236.50648,344.01176,240.85055,343.76825Z" fill="#b3b3b3"/>
      <path d="M243.153,355.7193c.01822.00074.03581.00381.05413.00478l0-.00458,27.99654,1.22934-.13508,12.76153-27.99647-1.22925v-.00248c-.0182-.00062-.03594.00095-.05423.00011-3.94693-.17331-7.11633-3.17013-7.079-6.69356S239.20606,355.546,243.153,355.7193Z" fill="#b3b3b3"/>
      <path d="M272.02083,322.03736a6.246,6.246,0,0,1,4.62354,1.61764l13.75255,11.63264a9.32388,9.32388,0,0,1,3.10388,6.79493l.47051,50.77812c-.007,2.95187-2.72621,5.21182-6.07348,5.04769l-12.13334-.59492c-3.34724-.16412-6.055-2.6901-6.04791-5.64194l2.43716-42.42535-10.63266-8.956-22.94419-.24164c-9.80308.158-15.31183-4.22728-13.72474-9.89037.93947-3.35227,2.86523-5.80891,10.41866-5.73894Z" fill="#b3b3b3"/>
      <g>
        <rect x="223.00041" y="271.69857" width="81.58825" height="53.12723" rx="4.02171" transform="translate(406.68712 -73.39572) rotate(62.5212)" fill="#2cb9ac"/>
        <g>
          <rect x="223.64148" y="271.53966" width="80.63955" height="52.17853" rx="3.16095" transform="translate(406.20713 -73.88774) rotate(62.51998)" fill="#37e8d7"/>
          <rect x="234.17402" y="286.20191" width="80.63957" height="11.89759" transform="translate(407.01958 -86.18222) rotate(62.52)" fill="#4a4a4a"/>
          <line x1="250.65752" y1="267.10736" x2="281.61683" y2="326.63037" fill="none" stroke="#4a4a4a" stroke-miterlimit="10" stroke-width="0.82207"/>
          <line x1="248.10491" y1="268.43504" x2="272.41781" y2="315.17952" fill="none" stroke="#4a4a4a" stroke-miterlimit="10" stroke-width="0.82207"/>
          <line x1="242.90268" y1="271.14084" x2="252.04215" y2="288.71257" fill="none" stroke="#4a4a4a" stroke-miterlimit="10" stroke-width="0.82207"/>
          <line x1="240.35006" y1="272.46852" x2="256.75475" y2="304.0085" fill="none" stroke="#4a4a4a" stroke-miterlimit="10" stroke-width="0.82207"/>
          <line x1="237.46812" y1="273.96748" x2="230.1441" y2="277.77688" fill="none" stroke="#4a4a4a" stroke-miterlimit="10" stroke-width="0.41104"/>
          <line x1="237.65779" y1="274.33214" x2="230.33377" y2="278.14154" fill="none" stroke="#4a4a4a" stroke-miterlimit="10" stroke-width="0.41104"/>
          <line x1="238.03712" y1="275.06146" x2="230.7131" y2="278.87085" fill="none" stroke="#4a4a4a" stroke-miterlimit="10" stroke-width="0.41104"/>
          <line x1="238.41646" y1="275.79078" x2="231.09244" y2="279.60017" fill="none" stroke="#4a4a4a" stroke-miterlimit="10" stroke-width="0.41104"/>
          <line x1="238.79579" y1="276.5201" x2="231.47177" y2="280.32949" fill="none" stroke="#4a4a4a" stroke-miterlimit="10" stroke-width="0.41104"/>
          <line x1="239.17513" y1="277.24942" x2="231.85111" y2="281.05881" fill="none" stroke="#4a4a4a" stroke-miterlimit="10" stroke-width="0.41104"/>
          <line x1="239.55447" y1="277.97873" x2="232.23045" y2="281.78813" fill="none" stroke="#4a4a4a" stroke-miterlimit="10" stroke-width="0.41104"/>
          <line x1="239.74413" y1="278.34339" x2="232.42011" y2="282.15279" fill="none" stroke="#4a4a4a" stroke-miterlimit="10" stroke-width="0.41104"/>
          <line x1="240.12347" y1="279.07271" x2="232.79945" y2="282.88211" fill="none" stroke="#4a4a4a" stroke-miterlimit="10" stroke-width="0.41104"/>
          <line x1="240.50281" y1="279.80203" x2="233.17879" y2="283.61143" fill="none" stroke="#4a4a4a" stroke-miterlimit="10" stroke-width="0.41104"/>
          <line x1="240.88214" y1="280.53135" x2="233.55812" y2="284.34075" fill="none" stroke="#4a4a4a" stroke-miterlimit="10" stroke-width="0.41104"/>
          <line x1="241.26148" y1="281.26067" x2="233.93746" y2="285.07006" fill="none" stroke="#4a4a4a" stroke-miterlimit="10" stroke-width="0.41104"/>
          <line x1="241.45115" y1="281.62533" x2="234.12713" y2="285.43472" fill="none" stroke="#4a4a4a" stroke-miterlimit="10" stroke-width="0.41104"/>
          <line x1="241.83048" y1="282.35465" x2="234.50646" y2="286.16404" fill="none" stroke="#4a4a4a" stroke-miterlimit="10" stroke-width="0.41104"/>
          <line x1="242.02015" y1="282.71931" x2="234.69613" y2="286.5287" fill="none" stroke="#4a4a4a" stroke-miterlimit="10" stroke-width="0.41104"/>
          <line x1="242.39949" y1="283.44863" x2="235.07546" y2="287.25802" fill="none" stroke="#4a4a4a" stroke-miterlimit="10" stroke-width="0.41104"/>
          <line x1="242.58915" y1="283.81329" x2="235.26513" y2="287.62268" fill="none" stroke="#4a4a4a" stroke-miterlimit="10" stroke-width="0.41104"/>
          <line x1="242.96849" y1="284.5426" x2="235.64447" y2="288.352" fill="none" stroke="#4a4a4a" stroke-miterlimit="10" stroke-width="0.41104"/>
          <line x1="243.34782" y1="285.27192" x2="236.0238" y2="289.08132" fill="none" stroke="#4a4a4a" stroke-miterlimit="10" stroke-width="0.41104"/>
          <line x1="243.72716" y1="286.00124" x2="236.40314" y2="289.81064" fill="none" stroke="#4a4a4a" stroke-miterlimit="10" stroke-width="0.41104"/>
          <line x1="244.1065" y1="286.73056" x2="236.78248" y2="290.53996" fill="none" stroke="#4a4a4a" stroke-miterlimit="10" stroke-width="0.41104"/>
          <line x1="244.6755" y1="287.82454" x2="237.35148" y2="291.63393" fill="none" stroke="#4a4a4a" stroke-miterlimit="10" stroke-width="0.41104"/>
          <line x1="245.05484" y1="288.55386" x2="237.73082" y2="292.36325" fill="none" stroke="#4a4a4a" stroke-miterlimit="10" stroke-width="0.41104"/>
          <line x1="244.48583" y1="287.45988" x2="237.16181" y2="291.26928" fill="none" stroke="#4a4a4a" stroke-miterlimit="10" stroke-width="0.41104"/>
          <line x1="245.41546" y1="289.24721" x2="238.09144" y2="293.0566" fill="none" stroke="#4a4a4a" stroke-miterlimit="10" stroke-width="0.41104"/>
          <line x1="245.60513" y1="289.61187" x2="238.28111" y2="293.42126" fill="none" stroke="#4a4a4a" stroke-miterlimit="10" stroke-width="0.41104"/>
          <line x1="245.98447" y1="290.34118" x2="238.66045" y2="294.15058" fill="none" stroke="#4a4a4a" stroke-miterlimit="10" stroke-width="0.41104"/>
          <line x1="246.3638" y1="291.0705" x2="239.03978" y2="294.8799" fill="none" stroke="#4a4a4a" stroke-miterlimit="10" stroke-width="0.41104"/>
          <line x1="246.74314" y1="291.79982" x2="239.41912" y2="295.60922" fill="none" stroke="#4a4a4a" stroke-miterlimit="10" stroke-width="0.41104"/>
          <line x1="247.12247" y1="292.52914" x2="239.79845" y2="296.33854" fill="none" stroke="#4a4a4a" stroke-miterlimit="10" stroke-width="0.41104"/>
          <line x1="247.50181" y1="293.25846" x2="240.17779" y2="297.06786" fill="none" stroke="#4a4a4a" stroke-miterlimit="10" stroke-width="0.41104"/>
          <line x1="247.69148" y1="293.62312" x2="240.36746" y2="297.43251" fill="none" stroke="#4a4a4a" stroke-miterlimit="10" stroke-width="0.41104"/>
          <g>
            <line x1="261.11179" y1="319.42529" x2="253.78777" y2="323.23469" fill="none" stroke="#4a4a4a" stroke-miterlimit="10" stroke-width="0.41104"/>
            <line x1="261.30146" y1="319.78995" x2="253.97744" y2="323.59935" fill="none" stroke="#4a4a4a" stroke-miterlimit="10" stroke-width="0.41104"/>
            <line x1="261.6808" y1="320.51927" x2="254.35678" y2="324.32867" fill="none" stroke="#4a4a4a" stroke-miterlimit="10" stroke-width="0.41104"/>
            <line x1="262.06013" y1="321.24859" x2="254.73611" y2="325.05799" fill="none" stroke="#4a4a4a" stroke-miterlimit="10" stroke-width="0.41104"/>
            <line x1="262.43947" y1="321.97791" x2="255.11545" y2="325.78731" fill="none" stroke="#4a4a4a" stroke-miterlimit="10" stroke-width="0.41104"/>
            <line x1="262.81881" y1="322.70723" x2="255.49479" y2="326.51662" fill="none" stroke="#4a4a4a" stroke-miterlimit="10" stroke-width="0.41104"/>
            <line x1="263.19814" y1="323.43655" x2="255.87412" y2="327.24594" fill="none" stroke="#4a4a4a" stroke-miterlimit="10" stroke-width="0.41104"/>
            <line x1="263.38781" y1="323.80121" x2="256.06379" y2="327.6106" fill="none" stroke="#4a4a4a" stroke-miterlimit="10" stroke-width="0.41104"/>
            <line x1="263.76715" y1="324.53053" x2="256.44313" y2="328.33992" fill="none" stroke="#4a4a4a" stroke-miterlimit="10" stroke-width="0.41104"/>
            <line x1="264.14648" y1="325.25985" x2="256.82246" y2="329.06924" fill="none" stroke="#4a4a4a" stroke-miterlimit="10" stroke-width="0.41104"/>
            <line x1="264.52582" y1="325.98916" x2="257.2018" y2="329.79856" fill="none" stroke="#4a4a4a" stroke-miterlimit="10" stroke-width="0.41104"/>
            <line x1="264.90515" y1="326.71848" x2="257.58113" y2="330.52788" fill="none" stroke="#4a4a4a" stroke-miterlimit="10" stroke-width="0.41104"/>
            <line x1="265.09482" y1="327.08314" x2="257.7708" y2="330.89254" fill="none" stroke="#4a4a4a" stroke-miterlimit="10" stroke-width="0.41104"/>
            <line x1="265.47416" y1="327.81246" x2="258.15014" y2="331.62186" fill="none" stroke="#4a4a4a" stroke-miterlimit="10" stroke-width="0.41104"/>
            <line x1="265.66382" y1="328.17712" x2="258.3398" y2="331.98652" fill="none" stroke="#4a4a4a" stroke-miterlimit="10" stroke-width="0.41104"/>
            <line x1="266.04316" y1="328.90644" x2="258.71914" y2="332.71583" fill="none" stroke="#4a4a4a" stroke-miterlimit="10" stroke-width="0.41104"/>
            <line x1="266.23283" y1="329.2711" x2="258.90881" y2="333.08049" fill="none" stroke="#4a4a4a" stroke-miterlimit="10" stroke-width="0.41104"/>
            <line x1="266.61216" y1="330.00042" x2="259.28814" y2="333.80981" fill="none" stroke="#4a4a4a" stroke-miterlimit="10" stroke-width="0.41104"/>
            <line x1="266.9915" y1="330.72974" x2="259.66748" y2="334.53913" fill="none" stroke="#4a4a4a" stroke-miterlimit="10" stroke-width="0.41104"/>
            <line x1="267.37084" y1="331.45906" x2="260.04682" y2="335.26845" fill="none" stroke="#4a4a4a" stroke-miterlimit="10" stroke-width="0.41104"/>
            <line x1="267.75017" y1="332.18837" x2="260.42615" y2="335.99777" fill="none" stroke="#4a4a4a" stroke-miterlimit="10" stroke-width="0.41104"/>
            <line x1="268.12951" y1="332.91769" x2="260.80549" y2="336.72709" fill="none" stroke="#4a4a4a" stroke-miterlimit="10" stroke-width="0.41104"/>
          </g>
          <line x1="248.07081" y1="294.35244" x2="240.74679" y2="298.16183" fill="none" stroke="#4a4a4a" stroke-miterlimit="10" stroke-width="0.41104"/>
          <line x1="248.45015" y1="295.08176" x2="241.12613" y2="298.89115" fill="none" stroke="#4a4a4a" stroke-miterlimit="10" stroke-width="0.41104"/>
          <line x1="248.82949" y1="295.81108" x2="241.50546" y2="299.62047" fill="none" stroke="#4a4a4a" stroke-miterlimit="10" stroke-width="0.41104"/>
          <line x1="249.20882" y1="296.54039" x2="241.8848" y2="300.34979" fill="none" stroke="#4a4a4a" stroke-miterlimit="10" stroke-width="0.41104"/>
          <line x1="249.39849" y1="296.90505" x2="242.07447" y2="300.71445" fill="none" stroke="#4a4a4a" stroke-miterlimit="10" stroke-width="0.41104"/>
          <line x1="249.77783" y1="297.63437" x2="242.4538" y2="301.44377" fill="none" stroke="#4a4a4a" stroke-miterlimit="10" stroke-width="0.41104"/>
          <line x1="249.96749" y1="297.99903" x2="242.64347" y2="301.80843" fill="none" stroke="#4a4a4a" stroke-miterlimit="10" stroke-width="0.41104"/>
          <line x1="250.34683" y1="298.72835" x2="243.02281" y2="302.53775" fill="none" stroke="#4a4a4a" stroke-miterlimit="10" stroke-width="0.41104"/>
          <line x1="250.5365" y1="299.09301" x2="243.21248" y2="302.90241" fill="none" stroke="#4a4a4a" stroke-miterlimit="10" stroke-width="0.41104"/>
          <line x1="250.91583" y1="299.82233" x2="243.59181" y2="303.63172" fill="none" stroke="#4a4a4a" stroke-miterlimit="10" stroke-width="0.41104"/>
          <line x1="251.29517" y1="300.55165" x2="243.97115" y2="304.36104" fill="none" stroke="#4a4a4a" stroke-miterlimit="10" stroke-width="0.41104"/>
          <line x1="251.6745" y1="301.28097" x2="244.35048" y2="305.09036" fill="none" stroke="#4a4a4a" stroke-miterlimit="10" stroke-width="0.41104"/>
          <line x1="252.05384" y1="302.01029" x2="244.72982" y2="305.81968" fill="none" stroke="#4a4a4a" stroke-miterlimit="10" stroke-width="0.41104"/>
          <line x1="252.62284" y1="303.10426" x2="245.29882" y2="306.91366" fill="none" stroke="#4a4a4a" stroke-miterlimit="10" stroke-width="0.41104"/>
          <line x1="253.00218" y1="303.83358" x2="245.67816" y2="307.64298" fill="none" stroke="#4a4a4a" stroke-miterlimit="10" stroke-width="0.41104"/>
          <line x1="252.43318" y1="302.73961" x2="245.10916" y2="306.549" fill="none" stroke="#4a4a4a" stroke-miterlimit="10" stroke-width="0.41104"/>
          <line x1="253.42859" y1="304.6534" x2="246.10457" y2="308.4628" fill="none" stroke="#4a4a4a" stroke-miterlimit="10" stroke-width="0.41104"/>
          <line x1="253.61825" y1="305.01806" x2="246.29423" y2="308.82745" fill="none" stroke="#4a4a4a" stroke-miterlimit="10" stroke-width="0.41104"/>
          <line x1="253.99759" y1="305.74738" x2="246.67357" y2="309.55677" fill="none" stroke="#4a4a4a" stroke-miterlimit="10" stroke-width="0.41104"/>
          <line x1="254.37693" y1="306.4767" x2="247.0529" y2="310.28609" fill="none" stroke="#4a4a4a" stroke-miterlimit="10" stroke-width="0.41104"/>
          <line x1="254.75626" y1="307.20602" x2="247.43224" y2="311.01541" fill="none" stroke="#4a4a4a" stroke-miterlimit="10" stroke-width="0.41104"/>
          <line x1="255.1356" y1="307.93534" x2="247.81158" y2="311.74473" fill="none" stroke="#4a4a4a" stroke-miterlimit="10" stroke-width="0.41104"/>
          <line x1="255.51493" y1="308.66465" x2="248.19091" y2="312.47405" fill="none" stroke="#4a4a4a" stroke-miterlimit="10" stroke-width="0.41104"/>
          <line x1="255.7046" y1="309.02931" x2="248.38058" y2="312.83871" fill="none" stroke="#4a4a4a" stroke-miterlimit="10" stroke-width="0.41104"/>
          <line x1="256.08394" y1="309.75863" x2="248.75992" y2="313.56803" fill="none" stroke="#4a4a4a" stroke-miterlimit="10" stroke-width="0.41104"/>
          <line x1="256.46327" y1="310.48795" x2="249.13925" y2="314.29735" fill="none" stroke="#4a4a4a" stroke-miterlimit="10" stroke-width="0.41104"/>
          <line x1="256.84261" y1="311.21727" x2="249.51859" y2="315.02667" fill="none" stroke="#4a4a4a" stroke-miterlimit="10" stroke-width="0.41104"/>
          <line x1="257.22194" y1="311.94659" x2="249.89792" y2="315.75598" fill="none" stroke="#4a4a4a" stroke-miterlimit="10" stroke-width="0.41104"/>
          <line x1="257.41161" y1="312.31125" x2="250.08759" y2="316.12064" fill="none" stroke="#4a4a4a" stroke-miterlimit="10" stroke-width="0.41104"/>
          <line x1="257.79095" y1="313.04057" x2="250.46693" y2="316.84996" fill="none" stroke="#4a4a4a" stroke-miterlimit="10" stroke-width="0.41104"/>
          <line x1="257.98062" y1="313.40523" x2="250.6566" y2="317.21462" fill="none" stroke="#4a4a4a" stroke-miterlimit="10" stroke-width="0.41104"/>
          <line x1="258.35995" y1="314.13455" x2="251.03593" y2="317.94394" fill="none" stroke="#4a4a4a" stroke-miterlimit="10" stroke-width="0.41104"/>
          <line x1="258.54962" y1="314.49921" x2="251.2256" y2="318.3086" fill="none" stroke="#4a4a4a" stroke-miterlimit="10" stroke-width="0.41104"/>
          <line x1="258.92896" y1="315.22852" x2="251.60494" y2="319.03792" fill="none" stroke="#4a4a4a" stroke-miterlimit="10" stroke-width="0.41104"/>
          <line x1="259.30829" y1="315.95784" x2="251.98427" y2="319.76724" fill="none" stroke="#4a4a4a" stroke-miterlimit="10" stroke-width="0.41104"/>
          <line x1="259.68763" y1="316.68716" x2="252.36361" y2="320.49656" fill="none" stroke="#4a4a4a" stroke-miterlimit="10" stroke-width="0.41104"/>
          <line x1="260.06696" y1="317.41648" x2="252.74294" y2="321.22588" fill="none" stroke="#4a4a4a" stroke-miterlimit="10" stroke-width="0.41104"/>
          <line x1="260.63597" y1="318.51046" x2="253.31195" y2="322.31985" fill="none" stroke="#4a4a4a" stroke-miterlimit="10" stroke-width="0.41104"/>
          <line x1="261.0153" y1="319.23978" x2="253.69128" y2="323.04917" fill="none" stroke="#4a4a4a" stroke-miterlimit="10" stroke-width="0.41104"/>
          <line x1="260.4463" y1="318.1458" x2="253.12228" y2="321.95519" fill="none" stroke="#4a4a4a" stroke-miterlimit="10" stroke-width="0.41104"/>
        </g>
      </g>
      <path d="M277.43059,378.07055l-6.077-53.81485c-1.13378-4.41106-6.0556-7.356-10.99343-6.57794s-6.89633,2.61074-6.88783,9.39582l.10344,14.23.7525,9.0117A26.32518,26.32518,0,0,0,255.641,360.3781c1.79859,5.35435.13374-3.78356-1.80771,1.49045l-.52435,1.68471c-3.70871,13.12366-.77277,27.481,3.15264,33.48669,1.98342,3.03454,2.93867,5.58748,6.086,7.59738,4.8303,3.08465,7.33337,17.95147,10.13077,27.26435,3.94928,13.14761,6.6077,36.6317,6.6077,36.6317l21.16948,166.22117L346.63676,592.223,293.97131,392.86069" fill="#b3b3b3"/>
    </g>
  </g>
</svg>
