<svg id="etO2BIdWlKU1" xmlns="http://www.w3.org/2000/svg" xmlns:xlink="http://www.w3.org/1999/xlink" viewBox="80 0 441.1 626.6" shape-rendering="geometricPrecision" text-rendering="geometricPrecision">
<style><![CDATA[
#etO2BIdWlKU99_to {animation: etO2BIdWlKU99_to__to 4600ms linear infinite normal forwards}@keyframes etO2BIdWlKU99_to__to { 0% {transform: translate(453.732086px,850.516608px)} 50% {transform: translate(453.732086px,850.516608px)} 67.391304% {transform: translate(453.732086px,420.951502px)} 69.565217% {transform: translate(453.732086px,427.951502px)} 78.26087% {transform: translate(453.732086px,427.951502px)} 95.652174% {transform: translate(398.280371px,850.516608px)} 100% {transform: translate(398.280371px,850.516608px)}} #etO2BIdWlKU112_to {animation: etO2BIdWlKU112_to__to 4600ms linear infinite normal forwards}@keyframes etO2BIdWlKU112_to__to { 0% {transform: translate(576.300017px,822.91461px)} 19.565217% {transform: translate(274.300606px,463.909821px)} 21.73913% {transform: translate(277.300606px,469.909821px)} 32.608696% {transform: translate(277.300606px,469.909821px)} 50% {transform: translate(256.690742px,838.716638px)} 100% {transform: translate(256.690742px,838.716638px)}}
]]></style>
<defs><path id="etO2BIdWlKU2" d="M404.1,169c0,0-.6,6.2,4,6.5s11.6,0,11.6,0l-3.3,116h-5.9c0,0-4.9-.6-5.7-1.2L404.1,169Z"/><path id="etO2BIdWlKU3" d="M504.3,163.6c0,0-.9-3.1-1.7-.1s-1.6,12.1-5.5,12.1c-4.7,0-7.8,0-7.8,0l3.3,116h5.9c0,0,4.9-.6,5.7-1.2l.1-126.8Z"/></defs><g><path d="M506.4,162.2c-.1,0-.1.1-.1.1v1.7v39.6h-.3c-.1,0-.1.1-.1.1v.1v0h-1.6v-38.5-1.7c0-.1-.1-.1-.1-.1h-1.6c-.1,0-.1.1-.1.1v1.7v6.8c0,2.1-3.7,3.7-8.3,3.7h-81.7c-.9,0-1.8-.1-2.6-.2v0v0c-.2,0-.4,0-.6,0s-.4,0-.6,0c-.4,0-.7-.1-1.1-.2-.3-.1-.7-.2-1-.3s-.6-.3-.8-.4c-.1-.1-.2-.2-.3-.3s-.2-.2-.3-.3c-.2-.2-.4-.4-.5-.6s-.2-.4-.3-.7c-.1-.2-.1-.5-.1-.7v-59.8v0v0l-.1-.7v0l-.3-.7-.5-.7-.7-.7-.9-.6-1-.6-1.2-.6-1.3-.5-1.5-.4-1.6-.4-1.7-.3-1.8-.3-1.8-.2-1.9-.1h-1.9v0h-223.6v0h-1.9l-1.9.1-1.8.2-1.8.3-1.7.3-1.6.4-1.5.4-1.3.5-1.2.6-1,.6-.9.6-.7.7-.5.7-.3.7v0l-.1.7v0v0v91.5h-1.6v-.2c0-.1-.1-.1-.1-.1h-.3v-83.9-6.8c0-.1-.1-.1-.1-.1h-2.7c-.1,0-.1.1-.1.1v6.8v152.4v14.1v118.8c0,1.7,1.7,3.3,4.9,4.5v217.2h360.1v-217.2c3.1-1.2,4.9-2.8,4.9-4.5v-119.1-23.9-97.9-1.7c0-.1-.1-.1-.1-.1h-2.8Z" fill="#e7e7e7"/><g><path d="M144.7,294.7v-2.9c0,0-5.3-13.4,14.4-13.6c19.6-.1,227.3,0,227.3,0s14.8.7,15.7,5.9.6,7.2,8.4,7.5s84.1,0,84.1,0s8.8.8,10-4.3v9l-358-1-1.9-.6" opacity="0.32" fill="#555b5f"/></g><rect width="362.3" height="3.8" rx="0" ry="0" transform="translate(144.7 291.7)" fill="#555b5f"/><g opacity="0.45"><g><g clip-path="url(#etO2BIdWlKU18)"><g opacity="0.23"><rect width="4.1" height="119.2" rx="0" ry="0" transform="translate(404.1 172.1)" fill="#555b5f"/><polygon points="405.5,171.9 410.4,171.9 410.4,291.6 405.5,291.6 405.5,291.4 408,291.4 408,172.1 405.5,172.1"/><rect width="4.6" height="119.7" rx="0" ry="0" transform="translate(410.4 171.9)" fill="#555b5f"/><g><rect width="1.5" height="118.8" rx="0" ry="0" transform="translate(407 172.3)" fill="#1a1a1a"/></g></g><clipPath id="etO2BIdWlKU18"><use width="15.625702" height="122.5" xlink:href="#etO2BIdWlKU2"/></clipPath></g></g></g><g opacity="0.45"><g><g clip-path="url(#etO2BIdWlKU29)"><g opacity="0.23"><polygon points="500.7,291.4 501.5,160.2 504.8,159.6 504.8,291.4" fill="#555b5f"/><polygon points="503.4,172.1 500.9,172.1 500.9,291.4 503.4,291.4 503.4,291.6 498.5,291.6 498.5,171.9 503.4,171.9"/><rect width="4.6" height="119.7" rx="0" ry="0" transform="translate(493.9 171.9)" fill="#555b5f"/><g><rect width="1.5" height="118.8" rx="0" ry="0" transform="translate(500.4 172.3)" fill="#1a1a1a"/></g></g><clipPath id="etO2BIdWlKU29"><use width="15" height="129.407898" xlink:href="#etO2BIdWlKU3"/></clipPath></g></g></g><rect width="359.4" height="24.2" rx="0" ry="0" transform="translate(145.2 294.5)" fill="#d4d4d4"/><g opacity="0.23"><rect width="358.8" height="7.7" rx="0" ry="0" transform="translate(145.2 309)" fill="#d4d4d4"/><polygon points="504.8,311.7 504.8,320.9 144.5,320.9 144.5,311.7 145.2,311.7 145.2,316.4 504.1,316.4 504.1,311.7" fill="#fff"/><rect width="360.3" height="8.6" rx="0" ry="0" transform="translate(144.5 320.9)" fill="#d4d4d4"/><g><rect width="360.3" height="2.8" rx="0" ry="0" transform="translate(145.8 314.5)" fill="#fff"/></g></g><g><path d="M487,423c-.1,3.2-2.6,5.6-5.4,5.5h-89.8c-2.9.2-5.3-2.3-5.4-5.5v-71c.1-3.2,2.6-5.6,5.4-5.5h89.8c2.9-.2,5.3,2.3,5.4,5.5v71v0Z" fill="#e5e5e5" stroke="#4a4a4a" stroke-width="0.3565" stroke-miterlimit="10"/><path d="M460.6,397.7c0,.5-.4,1-.9,1h-46.1c-.4,0-.9-.5-.9-1v-1.4c0-.5.4-1,.9-1h46.1c.4,0,.9.5.9,1v1.4v0Z" fill="#2a353f" stroke="#000" stroke-width="0.5513" stroke-linecap="round" stroke-linejoin="round"/><rect width="47.9" height="1" rx="0" ry="0" transform="translate(412.8 396.6)" fill="none" stroke="#000" stroke-width="0.1103" stroke-linecap="round" stroke-linejoin="round"/><path d="M460.6,397.5v.2c0,.5-.4,1-.9,1h-46.1c-.4,0-.9-.5-.9-1v-.2h47.9Z" fill="#161b1e" stroke="#000" stroke-width="0.1103" stroke-linecap="round" stroke-linejoin="round"/><path d="M460.6,396.3v.2h-47.9v-.2c0-.5.4-1,.9-1h46.1c.6,0,.9.4.9,1Z" fill="#161b1e" stroke="#000" stroke-width="0.1103" stroke-linecap="round" stroke-linejoin="round"/><rect width="47.9" height="1" rx="0" ry="0" transform="translate(412.8 396.6)" fill="none" stroke="#000" stroke-width="0.1103" stroke-linecap="round" stroke-linejoin="round"/><rect width="47.9" height="1" rx="0" ry="0" transform="translate(412.8 396.6)" stroke="#000" stroke-width="0.1103" stroke-linecap="round" stroke-linejoin="round"/></g><path d="M290.6,362.3h-32.6c-.7-.1-1.3-.8-1.3-1.8-.1-1,.6-1.9,1.3-2h32.6c.7.1,1.3.8,1.3,1.8.1,1.1-.5,1.9-1.3,2Z" fill="#fff"/><circle r="3.2" transform="translate(274.8 119.6)" fill="#2a353f" stroke="#000" stroke-width="0.093122" stroke-linecap="round" stroke-linejoin="round" stroke-miterlimit="1"/><path d="M378.4,260.2c0,2.1-1.7,3.8-3.8,3.8h-199.6c-2.1,0-3.8-1.7-3.8-3.8v-120c0-2.1,1.7-3.8,3.8-3.8h199.6c2.1,0,3.8,1.7,3.8,3.8v120v0Z" fill="#2a353f" stroke="#000" stroke-width="0.093122" stroke-linecap="round" stroke-linejoin="round" stroke-miterlimit="1"/><path d="M374.6,136.5h-199.6c-2.1,0-3.8,1.7-3.8,3.8v120c0,2.1,1.7,3.8,3.8,3.8h199.6c2.1,0,3.8-1.7,3.8-3.8v-120.1c0-2.1-1.7-3.7-3.8-3.7Zm-8.7,115.1h-182.2v-102.7h182.2v102.7Z" stroke="#000" stroke-width="0.093122" stroke-linecap="round" stroke-linejoin="round" stroke-miterlimit="1"/><rect width="182.2" height="102.7" rx="0" ry="0" transform="translate(183.7 148.9)" fill="#37e6d5" stroke="#000" stroke-width="0.093122" stroke-linecap="round" stroke-linejoin="round" stroke-miterlimit="1"/><circle r="3.2" transform="translate(274.8 119.6)" stroke="#000" stroke-width="0.093122" stroke-linecap="round" stroke-linejoin="round" stroke-miterlimit="1"/><g><circle r="20.8" transform="translate(321.7 214.7)" fill="#fff"/><line x1="303.8" y1="169" x2="340" y2="169" fill="none" stroke="#fff" stroke-width="5.8003" stroke-linecap="round" stroke-miterlimit="1"/><line x1="210.7" y1="164.8" x2="246.8" y2="164.8" fill="none" stroke="#fff" stroke-width="4.853" stroke-linecap="round" stroke-miterlimit="1"/><line x1="210.7" y1="173.1" x2="246.8" y2="173.1" fill="none" stroke="#fff" stroke-width="4.853" stroke-linecap="round" stroke-miterlimit="1"/><line x1="214.6" y1="196.5" x2="240.9" y2="196.5" fill="none" stroke="#fff" stroke-width="4.853" stroke-linecap="round" stroke-miterlimit="1"/><line x1="209.7" y1="206.2" x2="245.9" y2="206.2" fill="none" stroke="#0d4160" stroke-width="2.4266" stroke-linecap="round" stroke-miterlimit="1"/><line x1="268" y1="169" x2="282" y2="169" fill="none" stroke="#0d4160" stroke-width="4.853" stroke-linecap="round" stroke-miterlimit="1"/><line x1="214.6" y1="223.1" x2="240.9" y2="223.1" fill="none" stroke="#fff" stroke-width="4.853" stroke-linecap="round" stroke-miterlimit="1"/><line x1="209.7" y1="232.8" x2="245.9" y2="232.8" fill="none" stroke="#0d4160" stroke-width="2.4266" stroke-linecap="round" stroke-miterlimit="1"/></g><path d="M144.5,408c0,0-4.2-1.1-4.2-5.4v-290.2h4.2v295.6Z" fill="#1a1a1a"/><path d="M504.3,408.8v0-246.6h4.3v239.9c0,3.2-.4,5-4.3,6.7Z" fill="#1a1a1a"/><g><path d="M428.7,238.8v-3.7c.1-1.8,1.4-3.3,3-3.3h44c1.6-.1,2.9,1.4,3,3.3v3.7h-50Z" fill="#808080"/><rect width="50" height="10" rx="0" ry="0" transform="translate(428.7 238.8)" fill="#979797"/><path d="M428.7,266.6v-17.8h50v17.8c-.1,1.8-1.4,3.3-3,3.3h-43.9c-1.7.1-3.1-1.3-3.1-3.3Z" fill="#979797"/><g><path d="M207.2,306.9v-3.7c.1-1.8,1.4-3.3,3-3.3h128.3c1.6-.1,2.9,1.4,3,3.3v3.7h-134.3Z" fill="#979797"/><rect width="134.3" height="10" rx="0" ry="0" transform="translate(207.3 306.9)" fill="#979797"/><path d="M207.2,342.5v-25.6h134.3v25.6c-.1,1.8-1.4,3.3-3,3.3h-128.3c-1.5,0-2.9-1.4-3-3.3Z" fill="#808080"/></g><rect width="34.5" height="5" rx="0" ry="0" transform="translate(436.4 248)"/></g><path d="M341.6,338.4v3.7c-.1,1.8-1.4,3.3-3,3.3h-128.3c-1.6.1-2.9-1.4-3-3.3v-3.7h134.3Z" opacity="0.38" fill="#dfdfdf"/><rect width="106.1" height="10.4" rx="0" ry="0" transform="translate(221.3 319.3)"/><rect width="106.1" height="2.4" rx="0" ry="0" transform="translate(221.3 323.3)" fill="#34393d" stroke="#000" stroke-width="0.096109" stroke-linecap="round" stroke-linejoin="round"/><g><path d="M366.7,252.2h-184.6v-104h184.7l-.1,104v0Z" stroke="#000" stroke-width="0.09435" stroke-linecap="round" stroke-linejoin="round"/><rect width="184.7" height="104.1" rx="0" ry="0" transform="translate(182.1 148.2)" fill="#fe7f78" stroke="#000" stroke-width="0.09435" stroke-linecap="round" stroke-linejoin="round"/><g><g><path d="M267.4,173.1h-67c-1.1,0-2-.9-2-2s.9-2,2-2h67c1.1,0,2,.9,2,2c0,1-.8,2-2,2v0Z" fill="#fff"/><path d="M247.2,183.2h-46.9c-1.1,0-2-.9-2-2s.9-2,2-2h46.9c1.1,0,2,.9,2,2c.1,1-.8,2-2,2Z" fill="#fff"/><path d="M246.2,198h-46.9c-.5,0-1.1-.4-1.1-1.1c0-.5.4-1.1,1.1-1.1h46.9c.5,0,1.1.4,1.1,1.1c0,.5-.5,1.1-1.1,1.1Z" fill="#0d4160"/><path d="M235.6,205.6h-36.3c-.5,0-1.1-.4-1.1-1.1c0-.5.4-1.1,1.1-1.1h36.3c.5,0,1.1.4,1.1,1.1c0,.5-.6,1.1-1.1,1.1Z" fill="#0d4160"/></g><g><g><polygon points="350.2,252.2 292.7,252.2 292.7,175.7 350.3,175.7" fill="#f0f0f0"/><g><rect width="37.8" height="37.8" rx="0" ry="0" transform="translate(303.2 188.9)" fill="#fff"/><g><rect width="6.2" height="6.2" rx="0" ry="0" transform="translate(322.1 195.1)" fill="#231f20"/><rect width="6.2" height="6.2" rx="0" ry="0" transform="translate(328.5 188.9)" fill="#231f20"/><rect width="6.2" height="12.6" rx="0" ry="0" transform="translate(334.9 195.1)" fill="#231f20"/><polygon points="328.5,214.1 328.5,207.5 322.1,207.5 322.1,214.1 328.5,214.1 328.5,220.3 334.9,220.3 334.9,226.5 341.1,226.5 341.1,214.1" fill="#231f20"/><rect width="6.2" height="6.2" rx="0" ry="0" transform="translate(315.8 214.1)" fill="#231f20"/><polygon points="309.5,207.5 315.8,207.5 315.8,195.1 322.1,195.1 322.1,188.9 303.2,188.9 303.2,201.4 309.5,201.4" fill="#231f20"/><polygon points="309.5,214.1 303.2,214.1 303.2,226.5 315.8,226.5 315.8,220.3 309.5,220.3" fill="#231f20"/></g></g></g><path d="M344.2,169h-45.7c-3.5,0-6.2,2.8-6.2,6.2l.1,77h.9l-.1-76.4h56.3v76.4h.9v-76.9c-.1-3.4-2.9-6-6.2-6.3Z" fill="#231f20"/></g></g></g></g><g id="etO2BIdWlKU99_to" transform="translate(453.732086,850.516608)"><g transform="translate(-453.732086,-416.148499)"><g><g><g><path d="M484.2,213.8v107.6c0,.9-.2,1.8-.4,2.6h-56.6c-.3-.8-.5-1.7-.4-2.6v-107.6c0-.8.2-1.6.4-2.3h56.7c.2.8.3,1.6.3,2.3Z" fill="#1a1a1a"/><path d="M483.8,211.5h-56.7c1-3.4,4.2-5.7,7.7-5.7h41.3c3.6-.1,6.7,2.3,7.7,5.7Z" fill="#1a1a1a"/><path d="M427.1,323.9h56.6c-1,3.3-4.2,5.6-7.7,5.6h-41.2c-3.5,0-6.6-2.3-7.7-5.6Z" fill="#1a1a1a"/></g><g><path d="M483.7,323.9c-1,3.3-4.2,5.6-7.7,5.6h-41.2c-3.5,0-6.6-2.3-7.7-5.6-.3-.8-.5-1.7-.4-2.6v-107.5c0-.8.2-1.6.4-2.3c1-3.4,4.2-5.7,7.7-5.7h41.3c3.5,0,6.7,2.3,7.7,5.7.2.7.4,1.5.4,2.3v107.6c.1.8-.2,1.6-.5,2.5Z" fill="none" stroke="#231f20" stroke-width="0.3615" stroke-miterlimit="10"/><polyline points="427,211.5 427,211.5 483.8,211.5" fill="none" stroke="#231f20" stroke-width="0.3615" stroke-miterlimit="10"/><polyline points="427,323.9 427.1,323.9 483.7,323.9" fill="none" stroke="#231f20" stroke-width="0.3615" stroke-miterlimit="10"/></g></g><circle r="3.9" transform="translate(440.7 221.5)" fill="#b1b1b1"/></g><path d="M491.7,271.2c0,0-1.3-6.5-7.8-4.9l3.4-1.1c3.6-1.4,5.6-5.3,4.5-9c0,0-1.4-7-8.5-4.8l-49.9,16-3.5-12.1c-1-3.7-4.8-6-8.5-5.1h-.1c-.1,0-.2.1-.3.1l-.6.2c-3.8,1.4-5.9,5.6-4.7,9.4l6.8,23.6-.2,343h47l.2-316l12.7-4c3.5-1.2,5.6-4.9,4.6-8.5-.3-1.3-1-2.5-1.9-3.5l.9-.2c3.5-1.2,5.6-4.9,4.6-8.5c0,0-.9-4.7-5.4-4.8l2.2-.7c3.7-1.4,5.7-5.4,4.5-9.1Z" fill="#b1b1b1"/></g></g><g id="etO2BIdWlKU112_to" transform="translate(576.300017,822.91461)"><g transform="translate(-300.500015,-440.750031)"><ellipse rx="15.5" ry="15.5" transform="translate(124.3 375.1)" fill="#acacac"/><g><path d="M498.4,626.4l-64-.3-65.4.4-103.8-96.8c-23.2,5.3-85.7-9.6-92.4-29.9l20.8-29.5.2-.2c26.9-30.2,75.3-57.4,75.3-57.4l3.7-10h23.2c1.2,1.1,2.3,2.8,2.5,4.7l5.6,36.2c.9,6.7,4.5,12.8,10,16.9L498.4,626.4Z" fill="#acacac"/><path d="M269.1,412.8c0,0-48.2,27.2-75.3,57.4L239,406.1c10.3,0,20.7,2.3,30.1,6.7Z" fill="#808080"/></g><g><g><path d="M245.9,267.1v234.9h-.2l-.6-.2h-119.3v-234.7l.8-.2h118.5l.8.2Z" fill="#cfd0d0"/><path d="M245.9,267.1l-.6-.2h-118.7l-.8.2c0-6.7,5.3-12.1,12.1-12.1v0h95.8c6.7,0,12.1,5.3,12.1,12c.1-.1.1-.1.1.1Z" fill="#333"/><path d="M245,501.9l.6.2c-.2,6.5-5.6,11.5-12.1,11.5h-95.8c-6.5-.2-11.7-5.1-12.1-11.5l.8-.2h118.6v0Z" fill="#333"/></g><g><path d="M245.7,501.9c-.2,6.5-5.6,11.5-12.1,11.5h-95.8c-6.5-.2-11.7-5.1-12.1-11.5h-.2v-234.8c0-6.7,5.3-12.1,12.1-12.1v0h95.8c6.7,0,12.1,5.3,12.1,12c0,.2,0,.2,0,.2v234.8l.2-.1v0v0Z" fill="none" stroke="#333" stroke-width="0.6683" stroke-miterlimit="10"/><line x1="126.5" y1="266.9" x2="245.1" y2="266.9" fill="none" stroke="#231f20" stroke-width="0.6683" stroke-miterlimit="10"/><line x1="126.8" y1="501.9" x2="245" y2="501.9" fill="none" stroke="#231f20" stroke-width="0.6683" stroke-miterlimit="10"/></g><rect width="79.3" height="79.3" rx="0" ry="0" transform="translate(145.8 344.5)" fill="#fff"/><g><polygon points="145.8,344.5 145.8,370.9 159,370.9 159,384.1 172.2,384.1 172.2,357.7 185.4,357.7 185.4,344.5" fill="#231f20"/><rect width="13.1" height="13.1" rx="0" ry="0" transform="translate(185.4 357.7)" fill="#231f20"/><rect width="13.1" height="13.1" rx="0" ry="0" transform="translate(198.6 344.5)" fill="#231f20"/><rect width="13.1" height="26.4" rx="0" ry="0" transform="translate(211.8 357.7)" fill="#231f20"/><polygon points="198.6,384.1 185.4,384.1 185.4,397.4 198.6,397.4 198.6,410.7 211.8,410.7 211.8,423.8 225.1,423.8 225.1,397.4 198.6,397.4" fill="#231f20"/><rect width="13.1" height="13.1" rx="0" ry="0" transform="translate(172.2 397.4)" fill="#231f20"/><polygon points="159,397.4 145.8,397.4 145.8,423.8 172.2,423.8 172.2,410.7 159,410.7" fill="#231f20"/></g></g><g><g><path d="M124.8,437.5c8.1,0,14.9,6.7,14.9,14.9v.2c0,3.9-1.6,7.8-4.4,10.6s-6.5,4.4-10.6,4.4h-7c-8.1,0-14.9-6.7-14.9-14.9v-.2c0-3.9,1.6-7.8,4.4-10.6s6.5-4.4,10.6-4.4h7Z" fill="#acacac"/><path d="M124.8,470.3c8.1,0,14.9,6.7,14.9,14.9v.2c0,3.9-1.6,7.8-4.4,10.6s-6.5,4.4-10.6,4.4h-7c-8.1,0-14.9-6.5-14.9-14.8c0,0,0,0,0-.2c0-3.9,1.6-7.8,4.4-10.6s6.5-4.4,10.6-4.4l7-.1v0Z" fill="#acacac"/><path d="M118.5,403c8.7,0,15.9,7.2,15.9,15.9s-7.2,15.9-15.9,15.9-15.9-7.2-15.9-15.9v0c.1-8.8,7.1-15.9,15.9-15.9-.1,0,0,0,0,0Z" fill="#acacac"/></g></g><path d="M253.2,346.7l42.9,56-26.9,10-33.3-48.5c-3.9-3.9-6.7-13.1-3-16.9l3.3-3.3c3.8-4.2,13-1.2,17,2.7Z" fill="#acacac"/></g></g></svg>
