<svg id="eiqALTkPOe51" xmlns="http://www.w3.org/2000/svg" xmlns:xlink="http://www.w3.org/1999/xlink" viewBox="80 0 441.1 626.6" shape-rendering="geometricPrecision" text-rendering="geometricPrecision">
<style><![CDATA[
#eiqALTkPOe588_to {animation: eiqALTkPOe588_to__to 2800ms linear infinite normal forwards}@keyframes eiqALTkPOe588_to__to { 0% {transform: translate(509.300001px,855.075981px)} 32.142857% {transform: translate(495.075959px,425.437638px)} 35.714286% {transform: translate(495.075959px,433.437638px)} 57.142857% {transform: translate(495.075959px,433.437638px)} 92.857143% {transform: translate(410.4px,850.751557px)} 100% {transform: translate(410.4px,850.751557px)}}
]]></style>
<defs><path id="eiqALTkPOe52" d="M404.1,169c0,0-.6,6.2,4,6.5s11.6,0,11.6,0l-3.3,116h-5.9c0,0-4.9-.6-5.7-1.2L404.1,169Z"/><path id="eiqALTkPOe53" d="M504.3,163.6c0,0-.9-3.1-1.7-.1s-1.6,12.1-5.5,12.1c-4.7,0-7.8,0-7.8,0l3.3,116h5.9c0,0,4.9-.6,5.7-1.2l.1-126.8Z"/><rect id="eiqALTkPOe54" width="641.1" height="626.6" rx="0" ry="0"/><path id="eiqALTkPOe55" d="M466.4,245.5l-33.9,17.6c-1.2.7-2.7.2-3.4-1l-13.2-25.4c-.7-1.2-.2-2.7,1-3.4l33.9-17.6c1.2-.7,2.7-.2,3.4,1l13.2,25.4c.7,1.2.2,2.7-1,3.4Z"/></defs><g><path d="M506.4,162.2c-.1,0-.1.1-.1.1v1.7v39.6h-.3c-.1,0-.1.1-.1.1v.1v0h-1.6v-38.5-1.7c0-.1-.1-.1-.1-.1h-1.6c-.1,0-.1.1-.1.1v1.7v6.8c0,2.1-3.7,3.7-8.3,3.7h-81.7c-.9,0-1.8-.1-2.6-.2v0v0c-.2,0-.4,0-.6,0s-.4,0-.6,0c-.4,0-.7-.1-1.1-.2-.3-.1-.7-.2-1-.3s-.6-.3-.8-.4c-.1-.1-.2-.2-.3-.3s-.2-.2-.3-.3c-.2-.2-.4-.4-.5-.6s-.2-.4-.3-.7c-.1-.2-.1-.5-.1-.7v-59.8v0v0l-.1-.7v0l-.3-.7-.5-.7-.7-.7-.9-.6-1-.6-1.2-.6-1.3-.5-1.5-.4-1.6-.4-1.7-.3-1.8-.3-1.8-.2-1.9-.1h-1.9v0h-223.6v0h-1.9l-1.9.1-1.8.2-1.8.3-1.7.3-1.6.4-1.5.4-1.3.5-1.2.6-1,.6-.9.6-.7.7-.5.7-.3.7v0l-.1.7v0v0v91.5h-1.6v-.2c0-.1-.1-.1-.1-.1h-.3v-83.9-6.8c0-.1-.1-.1-.1-.1h-2.7c-.1,0-.1.1-.1.1v6.8v152.4v14.1v118.8c0,1.7,1.7,3.3,4.9,4.5v217.2h360.1v-217.2c3.1-1.2,4.9-2.8,4.9-4.5v-119.1-23.9-97.9-1.7c0-.1-.1-.1-.1-.1h-2.8Z" fill="#e7e7e7"/><g><path d="M144.7,294.7v-2.9c0,0-5.3-13.4,14.4-13.6c19.6-.1,227.3,0,227.3,0s14.8.7,15.7,5.9.6,7.2,8.4,7.5s84.1,0,84.1,0s8.8.8,10-4.3v9l-358-1-1.9-.6" opacity="0.32" fill="#555b5f"/></g><rect width="362.3" height="3.8" rx="0" ry="0" transform="translate(144.7 291.7)" fill="#555b5f"/><g opacity="0.45"><g><g clip-path="url(#eiqALTkPOe520)"><g opacity="0.23"><rect width="4.1" height="119.2" rx="0" ry="0" transform="translate(404.1 172.1)" fill="#555b5f"/><polygon points="405.5,171.9 410.4,171.9 410.4,291.6 405.5,291.6 405.5,291.4 408,291.4 408,172.1 405.5,172.1"/><rect width="4.6" height="119.7" rx="0" ry="0" transform="translate(410.4 171.9)" fill="#555b5f"/><g><rect width="1.5" height="118.8" rx="0" ry="0" transform="translate(407 172.3)" fill="#1a1a1a"/></g></g><clipPath id="eiqALTkPOe520"><use width="15.625702" height="122.5" xlink:href="#eiqALTkPOe52"/></clipPath></g></g></g><g opacity="0.45"><g><g clip-path="url(#eiqALTkPOe531)"><g opacity="0.23"><polygon points="500.7,291.4 501.5,160.2 504.8,159.6 504.8,291.4" fill="#555b5f"/><polygon points="503.4,172.1 500.9,172.1 500.9,291.4 503.4,291.4 503.4,291.6 498.5,291.6 498.5,171.9 503.4,171.9"/><rect width="4.6" height="119.7" rx="0" ry="0" transform="translate(493.9 171.9)" fill="#555b5f"/><g><rect width="1.5" height="118.8" rx="0" ry="0" transform="translate(500.4 172.3)" fill="#1a1a1a"/></g></g><clipPath id="eiqALTkPOe531"><use width="15" height="129.407898" xlink:href="#eiqALTkPOe53"/></clipPath></g></g></g><rect width="359.4" height="24.2" rx="0" ry="0" transform="translate(145.2 294.5)" fill="#d4d4d4"/><g opacity="0.23"><rect width="358.8" height="7.7" rx="0" ry="0" transform="translate(145.2 309)" fill="#d4d4d4"/><polygon points="504.8,311.7 504.8,320.9 144.5,320.9 144.5,311.7 145.2,311.7 145.2,316.4 504.1,316.4 504.1,311.7" fill="#fff"/><rect width="360.3" height="8.6" rx="0" ry="0" transform="translate(144.5 320.9)" fill="#d4d4d4"/><g><rect width="360.3" height="2.8" rx="0" ry="0" transform="translate(145.8 314.5)" fill="#fff"/></g></g><g><path d="M487,423c-.1,3.2-2.6,5.6-5.4,5.5h-89.8c-2.9.2-5.3-2.3-5.4-5.5v-71c.1-3.2,2.6-5.6,5.4-5.5h89.8c2.9-.2,5.3,2.3,5.4,5.5v71v0Z" fill="#e5e5e5" stroke="#4a4a4a" stroke-width="0.3565" stroke-miterlimit="10"/><path d="M460.6,397.7c0,.5-.4,1-.9,1h-46.1c-.4,0-.9-.5-.9-1v-1.4c0-.5.4-1,.9-1h46.1c.4,0,.9.5.9,1v1.4v0Z" fill="#2a353f" stroke="#000" stroke-width="0.5513" stroke-linecap="round" stroke-linejoin="round"/><rect width="47.9" height="1" rx="0" ry="0" transform="translate(412.8 396.6)" fill="none" stroke="#000" stroke-width="0.1103" stroke-linecap="round" stroke-linejoin="round"/><path d="M460.6,397.5v.2c0,.5-.4,1-.9,1h-46.1c-.4,0-.9-.5-.9-1v-.2h47.9Z" fill="#161b1e" stroke="#000" stroke-width="0.1103" stroke-linecap="round" stroke-linejoin="round"/><path d="M460.6,396.3v.2h-47.9v-.2c0-.5.4-1,.9-1h46.1c.6,0,.9.4.9,1Z" fill="#161b1e" stroke="#000" stroke-width="0.1103" stroke-linecap="round" stroke-linejoin="round"/><rect width="47.9" height="1" rx="0" ry="0" transform="translate(412.8 396.6)" fill="none" stroke="#000" stroke-width="0.1103" stroke-linecap="round" stroke-linejoin="round"/><rect width="47.9" height="1" rx="0" ry="0" transform="translate(412.8 396.6)" stroke="#000" stroke-width="0.1103" stroke-linecap="round" stroke-linejoin="round"/></g><path d="M290.6,362.3h-32.6c-.7-.1-1.3-.8-1.3-1.8-.1-1,.6-1.9,1.3-2h32.6c.7.1,1.3.8,1.3,1.8.1,1.1-.5,1.9-1.3,2Z" fill="#fff"/><circle r="3.2" transform="translate(274.8 119.6)" fill="#2a353f" stroke="#000" stroke-width="0.093122" stroke-linecap="round" stroke-linejoin="round" stroke-miterlimit="1"/><path d="M378.4,260.2c0,2.1-1.7,3.8-3.8,3.8h-199.6c-2.1,0-3.8-1.7-3.8-3.8v-120c0-2.1,1.7-3.8,3.8-3.8h199.6c2.1,0,3.8,1.7,3.8,3.8v120v0Z" fill="#2a353f" stroke="#000" stroke-width="0.093122" stroke-linecap="round" stroke-linejoin="round" stroke-miterlimit="1"/><path d="M374.6,136.5h-199.6c-2.1,0-3.8,1.7-3.8,3.8v120c0,2.1,1.7,3.8,3.8,3.8h199.6c2.1,0,3.8-1.7,3.8-3.8v-120.1c0-2.1-1.7-3.7-3.8-3.7Zm-8.7,115.1h-182.2v-102.7h182.2v102.7Z" stroke="#000" stroke-width="0.093122" stroke-linecap="round" stroke-linejoin="round" stroke-miterlimit="1"/><rect width="182.2" height="102.7" rx="0" ry="0" transform="translate(183.7 148.9)" fill="#37e6d5" stroke="#000" stroke-width="0.093122" stroke-linecap="round" stroke-linejoin="round" stroke-miterlimit="1"/><circle r="3.2" transform="translate(274.8 119.6)" stroke="#000" stroke-width="0.093122" stroke-linecap="round" stroke-linejoin="round" stroke-miterlimit="1"/><g><circle r="20.8" transform="translate(321.7 214.7)" fill="#fff"/><line x1="303.8" y1="169" x2="340" y2="169" fill="none" stroke="#fff" stroke-width="5.8003" stroke-linecap="round" stroke-miterlimit="1"/><line x1="210.7" y1="164.8" x2="246.8" y2="164.8" fill="none" stroke="#fff" stroke-width="4.853" stroke-linecap="round" stroke-miterlimit="1"/><line x1="210.7" y1="173.1" x2="246.8" y2="173.1" fill="none" stroke="#fff" stroke-width="4.853" stroke-linecap="round" stroke-miterlimit="1"/><line x1="214.6" y1="196.5" x2="240.9" y2="196.5" fill="none" stroke="#fff" stroke-width="4.853" stroke-linecap="round" stroke-miterlimit="1"/><line x1="209.7" y1="206.2" x2="245.9" y2="206.2" fill="none" stroke="#0d4160" stroke-width="2.4266" stroke-linecap="round" stroke-miterlimit="1"/><line x1="268" y1="169" x2="282" y2="169" fill="none" stroke="#0d4160" stroke-width="4.853" stroke-linecap="round" stroke-miterlimit="1"/><line x1="214.6" y1="223.1" x2="240.9" y2="223.1" fill="none" stroke="#fff" stroke-width="4.853" stroke-linecap="round" stroke-miterlimit="1"/><line x1="209.7" y1="232.8" x2="245.9" y2="232.8" fill="none" stroke="#0d4160" stroke-width="2.4266" stroke-linecap="round" stroke-miterlimit="1"/></g><path d="M144.5,408c0,0-4.2-1.1-4.2-5.4v-290.2h4.2v295.6Z" fill="#1a1a1a"/><path d="M504.3,408.8v0-246.6h4.3v239.9c0,3.2-.4,5-4.3,6.7Z" fill="#1a1a1a"/><g><path d="M428.7,238.8v-3.7c.1-1.8,1.4-3.3,3-3.3h44c1.6-.1,2.9,1.4,3,3.3v3.7h-50Z" fill="#808080"/><rect width="50" height="10" rx="0" ry="0" transform="translate(428.7 238.8)" fill="#979797"/><path d="M428.7,266.6v-17.8h50v17.8c-.1,1.8-1.4,3.3-3,3.3h-43.9c-1.7.1-3.1-1.3-3.1-3.3Z" fill="#979797"/><g><path d="M207.2,306.9v-3.7c.1-1.8,1.4-3.3,3-3.3h128.3c1.6-.1,2.9,1.4,3,3.3v3.7h-134.3Z" fill="#979797"/><rect width="134.3" height="10" rx="0" ry="0" transform="translate(207.3 306.9)" fill="#979797"/><path d="M207.2,342.5v-25.6h134.3v25.6c-.1,1.8-1.4,3.3-3,3.3h-128.3c-1.5,0-2.9-1.4-3-3.3Z" fill="#808080"/></g><rect width="34.5" height="5" rx="0" ry="0" transform="translate(436.4 248)"/></g><path d="M341.6,338.4v3.7c-.1,1.8-1.4,3.3-3,3.3h-128.3c-1.6.1-2.9-1.4-3-3.3v-3.7h134.3Z" opacity="0.38" fill="#dfdfdf"/><rect width="106.1" height="10.4" rx="0" ry="0" transform="translate(221.3 319.3)"/><rect width="106.1" height="2.4" rx="0" ry="0" transform="translate(221.3 323.3)" fill="#34393d" stroke="#000" stroke-width="0.096109" stroke-linecap="round" stroke-linejoin="round"/><g><rect width="184.7" height="104.1" rx="0" ry="0" transform="translate(182.1 148.2)" fill="#37e6d5" stroke="#000" stroke-width="0.09435" stroke-linecap="round" stroke-linejoin="round"/></g></g><g><g><g><g><g><g><path d="M290.2,181.5h46.8c3,0,5.6,2.4,5.6,5.6v26.3c0,3-2.4,5.6-5.6,5.6h-46.8c-3,0-5.6-2.4-5.6-5.6v-26.3c.1-3.1,2.5-5.6,5.6-5.6Z" fill="#fff"/><rect width="57.8" height="7.9" rx="0" ry="0" transform="translate(284.7 188.8)" fill="#414042"/></g></g></g></g></g></g><g id="eiqALTkPOe588_to" transform="translate(509.300001,855.075981)"><g transform="translate(-488.924042,-424.062363)"><g><g><g><g><g clip-path="url(#eiqALTkPOe5267)"><g><path d="M424.5,291.4c.1,0,.1,0,0,0v0l35.3,7.9-3.3,7.9-33-.2v0c0,0,0,0-.1,0-4.6,0-8.1-3.5-7.9-7.9.3-4.4,3.8-9,9-7.7Z" fill="#b1b1b1"/><path d="M427.1,303.2v0v0l31.2-1.8l2,14.3-31.2,1.7v0c0,0,0,0-.1,0-4.4.3-8.4-2.7-8.9-6.7s2.7-7.3,7-7.5Z" fill="#b1b1b1"/><path d="M429.5,315.3v0v0l28.4,1.2-.1,12.9-28.3-1.2v0c0,0,0,0-.1,0-4-.2-7.2-3.2-7.2-6.8s3.2-6.3,7.3-6.1Z" fill="#b1b1b1"/><path d="M458.7,281.1c1.7-.1,3.4.5,4.6,1.6l13.9,11.7c2,1.8,3.1,4.3,3.1,6.9l.5,51.4c0,3-2.7,5.3-6.2,5.1l-12.3-.6c-3.4-.2-6.2-2.7-6.2-5.7l2.5-43-10.8-9.1-23.2-.3c-9.9.2-15.5-4.3-13.9-10c.9-3.4,2.9-5.9,10.5-5.8l37.5-2.2Z" fill="#b1b1b1"/><g><path d="M457,211.6l34.4,66.1c1,2,.3,4.5-1.7,5.5l-40.5,21c-2,1-4.5.3-5.5-1.7l-34.4-66.1c-1-2-.3-4.5,1.7-5.5l40.5-21c2-1.1,4.5-.3,5.5,1.7Z" fill="#c96561"/><path d="M457,211.6l34.4,66.1c1,2,.3,4.5-1.7,5.5l-40.5,21c-2,1-4.5.3-5.5-1.7l-34.4-66.1c-1-2-.3-4.5,1.7-5.5l40.5-21c2-1.1,4.5-.3,5.5,1.7Z" fill="#2eb7aa"/><path d="M456.7,210.8l34.8,66.8c.9,1.6.2,3.5-1.3,4.4L449,303.4c-1.6.9-3.5.2-4.4-1.3l-34.8-66.8c-.9-1.6-.2-3.5,1.3-4.4l41.2-21.4c1.6-.8,3.5-.3,4.4,1.3Z" fill="#fc7e79"/><path d="M456.7,210.8l34.8,66.8c.9,1.6.2,3.5-1.3,4.4L449,303.4c-1.6.9-3.5.2-4.4-1.3l-34.8-66.8c-.9-1.6-.2-3.5,1.3-4.4l41.2-21.4c1.6-.8,3.5-.3,4.4,1.3Z" fill="#37e6d5"/><g><path d="M466.4,245.5l-33.9,17.6c-1.2.7-2.7.2-3.4-1l-13.2-25.4c-.7-1.2-.2-2.7,1-3.4l33.9-17.6c1.2-.7,2.7-.2,3.4,1l13.2,25.4c.7,1.2.2,2.7-1,3.4Z" fill="#c96561"/><path d="M466.4,245.5l-33.9,17.6c-1.2.7-2.7.2-3.4-1l-13.2-25.4c-.7-1.2-.2-2.7,1-3.4l33.9-17.6c1.2-.7,2.7-.2,3.4,1l13.2,25.4c.7,1.2.2,2.7-1,3.4Z" fill="#2eb7aa"/><polygon points="427.8,259.6 423.6,251.7 440.3,239.3 446.9,235.6 450.5,237.6 451,240.9 431,253.9" fill="#d7effd"/><g><g><g><g><g><g><g><g><g><g><g clip-path="url(#eiqALTkPOe5240)"><g><g><g><path d="M443.1,238.7c0,.1,0,.2-.1.2c0-.1,0-.1.1-.2Z" fill="#d1e0e7"/><path d="M444.3,237.6c0,0,.1,0,0,0-.1.1-.2.2-.4.3-.1.1-.1.1-.2.2c0,0,0,0,0-.1.2-.1.4-.3.6-.4Z" fill="#d1e0e7"/><path d="M444.4,237.5c.2-.1.3-.2.5-.3-.2.2-.4.2-.5.3Z" fill="#d1e0e7"/><path d="M445.5,237c0,.1,0,.1,0,0-.2.1-.3.2-.4.2s-.2.1-.3.1c.1-.1.3-.2.4-.3s.2,0,.3,0Z" fill="#d1e0e7"/><path d="M456.2,239.2c.1.1.1.1,0,0-.1,0-.2.1-.4.1-.1,0-.1,0,0,.1.1.2.2.3.4.3c0,.9,0,1.8,0,2.7-.4-.1-.7-.2-1-.3-.4-.1-.7-.2-1-.3-.2,0-.2-.1-.2-.3.1-.8.1-1.5.2-2.3v-.1h.1c.2,0,.4.1.6.1c0,0,0,0,.1,0c0,.1.1.2.2.1s.2-.1.1-.3c0-.1,0-.1,0-.2.1-.1.2-.2,0-.4.1,0,.1.1.2.1h.1c0-.1,0-.1,0-.1-.1,0-.1-.1,0-.1c0,0,.1-.1,0-.1-.2-.1-.1-.2-.1-.3c0,0,.1,0,.1-.1v0c.3,0,.3,0,.4.2c0,.1.1.3.2.4c0,.1.1.2-.1.3c0,0-.1,0-.1.1l.1.1c0,.2.1.2.1.3Z" fill="#0e3e5a"/><path d="M450.8,246.5c-.1,0-.1,0-.2-.1.1.3.1.3.2.1.1.1.1.1,0,0c.1.1,0,.1,0,0Zm.1-.2c-.1,0-.1,0,0,0l-.1-.3c-.1-.1-.1-.2-.2-.1c0,.1,0,.1,0,.2v0c0,0-.1,0-.1.1v0c.2,0,.3.1.4.1c0,.1.1,0,0,0c.1,0,.1,0,0,0Zm.6,0c-.1.1-.2.1-.2.1-.1-.1-.2,0-.3.1c0,0,.1,0,.2,0s.2,0,.3-.2c-.1.1,0,0,0,0c0,.1,0,.1,0,0v0Zm0,.5v0c-.2-.1-.3-.2-.2-.3-.2.1-.2.3,0,.4.2,0,.2,0,.2-.1v0v0c.1.1.2-.1,0,0Zm.1-.5v0c.1.1.1.1,0,0c.1,0,0,0,0,0Zm.3.9v0c0,.1,0,.2.1.2c0,0-.1-.1-.1-.2Zm0-1.8v0c-.1,0-.1.1-.1.2.1,0,.1-.1.1-.2v0Zm.2,2.2v0v0v0Zm.2-1.6v0v0Zm1,.4c-.1,0-.2.2-.3.3c0,.1-.1.2-.1.3s0,.1,0,.2c.1,0,.2-.1.3-.1-.1-.1,0-.2.1-.3s.2-.2.2-.3c-.1,0-.2,0-.2-.1Zm.7-.1c-.1,0-.2.1-.3.2v.1v0c0,0,0,0,.1,0v0c.1,0,.1-.1.2-.1c0,0,.1,0,0-.2.1,0,.1,0,0,0Zm.1.4c0,0,0,.1,0,0c0,.1.1.1,0,0v0Zm.2-.9v0c.2-.2.3-.2.4-.3-.1,0-.1-.1-.2-.1s-.2.1-.2.2-.1.1,0,.2h-.2c-.1.1-.1.2,0,.3l.1.1c0,.1,0,.1.1.1c0,0,0,0,0-.1l-.1-.1c-.1,0-.1-.1-.1-.1c0-.1.1-.2.2-.2Zm.4.2v0c0,0-.1,0,0,0-.1,0-.2,0-.2,0h.2c-.1,0-.1.1,0,0v0Zm.5-.2v0c0,.1.1.1,0,0Zm1.1.3c-.7.2-1.2.4-1.9.5v0c-.1.1-.1.1-.2.1l-.1.1c0,0,.1,0,.1.1v0h.1v0c0-.2.1-.3.3-.3.7-.2,1.2-.3,1.9-.5c0,0-.1,0-.2,0Z" fill="#379596"/><path d="M451.9,244.3c-.3-.2-.7-.3-.8-.7-.1-.1-.1-.1-.1-.2c0-.3-.2-.5-.3-.7-.1-.1-.1-.1-.1-.2s-.1-.1-.1-.1c-.1,0-.1.1-.1.1c0,.1,0,.2-.1.2c0,.1.1.2-.1.2-.1,0-.1,0-.2,0v0c0,0,0-.1.1-.1l-.1-.1c-.2,0-.3,0-.2.2c0,.1.1.1,0,.1-.2.1-.3.2-.3.4c0,.1,0,.2-.1.2-.2.1-.3.2-.3.4.1,0,.1.1.1.1-.1.1,0,.2.1.3s.1.2.1.3.1.1.2.1c.2-.1.2-.4.2-.5c0,0,0-.1.1-.2l.3.2h.2c.4.2.8.3,1.1.4h.1v0v0v0v0v0v0v0h.1c0,0,0,0,0,.1h.1c0-.1,0-.2.1-.3.2-.1.1-.1,0-.2Zm-1.9-1.1v0c0-.1,0-.1,0,0v0Z" fill="#dbe5ea"/><path d="M454.4,245.9v0c-.1,0-.1.1,0,0c.1.1.1.1,0,0v0v0v0c.1.1.1.1.2.1v0v0c0,.1.1.1,0,.2s-.2.1-.3.1h-.1c-.1,0-.1,0-.1-.1l-.1-.1c-.1-.1-.1-.2,0-.3l.1-.1c0,0,.1,0,.1-.1s.1-.1.2-.2h.1c.2,0,.4,0,.6.1-.1,0-.1.1-.2.1c0,.2-.2.3-.5.3Z" fill="#318586"/><path d="M452.6,243.2c-.1.1-.2-.1-.3,0c0,0,0,0,0-.1s0-.3-.1-.4c0,0-.1-.1,0-.1h.1c.1,0,.2,0,.2.2v0c.1.1,0,.3.1.4v0Z" fill="#e1e9ee"/><path d="M452.1,242.5v0c-.1,0-.2.1-.2.1c0-.1,0-.2.1-.3h.1c0,0,0-.2.1-.1.1,0,.1.1.1.2.1,0,0,0-.2.1.1-.1.1,0,0,0Z" fill="#e1e9ee"/><path d="M456.7,238.4c0-.1-.1-.1-.2,0s-.2,0-.1-.1c0-.1,0-.1,0-.2c0,0,.1-.1.1,0c.1.1.2.1.2.3v0v0v0Z" fill="#0c3047"/><path d="M450.3,242.9c0,.1.1.2-.1.2-.1,0-.1,0-.2,0c0-.1,0-.1.1-.2v0h.2Z" fill="#e1e9ee"/><path d="M452.5,244.8c-.1,0-.3,0-.4-.1.1-.1.3-.1.4.1v0Z" fill="#e0f3fb"/><path d="M452.6,243.2c0-.1,0-.1,0,0c.1-.1.1-.1,0,0c.1-.1.1-.1,0,0v0Z" fill="#e1e9ee"/><path d="M451.7,248.5c0,.1-.2.3-.3.3-.6.2-1.1.4-1.8.6-.1,0-.2,0-.2-.1-.1-.1-.1-.3-.1-.4.1-.1.2-.2.1-.4c0-.2,0-.4.1-.5c0-.1.1-.1.1-.1.1,0,.1.1,0,.1c0,.1,0,.2-.1.2v.1h.1c.1-.1.1-.3.2-.4c0-.1-.1-.1-.2-.2s-.2-.2-.2-.3c.1-.1.1-.2.2-.3.1,0,0,.2.1.1.1,0,0-.1,0-.2s.1-.2.2-.2.1,0,.2.1c.1,0,.2.1.2-.1c0-.1.1-.1.2,0c0,0,.1,0,.2.1c0,.1.1.1.1.1v0c-.1.1-.1.1.1.2v.1c.1.2.1.2.2.1c0,0,0,0,.1,0c0,.1.2.1.1.2-.1,0-.1.1-.1.2c0,0,0,.1.1.1.2.1.1.2.2.4c0,.2.1.3.2.2Zm-.4.3c0,0,.1,0,0,0c.1-.4.1-.6-.1-.9-.1-.1-.3-.1-.4,0s-.1.2-.1.3.1.2,0,.4c0,.2,0,.3.2.3.1,0,.3,0,.4-.1v0Z" fill="#50bcbd"/><path d="M450.6,247c0,0-.1,0,0,0-.1.2-.2.2-.3.2s-.1-.1-.2-.1-.2,0-.2.2c0,.1.1.1,0,.2-.1,0-.1-.1-.1-.1-.1.1-.1.2-.2.3c0,0,0,0,0,.1v0c0,.1.2.1.2.2.1,0,.2.1.2.2c0,.2-.1.3-.2.4h-.1c0,0-.1-.1,0-.1c0-.1,0-.2.1-.2v-.1c-.1,0-.1,0-.1.1-.1.2-.1.3-.1.5c0,.1,0,.3-.1.4-.1-.1-.1-.2-.1-.3v0c-.1-.2-.1-.4-.3-.6c0-.1,0-.1,0-.2s0-.1,0-.2c.1-.2,0-.3.2-.5c0,0,.2-.1.1-.2c0-.1-.1-.2-.1-.3c0,0,0,0-.1,0h-.1v-.2c.1.1.3.1.4.2s.1.1.2,0s.1-.1.1-.2c0,0,0,0,0-.1c0,0,0,0-.1,0s-.1.1-.2,0c0,0,0,0,0-.1v0c0-.1,0-.2,0-.3c0,0,0-.1,0-.2h.1c.1.1.1.1.2,0c.1,0,.2,0,.2,0c.1,0,.2.1.3.1c0,.1-.1.3.1.4c0,0,0,0,0,.1s0,.1,0,.2c.2.2.2.2.2.2Z" fill="#44aeaf"/><path d="M452.1,247.6v0c0,.1,0,.1,0,0v0c0,.5-.2.8-.4.9h-.1v0c-.1,0-.1-.1-.2-.2v0v0-.1-.1c0,0,0,0,0-.1v0c0,0,0-.1-.1-.1c0,0,0,0-.1,0v-.1v0c0,0,0,0,0-.1c0,0,0,0,.1-.1v0v0l-.1-.1c.2-.1.3-.3.5-.4.1.1.1.1.2.2.1.2.1.2.2.3-.1-.1-.1-.1,0,0-.1,0,0,0,0,0v0Z" fill="#44aeaf"/><path d="M453.7,246.9c-.2.2-.4.4-.7.6-.1.1-.1.1-.2,0c0-.1-.1-.2-.1-.3v0h.1v0c0,0,0-.1,0-.2s.1-.2.1-.3c.1-.1.2-.3.3-.3.1.1.2.1.2.1.1,0,.1,0,.1.1.2.1.2.2.2.3Z" fill="#3fa4a5"/><path d="M456.5,246.1c-.1.2-.3.3-.4.5-.1.1-.4.2-.6.1-.3-.1-.7-.1-1,.1-.1,0-.1,0-.2.1h-.1v0v0h-.1v-.1v0v0c0-.1,0-.1.1-.1.1-.1.1-.1.2-.1v0c.7-.1,1.2-.3,1.9-.5.1,0,.2,0,.2,0Z" fill="#3fa4a5"/><path d="M449.1,246.8c.1.1.2,0,.2,0c0,.1.1.2.1.3s-.1.2-.1.2c-.2.1-.1.3-.2.5c0,.1,0,.1,0,.2-.1,0-.1-.1-.1-.1v0c0-.4,0-.8.1-1.1Z" fill="#50bcbd"/><path d="M453.8,246.7v0c-.2-.1-.1-.1,0,0v0c-.1,0-.1,0,0,0Z" fill="#318586"/><path d="M454.1,246.4c0,.1-.1.1,0,0-.2.2-.2.2-.3.2v0c0,0,0,0-.1,0v0-.1c.1-.1.2-.2.4-.1c0-.1,0-.1,0,0Z" fill="#318586"/><path d="M457.9,236.7c-.1-.2.1-.2.2-.2-.1.1-.1.1-.2.2Z" fill="#0c3047"/><path d="M455.3,238.3c-.1,0-.1-.1,0,0-.2-.1-.1-.2-.1-.2.1-.1.1,0,.1.2c0-.2,0-.1,0,0c0-.1,0,0,0,0Z" fill="#0f3a54"/><path d="M450.3,245.6c0,0,0,.1,0,0c0,.1-.1.1,0,0l-.2.1v0c0,0,0,0-.1,0h-.1c0-.1,0-.2.1-.2s.2,0,.3.1c-.1,0-.1,0,0,0v0Z" fill="#2d7b7c"/><path d="M450.8,246.2v0c-.1,0-.1.1-.2,0v0c0-.1,0-.1,0-.2.1-.1.1,0,.2.2v0v0Z" fill="#2d7b7c"/><path d="M456.8,245.9l-1.5-.3c-.1,0-.2.1-.2.1-.1.1-.3.2-.4.3v0c0,0,.1-.1.1,0s.1.1,0,.2-.2.1-.3.1-.2.1-.2,0c-.1,0-.1,0-.1-.1l-.1-.1c-.1-.1-.1-.2,0-.3l.1-.1c0,0,.1,0,.1-.1s.1-.1.2-.2h-.1c-.6-.1-1.1-.3-1.7-.4-.1,0-.3,0-.4-.1h-.1c-.1,0-.1,0-.2,0l-.3-.1c.1.2.1.3.2.4c0,.1.1.1,0,.2v0c-.1,0-.2,0-.3.1c0,0,.1-.1.1-.2.1-.1.1-.2,0-.2-.1-.1-.2-.3-.2-.4l-.7-.2v0h-.2v0v0v0v0v0h-.1v0c0,0,0,0-.1,0v0c-.1,0-.1-.1-.2,0l-.1-.1c0-.1.1,0,.2,0c0,0,.1,0,.1.1v-.1l-.3-.2c0,.1,0,.1-.1.2c0,.2-.1.4-.2.5.1.1,0,.1,0,.2-.1.3-.2.7-.3.9v0c0,.1-.1.2-.1.3v0c0,0,0,.1,0,.2v.1c0,.1,0,.1-.1.1s-.1-.1-.1-.1c0,.1,0,.1,0,.2.2,0,.3.1.4.2s.1.1.2,0c0,0,0-.1.1-.2c0,0,0,0-.1,0s-.1.1-.2,0c0,0,0,0,0-.1v0c0-.1.1-.2.1-.2s0-.1,0-.2h.1c0,0,.1.1.2,0c.1,0,.2,0,.2,0c.1,0,.2.1.3.1l.1-.1v0l.1-.1v0c0-.1,0-.1,0-.2.1-.1.1,0,.2.1v.2v0l.1.1c0,0,0,.1.1.1l-.1.1v0l-.1.1c0,.1.1.1.2.1v0v0v0c.1-.1.2-.2.3-.1c0,0,.1,0,.2-.1c0,0,.1-.1.1,0s0,.1-.1.1c0,.1-.1.1-.1.1v0c-.1.1,0,.2.1.3h.1c.2-.1.1.1.1.1h-.2v.1c.3,0,.6-.1.9-.1l-.5.3c.1.1.1.1.1.2l.1.1v0c0,0,0,0,0,.1v0v0v0c0,.1,0,.1.1.1.2-.1.3-.3.4-.5.1-.1.1-.2.2-.1v0c0,0,0,0,.1,0v0c0,0,0-.1,0-.2s.1-.2.1-.3c.1-.1.2-.3.3-.3.1.1.2.1.2.1v0c0,0,.1.1.2.1v0-.1c.1-.1.2-.2.3-.2s.1,0,.1.1-.1.1-.1.1c-.1.1-.1.2-.2.1c0,0,.1,0,.1.1v0v0c.1.1.1.2.1.3.1-.1.1-.1.2-.2v0h-.1v-.1v0v0c0-.1,0-.1.1-.1h-.1c0,0,0,0,0,.1-.1-.1,0-.2,0-.2.1-.1.2-.2.3-.2c0,0,.1,0,.1.1v.1c.7-.1,1.2-.3,1.9-.5.1,0,.2,0,.2,0s.1,0,.2,0l.4-.1-.5-.2Zm-7-.1v0c-.1,0-.1,0,0,0-.1-.1-.2-.1-.1-.2v0v0v0c0,0,0,0,0-.1c0,0,0,0,.1,0c0,0-.1,0-.1.1v0c0,0,.1,0,.1.2.1-.1.1,0,0,0v0Zm.5-.2c0,0,0,.1,0,0c0,.1-.1.1,0,0l-.2.1v0h-.1c0,0,0,0-.1,0v0v0c0-.1,0-.2.1-.2s.2,0,.3.1c-.1,0-.1,0,0,0v0c0-.1,0-.1,0,0c.1-.1.1,0,0,0Zm2,.4v0v0v0v0Zm-.4-.6v0c0,.1,0,.2-.1.2c0-.1,0-.2.1-.2v0Zm-.1.4c-.1.1-.2,0-.2,0h.2Zm-.2.2c0,.1,0,.1,0,0-.1.1-.2.1-.2,0v0-.1v0l.2.1v0v0c0-.1,0-.1,0,0v0Zm-.2-.1v0c0,.1,0,.1,0,0v0v0Zm-.4.2v0c.1,0,.1,0,0,0v0v0c.1,0,.1,0,0,0v0v0Zm.6.2v0c0,0,.1,0,0,0v0Zm3.6-.4c0,.1-.1.1,0,0-.1.1-.1.1,0,0v0v0v0c-.3.1-.3,0-.2,0h.2c-.1-.1-.1-.1,0,0c.1-.2.1-.2,0,0c.1,0,0,0,0,0Z" fill="#2d7b7c"/><path d="M451.5,246.1v0v0c0-.1,0-.1,0,0c.1-.1.1-.1,0,0c.1,0,.1,0,0,0Z" fill="#318586"/><path d="M451.9,245.4v0c0,.1,0,.2-.1.2c0-.1,0-.2.1-.2v0Z" fill="#318586"/><path d="M451.6,246.9c0,0-.1,0,0,0-.3,0-.4.1-.5.1s-.2,0-.2.1c0,0,0,.1.1.1-.1,0-.1,0-.1.1-.1,0-.1,0-.1-.1c0,0,0,0,0-.1l-.1-.1c-.1-.1-.2-.2-.2-.4v-.1c-.2-.1-.1-.3-.1-.4v0l.1-.1c.1,0,.1,0,.2,0v0l.1.1c0,0,0,.1.1.1l-.1.1h-.1v.1c0,.1.1.1.2.1v0v0v0c.1-.1.2-.2.3-.1c0,0,.1,0,.2-.1c0,0,.1-.1.1,0s0,.1-.1.1-.1.1-.1.1c-.1.1,0,.2.1.3l.2.1c.1-.2,0,0,0,0Z" fill="#3fa4a5"/><path d="M452.4,246.9l-.5.3h-.1c-.2.1-.4.2-.5.3v0v0c0,0,0,0-.1,0c0,0,0,0-.1,0v0c-.1.1-.1,0-.1-.1v-.1l-.1-.2v0c0-.1,0-.1.1-.2c0,0,0,0,.1,0c.2,0,.4-.1.5-.1.2.2.5.1.8.1Z" fill="#e0f3fb"/><path d="M451.9,244.7v0v0l-.4-.1-.7-.2h-.2c-.1,0-.1,0-.2-.1v0h-.1v-.1h.2c.4.1.8.3,1.1.4v0v0v0c.2,0,.2,0,.3.1-.1-.1-.1-.1,0,0v0v0v0Z" fill="#e0f3fb"/><path d="M449.4,246.2v0c0,0,0,.1,0,.2v.1c0,0,0,0-.1.1-.1,0-.1-.1-.1-.1s0,0,0-.1c0,0,0,0,0-.1c0,0,0,0,0-.1s0-.1.1-.2c0-.1.1-.1.2-.1c0,.1-.1.2-.1.3Z" fill="#318586"/><path d="M450.2,245.7v0v0h-.2v0v0c.1-.1.1-.1.2,0Z" fill="#318586"/><path d="M455.2,245.9c0,0-.1.1,0,0-.1.1-.1.1,0,0v0v0v0c-.2.1-.2,0-.2,0h.2c-.1-.1-.1-.1,0,0v0c.1,0,0,0,0,0Z" fill="#318586"/><path d="M449.7,245.6v0v0v0v0v0c0,0,0-.1,0,0c0-.1,0-.1,0,0c.1-.1,0,0,0,0Z" fill="#2d7b7c"/><path d="M451.8,244.6c.1-.1.2-.1.2,0-.1.1-.2.1-.2,0Z" fill="#e0f3fb"/><path d="M449.8,245.5c0,0-.1.1,0,0-.1.1-.1.1,0,0v0v0c-.1.1-.1,0,0,0-.1,0-.1,0,0,0Z" fill="#2a7072"/><path d="M449.9,244.3c0,.2-.1.4-.2.5.1-.3.2-.3.2-.5Z" fill="#2a7072"/><path d="M450.3,245.6c0,0,0,.1,0,0c0,.1-.1.1,0,0l-.2.1v0h-.1c0,0,0,0-.1,0v0c0-.1,0-.2.1-.2s.2,0,.3.1c-.1,0-.1,0,0,0v0Z" fill="#2a7072"/><path d="M450.3,244.4c.1,0,0,0,0,0-.1,0-.1-.1-.2,0l-.1-.1c0-.1.1,0,.3.1-.1-.1,0-.1,0,0v0Z" fill="#2a7072"/><path d="M450,243.1v0v0c-.1.1-.1.1,0,0Z" fill="#e0f3fb"/><path d="M449.8,246.6v0c0,0-.1,0,0,0-.2,0-.2.1-.3,0c0,0,0,0,0-.1v0c.2.1.2,0,.3.1-.1-.1,0-.1,0,0Z" fill="#379596"/><path d="M451.3,248.8c-.1.1-.2.1-.3,0-.2,0-.2-.1-.2-.3c0-.1,0-.2,0-.4c0-.1-.1-.2.1-.3.1-.1.3-.1.4,0c.2.2.2.5.2.8-.1.2-.2.2-.2.2Z" fill="#bfe6fb"/><path d="M451,247.3l.1.2c-.2,0-.2-.1-.1-.2Z" fill="#44aeaf"/><path d="M451.6,246c0,.1,0,.1,0,0-.1.1-.2.1-.2,0v0-.1v0l.2.1v0v0c-.1-.1-.1-.1,0,0v0Z" fill="#2d7b7c"/><path d="M450.3,244.4v0c.1,0,0,0,0,0-.1,0-.1-.1-.2,0l-.1-.1c0-.1.1,0,.3.1-.1-.1,0-.1,0,0Z" fill="#318586"/><path d="M443.1,238.7c0,0-.1.1-.1.2s-.1.1-.2.1c-.2.1-.3.2-.5.3s-.3.2-.4.3-.3.1-.4.3h-.1c-.1.1-.3.1-.4.2-.3.3-.7.5-1,.7-.2.1-.5.3-.7.4-.4.3-.9.5-1.2.8s-.8.6-1.1.8c-.2.1-.3.2-.4.3l-.3.1c-.2.1-.3.2-.5.3-.4.2-.8.5-1.1.7-.1,0-.2.2-.3.2-.3.2-.6.4-.9.6-.5.3-.9.6-1.2.9-.5.3-.9.6-1.3.9-.2.1-.3.2-.4.3l-.2.1c-.3.2-.6.4-.9.6-.1.1-.2.1-.3.2-.5.3-.9.7-1.4.9-.6.4-1.2.8-1.8,1.1-.5.3-.9.6-1.4.9-.2.1-.4.2-.6.3-.3.2-.6.4-.9.6l.2-.2c.4-.2.8-.5,1.1-.7s.6-.4.9-.6.6-.4.9-.6.6-.4.9-.6.7-.4.9-.6c.2-.1.4-.2.6-.4.3-.2.7-.4.9-.6.3-.2.6-.4.9-.6.5-.3.9-.6,1.3-.9.3-.2.6-.4.9-.6.5-.3.9-.6,1.3-.9.3-.2.6-.4.9-.6.4-.2.7-.5,1-.7s.6-.4.9-.6.6-.4.9-.6.6-.4.9-.6c.5-.3.9-.6,1.3-.9.3-.2.6-.4.9-.6s.7-.5.9-.7c.3-.2.6-.4.9-.6s.7-.4.9-.7c.1,0,.2-.1.3-.1-.1.1-.2.2-.4.3-.1.3-.2.4-.2.6v0Z" fill="#d7effd"/><path d="M448.8,238.9v0c-.1.3-.2.3-.3.3v-.2h.1c.1-.1.1-.2.2-.1c0-.1,0,0,0,0c.2-.1.2-.2.2-.4c0-.1,0-.2-.1-.3s-.1-.2.1-.3l-.1-.1c-.1,0-.1,0-.2.1-.2.1-.2.1-.2-.1s-.1-.3-.3-.2l.1.1c0,0,.1,0,.1.1-.1.1-.2.2-.3,0h-.1v.1c.1.1,0,.2.1.3-.1.1-.2.1-.3.3c0,.1-.1,0-.1-.1s-.1-.1-.2,0-.2.1-.3,0c-.1,0-.2,0-.3.1l-.1.1c-.1,0-.1.1-.2,0c0-.1,0-.1.1-.1.1-.2.1-.4,0-.6l-.1.1c.1.3.1.3-.2.5s-.7.4-1,.5c-.1,0-.2.1-.3,0c.1-.2.4-.3.5-.4l.1-.1c0-.2-.1-.3,0-.5c0,0,0,0,0-.1s-.1-.1,0-.2c.1,0,.2-.2.3-.1.1,0,.1.1.2,0c0-.1-.1-.1-.1-.2c0,0,0,0-.1,0v-.1c-.3,0-.5,0-.8.1-.1.1-.2.1-.3,0-.1,0-.2.1-.3.1-.2.2-.4.3-.6.4s-.4.3-.6.4c-.1.2-.2.3-.4.4h-.1c0,.1,0,.2-.1.2v0c0,.2-.1.3-.3.4s-.3.2-.5.3-.3.2-.4.3c.1.2.1.2-.1.2-.1,0-.1,0-.1.1s-.1.1-.2,0h-.1c-.1.1-.3.1-.4.2-.3.3-.7.5-1,.7-.2.1-.5.3-.7.4-.4.3-.9.5-1.2.8-.4.3-.8.6-1.1.8-.2.1-.3.2-.4.3.2.3.1.5-.3.6.1-.1.1-.3,0-.4-.2.1-.3.2-.5.3-.4.2-.8.5-1.1.7c0,.1.1.1.2.1.2-.1.2-.1.2.1c0,0,0,.1.1.1.2.1.1.1,0,.2.1.1.1.3,0,.4-.1,0-.1.2-.2.1s-.3-.1-.3-.2l.2-.6c-.1.1-.1.2-.1.2-.1-.1,0-.2.1-.2-.1-.1.1-.2,0-.3c0-.1-.2,0-.2-.1-.3.2-.6.4-.9.6-.5.3-.9.6-1.2.9-.5.3-.9.6-1.3.9-.2.1-.3.2-.4.3c0,0,0,0,.1,0c0,.1-.1.1-.1,0l-.2.1c-.3.2-.6.4-.9.6-.1.1-.2.1-.3.2-.5.3-.9.7-1.4.9-.6.4-1.2.8-1.8,1.1l-1.4.8c-.2.1-.4.2-.6.3-.3.2-.6.4-.9.6l.4.8c.1,0,.1,0,.1,0c0,.1,0,.1-.1.1v.1c.1,0,.2.1.2.1h.1c-.1.1-.2.2-.3.3l.4.7c.2-.2.4-.4.7-.6.2-.1.3-.1.4.1c0,.1,0,.2,0,.2-.1.1-.3.2-.5.3-.1.1-.2.2-.4.2l.2.3l2.7,5c.1,0,.1-.1.1-.2s.1-.1.1-.1c.2,0,.3-.1.4-.2c0,0,0-.1.1-.1.2,0,.3-.1.4-.2s.2-.1.1-.3v-.1c.1.1.2.1.2.1s.1,0,.2-.1c0,0,.1,0,.1-.1.1,0,.1-.2.1-.3c0,0,0-.1-.1-.1s-.1-.1-.2-.1c.1-.1.2-.1.3,0s.1.1.2.1.1,0,.2-.1c.1,0,.1-.1.1-.1.1-.1.1-.1.2-.2.3-.2.5-.4.8-.6.2-.1.4-.3.6-.4.3-.3.7-.5.9-.8.2-.1.3-.2.4-.3l.1-.1c.1-.1.2-.1.3-.2.1,0,.1-.1.2-.1s.2-.2.3-.2c.4-.3.9-.6,1.2-.9.3-.2.5-.3.7-.6.1,0,.2-.1.2-.2.1-.1.2-.1.3-.2.3-.3.7-.5.9-.8.3-.2.5-.4.8-.6.2-.2.5-.4.7-.5l.1-.1c.1-.1.2-.2.4-.3s.4-.2.6-.4c.1,0,.1-.1.2-.1.3-.2.6-.5.9-.7.2-.1.4-.3.6-.4.5-.4,1-.8,1.5-1.1.6-.4,1.1-.8,1.6-1.2.4-.3.9-.6,1.2-.9.2-.2.5-.3.7-.5s.4-.4.7-.5c.4.3.8.5,1.2.8.3.1.6.3.9.5c0-.1,0-.1.1-.2c0,0,0,0,0-.1c0,0,0,0,0-.1v-.1c0-.1,0-.1.1-.2.1-.4.3-.9.4-1.2c0-.1.1-.1,0-.2-.1,0-.2,0-.2-.1s0-.2-.1-.3-.2-.2-.1-.3c0,0,0-.1-.1-.1c0-.2.1-.3.3-.4.1,0,.1-.1.1-.2c0-.2.1-.3.3-.4.1,0,0,0,0-.1-.1-.2,0-.2.2-.2.1-.1,0-.2.1-.3v-.1c-.1-.1,0-.2.1-.2.1-.1.2-.3.2-.5s.1-.4.1-.7c-.8,0-1-.4-1.2-.9ZM424,252.6c-.1.1-.1.1,0,0-.1,0-.1.1-.2.1c0,0,0,0-.1.1c0,0,0,0,0-.1s0-.1,0-.2c0,0,0-.1.1-.1s.1,0,.2.2c-.1-.1-.1,0,0,0v0v0Zm1-.7c0,0-.1,0,0,0-.1.3-.1.3-.2.3c0,0,.1.1,0,.1h-.1c-.1-.1-.1-.1-.2-.1v0c-.1,0-.2.2-.4.2l.1-.1c.1-.1.2-.1.3-.1l.2-.1c.1,0,.1,0,.1,0v0-.1c.1-.1.1-.2.2-.1c0-.1,0,0,0,0v0Zm2.9-1.8c-.3.2-.6.4-.9.6-.1.1-.2.1-.2.2s0,.2.1.2.1.1,0,.1l-.1.1c.1,0,.2,0,.2-.1.1-.1.2-.1.3-.2.1,0,.1,0,.1.1-.1.1-.1.2-.2.2c0,0,0,0-.1,0c0,.3-.3.3-.5.3-.1,0-.1.2-.1.3s0,.1-.1.1c-.1-.1-.2-.2-.1-.3c0,0,0-.1.1-.1.1-.1,0-.2,0-.3-.3.2-.7.4-.9.6-.1.1-.2.1-.4.1.2-.1.3-.2.5-.3s.3-.3.5-.3c-.1-.1,0-.2.2-.3s.3-.2.4-.4l.1-.1c.2,0,.4-.2.5-.3c0,0,0-.1.1-.1s.2-.1.5-.1c0-.1,0-.1,0,0c.1,0,.1,0,0,0Zm2.1-2.2c.2-.1.3-.3.5-.3-.3.1-.4.2-.5.3Zm.8-.8v0v0Zm.1-.1c.1-.1.1-.1.2-.1-.1,0-.1.1-.2.1Zm3.7-1.2c0,0-.1,0,0,0c0-.1,0-.1,0,0c0-.1,0,0,0,0Zm10.1-6.5c0,0-.1,0-.2-.1.2,0,.3,0,.2.1.1,0,.1,0,0,0Zm.2-.1c0-.1.1-.2.2-.2-.1.1-.1.1-.2.2Z" fill="#d7effd"/><path d="M424,252.6v0c-.1.1-.1.1,0,0v0Z" fill="#d7effd"/><path d="M424.8,252.3v0c-.2-.1-.2-.1-.3-.1l.2-.1c.1,0,.1,0,.1,0c0,.1.1.1,0,.2Z" fill="#d7effd"/><path d="M430.7,247.1c0,.1-.1.1,0,0-.1,0-.1,0,0,0Z" fill="#d7effd"/><path d="M434.6,244.9c-.1.1-.1.2-.1.2-.1-.1,0-.1.1-.2Z" fill="#d7effd"/><path d="M434.7,245.7c-.1,0-.1.1,0,0-.1,0-.1,0-.2,0c.1,0,.1,0,.2,0Z" fill="#d7effd"/><path d="M443.1,238.7c0,.1,0,.2-.1.2c0-.1,0-.1.1-.2Z" fill="#d7effd"/><path d="M444.8,239.2c0,.1,0,.1,0,0-.1,0-.2,0-.2,0c.1,0,.2,0,.2,0Z" fill="#d7effd"/><path d="M445.1,239.1c-.1.1-.1.1-.2.2c0-.2.1-.2.2-.2Z" fill="#d7effd"/><path d="M448.8,238.9v0c-.1.3-.2.3-.3.3v-.2h.1c.1-.1.1-.2.2-.1c0-.1,0,0,0,0Z" fill="#d7effd"/><path d="M459,234.9c-.2,0-.4,0-.5.1-.4.2-.8.5-1.2.7-.2.1-.5.3-.7.4v0c0,0-.1.1-.5.3s-.6.4-.8.5-1.1,1.2-1.1,1.2-.2.1-.2.6c0,.4-.2,2.9-.2,2.9s-.1.3.1.4l1.6.4.6.2v-2.7-.8l.2-.3l2-2.7c.4-.5.5-.8.7-1.2.2,0,.1,0,0,0Z" fill="#0f3a54"/></g><path d="M423.3,251.2c-1.5-2.8-2.9-5.7-4.5-8.5.2-.3.4-.6.6-.9.1,0,0-.1,0-.2-.1-.2-.2-.2-.4,0s-.3.4-.4.6c-.2-.4-.5-.9-.7-1.2-.1-.1-.1-.2,0-.3l.1-.1c0-.1,0-.1.1-.1s.1,0,.1-.1c0-.2.2-.5.4-.6.1-.1.2-.3.4-.4v-.1c0-.1,0-.2.1-.2c0,0,0,0,.1,0c.2,0,.2-.1.3-.2s.2-.2.4-.3c.2,0,.3-.2.3-.4v-.1c.2,0,.2-.2.3-.3.1,0,.1-.1.1-.1c0-.1.1-.2.2-.2.2,0,.2-.2.4-.3.1,0,0-.1,0-.1-.1-.1-.1-.2.1-.3.1,0,.2-.1.2-.1c0-.1.1-.2.2-.2h.1c.1-.3.5-.3.6-.5h.1c.2,0,.2,0,.1-.2-.1-.1,0-.1.1-.2.3-.1.5-.3.8-.4.1-.1.2-.1.1-.2s0-.1,0-.1c.1-.1.3-.2.4-.3s.1-.1.2,0c.2.1.3-.1.5-.1c0,0,0,0,0-.1c0-.2.2-.3.3-.3.2-.1.3-.1.5-.1.1,0,.1,0,.2-.1c0-.3.3-.3.5-.4.1,0,.2-.1.3-.1.1-.1.2-.2.4-.1.1,0,.3,0,.3-.2v0c0-.1.1-.1.2-.1s.3,0,.4,0c0,0,.1-.1,0-.1c0-.1,0-.2.1-.1.1,0,.1,0,.1-.1s.1-.2.2-.1c.2,0,.4-.1.5-.2s.3-.1.4-.2c0,.1,0,0,.1,0c.1-.1.2-.2.3-.1.1,0,.2,0,.2-.1.1,0,.1,0,.2,0c0-.3,0-.3.4-.3.2,0,.4.1.4-.2c0,0,0-.1.1-.1.1.1.2.3.2,0c0-.1.2-.1.3-.1h.1c.1-.3.3-.1.4-.2.2,0,.3-.1.4-.2.1-.2.3-.1.5-.2.1-.1.3-.1.4-.2h.1c.2.1.2,0,.3-.2c0,.2.1.2.2.2.1-.1.2-.2.4-.2.3-.1.6-.4.9-.4s.5,0,.8.1c.1.1.1,0,.1,0c.1,0,.2-.2.4-.1.1.1.1-.1.2,0c.2,0,.5.1.7.1.2.1.5.2.7-.1.1-.1.3-.1.4-.1h.1c.1-.3.4,0,.6-.1.1.2.2,0,.3,0c.2,0,.3-.1.5,0c.2,0,.4,0,.5,0h.1c.3.1.7.2.9.1.1,0,.1,0,.2,0c.1-.1.2-.1.3,0s.4.1.4.1c.1-.1.3-.1.4-.1s.3,0,.4,0h.1c.4-.2.8,0,1.1-.1s.7,0,.9.2c.1.1.3,0,.3.2v0c.2-.1.3,0,.5,0s.4.1.7.2h.1c.2,0,.5.1.7.3.1.1.1.1.2.1.3-.1.4,0,.5.3c0,.1.1.1.1,0s.1-.1.2-.1c.1.1,0,.1,0,.2.2-.2.3-.1.5,0c.3.2.5.3.8.4.1,0,.2,0,.1.2c0,.1.1.1.1,0c.2,0,.3,0,.3.2c0,.1.1.2.2.2v0c.2,0,.3,0,.3.2c0,.1,0,.2.2.1h.1v0v.1c0,.1,0,.1-.1.2s0,.2,0,.2v0c.1.1.1-.1.2-.1s.2-.1.3,0c.2.2.4.4.6.6.1.1.2.2,0,.3.1.1.1,0,.2,0c.1-.1.2-.1.3.1s.3.3.5.4c.1,0,.1,0,.2.1c0,.1.1.1.2.1s.3,0,.2.2v.1v0l.1-.1c0-.2,0-.4,0-.6c0-.4,0-.7-.1-1.1.3.3.5.6.7.8.5.6,1,1.2,1.5,1.8.1.1.2.1.3,0c.3-.2.6-.4.9-.6.1-.1.1-.1.2,0c.3.3.6.6.8.9.1.1.1.1.2.2-.1.1-.3.2-.5.3s-.4.2-.6.4l-.2.2c-.1-.2-.2-.3-.3-.5-.1-.1-.1-.2-.2-.1-.1,0-.2.1-.1.2v0c.1.2.2.5.5.6v.1v0c-.1,0-.1.1-.2.2-.3.3-.6.7-.9.9l-.1.1c0,.3,0,.5,0,.8c0,.1,0,.2,0,.2c0,.1-.1.3,0,.4-.1.7-.1,1.3-.2,2c0,.2.1.3.3.4c0,.1,0,.3.1.3.2.1.4.1.4.3c0,0,0,0,.1,0c.3-.1.6.1.9.1.1,0,.3,0,.2.2c0,.1,0,.2,0,.2.1,0,.2,0,.3,0s0-.1,0-.2s0-.2.1-.3c.1,0,.2,0,.2.1.1.3.1.3.4.2.2-.1.4,0,.6.1.1.1.2.1.3.1.2,0,.3.1.4.2.1.2.2.1.3.1s.1-.1.2-.1c.1.1,0,.2,0,.2s0,.1-.1.1c-.1.1,0,.2.1.2s.1,0,.2,0s.3,0,.2.2c.1-.1.2-.2.3-.1-.1.2-.3.4-.6.5-.5.4-1,.7-1.5,1-.1.1-.3.1-.3.3l-1.5-.3c-.2-.1-.4-.1-.6-.1-.2-.1-.5-.1-.8-.2l-1.5-.4c0-.1-.2-.1-.2-.1-.1-.2-.3-.3-.5-.3-.4-.1-.8-.5-.9-.9c0-.2-.2-.4-.3-.6v-.1c-.1,0,.1-.1,0-.2-.1,0-.1.1-.1.2v0c-.1,0-.3,0-.2-.2-.1-.1.2-.1.1-.2-.2-.2,0-.3.1-.4s.2-.3.2-.5v.2c.1-.1,0-.3,0-.5-.1-.3-.2-.6-.3-.9s-.2-.6-.3-.8v-.1c0-.2-.1-.4-.2-.6-.1-.1-.2-.3-.3-.5s-.2-.4-.3-.5v0c-.1-.2-.2-.4-.4-.5-.3-.2-.7-.4-.9-.6-.1,0-.2-.1-.2-.1-.2.1-.4.1-.5,0-.1,0-.2,0-.3,0h-.1c-.3.1-.6-.1-.8.2-.1.1-.3,0-.4,0s-.2-.1-.3,0-.3.2-.4.2c-.5.3-.9.6-1.4.9-.3.2-.6.4-.9.6-.5.3-.9.6-1.3.9-.3.2-.6.4-.9.6-.5.3-.9.6-1.3.9-.3.2-.6.4-.9.6-.4.3-.9.6-1.2.9-.4.3-.9.6-1.2.9-.5.3-.9.6-1.4.9-.3.2-.6.4-.9.6-.4.3-.9.6-1.2.9-.3.2-.6.4-.9.6-.5.3-.9.6-1.4.9-.3.2-.6.4-.9.6-.4.3-.9.6-1.2.9-.3.2-.6.4-.9.6-.5.3-.9.6-1.4.9-.3.2-.6.4-.9.6-2.1-.4-2.6,0-3.1.3Z" fill="#f1f9fc"/><path d="M459,244.1c-.1-.1-.2,0-.3.1c0-.2-.1-.2-.2-.2s-.1,0-.2,0-.2-.1-.1-.2l.1-.1c0-.1.1-.2,0-.2-.1-.1-.1.1-.2.1s-.2.1-.3-.1c-.1-.1-.2-.2-.4-.2-.1,0-.2,0-.3-.1-.2-.1-.4-.1-.6-.1-.3.1-.3.1-.4-.2c0-.1-.1-.2-.2-.1-.1,0-.1.2-.1.3s.1.1,0,.2c-.1,0-.2,0-.3,0-.1-.1-.1-.1,0-.2.1-.2-.1-.2-.2-.2-.3,0-.6-.2-.9-.1h.2c0-.3-.3-.3-.4-.3-.1-.1-.1-.2-.1-.3l.4.1c0,.1-.1.1,0,.2.1,0,.1.1.2,0c.1,0,0-.1,0-.1.4.1.8.2,1.1.3.2,0,.2,0,.2-.1c0-.8,0-1.5,0-2.3c0-.1,0-.3,0-.4v-.3c0,0,0-.1,0-.2c0-.2.1-.4.2-.5s.2-.3.3-.4l.1-.1c.3-.4.6-.8.9-1.1v0c.2.2.4.5.6.7.1.1.1,0,.1-.1.1-.3.1-.6.2-.9c0-.3.1-.5.2-.8.1.4.2.9.3,1.2.2.8.3,1.5.5,2.3.1.3.1.5.1.8c0,.1,0,.2.2.2.4-.1.9-.2,1.3-.3l-1.9,2.2c.3.1.6.1.9.1.1,0,.2.1.1.2-.4.2-.8.7-1.1,1.2Zm-.9-3c0,.1.2.1.3.1s.1-.1.1-.1c0-.3-.1-.7-.3-.9c0-.1-.1-.1-.2,0-.1,0-.1.1-.1.2.1.2.1.5.2.7v0Zm.2,1.6c.3-.2.4-.5.2-.8c0-.1-.1-.1-.1-.1-.1,0-.1.1-.1.1c0,.2-.1.3-.3.5-.1.1-.2.2-.1.3.2,0,.3.1.4,0v0Zm-.2-3.6c0,.1.1.1.1.2c0,0,.1.1.2.1s0-.1,0-.2s0-.3,0-.4s0-.3-.1-.4-.2-.1-.3-.1-.1.1-.1.2v0c.1.3.1.5.2.6v0Zm-1.3,2.9c0,.1.1.1,0,0c.1.1.2.1.2,0c0-.2.1-.3.1-.5c0-.1,0-.2-.1-.2s-.2.1-.2.2v0c-.1.2,0,.4,0,.5Z" fill="#f4fafc"/><path d="M458.1,241.1c-.1-.3-.2-.5-.3-.8c0-.1,0-.1.1-.2.1,0,.2,0,.2,0c.2.2.3.6.3.9c0,.1,0,.1-.1.1c0,0-.1.1-.2,0Z" fill="#e2eaef"/><path d="M458.1,239.1c-.1-.2-.1-.4-.2-.5c0-.1,0-.2.1-.2v0c.1,0,.2,0,.3.1s.1.3.1.4s0,.3,0,.4s0,.1,0,.2c-.1,0-.1,0-.2-.1c0-.2,0-.2-.1-.3Z" fill="#e2eaef"/><path d="M456.8,242c0-.1,0-.3,0-.4s.1-.2.2-.2v0c.1,0,.1.1.1.2c0,.2-.1.3-.1.5c0,.1-.1.1-.1.1-.1-.1-.1-.1-.1-.2Z" fill="#e2eaef"/><g opacity="0.3"><path d="M441.4,231.8c.1.1.3.1.4,0c.1,0,.1-.1.1-.1c0-.2,0-.3-.3-.3l-.8-.1c-.1-.1-.2,0-.3,0s-.1,0-.2.1c0,.1,0,.1.1.2.4.2.7.3,1,.2v0Z" fill="#0d4160"/><path d="M426.2,237.3c-.1.1-.3.2-.4.3-.1,0-.2.2-.3.3s-.1.1,0,.2.1,0,.2,0c.2-.1.4-.2.7-.3.1,0,.2-.2.1-.3v0c-.1-.2-.2-.2-.3-.2Z" fill="#0d4160"/><path d="M448.3,234c-.2-.2-.4-.3-.7-.4-.1,0-.2,0-.2,0-.1.1,0,.1.1.2c0,.1.1.1.2.2.3.2.6.4.9.6.1.1.3.1.3,0c.1-.1.1-.2-.1-.3v0c-.1-.2-.3-.3-.5-.3v0Z" fill="#0d4160"/><path d="M444.3,232.1c-.1,0-.2,0-.2.1s0,.2.1.2c.3.1.7.1.9.2.1,0,.2,0,.2-.1s0-.1,0-.2c-.1-.1-.2-.1-.3-.1-.2-.1-.5-.1-.7-.1Z" fill="#0d4160"/><path d="M446.6,231.7c-.2-.1-.4-.2-.6-.2c0,0-.1-.1-.2-.1s-.2-.1-.3.1c0,.1,0,.2.1.3.2.1.4.3.6.3s.3.1.4,0c.2-.1.1-.2,0-.4v0Z" fill="#0d4160"/><path d="M435.5,231.6c-.1,0-.2,0-.2,0-.1,0-.1.1-.1.1c0,.1,0,.1.1.1.4.2.8.2,1.2.2.1,0,.2,0,.2-.1s.1-.3-.1-.3c-.4,0-.8,0-1.1,0Z" fill="#0d4160"/><path d="M436.2,240c-.2.1-.3.4-.5.5-.1,0-.1.1-.1.2v0c.1.1.1,0,.2,0c.5-.4.9-.8,1.4-1.1.1,0,.1-.1.1-.2s0-.2-.2-.2c-.1,0-.3,0-.3.2-.1.1-.3.3-.6.6Z" fill="#0d4160"/><path d="M426,244.6c-.2.2-.5.5-.8.6-.1.1-.2.2-.4.3-.1,0-.1.1,0,.2v0c0,0,.1.1.2.1.2-.1.4-.1.5-.2.3-.2.6-.5.9-.8.1-.1,0-.2,0-.3s-.1-.1-.2-.1c-.1.1-.2.1-.2.2Z" fill="#0d4160"/><path d="M442.6,230.6c-.1,0-.2-.1-.3.1c0,.1,0,.3.1.3.3.2.6.3.9.4.1,0,.2,0,.3-.1-.1-.1.1-.3-.2-.3-.3-.2-.6-.3-.8-.4Z" fill="#0d4160"/><path d="M423.4,243.8c0,0,.1,0,0,0c.2-.2.2-.3.2-.4v0c-.1-.1-.2-.1-.2,0-.1,0-.2,0-.2.1-.3.2-.6.5-.8.9-.1.1-.2.2,0,.3.1.1.2,0,.3-.1.2-.3.3-.7.7-.8Z" fill="#0d4160"/><path d="M428.1,238.7c.1,0,.1-.1.2-.1.3-.1.5-.2.8-.4.1-.1.1-.2,0-.4-.1-.1-.2-.1-.3,0-.4.2-.8.4-1,.6h-.2c-.1.1-.2.1-.1.2c0,.1.2.1.2.1v0c.2.1.3,0,.4,0Z" fill="#0d4160"/><path d="M443.5,234.6c.1,0,.1-.1.1-.2s0-.2-.1-.2c-.4-.1-.8-.1-1.1-.1-.1,0-.1.1-.1.1c0,.1,0,.1.1.2s.2.1.3.1c.1.1.5.1.8.1Z" fill="#0d4160"/><path d="M440.9,237.3v0c-.2.1-.4.2-.6.3-.1,0-.1.1-.1.1c0,.1.1.1.1.1v0c.1,0,.2,0,.3,0c.4-.1.7-.3,1-.5.1-.1.2-.1.1-.3c0-.1-.2-.2-.3-.1v0c-.1.2-.3.3-.5.4Z" fill="#0d4160"/><path d="M423.8,237.6v0c.3-.3.5-.5.7-.6.1-.1.2-.2.1-.3v0c-.1-.1-.2-.1-.3,0-.3.2-.5.5-.7.8-.1.1-.1.2,0,.2v0c0,0,.1-.1.2-.1Z" fill="#0d4160"/><path d="M433.7,238.5c.1-.1.3-.1.4-.2.1,0,.1-.2.1-.3v0c-.1-.1-.2-.1-.3,0-.4.2-.8.4-1.1.6-.1,0-.1.1-.1.1c0,.1.1.1.1.1.2,0,.6-.1.9-.3Z" fill="#0d4160"/><path d="M454.4,243.8c0,.1.1.1.3.1.1,0,.1-.1.1-.2c0-.2,0-.3-.1-.5s-.3-.4-.4-.7c0-.1-.1-.1-.2-.1s-.1.1-.1.2c.2.5.3.8.4,1.2Z" fill="#0d4160"/><path d="M432.7,233.4c.1,0,.2-.1.1-.2c0-.1-.1-.2-.2-.2-.3.1-.6.1-.9.1-.1,0-.1,0-.2.1c0,.1,0,.2.1.2.3.1.7.1,1.1,0Z" fill="#0d4160"/><path d="M457.9,244.6c.1-.1.2-.1.3-.2l.1-.1c0-.1-.1-.1-.1,0-.3,0-.7.1-.9.1s-.2.2-.2.3.1.1.2.1c.1-.1.4-.1.6-.2Z" fill="#0d4160"/><path d="M432.3,232c-.1.1-.3.1-.2.3c0,.1.2.1.3.1.3,0,.6-.1.8-.1.1,0,.2,0,.1-.1c0-.1,0-.2-.1-.2-.3-.2-.6-.2-.9,0Z" fill="#0d4160"/><path d="M423.5,240c-.2,0-.4.3-.5.5c0,.1-.1.1,0,.2s.1.1.2,0v0c.2-.2.5-.4.8-.6.1-.1.1-.2.1-.3s-.1-.1-.2,0c-.2.1-.3.2-.4.2Z" fill="#0d4160"/><path d="M433.4,236.2c-.2.1-.3.2-.5.3-.1,0-.1.1-.1.2s.1,0,.2,0c.4-.1.7-.2.9-.4.1,0,.2-.1.1-.2c0-.1-.1-.2-.2-.1v0c-.1,0-.2.1-.4.2Z" fill="#0d4160"/><path d="M429.6,236.4c.2-.1.3-.2.5-.2.1-.1.1-.2.1-.3v0c-.1-.1-.2-.1-.3,0-.3.1-.6.4-.9.6c0,0-.1,0-.1.1s.1.1.1,0c.2-.1.4-.2.6-.2Z" fill="#0d4160"/><path d="M433.3,234.8c-.2.1-.4.2-.5.3-.1,0-.1.1-.1.1s0,.1.1.1c.4,0,.7-.1.9-.3.1-.1.1-.2,0-.3s-.2-.1-.3,0c0,0,0,.1-.1.1Z" fill="#0d4160"/><path d="M421.1,241c.1,0,.1-.1,0,0c.2-.3.3-.4.5-.6.1-.1.2-.3,0-.4-.1-.1-.3,0-.4.1-.2.2-.3.5-.4.7c0,.1-.1.1,0,.2.2.1.3,0,.3,0Z" fill="#0d4160"/><path d="M457.4,244.1c.1-.1.3-.1.4-.2s.1-.2,0-.2c-.1-.1-.1-.1-.2,0s-.2.1-.3.1-.3.1-.4.2c-.1,0-.2.1-.2.3c0,.1.2.1.3.1.2-.2.3-.2.4-.3Z" fill="#0d4160"/><path d="M422,237.6c-.2.1-.4.3-.6.5c0,.1-.1.1,0,.2c0,0,.1.1.2,0c.1,0,.1-.1.2-.1.2-.1.4-.3.6-.4.1,0,.2-.1.1-.2c0-.1-.2-.2-.3-.1-.1,0-.1.1-.2.1Z" fill="#0d4160"/><path d="M429,233.7c-.1.1-.3.1-.2.2c0,.1.2.1.3.1.3,0,.5-.1.8-.2.1,0,.2-.1.2-.2v0c0-.1-.2-.1-.3-.1-.3,0-.5.1-.8.2Z" fill="#0d4160"/><path d="M456.1,245.1v0c.2-.4.3-.8.2-1.1c0-.1-.1-.1-.1-.1-.1,0-.1,0-.1.1c0,.3-.1.5-.2.8c0,.1,0,.1,0,.2-.1.1,0,.1.2.1v0Z" fill="#0d4160"/><path d="M438,232.6c0,0,0,.1,0,0c.3.2.6.1.9,0c.1-.1.1-.2.1-.3s-.1-.1-.3-.1c-.2.1-.4.1-.6.2-.2,0-.2.1-.1.2Z" fill="#0d4160"/><path d="M427.4,234.9c-.2.1-.4.3-.5.3s-.1.1-.1.2.1.1.1.1c.3,0,.6-.1.9-.3.1-.1,0-.1,0-.2s-.1-.1-.2-.1v0c0-.1-.1-.1-.2,0Z" fill="#0d4160"/><path d="M448.2,232.8c0,0,0,.1,0,0c.4.3.6.7.9.9.1.1.2.2.4.1v0c.1,0,0-.2,0-.3-.2-.5-.6-.7-.9-.9-.1,0-.2,0-.2,0-.3.1-.3.1-.2.2Z" fill="#0d4160"/><path d="M437.2,233.7c.1,0,.2-.1.1-.2c0-.1-.1-.1-.2-.1v0c-.2,0-.4,0-.5,0s-.2,0-.3.1c-.1,0-.1.1-.1.1c0,.1.1.1.2.1.3.1.6,0,.8,0c0,.1,0,0,0,0Z" fill="#0d4160"/><path d="M425.4,239.8c.1,0,.2-.2.3-.3s.1-.2.1-.3c-.1-.1-.2-.1-.3-.1v0c-.2.1-.3.2-.4.4c0,.1-.1.1-.1.2.1.1.2.1.4.1-.1,0-.1,0,0,0Z" fill="#0d4160"/><path d="M452.6,236.2c.1,0,.1.1,0,0c.2.2.3.3.5.2.1-.1.1-.3,0-.4-.1-.3-.3-.5-.5-.8-.1-.1-.2-.1-.3-.1s-.1.1-.1.2c.2.4.3.6.4.9Z" fill="#0d4160"/><path d="M421.3,242.7c.1,0,.1-.1.2-.2s.1-.2.2-.3.1-.2,0-.3-.2-.1-.3,0c-.2.1-.3.3-.4.6c0,.1-.1.1,0,.2.2,0,.2,0,.3,0Z" fill="#0d4160"/><path d="M450.7,236.7c.2.2.4.5.8.5.1,0,.2,0,.3-.1c0-.1.1-.3-.1-.4-.3-.1-.5-.2-.8-.4-.1,0-.1,0-.2,0-.1.2-.1.3,0,.4Z" fill="#0d4160"/><path d="M423.5,238.5c-.1.1-.2.2-.3.3c0,.1-.1.1,0,.2s.2.1.3,0v0c.1-.1.1-.2.2-.2.1-.1.1-.2,0-.3c0-.1-.1-.1-.2,0Z" fill="#0d4160"/><path d="M424.9,235.4c-.2.1-.3.2-.4.4c0,.1-.1.1,0,.2s.1,0,.2,0c.1-.1.3-.2.4-.3s.1-.2.1-.3c-.2,0-.3,0-.3,0Z" fill="#0d4160"/><path d="M453.5,237.4c.2.1.3.2.5.3c0,0,.1.1.1,0c0,0,.1-.1,0-.1-.1-.2-.2-.3-.4-.5-.1-.1-.2,0-.2,0c0,.1,0,.2,0,.3Z" fill="#0d4160"/><path d="M452.6,243.1c-.1,0-.1.1,0,0-.2.1-.1,0,0,0-.1-.1-.1-.2-.1-.2-.1,0-.1,0-.1-.1c0-.2-.1-.1-.2-.1h-.1c0,.1,0,.1.1.2l.1.1c0,.1.1.2.3.3c0,0,0-.1,0-.2Z" fill="#0d4160"/><path d="M432.2,240.7c.1-.1.2-.1.2-.2s-.1-.1-.2-.1-.1,0-.2.1-.4.1-.3.3c.2.1.4-.1.5-.1Z" fill="#0d4160"/><path d="M452.1,242.5c0-.1.1-.1,0,0c.1-.1.2-.1.2-.2s-.1-.2-.2-.2s0,.1,0,.1s0,0-.1,0-.1.1-.1.2v.1c.1.1.1,0,.2,0v0Z" fill="#0d4160"/><path d="M451,243.1c-.1,0-.1-.1-.2-.1c0,.1,0,.2,0,.2.1.1.1,0,.2-.1c0,0,0-.2.1-.2c0,0,.1-.1,0-.1v0c0,0-.1,0-.1.1s0,.1,0,.2Z" fill="#0d4160"/><path d="M451.5,242.7c-.3,0-.2.2-.2.3s.1.1.1.2c0-.1.1-.2.1-.3c0-.2-.2-.2,0-.2Z" fill="#0d4160"/><path d="M453,243.8c0-.1-.2-.1-.2-.2s-.1-.2-.2-.2c0,0-.1-.1-.1,0s0,.1.1.1c.2,0,.2.1.1.2c0,0,0,.2.1.1.1,0,.2,0,.2,0Z" fill="#0d4160"/><path d="M451.5,242.4c0-.1.2-.1.1-.2c0-.1-.1-.1-.1-.1v0c0,.1,0,.2,0,.3-.1.1,0,0,0,0Z" fill="#0d4160"/><path d="M453.4,243.8c-.1-.1-.3-.2-.2-.3v-.1c-.1,0-.1.1-.1.1c0,.2.2.3.3.3Z" fill="#0d4160"/><path d="M452.1,244.5c.1-.1.1-.2.1-.3s-.1-.1-.2-.1c.1.1,0,.3.1.4Z" fill="#0d4160"/><path d="M452.5,243.7c0-.1-.1-.1,0,0-.2-.1-.1,0,0,0-.1.1,0,.1,0,0c.1.1,0,.1,0,0Z" fill="#0d4160"/><path d="M453.7,242.2c0,.1.1.1,0,0c.1.1.2,0,0,0v0v0c0-.1,0-.1,0,0Z" fill="#0d4160"/><path d="M451.5,242.1c0,0,0-.1,0,0c0-.1-.1-.2-.2-.1c0,0-.1,0-.1.1.2,0,.3,0,.3,0Z" fill="#0d4160"/><path d="M453.2,242.1c0,0,.1.1,0,0v0c.1-.2,0-.2,0-.2c0,.1,0,.1,0,.2c0-.1,0,0,0,0Z" fill="#0d4160"/></g></g></g><clipPath id="eiqALTkPOe5240"><use width="52.139893" height="48.039886" xlink:href="#eiqALTkPOe55"/></clipPath></g></g></g></g></g></g></g></g></g></g></g></g><line x1="456" y1="258.4" x2="469.7" y2="284.7" fill="none" stroke="#000" stroke-width="0.4804" stroke-miterlimit="10"/><line x1="453.4" y1="259.7" x2="467.1" y2="286" fill="none" stroke="#000" stroke-width="0.4804" stroke-miterlimit="10"/><line x1="450.9" y1="261" x2="464.5" y2="287.4" fill="none" stroke="#000" stroke-width="0.4804" stroke-miterlimit="10"/><line x1="448.3" y1="262.4" x2="462" y2="288.7" fill="none" stroke="#000" stroke-width="0.4804" stroke-miterlimit="10"/><line x1="445.8" y1="263.7" x2="459.4" y2="290" fill="none" stroke="#000" stroke-width="0.4804" stroke-miterlimit="10"/><g><path d="M436.2,269.3c.5,0,1-.1,1.7-.1.6-.7,1.1-1.3,1.4-1.7c0-.1-.1-.1-.1-.2.2-.2.4-.4.6-.5.2,0,.4.1.2.3-.2.3-.9,1.3-1.4,2c1.4-.1,2.8-.2,2.9.1.1.1.1.4,0,.5-.9-.3-5.6.4-6.2.4-.1-.1-.1-.6,0-.7.3-.1.5-.2.8-.3.1,0,0,.2.1.2Z" fill="#fff"/><path d="M440.7,270.1c.1.2.1.6-.5.9-.8.4-1.6.6-1.8.1-.1-.2,0-.4.1-.5-.3.1-.6.2-.9.3-.3.2-.5.4-.3.7.3.5,1.1.5,1.6.2c0,0,.1,0,.1.1.1.1,0,.2-.2.3-.5.3-1.6.4-1.9-.3-.3-.5,0-1.1.7-1.5c1-.5,2.8-.8,3.1-.3Zm-2.1.7c.1.2.9,0,1.4-.3.3-.1.3-.2.3-.2s-.1,0-.2,0c-.5,0-.9.1-1.4.3c0,0-.1.1-.1.2v0Z" fill="#fff"/><path d="M440.5,271c.2.2.4.4.5.6.3-.1.6-.1.9-.1.1.1.1.5,0,.5l-.5.1c.1.1.1.2.2.3s.2.2.1.3s0,.1,0,.2-.1.2-.1.2h-.1v0c-.2-.3-.4-.6-.6-.9-.9.2-1.6.4-2.4.8-.2.1-.2.2-.2.3.3.4.8.6,1.2.5c0,0,.2.2-.2.4-.5.2-1-.1-1.3-.5-.2-.4,0-.9.7-1.3.6-.3,1.2-.5,1.9-.7l-.2-.3c-.2-.1,0-.5.1-.4Z" fill="#fff"/><path d="M441.7,273.1c.1,0,.1,0,0,0c.1.1.3.6.1.7-.9.2-1.7.4-2.6.8-.2.1-.3.3-.2.4.2.4.9.1,1.1,0c.1.1.1.2,0,.3c0,0,0,0-.1.1-.5.3-1.2.2-1.5-.3-.2-.4,0-.7.5-.9c1-.6,1.8-.9,2.7-1.1Zm.9-.3c.2-.1.7-.3.9,0c.1.2.1.3-.1.3c0,.1-.1.3-.2.3-.3.2-.7.1-.8-.2v0c0-.1.1-.2.2-.4v0Z" fill="#fff"/></g><g><path d="M470.1,255.3c-1.1.7-2.5.2-3.1-.9l-.1-.1-.9-1.6l4.2-2.2.9,1.6c.6,1.3.2,2.6-1,3.2.1,0,.1,0,0,0Zm-.5-.8c.7-.3.9-1,.7-1.7c0,0,0-.1-.1-.1l-.4-.7-2.5,1.3.4.7c.3.7,1.1.9,1.8.7.1-.2.1-.2.1-.2v0Z" fill="#fff"/><path d="M472.7,257.3l-.9.5-.2-.4c-.3-.5-.6-.6-1.1-.3l-1.7.9-.5-.9l3.2-1.7.3.6-.3.4c.4.1.8.4.9.8l.3.1Z" fill="#fff"/><path d="M472.9,257.9l.5.9-3.2,1.7-.5-.9l3.2-1.7Zm1.2-.7l.5.9-.9.4-.5-.9.9-.4Z" fill="#fff"/><path d="M475.3,262.5l-3.9.4-.4-.8l2.6-3l.5.9-1.7,1.9l2.6-.4.3,1Z" fill="#fff"/><path d="M475.2,267l-1.2-2.5c-.4.3-.5.8-.3,1.1.1.3.4.5.8.5l.5.9c-1,.2-2.1-.5-2.4-1.5s.5-2.1,1.5-2.4s2.1.5,2.4,1.5c.2.9-.2,1.7-.9,2.1-.2.2-.3.3-.4.3Zm-.6-2.8l.9,1.5c.3-.3.4-.8.2-1.1-.3-.3-.7-.5-1.1-.4v0Z" fill="#fff"/><path d="M478.4,268.6l-.9.5-.2-.4c-.3-.5-.6-.6-1.1-.3l-1.7.9-.5-.9l3.2-1.7.3.6-.3.4c.4.1.8.4.9.8l.3.1Z" fill="#fff"/><path d="M462.3,258l-.9.5-1.3-2.5l4.2-2.2.5.9-3.3,1.7.8,1.6Z" fill="#fff"/><path d="M465,257.2l.5.9-3.2,1.7-.5-.9l3.2-1.7Zm1.2-.6l.5.9-.9.4-.5-.9.9-.4Z" fill="#fff"/><path d="M464.1,259.6c.9-.5,2.1-.2,2.6.8v.1c.5.8.3,1.8-.5,2.4l-.5-.9c.3-.4.3-1-.1-1.3-.3-.3-.8-.3-1-.1-.5.2-.7.8-.5,1.2v0c.2.4.6.6.9.5l.5.9c-.9.3-1.8-.1-2.2-.9-.5-1-.1-2.2.8-2.7v0Z" fill="#fff"/><path d="M467.6,266.8l-1.2-2.5c-.4.3-.5.8-.3,1.1.1.3.4.5.8.5l.5.9c-1,.2-2.1-.5-2.4-1.5-.2-1,.5-2.1,1.6-2.4c1-.2,2.1.5,2.4,1.5.2.9-.2,1.7-.9,2.1-.4.2-.5.2-.5.3Zm-.7-2.7l.9,1.5c.3-.3.4-.8.2-1.1-.3-.4-.7-.5-1.1-.4v0Z" fill="#fff"/><path d="M470,270.1l-2,1-.5-.9l1.8-.9c.5-.3.7-.6.5-.9s-.7-.6-1.1-.4c0,0-.1,0-.1.1l-1.7.9-.5-.9l3.2-1.7.3.6-.3.4c.5.1.9.4,1,.9.5.6.2,1.3-.6,1.8.2,0,.1,0,0,0Z" fill="#fff"/><path d="M469.4,271.2l.5.9c-.3.2-.3.5-.2.8s.4.4.6.3.1-.5,0-.8c-.2-.6-.4-1.3.4-1.7.6-.3,1.3,0,1.7.8.4.6.3,1.3-.3,1.8l-.1.1-.5-.9c.3-.1.3-.4.1-.7-.1-.3-.4-.4-.6-.3s-.1.4,0,.8c.2.6.4,1.3-.4,1.7-.7.4-1.3,0-1.8-.8-.5-.6-.3-1.4.4-1.9.2,0,.2-.1.2-.1Z" fill="#fff"/><path d="M473.1,277.5l-1.2-2.5c-.4.3-.5.8-.3,1.1.1.3.4.5.8.5l.5.9c-1,.2-2.1-.5-2.4-1.5-.2-1,.5-2.1,1.5-2.4c1-.2,2.1.5,2.4,1.5.2.9-.2,1.7-.9,2.1-.2.2-.3.2-.4.3Zm-.6-2.7l.9,1.5c.3-.3.4-.8.2-1.1-.3-.3-.7-.5-1.1-.4v0Z" fill="#fff"/></g></g><path d="M464.1,337.9l-6.2-54.5c-1.1-4.5-6.2-7.5-11.2-6.6-5,.8-7,2.7-7,9.5l.1,14.4.8,9.1c-.2,3.4.2,6.9,1.3,10.2c1.8,5.4.1-3.8-1.8,1.5l-.6,1.7c-3.8,13.3-.8,27.8,3.2,33.9c2,3,2.9,5.7,6.2,7.7c4.9,3.1,7.4,18.2,10.2,27.7c4,13.4,6.7,37.1,6.7,37.1L504,639h65L480.7,339.5" fill="#b1b1b1"/></g><clipPath id="eiqALTkPOe5267"><use width="641.100037" height="626.600037" xlink:href="#eiqALTkPOe54"/></clipPath></g></g></g></g></g></g></g><g><line x1="204.9" y1="172.2" x2="268.1" y2="172.2" fill="none" stroke="#fff" stroke-width="4.0255" stroke-linecap="round" stroke-linejoin="round" stroke-miterlimit="10"/><line x1="204.9" y1="181.7" x2="249.1" y2="181.7" fill="none" stroke="#fff" stroke-width="4.0255" stroke-linecap="round" stroke-linejoin="round" stroke-miterlimit="10"/><line x1="204.9" y1="196.4" x2="249.1" y2="196.4" fill="none" stroke="#004263" stroke-width="2.0127" stroke-linecap="round" stroke-linejoin="round" stroke-miterlimit="10"/><line x1="204.9" y1="203.4" x2="239.1" y2="203.4" fill="none" stroke="#004263" stroke-width="2.0127" stroke-linecap="round" stroke-linejoin="round" stroke-miterlimit="10"/></g><g><g><g><g><path d="M242.9,215.5h-37.8c-.6,0-1-.4-1-1s.4-1,1-1h37.8c.6,0,1,.4,1,1c.1.5-.4,1-1,1Z" fill="#fff"/></g></g></g></g></svg>
