<svg id="e3XcrpUPtAs1" xmlns="http://www.w3.org/2000/svg" xmlns:xlink="http://www.w3.org/1999/xlink" viewBox="80 0 441.1 626.6" shape-rendering="geometricPrecision" text-rendering="geometricPrecision">
<style><![CDATA[
#e3XcrpUPtAs117_to {animation: e3XcrpUPtAs117_to__to 2600ms linear infinite normal forwards}@keyframes e3XcrpUPtAs117_to__to { 0% {transform: translate(539.649997px,883.779166px)} 38.461538% {transform: translate(492.099997px,427.150003px)} 42.307692% {transform: translate(492.099997px,437.150003px)} 65.384615% {transform: translate(492.099997px,437.150003px)} 96.153846% {transform: translate(436.75px,865.534288px)} 100% {transform: translate(436.75px,865.534288px)}}
]]></style>
<defs><path id="e3XcrpUPtAs2" d="M404.1,169c0,0-.6,6.2,4,6.5s11.6,0,11.6,0l-3.3,116h-5.9c0,0-4.9-.6-5.7-1.2L404.1,169Z"/><path id="e3XcrpUPtAs3" d="M504.3,163.6c0,0-.9-3.1-1.7-.1s-1.6,12.1-5.5,12.1c-4.7,0-7.8,0-7.8,0l3.3,116h5.9c0,0,4.9-.6,5.7-1.2l.1-126.8Z"/><rect id="e3XcrpUPtAs4" width="641.1" height="626.6" rx="0" ry="0"/><circle id="e3XcrpUPtAs5" r="2.2"/><path id="e3XcrpUPtAs6" d="M445.6,271.1c1.2,0,2.2.9,2.2,2.2c0,1.2-.9,2.2-2.2,2.2-1.2,0-2.2-.9-2.2-2.2c0-1.2,1-2.1,2.2-2.2Z"/><circle id="e3XcrpUPtAs7" r="2.2"/><path id="e3XcrpUPtAs8" d="M423.8,300.6c.1,0,.1,0,0,0l35.1,7.8-3.3,7.8-32.8-.2c0,0,0,0-.1,0-4.6,0-8.1-3.5-7.8-7.8s3.7-9,8.9-7.6Z"/><path id="e3XcrpUPtAs9" d="M426.4,312.2v0l31.1-1.8l2,14.2-31.1,1.7c0,0,0,0-.1,0-4.3.3-8.4-2.7-8.9-6.7s2.7-7.2,7-7.4Z"/><path id="e3XcrpUPtAs10" d="M428.7,324.3v0l28.3,1.2-.1,12.8-28.2-1.2c0,0,0,0-.1,0-4-.2-7.2-3.2-7.2-6.8.1-3.6,3.3-6.2,7.3-6Z"/><path id="e3XcrpUPtAs11" d="M457.8,290.3c1.7-.1,3.4.5,4.6,1.6l13.8,11.7c2,1.8,3.1,4.2,3.1,6.9l.5,51.1c0,3-2.7,5.3-6.1,5.1l-12.2-.6c-3.4-.2-6.1-2.7-6.1-5.7l2.4-42.8-10.7-9-23.1-.3c-9.9.2-15.4-4.2-13.8-10c.9-3.4,2.9-5.8,10.5-5.7l37.1-2.3Z"/><path id="e3XcrpUPtAs12" d="M419.8,207.6l1.7,33.2c1.3,25.5,5.1,50.9,11.2,75.7l4.1-5.3l5.3,4.1l4.1-5.3l5.3,4.1l4.1-5.3l5.3,4.1l4.1-5.3l5.3,4.1l4.1-5.3l5.3,4.1l4.1-5.3l5.3,4.1c-6.1-24.8-9.9-50.1-11.2-75.7l-1.7-33.2-4.1,5.3-5.3-4.1-4.1,5.3-5.3-4.1-4.1,5.3L448,204l-4.1,5.3-5.3-4.1-4.1,5.3-5.3-4.1-4.1,5.3-5.3-4.1Z"/><path id="e3XcrpUPtAs13" d="M463.2,346.8l-6.1-54.2c-1.1-4.4-6.1-7.4-11.1-6.6s-7,2.6-7,9.4l.1,14.3.8,9c-.2,3.4.2,6.9,1.3,10.2c1.8,5.4.1-3.8-1.8,1.5l-.6,1.7c-3.8,13.2-.8,27.7,3.2,33.7c2,3,2.9,5.7,6.1,7.6c4.9,3.1,7.3,18.1,10.2,27.5c4,13.3,6.7,36.9,6.7,36.9l26.2,205.9l83.6,2.4-95-298"/><polygon id="e3XcrpUPtAs14" points="341.7,236.5 338.6,233.2 335.3,236.5 332.1,233.2 329,236.5 325.7,233.2 322.7,236.5 319.5,233.2 316.3,236.5 313.1,233.2 310,236.5 306.7,233.2 303.7,236.5 303.7,163.5 306.7,166.7 310,163.5 313.1,166.7 316.3,163.5 319.5,166.7 322.7,163.5 325.7,166.7 329,163.5 332.1,166.7 335.3,163.5 338.6,166.7 341.7,163.5"/><rect id="e3XcrpUPtAs15" width="26.2" height="26.6" rx="0" ry="0"/><rect id="e3XcrpUPtAs16" width="8.8" height="8.8" rx="0" ry="0"/><rect id="e3XcrpUPtAs17" width="4.5" height="4.5" rx="0" ry="0"/><rect id="e3XcrpUPtAs18" width="4.5" height="4.5" rx="0" ry="0"/><rect id="e3XcrpUPtAs19" width="4.5" height="4.5" rx="0" ry="0"/><rect id="e3XcrpUPtAs20" width="4.5" height="8.8" rx="0" ry="0"/><rect id="e3XcrpUPtAs21" width="4.5" height="4.5" rx="0" ry="0"/><polygon id="e3XcrpUPtAs22" points="327,193.9 327,198.2 331.4,198.2 331.4,202.7 335.7,202.7 335.7,193.9"/><rect id="e3XcrpUPtAs23" width="4.5" height="4.5" rx="0" ry="0"/><rect id="e3XcrpUPtAs24" width="4.5" height="4.5" rx="0" ry="0"/><rect id="e3XcrpUPtAs25" width="4.5" height="4.5" rx="0" ry="0"/><rect id="e3XcrpUPtAs26" width="4.5" height="4.5" rx="0" ry="0"/><rect id="e3XcrpUPtAs27" width="4.5" height="4.5" rx="0" ry="0"/><path id="e3XcrpUPtAs28" d="M333.4,208.4h-23.8c-.2,0-.3-.1-.3-.3s.1-.3.3-.3h23.8c.2,0,.3.1.3.3.1,0-.1.3-.3.3Z"/><path id="e3XcrpUPtAs29" d="M333.4,210.1h-23.8c-.2,0-.3-.1-.3-.3s.1-.3.3-.3h23.8c.2,0,.3.1.3.3.1.2-.1.3-.3.3Z"/><path id="e3XcrpUPtAs30" d="M333.4,212.3h-23.8c-.2,0-.3-.1-.3-.3s.1-.3.3-.3h23.8c.2,0,.3.1.3.3.1.1-.1.3-.3.3Z"/><path id="e3XcrpUPtAs31" d="M320.3,216.9h-10.7c-.2,0-.3-.1-.3-.3s.1-.3.3-.3h10.7c.2,0,.3.1.3.3s-.1.3-.3.3Z"/><path id="e3XcrpUPtAs32" d="M333.6,216.9h-10.7c-.2,0-.3-.1-.3-.3s.1-.3.3-.3h10.7c.2,0,.3.1.3.3s-.1.3-.3.3Z"/></defs><g><path d="M506.4,162.2c-.1,0-.1.1-.1.1v1.7v39.6h-.3c-.1,0-.1.1-.1.1v.1v0h-1.6v-38.5-1.7c0-.1-.1-.1-.1-.1h-1.6c-.1,0-.1.1-.1.1v1.7v6.8c0,2.1-3.7,3.7-8.3,3.7h-81.7c-.9,0-1.8-.1-2.6-.2v0v0c-.2,0-.4,0-.6,0s-.4,0-.6,0c-.4,0-.7-.1-1.1-.2-.3-.1-.7-.2-1-.3s-.6-.3-.8-.4c-.1-.1-.2-.2-.3-.3s-.2-.2-.3-.3c-.2-.2-.4-.4-.5-.6s-.2-.4-.3-.7c-.1-.2-.1-.5-.1-.7v-59.8v0v0l-.1-.7v0l-.3-.7-.5-.7-.7-.7-.9-.6-1-.6-1.2-.6-1.3-.5-1.5-.4-1.6-.4-1.7-.3-1.8-.3-1.8-.2-1.9-.1h-1.9v0h-223.6v0h-1.9l-1.9.1-1.8.2-1.8.3-1.7.3-1.6.4-1.5.4-1.3.5-1.2.6-1,.6-.9.6-.7.7-.5.7-.3.7v0l-.1.7v0v0v91.5h-1.6v-.2c0-.1-.1-.1-.1-.1h-.3v-83.9-6.8c0-.1-.1-.1-.1-.1h-2.7c-.1,0-.1.1-.1.1v6.8v152.4v14.1v118.8c0,1.7,1.7,3.3,4.9,4.5v217.2h360.1v-217.2c3.1-1.2,4.9-2.8,4.9-4.5v-119.1-23.9-97.9-1.7c0-.1-.1-.1-.1-.1h-2.8Z" fill="#e7e7e7"/><g><path d="M144.7,294.7v-2.9c0,0-5.3-13.4,14.4-13.6c19.6-.1,227.3,0,227.3,0s14.8.7,15.7,5.9.6,7.2,8.4,7.5s84.1,0,84.1,0s8.8.8,10-4.3v9l-358-1-1.9-.6" opacity="0.32" fill="#555b5f"/></g><rect width="362.3" height="3.8" rx="0" ry="0" transform="translate(144.7 291.7)" fill="#555b5f"/><g opacity="0.45"><g><g clip-path="url(#e3XcrpUPtAs47)"><g opacity="0.23"><rect width="4.1" height="119.2" rx="0" ry="0" transform="translate(404.1 172.1)" fill="#555b5f"/><polygon points="405.5,171.9 410.4,171.9 410.4,291.6 405.5,291.6 405.5,291.4 408,291.4 408,172.1 405.5,172.1"/><rect width="4.6" height="119.7" rx="0" ry="0" transform="translate(410.4 171.9)" fill="#555b5f"/><g><rect width="1.5" height="118.8" rx="0" ry="0" transform="translate(407 172.3)" fill="#1a1a1a"/></g></g><clipPath id="e3XcrpUPtAs47"><use width="15.625702" height="122.5" xlink:href="#e3XcrpUPtAs2"/></clipPath></g></g></g><g opacity="0.45"><g><g clip-path="url(#e3XcrpUPtAs58)"><g opacity="0.23"><polygon points="500.7,291.4 501.5,160.2 504.8,159.6 504.8,291.4" fill="#555b5f"/><polygon points="503.4,172.1 500.9,172.1 500.9,291.4 503.4,291.4 503.4,291.6 498.5,291.6 498.5,171.9 503.4,171.9"/><rect width="4.6" height="119.7" rx="0" ry="0" transform="translate(493.9 171.9)" fill="#555b5f"/><g><rect width="1.5" height="118.8" rx="0" ry="0" transform="translate(500.4 172.3)" fill="#1a1a1a"/></g></g><clipPath id="e3XcrpUPtAs58"><use width="15" height="129.407898" xlink:href="#e3XcrpUPtAs3"/></clipPath></g></g></g><rect width="359.4" height="24.2" rx="0" ry="0" transform="translate(145.2 294.5)" fill="#d4d4d4"/><g opacity="0.23"><rect width="358.8" height="7.7" rx="0" ry="0" transform="translate(145.2 309)" fill="#d4d4d4"/><polygon points="504.8,311.7 504.8,320.9 144.5,320.9 144.5,311.7 145.2,311.7 145.2,316.4 504.1,316.4 504.1,311.7" fill="#fff"/><rect width="360.3" height="8.6" rx="0" ry="0" transform="translate(144.5 320.9)" fill="#d4d4d4"/><g><rect width="360.3" height="2.8" rx="0" ry="0" transform="translate(145.8 314.5)" fill="#fff"/></g></g><g><path d="M487,423c-.1,3.2-2.6,5.6-5.4,5.5h-89.8c-2.9.2-5.3-2.3-5.4-5.5v-71c.1-3.2,2.6-5.6,5.4-5.5h89.8c2.9-.2,5.3,2.3,5.4,5.5v71v0Z" fill="#e5e5e5" stroke="#4a4a4a" stroke-width="0.3565" stroke-miterlimit="10"/><path d="M460.6,397.7c0,.5-.4,1-.9,1h-46.1c-.4,0-.9-.5-.9-1v-1.4c0-.5.4-1,.9-1h46.1c.4,0,.9.5.9,1v1.4v0Z" fill="#2a353f" stroke="#000" stroke-width="0.5513" stroke-linecap="round" stroke-linejoin="round"/><rect width="47.9" height="1" rx="0" ry="0" transform="translate(412.8 396.6)" fill="none" stroke="#000" stroke-width="0.1103" stroke-linecap="round" stroke-linejoin="round"/><path d="M460.6,397.5v.2c0,.5-.4,1-.9,1h-46.1c-.4,0-.9-.5-.9-1v-.2h47.9Z" fill="#161b1e" stroke="#000" stroke-width="0.1103" stroke-linecap="round" stroke-linejoin="round"/><path d="M460.6,396.3v.2h-47.9v-.2c0-.5.4-1,.9-1h46.1c.6,0,.9.4.9,1Z" fill="#161b1e" stroke="#000" stroke-width="0.1103" stroke-linecap="round" stroke-linejoin="round"/><rect width="47.9" height="1" rx="0" ry="0" transform="translate(412.8 396.6)" fill="none" stroke="#000" stroke-width="0.1103" stroke-linecap="round" stroke-linejoin="round"/><rect width="47.9" height="1" rx="0" ry="0" transform="translate(412.8 396.6)" stroke="#000" stroke-width="0.1103" stroke-linecap="round" stroke-linejoin="round"/></g><path d="M290.6,362.3h-32.6c-.7-.1-1.3-.8-1.3-1.8-.1-1,.6-1.9,1.3-2h32.6c.7.1,1.3.8,1.3,1.8.1,1.1-.5,1.9-1.3,2Z" fill="#fff"/><circle r="3.2" transform="translate(274.8 119.6)" fill="#2a353f" stroke="#000" stroke-width="0.093122" stroke-linecap="round" stroke-linejoin="round" stroke-miterlimit="1"/><path d="M378.4,260.2c0,2.1-1.7,3.8-3.8,3.8h-199.6c-2.1,0-3.8-1.7-3.8-3.8v-120c0-2.1,1.7-3.8,3.8-3.8h199.6c2.1,0,3.8,1.7,3.8,3.8v120v0Z" fill="#2a353f" stroke="#000" stroke-width="0.093122" stroke-linecap="round" stroke-linejoin="round" stroke-miterlimit="1"/><path d="M374.6,136.5h-199.6c-2.1,0-3.8,1.7-3.8,3.8v120c0,2.1,1.7,3.8,3.8,3.8h199.6c2.1,0,3.8-1.7,3.8-3.8v-120.1c0-2.1-1.7-3.7-3.8-3.7Zm-8.7,115.1h-182.2v-102.7h182.2v102.7Z" stroke="#000" stroke-width="0.093122" stroke-linecap="round" stroke-linejoin="round" stroke-miterlimit="1"/><rect width="182.2" height="102.7" rx="0" ry="0" transform="translate(183.7 148.9)" fill="#37e6d5" stroke="#000" stroke-width="0.093122" stroke-linecap="round" stroke-linejoin="round" stroke-miterlimit="1"/><circle r="3.2" transform="translate(274.8 119.6)" stroke="#000" stroke-width="0.093122" stroke-linecap="round" stroke-linejoin="round" stroke-miterlimit="1"/><g><circle r="20.8" transform="translate(321.7 214.7)" fill="#fff"/><line x1="303.8" y1="169" x2="340" y2="169" fill="none" stroke="#fff" stroke-width="5.8003" stroke-linecap="round" stroke-miterlimit="1"/><line x1="210.7" y1="164.8" x2="246.8" y2="164.8" fill="none" stroke="#fff" stroke-width="4.853" stroke-linecap="round" stroke-miterlimit="1"/><line x1="210.7" y1="173.1" x2="246.8" y2="173.1" fill="none" stroke="#fff" stroke-width="4.853" stroke-linecap="round" stroke-miterlimit="1"/><line x1="214.6" y1="196.5" x2="240.9" y2="196.5" fill="none" stroke="#fff" stroke-width="4.853" stroke-linecap="round" stroke-miterlimit="1"/><line x1="209.7" y1="206.2" x2="245.9" y2="206.2" fill="none" stroke="#0d4160" stroke-width="2.4266" stroke-linecap="round" stroke-miterlimit="1"/><line x1="268" y1="169" x2="282" y2="169" fill="none" stroke="#0d4160" stroke-width="4.853" stroke-linecap="round" stroke-miterlimit="1"/><line x1="214.6" y1="223.1" x2="240.9" y2="223.1" fill="none" stroke="#fff" stroke-width="4.853" stroke-linecap="round" stroke-miterlimit="1"/><line x1="209.7" y1="232.8" x2="245.9" y2="232.8" fill="none" stroke="#0d4160" stroke-width="2.4266" stroke-linecap="round" stroke-miterlimit="1"/></g><path d="M144.5,408c0,0-4.2-1.1-4.2-5.4v-290.2h4.2v295.6Z" fill="#1a1a1a"/><path d="M504.3,408.8v0-246.6h4.3v239.9c0,3.2-.4,5-4.3,6.7Z" fill="#1a1a1a"/><g><path d="M428.7,238.8v-3.7c.1-1.8,1.4-3.3,3-3.3h44c1.6-.1,2.9,1.4,3,3.3v3.7h-50Z" fill="#808080"/><rect width="50" height="10" rx="0" ry="0" transform="translate(428.7 238.8)" fill="#979797"/><path d="M428.7,266.6v-17.8h50v17.8c-.1,1.8-1.4,3.3-3,3.3h-43.9c-1.7.1-3.1-1.3-3.1-3.3Z" fill="#979797"/><g><path d="M207.2,306.9v-3.7c.1-1.8,1.4-3.3,3-3.3h128.3c1.6-.1,2.9,1.4,3,3.3v3.7h-134.3Z" fill="#979797"/><rect width="134.3" height="10" rx="0" ry="0" transform="translate(207.3 306.9)" fill="#979797"/><path d="M207.2,342.5v-25.6h134.3v25.6c-.1,1.8-1.4,3.3-3,3.3h-128.3c-1.5,0-2.9-1.4-3-3.3Z" fill="#808080"/></g><rect width="34.5" height="5" rx="0" ry="0" transform="translate(436.4 248)"/></g><path d="M341.6,338.4v3.7c-.1,1.8-1.4,3.3-3,3.3h-128.3c-1.6.1-2.9-1.4-3-3.3v-3.7h134.3Z" opacity="0.38" fill="#dfdfdf"/><rect width="106.1" height="10.4" rx="0" ry="0" transform="translate(221.3 319.3)"/><rect width="106.1" height="2.4" rx="0" ry="0" transform="translate(221.3 323.3)" fill="#34393d" stroke="#000" stroke-width="0.096109" stroke-linecap="round" stroke-linejoin="round"/><g><rect width="184.7" height="104.1" rx="0" ry="0" transform="translate(182.1 148.2)" fill="#fe7f78" stroke="#000" stroke-width="0.09435" stroke-linecap="round" stroke-linejoin="round"/></g></g><g><line x1="204.9" y1="172.2" x2="268.1" y2="172.2" fill="none" stroke="#fff" stroke-width="4.0255" stroke-linecap="round" stroke-linejoin="round" stroke-miterlimit="10"/><line x1="204.9" y1="181.7" x2="249.1" y2="181.7" fill="none" stroke="#fff" stroke-width="4.0255" stroke-linecap="round" stroke-linejoin="round" stroke-miterlimit="10"/><line x1="204.9" y1="196.4" x2="249.1" y2="196.4" fill="none" stroke="#004263" stroke-width="2.0127" stroke-linecap="round" stroke-linejoin="round" stroke-miterlimit="10"/><line x1="204.9" y1="203.4" x2="239.1" y2="203.4" fill="none" stroke="#004263" stroke-width="2.0127" stroke-linecap="round" stroke-linejoin="round" stroke-miterlimit="10"/></g><g><g><g><g><path d="M242.9,215.5h-37.8c-.6,0-1-.4-1-1s.4-1,1-1h37.8c.6,0,1,.4,1,1c.1.5-.4,1-1,1Z" fill="#fff"/></g></g></g></g><g id="e3XcrpUPtAs117_to" transform="translate(539.649997,883.779166)"><g transform="translate(-492.349991,-426.449997)"><g><g><g><g><g clip-path="url(#e3XcrpUPtAs214)"><g><g><g><g><g><g><g><g clip-path="url(#e3XcrpUPtAs132)"><rect width="78.1" height="102.8" rx="0" ry="0" transform="translate(406.4 214.8)" fill="#d4d4d4"/><clipPath id="e3XcrpUPtAs132"><use width="4.4" height="4.4" xlink:href="#e3XcrpUPtAs5" transform="translate(445.6 273.3)"/></clipPath></g></g></g></g></g></g></g><g><g><g><g><g><g><g clip-path="url(#e3XcrpUPtAs142)"><rect width="6.2" height="6.2" rx="0" ry="0" transform="translate(442.5 270.1)" fill="#241f20"/><clipPath id="e3XcrpUPtAs142"><use width="4.400024" height="4.400024" xlink:href="#e3XcrpUPtAs6"/></clipPath></g></g></g></g></g></g></g><g><g><g><g><g><g><g clip-path="url(#e3XcrpUPtAs152)"><rect width="6.2" height="6.2" rx="0" ry="0" transform="translate(442.5 270.2)"/><clipPath id="e3XcrpUPtAs152"><use width="4.4" height="4.4" xlink:href="#e3XcrpUPtAs7" transform="translate(445.6 273.3)"/></clipPath></g></g></g></g></g></g></g><g><g><g><g><g><g><g clip-path="url(#e3XcrpUPtAs162)"><rect width="46.2" height="18.8" rx="0" ry="0" transform="translate(413.7 298.3)" fill="#b1b1b1"/><clipPath id="e3XcrpUPtAs162"><use width="44.017914" height="15.851807" xlink:href="#e3XcrpUPtAs8"/></clipPath></g></g></g></g></g></g></g><g><g><g><g><g><g><g clip-path="url(#e3XcrpUPtAs172)"><rect width="42.4" height="18.1" rx="0" ry="0" transform="translate(418 309.5)" fill="#b1b1b1"/><clipPath id="e3XcrpUPtAs172"><use width="40.15152" height="15.920685" xlink:href="#e3XcrpUPtAs9"/></clipPath></g></g></g></g></g></g></g><g><g><g><g><g><g><g clip-path="url(#e3XcrpUPtAs182)"><rect width="37.4" height="16.1" rx="0" ry="0" transform="translate(420.6 323.2)" fill="#b1b1b1"/><clipPath id="e3XcrpUPtAs182"><use width="35.600037" height="14.010803" xlink:href="#e3XcrpUPtAs10"/></clipPath></g></g></g></g></g></g></g><g><g><g><g><g><g><g clip-path="url(#e3XcrpUPtAs192)"><rect width="73.2" height="78.5" rx="0" ry="0" transform="translate(407.6 289.3)" fill="#b1b1b1"/><clipPath id="e3XcrpUPtAs192"><use width="69.874451" height="76.422943" xlink:href="#e3XcrpUPtAs11"/></clipPath></g></g></g></g></g></g></g><g><g><g><g><g><g><g clip-path="url(#e3XcrpUPtAs202)"><rect width="71.3" height="117.5" rx="0" ry="0" transform="translate(418.9 199.9)" fill="#fff"/><clipPath id="e3XcrpUPtAs202"><use width="69.299988" height="116.099884" xlink:href="#e3XcrpUPtAs12"/></clipPath></g></g></g></g></g></g></g><g><g><g><g><g><g><g clip-path="url(#e3XcrpUPtAs212)"><polygon points="434.1,284.2 576.3,285.2 578.3,653 436.1,652" fill="#b1b1b1"/><clipPath id="e3XcrpUPtAs212"><use width="137.74942" height="360.229279" xlink:href="#e3XcrpUPtAs13"/></clipPath></g></g></g></g></g></g></g></g><clipPath id="e3XcrpUPtAs214"><use width="641.100037" height="626.600037" xlink:href="#e3XcrpUPtAs4"/></clipPath></g></g></g></g></g></g></g><g><g><g><g><g><g><g><g clip-path="url(#e3XcrpUPtAs225)"><rect width="40.1" height="75" rx="0" ry="0" transform="translate(302.6 162.5)" fill="#f0f0f0"/><clipPath id="e3XcrpUPtAs225"><use width="38" height="73" xlink:href="#e3XcrpUPtAs14"/></clipPath></g></g></g></g></g></g></g><g><g><g><g><g><g><g clip-path="url(#e3XcrpUPtAs235)"><rect width="28.4" height="28.7" rx="0" ry="0" transform="translate(308.6 175)" fill="#fff"/><clipPath id="e3XcrpUPtAs235"><use width="26.199999" height="26.6" xlink:href="#e3XcrpUPtAs15" transform="translate(309.5 176.1)"/></clipPath></g></g></g></g></g></g></g><g><g><g><g><g><g><g clip-path="url(#e3XcrpUPtAs245)"><rect width="10.9" height="11" rx="0" ry="0" transform="translate(308.6 175)" fill="#004263"/><clipPath id="e3XcrpUPtAs245"><use width="8.8" height="8.8" xlink:href="#e3XcrpUPtAs16" transform="translate(309.5 176.1)"/></clipPath></g></g></g></g></g></g></g><g><g><g><g><g><g><g clip-path="url(#e3XcrpUPtAs255)"><rect width="6.4" height="6.6" rx="0" ry="0" transform="translate(317.2 175)" fill="#004263"/><clipPath id="e3XcrpUPtAs255"><use width="4.5" height="4.5" xlink:href="#e3XcrpUPtAs17" transform="translate(318.2 176.1)"/></clipPath></g></g></g></g></g></g></g><g><g><g><g><g><g><g clip-path="url(#e3XcrpUPtAs265)"><rect width="6.4" height="6.6" rx="0" ry="0" transform="translate(321.6 179.5)" fill="#004263"/><clipPath id="e3XcrpUPtAs265"><use width="4.5" height="4.5" xlink:href="#e3XcrpUPtAs18" transform="translate(322.7 180.5)"/></clipPath></g></g></g></g></g></g></g><g><g><g><g><g><g><g clip-path="url(#e3XcrpUPtAs275)"><rect width="6.4" height="6.6" rx="0" ry="0" transform="translate(326 175)" fill="#004263"/><clipPath id="e3XcrpUPtAs275"><use width="4.5" height="4.5" xlink:href="#e3XcrpUPtAs19" transform="translate(327 176.1)"/></clipPath></g></g></g></g></g></g></g><g><g><g><g><g><g><g clip-path="url(#e3XcrpUPtAs285)"><rect width="6.4" height="11" rx="0" ry="0" transform="translate(330.4 179.5)" fill="#004263"/><clipPath id="e3XcrpUPtAs285"><use width="4.5" height="8.8" xlink:href="#e3XcrpUPtAs20" transform="translate(331.4 180.5)"/></clipPath></g></g></g></g></g></g></g><g><g><g><g><g><g><g clip-path="url(#e3XcrpUPtAs295)"><rect width="6.4" height="6.6" rx="0" ry="0" transform="translate(321.6 188.4)" fill="#004263"/><clipPath id="e3XcrpUPtAs295"><use width="4.5" height="4.5" xlink:href="#e3XcrpUPtAs21" transform="translate(322.7 189.4)"/></clipPath></g></g></g></g></g></g></g><g><g><g><g><g><g><g clip-path="url(#e3XcrpUPtAs305)"><rect width="10.8" height="11" rx="0" ry="0" transform="translate(326 192.8)" fill="#004263"/><clipPath id="e3XcrpUPtAs305"><use width="8.700012" height="8.800003" xlink:href="#e3XcrpUPtAs22"/></clipPath></g></g></g></g></g></g></g><g><g><g><g><g><g><g clip-path="url(#e3XcrpUPtAs315)"><rect width="6.4" height="6.6" rx="0" ry="0" transform="translate(317.2 192.8)" fill="#004263"/><clipPath id="e3XcrpUPtAs315"><use width="4.5" height="4.5" xlink:href="#e3XcrpUPtAs23" transform="translate(318.2 193.9)"/></clipPath></g></g></g></g></g></g></g><g><g><g><g><g><g><g clip-path="url(#e3XcrpUPtAs325)"><rect width="6.4" height="6.6" rx="0" ry="0" transform="translate(312.8 183.9)" fill="#004263"/><clipPath id="e3XcrpUPtAs325"><use width="4.5" height="4.5" xlink:href="#e3XcrpUPtAs24" transform="translate(313.9 184.9)"/></clipPath></g></g></g></g></g></g></g><g><g><g><g><g><g><g clip-path="url(#e3XcrpUPtAs335)"><rect width="6.4" height="6.6" rx="0" ry="0" transform="translate(308.6 192.8)" fill="#004263"/><clipPath id="e3XcrpUPtAs335"><use width="4.5" height="4.5" xlink:href="#e3XcrpUPtAs25" transform="translate(309.5 193.9)"/></clipPath></g></g></g></g></g></g></g><g><g><g><g><g><g><g clip-path="url(#e3XcrpUPtAs345)"><rect width="6.4" height="6.6" rx="0" ry="0" transform="translate(312.8 197.3)" fill="#004263"/><clipPath id="e3XcrpUPtAs345"><use width="4.5" height="4.5" xlink:href="#e3XcrpUPtAs26" transform="translate(313.9 198.2)"/></clipPath></g></g></g></g></g></g></g><g><g><g><g><g><g><g clip-path="url(#e3XcrpUPtAs355)"><rect width="6.4" height="6.6" rx="0" ry="0" transform="translate(308.6 197.3)" fill="#004263"/><clipPath id="e3XcrpUPtAs355"><use width="4.5" height="4.5" xlink:href="#e3XcrpUPtAs27" transform="translate(309.5 198.2)"/></clipPath></g></g></g></g></g></g></g><g><g><g><g><g><g><g clip-path="url(#e3XcrpUPtAs365)"><rect width="26.5" height="2.7" rx="0" ry="0" transform="translate(308.3 206.6)" fill="#004263"/><clipPath id="e3XcrpUPtAs365"><use width="24.426575" height="0.600006" xlink:href="#e3XcrpUPtAs28"/></clipPath></g></g></g></g></g></g></g><g><g><g><g><g><g><g clip-path="url(#e3XcrpUPtAs375)"><rect width="26.5" height="2.7" rx="0" ry="0" transform="translate(308.3 208.5)" fill="#004263"/><clipPath id="e3XcrpUPtAs375"><use width="24.426575" height="0.600006" xlink:href="#e3XcrpUPtAs29"/></clipPath></g></g></g></g></g></g></g><g><g><g><g><g><g><g clip-path="url(#e3XcrpUPtAs385)"><rect width="26.5" height="2.7" rx="0" ry="0" transform="translate(308.3 210.5)" fill="#004263"/><clipPath id="e3XcrpUPtAs385"><use width="24.426575" height="0.600006" xlink:href="#e3XcrpUPtAs30"/></clipPath></g></g></g></g></g></g></g><g><g><g><g><g><g><g clip-path="url(#e3XcrpUPtAs395)"><rect width="13.4" height="2.7" rx="0" ry="0" transform="translate(308.3 215.3)" fill="#004263"/><clipPath id="e3XcrpUPtAs395"><use width="11.299988" height="0.600006" xlink:href="#e3XcrpUPtAs31"/></clipPath></g></g></g></g></g></g></g><g><g><g><g><g><g><g clip-path="url(#e3XcrpUPtAs405)"><rect width="13.4" height="2.7" rx="0" ry="0" transform="translate(321.6 215.3)" fill="#004263"/><clipPath id="e3XcrpUPtAs405"><use width="11.299988" height="0.600006" xlink:href="#e3XcrpUPtAs32"/></clipPath></g></g></g></g></g></g></g></g></svg>
