<svg id="ehnkwmt1XxY1" xmlns="http://www.w3.org/2000/svg" xmlns:xlink="http://www.w3.org/1999/xlink" viewBox="80 0 441.1 626.6" shape-rendering="geometricPrecision" text-rendering="geometricPrecision">
<style><![CDATA[
#ehnkwmt1XxY89_to {animation: ehnkwmt1XxY89_to__to 2700ms linear infinite normal forwards}@keyframes ehnkwmt1XxY89_to__to { 0% {transform: translate(547.507849px,890.045904px)} 37.037037% {transform: translate(515.182159px,469.994477px)} 40.740741% {transform: translate(515.182159px,477.994477px)} 59.259259% {transform: translate(515.182159px,477.994477px)} 92.592593% {transform: translate(482.699999px,891.508728px)} 100% {transform: translate(482.699999px,891.508728px)}}
]]></style>
<defs><path id="ehnkwmt1XxY2" d="M404.1,169c0,0-.6,6.2,4,6.5s11.6,0,11.6,0l-3.3,116h-5.9c0,0-4.9-.6-5.7-1.2L404.1,169Z"/><path id="ehnkwmt1XxY3" d="M504.3,163.6c0,0-.9-3.1-1.7-.1s-1.6,12.1-5.5,12.1c-4.7,0-7.8,0-7.8,0l3.3,116h5.9c0,0,4.9-.6,5.7-1.2l.1-126.8Z"/><rect id="ehnkwmt1XxY4" width="641.1" height="626.3" rx="0" ry="0"/></defs><g><path d="M506.4,162.2c-.1,0-.1.1-.1.1v1.7v39.6h-.3c-.1,0-.1.1-.1.1v.1v0h-1.6v-38.5-1.7c0-.1-.1-.1-.1-.1h-1.6c-.1,0-.1.1-.1.1v1.7v6.8c0,2.1-3.7,3.7-8.3,3.7h-81.7c-.9,0-1.8-.1-2.6-.2v0v0c-.2,0-.4,0-.6,0s-.4,0-.6,0c-.4,0-.7-.1-1.1-.2-.3-.1-.7-.2-1-.3s-.6-.3-.8-.4c-.1-.1-.2-.2-.3-.3s-.2-.2-.3-.3c-.2-.2-.4-.4-.5-.6s-.2-.4-.3-.7c-.1-.2-.1-.5-.1-.7v-59.8v0v0l-.1-.7v0l-.3-.7-.5-.7-.7-.7-.9-.6-1-.6-1.2-.6-1.3-.5-1.5-.4-1.6-.4-1.7-.3-1.8-.3-1.8-.2-1.9-.1h-1.9v0h-223.6v0h-1.9l-1.9.1-1.8.2-1.8.3-1.7.3-1.6.4-1.5.4-1.3.5-1.2.6-1,.6-.9.6-.7.7-.5.7-.3.7v0l-.1.7v0v0v91.5h-1.6v-.2c0-.1-.1-.1-.1-.1h-.3v-83.9-6.8c0-.1-.1-.1-.1-.1h-2.7c-.1,0-.1.1-.1.1v6.8v152.4v14.1v118.8c0,1.7,1.7,3.3,4.9,4.5v217.2h360.1v-217.2c3.1-1.2,4.9-2.8,4.9-4.5v-119.1-23.9-97.9-1.7c0-.1-.1-.1-.1-.1h-2.8Z" fill="#e7e7e7"/><g><path d="M144.7,294.7v-2.9c0,0-5.3-13.4,14.4-13.6c19.6-.1,227.3,0,227.3,0s14.8.7,15.7,5.9.6,7.2,8.4,7.5s84.1,0,84.1,0s8.8.8,10-4.3v9l-358-1-1.9-.6" opacity="0.32" fill="#555b5f"/></g><rect width="362.3" height="3.8" rx="0" ry="0" transform="translate(144.7 291.7)" fill="#555b5f"/><g opacity="0.45"><g><g clip-path="url(#ehnkwmt1XxY19)"><g opacity="0.23"><rect width="4.1" height="119.2" rx="0" ry="0" transform="translate(404.1 172.1)" fill="#555b5f"/><polygon points="405.5,171.9 410.4,171.9 410.4,291.6 405.5,291.6 405.5,291.4 408,291.4 408,172.1 405.5,172.1"/><rect width="4.6" height="119.7" rx="0" ry="0" transform="translate(410.4 171.9)" fill="#555b5f"/><g><rect width="1.5" height="118.8" rx="0" ry="0" transform="translate(407 172.3)" fill="#1a1a1a"/></g></g><clipPath id="ehnkwmt1XxY19"><use width="15.625702" height="122.5" xlink:href="#ehnkwmt1XxY2"/></clipPath></g></g></g><g opacity="0.45"><g><g clip-path="url(#ehnkwmt1XxY30)"><g opacity="0.23"><polygon points="500.7,291.4 501.5,160.2 504.8,159.6 504.8,291.4" fill="#555b5f"/><polygon points="503.4,172.1 500.9,172.1 500.9,291.4 503.4,291.4 503.4,291.6 498.5,291.6 498.5,171.9 503.4,171.9"/><rect width="4.6" height="119.7" rx="0" ry="0" transform="translate(493.9 171.9)" fill="#555b5f"/><g><rect width="1.5" height="118.8" rx="0" ry="0" transform="translate(500.4 172.3)" fill="#1a1a1a"/></g></g><clipPath id="ehnkwmt1XxY30"><use width="15" height="129.407898" xlink:href="#ehnkwmt1XxY3"/></clipPath></g></g></g><rect width="359.4" height="24.2" rx="0" ry="0" transform="translate(145.2 294.5)" fill="#d4d4d4"/><g opacity="0.23"><rect width="358.8" height="7.7" rx="0" ry="0" transform="translate(145.2 309)" fill="#d4d4d4"/><polygon points="504.8,311.7 504.8,320.9 144.5,320.9 144.5,311.7 145.2,311.7 145.2,316.4 504.1,316.4 504.1,311.7" fill="#fff"/><rect width="360.3" height="8.6" rx="0" ry="0" transform="translate(144.5 320.9)" fill="#d4d4d4"/><g><rect width="360.3" height="2.8" rx="0" ry="0" transform="translate(145.8 314.5)" fill="#fff"/></g></g><g><path d="M487,423c-.1,3.2-2.6,5.6-5.4,5.5h-89.8c-2.9.2-5.3-2.3-5.4-5.5v-71c.1-3.2,2.6-5.6,5.4-5.5h89.8c2.9-.2,5.3,2.3,5.4,5.5v71v0Z" fill="#e5e5e5" stroke="#4a4a4a" stroke-width="0.3565" stroke-miterlimit="10"/><path d="M460.6,397.7c0,.5-.4,1-.9,1h-46.1c-.4,0-.9-.5-.9-1v-1.4c0-.5.4-1,.9-1h46.1c.4,0,.9.5.9,1v1.4v0Z" fill="#2a353f" stroke="#000" stroke-width="0.5513" stroke-linecap="round" stroke-linejoin="round"/><rect width="47.9" height="1" rx="0" ry="0" transform="translate(412.8 396.6)" fill="none" stroke="#000" stroke-width="0.1103" stroke-linecap="round" stroke-linejoin="round"/><path d="M460.6,397.5v.2c0,.5-.4,1-.9,1h-46.1c-.4,0-.9-.5-.9-1v-.2h47.9Z" fill="#161b1e" stroke="#000" stroke-width="0.1103" stroke-linecap="round" stroke-linejoin="round"/><path d="M460.6,396.3v.2h-47.9v-.2c0-.5.4-1,.9-1h46.1c.6,0,.9.4.9,1Z" fill="#161b1e" stroke="#000" stroke-width="0.1103" stroke-linecap="round" stroke-linejoin="round"/><rect width="47.9" height="1" rx="0" ry="0" transform="translate(412.8 396.6)" fill="none" stroke="#000" stroke-width="0.1103" stroke-linecap="round" stroke-linejoin="round"/><rect width="47.9" height="1" rx="0" ry="0" transform="translate(412.8 396.6)" stroke="#000" stroke-width="0.1103" stroke-linecap="round" stroke-linejoin="round"/></g><path d="M290.6,362.3h-32.6c-.7-.1-1.3-.8-1.3-1.8-.1-1,.6-1.9,1.3-2h32.6c.7.1,1.3.8,1.3,1.8.1,1.1-.5,1.9-1.3,2Z" fill="#fff"/><circle r="3.2" transform="translate(274.8 119.6)" fill="#2a353f" stroke="#000" stroke-width="0.093122" stroke-linecap="round" stroke-linejoin="round" stroke-miterlimit="1"/><path d="M378.4,260.2c0,2.1-1.7,3.8-3.8,3.8h-199.6c-2.1,0-3.8-1.7-3.8-3.8v-120c0-2.1,1.7-3.8,3.8-3.8h199.6c2.1,0,3.8,1.7,3.8,3.8v120v0Z" fill="#2a353f" stroke="#000" stroke-width="0.093122" stroke-linecap="round" stroke-linejoin="round" stroke-miterlimit="1"/><path d="M374.6,136.5h-199.6c-2.1,0-3.8,1.7-3.8,3.8v120c0,2.1,1.7,3.8,3.8,3.8h199.6c2.1,0,3.8-1.7,3.8-3.8v-120.1c0-2.1-1.7-3.7-3.8-3.7Zm-8.7,115.1h-182.2v-102.7h182.2v102.7Z" stroke="#000" stroke-width="0.093122" stroke-linecap="round" stroke-linejoin="round" stroke-miterlimit="1"/><rect width="182.2" height="102.7" rx="0" ry="0" transform="translate(183.7 148.9)" fill="#37e6d5" stroke="#000" stroke-width="0.093122" stroke-linecap="round" stroke-linejoin="round" stroke-miterlimit="1"/><circle r="3.2" transform="translate(274.8 119.6)" stroke="#000" stroke-width="0.093122" stroke-linecap="round" stroke-linejoin="round" stroke-miterlimit="1"/><g><circle r="20.8" transform="translate(321.7 214.7)" fill="#fff"/><line x1="303.8" y1="169" x2="340" y2="169" fill="none" stroke="#fff" stroke-width="5.8003" stroke-linecap="round" stroke-miterlimit="1"/><line x1="210.7" y1="164.8" x2="246.8" y2="164.8" fill="none" stroke="#fff" stroke-width="4.853" stroke-linecap="round" stroke-miterlimit="1"/><line x1="210.7" y1="173.1" x2="246.8" y2="173.1" fill="none" stroke="#fff" stroke-width="4.853" stroke-linecap="round" stroke-miterlimit="1"/><line x1="214.6" y1="196.5" x2="240.9" y2="196.5" fill="none" stroke="#fff" stroke-width="4.853" stroke-linecap="round" stroke-miterlimit="1"/><line x1="209.7" y1="206.2" x2="245.9" y2="206.2" fill="none" stroke="#0d4160" stroke-width="2.4266" stroke-linecap="round" stroke-miterlimit="1"/><line x1="268" y1="169" x2="282" y2="169" fill="none" stroke="#0d4160" stroke-width="4.853" stroke-linecap="round" stroke-miterlimit="1"/><line x1="214.6" y1="223.1" x2="240.9" y2="223.1" fill="none" stroke="#fff" stroke-width="4.853" stroke-linecap="round" stroke-miterlimit="1"/><line x1="209.7" y1="232.8" x2="245.9" y2="232.8" fill="none" stroke="#0d4160" stroke-width="2.4266" stroke-linecap="round" stroke-miterlimit="1"/></g><path d="M144.5,408c0,0-4.2-1.1-4.2-5.4v-290.2h4.2v295.6Z" fill="#1a1a1a"/><path d="M504.3,408.8v0-246.6h4.3v239.9c0,3.2-.4,5-4.3,6.7Z" fill="#1a1a1a"/><g><path d="M428.7,238.8v-3.7c.1-1.8,1.4-3.3,3-3.3h44c1.6-.1,2.9,1.4,3,3.3v3.7h-50Z" fill="#808080"/><rect width="50" height="10" rx="0" ry="0" transform="translate(428.7 238.8)" fill="#979797"/><path d="M428.7,266.6v-17.8h50v17.8c-.1,1.8-1.4,3.3-3,3.3h-43.9c-1.7.1-3.1-1.3-3.1-3.3Z" fill="#979797"/><g><path d="M207.2,306.9v-3.7c.1-1.8,1.4-3.3,3-3.3h128.3c1.6-.1,2.9,1.4,3,3.3v3.7h-134.3Z" fill="#979797"/><rect width="134.3" height="10" rx="0" ry="0" transform="translate(207.3 306.9)" fill="#979797"/><path d="M207.2,342.5v-25.6h134.3v25.6c-.1,1.8-1.4,3.3-3,3.3h-128.3c-1.5,0-2.9-1.4-3-3.3Z" fill="#808080"/></g><rect width="34.5" height="5" rx="0" ry="0" transform="translate(436.4 248)"/></g><path d="M341.6,338.4v3.7c-.1,1.8-1.4,3.3-3,3.3h-128.3c-1.6.1-2.9-1.4-3-3.3v-3.7h134.3Z" opacity="0.38" fill="#dfdfdf"/><rect width="106.1" height="10.4" rx="0" ry="0" transform="translate(221.3 319.3)"/><rect width="106.1" height="2.4" rx="0" ry="0" transform="translate(221.3 323.3)" fill="#34393d" stroke="#000" stroke-width="0.096109" stroke-linecap="round" stroke-linejoin="round"/><g><rect width="184.7" height="104.1" rx="0" ry="0" transform="translate(182.1 148.2)" fill="#37e6d5" stroke="#000" stroke-width="0.09435" stroke-linecap="round" stroke-linejoin="round"/></g></g><g><line x1="204.9" y1="172.2" x2="268.1" y2="172.2" fill="none" stroke="#fff" stroke-width="4.0255" stroke-linecap="round" stroke-linejoin="round" stroke-miterlimit="10"/><line x1="204.9" y1="181.7" x2="249.1" y2="181.7" fill="none" stroke="#fff" stroke-width="4.0255" stroke-linecap="round" stroke-linejoin="round" stroke-miterlimit="10"/><line x1="204.9" y1="196.4" x2="249.1" y2="196.4" fill="none" stroke="#004263" stroke-width="2.0127" stroke-linecap="round" stroke-linejoin="round" stroke-miterlimit="10"/><line x1="204.9" y1="203.4" x2="239.1" y2="203.4" fill="none" stroke="#004263" stroke-width="2.0127" stroke-linecap="round" stroke-linejoin="round" stroke-miterlimit="10"/></g><g><g><g><g><path d="M242.9,215.5h-37.8c-.6,0-1-.4-1-1s.4-1,1-1h37.8c.6,0,1,.4,1,1c.1.5-.4,1-1,1Z" fill="#fff"/></g></g></g></g><g id="ehnkwmt1XxY89_to" transform="translate(547.507849,890.045904)"><g transform="translate(-522.992126,-468.005585)"><g><g><g><g clip-path="url(#ehnkwmt1XxY185)"><g><path d="M431.8,301.6c.1,0,.1,0,0,0v0l37.6,6-3,8.4-34.7,1.8v0c0,0,0,0-.1,0-4.9.3-8.8-3.2-8.8-7.8.1-4.5,3.4-9.5,9-8.4Z" fill="#b1b1b1"/><path d="M435.3,313.8v0v0l32.8-3.9l3,14.9-32.7,3.8v0c0,0,0,0-.1,0-4.6.5-9.1-2.4-9.7-6.5-.7-4.1,2.2-7.8,6.7-8.3Z" fill="#b1b1b1"/><path d="M438.6,326.4v0v0l29.9-.5.7,13.6-29.8.4v0c0,0,0,0-.1,0-4.2.1-7.8-2.9-8-6.7s3-6.8,7.3-6.8Z" fill="#b1b1b1"/><path d="M467.1,288.5c1.8-.2,3.6.3,5,1.4l15.3,11.4c2.3,1.8,3.6,4.3,3.7,7l3.8,54.1c.2,3.2-2.6,5.8-6.1,5.8l-13,.2c-3.6,0-6.7-2.5-6.9-5.6v-45.4L457,308.5l-24.5,1.2c-10.4.8-16.6-3.5-15.3-9.7.8-3.6,2.7-6.3,10.7-6.7l39.2-4.8Z" fill="#b1b1b1"/><path d="M461,215.9l40.4,67.3c1.2,2,.6,4.6-1.4,5.9l-41.2,24.7c-2,1.2-4.6.6-5.9-1.4l-40.4-67.3c-1.2-2-.6-4.6,1.4-5.9l41.2-24.7c2.1-1.3,4.7-.7,5.9,1.4Z" fill="#c96561"/><path d="M461,215.9l40.4,67.3c1.2,2,.6,4.6-1.4,5.9l-41.2,24.7c-2,1.2-4.6.6-5.9-1.4l-40.4-67.3c-1.2-2-.6-4.6,1.4-5.9l41.2-24.7c2.1-1.3,4.7-.7,5.9,1.4Z" fill="#2eb7aa"/><g><path d="M460.4,215.2l40.8,68c1,1.6.4,3.7-1.2,4.7L458,313c-1.6,1-3.7.4-4.7-1.2l-40.8-68c-1-1.6-.4-3.7,1.2-4.7l42-25.1c1.7-1,3.8-.4,4.7,1.2Z" fill="#fc7e79"/><path d="M460.4,215.2l40.8,68c1,1.6.4,3.7-1.2,4.7L458,313c-1.6,1-3.7.4-4.7-1.2l-40.8-68c-1-1.6-.4-3.7,1.2-4.7l42-25.1c1.7-1,3.8-.4,4.7,1.2Z" fill="#37e6d5"/><rect width="12.7" height="86" rx="0" ry="0" transform="matrix(.8576-.5143 0.5143 0.8576 440.294507 223.282201)" fill="#4a4a4a"/><line x1="440.9" y1="231.8" x2="477.7" y2="293.2" fill="none" stroke="#4a4a4a" stroke-width="0.877" stroke-miterlimit="10"/><line x1="438.2" y1="233.4" x2="467.2" y2="281.6" fill="none" stroke="#4a4a4a" stroke-width="0.877" stroke-miterlimit="10"/><line x1="432.8" y1="236.6" x2="443.8" y2="254.8" fill="none" stroke="#4a4a4a" stroke-width="0.877" stroke-miterlimit="10"/><line x1="430.3" y1="238.2" x2="449.7" y2="270.8" fill="none" stroke="#4a4a4a" stroke-width="0.877" stroke-miterlimit="10"/><g><polygon points="427.4,240.2 420.2,244.5 427.4,240.2 427.1,239.8 419.6,244.3 419.9,244.7 419.9,244.7 420,245 427.6,240.5" fill="#4a4a4a"/><rect width="8.8" height="0.4" rx="0" ry="0" transform="matrix(.8576-.5143 0.5143 0.8576 420.327819 245.286665)" fill="#4a4a4a"/><rect width="8.8" height="0.4" rx="0" ry="0" transform="matrix(.8576-.5143 0.5143 0.8576 420.736599 246.090025)" fill="#4a4a4a"/><rect width="8.8" height="0.4" rx="0" ry="0" transform="matrix(.8576-.5143 0.5143 0.8576 421.242539 246.879954)" fill="#4a4a4a"/><rect width="8.8" height="0.4" rx="0" ry="0" transform="matrix(.8576-.5143 0.5143 0.8576 421.696219 247.484364)" fill="#4a4a4a"/><rect width="8.8" height="0.4" rx="0" ry="0" transform="matrix(.8571-.5152 0.5152 0.8571 422.159314 248.39499)" fill="#4a4a4a"/><rect width="8.8" height="0.4" rx="0" ry="0" transform="matrix(.8576-.5143 0.5143 0.8576 422.342599 248.893424)" fill="#4a4a4a"/><rect width="8.8" height="0.4" rx="0" ry="0" transform="matrix(.8576-.5143 0.5143 0.8576 422.792549 249.387074)" fill="#4a4a4a"/><rect width="8.8" height="0.4" rx="0" ry="0" transform="matrix(.8576-.5143 0.5143 0.8576 423.129399 250.291624)" fill="#4a4a4a"/><rect width="8.8" height="0.4" rx="0" ry="0" transform="matrix(.8576-.5143 0.5143 0.8576 423.745499 251.092124)" fill="#4a4a4a"/><polygon points="431.6,247.3 424.1,251.8 424.3,252.2 424.3,252.2 424.5,252.5 432,248.1" fill="#4a4a4a"/><rect width="8.8" height="0.4" rx="0" ry="0" transform="matrix(.8571-.5152 0.5152 0.8571 424.855086 252.904901)" fill="#4a4a4a"/><rect width="8.8" height="0.4" rx="0" ry="0" transform="matrix(.8576-.5144 0.5144 0.8576 424.945857 253.314238)" fill="#4a4a4a"/><polygon points="433.3,250 433.3,250 433.1,249.6 425.4,254.1 425.7,254.5 429.4,252.2 425.7,254.5 425.9,254.9 433.5,250.3" fill="#4a4a4a"/><rect width="8.8" height="0.4" rx="0" ry="0" transform="matrix(.8576-.5143 0.5143 0.8576 426.138298 255.292724)" fill="#4a4a4a"/><rect width="8.8" height="0.4" rx="0" ry="0" transform="matrix(.8576-.5144 0.5144 0.8576 426.551839 256.117479)" fill="#4a4a4a"/><rect width="8.8" height="0.4" rx="0" ry="0" transform="matrix(.8576-.5143 0.5143 0.8576 427.093158 256.489544)" fill="#4a4a4a"/><rect width="8.8" height="0.4" rx="0" ry="0" transform="matrix(.8576-.5143 0.5143 0.8576 427.501938 257.293904)" fill="#4a4a4a"/><polygon points="435.8,254.1 432,256.3 435.8,254.1 435.5,253.7 427.9,258.3 428.2,258.7 428.2,258.7 428.4,259 435.9,254.5" fill="#4a4a4a"/><rect width="8.8" height="0.4" rx="0" ry="0" transform="matrix(.8576-.5144 0.5144 0.8576 428.75528 259.39888)" fill="#4a4a4a"/><rect width="8.8" height="0.4" rx="0" ry="0" transform="matrix(.8571-.5152 0.5152 0.8571 429.038408 259.899762)" fill="#4a4a4a"/><rect width="8.8" height="0.4" rx="0" ry="0" transform="matrix(.8576-.5143 0.5143 0.8576 429.337847 260.382724)" fill="#4a4a4a"/><rect width="8.8" height="0.4" rx="0" ry="0" transform="matrix(.8576-.5143 0.5143 0.8576 429.792627 260.987134)" fill="#4a4a4a"/><rect width="8.8" height="0.4" rx="0" ry="0" transform="matrix(.8576-.5143 0.5143 0.8576 430.200207 261.791494)" fill="#4a4a4a"/><rect width="8.8" height="0.4" rx="0" ry="0" transform="matrix(.8576-.5143 0.5143 0.8576 430.643287 262.595854)" fill="#4a4a4a"/><rect width="8.8" height="0.4" rx="0" ry="0" transform="matrix(.8576-.5143 0.5143 0.8576 431.137027 263.383783)" fill="#4a4a4a"/><polygon points="439.3,260 435.7,262.3 439.3,260 439,259.7 431.5,264.3 431.8,264.6 431.8,264.6 432,264.9 439.5,260.5" fill="#4a4a4a"/><polygon points="455.6,287.1 455.6,287.1 455.3,286.7 455.3,286.7 455.1,286.5 447.6,290.9 447.8,291.4 447.8,291.4 447.9,291.6 447.9,291.6 448.1,291.9 455.7,287.5" fill="#4a4a4a"/><rect width="8.8" height="0.4" rx="0" ry="0" transform="matrix(.8576-.5143 0.5143 0.8576 448.440303 292.404792)" fill="#4a4a4a"/><rect width="8.8" height="0.4" rx="0" ry="0" transform="matrix(.8576-.5144 0.5144 0.8576 448.947355 293.007368)" fill="#4a4a4a"/><rect width="8.8" height="0.4" rx="0" ry="0" transform="matrix(.8576-.5143 0.5143 0.8576 449.301533 293.702802)" fill="#4a4a4a"/><rect width="8.8" height="0.4" rx="0" ry="0" transform="matrix(.8576-.5143 0.5143 0.8576 449.843203 294.603492)" fill="#4a4a4a"/><polygon points="458,291.2 458,291.2 457.7,290.9 450.2,295.3 450.5,295.7 450.5,295.7 450.6,296.1 458.2,291.5" fill="#4a4a4a"/><rect width="8.8" height="0.4" rx="0" ry="0" transform="matrix(.8576-.5143 0.5143 0.8576 450.898573 296.309681)" fill="#4a4a4a"/><rect width="8.8" height="0.4" rx="0" ry="0" transform="matrix(.8576-.5143 0.5143 0.8576 451.336083 297.185801)" fill="#4a4a4a"/><rect width="8.8" height="0.4" rx="0" ry="0" transform="matrix(.8576-.5144 0.5144 0.8576 451.747838 298.013049)" fill="#4a4a4a"/><polygon points="460,294.6 460,294.6 459.8,294.2 452.2,298.7 452.4,299.1 452.4,299.1 452.7,299.4 460.2,295" fill="#4a4a4a"/><polygon points="460.4,295.3 452.9,299.9 453.1,300.2 453.1,300.2 453.3,300.6 460.8,296.1" fill="#4a4a4a"/><polygon points="461.1,296.4 453.6,301 453.8,301.4 453.8,301.4 454,301.7 461.6,297.2" fill="#4a4a4a"/><rect width="8.8" height="0.4" rx="0" ry="0" transform="matrix(.8576-.5144 0.5144 0.8576 454.25994 301.99145)" fill="#4a4a4a"/><rect width="8.8" height="0.4" rx="0" ry="0" transform="matrix(.8576-.5143 0.5143 0.8576 454.695772 302.696981)" fill="#4a4a4a"/><rect width="8.8" height="0.4" rx="0" ry="0" transform="matrix(.8576-.5143 0.5143 0.8576 455.106952 303.501341)" fill="#4a4a4a"/><rect width="8.8" height="0.4" rx="0" ry="0" transform="matrix(.8576-.5144 0.5144 0.8576 455.662861 304.19001)" fill="#4a4a4a"/><rect width="8.8" height="0.4" rx="0" ry="0" transform="matrix(.8576-.5143 0.5143 0.8576 456.002342 305.009871)" fill="#4a4a4a"/><rect width="8.8" height="0.4" rx="0" ry="0" transform="matrix(.8576-.5143 0.5143 0.8576 432.236857 265.274493)" fill="#4a4a4a"/><rect width="8.8" height="0.4" rx="0" ry="0" transform="matrix(.8576-.5143 0.5143 0.8576 432.594307 265.993093)" fill="#4a4a4a"/><rect width="8.8" height="0.4" rx="0" ry="0" transform="matrix(.8576-.5143 0.5143 0.8576 433.035187 266.797453)" fill="#4a4a4a"/><polygon points="441.3,263.5 441.3,263.5 441.1,263.1 433.5,267.6 433.8,268 433.8,268 434,268.4 441.5,263.9" fill="#4a4a4a"/><polygon points="442.1,264.6 442.1,264.6 441.8,264.3 434.2,268.7 434.4,269.1 434.4,269.1 434.6,269.5 442.3,264.9" fill="#4a4a4a"/><polygon points="442.7,265.7 442.7,265.7 442.5,265.2 434.9,269.9 435.1,270.3 435.1,270.3 435.3,270.7 443,266" fill="#4a4a4a"/><rect width="8.8" height="0.4" rx="0" ry="0" transform="matrix(.8576-.5143 0.5143 0.8576 435.500016 270.897863)" fill="#4a4a4a"/><rect width="8.8" height="0.4" rx="0" ry="0" transform="matrix(.8576-.5143 0.5143 0.8576 436.045186 271.798553)" fill="#4a4a4a"/><rect width="8.8" height="0.4" rx="0" ry="0" transform="matrix(.8576-.5143 0.5143 0.8576 436.438136 272.478153)" fill="#4a4a4a"/><rect width="8.8" height="0.4" rx="0" ry="0" transform="matrix(.8576-.5144 0.5144 0.8576 436.970626 273.203683)" fill="#4a4a4a"/><polygon points="445.2,269.8 445.2,269.8 445,269.5 437.4,274 437.8,274.8 445.4,270.2" fill="#4a4a4a"/><rect width="8.8" height="0.4" rx="0" ry="0" transform="matrix(.8576-.5143 0.5143 0.8576 438.198466 274.994413)" fill="#4a4a4a"/><polygon points="446.4,271.8 446.4,271.8 446.1,271.5 438.5,275.9 438.7,276.3 438.7,276.3 439,276.7 446.6,272.3" fill="#4a4a4a"/><rect width="8.8" height="0.4" rx="0" ry="0" transform="matrix(.8576-.5143 0.5143 0.8576 439.136735 277.097503)" fill="#4a4a4a"/><rect width="8.8" height="0.4" rx="0" ry="0" transform="matrix(.8576-.5144 0.5144 0.8576 439.643948 277.699004)" fill="#4a4a4a"/><rect width="8.8" height="0.4" rx="0" ry="0" transform="matrix(.8576-.5143 0.5143 0.8576 440.130955 278.491843)" fill="#4a4a4a"/><rect width="8.8" height="0.4" rx="0" ry="0" transform="matrix(.8576-.5143 0.5143 0.8576 440.642025 279.403532)" fill="#4a4a4a"/><polygon points="448.7,275.6 441.1,280 441.3,280.5 441.3,280.5 441.6,280.8 449,276.2" fill="#4a4a4a"/><rect width="8.8" height="0.4" rx="0" ry="0" transform="matrix(.8576-.5143 0.5143 0.8576 441.805025 280.997532)" fill="#4a4a4a"/><rect width="8.8" height="0.4" rx="0" ry="0" transform="matrix(.8576-.5143 0.5143 0.8576 442.140775 281.902082)" fill="#4a4a4a"/><rect width="8.8" height="0.4" rx="0" ry="0" transform="matrix(.8576-.5143 0.5143 0.8576 442.696874 282.700582)" fill="#4a4a4a"/><polygon points="450.6,279 443.1,283.4 443.4,283.8 443.4,283.8 443.6,284.2 451.1,279.8" fill="#4a4a4a"/><polygon points="451.3,280.1 443.8,284.6 444,285 444,285 444.3,285.4 451.7,280.8" fill="#4a4a4a"/><polygon points="452,281.2 444.4,285.8 444.7,286.1 444.7,286.1 444.9,286.6 452.4,281.9" fill="#4a4a4a"/><rect width="8.8" height="0.4" rx="0" ry="0" transform="matrix(.8576-.5144 0.5144 0.8576 445.140593 286.801966)" fill="#4a4a4a"/><rect width="8.8" height="0.4" rx="0" ry="0" transform="matrix(.8576-.5143 0.5143 0.8576 445.543724 287.582782)" fill="#4a4a4a"/><rect width="8.8" height="0.4" rx="0" ry="0" transform="matrix(.8576-.5143 0.5143 0.8576 446.038764 288.397712)" fill="#4a4a4a"/><rect width="8.8" height="0.4" rx="0" ry="0" transform="matrix(.8576-.5144 0.5144 0.8576 446.568514 289.013527)" fill="#4a4a4a"/><polygon points="454.7,285.8 454.7,285.8 454.5,285.3 446.9,289.8 447.1,290.3 447.1,290.3 447.4,290.6 454.9,286.1" fill="#4a4a4a"/></g></g><path d="M476.4,348l-9.9-57c-1.4-4.6-6.9-7.5-12.2-6.3-5.2,1.1-7.3,3.3-6.7,10.4l1,15.2l1.4,9.6c0,3.6.6,7.2,2,10.7c2.2,5.5-.2-4-1.8,1.7l-.5,1.9c-3.1,14.2,1,29.3,5.6,35.5c2.3,3.1,3.4,5.8,6.9,7.7c5.4,2.9,8.9,18.7,12.5,28.4c5,13.8,103.7,316.7,103.7,316.7l55.7-3.4L493.9,348.6" fill="#b1b1b1"/></g><clipPath id="ehnkwmt1XxY185"><use width="641.100037" height="626.299988" xlink:href="#ehnkwmt1XxY4"/></clipPath></g></g></g></g></g></g><g><path d="M289.9,180h51.8c3.3,0,6.2,2.7,6.2,6.2v29.2c0,3.3-2.7,6.2-6.2,6.2h-51.8c-3.3,0-6.2-2.7-6.2-6.2v-29.2c.2-3.6,2.8-6.2,6.2-6.2Z" fill="#fff"/><rect width="19" height="29.6" rx="0" ry="0" transform="translate(289.7 184.8)" fill="#f0f0f0"/><rect width="16.3" height="2.3" rx="0" ry="0" transform="translate(315.9 185.5)" fill="#414042"/><rect width="18.5" height="2.3" rx="0" ry="0" transform="translate(315.9 190.1)" fill="#414042"/><rect width="18.5" height="0.9" rx="0" ry="0" transform="translate(315.9 198.8)" fill="#414042"/><rect width="18.5" height="0.9" rx="0" ry="0" transform="translate(315.9 201)" fill="#414042"/><rect width="18.5" height="0.9" rx="0" ry="0" transform="translate(315.9 203.8)" fill="#414042"/><rect width="18.5" height="0.9" rx="0" ry="0" transform="translate(315.9 206.2)" fill="#414042"/></g></svg>
